<svg width="545" height="404" viewBox="0 0 545 404" fill="none" xmlns="http://www.w3.org/2000/svg">
<path opacity="0.1" d="M158.068 65.6233C158.068 65.6233 219.617 112.33 313.187 24.9964C396.286 -52.5627 464.139 69.8084 464.612 128.411C465.227 204.322 381.513 265.062 422.14 314.922C462.765 364.782 341.571 447.118 276.254 375.862C195 287.222 172.989 359.243 126.675 359.243C93.4348 359.243 25.1899 276.648 71.2749 215.202C110.055 163.496 88.9049 146.336 78.6629 128.411C63.8884 102.557 98.9749 32.3836 158.068 65.6233Z" fill="#373737"/>
<path d="M405.167 168.839C408.475 170.069 412.089 170.151 415.529 169.359C429.941 166.053 479.495 157.293 470.885 195.694C469.01 203.311 439.988 245.98 481.318 261.554C484.348 262.71 487.55 263.341 490.791 263.419C503.517 263.682 528.734 260.677 539.288 249.935C552.039 236.956 538.109 243.11 538.109 243.11C538.109 243.11 489.639 264.262 472.517 241.821C470.613 239.324 469.399 235.697 469.053 232.575C468.45 227.163 470.853 220.011 474.01 213.783C478.284 205.355 498.798 167.445 454.256 156.401C443.996 153.958 429.092 151.764 409.877 159.853C398.668 164.573 401.151 167.346 405.167 168.839Z" fill="#00267B"/>
<path d="M335.891 168.659L293.345 184.583C291.117 185.415 289.987 187.896 290.822 190.122L290.99 190.571C291.822 192.797 294.303 193.927 296.531 193.095L339.077 177.17C341.305 176.336 342.435 173.855 341.6 171.629L341.432 171.18C340.6 168.954 338.119 167.824 335.891 168.659Z" fill="#373737"/>
<path d="M347.766 200.386L305.218 216.309C302.992 217.143 301.862 219.623 302.697 221.85L302.863 222.299C303.697 224.525 306.178 225.654 308.404 224.82L350.952 208.898C353.178 208.063 354.307 205.583 353.475 203.357L353.307 202.908C352.475 200.681 349.992 199.552 347.766 200.386Z" fill="#373737"/>
<path d="M387.047 147.007L352.564 159.911C348.11 161.578 345.851 166.541 347.517 170.994L359.292 202.451C360.959 206.903 365.92 209.163 370.373 207.496L404.858 194.591C409.31 192.924 411.569 187.964 409.903 183.509L398.13 152.052C396.463 147.599 391.502 145.34 387.047 147.007Z" fill="#00267B"/>
<path d="M356.129 155.257L321.644 168.164C317.192 169.831 314.933 174.792 316.599 179.247L330.646 216.776C332.313 221.229 337.274 223.488 341.726 221.821L376.211 208.916C380.664 207.25 382.923 202.289 381.256 197.834L367.21 160.305C365.543 155.85 360.582 153.591 356.129 155.257Z" fill="#0045E6"/>
<path d="M9.90313 181.256C9.90313 181.256 79.1585 161.793 69.1038 206.635C67.3577 213.73 42.2224 250.261 72.1622 267.801C78.591 271.567 86.01 273.235 93.4603 273.197C106.818 273.127 127.994 270.556 137.508 260.874C150.257 247.895 136.329 254.05 136.329 254.05C136.329 254.05 96.5542 270.411 76.0917 257.368C69.1047 252.916 65.9376 244.294 67.8349 236.227C68.8048 232.221 70.2814 228.355 72.2295 224.722C76.6796 216.387 97.0183 178.384 52.4759 167.341C42.215 164.897 27.3119 162.704 8.09585 170.793C-11.1202 178.884 9.90313 181.256 9.90313 181.256Z" fill="#00267B"/>
<path d="M146.82 244.014L133.919 248.844C129.465 250.511 127.206 255.472 128.873 259.926L129.512 261.634C131.179 266.089 136.141 268.348 140.594 266.679L153.495 261.851C157.949 260.185 160.208 255.224 158.541 250.769L157.901 249.061C156.235 244.607 151.273 242.348 146.82 244.014Z" fill="#0045E6"/>
<path d="M168.617 222.789L149.497 229.945C145.043 231.612 142.784 236.573 144.451 241.028L153.671 265.66C155.337 270.115 160.299 272.374 164.752 270.707L183.872 263.551C188.326 261.884 190.585 256.923 188.918 252.469L179.699 227.836C178.032 223.381 173.07 221.122 168.617 222.789Z" fill="#00267B"/>
<path d="M200.447 203.822L171.934 214.494C167.481 216.161 165.222 221.122 166.888 225.577L180.934 263.106C182.601 267.561 187.563 269.82 192.016 268.153L220.529 257.481C224.984 255.814 227.243 250.853 225.576 246.398L211.529 208.869C209.863 204.414 204.902 202.155 200.447 203.822Z" fill="#0045E6"/>
<path d="M206.489 196.05L206.218 196.151C203.248 197.262 201.743 200.57 202.854 203.539L222.53 256.115C223.641 259.084 226.95 260.59 229.918 259.479L230.189 259.377C233.157 258.266 234.664 254.959 233.553 251.989L213.875 199.414C212.764 196.446 209.457 194.939 206.489 196.05Z" fill="#373737"/>
<path d="M279.299 162.556C278.272 162.441 277.329 161.935 276.669 161.139C276.011 160.344 275.685 159.325 275.761 158.294L277.889 119.434C278.016 117.113 279.976 115.349 282.2 115.554L285.299 115.841C287.524 116.047 289.117 118.137 288.805 120.443L283.577 159.015C283.459 160.042 282.946 160.983 282.149 161.643C281.351 162.304 280.33 162.629 279.299 162.556Z" fill="#00267B"/>
<path d="M260.93 165.905C260.61 166 260.276 166.03 259.944 165.996C259.614 165.959 259.292 165.858 259.001 165.698C258.708 165.54 258.451 165.325 258.242 165.065C258.033 164.807 257.877 164.507 257.783 164.189L250.186 140.016C249.964 139.329 250.026 138.581 250.354 137.939C250.684 137.296 251.254 136.81 251.942 136.588L253.908 135.994C254.247 135.895 254.601 135.869 254.95 135.914C255.298 135.959 255.633 136.076 255.934 136.258C256.235 136.439 256.496 136.681 256.699 136.968C256.901 137.255 257.043 137.58 257.113 137.925L262.744 162.693C262.902 163.357 262.801 164.058 262.465 164.655C262.129 165.249 261.582 165.696 260.93 165.905Z" fill="#00267B"/>
<path d="M250.675 179.846C249.314 181.533 246.575 181.512 244.468 179.801L207.053 149.401C204.817 147.585 204.159 144.579 205.602 142.792L207.615 140.299C209.06 138.509 212.025 138.657 214.14 140.621L249.544 173.515C251.538 175.366 252.037 178.161 250.675 179.846Z" fill="#00267B"/>
<path d="M267.972 258.365C268.936 258.738 269.717 259.47 270.151 260.407C270.588 261.344 270.641 262.414 270.305 263.389L258.323 300.417C257.607 302.629 255.262 303.832 253.163 303.065L250.238 301.997C248.14 301.23 247.134 298.801 248.024 296.655L262.929 260.696C263.308 259.732 264.042 258.953 264.983 258.519C265.922 258.084 266.992 258.029 267.972 258.365Z" fill="#00267B"/>
<path d="M286.589 259.818C286.921 259.807 287.253 259.865 287.565 259.984C287.874 260.103 288.159 260.281 288.401 260.51C288.643 260.738 288.838 261.013 288.973 261.316C289.108 261.619 289.184 261.948 289.192 262.282L290.365 287.593C290.402 288.315 290.154 289.02 289.67 289.557C289.188 290.096 288.512 290.42 287.792 290.459L285.738 290.531C285.385 290.539 285.037 290.475 284.711 290.342C284.385 290.209 284.092 290.01 283.846 289.758C283.602 289.506 283.411 289.206 283.288 288.876C283.167 288.546 283.114 288.196 283.132 287.845L284.014 262.462C284.032 261.777 284.309 261.125 284.785 260.636C285.262 260.146 285.906 259.854 286.589 259.818Z" fill="#00267B"/>
<path d="M300.062 248.957C301.808 247.673 304.451 248.393 306.05 250.586L334.463 289.532C336.158 291.859 336.029 294.932 334.176 296.293L331.593 298.189C329.739 299.551 326.908 298.651 325.365 296.211L299.535 255.367C298.083 253.069 298.315 250.24 300.062 248.957Z" fill="#00267B"/>
</svg>
