<svg width="50" height="50" viewBox="0 0 50 50" fill="none" xmlns="http://www.w3.org/2000/svg">
<g id="A data analytics and modelling module" clip-path="url(#clip0_943_4509)">
<path id="Vector" d="M45.8332 6.67383H45V8.34022H45.8332C47.214 8.34022 48.3328 9.45942 48.3328 10.8398V33.3361H46.6582V35.0024H48.3328V36.6688C48.3299 37.5639 47.8503 38.3889 47.0748 38.8352L47.908 40.2799C49.1993 39.5354 49.9959 38.1595 49.9992 36.6688V10.8398C49.9967 8.54038 48.133 6.67668 45.8332 6.67383Z" fill="#1E1D28"/>
<path id="Vector_2" d="M0.00813667 36.6688C0.0109845 38.9687 1.87469 40.832 4.17411 40.8348H19.6484L16.9214 48.3335H14.1716V49.9999H35.8347V48.3335H33.0853L32.0731 45.5492L30.5064 46.1192L31.3131 48.3335H18.6944L21.6216 40.2868C21.7143 40.0313 21.6769 39.7465 21.5211 39.5236C21.3648 39.301 21.1102 39.1684 20.838 39.1684H4.17411C2.79372 39.1684 1.67453 38.0492 1.67453 36.6688L1.66639 35.0024H17.5052V33.3361H1.66639L1.67453 10.8398C1.67453 9.45942 2.79372 8.34022 4.17411 8.34022H5.0073V6.67383H4.17411C1.87469 6.67668 0.0109845 8.54038 0.00813667 10.8398L0 34.1692L0.00813667 36.6688Z" fill="#1E1D28"/>
<path id="Vector_3" d="M43.3344 19.1712V4.17378C43.3319 1.87436 41.4682 0.0106603 39.1684 0.0078125H10.8398C8.54038 0.0106603 6.67668 1.87436 6.67383 4.17378V31.6692H8.34022V4.17378C8.34022 2.7934 9.45942 1.6742 10.8398 1.6742H39.1684C40.5492 1.6742 41.668 2.7934 41.668 4.17378V19.1712H43.3344Z" fill="#1E1D28"/>
<path id="Vector_4" d="M10.8398 3.3418H12.5062V5.00819H10.8398V3.3418Z" fill="#1E1D28"/>
<path id="Vector_5" d="M14.1719 3.3418H15.8383V5.00819H14.1719V3.3418Z" fill="#1E1D28"/>
<path id="Vector_6" d="M17.5059 3.3418H19.1723V5.00819H17.5059V3.3418Z" fill="#1E1D28"/>
<path id="Vector_7" d="M17.5054 26.6706V20.005C17.5054 19.5449 17.1327 19.1719 16.6722 19.1719H13.3394C12.8793 19.1719 12.5062 19.5449 12.5062 20.005V25.8374H10.8398V27.5038H17.5054V26.6706ZM15.839 25.8374H14.1726V20.8382H15.839V25.8374Z" fill="#1E1D28"/>
<path id="Vector_8" d="M24.171 18.3389V14.1729C24.171 13.7128 23.7984 13.3398 23.3378 13.3398H20.0051C19.5449 13.3398 19.1719 13.7128 19.1719 14.1729V21.6717H20.8383V15.0061H22.5047V18.3389H24.171Z" fill="#1E1D28"/>
<path id="Vector_9" d="M30.8371 15.8387V13.3391C30.8371 12.879 30.4644 12.5059 30.0039 12.5059H26.6711C26.211 12.5059 25.8379 12.879 25.8379 13.3391V16.6719H27.5043V14.1723H29.1707V15.8387H30.8371Z" fill="#1E1D28"/>
<path id="Vector_10" d="M37.5012 15.8401V10.841C37.5012 10.3808 37.1285 10.0078 36.668 10.0078H33.3352C32.8751 10.0078 32.502 10.3808 32.502 10.841V15.8401H34.1684V11.6742H35.8348V15.8401H37.5012Z" fill="#1E1D28"/>
<path id="Vector_11" d="M43.2305 38.7174C47.2415 33.2682 46.5535 25.6824 41.6272 21.0437C36.7013 16.405 29.0878 16.1735 23.8893 20.5046C18.6903 24.8354 17.5431 32.3655 21.2156 38.0485C24.888 43.7312 32.2249 45.7784 38.3091 42.8178L44.558 49.0668C45.1569 49.6612 45.9661 49.9964 46.8102 49.9988C48.5718 49.9972 49.9994 48.5696 50.001 46.8076C49.9986 45.9622 49.6621 45.1514 49.0657 44.5522L43.2305 38.7174ZM32.504 42.5001C26.0618 42.5001 20.8392 37.2776 20.8392 30.8354C20.8392 24.3932 26.0618 19.1706 32.504 19.1706C38.9466 19.1706 44.1687 24.3932 44.1687 30.8354C44.1622 37.2747 38.9437 42.4932 32.504 42.5001ZM47.8884 47.8849C47.2842 48.4586 46.3367 48.4586 45.733 47.8849L39.8172 41.9696C40.6711 41.4049 41.4575 40.7442 42.161 40.0005L47.89 45.7295C48.1748 46.0159 48.3359 46.4028 48.3375 46.8068C48.3375 47.212 48.1756 47.6002 47.8884 47.8849Z" fill="url(#paint0_linear_943_4509)"/>
<path id="Vector_12" d="M32.5022 20.8379C26.9807 20.8379 22.5039 25.3143 22.5039 30.8363C22.5039 36.3582 26.9807 40.8346 32.5022 40.8346C38.0242 40.8346 42.5005 36.3582 42.5005 30.8363C42.4949 25.3168 38.0217 20.844 32.5022 20.8379ZM32.5022 39.1682C27.9009 39.1682 24.1703 35.438 24.1703 30.8363C24.1703 26.2346 27.9009 22.5043 32.5022 22.5043C37.1039 22.5043 40.8342 26.2346 40.8342 30.8363C40.8293 35.4359 37.1019 39.1633 32.5022 39.1682Z" fill="url(#paint1_linear_943_4509)"/>
<path id="Vector_13" d="M31.0785 26.0458C31.541 25.9083 32.0211 25.8387 32.5032 25.8383V24.1719C31.8588 24.1715 31.2176 24.2643 30.5996 24.4477L31.0785 26.0458Z" fill="url(#paint2_linear_943_4509)"/>
<path id="Vector_14" d="M25.8379 30.8371H27.5043C27.5051 29.2012 28.3054 27.669 29.6475 26.7337L28.6943 25.3672C26.9058 26.6141 25.8391 28.6568 25.8379 30.8371Z" fill="url(#paint3_linear_943_4509)"/>
<path id="Vector_15" d="M10.8398 29.1699H14.1726V30.8364H10.8398V29.1699Z" fill="#1E1D28"/>
<path id="Vector_16" d="M15.8398 29.1699H17.5062V30.8364H15.8398V29.1699Z" fill="#1E1D28"/>
<path id="Vector_17" d="M10.8398 6.67383H39.1685V8.34022H10.8398V6.67383Z" fill="#1E1D28"/>
<path id="Vector_18" d="M10.8398 10.0078H14.1726V11.6742H10.8398V10.0078Z" fill="#1E1D28"/>
</g>
<defs>
<linearGradient id="paint0_linear_943_4509" x1="34.5367" y1="17.4043" x2="34.5367" y2="49.9988" gradientUnits="userSpaceOnUse">
<stop stop-color="#E7324B"/>
<stop offset="1" stop-color="#E97627"/>
</linearGradient>
<linearGradient id="paint1_linear_943_4509" x1="32.5022" y1="20.8379" x2="32.5022" y2="40.8346" gradientUnits="userSpaceOnUse">
<stop stop-color="#E7324B"/>
<stop offset="1" stop-color="#E97627"/>
</linearGradient>
<linearGradient id="paint2_linear_943_4509" x1="31.5514" y1="24.1719" x2="31.5514" y2="26.0458" gradientUnits="userSpaceOnUse">
<stop stop-color="#E7324B"/>
<stop offset="1" stop-color="#E97627"/>
</linearGradient>
<linearGradient id="paint3_linear_943_4509" x1="27.7427" y1="25.3672" x2="27.7427" y2="30.8371" gradientUnits="userSpaceOnUse">
<stop stop-color="#E7324B"/>
<stop offset="1" stop-color="#E97627"/>
</linearGradient>
<clipPath id="clip0_943_4509">
<rect width="50" height="50" fill="white"/>
</clipPath>
</defs>
</svg>
