<svg width="241" height="150" viewBox="0 0 241 150" fill="none" xmlns="http://www.w3.org/2000/svg">
<g clip-path="url(#clip0_221_41320)">
<path d="M240.07 0H0.0698242V150H240.07V0Z" fill="white"/>
<path d="M81.519 97.4482H179.588" stroke="#7B7F80" stroke-width="0.387931" stroke-miterlimit="10"/>
<path d="M80.1753 105.724H81.9856L84.6753 119.897H85.3477L88.5546 105.828H90.6236L93.8305 119.897H94.5029L97.1925 105.724H99.0029L95.7443 121.449H92.5374L89.5374 108L86.5374 121.449H83.3305L80.1753 105.724Z" fill="#005283"/>
<path d="M101.277 107.534V105.569H102.984V107.534H101.277ZM101.277 121.448V110.069H102.984V121.448H101.277Z" fill="#005283"/>
<path d="M107.949 121.448H106.242V110.069H107.949V110.845C109.19 110.172 110.328 109.81 111.466 109.81C112.966 109.81 114 110.224 114.518 111.052C115.035 111.879 115.294 113.328 115.294 115.397V121.397H113.587V115.448C113.587 113.897 113.432 112.81 113.121 112.19C112.811 111.621 112.138 111.31 111.156 111.31C110.69 111.31 110.173 111.362 109.604 111.517C109.087 111.672 108.673 111.776 108.363 111.931L107.949 112.138V121.448Z" fill="#005283"/>
<path d="M120.156 121.448H118.449V110.069H120.156V110.845C121.397 110.172 122.535 109.81 123.673 109.81C125.173 109.81 126.208 110.224 126.725 111.052C127.242 111.879 127.501 113.328 127.501 115.397V121.397H125.794V115.448C125.794 113.897 125.639 112.81 125.328 112.19C125.018 111.621 124.345 111.31 123.363 111.31C122.897 111.31 122.38 111.362 121.811 111.517C121.294 111.672 120.88 111.776 120.57 111.931L120.156 112.138V121.448Z" fill="#005283"/>
<path d="M138.364 120.052L139.037 120L139.089 121.345C137.382 121.603 135.882 121.707 134.64 121.707C132.985 121.707 131.847 121.241 131.175 120.31C130.502 119.379 130.14 117.879 130.14 115.862C130.14 111.879 131.744 109.862 134.899 109.862C136.451 109.862 137.589 110.276 138.313 111.155C139.089 112.034 139.451 113.379 139.451 115.19L139.347 116.483H131.847C131.847 117.724 132.054 118.655 132.52 119.276C132.985 119.897 133.761 120.207 134.899 120.207C136.089 120.207 137.227 120.155 138.364 120.052ZM137.795 115.138C137.795 113.741 137.589 112.759 137.123 112.19C136.658 111.621 135.933 111.31 134.951 111.31C133.916 111.31 133.192 111.621 132.675 112.241C132.158 112.862 131.899 113.793 131.899 115.138H137.795Z" fill="#005283"/>
<path d="M142.14 121.448V110.069H143.847V111.621C145.192 110.69 146.537 110.121 147.985 109.81V111.517C147.364 111.621 146.692 111.828 146.02 112.086C145.347 112.345 144.778 112.552 144.416 112.759L143.847 113.069V121.397L142.14 121.448Z" fill="#005283"/>
<path d="M80.8979 136.862L82.9669 129.362H84.7773L86.8462 136.862H86.0186L85.5014 134.948H82.2945L81.7773 136.862H80.8979ZM83.5876 130.086L82.4497 134.172H85.2945L84.1566 130.086H83.5876Z" fill="#E81F26"/>
<path d="M87.9292 136.862V129.362H88.7568V136.862H87.9292Z" fill="#E81F26"/>
<path d="M89.8979 136.759L92.9497 129.207L93.6738 129.466L90.6221 137.017L89.8979 136.759Z" fill="#E81F26"/>
<path d="M94.812 136.862V129.362H96.312L98.4327 135.672L100.554 129.362H102.054V136.862H101.226V130.241H101.071L98.8982 136.552H97.9672L95.7948 130.241H95.6396V136.862H94.812Z" fill="#E81F26"/>
<path d="M107.95 136.862H103.812V129.362H104.64V136.086H107.95V136.862Z" fill="#E81F26"/>
<path d="M110.382 130.086V129.362H115.813V130.086H113.537V136.81H112.709V130.086H110.382Z" fill="#E81F26"/>
<path d="M119.274 136.19L119.585 136.138V136.759C118.757 136.862 118.033 136.914 117.464 136.914C116.688 136.914 116.119 136.707 115.809 136.241C115.499 135.776 115.343 135.103 115.343 134.121C115.343 132.207 116.119 131.276 117.619 131.276C118.343 131.276 118.912 131.483 119.274 131.897C119.636 132.31 119.792 132.931 119.792 133.81L119.74 134.431H116.171C116.171 135.052 116.274 135.466 116.481 135.776C116.688 136.086 117.05 136.19 117.619 136.19C118.188 136.241 118.757 136.241 119.274 136.19ZM119.016 133.81C119.016 133.138 118.912 132.672 118.705 132.414C118.499 132.155 118.136 132 117.671 132C117.205 132 116.843 132.155 116.585 132.414C116.326 132.724 116.223 133.19 116.223 133.81H119.016Z" fill="#E81F26"/>
<path d="M124.811 133.086V135.879C124.811 136.138 125.018 136.293 125.432 136.345L125.38 136.966C124.811 136.966 124.398 136.81 124.087 136.552C123.415 136.862 122.794 136.966 122.122 136.966C121.604 136.966 121.242 136.81 120.984 136.552C120.725 136.293 120.57 135.879 120.57 135.362C120.57 134.845 120.725 134.431 120.984 134.172C121.242 133.914 121.656 133.759 122.225 133.707L123.932 133.552V133.086C123.932 132.724 123.829 132.466 123.673 132.31C123.518 132.155 123.311 132.052 123.001 132.052C122.432 132.052 121.811 132.104 121.191 132.155L120.88 132.207L120.829 131.586C121.604 131.431 122.329 131.328 122.949 131.328C123.57 131.328 123.984 131.483 124.294 131.741C124.656 132.052 124.811 132.466 124.811 133.086ZM121.449 135.259C121.449 135.931 121.708 136.241 122.277 136.241C122.742 136.241 123.26 136.138 123.725 135.983L123.984 135.879V134.069L122.38 134.224C122.07 134.276 121.811 134.328 121.656 134.483C121.553 134.741 121.449 134.948 121.449 135.259Z" fill="#E81F26"/>
<path d="M127.085 136.862H126.257V131.431H127.033V131.793C127.551 131.483 128.12 131.328 128.637 131.328C129.309 131.328 129.775 131.535 130.033 131.897C130.292 131.741 130.602 131.638 130.964 131.535C131.326 131.431 131.688 131.379 131.947 131.379C132.671 131.379 133.137 131.586 133.395 131.948C133.654 132.31 133.757 133.035 133.757 134.017V136.862H132.93V134.017C132.93 133.241 132.878 132.776 132.723 132.466C132.568 132.207 132.257 132.052 131.792 132.052C131.533 132.052 131.326 132.104 131.068 132.155C130.809 132.207 130.602 132.31 130.499 132.362L130.292 132.466C130.395 132.724 130.447 133.241 130.447 134.069V136.862H129.62V134.069C129.62 133.293 129.568 132.776 129.413 132.466C129.257 132.207 128.947 132.052 128.482 132.052C128.275 132.052 128.016 132.104 127.757 132.155C127.499 132.207 127.344 132.31 127.188 132.362L126.982 132.466V136.862H127.085Z" fill="#E81F26"/>
<path d="M81.2065 147.104C81.2065 146.121 81.3617 145.397 81.7237 144.983C82.0858 144.517 82.6548 144.311 83.5341 144.311C84.3617 144.311 84.9824 144.517 85.3444 144.983C85.7065 145.448 85.8617 146.121 85.8617 147.104C85.8617 148.086 85.7065 148.811 85.3444 149.276C85.0341 149.742 84.4134 149.948 83.5341 149.948C82.6548 149.948 82.0341 149.742 81.7237 149.276C81.3617 148.811 81.2065 148.086 81.2065 147.104ZM82.0341 147.104C82.0341 147.88 82.1375 148.448 82.3444 148.759C82.5513 149.069 82.9134 149.224 83.5341 149.224C84.1548 149.224 84.5168 149.069 84.7237 148.759C84.9306 148.448 84.9824 147.88 84.9824 147.104C84.9824 146.328 84.8789 145.759 84.672 145.448C84.4651 145.138 84.0513 144.983 83.4824 144.983C82.9134 144.983 82.5513 145.138 82.2927 145.448C82.1375 145.759 82.0341 146.328 82.0341 147.104Z" fill="#E81F26"/>
<path d="M88.0854 145.138V149.845H87.2579V145.138H86.5854V144.414H87.2579V143.948C87.2579 143.173 87.3613 142.655 87.5682 142.397C87.7751 142.138 88.1889 141.983 88.7061 141.983L89.7924 142.035V142.707C89.3786 142.707 89.0682 142.707 88.8095 142.707C88.5509 142.707 88.344 142.81 88.2406 142.966C88.1371 143.121 88.0854 143.483 88.0854 143.948V144.414H89.6371V145.138H88.0854Z" fill="#E81F26"/>
<path d="M95.5862 145.138H93.8793V147.724C93.8793 148.345 93.931 148.759 94.0345 148.966C94.1379 149.173 94.3448 149.276 94.6552 149.276L95.6379 149.224L95.6897 149.897C95.2241 150 94.8621 150 94.6035 150C94.0345 150 93.6724 149.845 93.4138 149.586C93.2069 149.328 93.1035 148.811 93.1035 148.035V145.19H92.3276V144.466H93.1035V142.759H93.8793V144.414H95.5862V145.138Z" fill="#E81F26"/>
<path d="M97.292 149.845H96.4644V142.086H97.292V144.724C97.861 144.465 98.4299 144.31 98.9472 144.31C99.6713 144.31 100.137 144.517 100.396 144.879C100.654 145.293 100.758 145.965 100.758 146.948V149.793H99.9299V146.948C99.9299 146.172 99.8782 145.707 99.723 145.397C99.5679 145.138 99.2575 144.983 98.792 144.983C98.3265 144.983 97.9127 145.086 97.4472 145.241L97.292 145.345V149.845Z" fill="#E81F26"/>
<path d="M105.88 149.173L106.19 149.121V149.742C105.363 149.845 104.639 149.897 104.07 149.897C103.294 149.897 102.725 149.69 102.414 149.224C102.104 148.759 101.949 148.086 101.949 147.104C101.949 145.19 102.725 144.259 104.225 144.259C104.949 144.259 105.518 144.466 105.88 144.879C106.242 145.293 106.397 145.914 106.397 146.793L106.345 147.414H102.776C102.776 148.035 102.88 148.448 103.087 148.759C103.294 149.069 103.656 149.173 104.225 149.173C104.742 149.224 105.311 149.224 105.88 149.173ZM105.57 146.845C105.57 146.173 105.466 145.707 105.259 145.448C105.052 145.19 104.69 145.035 104.225 145.035C103.759 145.035 103.397 145.19 103.139 145.448C102.88 145.759 102.776 146.224 102.776 146.845H105.57Z" fill="#E81F26"/>
<path d="M112.343 149.845H111.516V146.69L109.136 142.345H110.067L111.929 145.862L113.792 142.345H114.723L112.343 146.69V149.845Z" fill="#E81F26"/>
<path d="M118.446 149.173L118.757 149.121V149.742C117.929 149.845 117.205 149.897 116.636 149.897C115.86 149.897 115.291 149.69 114.981 149.224C114.67 148.759 114.515 148.086 114.515 147.104C114.515 145.19 115.291 144.259 116.791 144.259C117.515 144.259 118.084 144.466 118.446 144.879C118.808 145.293 118.964 145.914 118.964 146.793L118.912 147.414H115.343C115.343 148.035 115.446 148.448 115.653 148.759C115.86 149.069 116.222 149.173 116.791 149.173C117.36 149.224 117.877 149.224 118.446 149.173ZM118.136 146.845C118.136 146.173 118.033 145.707 117.826 145.448C117.619 145.19 117.257 145.035 116.791 145.035C116.326 145.035 115.964 145.19 115.705 145.448C115.446 145.707 115.343 146.224 115.343 146.845H118.136Z" fill="#E81F26"/>
<path d="M123.932 146.069V148.862C123.932 149.121 124.139 149.276 124.553 149.328L124.501 149.948C123.932 149.948 123.519 149.793 123.208 149.534C122.536 149.845 121.915 149.948 121.243 149.948C120.726 149.948 120.364 149.793 120.105 149.534C119.846 149.276 119.691 148.862 119.691 148.345C119.691 147.828 119.846 147.414 120.105 147.207C120.364 146.948 120.777 146.793 121.346 146.741L123.053 146.586V146.121C123.053 145.759 122.95 145.5 122.795 145.345C122.639 145.19 122.432 145.086 122.122 145.086C121.553 145.086 120.932 145.138 120.312 145.19L120.001 145.241L119.95 144.621C120.726 144.466 121.45 144.362 122.07 144.362C122.691 144.362 123.105 144.517 123.415 144.776C123.829 145.034 123.932 145.448 123.932 146.069ZM120.622 148.293C120.622 148.966 120.881 149.276 121.45 149.276C121.915 149.276 122.432 149.172 122.898 149.017L123.157 148.914V147.103L121.553 147.259C121.243 147.31 120.984 147.362 120.829 147.517C120.674 147.672 120.622 147.983 120.622 148.293Z" fill="#E81F26"/>
<path d="M125.429 149.845V144.414H126.205V145.138C126.826 144.724 127.498 144.414 128.171 144.259V145.086C127.86 145.138 127.55 145.242 127.24 145.345C126.929 145.448 126.671 145.552 126.464 145.655L126.257 145.862V149.845H125.429Z" fill="#E81F26"/>
<path d="M80.0698 39.259L83.0698 26.0176H88.1388L91.087 39.259H88.3974L87.8801 36.8797H83.2767L82.7595 39.259H80.0698ZM85.087 28.2417L83.7422 34.5003H87.3629L86.0181 28.2417H85.087Z" fill="#E81F26"/>
<path d="M92.3784 39.259V26.0176H95.0681V39.259H92.3784Z" fill="#E81F26"/>
<path d="M103.037 26.1723C103.761 25.6551 104.744 25.3965 105.985 25.3965C107.227 25.3965 108.21 25.6551 108.882 26.2241C109.554 26.7413 109.916 27.5172 109.916 28.4482C109.916 29.3792 109.71 30.1034 109.347 30.6206C108.934 31.1379 108.261 31.7586 107.279 32.4827L109.192 34.3965C109.296 34.1896 109.347 33.8275 109.451 33.2586C109.554 32.6896 109.554 32.2241 109.606 31.9137L112.141 31.9655C111.934 33.4655 111.623 34.8103 111.158 35.8965L113.33 37.8103L111.779 39.4655L109.71 37.7586C109.244 38.2758 108.675 38.6379 107.951 38.9482C107.227 39.2586 106.503 39.4137 105.727 39.4137C103.813 39.4137 102.468 39.0517 101.692 38.3792C100.916 37.7068 100.503 36.6723 100.503 35.3792C100.503 34.3448 100.71 33.5172 101.175 32.8965C101.641 32.2758 102.313 31.8103 103.296 31.4482C102.779 30.7758 102.416 30.2586 102.261 29.8965C102.106 29.4827 102.003 28.9655 102.003 28.3448C101.951 27.4137 102.313 26.6896 103.037 26.1723ZM105.416 37.1379C105.934 37.1379 106.451 37.0861 106.916 36.931C107.434 36.7758 107.744 36.6206 107.951 36.362L104.589 32.9999C103.606 33.4655 103.141 34.1896 103.141 35.2241C103.141 36.5172 103.865 37.1379 105.416 37.1379ZM104.589 28.9137C104.589 29.431 104.899 29.9999 105.468 30.6206L105.779 30.9827C106.296 30.5689 106.71 30.2586 106.916 29.9482C107.123 29.6379 107.227 29.2758 107.227 28.862C107.227 28.0344 106.761 27.6206 105.882 27.6206C105.003 27.6206 104.589 28.0344 104.589 28.9137Z" fill="#E81F26"/>
<path d="M118.191 39.259V26.0176H122.743L125.07 35.6383L127.398 26.0176H131.95V39.259H129.26V29.0176H128.95L126.364 38.6383H123.674L121.088 29.0176H120.777V39.259H118.191Z" fill="#E81F26"/>
<path d="M141.623 32.5349V36.5694C141.675 36.8798 141.727 37.0867 141.779 37.2418C141.882 37.3453 142.037 37.4487 142.244 37.5004L142.141 39.466C141.468 39.466 140.951 39.4142 140.537 39.3108C140.123 39.2073 139.761 39.0522 139.347 38.7418C138.416 39.2073 137.485 39.4142 136.503 39.4142C134.485 39.4142 133.503 38.328 133.503 36.2073C133.503 35.1729 133.761 34.4487 134.33 33.9832C134.899 33.5694 135.727 33.3108 136.916 33.2073L138.985 33.0522V32.4315C138.985 32.0177 138.882 31.7591 138.727 31.6039C138.52 31.4487 138.261 31.397 137.847 31.397L134.175 31.5522L134.072 29.7418C135.468 29.3798 136.761 29.1729 138.054 29.1729C139.296 29.1729 140.227 29.4315 140.744 29.9487C141.313 30.5694 141.623 31.397 141.623 32.5349ZM137.227 35.1211C136.503 35.1729 136.141 35.5867 136.141 36.3108C136.141 37.0349 136.451 37.397 137.072 37.397C137.589 37.397 138.106 37.2936 138.675 37.1384L138.985 37.0349V34.966L137.227 35.1211Z" fill="#E81F26"/>
<path d="M147.257 29.2764C147.929 29.2764 148.809 29.3798 149.843 29.5867L150.36 29.6902L150.257 31.7591C149.222 31.6557 148.498 31.604 147.981 31.604C147.102 31.604 146.481 31.8109 146.222 32.1729C145.912 32.535 145.809 33.2591 145.809 34.3453C145.809 35.4316 145.964 36.1557 146.222 36.5178C146.533 36.9316 147.102 37.0867 148.033 37.0867L150.309 36.9316L150.412 39.0005C149.015 39.2591 147.981 39.4143 147.257 39.4143C145.809 39.4143 144.774 39.0005 144.153 38.2247C143.533 37.3971 143.222 36.104 143.222 34.3453C143.222 32.5867 143.533 31.2419 144.205 30.466C144.774 29.6902 145.809 29.2764 147.257 29.2764Z" fill="#E81F26"/>
<path d="M154.398 39.2588H151.812V25.6553H154.398V30.0002C155.278 29.5346 156.105 29.276 156.829 29.276C158.123 29.276 159.002 29.6381 159.519 30.414C160.036 31.1898 160.243 32.3795 160.243 33.9312V39.2071H157.657V34.0346C157.657 33.2071 157.554 32.5864 157.347 32.2243C157.14 31.8105 156.778 31.6553 156.157 31.6553C155.64 31.6553 155.123 31.7588 154.657 31.9139L154.398 32.0174V39.2588Z" fill="#E81F26"/>
<path d="M162.05 28.2933V25.6553H164.637V28.2933H162.05ZM162.05 39.2588V29.5346H164.637V39.2588H162.05Z" fill="#E81F26"/>
<path d="M169.191 39.2582H166.605V29.534H169.191V30.103C170.071 29.5858 170.898 29.3271 171.622 29.3271C172.916 29.3271 173.795 29.6892 174.312 30.4651C174.829 31.2409 175.036 32.4306 175.036 33.9823V39.2582H172.45V34.0858C172.45 33.2582 172.347 32.6375 172.14 32.2237C171.933 31.8099 171.571 31.6547 170.95 31.6547C170.433 31.6547 169.916 31.7582 169.398 31.9133L169.14 32.0168L169.191 39.2582Z" fill="#E81F26"/>
<path d="M179.485 36.7754C179.795 37.034 180.209 37.1892 180.778 37.1892C181.968 37.1892 183.054 37.1375 183.985 37.0858L184.554 37.034L184.606 38.9478C183.106 39.3099 181.761 39.5168 180.571 39.5168C179.123 39.5168 178.037 39.103 177.364 38.3271C176.692 37.5513 176.382 36.3099 176.382 34.5513C176.382 31.0858 177.83 29.3271 180.675 29.3271C183.519 29.3271 184.916 30.7754 184.916 33.7237L184.709 35.534H179.019C179.019 36.103 179.175 36.5168 179.485 36.7754ZM182.33 33.5168C182.33 32.7409 182.226 32.2237 181.968 31.9133C181.709 31.603 181.295 31.4478 180.675 31.4478C180.054 31.4478 179.64 31.603 179.382 31.9133C179.123 32.2237 179.019 32.7409 178.968 33.5168H182.33Z" fill="#E81F26"/>
<path d="M88.7076 55.6554H81.1558V42.4658H83.8455V53.3278H88.7076V55.6554Z" fill="#E81F26"/>
<path d="M92.224 53.2247C92.5344 53.4833 92.9481 53.6384 93.5171 53.6384C94.7068 53.6384 95.793 53.5867 96.724 53.535L97.293 53.4833L97.3447 55.3971C95.8447 55.7591 94.4999 55.966 93.3102 55.966C91.8619 55.966 90.7757 55.5522 90.1033 54.7764C89.4309 54.0005 89.1206 52.7591 89.1206 51.0005C89.1206 47.535 90.5688 45.7764 93.4137 45.7764C96.2585 45.7764 97.655 47.2247 97.655 50.1729L97.4481 51.9833H91.7585C91.7585 52.5005 91.9137 52.966 92.224 53.2247ZM95.1206 49.9143C95.1206 49.1384 95.0171 48.6212 94.7585 48.3109C94.4999 48.0005 94.0861 47.8453 93.4654 47.8453C92.8447 47.8453 92.4309 48.0005 92.1723 48.3109C91.9137 48.6212 91.8102 49.1384 91.7585 49.9143H95.1206Z" fill="#E81F26"/>
<path d="M106.499 48.9822V53.0167C106.551 53.327 106.603 53.5339 106.654 53.6891C106.758 53.7925 106.913 53.896 107.12 53.9477L107.016 55.9132C106.344 55.9132 105.827 55.8615 105.413 55.7581C104.999 55.6546 104.637 55.4994 104.223 55.1891C103.292 55.6546 102.361 55.8615 101.379 55.8615C99.3612 55.8615 98.3784 54.7753 98.3784 52.6546C98.3784 51.6201 98.6371 50.896 99.206 50.4305C99.775 50.0167 100.603 49.7581 101.792 49.6546L103.861 49.4994V48.8787C103.861 48.465 103.758 48.2063 103.603 48.0512C103.396 47.896 103.137 47.8443 102.723 47.8443L99.1026 48.1029L98.9991 46.2925C100.396 45.9305 101.689 45.7236 102.982 45.7236C104.223 45.7236 105.154 45.9822 105.672 46.4994C106.241 47.0167 106.499 47.8443 106.499 48.9822ZM102.103 51.5684C101.379 51.6201 101.016 52.0339 101.016 52.7581C101.016 53.4822 101.327 53.8443 101.948 53.8443C102.465 53.8443 102.982 53.7408 103.551 53.5856L103.861 53.4822V51.4132L102.103 51.5684Z" fill="#E81F26"/>
<path d="M108.519 55.6546V45.9305H111.105V46.965C112.192 46.2925 113.226 45.8787 114.209 45.7236V48.3615C113.174 48.5684 112.243 48.827 111.519 49.0339L111.105 49.1891V55.7063L108.519 55.6546Z" fill="#E81F26"/>
<path d="M117.878 55.6546H115.292V45.9305H117.878V46.4994C118.757 45.9822 119.585 45.7236 120.309 45.7236C121.602 45.7236 122.481 46.0856 122.999 46.8615C123.516 47.6374 123.723 48.827 123.723 50.3787V55.6546H121.136V50.4822C121.136 49.6546 121.033 49.0339 120.826 48.6201C120.619 48.2063 120.257 48.0512 119.636 48.0512C119.119 48.0512 118.602 48.1546 118.085 48.3098L117.826 48.4132L117.878 55.6546Z" fill="#E81F26"/>
<path d="M125.535 44.6897V42.0518H128.121V44.6897H125.535ZM125.535 55.6553V45.9311H128.121V55.6553H125.535Z" fill="#E81F26"/>
<path d="M132.675 55.6546H130.089V45.9305H132.675V46.4994C133.554 45.9822 134.382 45.7236 135.106 45.7236C136.399 45.7236 137.278 46.0856 137.795 46.8615C138.313 47.6374 138.52 48.827 138.52 50.3787V55.6546H135.933V50.4822C135.933 49.6546 135.83 49.0339 135.623 48.6201C135.416 48.2063 135.054 48.0512 134.433 48.0512C133.916 48.0512 133.399 48.1546 132.882 48.3098L132.623 48.4132L132.675 55.6546Z" fill="#E81F26"/>
<path d="M149.123 56.8971C149.123 57.9833 148.709 58.8109 147.829 59.3798C146.95 59.8971 145.812 60.1557 144.364 60.1557C142.916 60.1557 141.778 59.9488 141.002 59.5867C140.226 59.1729 139.812 58.5005 139.812 57.466C139.812 56.6384 140.278 55.8626 141.209 55.1384C140.743 54.8281 140.485 54.3109 140.485 53.6384C140.485 53.3798 140.692 52.966 141.054 52.3453L141.209 52.0867C140.329 51.466 139.864 50.535 139.864 49.2936C139.864 48.0522 140.226 47.1729 141.002 46.604C141.726 46.035 142.76 45.7764 143.95 45.7764C144.519 45.7764 145.036 45.8281 145.605 45.9833L145.916 46.035L149.071 45.9316V48.0005L147.623 47.8971C147.933 48.3626 148.036 48.7764 148.036 49.2419C148.036 50.535 147.726 51.4143 147.054 51.9316C146.381 52.4488 145.347 52.6557 143.95 52.6557C143.64 52.6557 143.381 52.604 143.174 52.5522C143.019 52.9143 142.967 53.1729 142.967 53.3798C142.967 53.5867 143.071 53.7419 143.278 53.7936C143.485 53.8971 144.002 53.8971 144.829 53.9488C146.485 53.9488 147.571 54.1557 148.192 54.6212C148.812 55.035 149.123 55.7591 149.123 56.8971ZM142.398 57.1557C142.398 57.7247 143.071 57.9833 144.467 57.9833C145.812 57.9833 146.536 57.6729 146.536 57.0005C146.536 56.6384 146.433 56.4316 146.174 56.3281C145.916 56.2247 145.45 56.1729 144.674 56.1729L142.916 56.0178C142.554 56.4316 142.398 56.7936 142.398 57.1557ZM142.554 49.1902C142.554 50.1212 143.071 50.6384 144.054 50.6384C145.036 50.6384 145.554 50.1729 145.554 49.1902C145.554 48.2591 145.036 47.7419 144.054 47.7419C143.071 47.7936 142.554 48.2591 142.554 49.1902Z" fill="#E81F26"/>
<path d="M80.0698 72.1036L83.0698 58.8623H88.1388L91.1388 72.1036H88.4491L87.9319 69.7243H83.3284L82.8112 72.1036H80.0698ZM85.087 61.0864L83.7422 67.345H87.3629L86.0181 61.0864H85.087Z" fill="#E81F26"/>
<path d="M91.1909 62.3799H93.7771L94.9668 69.8799H95.4323L96.9323 62.5868H99.6219L101.122 69.8799H101.588L102.777 62.3799H105.364L103.501 72.104H99.415L98.3288 66.1558L97.2426 72.104H93.1564L91.1909 62.3799Z" fill="#E81F26"/>
<path d="M113.898 65.3797V69.4142C113.949 69.7245 114.001 69.9314 114.053 70.0866C114.156 70.19 114.312 70.2935 114.518 70.3452L114.415 72.3107C113.743 72.3107 113.225 72.259 112.812 72.1556C112.398 72.0521 112.036 71.8969 111.622 71.5866C110.691 72.0521 109.76 72.259 108.777 72.259C106.76 72.259 105.777 71.1728 105.777 69.0521C105.777 68.0176 106.036 67.2935 106.605 66.828C107.174 66.4142 108.001 66.1556 109.191 66.0521L111.26 65.8969V65.2763C111.26 64.8625 111.156 64.6038 111.001 64.4487C110.794 64.2935 110.536 64.2418 110.122 64.2418L106.449 64.3969L106.346 62.5866C107.743 62.2245 109.036 62.0176 110.329 62.0176C111.57 62.0176 112.501 62.2763 113.018 62.7935C113.639 63.4142 113.898 64.2418 113.898 65.3797ZM109.501 67.9659C108.777 68.0176 108.415 68.4314 108.415 69.1556C108.415 69.8797 108.725 70.2418 109.346 70.2418C109.863 70.2418 110.38 70.1383 110.949 69.9832L111.26 69.8797V67.8107L109.501 67.9659Z" fill="#E81F26"/>
<path d="M115.914 72.1039V62.3797H118.5V63.4142C119.586 62.7418 120.621 62.328 121.603 62.1729V64.8108C120.569 65.0177 119.638 65.2762 118.914 65.4831L118.5 65.6384V72.1555L115.914 72.1039Z" fill="#E81F26"/>
<path d="M130.916 58.5V72.1034H128.33V71.6897C127.399 72.1035 126.623 72.3103 126.002 72.3103C124.606 72.3103 123.623 71.8966 123.054 71.069C122.485 70.2414 122.226 68.9483 122.226 67.1897C122.226 65.431 122.537 64.1379 123.209 63.3103C123.881 62.4828 124.864 62.1207 126.209 62.1207C126.623 62.1207 127.192 62.1724 127.916 62.3276L128.278 62.431V58.5H130.916ZM128.019 69.7759L128.278 69.7241V64.6034C127.554 64.4483 126.933 64.3966 126.364 64.3966C125.33 64.3966 124.812 65.3276 124.812 67.1897C124.812 68.2241 124.916 68.8966 125.175 69.3621C125.433 69.7759 125.795 69.9828 126.312 69.9828C126.881 69.9828 127.45 69.931 128.019 69.7759Z" fill="#E81F26"/>
<path d="M139.808 64.8098C138.205 64.6029 137.067 64.4995 136.446 64.4995C135.826 64.4995 135.412 64.5512 135.205 64.6547C134.998 64.7581 134.946 64.965 134.946 65.2236C134.946 65.4822 135.05 65.6374 135.308 65.7409C135.567 65.8443 136.188 65.9995 137.274 66.1547C138.308 66.3615 139.084 66.6719 139.498 67.0857C139.964 67.4995 140.17 68.2236 140.17 69.1547C140.17 71.2753 138.877 72.3098 136.239 72.3098C135.36 72.3098 134.326 72.2064 133.136 71.9478L132.515 71.8443L132.619 69.6719C134.222 69.8788 135.36 69.9822 135.981 69.9822C136.601 69.9822 137.015 69.9305 137.274 69.7753C137.481 69.6719 137.636 69.465 137.636 69.2064C137.636 68.9478 137.532 68.7926 137.274 68.6374C137.015 68.534 136.395 68.3788 135.412 68.2236C134.429 68.0684 133.653 67.7581 133.188 67.3443C132.67 66.9305 132.464 66.2064 132.464 65.1719C132.464 64.1374 132.826 63.3616 133.498 62.8443C134.222 62.3271 135.101 62.0684 136.188 62.0684C136.964 62.0684 137.998 62.1719 139.343 62.4305L139.964 62.534L139.808 64.8098Z" fill="#E81F26"/>
<path d="M88.2935 88.5003H80.9487V87.4658L84.5694 83.2244C85.1384 82.552 85.5522 82.0348 85.8625 81.6727C86.1211 81.3106 86.3797 80.8968 86.5866 80.4313C86.7935 79.9141 86.897 79.4486 86.897 78.9313C86.897 78.052 86.6901 77.4313 86.2246 77.0692C85.8108 76.7072 85.1384 76.5003 84.2073 76.5003C83.4315 76.5003 82.6039 76.6037 81.6211 76.8624L81.1556 76.9658L81.0522 75.9313C82.1384 75.5692 83.2763 75.4141 84.4142 75.4141C85.5522 75.4141 86.4315 75.6727 87.0522 76.2417C87.6728 76.7589 87.9315 77.6382 87.9315 78.8279C87.9315 79.7072 87.7246 80.483 87.4142 81.1554C87.1039 81.8279 86.4315 82.6037 85.6039 83.5865L82.2418 87.4141H88.2935V88.5003Z" fill="#E81F26"/>
<path d="M90.7776 78.1554C91.1397 77.121 91.5535 76.4485 92.1742 76.0347C92.7431 75.6727 93.4673 75.4658 94.2431 75.4658C95.0707 75.4658 95.6914 75.5692 96.2086 75.7761C96.7259 75.983 97.1397 76.3451 97.5018 76.8623C98.2259 77.8451 98.588 79.6037 98.588 82.0865C98.588 84.5692 98.2259 86.3278 97.5535 87.2589C96.8811 88.1899 95.8466 88.7072 94.45 88.7072C93.0535 88.7072 92.019 88.2416 91.3466 87.3106C90.6742 86.3796 90.3121 84.7244 90.3121 82.3451C90.2604 80.5865 90.4673 79.1899 90.7776 78.1554ZM96.1052 77.0175C95.6914 76.7072 95.1224 76.552 94.3983 76.552C93.6742 76.552 93.1052 76.7072 92.6914 77.0175C91.8121 77.6899 91.3983 79.4485 91.3983 82.3451C91.3983 84.3623 91.6569 85.7589 92.1224 86.483C92.588 87.2072 93.3638 87.6209 94.3983 87.6209C95.0707 87.6209 95.6397 87.4658 96.0535 87.2072C96.9845 86.5865 97.3983 84.983 97.3983 82.3451C97.45 79.5003 96.9845 77.6899 96.1052 77.0175Z" fill="#E81F26"/>
<path d="M107.38 88.5003H100.035V87.4658L103.656 83.2244C104.224 82.552 104.638 82.0348 104.949 81.6727C105.207 81.3106 105.466 80.8968 105.673 80.4313C105.88 79.9141 105.983 79.4486 105.983 78.9313C105.983 78.052 105.776 77.4313 105.311 77.0692C104.897 76.7072 104.224 76.5003 103.293 76.5003C102.518 76.5003 101.69 76.6037 100.707 76.8624L100.242 76.9658L100.138 75.9313C101.224 75.5692 102.362 75.4141 103.5 75.4141C104.638 75.4141 105.518 75.6727 106.138 76.2417C106.759 76.7589 107.018 77.6382 107.018 78.8279C107.018 79.7072 106.811 80.483 106.5 81.1554C106.19 81.8279 105.518 82.6037 104.69 83.5865L101.328 87.4141H107.38V88.5003Z" fill="#E81F26"/>
<path d="M115.864 88.5003H108.519V87.4658L112.14 83.2244C112.709 82.552 113.123 82.0348 113.433 81.6727C113.692 81.3106 113.95 80.8968 114.157 80.4313C114.364 79.9141 114.468 79.4486 114.468 78.9313C114.468 78.052 114.261 77.4313 113.795 77.0692C113.381 76.7072 112.709 76.5003 111.778 76.5003C111.002 76.5003 110.174 76.6037 109.192 76.8624L108.726 76.9658L108.623 75.9313C109.709 75.5692 110.847 75.4141 111.985 75.4141C113.123 75.4141 114.002 75.6727 114.623 76.2417C115.243 76.7589 115.502 77.6382 115.502 78.8279C115.502 79.7072 115.295 80.483 114.985 81.1554C114.674 81.8279 114.002 82.6037 113.174 83.5865L109.812 87.4141H115.864V88.5003Z" fill="#E81F26"/>
<path d="M84.6742 10.0864C84.6742 11.1726 85.1397 11.6898 86.3811 11.6898C87.2087 11.6898 87.7776 11.5864 88.5535 11.4312L88.9673 14.0691C87.8811 14.3277 87.157 14.3795 86.3811 14.3795C82.9156 14.3795 81.519 13.0864 81.519 10.0864V7.65538C81.519 4.60366 82.9156 3.31055 86.3811 3.31055C87.1052 3.31055 87.8811 3.414 88.9673 3.6209L88.5535 6.25883C87.8811 6.10366 87.0018 6.00021 86.3811 6.00021C85.1397 6.00021 84.6742 6.51745 84.6742 7.60366V10.0864Z" fill="#005182"/>
<path d="M95.4338 10.1381C95.4338 11.1208 94.9165 11.6898 93.7786 11.6898C92.6407 11.6898 92.1234 11.1208 92.1234 10.1381V7.50021C92.1234 6.51745 92.6407 5.94848 93.7786 5.94848C94.9165 5.94848 95.4338 6.51745 95.4338 7.50021V10.1381ZM93.7786 3.31055C90.0027 3.31055 88.9683 5.43124 88.9683 7.60366V10.0864C88.9683 12.2588 90.0027 14.3795 93.7786 14.3795C97.5545 14.3795 98.589 12.2588 98.589 10.0864V7.60366C98.5372 5.43124 97.5545 3.31055 93.7786 3.31055Z" fill="#005182"/>
<path d="M105.261 14.1726V7.13814C105.261 6.67262 105.054 6.36228 104.485 6.36228C103.916 6.36228 102.882 6.77607 102.21 7.13814V14.1726H99.0542V3.51745H101.382L101.692 4.34504C102.985 3.72435 104.692 3.31055 105.934 3.31055C106.865 3.31055 107.485 3.67262 107.899 4.34504C109.089 3.77607 110.692 3.31055 112.141 3.31055C113.951 3.31055 114.572 4.65538 114.572 6.72435V14.1726H111.416V7.13814C111.416 6.67262 111.21 6.36228 110.641 6.36228C110.072 6.36228 109.037 6.77607 108.365 7.13814V14.1726H105.261Z" fill="#005182"/>
<path d="M121.45 10.4484C121.45 11.1208 121.139 11.6381 120.312 11.6381C119.639 11.6381 118.863 11.4829 118.295 11.3795V6.87952C118.76 6.46573 119.588 6.05193 120.312 6.05193C121.139 6.05193 121.45 6.51745 121.45 7.24159V10.4484ZM121.243 3.31055C120.105 3.31055 118.708 3.87952 117.984 4.39676L117.674 3.56917H115.191V18.9312L118.346 18.5174V14.1208C119.07 14.276 120.157 14.4312 121.036 14.4312C123.519 14.4312 124.605 13.0346 124.605 10.5002V7.24159C124.605 4.65538 123.363 3.31055 121.243 3.31055Z" fill="#005182"/>
<path d="M128.279 3.51758V10.552C128.279 11.0175 128.486 11.3279 129.055 11.3279C129.624 11.3279 130.658 10.9141 131.331 10.552V3.51758H134.486V14.121H132.158L131.848 13.2934C130.555 13.9141 128.848 14.3279 127.607 14.3279C125.796 14.3279 125.175 12.9831 125.175 10.9141V3.51758H128.279Z" fill="#005182"/>
<path d="M139.553 14.3796C137.536 14.3796 136.346 13.6038 136.346 11.6383V6.05209H134.898V3.51761H136.346V0.983129L139.502 0.569336V3.56933H141.933L141.777 6.10381H139.553V11.2762C139.553 11.69 139.812 11.8452 140.226 11.8452C140.588 11.8452 141.053 11.7934 141.519 11.6383L141.881 14.0176C141.157 14.2245 140.277 14.3796 139.553 14.3796Z" fill="#005182"/>
<path d="M145.499 0H142.343V3.36207H145.499V0Z" fill="#398ECC"/>
<path d="M145.499 3.51758H142.343V14.121H145.499V3.51758Z" fill="#005182"/>
<path d="M152.175 14.1726V7.13814C152.175 6.67262 151.968 6.36228 151.399 6.36228C150.831 6.36228 149.796 6.77607 149.124 7.13814V14.1726H145.968V3.51745H148.296L148.606 4.34504C149.899 3.72435 151.606 3.31055 152.848 3.31055C154.658 3.31055 155.279 4.65538 155.279 6.72435V14.1726H152.175Z" fill="#005182"/>
<path d="M161.535 7.914C161.535 8.63814 161.121 8.94848 160.138 8.94848C159.104 8.94848 158.742 8.63814 158.742 7.914V6.93124C158.742 6.2071 159.104 5.79331 160.138 5.79331C161.173 5.79331 161.535 6.2071 161.535 6.93124V7.914ZM165.207 3.51745H161.897C161.38 3.36228 160.759 3.31055 160.087 3.31055C156.983 3.31055 155.794 4.65538 155.742 6.77607V8.06917C155.742 9.31055 156.156 10.2415 157.087 10.8105C156.569 11.3277 156.156 11.8967 156.156 12.776C156.156 14.2243 156.983 14.5346 158.432 14.6898C159.725 14.845 159.932 14.845 161.121 14.9484C161.742 15.0002 161.949 15.1036 161.949 15.5174C161.949 16.1898 161.276 16.2933 159.673 16.2933C158.742 16.2933 157.449 16.1381 156.207 15.8795L155.742 18.1036C157.138 18.4657 158.949 18.6726 159.983 18.6726C163.294 18.6726 164.845 17.8967 164.845 15.3105C164.845 13.5002 164.069 12.8795 162.259 12.7243C161.483 12.6726 161.018 12.6208 159.621 12.4657C159.414 12.4657 159.259 12.2588 159.259 12.0519C159.259 11.7415 159.518 11.5864 159.725 11.4829H160.035C162.983 11.4829 164.38 10.1381 164.38 8.1209V6.82779C164.38 6.36228 164.276 5.84504 164.121 5.43124L165.207 5.01745V3.51745Z" fill="#005182"/>
<path d="M163.556 0.155173H163.246V0H164.073V0.155173H163.763V1.08621H163.556V0.155173Z" fill="#005182"/>
<path d="M164.228 0H164.435L164.642 0.568965L164.694 0.775862L164.745 0.568965L164.952 0H165.159V1.08621H165.056V0.568965C165.056 0.517241 165.056 0.517241 165.056 0.465517C165.056 0.413793 165.056 0.413793 165.056 0.362069C165.056 0.310345 165.056 0.310345 165.056 0.258621C165.056 0.206897 165.056 0.206897 165.056 0.155173L164.952 0.413793L164.745 0.931035H164.642L164.435 0.413793L164.332 0.155173C164.332 0.206897 164.332 0.206897 164.332 0.258621C164.332 0.310345 164.332 0.310345 164.332 0.362069C164.332 0.413793 164.332 0.413793 164.332 0.465517C164.332 0.517241 164.332 0.517241 164.332 0.568965V1.08621H164.125V0H164.228Z" fill="#005182"/>
</g>
<defs>
<clipPath id="clip0_221_41320">
<rect width="240" height="150" fill="white" transform="translate(0.0698242)"/>
</clipPath>
</defs>
</svg>
