<svg width="240" height="150" viewBox="0 0 240 150" fill="none" xmlns="http://www.w3.org/2000/svg">
<rect width="240" height="150" fill="white"/>
<path d="M81.4482 97.4482H179.517" stroke="#7B7F80" stroke-width="0.387931" stroke-miterlimit="10"/>
<path d="M80.1045 105.724H81.9148L84.6045 119.897H85.2769L88.4838 105.828H90.5528L93.7597 119.897H94.4321L97.1217 105.724H98.9321L95.6735 121.449H92.4666L89.4666 108L86.4666 121.449H83.2597L80.1045 105.724Z" fill="#005283"/>
<path d="M101.207 107.534V105.569H102.914V107.534H101.207ZM101.207 121.448V110.069H102.914V121.448H101.207Z" fill="#005283"/>
<path d="M107.88 121.448H106.173V110.069H107.88V110.845C109.121 110.172 110.259 109.81 111.397 109.81C112.897 109.81 113.931 110.224 114.449 111.052C114.966 111.879 115.225 113.328 115.225 115.397V121.397H113.518V115.448C113.518 113.897 113.363 112.81 113.052 112.19C112.742 111.621 112.069 111.31 111.087 111.31C110.621 111.31 110.104 111.362 109.535 111.517C109.018 111.672 108.604 111.776 108.294 111.931L107.88 112.138V121.448Z" fill="#005283"/>
<path d="M120.087 121.448H118.38V110.069H120.087V110.845C121.328 110.172 122.466 109.81 123.604 109.81C125.104 109.81 126.139 110.224 126.656 111.052C127.173 111.879 127.432 113.328 127.432 115.397V121.397H125.725V115.448C125.725 113.897 125.57 112.81 125.259 112.19C124.949 111.621 124.276 111.31 123.294 111.31C122.828 111.31 122.311 111.362 121.742 111.517C121.225 111.672 120.811 111.776 120.501 111.931L120.087 112.138V121.448Z" fill="#005283"/>
<path d="M138.294 120.052L138.967 120L139.019 121.345C137.312 121.603 135.812 121.707 134.57 121.707C132.915 121.707 131.777 121.241 131.105 120.31C130.432 119.379 130.07 117.879 130.07 115.862C130.07 111.879 131.674 109.862 134.829 109.862C136.381 109.862 137.519 110.276 138.243 111.155C139.019 112.034 139.381 113.379 139.381 115.19L139.277 116.483H131.777C131.777 117.724 131.984 118.655 132.45 119.276C132.915 119.897 133.691 120.207 134.829 120.207C136.019 120.207 137.157 120.155 138.294 120.052ZM137.725 115.138C137.725 113.741 137.519 112.759 137.053 112.19C136.588 111.621 135.863 111.31 134.881 111.31C133.846 111.31 133.122 111.621 132.605 112.241C132.088 112.862 131.829 113.793 131.829 115.138H137.725Z" fill="#005283"/>
<path d="M142.069 121.448V110.069H143.776V111.621C145.121 110.69 146.466 110.121 147.914 109.81V111.517C147.293 111.621 146.621 111.828 145.949 112.086C145.276 112.345 144.707 112.552 144.345 112.759L143.776 113.069V121.397L142.069 121.448Z" fill="#005283"/>
<path d="M80.8271 136.862L82.8961 129.362H84.7065L86.7754 136.862H85.9478L85.4306 134.948H82.2237L81.7065 136.862H80.8271ZM83.5168 130.086L82.3789 134.172H85.2237L84.0858 130.086H83.5168Z" fill="#E81F26"/>
<path d="M87.8613 136.862V129.362H88.6889V136.862H87.8613Z" fill="#E81F26"/>
<path d="M89.8271 136.759L92.8789 129.207L93.603 129.466L90.5513 137.017L89.8271 136.759Z" fill="#E81F26"/>
<path d="M94.7412 136.862V129.362H96.2412L98.3619 135.672L100.483 129.362H101.983V136.862H101.155V130.241H101L98.8274 136.552H97.8964L95.724 130.241H95.5688V136.862H94.7412Z" fill="#E81F26"/>
<path d="M107.879 136.862H103.741V129.362H104.569V136.086H107.879V136.862Z" fill="#E81F26"/>
<path d="M110.311 130.086V129.362H115.742V130.086H113.466V136.81H112.638V130.086H110.311Z" fill="#E81F26"/>
<path d="M119.206 136.19L119.517 136.138V136.759C118.689 136.862 117.965 136.914 117.396 136.914C116.62 136.914 116.051 136.707 115.741 136.241C115.431 135.776 115.275 135.103 115.275 134.121C115.275 132.207 116.051 131.276 117.551 131.276C118.275 131.276 118.844 131.483 119.206 131.897C119.568 132.31 119.724 132.931 119.724 133.81L119.672 134.431H116.103C116.103 135.052 116.206 135.466 116.413 135.776C116.62 136.086 116.982 136.19 117.551 136.19C118.12 136.241 118.689 136.241 119.206 136.19ZM118.948 133.81C118.948 133.138 118.844 132.672 118.637 132.414C118.431 132.155 118.068 132 117.603 132C117.137 132 116.775 132.155 116.517 132.414C116.258 132.724 116.155 133.19 116.155 133.81H118.948Z" fill="#E81F26"/>
<path d="M124.741 133.086V135.879C124.741 136.138 124.948 136.293 125.362 136.345L125.31 136.966C124.741 136.966 124.328 136.81 124.017 136.552C123.345 136.862 122.724 136.966 122.052 136.966C121.534 136.966 121.172 136.81 120.914 136.552C120.655 136.293 120.5 135.879 120.5 135.362C120.5 134.845 120.655 134.431 120.914 134.172C121.172 133.914 121.586 133.759 122.155 133.707L123.862 133.552V133.086C123.862 132.724 123.759 132.466 123.603 132.31C123.448 132.155 123.241 132.052 122.931 132.052C122.362 132.052 121.741 132.104 121.121 132.155L120.81 132.207L120.759 131.586C121.534 131.431 122.259 131.328 122.879 131.328C123.5 131.328 123.914 131.483 124.224 131.741C124.586 132.052 124.741 132.466 124.741 133.086ZM121.379 135.259C121.379 135.931 121.638 136.241 122.207 136.241C122.672 136.241 123.19 136.138 123.655 135.983L123.914 135.879V134.069L122.31 134.224C122 134.276 121.741 134.328 121.586 134.483C121.483 134.741 121.379 134.948 121.379 135.259Z" fill="#E81F26"/>
<path d="M127.017 136.862H126.189V131.431H126.965V131.793C127.483 131.483 128.052 131.328 128.569 131.328C129.241 131.328 129.707 131.535 129.965 131.897C130.224 131.741 130.534 131.638 130.896 131.535C131.258 131.431 131.62 131.379 131.879 131.379C132.603 131.379 133.069 131.586 133.327 131.948C133.586 132.31 133.689 133.035 133.689 134.017V136.862H132.862V134.017C132.862 133.241 132.81 132.776 132.655 132.466C132.5 132.207 132.189 132.052 131.724 132.052C131.465 132.052 131.258 132.104 131 132.155C130.741 132.207 130.534 132.31 130.431 132.362L130.224 132.466C130.327 132.724 130.379 133.241 130.379 134.069V136.862H129.552V134.069C129.552 133.293 129.5 132.776 129.345 132.466C129.189 132.207 128.879 132.052 128.414 132.052C128.207 132.052 127.948 132.104 127.689 132.155C127.431 132.207 127.276 132.31 127.12 132.362L126.914 132.466V136.862H127.017Z" fill="#E81F26"/>
<path d="M81.1377 147.104C81.1377 146.121 81.2929 145.397 81.6549 144.983C82.017 144.517 82.586 144.311 83.4653 144.311C84.2929 144.311 84.9136 144.517 85.2756 144.983C85.6377 145.448 85.7929 146.121 85.7929 147.104C85.7929 148.086 85.6377 148.811 85.2756 149.276C84.9653 149.742 84.3446 149.948 83.4653 149.948C82.586 149.948 81.9653 149.742 81.6549 149.276C81.2929 148.811 81.1377 148.086 81.1377 147.104ZM81.9653 147.104C81.9653 147.88 82.0687 148.448 82.2756 148.759C82.4825 149.069 82.8446 149.224 83.4653 149.224C84.086 149.224 84.448 149.069 84.6549 148.759C84.8618 148.448 84.9136 147.88 84.9136 147.104C84.9136 146.328 84.8101 145.759 84.6032 145.448C84.3963 145.138 83.9825 144.983 83.4136 144.983C82.8446 144.983 82.4825 145.138 82.2239 145.448C82.0687 145.759 81.9653 146.328 81.9653 147.104Z" fill="#E81F26"/>
<path d="M88.0166 145.138V149.845H87.189V145.138H86.5166V144.414H87.189V143.948C87.189 143.173 87.2925 142.655 87.4994 142.397C87.7063 142.138 88.1201 141.983 88.6373 141.983L89.7235 142.035V142.707C89.3097 142.707 88.9994 142.707 88.7407 142.707C88.4821 142.707 88.2752 142.81 88.1718 142.966C88.0683 143.121 88.0166 143.483 88.0166 143.948V144.414H89.5683V145.138H88.0166Z" fill="#E81F26"/>
<path d="M95.5174 145.138H93.8105V147.724C93.8105 148.345 93.8622 148.759 93.9657 148.966C94.0691 149.173 94.276 149.276 94.5864 149.276L95.5691 149.224L95.6209 149.897C95.1553 150 94.7933 150 94.5347 150C93.9657 150 93.6036 149.845 93.345 149.586C93.1381 149.328 93.0347 148.811 93.0347 148.035V145.19H92.2588V144.466H93.0347V142.759H93.8105V144.414H95.5174V145.138Z" fill="#E81F26"/>
<path d="M97.2231 149.845H96.3955V142.086H97.2231V144.724C97.7921 144.465 98.361 144.31 98.8783 144.31C99.6024 144.31 100.068 144.517 100.327 144.879C100.585 145.293 100.689 145.965 100.689 146.948V149.793H99.861V146.948C99.861 146.172 99.8093 145.707 99.6541 145.397C99.499 145.138 99.1886 144.983 98.7231 144.983C98.2576 144.983 97.8438 145.086 97.3783 145.241L97.2231 145.345V149.845Z" fill="#E81F26"/>
<path d="M105.81 149.173L106.12 149.121V149.742C105.293 149.845 104.569 149.897 104 149.897C103.224 149.897 102.655 149.69 102.344 149.224C102.034 148.759 101.879 148.086 101.879 147.104C101.879 145.19 102.655 144.259 104.155 144.259C104.879 144.259 105.448 144.466 105.81 144.879C106.172 145.293 106.327 145.914 106.327 146.793L106.275 147.414H102.706C102.706 148.035 102.81 148.448 103.017 148.759C103.224 149.069 103.586 149.173 104.155 149.173C104.672 149.224 105.241 149.224 105.81 149.173ZM105.5 146.845C105.5 146.173 105.396 145.707 105.189 145.448C104.982 145.19 104.62 145.035 104.155 145.035C103.689 145.035 103.327 145.19 103.069 145.448C102.81 145.759 102.706 146.224 102.706 146.845H105.5Z" fill="#E81F26"/>
<path d="M112.275 149.845H111.448V146.69L109.068 142.345H109.999L111.861 145.862L113.724 142.345H114.655L112.275 146.69V149.845Z" fill="#E81F26"/>
<path d="M118.378 149.173L118.689 149.121V149.742C117.861 149.845 117.137 149.897 116.568 149.897C115.792 149.897 115.223 149.69 114.913 149.224C114.602 148.759 114.447 148.086 114.447 147.104C114.447 145.19 115.223 144.259 116.723 144.259C117.447 144.259 118.016 144.466 118.378 144.879C118.74 145.293 118.896 145.914 118.896 146.793L118.844 147.414H115.275C115.275 148.035 115.378 148.448 115.585 148.759C115.792 149.069 116.154 149.173 116.723 149.173C117.292 149.224 117.809 149.224 118.378 149.173ZM118.068 146.845C118.068 146.173 117.965 145.707 117.758 145.448C117.551 145.19 117.189 145.035 116.723 145.035C116.258 145.035 115.896 145.19 115.637 145.448C115.378 145.707 115.275 146.224 115.275 146.845H118.068Z" fill="#E81F26"/>
<path d="M123.861 146.069V148.862C123.861 149.121 124.068 149.276 124.482 149.328L124.43 149.948C123.861 149.948 123.448 149.793 123.137 149.534C122.465 149.845 121.844 149.948 121.172 149.948C120.655 149.948 120.293 149.793 120.034 149.534C119.775 149.276 119.62 148.862 119.62 148.345C119.62 147.828 119.775 147.414 120.034 147.207C120.293 146.948 120.706 146.793 121.275 146.741L122.982 146.586V146.121C122.982 145.759 122.879 145.5 122.724 145.345C122.568 145.19 122.361 145.086 122.051 145.086C121.482 145.086 120.861 145.138 120.241 145.19L119.93 145.241L119.879 144.621C120.655 144.466 121.379 144.362 121.999 144.362C122.62 144.362 123.034 144.517 123.344 144.776C123.758 145.034 123.861 145.448 123.861 146.069ZM120.551 148.293C120.551 148.966 120.81 149.276 121.379 149.276C121.844 149.276 122.361 149.172 122.827 149.017L123.086 148.914V147.103L121.482 147.259C121.172 147.31 120.913 147.362 120.758 147.517C120.603 147.672 120.551 147.983 120.551 148.293Z" fill="#E81F26"/>
<path d="M125.361 149.845V144.414H126.137V145.138C126.758 144.724 127.43 144.414 128.103 144.259V145.086C127.792 145.138 127.482 145.242 127.172 145.345C126.861 145.448 126.603 145.552 126.396 145.655L126.189 145.862V149.845H125.361Z" fill="#E81F26"/>
<path d="M80 39.2585L83 26.0171H88.069L91.0172 39.2585H88.3276L87.8103 36.8792H83.2069L82.6897 39.2585H80ZM85.0172 28.2412L83.6724 34.4998H87.2931L85.9483 28.2412H85.0172Z" fill="#E81F26"/>
<path d="M92.3105 39.2585V26.0171H95.0002V39.2585H92.3105Z" fill="#E81F26"/>
<path d="M102.966 26.1723C103.69 25.6551 104.673 25.3965 105.914 25.3965C107.156 25.3965 108.139 25.6551 108.811 26.2241C109.483 26.7413 109.845 27.5172 109.845 28.4482C109.845 29.3792 109.639 30.1034 109.276 30.6206C108.863 31.1379 108.19 31.7586 107.208 32.4827L109.121 34.3965C109.225 34.1896 109.276 33.8275 109.38 33.2586C109.483 32.6896 109.483 32.2241 109.535 31.9137L112.07 31.9655C111.863 33.4655 111.552 34.8103 111.087 35.8965L113.259 37.8103L111.708 39.4655L109.639 37.7586C109.173 38.2758 108.604 38.6379 107.88 38.9482C107.156 39.2586 106.432 39.4137 105.656 39.4137C103.742 39.4137 102.397 39.0517 101.621 38.3792C100.845 37.7068 100.432 36.6723 100.432 35.3792C100.432 34.3448 100.639 33.5172 101.104 32.8965C101.57 32.2758 102.242 31.8103 103.225 31.4482C102.708 30.7758 102.345 30.2586 102.19 29.8965C102.035 29.4827 101.932 28.9655 101.932 28.3448C101.88 27.4137 102.242 26.6896 102.966 26.1723ZM105.345 37.1379C105.863 37.1379 106.38 37.0861 106.845 36.931C107.363 36.7758 107.673 36.6206 107.88 36.362L104.518 32.9999C103.535 33.4655 103.07 34.1896 103.07 35.2241C103.07 36.5172 103.794 37.1379 105.345 37.1379ZM104.518 28.9137C104.518 29.431 104.828 29.9999 105.397 30.6206L105.708 30.9827C106.225 30.5689 106.639 30.2586 106.845 29.9482C107.052 29.6379 107.156 29.2758 107.156 28.862C107.156 28.0344 106.69 27.6206 105.811 27.6206C104.932 27.6206 104.518 28.0344 104.518 28.9137Z" fill="#E81F26"/>
<path d="M118.12 39.2585V26.0171H122.672L124.999 35.6378L127.327 26.0171H131.879V39.2585H129.189V29.0171H128.879L126.293 38.6378H123.603L121.017 29.0171H120.706V39.2585H118.12Z" fill="#E81F26"/>
<path d="M141.552 32.5344V36.5689C141.604 36.8793 141.656 37.0862 141.708 37.2413C141.811 37.3448 141.966 37.4482 142.173 37.4999L142.07 39.4655C141.397 39.4655 140.88 39.4137 140.466 39.3103C140.052 39.2068 139.69 39.0517 139.276 38.7413C138.345 39.2068 137.414 39.4137 136.432 39.4137C134.414 39.4137 133.432 38.3275 133.432 36.2068C133.432 35.1724 133.69 34.4482 134.259 33.9827C134.828 33.5689 135.656 33.3103 136.845 33.2068L138.914 33.0517V32.431C138.914 32.0172 138.811 31.7586 138.656 31.6034C138.449 31.4482 138.19 31.3965 137.776 31.3965L134.104 31.5517L134.001 29.7413C135.397 29.3793 136.69 29.1724 137.983 29.1724C139.225 29.1724 140.156 29.431 140.673 29.9482C141.242 30.5689 141.552 31.3965 141.552 32.5344ZM137.156 35.1206C136.432 35.1724 136.07 35.5862 136.07 36.3103C136.07 37.0344 136.38 37.3965 137.001 37.3965C137.518 37.3965 138.035 37.2931 138.604 37.1379L138.914 37.0344V34.9655L137.156 35.1206Z" fill="#E81F26"/>
<path d="M147.189 29.2759C147.861 29.2759 148.741 29.3793 149.775 29.5862L150.292 29.6897L150.189 31.7586C149.154 31.6552 148.43 31.6035 147.913 31.6035C147.034 31.6035 146.413 31.8104 146.154 32.1724C145.844 32.5345 145.741 33.2586 145.741 34.3448C145.741 35.4311 145.896 36.1552 146.154 36.5173C146.465 36.9311 147.034 37.0862 147.965 37.0862L150.241 36.9311L150.344 39C148.947 39.2586 147.913 39.4138 147.189 39.4138C145.741 39.4138 144.706 39 144.085 38.2242C143.465 37.3966 143.154 36.1035 143.154 34.3448C143.154 32.5862 143.465 31.2414 144.137 30.4655C144.706 29.6897 145.741 29.2759 147.189 29.2759Z" fill="#E81F26"/>
<path d="M154.328 39.2585H151.742V25.655H154.328V29.9999C155.208 29.5343 156.035 29.2757 156.759 29.2757C158.053 29.2757 158.932 29.6378 159.449 30.4137C159.966 31.1895 160.173 32.3792 160.173 33.9309V39.2068H157.587V34.0343C157.587 33.2068 157.484 32.5861 157.277 32.224C157.07 31.8102 156.708 31.655 156.087 31.655C155.57 31.655 155.053 31.7585 154.587 31.9136L154.328 32.0171V39.2585Z" fill="#E81F26"/>
<path d="M161.982 28.293V25.655H164.569V28.293H161.982ZM161.982 39.2585V29.5343H164.569V39.2585H161.982Z" fill="#E81F26"/>
<path d="M169.12 39.2587H166.534V29.5345H169.12V30.1035C170 29.5863 170.827 29.3276 171.551 29.3276C172.845 29.3276 173.724 29.6897 174.241 30.4656C174.758 31.2414 174.965 32.4311 174.965 33.9828V39.2587H172.379V34.0863C172.379 33.2587 172.276 32.638 172.069 32.2242C171.862 31.8104 171.5 31.6552 170.879 31.6552C170.362 31.6552 169.845 31.7587 169.327 31.9138L169.069 32.0173L169.12 39.2587Z" fill="#E81F26"/>
<path d="M179.414 36.7759C179.724 37.0345 180.138 37.1897 180.707 37.1897C181.897 37.1897 182.983 37.138 183.914 37.0863L184.483 37.0345L184.535 38.9483C183.035 39.3104 181.69 39.5173 180.5 39.5173C179.052 39.5173 177.966 39.1035 177.293 38.3276C176.621 37.5518 176.311 36.3104 176.311 34.5518C176.311 31.0863 177.759 29.3276 180.604 29.3276C183.448 29.3276 184.845 30.7759 184.845 33.7242L184.638 35.5345H178.948C178.948 36.1035 179.104 36.5173 179.414 36.7759ZM182.259 33.5173C182.259 32.7414 182.155 32.2242 181.897 31.9138C181.638 31.6035 181.224 31.4483 180.604 31.4483C179.983 31.4483 179.569 31.6035 179.311 31.9138C179.052 32.2242 178.948 32.7414 178.897 33.5173H182.259Z" fill="#E81F26"/>
<path d="M88.6377 55.6552H81.0859V42.4656H83.7756V53.3276H88.6377V55.6552Z" fill="#E81F26"/>
<path d="M92.1552 53.2242C92.4656 53.4828 92.8793 53.6379 93.4483 53.6379C94.638 53.6379 95.7242 53.5862 96.6552 53.5345L97.2242 53.4828L97.2759 55.3966C95.7759 55.7586 94.4311 55.9655 93.2414 55.9655C91.7931 55.9655 90.7069 55.5517 90.0345 54.7759C89.3621 54 89.0518 52.7586 89.0518 51C89.0518 47.5345 90.5 45.7759 93.3449 45.7759C96.1897 45.7759 97.5862 47.2242 97.5862 50.1724L97.3793 51.9828H91.6897C91.6897 52.5 91.8449 52.9655 92.1552 53.2242ZM95.0518 49.9138C95.0518 49.1379 94.9483 48.6207 94.6897 48.3104C94.4311 48 94.0173 47.8448 93.3966 47.8448C92.7759 47.8448 92.3621 48 92.1035 48.3104C91.8449 48.6207 91.7414 49.1379 91.6897 49.9138H95.0518Z" fill="#E81F26"/>
<path d="M106.431 48.9825V53.017C106.483 53.3273 106.535 53.5342 106.586 53.6894C106.69 53.7928 106.845 53.8963 107.052 53.948L106.948 55.9135C106.276 55.9135 105.759 55.8618 105.345 55.7584C104.931 55.6549 104.569 55.4997 104.155 55.1894C103.224 55.6549 102.293 55.8618 101.311 55.8618C99.2933 55.8618 98.3105 54.7756 98.3105 52.6549C98.3105 51.6204 98.5692 50.8963 99.1381 50.4308C99.7071 50.017 100.535 49.7584 101.724 49.6549L103.793 49.4997V48.879C103.793 48.4653 103.69 48.2066 103.535 48.0515C103.328 47.8963 103.069 47.8446 102.655 47.8446L99.0347 48.1032L98.9312 46.2928C100.328 45.9308 101.621 45.7239 102.914 45.7239C104.155 45.7239 105.086 45.9825 105.604 46.4997C106.173 47.017 106.431 47.8446 106.431 48.9825ZM102.035 51.5687C101.311 51.6204 100.948 52.0342 100.948 52.7584C100.948 53.4825 101.259 53.8446 101.88 53.8446C102.397 53.8446 102.914 53.7411 103.483 53.5859L103.793 53.4825V51.4135L102.035 51.5687Z" fill="#E81F26"/>
<path d="M108.448 55.6549V45.9308H111.034V46.9653C112.121 46.2928 113.155 45.879 114.138 45.7239V48.3618C113.103 48.5687 112.172 48.8273 111.448 49.0342L111.034 49.1894V55.7066L108.448 55.6549Z" fill="#E81F26"/>
<path d="M117.81 55.6549H115.224V45.9308H117.81V46.4997C118.689 45.9825 119.517 45.7239 120.241 45.7239C121.534 45.7239 122.413 46.0859 122.931 46.8618C123.448 47.6377 123.655 48.8273 123.655 50.379V55.6549H121.068V50.4825C121.068 49.6549 120.965 49.0342 120.758 48.6204C120.551 48.2066 120.189 48.0515 119.568 48.0515C119.051 48.0515 118.534 48.1549 118.017 48.3101L117.758 48.4135L117.81 55.6549Z" fill="#E81F26"/>
<path d="M125.466 44.6894V42.0515H128.052V44.6894H125.466ZM125.466 55.655V45.9308H128.052V55.655H125.466Z" fill="#E81F26"/>
<path d="M132.604 55.6549H130.018V45.9308H132.604V46.4997C133.483 45.9825 134.311 45.7239 135.035 45.7239C136.328 45.7239 137.207 46.0859 137.724 46.8618C138.242 47.6377 138.449 48.8273 138.449 50.379V55.6549H135.862V50.4825C135.862 49.6549 135.759 49.0342 135.552 48.6204C135.345 48.2066 134.983 48.0515 134.362 48.0515C133.845 48.0515 133.328 48.1549 132.811 48.3101L132.552 48.4135L132.604 55.6549Z" fill="#E81F26"/>
<path d="M149.052 56.8966C149.052 57.9828 148.638 58.8104 147.758 59.3793C146.879 59.8966 145.741 60.1552 144.293 60.1552C142.845 60.1552 141.707 59.9483 140.931 59.5862C140.155 59.1724 139.741 58.5 139.741 57.4655C139.741 56.6379 140.207 55.8621 141.138 55.1379C140.672 54.8276 140.414 54.3104 140.414 53.6379C140.414 53.3793 140.621 52.9655 140.983 52.3448L141.138 52.0862C140.258 51.4655 139.793 50.5345 139.793 49.2931C139.793 48.0517 140.155 47.1724 140.931 46.6035C141.655 46.0345 142.689 45.7759 143.879 45.7759C144.448 45.7759 144.965 45.8276 145.534 45.9828L145.845 46.0345L149 45.9311V48L147.552 47.8966C147.862 48.3621 147.965 48.7759 147.965 49.2414C147.965 50.5345 147.655 51.4138 146.983 51.9311C146.31 52.4483 145.276 52.6552 143.879 52.6552C143.569 52.6552 143.31 52.6035 143.103 52.5517C142.948 52.9138 142.896 53.1724 142.896 53.3793C142.896 53.5862 143 53.7414 143.207 53.7931C143.414 53.8966 143.931 53.8966 144.758 53.9483C146.414 53.9483 147.5 54.1552 148.121 54.6207C148.741 55.0345 149.052 55.7586 149.052 56.8966ZM142.327 57.1552C142.327 57.7242 143 57.9828 144.396 57.9828C145.741 57.9828 146.465 57.6724 146.465 57C146.465 56.6379 146.362 56.4311 146.103 56.3276C145.845 56.2242 145.379 56.1724 144.603 56.1724L142.845 56.0173C142.483 56.4311 142.327 56.7931 142.327 57.1552ZM142.483 49.1897C142.483 50.1207 143 50.6379 143.983 50.6379C144.965 50.6379 145.483 50.1724 145.483 49.1897C145.483 48.2586 144.965 47.7414 143.983 47.7414C143 47.7931 142.483 48.2586 142.483 49.1897Z" fill="#E81F26"/>
<path d="M80 72.1034L83 58.8621H88.069L91.069 72.1034H88.3793L87.8621 69.7241H83.2586L82.7414 72.1034H80ZM85.0172 61.0862L83.6724 67.3448H87.2931L85.9483 61.0862H85.0172Z" fill="#E81F26"/>
<path d="M91.1211 62.3794H93.7073L94.897 69.8794H95.3625L96.8625 62.5863H99.5521L101.052 69.8794H101.518L102.707 62.3794H105.294L103.431 72.1035H99.3452L98.259 66.1553L97.1728 72.1035H93.0866L91.1211 62.3794Z" fill="#E81F26"/>
<path d="M113.828 65.3794V69.4139C113.879 69.7242 113.931 69.9311 113.983 70.0863C114.086 70.1897 114.242 70.2932 114.448 70.3449L114.345 72.3104C113.673 72.3104 113.155 72.2587 112.742 72.1553C112.328 72.0518 111.966 71.8966 111.552 71.5863C110.621 72.0518 109.69 72.2587 108.707 72.2587C106.69 72.2587 105.707 71.1725 105.707 69.0518C105.707 68.0173 105.966 67.2932 106.535 66.8277C107.104 66.4139 107.931 66.1553 109.121 66.0518L111.19 65.8966V65.276C111.19 64.8622 111.086 64.6035 110.931 64.4484C110.724 64.2932 110.466 64.2415 110.052 64.2415L106.379 64.3966L106.276 62.5863C107.673 62.2242 108.966 62.0173 110.259 62.0173C111.5 62.0173 112.431 62.276 112.948 62.7932C113.569 63.4139 113.828 64.2415 113.828 65.3794ZM109.431 67.9656C108.707 68.0173 108.345 68.4311 108.345 69.1553C108.345 69.8794 108.655 70.2415 109.276 70.2415C109.793 70.2415 110.31 70.138 110.879 69.9829L111.19 69.8794V67.8104L109.431 67.9656Z" fill="#E81F26"/>
<path d="M115.845 72.1034V62.3793H118.431V63.4137C119.517 62.7413 120.552 62.3275 121.534 62.1724V64.8103C120.5 65.0172 119.569 65.2758 118.845 65.4827L118.431 65.6379V72.1551L115.845 72.1034Z" fill="#E81F26"/>
<path d="M130.845 58.5V72.1034H128.259V71.6897C127.328 72.1035 126.552 72.3103 125.931 72.3103C124.535 72.3103 123.552 71.8966 122.983 71.069C122.414 70.2414 122.155 68.9483 122.155 67.1897C122.155 65.431 122.466 64.1379 123.138 63.3103C123.81 62.4828 124.793 62.1207 126.138 62.1207C126.552 62.1207 127.121 62.1724 127.845 62.3276L128.207 62.431V58.5H130.845ZM127.948 69.7759L128.207 69.7241V64.6034C127.483 64.4483 126.862 64.3966 126.293 64.3966C125.259 64.3966 124.741 65.3276 124.741 67.1897C124.741 68.2241 124.845 68.8966 125.104 69.3621C125.362 69.7759 125.724 69.9828 126.241 69.9828C126.81 69.9828 127.379 69.931 127.948 69.7759Z" fill="#E81F26"/>
<path d="M139.74 64.8102C138.137 64.6033 136.999 64.4999 136.378 64.4999C135.758 64.4999 135.344 64.5516 135.137 64.6551C134.93 64.7585 134.878 64.9654 134.878 65.224C134.878 65.4826 134.982 65.6378 135.24 65.7413C135.499 65.8447 136.12 65.9999 137.206 66.1551C138.24 66.3619 139.016 66.6723 139.43 67.0861C139.896 67.4999 140.102 68.224 140.102 69.1551C140.102 71.2757 138.809 72.3102 136.171 72.3102C135.292 72.3102 134.258 72.2068 133.068 71.9482L132.447 71.8447L132.551 69.6723C134.154 69.8792 135.292 69.9826 135.913 69.9826C136.533 69.9826 136.947 69.9309 137.206 69.7757C137.413 69.6723 137.568 69.4654 137.568 69.2068C137.568 68.9482 137.464 68.793 137.206 68.6378C136.947 68.5344 136.327 68.3792 135.344 68.224C134.361 68.0688 133.585 67.7585 133.12 67.3447C132.602 66.9309 132.396 66.2068 132.396 65.1723C132.396 64.1378 132.758 63.362 133.43 62.8447C134.154 62.3275 135.033 62.0688 136.12 62.0688C136.896 62.0688 137.93 62.1723 139.275 62.4309L139.896 62.5344L139.74 64.8102Z" fill="#E81F26"/>
<path d="M88.2237 88.4998H80.8789V87.4653L84.4996 83.2239C85.0686 82.5515 85.4824 82.0343 85.7927 81.6722C86.0513 81.3101 86.3099 80.8963 86.5168 80.4308C86.7237 79.9136 86.8272 79.4481 86.8272 78.9308C86.8272 78.0515 86.6203 77.4308 86.1548 77.0687C85.741 76.7067 85.0686 76.4998 84.1375 76.4998C83.3617 76.4998 82.5341 76.6032 81.5513 76.8619L81.0858 76.9653L80.9824 75.9308C82.0686 75.5687 83.2065 75.4136 84.3444 75.4136C85.4824 75.4136 86.3617 75.6722 86.9824 76.2412C87.603 76.7584 87.8617 77.6377 87.8617 78.8274C87.8617 79.7067 87.6548 80.4825 87.3444 81.1549C87.0341 81.8274 86.3617 82.6032 85.5341 83.586L82.172 87.4136H88.2237V88.4998Z" fill="#E81F26"/>
<path d="M90.7078 78.1552C91.0699 77.1208 91.4837 76.4483 92.1044 76.0345C92.6733 75.6725 93.3975 75.4656 94.1733 75.4656C95.0009 75.4656 95.6216 75.569 96.1388 75.7759C96.6561 75.9828 97.0699 76.3449 97.432 76.8621C98.1561 77.8449 98.5182 79.6035 98.5182 82.0863C98.5182 84.569 98.1561 86.3276 97.4837 87.2587C96.8113 88.1897 95.7768 88.707 94.3802 88.707C92.9837 88.707 91.9492 88.2414 91.2768 87.3104C90.6044 86.3794 90.2423 84.7242 90.2423 82.3449C90.1906 80.5863 90.3975 79.1897 90.7078 78.1552ZM96.0354 77.0173C95.6216 76.707 95.0526 76.5518 94.3285 76.5518C93.6044 76.5518 93.0354 76.707 92.6216 77.0173C91.7423 77.6897 91.3285 79.4483 91.3285 82.3449C91.3285 84.3621 91.5871 85.7587 92.0526 86.4828C92.5182 87.207 93.294 87.6207 94.3285 87.6207C95.0009 87.6207 95.5699 87.4656 95.9837 87.207C96.9147 86.5863 97.3285 84.9828 97.3285 82.3449C97.3802 79.5001 96.9147 77.6897 96.0354 77.0173Z" fill="#E81F26"/>
<path d="M107.31 88.4998H99.9648V87.4653L103.586 83.2239C104.154 82.5515 104.568 82.0343 104.879 81.6722C105.137 81.3101 105.396 80.8963 105.603 80.4308C105.81 79.9136 105.913 79.4481 105.913 78.9308C105.913 78.0515 105.706 77.4308 105.241 77.0687C104.827 76.7067 104.154 76.4998 103.223 76.4998C102.448 76.4998 101.62 76.6032 100.637 76.8619L100.172 76.9653L100.068 75.9308C101.154 75.5687 102.292 75.4136 103.43 75.4136C104.568 75.4136 105.448 75.6722 106.068 76.2412C106.689 76.7584 106.948 77.6377 106.948 78.8274C106.948 79.7067 106.741 80.4825 106.43 81.1549C106.12 81.8274 105.448 82.6032 104.62 83.586L101.258 87.4136H107.31V88.4998Z" fill="#E81F26"/>
<path d="M115.793 88.4998H108.448V87.4653L112.069 83.2239C112.638 82.5515 113.052 82.0343 113.362 81.6722C113.621 81.3101 113.879 80.8963 114.086 80.4308C114.293 79.9136 114.397 79.4481 114.397 78.9308C114.397 78.0515 114.19 77.4308 113.724 77.0687C113.31 76.7067 112.638 76.4998 111.707 76.4998C110.931 76.4998 110.103 76.6032 109.121 76.8619L108.655 76.9653L108.552 75.9308C109.638 75.5687 110.776 75.4136 111.914 75.4136C113.052 75.4136 113.931 75.6722 114.552 76.2412C115.172 76.7584 115.431 77.6377 115.431 78.8274C115.431 79.7067 115.224 80.4825 114.914 81.1549C114.603 81.8274 113.931 82.6032 113.103 83.586L109.741 87.4136H115.793V88.4998Z" fill="#E81F26"/>
<path d="M84.6044 10.0862C84.6044 11.1724 85.0699 11.6896 86.3113 11.6896C87.1389 11.6896 87.7078 11.5862 88.4837 11.431L88.8975 14.0689C87.8113 14.3275 87.0872 14.3793 86.3113 14.3793C82.8458 14.3793 81.4492 13.0862 81.4492 10.0862V7.65513C81.4492 4.60341 82.8458 3.3103 86.3113 3.3103C87.0354 3.3103 87.8113 3.41375 88.8975 3.62065L88.4837 6.25858C87.8113 6.10341 86.932 5.99996 86.3113 5.99996C85.0699 5.99996 84.6044 6.5172 84.6044 7.60341V10.0862Z" fill="#005182"/>
<path d="M95.363 10.1379C95.363 11.1206 94.8457 11.6896 93.7078 11.6896C92.5699 11.6896 92.0526 11.1206 92.0526 10.1379V7.49996C92.0526 6.5172 92.5699 5.94823 93.7078 5.94823C94.8457 5.94823 95.363 6.5172 95.363 7.49996V10.1379ZM93.7078 3.3103C89.9319 3.3103 88.8975 5.43099 88.8975 7.60341V10.0862C88.8975 12.2586 89.9319 14.3793 93.7078 14.3793C97.4837 14.3793 98.5182 12.2586 98.5182 10.0862V7.60341C98.4664 5.43099 97.4837 3.3103 93.7078 3.3103Z" fill="#005182"/>
<path d="M105.191 14.1724V7.13789C105.191 6.67237 104.984 6.36203 104.415 6.36203C103.846 6.36203 102.812 6.77582 102.14 7.13789V14.1724H98.9844V3.5172H101.312L101.622 4.34479C102.915 3.7241 104.622 3.3103 105.864 3.3103C106.795 3.3103 107.415 3.67237 107.829 4.34479C109.019 3.77582 110.622 3.3103 112.071 3.3103C113.881 3.3103 114.502 4.65513 114.502 6.7241V14.1724H111.346V7.13789C111.346 6.67237 111.14 6.36203 110.571 6.36203C110.002 6.36203 108.967 6.77582 108.295 7.13789V14.1724H105.191Z" fill="#005182"/>
<path d="M121.381 10.4482C121.381 11.1206 121.07 11.6379 120.243 11.6379C119.57 11.6379 118.794 11.4827 118.226 11.3793V6.87927C118.691 6.46548 119.519 6.05168 120.243 6.05168C121.07 6.05168 121.381 6.5172 121.381 7.24134V10.4482ZM121.174 3.3103C120.036 3.3103 118.639 3.87927 117.915 4.39651L117.605 3.56892H115.122V18.931L118.277 18.5172V14.1206C119.001 14.2758 120.088 14.431 120.967 14.431C123.45 14.431 124.536 13.0344 124.536 10.5V7.24134C124.536 4.65513 123.294 3.3103 121.174 3.3103Z" fill="#005182"/>
<path d="M128.209 3.51733V10.5518C128.209 11.0173 128.416 11.3277 128.985 11.3277C129.554 11.3277 130.588 10.9139 131.261 10.5518V3.51733H134.416V14.1208H132.088L131.778 13.2932C130.485 13.9139 128.778 14.3277 127.537 14.3277C125.726 14.3277 125.105 12.9829 125.105 10.9139V3.51733H128.209Z" fill="#005182"/>
<path d="M139.483 14.3794C137.466 14.3794 136.276 13.6036 136.276 11.6381V6.05185H134.828V3.51737H136.276V0.982885L139.432 0.569092V3.56909H141.863L141.707 6.10357H139.483V11.276C139.483 11.6898 139.742 11.845 140.156 11.845C140.518 11.845 140.983 11.7932 141.449 11.6381L141.811 14.0174C141.087 14.2243 140.207 14.3794 139.483 14.3794Z" fill="#005182"/>
<path d="M145.431 0H142.275V3.36207H145.431V0Z" fill="#398ECC"/>
<path d="M145.431 3.51733H142.275V14.1208H145.431V3.51733Z" fill="#005182"/>
<path d="M152.104 14.1724V7.13789C152.104 6.67237 151.897 6.36203 151.328 6.36203C150.76 6.36203 149.725 6.77582 149.053 7.13789V14.1724H145.897V3.5172H148.225L148.535 4.34479C149.828 3.7241 151.535 3.3103 152.777 3.3103C154.587 3.3103 155.208 4.65513 155.208 6.7241V14.1724H152.104Z" fill="#005182"/>
<path d="M161.466 7.91375C161.466 8.63789 161.052 8.94823 160.069 8.94823C159.035 8.94823 158.673 8.63789 158.673 7.91375V6.93099C158.673 6.20685 159.035 5.79306 160.069 5.79306C161.104 5.79306 161.466 6.20685 161.466 6.93099V7.91375ZM165.138 3.5172H161.828C161.311 3.36203 160.69 3.3103 160.018 3.3103C156.914 3.3103 155.725 4.65513 155.673 6.77582V8.06892C155.673 9.3103 156.087 10.2413 157.018 10.8103C156.5 11.3275 156.087 11.8965 156.087 12.7758C156.087 14.2241 156.914 14.5344 158.363 14.6896C159.656 14.8448 159.863 14.8448 161.052 14.9482C161.673 15 161.88 15.1034 161.88 15.5172C161.88 16.1896 161.207 16.2931 159.604 16.2931C158.673 16.2931 157.38 16.1379 156.138 15.8793L155.673 18.1034C157.069 18.4655 158.88 18.6724 159.914 18.6724C163.225 18.6724 164.776 17.8965 164.776 15.3103C164.776 13.5 164 12.8793 162.19 12.7241C161.414 12.6724 160.949 12.6206 159.552 12.4655C159.345 12.4655 159.19 12.2586 159.19 12.0517C159.19 11.7413 159.449 11.5862 159.656 11.4827H159.966C162.914 11.4827 164.311 10.1379 164.311 8.12065V6.82754C164.311 6.36203 164.207 5.84479 164.052 5.43099L165.138 5.0172V3.5172Z" fill="#005182"/>
<path d="M163.484 0.155173H163.174V0H164.001V0.155173H163.691V1.08621H163.484V0.155173Z" fill="#005182"/>
<path d="M164.156 0H164.363L164.57 0.568965L164.622 0.775862L164.673 0.568965L164.88 0H165.087V1.08621H164.984V0.568965C164.984 0.517241 164.984 0.517241 164.984 0.465517C164.984 0.413793 164.984 0.413793 164.984 0.362069C164.984 0.310345 164.984 0.310345 164.984 0.258621C164.984 0.206897 164.984 0.206897 164.984 0.155173L164.88 0.413793L164.673 0.931035H164.57L164.363 0.413793L164.26 0.155173C164.26 0.206897 164.26 0.206897 164.26 0.258621C164.26 0.310345 164.26 0.310345 164.26 0.362069C164.26 0.413793 164.26 0.413793 164.26 0.465517C164.26 0.517241 164.26 0.517241 164.26 0.568965V1.08621H164.053V0H164.156Z" fill="#005182"/>
</svg>
