<svg width="50" height="51" viewBox="0 0 50 51" fill="none" xmlns="http://www.w3.org/2000/svg">
<g id="Analytics models&#226;&#128;&#153; deployment" clip-path="url(#clip0_943_4489)">
<path id="Vector" d="M49.9991 4.16667C49.9991 2.78596 48.8798 1.66667 47.4991 1.66667H25.8325V0.833333C25.8325 0.373096 25.4594 0 24.9991 0C24.5389 0 24.1658 0.373096 24.1658 0.833333V1.66667H2.49913C1.28293 1.66436 0.242394 2.53957 0.0363056 3.73819C-0.169783 4.9368 0.518672 6.10929 1.6658 6.51333V35.1533C0.518672 35.5574 -0.169783 36.7299 0.0363056 37.9285C0.242394 39.1271 1.28293 40.0023 2.49913 40H17.8675L8.59996 48.555C8.37645 48.7559 8.27845 49.0617 8.3435 49.3551C8.40854 49.6485 8.62655 49.8842 8.91404 49.9718C9.20152 50.0595 9.51393 49.9856 9.73163 49.7783L20.325 40H24.1658V49.1667C24.1658 49.6269 24.5389 50 24.9991 50C25.4594 50 25.8325 49.6269 25.8325 49.1667V40H29.6733L40.2666 49.7783C40.6055 50.0829 41.1261 50.059 41.4355 49.7245C41.7449 49.3901 41.7283 48.8691 41.3983 48.555L32.1308 40H47.4991C48.7153 40.0023 49.7559 39.1271 49.962 37.9285C50.168 36.7299 49.4796 35.5574 48.3325 35.1533V6.51333C49.3278 6.16146 49.9948 5.22232 49.9991 4.16667ZM2.49913 3.33333H47.4991C47.9594 3.33333 48.3325 3.70643 48.3325 4.16667C48.3325 4.6269 47.9594 5 47.4991 5H2.49913C2.03889 5 1.6658 4.6269 1.6658 4.16667C1.6658 3.70643 2.03889 3.33333 2.49913 3.33333ZM46.6658 35H3.33246V6.66667H46.6658V35ZM47.4991 38.3333H2.49913C2.03889 38.3333 1.6658 37.9602 1.6658 37.5C1.6658 37.0398 2.03889 36.6667 2.49913 36.6667H47.4991C47.9594 36.6667 48.3325 37.0398 48.3325 37.5C48.3325 37.9602 47.9594 38.3333 47.4991 38.3333Z" fill="#1E1D28"/>
<path id="Vector_2" d="M7.50001 19.1672C7.78454 19.1644 8.06646 19.1125 8.33334 19.0138V19.7505C8.33722 20.4317 8.75143 21.0433 9.38251 21.2997L12.0925 22.383C12.5416 22.5601 13.0453 22.5348 13.4745 22.3138C13.9037 22.0927 14.2167 21.6973 14.3333 21.2288L14.93 19.4672L15.9216 19.8005C16.2319 21.0236 17.4068 21.8222 18.6582 21.6609C19.9096 21.4995 20.8434 20.4289 20.8333 19.1672V10.8338C20.8371 9.57642 19.9042 8.51283 18.657 8.35256C17.4099 8.1923 16.2384 8.98549 15.9241 10.203L9.74917 12.2613C9.24995 11.205 8.08438 10.6368 6.94474 10.8942C5.80511 11.1515 4.99684 12.1655 5.00001 13.3338V16.6672C5.00001 18.0479 6.11929 19.1672 7.50001 19.1672ZM10 13.9338L15.8333 11.9897V18.0105L10 16.0672V13.9338ZM12.7441 20.7338C12.7307 20.7668 12.7191 20.8005 12.7091 20.8347L10 19.7505V17.8222L13.3516 18.9397L12.7441 20.7338ZM17.5 10.8338C17.5 10.3736 17.8731 10.0005 18.3333 10.0005C18.7935 10.0005 19.1666 10.3736 19.1666 10.8338V19.1672C19.1666 19.6274 18.7935 20.0005 18.3333 20.0005C17.8731 20.0005 17.5 19.6274 17.5 19.1672V10.8338ZM6.66667 13.3338C6.66667 12.8736 7.03977 12.5005 7.50001 12.5005C7.96024 12.5005 8.33334 12.8736 8.33334 13.3338V16.6672C8.33334 17.1274 7.96024 17.5005 7.50001 17.5005C7.03977 17.5005 6.66667 17.1274 6.66667 16.6672V13.3338Z" fill="url(#paint0_linear_943_4489)"/>
<path id="Vector_3" d="M25.8334 19.168C25.3731 19.168 25 19.5411 25 20.0014V32.5014C25 32.9616 25.3731 33.3347 25.8334 33.3347C26.2936 33.3347 26.6667 32.9616 26.6667 32.5014V20.0014C26.6667 19.5411 26.2936 19.168 25.8334 19.168Z" fill="#1E1D28"/>
<path id="Vector_4" d="M29.1653 17.5C28.7051 17.5 28.332 17.8731 28.332 18.3333V32.5C28.332 32.9602 28.7051 33.3333 29.1653 33.3333C29.6256 33.3333 29.9987 32.9602 29.9987 32.5V18.3333C29.9987 17.8731 29.6256 17.5 29.1653 17.5Z" fill="#1E1D28"/>
<path id="Vector_5" d="M22.4994 33.332C22.9596 33.332 23.3327 32.9589 23.3327 32.4987V21.6653C23.3327 21.2051 22.9596 20.832 22.4994 20.832C22.0391 20.832 21.666 21.2051 21.666 21.6653V32.4987C21.666 32.9589 22.0391 33.332 22.4994 33.332Z" fill="#1E1D28"/>
<path id="Vector_6" d="M19.1653 23.332C18.7051 23.332 18.332 23.7051 18.332 24.1654V32.4987C18.332 32.9589 18.7051 33.332 19.1653 33.332C19.6255 33.332 19.9986 32.9589 19.9986 32.4987V24.1654C19.9986 23.7051 19.6255 23.332 19.1653 23.332Z" fill="#1E1D28"/>
<path id="Vector_7" d="M15.8334 24.168C15.3731 24.168 15 24.5411 15 25.0013V32.5013C15 32.9615 15.3731 33.3346 15.8334 33.3346C16.2936 33.3346 16.6667 32.9615 16.6667 32.5013V25.0013C16.6667 24.5411 16.2936 24.168 15.8334 24.168Z" fill="#1E1D28"/>
<path id="Vector_8" d="M12.4994 25C12.0391 25 11.666 25.3731 11.666 25.8333V32.5C11.666 32.9602 12.0391 33.3333 12.4994 33.3333C12.9596 33.3333 13.3327 32.9602 13.3327 32.5V25.8333C13.3327 25.3731 12.9596 25 12.4994 25Z" fill="#1E1D28"/>
<path id="Vector_9" d="M9.16536 25.832C8.70513 25.832 8.33203 26.2051 8.33203 26.6654V32.4987C8.33203 32.959 8.70513 33.3321 9.16536 33.3321C9.6256 33.3321 9.9987 32.959 9.9987 32.4987V26.6654C9.9987 26.2051 9.6256 25.832 9.16536 25.832Z" fill="#1E1D28"/>
<path id="Vector_10" d="M5.83333 33.332C6.29357 33.332 6.66667 32.9589 6.66667 32.4987V24.1654C6.66667 23.7051 6.29357 23.332 5.83333 23.332C5.37309 23.332 5 23.7051 5 24.1654V32.4987C5 32.9589 5.37309 33.332 5.83333 33.332Z" fill="#1E1D28"/>
<path id="Vector_11" d="M31.666 26.6666C31.666 30.3485 34.6507 33.3333 38.3326 33.3333C42.0145 33.3333 44.9993 30.3485 44.9993 26.6666C44.9993 22.9847 42.0145 20 38.3326 20C34.6525 20.0041 31.6701 22.9865 31.666 26.6666ZM39.166 31.5916V27.5H43.2577C42.8998 29.5937 41.2597 31.2338 39.166 31.5916ZM43.2577 25.8333H38.9101L37.3801 21.76C37.694 21.6988 38.0129 21.6676 38.3326 21.6666C40.7698 21.6712 42.8494 23.4306 43.2577 25.8333ZM35.821 22.35L37.4993 26.8191V31.5916C35.4235 31.2438 33.7889 29.6314 33.4129 27.5605C33.0368 25.4897 34 23.4054 35.821 22.35Z" fill="#1E1D28"/>
<path id="Vector_12" d="M24.9993 10.8346H31.666C32.1262 10.8346 32.4993 10.4615 32.4993 10.0013C32.4993 9.54106 32.1262 9.16797 31.666 9.16797H24.9993C24.5391 9.16797 24.166 9.54106 24.166 10.0013C24.166 10.4615 24.5391 10.8346 24.9993 10.8346Z" fill="#1E1D28"/>
<path id="Vector_13" d="M24.9993 14.1667H35.8327C36.2929 14.1667 36.666 13.7936 36.666 13.3333C36.666 12.8731 36.2929 12.5 35.8327 12.5H24.9993C24.5391 12.5 24.166 12.8731 24.166 13.3333C24.166 13.7936 24.5391 14.1667 24.9993 14.1667Z" fill="#1E1D28"/>
<path id="Vector_14" d="M39.1654 14.1667H42.4987C42.9589 14.1667 43.332 13.7936 43.332 13.3333C43.332 12.8731 42.9589 12.5 42.4987 12.5H39.1654C38.7051 12.5 38.332 12.8731 38.332 13.3333C38.332 13.7936 38.7051 14.1667 39.1654 14.1667Z" fill="#1E1D28"/>
</g>
<defs>
<linearGradient id="paint0_linear_943_4489" x1="12.9167" y1="8.33203" x2="12.9167" y2="22.4998" gradientUnits="userSpaceOnUse">
<stop stop-color="#EA3949"/>
<stop offset="1" stop-color="#EA712B"/>
</linearGradient>
<clipPath id="clip0_943_4489">
<rect width="50" height="51" fill="white"/>
</clipPath>
</defs>
</svg>
