<svg width="67" height="64" viewBox="0 0 67 64" fill="none" xmlns="http://www.w3.org/2000/svg">
<path d="M64.6 32.3C64.6 17.2226 52.3774 5 37.3 5C22.2226 5 10 17.2226 10 32.3" stroke="white" stroke-width="2.6"/>
<path fill-rule="evenodd" clip-rule="evenodd" d="M37.2992 58C51.6586 58 63.2992 46.3594 63.2992 32H65.8992C65.8992 47.7953 53.0946 60.6 37.2992 60.6C21.5039 60.6 8.69922 47.7953 8.69922 32H11.2992C11.2992 46.3594 22.9398 58 37.2992 58Z" fill="url(#paint0_linear_296_25535)"/>
<path fill-rule="evenodd" clip-rule="evenodd" d="M37.3456 48.2225C46.304 48.2225 53.5663 40.9602 53.5663 32.0018C53.5663 23.0433 46.304 15.7811 37.3456 15.7811C28.3872 15.7811 21.1249 23.0433 21.1249 32.0018C21.1249 40.9602 28.3872 48.2225 37.3456 48.2225ZM37.3456 50.8707C47.7666 50.8707 56.2146 42.4228 56.2146 32.0018C56.2146 21.5807 47.7666 13.1328 37.3456 13.1328C26.9246 13.1328 18.4766 21.5807 18.4766 32.0018C18.4766 42.4228 26.9246 50.8707 37.3456 50.8707Z" fill="white"/>
<path fill-rule="evenodd" clip-rule="evenodd" d="M38.7264 4.13672V14.454H36.0781V4.13672H38.7264ZM64.7126 33.4333H55.0574V30.785H64.7126V33.4333ZM55.5556 52.2455L48.7142 45.4041L50.5868 43.5315L57.4282 50.3728L55.5556 52.2455Z" fill="white"/>
<path fill-rule="evenodd" clip-rule="evenodd" d="M39.0017 24.7186H35.6913V37.7393H39.0017V24.7186ZM33.043 22.0703V40.3876H41.6499V22.0703H33.043Z" fill="white"/>
<path fill-rule="evenodd" clip-rule="evenodd" d="M45.0719 31.8905H41.7616V37.7388H45.0719V31.8905ZM39.1133 29.2422V40.387H47.7202V29.2422H39.1133Z" fill="white"/>
<path fill-rule="evenodd" clip-rule="evenodd" d="M32.9313 31.8905H29.621V37.7388H32.9313V31.8905ZM26.9727 29.2422V40.387H35.5796V29.2422H26.9727Z" fill="white"/>
<g filter="url(#filter0_d_296_25535)">
<path d="M9.74888 37.9665C12.8678 37.9665 15.3962 35.4381 15.3962 32.3192C15.3962 29.2003 12.8678 26.6719 9.74888 26.6719C6.62995 26.6719 4.10156 29.2003 4.10156 32.3192C4.10156 35.4381 6.62995 37.9665 9.74888 37.9665Z" fill="white"/>
</g>
<path d="M9.75112 34.5804C10.9987 34.5804 12.01 33.569 12.01 32.3214C12.01 31.0739 10.9987 30.0625 9.75112 30.0625C8.50355 30.0625 7.49219 31.0739 7.49219 32.3214C7.49219 33.569 8.50355 34.5804 9.75112 34.5804Z" fill="#FB4825"/>
<defs>
<filter id="filter0_d_296_25535" x="0.101562" y="24.6719" width="19.2949" height="19.2949" filterUnits="userSpaceOnUse" color-interpolation-filters="sRGB">
<feFlood flood-opacity="0" result="BackgroundImageFix"/>
<feColorMatrix in="SourceAlpha" type="matrix" values="0 0 0 0 0 0 0 0 0 0 0 0 0 0 0 0 0 0 127 0" result="hardAlpha"/>
<feOffset dy="2"/>
<feGaussianBlur stdDeviation="2"/>
<feColorMatrix type="matrix" values="0 0 0 0 0 0 0 0 0 0 0 0 0 0 0 0 0 0 0.45 0"/>
<feBlend mode="normal" in2="BackgroundImageFix" result="effect1_dropShadow_296_25535"/>
<feBlend mode="normal" in="SourceGraphic" in2="effect1_dropShadow_296_25535" result="shape"/>
</filter>
<linearGradient id="paint0_linear_296_25535" x1="45.4998" y1="40.4999" x2="11.4998" y2="39.9999" gradientUnits="userSpaceOnUse">
<stop stop-color="white"/>
<stop offset="1" stop-color="white" stop-opacity="0"/>
</linearGradient>
</defs>
</svg>
