<svg width="140" height="23" viewBox="0 0 140 23" fill="none" xmlns="http://www.w3.org/2000/svg">
<path id="Vector" d="M16.753 3.05C15.801 2.09 14.762 1.35 13.636 0.828C12.4868 0.336945 11.2497 0.0851583 10 0.088C7.23 0.088 4.848 1.176 2.9 3.311C0.996 5.489 0 8.233 0 11.587C0 14.811 0.996 17.555 3.03 19.733C5.065 21.911 7.446 23 10.216 23C11.429 23 12.597 22.782 13.636 22.347C14.676 21.911 15.758 21.17 16.796 20.169V22.477H22.208V0.697H16.797L16.753 3.05ZM15.368 16.205C14.242 17.381 12.858 17.991 11.168 17.991C9.524 17.991 8.182 17.381 7.056 16.161C5.931 14.941 5.368 13.373 5.368 11.5C5.368 9.627 5.931 8.102 7.013 6.883C8.095 5.706 9.481 5.097 11.126 5.097C12.814 5.097 14.242 5.707 15.325 6.839C16.45 8.015 16.797 9.366 16.797 11.239C16.797 13.242 16.45 14.985 15.368 16.205ZM53.074 3.049C52.121 2.091 51.082 1.35 49.957 0.828C48.8075 0.336812 47.57 0.0850224 46.32 0.088C43.55 0.088 41.169 1.176 39.22 3.311C37.273 5.445 36.277 8.233 36.277 11.587C36.277 14.811 37.273 17.555 39.307 19.733C41.342 21.911 43.723 23 46.494 23C47.706 23 48.874 22.782 49.914 22.347C50.952 21.911 52.034 21.17 53.074 20.169V22.477H58.484V0.697H53.117L53.074 3.049ZM51.645 16.205C50.519 17.381 49.135 17.991 47.445 17.991C45.801 17.991 44.459 17.381 43.333 16.161C42.208 14.941 41.645 13.373 41.645 11.5C41.645 9.627 42.208 8.102 43.29 6.883C44.372 5.706 45.758 5.097 47.403 5.097C49.091 5.097 50.519 5.707 51.602 6.839C52.727 8.015 53.074 9.366 53.074 11.239C53.117 13.242 52.771 14.985 51.645 16.205ZM90.909 1.22C89.74 0.48 88.4 0.13 86.883 0.13C85.4647 0.125996 84.0671 0.470418 82.813 1.133C81.558 1.786 80.519 2.788 79.653 4.095C79.004 2.788 78.139 1.83 77.056 1.133C75.9604 0.468196 74.7015 0.120943 73.42 0.13C72.078 0.13 70.866 0.391 69.74 0.914C68.5628 1.45539 67.515 2.24233 66.667 3.222V0.653H61.255V22.433H66.667V12.763C66.667 10.673 66.84 9.148 67.229 8.189C67.576 7.231 68.139 6.447 68.874 5.924C69.61 5.402 70.433 5.097 71.299 5.097C72.121 5.097 72.771 5.314 73.377 5.75C73.939 6.186 74.372 6.839 74.675 7.71C74.978 8.581 75.108 9.975 75.108 11.936V22.434H80.519V12.633C80.519 10.542 80.693 9.061 81.039 8.103C81.385 7.143 81.949 6.447 82.684 5.881C83.42 5.358 84.242 5.097 85.194 5.097C86.407 5.097 87.316 5.532 87.922 6.403C88.528 7.275 88.832 8.93 88.832 11.413V22.433H94.242V9.67C94.242 7.057 93.982 5.184 93.463 4.008C92.943 2.875 92.078 1.917 90.909 1.22ZM113.03 16.03C111.602 17.468 109.87 18.208 107.835 18.208C106.147 18.208 104.762 17.729 103.68 16.814C102.597 15.9 101.948 14.636 101.688 13.068H119.004V12.023C119.004 8.451 117.965 5.533 115.844 3.354C113.723 1.176 110.996 0.087 107.619 0.087C104.416 0.087 101.775 1.177 99.697 3.397C97.576 5.576 96.537 8.364 96.537 11.674C96.537 14.898 97.576 17.598 99.697 19.777C101.818 21.955 104.545 23 107.922 23C110.087 23 111.948 22.608 113.55 21.824C115.108 21.04 116.494 19.82 117.619 18.208L113.03 16.03ZM103.94 6.011C105.065 5.184 106.407 4.748 107.879 4.748C109.264 4.748 110.476 5.14 111.515 5.881C112.555 6.621 113.247 7.623 113.636 8.799H101.948C102.554 7.492 103.204 6.534 103.94 6.011ZM131.818 10.934L139.091 0.654H132.944L128.744 6.578L124.502 0.653H118.268L125.628 10.977L117.489 22.434H123.636L128.701 15.29L133.766 22.434H140L131.818 10.934ZM35.152 0C34.156 0 33.29 0.174 32.554 0.566C31.818 0.915 30.996 1.612 30.087 2.57V0.697H24.935V22.477H30.303V11.152C30.303 7.013 31.429 4.922 34.199 4.922C34.675 4.922 35.152 5.009 35.671 5.227C36.5423 3.72653 37.573 2.32442 38.745 1.045C37.489 0.348 36.277 0 35.152 0Z" fill="#D0021B"/>
</svg>
