<svg width="160" height="25" viewBox="0 0 160 25" fill="none" xmlns="http://www.w3.org/2000/svg">
<g id="aramex" opacity="0.65">
<path id="Shape" fill-rule="evenodd" clip-rule="evenodd" d="M37.258 0.81547C38.0643 0.356211 39.0321 0.203125 40.1611 0.203125C41.4515 0.203125 42.9031 0.509298 44.3546 1.27473C42.9031 2.65251 41.7739 4.03029 40.8063 5.71423C40.3225 5.56115 39.6773 5.40806 39.1935 5.40806C35.9676 5.40806 34.6773 7.70436 34.6773 12.1439V24.3908H28.5484V0.968556H34.3547V2.95869C35.4838 1.88707 36.4515 1.12164 37.258 0.81547ZM19.1934 3.4179C18.0644 2.49938 16.9354 1.73395 15.6451 1.12161C14.1935 0.509261 12.9032 0.356174 11.4516 0.356174C8.22576 0.356174 5.48384 1.58087 3.38708 3.87716C1.12903 6.17346 0 9.08211 0 12.7562C0 16.2772 1.12903 19.1858 3.38708 21.4821C5.64514 23.7784 8.38706 25.0032 11.6128 25.0032C13.0644 25.0032 14.3548 24.697 15.4838 24.2377C16.6128 23.7784 17.9031 23.0129 19.0322 21.9414V24.3908H25.1612V0.96852H19.0322C19.1934 0.96852 19.1934 3.4179 19.1934 3.4179ZM17.5811 17.6548C16.2908 18.8796 14.6779 19.6449 12.7424 19.6449C10.8069 19.6449 9.35532 19.0325 8.06499 17.6548C6.77468 16.277 6.12952 14.5931 6.12952 12.603C6.12952 10.6128 6.77468 8.92888 8.06499 7.55111C9.19402 6.32641 10.8069 5.71407 12.7424 5.71407C14.6779 5.71407 16.2908 6.32641 17.5811 7.55111C18.8714 8.77579 19.1939 10.3067 19.1939 12.2968C19.1939 14.44 18.8714 16.4301 17.5811 17.6548ZM57.0967 1.12161C58.387 1.73395 59.6774 2.49938 60.645 3.4179L60.4839 0.96852H66.6128V24.3908H60.4839V21.9414C59.3547 23.0129 58.0644 23.7784 56.9354 24.2377C55.8064 24.697 54.516 25.0032 53.0644 25.0032C49.8387 25.0032 47.0968 23.7784 44.8388 21.4821C42.5806 19.1858 41.4516 16.2772 41.4516 12.7562C41.4516 9.23519 42.5806 6.17346 44.8388 3.87716C47.0968 1.58087 49.6774 0.356174 52.9032 0.356174C54.3547 0.356174 55.8064 0.662347 57.0967 1.12161ZM59.0327 17.6548C57.7424 18.8796 56.1295 19.6449 54.194 19.6449C52.2586 19.6449 50.8069 19.0327 49.5166 17.6548C48.2262 16.2771 47.5811 14.5931 47.5811 12.603C47.5811 10.6129 48.2262 8.92893 49.5166 7.55114C50.8069 6.32644 52.2586 5.56102 54.194 5.56102C56.1295 5.56102 57.7424 6.17336 59.0327 7.39806C60.323 8.62275 60.6455 10.1536 60.6455 12.1437C60.6455 14.44 60.323 16.4302 59.0327 17.6548ZM99.193 0.356174C100.967 0.356174 102.58 0.815434 103.87 1.58087C105.322 2.3463 106.29 3.26482 106.774 4.4895C107.419 5.7142 107.741 7.85741 107.741 10.613V24.3908H101.612V12.45C101.612 9.84753 101.128 8.01049 100.483 6.93889C99.8381 6.02036 98.8705 5.56112 97.4188 5.56112C96.2898 5.56112 95.322 5.86728 94.5157 6.47962C93.5478 7.09198 92.9027 8.01049 92.5802 8.92901C92.0964 10.0006 91.935 11.5315 91.935 13.8278V24.5439H85.806V13.2154C85.806 11.0722 85.6447 9.54137 85.3221 8.62285C84.9996 7.70432 84.5157 6.93889 83.8706 6.47962C83.0641 6.02036 82.4189 5.7142 81.4512 5.7142C80.4834 5.7142 79.5157 6.02036 78.7093 6.63272C77.7416 7.24506 77.0964 8.01049 76.7738 9.08211C76.2899 10.1537 76.1286 11.6846 76.1286 13.9809V24.3908H69.9996V0.96852H76.1286V3.72408C77.0964 2.65248 78.3868 1.88704 79.6769 1.27469C80.9672 0.662347 82.2576 0.356174 83.8706 0.356174C85.3221 0.356174 86.7737 0.662347 88.064 1.42778C89.3544 2.19322 90.322 3.26482 90.9672 4.6426C91.935 3.26482 93.064 2.19322 94.5157 1.42778C95.9672 0.662347 97.5802 0.356174 99.193 0.356174ZM129.192 17.5019C127.579 19.0327 125.644 19.7982 123.225 19.7982C121.289 19.7982 119.676 19.3389 118.547 18.2673C117.418 17.1957 116.612 15.971 116.289 14.287H136.128V13.2154C136.128 9.38827 134.999 6.17346 132.579 3.87716C130.16 1.58087 127.095 0.356174 123.225 0.356174C119.515 0.356174 116.612 1.58087 114.192 3.87716C111.773 6.17346 110.644 9.23519 110.644 12.7562C110.644 16.2772 111.773 19.1858 114.192 21.4821C116.612 23.7784 119.676 25.0032 123.547 25.0032C125.967 25.0032 128.225 24.5439 129.999 23.7784C131.773 22.86 133.386 21.6352 134.676 19.9513L129.192 17.5019ZM123.387 5.25512C121.612 5.25512 120.161 5.71438 118.87 6.63289C117.903 7.24525 117.258 8.31685 116.612 9.69463H129.999C129.515 8.31685 128.709 7.24525 127.58 6.47981C126.29 5.71438 124.999 5.25512 123.387 5.25512ZM150.645 11.9908L159.032 0.968566H151.936L147.097 7.3982L142.258 0.968566H135.161L143.548 11.9908L134.194 24.3908H141.29L147.097 16.7365L152.903 24.3908H160L150.645 11.9908Z" fill="#1E1D28"/>
</g>
</svg>
