<svg width="176" height="22" viewBox="0 0 176 22" fill="none" xmlns="http://www.w3.org/2000/svg">
<g id="bny_Eagle_white" opacity="0.65">
<path id="Wordmark" fill-rule="evenodd" clip-rule="evenodd" d="M69.6646 14.1566H72.6779L72.6511 13.0349H73.4044V14.8608H67.2163V14.2087H68.1849V7.03545H67.2163V6.40941H72.5166V6.07031H73.2699V8.23534H72.5166V7.16586H69.6378V10.2178H71.9247V9.27871H72.7049V11.9132H71.9515V10.9481H69.6646V14.1566ZM89.8686 10.7132C89.8686 8.28731 91.8057 6.33097 94.2004 6.33097C96.5948 6.33097 98.5051 8.28731 98.5051 10.7132C98.5051 13.1391 96.5948 15.0954 94.2004 15.0954C91.8057 15.0954 89.8686 13.1391 89.8686 10.7132ZM47.1167 7.08757H48.2197L46.3364 10.0873L44.3454 7.08757H45.3409V6.46153H41.8432V7.08757H42.6235L45.2602 11.0263V14.2608H44.2916V14.9129H47.6816V14.2608H46.7131V10.9742L49.1613 7.11365H49.861V6.48762H47.1167V7.08757ZM30.9207 8.60068C30.9207 9.61798 30.1673 10.2179 29.3333 10.4527C30.3826 10.6614 31.3511 11.3396 31.3243 12.722C31.3243 14.0262 30.248 14.9392 28.6068 14.9392H24.3828V14.2871H25.3514V7.11386H24.3828V6.48783H28.3916C29.9252 6.48783 30.9207 7.29645 30.9207 8.60068ZM39.3956 7.08777H38.427V6.51391H41.1983V7.13995H40.2297V15.0697H39.5571L34.741 8.62676V14.2871H35.7097V14.9131H32.9115V14.2871H33.8802V7.5573L33.5841 7.11386H32.6425V6.48783H34.8756L39.3956 12.4351V7.08777ZM26.8567 14.1567H27.9598C28.8476 14.1567 29.8701 13.7392 29.8701 12.5916C29.8701 11.522 29.1167 10.87 27.9598 10.87H26.8567V14.1567ZM26.8567 7.21781H27.9329C28.4979 7.21781 29.4395 7.40041 29.4395 8.65246C29.4934 9.43499 28.8746 10.1132 28.0406 10.1654H27.8791H26.8836L26.8567 7.21781ZM85.3763 14.1565H88.2551L88.2283 13.087H88.9816V14.9129H82.9549V14.2608H83.9235V7.08757H82.9549V6.46153H86.345V7.08757H85.3763V14.1565ZM80.829 14.1565H77.9771V7.08757H78.9457V6.46153H75.5557V7.08757H76.5242V14.2608H75.5557V14.9129H81.5824V13.087H80.829V14.1565ZM57.2886 6.48783L60.2213 12.5394L63.1269 6.51391H65.4139V7.13995H64.4453V14.3132H65.4139V14.9653H62.0238V14.3132H62.9924V8.62676L59.8984 15.174L56.6698 8.44417V14.2871H57.6383V14.9392H54.8672V14.2871H55.8357V7.11386H54.8672V6.48783H57.2886ZM94.2017 14.2349C92.5874 14.2349 91.4574 12.7742 91.4574 10.6613C91.4574 8.54846 92.5874 7.11381 94.2017 7.11381C95.7623 7.11381 96.8922 8.57454 96.8922 10.6613C96.8922 12.7481 95.816 14.2349 94.2017 14.2349ZM105.42 6.46153V7.08757H106.389V12.4349L101.895 6.48762H99.6355V7.11365H100.577L100.9 7.55708V14.2869H99.9314V14.939H102.703V14.2869H101.734V8.62655L106.55 15.0695H107.223V7.13973H108.191V6.5137L105.42 6.46153Z" fill="#1E1D28"/>
<g id="Icon">
<path id="Path" fill-rule="evenodd" clip-rule="evenodd" d="M17.2835 10.7909L8.97996 7.54688C7.36239 8.43899 5.87961 9.52034 4.55859 10.7909C5.87961 12.0615 7.36239 13.1428 8.97996 14.0349L17.2835 10.7909Z" fill="#1E1D28"/>
<path id="Path_2" fill-rule="evenodd" clip-rule="evenodd" d="M0 4.03125C0 4.03125 0.862706 6.89682 3.77433 10.0057C5.2032 8.92434 6.76685 8.03224 8.41138 7.3564L0 4.03125Z" fill="#1E1D28"/>
<path id="Path_3" fill-rule="evenodd" clip-rule="evenodd" d="M0 17.576C0 17.576 0.862706 14.7104 3.77433 11.6016C5.2032 12.6829 6.76685 13.575 8.41138 14.2508L0 17.576Z" fill="#1E1D28"/>
</g>
<path id="Shape" fill-rule="evenodd" clip-rule="evenodd" d="M135.258 9.31165H132.55L131.874 11.0532C131.866 11.0672 131.86 11.0796 131.853 11.0909C131.834 11.122 131.82 11.1464 131.82 11.1851V11.2907C131.82 11.3961 131.874 11.4753 131.955 11.5281C132.117 11.6072 132.307 11.66 132.497 11.6864C132.604 11.7128 132.686 11.792 132.686 11.9239C132.686 12.0031 132.686 12.0558 132.659 12.135C132.537 12.1218 132.415 12.1152 132.293 12.1086C132.172 12.102 132.05 12.0954 131.928 12.0822C131.685 12.0558 131.414 12.0558 131.17 12.0558H130.629C130.44 12.0558 130.223 12.0822 130.006 12.1086C129.979 12.0822 129.979 12.0294 129.979 12.0031V11.8975C129.979 11.7392 130.033 11.66 130.141 11.66C130.331 11.6336 130.52 11.5809 130.71 11.5017C130.845 11.4225 130.927 11.317 130.981 11.2114L134.067 4.00797C134.121 3.87603 134.229 3.79688 134.364 3.79688H134.5C134.555 3.79688 134.581 3.79687 134.635 3.82326L137.749 11.2378C137.803 11.3699 137.911 11.4489 138.046 11.5017C138.074 11.5107 138.101 11.5196 138.126 11.5284C138.255 11.5716 138.376 11.6117 138.533 11.6336C138.669 11.66 138.75 11.7656 138.724 11.8975C138.724 11.9767 138.724 12.0558 138.696 12.1086C138.561 12.0954 138.426 12.0888 138.29 12.0822C138.155 12.0756 138.02 12.069 137.884 12.0558C137.614 12.0294 137.37 12.0294 137.126 12.0294H136.693C136.53 12.0294 136.341 12.0294 136.178 12.0558L135.637 12.0822C135.474 12.0822 135.313 12.0822 135.204 12.1086C135.177 12.0822 135.177 12.0294 135.177 12.0031V11.8975C135.177 11.8447 135.177 11.792 135.231 11.7392C135.258 11.7128 135.285 11.6864 135.339 11.66C135.502 11.6336 135.665 11.5809 135.826 11.5281C135.935 11.4753 135.989 11.3961 135.989 11.2907C135.989 11.2643 135.982 11.2313 135.976 11.1982C135.968 11.1652 135.962 11.1324 135.962 11.106L135.258 9.31165ZM125.321 4.56178V7.56983H127.135C127.27 7.56983 127.406 7.49068 127.46 7.38513C127.541 7.17404 127.595 6.96295 127.622 6.75186C127.622 6.69908 127.649 6.64631 127.703 6.61992C127.758 6.59353 127.812 6.59353 127.865 6.59353H128.001C128.055 6.59353 128.082 6.59353 128.136 6.61992C128.122 6.71738 128.115 6.82954 128.108 6.94864C128.102 7.05524 128.095 7.16742 128.082 7.27958C128.055 7.51705 128.055 7.75453 128.055 7.91285V8.44059C128.055 8.61547 128.073 8.79034 128.095 8.99522L128.11 9.12664C128.082 9.15303 128.028 9.15303 127.973 9.15303H127.838C127.676 9.15303 127.595 9.10025 127.595 8.96832C127.567 8.75722 127.514 8.51975 127.432 8.33504C127.378 8.2295 127.243 8.15034 127.108 8.17673H125.321V11.0001C125.321 11.1848 125.429 11.2903 125.646 11.3431C126.024 11.4222 126.404 11.4486 126.783 11.4222H127.324C127.541 11.4222 127.758 11.3959 127.973 11.3167C128.136 11.2375 128.299 11.1584 128.434 11.0264C128.57 10.8945 128.705 10.7626 128.786 10.6043C128.894 10.446 129.003 10.2613 129.084 10.0502C129.111 9.99739 129.192 9.94462 129.274 9.971C129.3 9.971 129.327 9.97761 129.355 9.98421C129.381 9.99079 129.409 9.99739 129.435 9.99739L129.626 10.0766C129.613 10.1113 129.607 10.1409 129.6 10.1677C129.593 10.202 129.586 10.2316 129.572 10.2613C129.557 10.2876 129.551 10.3206 129.544 10.3536C129.538 10.3866 129.531 10.4196 129.517 10.446C129.463 10.5515 129.435 10.6307 129.409 10.7362C129.396 10.7758 129.381 10.822 129.368 10.8681C129.355 10.9143 129.341 10.9605 129.327 11.0001C129.313 11.0422 129.307 11.0917 129.299 11.1446C129.292 11.1913 129.286 11.2409 129.274 11.2903C129.26 11.3398 129.254 11.3892 129.247 11.436C129.241 11.489 129.234 11.5386 129.22 11.5806C129.192 11.6597 129.165 11.7653 129.165 11.8444C129.165 11.8972 129.138 11.95 129.111 12.0028C129.084 12.0819 129.003 12.1083 128.894 12.1083H128.597L128.19 12.0819C128.055 12.0819 127.893 12.0819 127.73 12.0555C127.618 12.0373 127.519 12.0443 127.432 12.0503C127.394 12.0531 127.357 12.0555 127.324 12.0555H124.4C124.156 12.0555 123.859 12.0555 123.561 12.0819C123.416 12.0949 123.27 12.1015 123.128 12.1078C122.978 12.1147 122.833 12.1212 122.694 12.1347C122.668 12.0819 122.668 12.0555 122.668 12.0028V11.8708C122.668 11.7389 122.722 11.6861 122.803 11.6597C123.046 11.6333 123.291 11.5542 123.507 11.475C123.643 11.4222 123.75 11.2639 123.723 11.1056V4.87841C123.723 4.79926 123.723 4.74648 123.696 4.66732C123.669 4.61455 123.615 4.56178 123.561 4.53539C123.495 4.49278 123.413 4.46737 123.34 4.44527C123.322 4.44 123.306 4.43492 123.291 4.42984C123.258 4.42185 123.22 4.41387 123.178 4.40515C123.084 4.38506 122.97 4.36109 122.857 4.3243C122.776 4.29792 122.722 4.21875 122.722 4.08683V3.98128C122.722 3.9285 122.722 3.90211 122.748 3.87573C122.925 3.88803 123.085 3.89459 123.234 3.90077C123.405 3.90784 123.564 3.91441 123.723 3.9285C123.925 3.94643 124.09 3.94 124.243 3.93402C124.316 3.93121 124.385 3.9285 124.454 3.9285H127.08C127.46 3.9285 127.784 3.9285 128.082 3.90211C128.38 3.87573 128.542 3.87573 128.623 3.87573C128.705 3.87573 128.786 3.90211 128.84 3.98128L128.852 4.0375C128.874 4.14457 128.894 4.23801 128.894 4.35068L128.975 4.9048C128.989 4.97077 129.003 5.04333 129.016 5.11589C129.029 5.18846 129.044 5.26102 129.057 5.32698C129.084 5.45892 129.138 5.61723 129.22 5.82832L129.084 5.8811C129.029 5.90749 128.975 5.90749 128.922 5.90749C128.84 5.90749 128.759 5.85471 128.705 5.80195C128.623 5.61723 128.516 5.43253 128.407 5.24783C128.325 5.11589 128.217 4.98396 128.082 4.87841C127.947 4.77287 127.812 4.7201 127.649 4.66732C127.46 4.61455 127.243 4.58816 127.054 4.61455L125.321 4.56178ZM133.929 5.88136L135.012 8.67832H132.819L133.929 5.88136ZM146.248 12.0035L145.68 12.0825C145.616 12.0913 145.557 12.1001 145.496 12.1089C145.375 12.1265 145.256 12.1441 145.111 12.1617C145.003 12.1749 144.901 12.1815 144.8 12.1881C144.698 12.1947 144.597 12.2013 144.489 12.2145C144.347 12.2317 144.183 12.2265 144.004 12.2208C143.907 12.2177 143.807 12.2145 143.703 12.2145C143.027 12.2409 142.349 12.1353 141.7 11.9243C141.185 11.7396 140.698 11.4493 140.32 11.0799C139.94 10.7105 139.67 10.2619 139.507 9.76057C139.318 9.20646 139.236 8.62596 139.236 8.04545C139.236 7.54411 139.345 7.04276 139.507 6.56781C139.859 5.53874 140.617 4.69437 141.619 4.21941C142.214 3.95555 142.837 3.82362 143.487 3.85001C144.001 3.85001 144.515 3.87639 145.003 3.95555C145.49 4.00832 145.977 4.11386 146.464 4.2458C146.471 4.29621 146.477 4.349 146.482 4.40417C146.505 4.60879 146.53 4.84653 146.573 5.11655C146.627 5.45958 146.681 5.80261 146.79 6.14563L146.627 6.17201C146.6 6.17201 146.58 6.17861 146.559 6.18521C146.539 6.1918 146.519 6.1984 146.492 6.1984C146.438 6.1984 146.384 6.1984 146.329 6.17201C146.275 6.14563 146.248 6.09285 146.248 6.04009C146.14 5.53874 145.815 5.11655 145.355 4.85269C144.867 4.61521 144.354 4.50967 143.839 4.53606C143.405 4.53606 142.999 4.61521 142.621 4.77353C142.269 4.93185 141.971 5.14294 141.727 5.43319C141.484 5.74983 141.294 6.09285 141.185 6.46227C141.05 6.91084 140.996 7.3594 140.996 7.83436C140.996 8.36209 141.05 8.86343 141.213 9.36478C141.321 9.81335 141.537 10.2091 141.808 10.5786C142.079 10.9216 142.404 11.1855 142.783 11.3702C143.216 11.5549 143.676 11.6604 144.137 11.6604C144.299 11.6604 144.461 11.6604 144.624 11.634C144.786 11.6077 144.922 11.5813 145.058 11.5549V9.65503C145.084 9.47033 145.003 9.312 144.867 9.18008C144.651 9.07453 144.435 8.99537 144.191 8.99537C144.137 8.99537 144.083 8.9426 144.055 8.88982C144.028 8.83705 144.028 8.78427 144.028 8.73151V8.62596C144.028 8.59957 144.028 8.54679 144.055 8.52041C144.12 8.52041 144.184 8.52642 144.252 8.5327C144.326 8.53959 144.404 8.54679 144.489 8.54679L144.976 8.57318H145.463H145.869H146.275H146.735L147.196 8.54679C147.267 8.54679 147.339 8.53944 147.406 8.5325C147.467 8.52629 147.524 8.52041 147.574 8.52041C147.602 8.57318 147.602 8.59957 147.602 8.65234V8.75788C147.602 8.81066 147.602 8.88982 147.548 8.91621C147.52 8.9426 147.494 8.96898 147.439 8.99537C147.25 8.99537 147.033 9.07453 146.871 9.15369C146.763 9.23284 146.709 9.39117 146.709 9.52309V11.6868C146.709 11.766 146.681 11.8188 146.655 11.8715C146.492 11.9507 146.357 12.0035 146.248 12.0035ZM151.311 11.3427C151.068 11.2899 150.959 11.1843 150.959 10.9996L150.933 4.93074C150.933 4.77242 150.987 4.64048 151.122 4.56132C151.339 4.45578 151.609 4.40301 151.852 4.37662C151.934 4.35023 151.988 4.27108 151.988 4.16553V4.05999C151.961 4.00721 151.961 3.95444 151.961 3.92805L151.5 3.95444C151.339 3.98082 151.176 3.98082 151.013 3.98082H150.526H150.12C150.004 3.98082 149.882 3.97487 149.755 3.96862C149.613 3.96171 149.464 3.95444 149.308 3.95444L148.441 3.90166C148.415 3.92805 148.415 3.98082 148.415 4.0336V4.13914C148.415 4.24469 148.469 4.32384 148.55 4.35023C148.617 4.36342 148.692 4.37662 148.767 4.38981C148.84 4.40301 148.915 4.4162 148.983 4.42939C149.064 4.45578 149.145 4.48217 149.227 4.53494C149.28 4.56132 149.308 4.6141 149.334 4.66687C149.362 4.74603 149.362 4.79881 149.362 4.87796V11.1052C149.362 11.2371 149.28 11.3954 149.145 11.4482C148.928 11.5274 148.685 11.6065 148.441 11.6329C148.36 11.6593 148.306 11.7121 148.306 11.844V11.976C148.306 12.0288 148.306 12.055 148.333 12.1078C148.475 12.094 148.617 12.0874 148.767 12.0805H148.768C148.903 12.0742 149.045 12.0676 149.199 12.055C149.525 12.0288 149.822 12.0288 150.066 12.0288H152.99C153.035 12.0288 153.08 12.0258 153.125 12.0228C153.215 12.017 153.305 12.0112 153.396 12.0288C153.531 12.055 153.694 12.055 153.829 12.055L154.235 12.0814H154.533C154.559 12.0814 154.614 12.0814 154.668 12.055C154.722 12.0288 154.75 11.976 154.75 11.8704C154.773 11.5936 154.818 11.3371 154.864 11.0654L154.885 10.9469C154.918 10.7522 154.962 10.5675 155.003 10.3928C155.029 10.2833 155.053 10.1777 155.074 10.0761L154.885 9.99694C154.857 9.99694 154.831 9.99034 154.804 9.98375C154.776 9.97715 154.75 9.97055 154.722 9.97055C154.614 9.97055 154.559 9.99694 154.533 10.0761C154.472 10.2336 154.397 10.3764 154.317 10.5264C154.29 10.5773 154.262 10.6295 154.235 10.683C154.153 10.8413 154.046 10.9732 153.91 11.1052C153.801 11.2107 153.666 11.2899 153.504 11.3427C153.314 11.3954 153.125 11.4218 152.936 11.4218H152.448C152.069 11.4482 151.691 11.4218 151.311 11.3427ZM158.269 4.5626V7.57066H160.083C160.218 7.57066 160.353 7.4915 160.408 7.38596C160.488 7.17486 160.543 6.96377 160.57 6.75268C160.57 6.69991 160.597 6.64714 160.651 6.62075C160.705 6.59436 160.759 6.59436 160.814 6.59436H160.949C161.003 6.59436 161.031 6.59436 161.085 6.62075C161.07 6.7182 161.064 6.83033 161.056 6.9494C161.049 7.056 161.043 7.16825 161.031 7.28041C161.003 7.51789 161.003 7.75537 161.003 7.91368V8.44141C161.003 8.61629 161.022 8.79117 161.044 8.99605L161.057 9.12746C161.031 9.15385 160.976 9.15385 160.922 9.15385H160.787C160.624 9.15385 160.543 9.10108 160.543 8.96915C160.516 8.75805 160.462 8.52058 160.381 8.33587C160.327 8.23032 160.191 8.15116 160.056 8.17755H158.242V11.0009C158.242 11.1856 158.35 11.2912 158.567 11.3439C158.946 11.4231 159.325 11.4495 159.704 11.4231H160.245C160.462 11.4231 160.679 11.3967 160.895 11.3175C161.057 11.2384 161.22 11.1592 161.355 11.0273C161.491 10.8953 161.626 10.7634 161.707 10.6051C161.815 10.4468 161.924 10.2621 162.005 10.051C162.032 9.99822 162.113 9.94544 162.195 9.97183C162.221 9.97183 162.248 9.97843 162.276 9.98503C162.302 9.99162 162.33 9.99822 162.357 9.99822L162.547 10.0774C162.534 10.1121 162.528 10.1417 162.522 10.1684C162.514 10.2027 162.507 10.2324 162.493 10.2621C162.465 10.3149 162.438 10.394 162.438 10.4468C162.384 10.5523 162.357 10.6315 162.33 10.737C162.317 10.7766 162.302 10.8228 162.289 10.869C162.276 10.9151 162.262 10.9614 162.248 11.0009C162.234 11.0429 162.228 11.0924 162.22 11.1454C162.214 11.1922 162.207 11.2417 162.195 11.2912C162.167 11.3967 162.141 11.5023 162.141 11.5814C162.141 11.621 162.126 11.6672 162.113 11.7134C162.1 11.7595 162.086 11.8057 162.086 11.8453C162.086 11.9245 162.059 11.9772 162.032 12.0036C161.978 12.0828 161.896 12.1092 161.815 12.1092H161.518L161.111 12.0828C160.976 12.0828 160.814 12.0828 160.651 12.0564C160.539 12.0381 160.44 12.045 160.353 12.0511C160.315 12.0538 160.278 12.0564 160.245 12.0564H157.321C157.077 12.0564 156.78 12.0564 156.455 12.0828C156.301 12.0953 156.159 12.1019 156.022 12.1082C155.873 12.1151 155.731 12.1217 155.589 12.1356C155.561 12.0828 155.561 12.0564 155.561 12.0036V11.8717C155.561 11.7397 155.615 11.687 155.697 11.6606C155.941 11.6342 156.184 11.555 156.401 11.4759C156.536 11.4231 156.617 11.2648 156.617 11.1328V4.87924C156.617 4.80008 156.617 4.74731 156.59 4.66815C156.564 4.61538 156.51 4.5626 156.455 4.53622C156.39 4.49361 156.306 4.4682 156.234 4.44611C156.217 4.44083 156.199 4.43575 156.184 4.43068C156.151 4.42268 156.114 4.41469 156.073 4.40597C155.977 4.38588 155.864 4.36192 155.751 4.32513C155.67 4.29874 155.615 4.21957 155.615 4.08765V3.9821C155.615 3.92933 155.615 3.90294 155.643 3.87656C155.817 3.88866 155.979 3.8952 156.13 3.9013C156.308 3.90849 156.471 3.91505 156.617 3.92933C156.801 3.94726 156.973 3.94082 157.132 3.93485C157.207 3.93204 157.279 3.92933 157.348 3.92933H159.975C160.353 3.92933 160.679 3.92933 160.976 3.90294C161.274 3.87656 161.437 3.87656 161.544 3.87656C161.626 3.87656 161.707 3.90294 161.761 3.9821L161.773 4.03833C161.795 4.14539 161.815 4.23882 161.815 4.35151C161.829 4.44381 161.843 4.5427 161.856 4.64159C161.87 4.74059 161.883 4.8396 161.896 4.93202C161.91 4.99775 161.924 5.07004 161.937 5.14237C161.95 5.21494 161.965 5.28823 161.978 5.3542C161.998 5.4122 162.014 5.47021 162.031 5.52951C162.059 5.63204 162.089 5.73854 162.141 5.85554L162.005 5.90832C161.95 5.93471 161.896 5.93471 161.843 5.93471C161.761 5.93471 161.68 5.88193 161.626 5.82916C161.544 5.64445 161.437 5.43336 161.301 5.27504C161.22 5.14311 161.111 5.01117 160.976 4.90563C160.84 4.80008 160.705 4.74731 160.543 4.69454C160.353 4.64177 160.136 4.61538 159.947 4.64177L158.269 4.5626ZM122.749 14.8V18.0719V18.0983H123.426V14.8H122.749ZM124.05 18.0719V14.8H124.726L126.107 16.99V14.8H126.757V18.0983H126.079L124.726 15.9345V18.0983H124.05V18.0719ZM127.054 14.7737L128.271 18.072H129.003L130.221 14.7737H129.49L128.651 17.2012L127.784 14.7737H127.054ZM130.546 18.0719V14.8H133.064V15.3541H131.25V16.0929H132.955V16.647H131.25V17.5442H133.144V18.0983H130.546V18.0719ZM134.174 16.9639L133.496 17.0167C133.524 17.3334 133.659 17.6236 133.957 17.9139C134.228 18.125 134.58 18.2305 134.932 18.2041C135.175 18.2305 135.419 18.1778 135.662 18.0986C135.853 18.0194 136.014 17.8875 136.123 17.7292C136.231 17.5708 136.285 17.3861 136.285 17.2014C136.285 17.0167 136.259 16.832 136.15 16.6738C136.042 16.5154 135.933 16.4099 135.771 16.3307C135.555 16.2252 135.284 16.146 135.04 16.0932C134.823 16.0669 134.606 15.9877 134.417 15.8821C134.336 15.8294 134.309 15.7502 134.309 15.671C134.309 15.5919 134.336 15.5127 134.417 15.4599C134.552 15.3544 134.715 15.328 134.878 15.328C135.04 15.3016 135.175 15.3544 135.31 15.4336C135.419 15.5391 135.501 15.671 135.501 15.803L136.177 15.7766C136.177 15.4863 136.042 15.2225 135.825 15.0377C135.555 14.853 135.229 14.7475 134.878 14.7739C134.634 14.7475 134.417 14.8003 134.2 14.8794C134.011 14.9586 133.876 15.0641 133.767 15.2225C133.524 15.5919 133.578 16.0669 133.93 16.3571C134.147 16.5154 134.417 16.621 134.688 16.6738C134.958 16.7264 135.149 16.7792 135.229 16.8056L135.256 16.8143C135.333 16.8384 135.425 16.867 135.473 16.9375C135.527 17.0167 135.555 17.0695 135.555 17.1486C135.555 17.2806 135.501 17.3861 135.392 17.4653C135.256 17.5708 135.094 17.5972 134.904 17.5972C134.742 17.5972 134.552 17.5445 134.417 17.4389C134.282 17.307 134.2 17.1486 134.174 16.9639ZM137.558 18.0719V15.3541H136.557V14.8H139.236V15.3541H138.235V18.0983H137.558V18.0719ZM139.616 14.8V18.0719V18.0983H140.238V15.5124L140.915 18.0983H141.565L142.241 15.5124V18.0983H142.864V14.8H141.836L141.24 17.0428L140.644 14.8H139.616ZM143.542 18.0719V14.8H146.06V15.3541H144.218V16.0929H145.924V16.647H144.218V17.5442H146.114V18.0983H143.542V18.0719ZM146.654 14.8V18.0719V18.0983H147.276V15.9345L148.63 18.0983H149.334V14.8H148.712V16.99L147.331 14.8H146.654ZM150.796 18.0719V15.3541H149.795V14.8H152.475V15.3541H151.474V18.0983H150.796V18.0719ZM154.668 16.9639L153.991 17.0167C154.018 17.3334 154.153 17.6236 154.424 17.9139C154.695 18.125 155.047 18.2305 155.399 18.2041C155.643 18.2305 155.886 18.1778 156.13 18.0986C156.319 18.0194 156.481 17.8875 156.59 17.7292C156.698 17.5708 156.753 17.3861 156.753 17.2014C156.753 17.0167 156.725 16.832 156.617 16.6738C156.509 16.5154 156.401 16.4099 156.238 16.3307C156.021 16.2252 155.751 16.146 155.506 16.0932C155.291 16.0669 155.074 15.9877 154.884 15.8821C154.804 15.8294 154.776 15.7502 154.776 15.671C154.776 15.5919 154.83 15.5127 154.884 15.4599C155.019 15.3544 155.182 15.328 155.345 15.328C155.506 15.3016 155.643 15.3544 155.778 15.4336C155.886 15.5391 155.94 15.671 155.967 15.803L156.644 15.7766C156.644 15.4863 156.536 15.2225 156.319 15.0377C156.049 14.853 155.723 14.7475 155.371 14.7739C155.128 14.7475 154.911 14.8003 154.695 14.8794C154.505 14.9586 154.37 15.0641 154.261 15.2225C154.018 15.5919 154.072 16.0669 154.424 16.3571C154.641 16.5154 154.911 16.621 155.182 16.6738C155.453 16.7264 155.643 16.7792 155.723 16.8056C155.805 16.832 155.886 16.8584 155.967 16.9375C156.021 17.0167 156.049 17.0695 156.049 17.1486C156.049 17.2806 155.994 17.3861 155.886 17.4653C155.751 17.5708 155.588 17.5972 155.399 17.5972C155.236 17.5972 155.047 17.5445 154.911 17.4389C154.776 17.307 154.695 17.1486 154.668 16.9639ZM158.187 18.0456V16.6735L156.942 14.7737H157.754L158.539 16.0667L159.325 14.7737H160.109L158.864 16.6735V18.0456H158.187ZM160.923 16.9639L160.246 17.0167C160.273 17.3334 160.408 17.6236 160.68 17.9139C160.95 18.125 161.302 18.2305 161.654 18.2041C161.898 18.2305 162.142 18.1778 162.385 18.0986C162.574 18.0194 162.737 17.8875 162.845 17.7292C162.954 17.5708 163.007 17.3861 163.007 17.2014C163.007 17.0167 162.98 16.832 162.872 16.6738C162.764 16.5154 162.655 16.4099 162.493 16.3307C162.277 16.2252 162.005 16.146 161.762 16.0932C161.546 16.0669 161.329 15.9877 161.14 15.8821C161.058 15.8294 161.031 15.7502 161.031 15.671C161.031 15.5919 161.058 15.5127 161.14 15.4599C161.275 15.3544 161.438 15.328 161.599 15.328C161.762 15.3016 161.898 15.3544 162.033 15.4336C162.142 15.5391 162.196 15.671 162.222 15.803L162.9 15.7766C162.9 15.4863 162.791 15.2225 162.574 15.0377C162.303 14.853 161.979 14.7475 161.627 14.7739C161.383 14.7475 161.167 14.8003 160.95 14.8794C160.76 14.9586 160.625 15.0641 160.517 15.2225C160.273 15.5919 160.328 16.0669 160.68 16.3571C160.895 16.5154 161.167 16.621 161.438 16.6738C161.708 16.7264 161.898 16.7792 161.979 16.8056C162.06 16.832 162.142 16.8584 162.222 16.9375C162.277 17.0167 162.303 17.0695 162.303 17.1486C162.303 17.2806 162.25 17.3861 162.142 17.4653C162.005 17.5708 161.844 17.5972 161.654 17.5972C161.492 17.5972 161.302 17.5445 161.167 17.4389C161.031 17.307 160.95 17.1486 160.923 16.9639ZM164.307 18.0719V15.3541H163.304V14.8H165.985V15.3541H164.983V18.0983H164.307V18.0719ZM166.392 14.8V18.0719V18.0983H168.99V17.5442H167.096V16.647H168.801V16.0929H167.096V15.3541H168.91V14.8H166.392ZM169.505 18.0719V14.8H170.534L171.129 17.0428L171.725 14.8H172.753V18.0983H172.131V15.5124L171.454 18.0983H170.804L170.128 15.5124V18.0983H169.505V18.0719ZM173.916 16.9639L173.239 17.0167C173.266 17.3334 173.401 17.6236 173.672 17.9139C173.943 18.125 174.295 18.2305 174.647 18.2041C174.891 18.2305 175.134 18.1778 175.378 18.0986C175.756 17.9403 176.001 17.5972 176.001 17.2014C176.001 17.0167 175.946 16.832 175.865 16.6738C175.757 16.5154 175.649 16.4099 175.486 16.3307C175.269 16.2252 174.999 16.146 174.755 16.0932C174.539 16.0669 174.322 15.9877 174.132 15.8821C174.051 15.8294 174.024 15.7502 174.024 15.671C174.024 15.5919 174.051 15.5127 174.132 15.4599C174.268 15.3544 174.43 15.328 174.593 15.328C174.755 15.3016 174.891 15.3544 175.026 15.4336C175.134 15.5391 175.215 15.671 175.215 15.803L175.892 15.7766C175.892 15.4863 175.784 15.2225 175.567 15.0377C175.297 14.853 174.971 14.7475 174.619 14.7739C174.376 14.7475 174.159 14.8003 173.943 14.8794C173.753 14.9586 173.618 15.0641 173.509 15.2225C173.266 15.5919 173.32 16.0669 173.672 16.3571C173.889 16.5154 174.159 16.621 174.43 16.6738C174.7 16.7264 174.891 16.7792 174.971 16.8056C174.98 16.8085 174.99 16.8114 174.999 16.8143C175.076 16.8384 175.167 16.867 175.215 16.9375C175.269 17.0167 175.297 17.0695 175.297 17.1486C175.297 17.2806 175.243 17.3861 175.134 17.4653C174.999 17.5708 174.836 17.5972 174.647 17.5972C174.484 17.5972 174.295 17.5445 174.159 17.4389C174.024 17.307 173.943 17.1486 173.916 16.9639Z" fill="#1E1D28"/>
<path id="Rectangle" d="M115.809 0H114.285V22.0001H115.809V0Z" fill="#1E1D28"/>
</g>
</svg>
