<svg width="33" height="33" viewBox="0 0 33 33" fill="none" xmlns="http://www.w3.org/2000/svg">
<g id="SVG" clip-path="url(#clip0_221_41511)">
<path id="Vector" d="M16.9204 32.3799C25.757 32.3799 32.9204 25.2164 32.9204 16.3799C32.9204 7.54333 25.757 0.379883 16.9204 0.379883C8.08385 0.379883 0.92041 7.54333 0.92041 16.3799C0.92041 25.2164 8.08385 32.3799 16.9204 32.3799Z" fill="#0045E6"/>
<path id="Vector_2" fill-rule="evenodd" clip-rule="evenodd" d="M19.3212 9.17988C19.3212 8.73804 19.6793 8.37988 20.1212 8.37988H24.9212V13.1799C24.9212 13.6217 24.563 13.9799 24.1212 13.9799C23.6793 13.9799 23.3212 13.6217 23.3212 13.1799V11.1112L19.0869 15.3456C18.7745 15.658 18.2679 15.658 17.9555 15.3456C17.6431 15.0332 17.6431 14.5266 17.9555 14.2142L22.1898 9.97988H20.1212C19.6793 9.97988 19.3212 9.62172 19.3212 9.17988Z" fill="white"/>
<path id="Vector_3" fill-rule="evenodd" clip-rule="evenodd" d="M12.1196 9.97988C10.7941 9.97988 9.71963 11.0544 9.71963 12.3799V21.1799C9.71963 22.5054 10.7941 23.5799 12.1196 23.5799H20.9196C22.2452 23.5799 23.3196 22.5054 23.3196 21.1799V16.7799H24.9196V21.1799C24.9196 23.389 23.1287 25.1799 20.9196 25.1799H12.1196C9.91051 25.1799 8.11963 23.389 8.11963 21.1799V12.3799C8.11963 10.1708 9.91051 8.37988 12.1196 8.37988H16.5196V9.97988H12.1196Z" fill="white"/>
</g>
<defs>
<clipPath id="clip0_221_41511">
<rect width="32" height="32" fill="white" transform="translate(0.92041 0.379883)"/>
</clipPath>
</defs>
</svg>
