<svg width="20" height="20" viewBox="0 0 20 20" fill="none" xmlns="http://www.w3.org/2000/svg">
<g id="SVG" clip-path="url(#clip0_871_3928)">
<path id="Vector" fill-rule="evenodd" clip-rule="evenodd" d="M10 20C15.5228 20 20 15.5228 20 10C20 4.47715 15.5228 0 10 0C4.47715 0 0 4.47715 0 10C0 15.5228 4.47715 20 10 20Z" fill="#252525"/>
<path id="Vector_2" d="M8.21441 13.9547C8.27912 13.9883 8.35177 14.0037 8.42457 13.9992C8.49737 13.9947 8.56756 13.9705 8.62762 13.9291L13.8278 10.3292C13.8809 10.2924 13.9244 10.2433 13.9543 10.186C13.9843 10.1288 14 10.0651 14 10.0004C14 9.9358 13.9843 9.87213 13.9543 9.81487C13.9244 9.7576 13.8809 9.70847 13.8278 9.67165L8.62762 6.07179C8.56768 6.02998 8.4974 6.00542 8.42445 6.0008C8.35151 5.99618 8.27869 6.01167 8.21395 6.04559C8.14921 6.0795 8.09502 6.13055 8.05729 6.19314C8.01956 6.25574 7.99975 6.3275 8 6.40058V13.6003C7.99999 13.6733 8.01996 13.7449 8.05776 13.8074C8.09555 13.8699 8.14973 13.9208 8.21441 13.9547ZM8.80003 7.16415L12.8974 10.0004L8.80003 12.8367V7.16415Z" fill="white"/>
</g>
<defs>
<clipPath id="clip0_871_3928">
<rect width="20" height="20" fill="white"/>
</clipPath>
</defs>
</svg>
