<svg width="21" height="20" viewBox="0 0 21 20" fill="none" xmlns="http://www.w3.org/2000/svg">
<g id="SVG" clip-path="url(#clip0_189_6098)">
<path id="Vector" fill-rule="evenodd" clip-rule="evenodd" d="M10.6409 20C16.1637 20 20.6409 15.5228 20.6409 10C20.6409 4.47715 16.1637 0 10.6409 0C5.11802 0 0.640869 4.47715 0.640869 10C0.640869 15.5228 5.11802 20 10.6409 20Z" fill="#252525"/>
<path id="Vector_2" fill-rule="evenodd" clip-rule="evenodd" d="M9.32446 6.17542C9.07446 6.42542 9.07446 6.82542 9.32446 7.06917L12.1245 9.86917L9.32446 12.6692C9.07446 12.9191 9.07446 13.3191 9.32446 13.5629C9.57446 13.8129 9.97446 13.8129 10.2182 13.5629L13.4682 10.3129C13.5932 10.1879 13.6557 10.0254 13.6557 9.86292C13.6557 9.70042 13.5932 9.53792 13.4682 9.41292L10.2182 6.16292C9.96821 5.92542 9.56821 5.92542 9.32446 6.17542Z" fill="white"/>
</g>
<defs>
<clipPath id="clip0_189_6098">
<rect width="20" height="20" fill="white" transform="translate(0.640869)"/>
</clipPath>
</defs>
</svg>
