<svg width="153" height="40" viewBox="0 0 153 40" fill="none" xmlns="http://www.w3.org/2000/svg">
<g id="Clip path group">
<mask id="mask0_267_17984" style="mask-type:luminance" maskUnits="userSpaceOnUse" x="0" y="0" width="153" height="40">
<g id="clip0_9020_7958">
<path id="Vector" d="M152.857 0H0V40H152.857V0Z" fill="white"/>
</g>
</mask>
<g mask="url(#mask0_267_17984)">
<g id="Group" opacity="0.95">
<path id="Vector_2" d="M131.034 0.0172529C131.539 0.584629 132.045 1.15201 132.577 1.69237C135.398 4.71837 138.245 7.71735 141.066 10.7434C143.54 13.3641 146.015 16.0118 148.49 18.6326C148.888 19.0649 149.288 19.4702 149.741 19.9565C149.741 16.7684 149.741 13.6614 149.741 10.5542C149.741 7.44718 149.741 4.36714 149.741 1.23305C150.778 1.23305 151.815 1.23305 152.854 1.23305C152.854 10.0139 152.854 18.7946 152.854 27.6295C146.601 20.9832 140.4 14.3638 134.12 7.71735C134.12 14.0395 134.12 20.3076 134.12 26.6029C133.056 26.6029 132.018 26.6029 130.98 26.6029C130.98 17.7139 130.98 8.85211 130.98 -0.00976562C131.007 0.0172529 131.007 0.0172529 131.034 0.0172529Z" fill="white"/>
<path id="Vector_3" d="M31.9074 29.3046C31.1357 28.7912 30.3638 28.3049 29.6454 27.7375C26.5584 25.2516 24.5891 22.0634 24.0304 18.0915C23.365 13.3901 24.6957 9.22909 27.8624 5.74357C30.3905 2.96056 33.5307 1.36642 37.2031 0.82603C43.5898 -0.0926387 49.8968 2.85249 53.1434 8.47254C54.0217 9.98563 54.5804 11.5798 54.8998 13.309C54.9264 13.3901 54.9264 13.4982 54.9264 13.6332C54.82 13.5792 54.7135 13.5522 54.6337 13.4982C49.8968 11.4717 45.1067 11.2556 40.4231 13.5792C35.6863 15.9029 32.8121 19.7666 31.934 25.0625C31.7211 26.4405 31.6945 27.8455 31.9074 29.3046Z" fill="white"/>
<path id="Vector_4" d="M115.122 27.1722C107.724 27.1722 101.922 21.2009 102.029 13.7436C102.109 6.93462 107.75 0.639082 115.202 0.666102C122.573 0.720137 128.401 6.88058 128.268 14.2029C128.135 21.363 122.493 27.1722 115.122 27.1722ZM125.128 13.7436C125.101 13.4463 125.101 13.014 125.048 12.5547C124.702 9.74465 123.478 7.39395 121.216 5.66471C118.901 3.88142 116.266 3.34104 113.419 3.80036C111.29 4.15162 109.453 5.09729 107.963 6.69145C105.515 9.33937 104.717 12.4736 105.355 16.0132C106.313 21.363 111.582 25.0377 116.825 24.065C121.642 23.1733 125.154 18.9043 125.128 13.7436Z" fill="white"/>
<path id="Vector_5" d="M18.1226 26.6311C17.0847 26.6311 16.0734 26.6311 15.009 26.6311C15.009 22.5782 15.009 18.5252 15.009 14.4453C11.0438 14.4453 7.1053 14.4453 3.14017 14.4453C3.14017 18.4982 3.14017 22.5512 3.14017 26.6041C2.0757 26.6041 1.06446 26.6041 0.0266116 26.6041C0 18.1739 0 9.71687 0 1.25977C1.03785 1.25977 2.0491 1.25977 3.11356 1.25977C3.11356 4.63721 3.11356 8.04167 3.11356 11.4461C7.07869 11.4461 11.0172 11.4461 14.9823 11.4461C14.9823 8.06868 14.9823 4.66422 14.9823 1.25977C16.0469 1.25977 17.058 1.25977 18.1226 1.25977C18.1226 9.71687 18.1226 18.1469 18.1226 26.6311Z" fill="white"/>
<path id="Vector_6" d="M59.793 1.25945C59.8728 1.25945 59.9527 1.23242 60.0058 1.23242C62.0815 1.25945 64.1573 1.25945 66.233 1.31348C67.7233 1.36752 69.1603 1.66474 70.411 2.52936C72.5933 4.06948 73.5245 6.23104 73.4448 8.87894C73.3915 10.6082 72.7795 12.1483 71.6351 13.4452C70.624 14.58 69.3465 15.2556 67.883 15.5257C67.7765 15.5527 67.6434 15.5799 67.5104 15.6069C70.145 19.2814 72.7528 22.9291 75.3874 26.6307C75.2277 26.6307 75.148 26.6577 75.0414 26.6577C74.0035 26.6577 72.9657 26.6577 71.9013 26.6577C71.6618 26.6577 71.5287 26.5767 71.3957 26.3876C69.0804 22.9831 66.7387 19.5787 64.3968 16.1743C64.2637 15.9851 64.1307 15.904 63.8913 15.931C63.5984 15.958 63.2791 15.931 62.9331 15.931C62.9331 19.5246 62.9331 23.0641 62.9331 26.6577C61.8687 26.6577 60.8308 26.6577 59.793 26.6577C59.793 18.1466 59.793 9.71655 59.793 1.25945ZM62.9331 13.1751C63.7847 13.1751 64.6363 13.2291 65.4613 13.1751C66.5524 13.094 67.6168 12.8508 68.6281 12.3374C69.4264 11.9322 69.9853 11.3107 70.278 10.4461C70.5973 9.52741 70.624 8.58174 70.4908 7.63605C70.278 6.25805 69.5328 5.31236 68.2555 4.82602C67.1644 4.39371 66.0201 4.17755 64.8493 4.12351C64.2371 4.09649 63.6251 4.12351 62.9864 4.12351C62.9331 7.14969 62.9331 10.1759 62.9331 13.1751Z" fill="white"/>
<path id="Vector_7" d="M85.2113 4.15085C85.2113 3.17815 85.2113 2.23247 85.2113 1.25977C90.5069 1.25977 95.8026 1.25977 101.152 1.25977C96.947 8.74417 92.7423 16.2015 88.511 23.7129C92.7423 23.7129 96.9203 23.7129 101.125 23.7129C101.125 24.7126 101.125 25.6583 101.125 26.6311C95.2171 26.6311 89.336 26.6311 83.375 26.6311C87.6063 19.1466 91.8109 11.6893 96.0421 4.15085C92.423 4.15085 88.8304 4.15085 85.2113 4.15085Z" fill="white"/>
<path id="Vector_8" d="M80.8206 26.6037C79.7827 26.6037 78.7716 26.6037 77.707 26.6037C77.707 18.1466 77.707 9.71655 77.707 1.23242C78.7449 1.23242 79.7562 1.23242 80.8206 1.23242C80.8206 9.71655 80.8206 18.1466 80.8206 26.6037Z" fill="white"/>
<path id="Vector_9" d="M109.106 39.8971C108.52 38.33 107.935 36.8439 107.349 35.2498C106.737 36.8439 106.178 38.33 105.593 39.8971C104.715 37.6545 103.863 35.4929 103.012 33.3044C103.091 33.2774 103.118 33.2774 103.145 33.2774C103.863 33.2502 103.863 33.2502 104.103 33.8988C104.582 35.1147 105.034 36.3305 105.513 37.5464C105.54 37.6004 105.566 37.6545 105.62 37.7625C106.205 36.1954 106.79 34.7094 107.376 33.1152C107.988 34.7094 108.547 36.1954 109.132 37.7625C109.186 37.6275 109.239 37.5464 109.265 37.4384C109.744 36.1954 110.25 34.9255 110.702 33.6555C110.809 33.3584 110.942 33.1962 111.288 33.2502C111.421 33.2774 111.554 33.2502 111.74 33.2502C110.835 35.4929 109.984 37.6545 109.106 39.8971Z" fill="white"/>
<path id="Vector_10" d="M21.4454 37.925C21.4454 36.3309 21.4454 34.8178 21.4454 33.3048C21.7116 33.3048 21.9776 33.3048 22.2171 33.3048C22.2171 35.4662 22.2171 37.6549 22.2171 39.8975C20.647 38.2222 19.1301 36.601 17.5601 34.9529C17.5601 36.547 17.5601 38.0872 17.5601 39.6272C17.294 39.6272 17.0279 39.6272 16.7617 39.6272C16.7617 37.4386 16.7617 35.25 16.7617 32.9805C18.3319 34.6286 19.8487 36.2498 21.4454 37.925Z" fill="white"/>
<path id="Vector_11" d="M130.688 33.1953C131.539 33.2763 132.391 33.2493 133.189 33.4115C134.599 33.7086 135.451 34.8165 135.478 36.2485C135.504 37.8696 134.732 39.0045 133.295 39.4367C132.444 39.6799 131.566 39.6259 130.688 39.6259C130.688 37.4913 130.688 35.4109 130.688 33.1953ZM131.459 38.8423C131.779 38.8423 132.045 38.8693 132.311 38.8423C134.041 38.6802 134.945 37.4913 134.626 35.8432C134.387 34.5733 132.843 33.6816 131.459 34.0329C131.459 35.627 131.459 37.2482 131.459 38.8423Z" fill="white"/>
<path id="Vector_12" d="M43.5689 39.6266C43.2229 39.6266 42.9835 39.6536 42.7173 39.6266C42.6375 39.6266 42.531 39.5186 42.4512 39.4374C41.919 38.6809 41.4133 37.9244 40.9077 37.1949C40.8279 37.0867 40.6682 37.0327 40.5617 36.9247C40.5352 36.9517 40.5086 36.9787 40.4553 37.0057C40.4553 37.8703 40.4553 38.735 40.4553 39.6266C40.1892 39.6266 39.9497 39.6266 39.6836 39.6266C39.6836 37.5191 39.6836 35.4386 39.6836 33.25C40.4022 33.277 41.1206 33.277 41.8125 33.3851C42.5576 33.4931 43.0899 34.2227 43.1165 35.0333C43.143 35.8979 42.664 36.6004 41.919 36.8166C41.8392 36.8436 41.7593 36.8706 41.6529 36.8976C42.2649 37.7893 42.9036 38.6809 43.5689 39.6266ZM40.4553 36.3303C40.9343 36.2221 41.3867 36.1681 41.7859 36.06C42.1319 35.952 42.2915 35.6547 42.3182 35.2764C42.3447 34.8981 42.3182 34.5199 41.9722 34.3037C41.5197 34.0066 40.9876 33.9526 40.4287 34.0066C40.4553 34.7631 40.4553 35.4926 40.4553 36.3303Z" fill="white"/>
<path id="Vector_13" d="M124.276 36.8722C124.276 37.8719 124.276 38.7366 124.276 39.6012C124.01 39.6012 123.77 39.6012 123.504 39.6012C123.504 37.5208 123.504 35.4132 123.504 33.2246C124.222 33.2786 124.941 33.2516 125.659 33.3868C126.431 33.5219 126.884 34.2243 126.91 35.0619C126.937 35.8996 126.458 36.575 125.713 36.8182C125.633 36.8452 125.553 36.8722 125.447 36.8993C126.085 37.8179 126.724 38.6826 127.389 39.6282C127.07 39.6282 126.804 39.6552 126.538 39.6282C126.431 39.6282 126.325 39.4932 126.271 39.412C125.739 38.6555 125.234 37.899 124.728 37.1695C124.648 37.0343 124.489 36.9803 124.276 36.8722ZM124.302 36.2508C124.808 36.2778 125.287 36.2508 125.713 36.0346C126.085 35.8455 126.165 35.5213 126.192 35.143C126.192 34.7918 126.112 34.4405 125.766 34.2513C125.313 34.0082 124.834 33.9542 124.302 34.0082C124.302 34.7648 124.302 35.4942 124.302 36.2508Z" fill="white"/>
<path id="Vector_14" d="M120.26 39.6003C119.408 39.6543 119.355 39.6813 119.115 38.9248C118.876 38.1683 118.45 37.871 117.678 38.0062C117.146 38.0872 116.614 38.0332 116.082 38.0062C115.895 38.0062 115.789 38.0602 115.709 38.2493C115.576 38.6006 115.39 38.9248 115.257 39.276C115.15 39.5463 115.017 39.6543 114.724 39.6273C114.591 39.6003 114.432 39.6273 114.219 39.6273C115.23 37.4118 116.215 35.2232 117.226 32.9805C118.264 35.2232 119.248 37.4118 120.26 39.6003ZM117.253 34.7638C116.88 35.6555 116.534 36.466 116.161 37.2766C116.907 37.2766 117.598 37.2766 118.317 37.2766C117.971 36.439 117.625 35.6555 117.253 34.7638Z" fill="white"/>
<path id="Vector_15" d="M46.2227 39.6272C47.2338 37.3846 48.2185 35.223 49.2297 32.9805C50.2409 35.223 51.2257 37.4116 52.2368 39.6272C51.9441 39.6272 51.7312 39.6543 51.4917 39.6272C51.4119 39.6272 51.3321 39.5192 51.2788 39.4382C51.0925 39.0599 50.9328 38.6546 50.7467 38.2763C50.6934 38.1682 50.5337 38.0602 50.4272 38.0602C49.6289 38.033 48.8572 38.0602 48.0588 38.033C47.8725 38.033 47.7661 38.0872 47.6862 38.2763C47.5265 38.6546 47.3669 39.0058 47.2072 39.357C47.1274 39.5732 47.0209 39.6813 46.7815 39.6543C46.6218 39.6002 46.4355 39.6272 46.2227 39.6272ZM48.1387 37.2766C48.8838 37.2766 49.5757 37.2766 50.3208 37.2766C49.9482 36.4389 49.6022 35.6283 49.2297 34.7638C48.8305 35.6553 48.4847 36.4389 48.1387 37.2766Z" fill="white"/>
<path id="Vector_16" d="M94.418 39.6272C95.4293 37.3846 96.4138 35.223 97.4251 32.9805C98.4363 35.223 99.421 37.3846 100.432 39.6272C100.139 39.6272 99.9 39.6543 99.6871 39.6272C99.6073 39.6272 99.5274 39.5192 99.4741 39.4382C99.2878 39.0599 99.1015 38.6546 98.942 38.2493C98.8621 38.0872 98.7823 38.033 98.596 38.033C97.7977 38.033 96.9993 38.033 96.201 38.033C96.0945 38.033 95.9348 38.1412 95.9083 38.2222C95.722 38.5735 95.5623 38.9248 95.4293 39.276C95.3228 39.5462 95.1897 39.6543 94.9235 39.6272C94.7905 39.6002 94.6308 39.6272 94.418 39.6272ZM96.334 37.2766C97.0791 37.2766 97.771 37.2766 98.4895 37.2766C98.117 36.4389 97.771 35.6283 97.3984 34.7638C97.0525 35.6283 96.7065 36.4389 96.334 37.2766Z" fill="white"/>
<path id="Vector_17" d="M32.5938 39.5999C32.5938 37.4925 32.5938 35.4119 32.5938 33.2773C33.7115 33.2773 34.8025 33.2773 35.9467 33.2773C35.9467 33.4936 35.9467 33.7368 35.9467 33.9799C35.0952 33.9799 34.2436 33.9799 33.392 33.9799C33.392 34.5743 33.392 35.1418 33.392 35.7362C34.217 35.7362 35.0153 35.7362 35.8403 35.7362C35.8403 36.0063 35.8403 36.2225 35.8403 36.4658C35.0153 36.4658 34.217 36.4658 33.3655 36.4658C33.3655 37.2763 33.3655 38.0599 33.3655 38.8435C34.217 38.8435 35.042 38.8435 35.8936 38.8435C35.8936 39.1136 35.8936 39.3298 35.8936 39.5729C34.829 39.5999 33.7115 39.5999 32.5938 39.5999Z" fill="white"/>
<path id="Vector_18" d="M82.9212 33.2773C84.039 33.2773 85.1565 33.2773 86.2742 33.2773C86.2742 33.5206 86.2742 33.7098 86.2742 33.9799C85.4227 33.9799 84.5977 33.9799 83.7195 33.9799C83.7195 34.5743 83.7195 35.1418 83.7195 35.7362C84.518 35.7362 85.3428 35.7362 86.1678 35.7362C86.1678 36.0063 86.1678 36.2225 86.1678 36.4658C85.3695 36.4658 84.5445 36.4658 83.7195 36.4658C83.7195 37.2763 83.7195 38.0599 83.7195 38.8705C84.5711 38.8705 85.3961 38.8705 86.2477 38.8705C86.2477 39.1406 86.2477 39.3568 86.2477 39.5999C85.13 39.5999 84.0122 39.5999 82.8945 39.5999C82.9212 37.4925 82.9212 35.4119 82.9212 33.2773Z" fill="white"/>
<path id="Vector_19" d="M138.676 37.9799C138.915 37.9259 139.155 37.8719 139.394 37.8179C139.474 38.034 139.501 38.2231 139.58 38.3851C139.793 38.8176 140.272 39.0607 140.778 39.0067C141.23 38.9526 141.603 38.6013 141.736 38.115C141.869 37.6016 141.736 37.1693 141.257 36.8721C140.991 36.71 140.698 36.6019 140.405 36.4399C140.139 36.3047 139.873 36.1966 139.607 36.0346C138.622 35.386 138.676 34.035 139.66 33.4136C140.618 32.8191 141.896 33.1434 142.348 34.1161C142.162 34.2241 141.949 34.3593 141.736 34.4944C141.417 34.008 140.964 33.7919 140.405 33.954C140.033 34.0621 139.74 34.2783 139.687 34.7106C139.634 35.1159 139.873 35.359 140.193 35.5211C140.538 35.7103 140.911 35.8183 141.284 36.0074C142.348 36.4939 142.747 37.2504 142.508 38.2771C142.295 39.2229 141.443 39.8443 140.459 39.7901C139.527 39.7091 138.782 38.9796 138.676 37.9799Z" fill="white"/>
<path id="Vector_20" d="M60.0325 34.4672C58.7286 33.5754 57.4512 33.6836 56.5463 34.7103C55.7215 35.656 55.7215 37.169 56.5198 38.1417C57.2384 39.0064 58.5955 39.4657 60.0325 38.3849C60.0325 38.6822 60.0325 38.9793 60.0325 39.2226C60.0325 39.3036 59.9261 39.3576 59.8462 39.4117C58.6753 40.0062 57.2383 39.817 56.2005 38.9253C55.2425 38.0877 54.8699 36.6557 55.2956 35.3857C55.6948 34.1429 56.8658 33.2512 58.1165 33.1432C58.6753 33.0892 59.2076 33.1702 59.7132 33.3863C59.9526 33.4944 60.0858 33.6024 60.0325 33.8997C60.0059 34.0619 60.0325 34.2509 60.0325 34.4672Z" fill="white"/>
<path id="Vector_21" d="M79.6475 33.2776C78.7427 35.5202 77.8379 37.7088 76.9332 39.9785C76.0017 37.7088 75.1236 35.5202 74.2188 33.2776C74.4849 33.2776 74.7243 33.2506 74.9639 33.2776C75.0703 33.3046 75.1767 33.4398 75.2033 33.5478C75.7356 34.8988 76.2679 36.2498 76.8267 37.6008C76.8533 37.6818 76.9065 37.7629 76.9597 37.9251C77.0927 37.5738 77.2259 37.2495 77.3589 36.9523C77.8113 35.8445 78.2372 34.7366 78.6629 33.6289C78.7693 33.3586 78.8757 33.2506 79.1685 33.2776C79.2749 33.2776 79.4346 33.2776 79.6475 33.2776Z" fill="white"/>
<path id="Vector_22" d="M26.9831 39.6003C26.9831 37.736 26.9831 35.8987 26.9831 34.0073C26.4775 34.0073 25.9985 34.0073 25.5195 34.0073C25.5195 33.7371 25.5195 33.521 25.5195 33.3047C26.7702 33.3047 27.9944 33.3047 29.2451 33.3047C29.2451 33.548 29.2451 33.7641 29.2451 34.0073C28.7661 34.0073 28.2871 34.0073 27.7814 34.0073C27.7814 35.8715 27.7814 37.736 27.7814 39.6273C27.5154 39.6003 27.2492 39.6003 26.9831 39.6003Z" fill="white"/>
<path id="Vector_23" d="M65.3831 39.5999C65.0904 39.5999 64.8508 39.5999 64.5847 39.5999C64.5847 37.7356 64.5847 35.8713 64.5847 33.9799C64.0791 33.9799 63.6001 33.9799 63.1211 33.9799C63.1211 33.7368 63.1211 33.5206 63.1211 33.2773C64.3718 33.2773 65.5959 33.2773 66.8467 33.2773C66.8467 33.4936 66.8467 33.7098 66.8467 33.9799C66.3677 33.9799 65.9152 33.9799 65.4097 33.9799C65.3831 35.8713 65.3831 37.7086 65.3831 39.5999Z" fill="white"/>
<path id="Vector_24" d="M12.1602 33.2773C12.4263 33.2773 12.6658 33.2773 12.9319 33.2773C12.9319 35.3849 12.9319 37.4655 12.9319 39.5999C12.6924 39.5999 12.4263 39.5999 12.1602 39.5999C12.1602 37.4925 12.1602 35.4119 12.1602 33.2773Z" fill="white"/>
<path id="Vector_25" d="M70.1992 33.2773C70.4654 33.2773 70.7048 33.2773 70.9709 33.2773C70.9709 35.3849 70.9709 37.4925 70.9709 39.5999C70.7048 39.5999 70.4654 39.5999 70.1992 39.5999C70.1992 37.4925 70.1992 35.4119 70.1992 33.2773Z" fill="white"/>
</g>
</g>
</g>
</svg>
