<svg xmlns="http://www.w3.org/2000/svg" width="29" height="26" viewBox="0 0 29 26" fill="none">
  <path d="M25.313 25.3124C26.0589 25.3124 26.7743 25.0161 27.3017 24.4887C27.8292 23.9612 28.1255 23.2459 28.1255 22.4999V15.6318C28.1255 14.8859 27.8292 14.1705 27.3017 13.6431C26.7743 13.1156 26.0589 12.8193 25.313 12.8193H21.4092C21.4092 11.8321 21.4683 10.8421 21.5836 9.85494C21.758 8.80869 22.0505 7.87775 22.4555 7.06494C22.8633 6.24931 23.3864 5.61088 24.0277 5.144C24.6661 4.62088 25.4789 4.35931 26.4689 4.35931V-6.10352e-05C24.8405 -6.10352e-05 23.4174 0.348689 22.1939 1.04619C20.9811 1.73662 19.9384 2.68996 19.1424 3.83619C18.3434 5.09989 17.7545 6.48471 17.3986 7.93681C17.04 9.53926 16.8645 11.1773 16.8755 12.8193V22.4999C16.8755 23.2459 17.1718 23.9612 17.6992 24.4887C18.2267 25.0161 18.9421 25.3124 19.688 25.3124H25.313ZM8.43799 25.3124C9.18391 25.3124 9.89928 25.0161 10.4267 24.4887C10.9542 23.9612 11.2505 23.2459 11.2505 22.4999V15.6318C11.2505 14.8859 10.9542 14.1705 10.4267 13.6431C9.89928 13.1156 9.18391 12.8193 8.43799 12.8193H4.53424C4.53424 11.8321 4.5933 10.8421 4.70861 9.85494C4.88299 8.80869 5.17549 7.87775 5.58049 7.06494C5.9883 6.24931 6.51143 5.61088 7.15268 5.144C7.79111 4.62088 8.60392 4.35931 9.59392 4.35931V-6.10352e-05C7.96549 -6.10352e-05 6.54236 0.348689 5.31892 1.04619C4.10614 1.73662 3.06342 2.68996 2.26736 3.83619C1.4684 5.09989 0.879519 6.48471 0.523613 7.93681C0.164979 9.53926 -0.0105204 11.1773 0.000487345 12.8193V22.4999C0.000487345 23.2459 0.296803 23.9612 0.824249 24.4887C1.3517 25.0161 2.06707 25.3124 2.81299 25.3124H8.43799Z" fill="#252525"/>
</svg>