<svg width="70" height="70" viewBox="0 0 70 70" fill="none" xmlns="http://www.w3.org/2000/svg">
<path fill-rule="evenodd" clip-rule="evenodd" d="M0 17.3271L1.6567 17.581C5.82351 18.2194 8.35898 19.8525 9.78181 22.0745C11.1589 24.2249 11.3226 26.6795 11.3226 28.5742V38.6544C12.8696 37.9455 14.5757 37.7143 16.1578 37.8035C18.6232 37.9424 21.1123 38.8766 22.5637 40.4086C24.3491 42.2932 28.9545 46.9238 31.0442 49.0135L31.4656 49.435V69.6108H16.6399V62.6985L0 45.9961V17.3271ZM12.0568 41.5116L19.7106 49.0026L17.6978 51.0592L8.44504 42.0032V28.5742C8.44504 26.7781 8.26473 25.0414 7.3585 23.6262C6.64291 22.5087 5.35565 21.4166 2.87757 20.7641V44.8073L19.5174 61.5098V66.7334H28.588V50.6265C26.3569 48.3923 22.1783 44.1859 20.4747 42.3877C19.6741 41.5426 17.972 40.7878 15.9959 40.6765C14.5768 40.5965 13.1892 40.8581 12.0568 41.5116Z" fill="#00267B"/>
<path fill-rule="evenodd" clip-rule="evenodd" d="M69.9998 17.3271L68.3431 17.581C64.1763 18.2194 61.6408 19.8525 60.218 22.0745C58.8409 24.2249 58.6772 26.6795 58.6772 28.5742V38.6544C57.1302 37.9455 55.4241 37.7143 53.842 37.8035C51.3766 37.9424 48.8875 38.8766 47.4361 40.4086C45.6507 42.2932 41.0453 46.9238 38.9556 49.0135L38.5342 49.435V69.6108H53.3599V62.6985L69.9998 45.9961V17.3271ZM57.943 41.5116L50.2892 49.0026L52.302 51.0592L61.5548 42.0032V28.5742C61.5548 26.7781 61.7351 25.0414 62.6413 23.6262C63.3569 22.5087 64.6441 21.4166 67.1222 20.7641V44.8073L50.4824 61.5098V66.7334H41.4118V50.6265C43.6429 48.3923 47.8215 44.1859 49.5251 42.3877C50.3257 41.5426 52.0278 40.7878 54.0039 40.6765C55.423 40.5965 56.8106 40.8581 57.943 41.5116Z" fill="#00267B"/>
<g filter="url(#filter0_d_907_5114)">
<path d="M30.7132 9.81999C27.2929 9.81999 24.5202 12.5927 24.5202 16.013C24.5202 19.4333 27.2929 22.2061 30.7132 22.2061C34.1335 22.2061 36.9062 19.4333 36.9062 16.013C36.9062 12.5927 34.1335 9.81999 30.7132 9.81999Z" fill="white"/>
</g>
<path d="M30.7142 13.5348C29.3461 13.5348 28.237 14.6439 28.237 16.012C28.237 17.3802 29.3461 18.4893 30.7142 18.4893C32.0823 18.4893 33.1914 17.3802 33.1914 16.012C33.1914 14.6439 32.0823 13.5348 30.7142 13.5348Z" fill="#0045E6"/>
<path fill-rule="evenodd" clip-rule="evenodd" d="M29.6567 6.44222C24.4826 1.09715 16.2927 4.88184 15.9667 10.6885C15.8045 13.5773 16.9739 16.6494 19.5954 19.9396C22.0954 23.0773 25.8431 26.3172 30.747 29.6442C37.2803 25.8058 40.9291 22.184 42.9577 19.0239C45.0305 15.7949 45.4713 12.9561 45.4781 10.6627C45.1823 7.00231 42.8375 4.9235 39.9805 4.23191C37.0179 3.51479 33.6854 4.3432 31.7419 6.42367L30.7091 7.52931L29.6567 6.44222ZM30.6919 3.48825C23.7736 -2.18887 13.5407 2.56619 13.0937 10.5272C12.8785 14.3593 14.4577 18.1093 17.3449 21.7328C20.2293 25.3529 24.4991 28.9518 29.8941 32.5375L30.6329 33.0285L31.4034 32.589C38.6906 28.4324 42.9493 24.3636 45.3792 20.5784C47.8266 16.766 48.3558 13.3387 48.3558 10.6078V10.5538L48.3517 10.5C47.9674 5.38408 44.5589 2.37952 40.6575 1.43512C37.3011 0.622668 33.4479 1.29677 30.6919 3.48825Z" fill="#00267B"/>
<path fill-rule="evenodd" clip-rule="evenodd" d="M49.925 8.23829C48.5917 7.13945 46.8167 6.54778 44.9642 6.50371L45.0327 3.62695C47.4278 3.68394 49.8515 4.44885 51.7551 6.01767C53.6833 7.60677 55.0022 9.96175 55.2311 13.0163L55.2351 13.07V13.1239C55.2351 15.8523 54.7078 19.277 52.2681 23.0868C49.8458 26.8696 45.6001 30.9359 38.3353 35.09L37.5634 35.5314L36.8234 35.0384C35.0026 33.8252 33.3138 32.6128 31.7656 31.401L33.5393 29.135C34.8125 30.1316 36.1931 31.135 37.6777 32.1447C44.1873 28.3102 47.8232 24.6921 49.8448 21.535C51.9112 18.3082 52.3506 15.471 52.3575 13.1786C52.1752 10.9156 51.2236 9.30854 49.925 8.23829Z" fill="url(#paint0_linear_907_5114)"/>
<defs>
<filter id="filter0_d_907_5114" x="20.5202" y="7.82031" width="20.3861" height="20.3857" filterUnits="userSpaceOnUse" color-interpolation-filters="sRGB">
<feFlood flood-opacity="0" result="BackgroundImageFix"/>
<feColorMatrix in="SourceAlpha" type="matrix" values="0 0 0 0 0 0 0 0 0 0 0 0 0 0 0 0 0 0 127 0" result="hardAlpha"/>
<feOffset dy="2"/>
<feGaussianBlur stdDeviation="2"/>
<feColorMatrix type="matrix" values="0 0 0 0 0 0 0 0 0 0 0 0 0 0 0 0 0 0 0.45 0"/>
<feBlend mode="normal" in2="BackgroundImageFix" result="effect1_dropShadow_907_5114"/>
<feBlend mode="normal" in="SourceGraphic" in2="effect1_dropShadow_907_5114" result="shape"/>
</filter>
<linearGradient id="paint0_linear_907_5114" x1="47.7284" y1="20.7046" x2="39.3459" y2="16.6385" gradientUnits="userSpaceOnUse">
<stop stop-color="#01267B"/>
<stop offset="1" stop-color="#01267B" stop-opacity="0"/>
</linearGradient>
</defs>
</svg>
