<svg width="58" height="52" viewBox="0 0 58 52" fill="none" xmlns="http://www.w3.org/2000/svg">
<g id="custom-mobile-%E2%80%A8apps-blue.svg" clip-path="url(#clip0_871_4759)">
<path id="Vector" fill-rule="evenodd" clip-rule="evenodd" d="M38.0208 39.6142H15.4417V37.7085H38.0208V39.6142Z" fill="#00267B"/>
<path id="Vector_2" fill-rule="evenodd" clip-rule="evenodd" d="M28.3261 42.8457H25.426V40.9399H28.3261V42.8457Z" fill="#00267B"/>
<path id="Vector_3" fill-rule="evenodd" clip-rule="evenodd" d="M28.3261 11.1933H25.426V9.2876H28.3261V11.1933Z" fill="#00267B"/>
<path id="Vector_4" fill-rule="evenodd" clip-rule="evenodd" d="M13.0387 26.9369C15.8988 26.9369 18.2174 24.6183 18.2174 21.7583C18.2174 18.8981 15.8988 16.5795 13.0387 16.5795C10.1786 16.5795 7.85999 18.8981 7.85999 21.7583C7.85999 24.6183 10.1786 26.9369 13.0387 26.9369ZM13.0387 28.8427C16.9513 28.8427 20.1231 25.6708 20.1231 21.7583C20.1231 17.8456 16.9513 14.6738 13.0387 14.6738C9.12605 14.6738 5.95422 17.8456 5.95422 21.7583C5.95422 25.6708 9.12605 28.8427 13.0387 28.8427Z" fill="#00267B"/>
<path id="Vector_5" fill-rule="evenodd" clip-rule="evenodd" d="M14.7788 6.09766H38.9737V15.875H37.0679V8.00343H16.6846H14.7788V6.09766ZM16.6846 44.0471V37.5841H14.7788V45.9529H38.9737V38.0398H37.0679V44.0471H16.6846Z" fill="#00267B"/>
<path id="Vector_6" fill-rule="evenodd" clip-rule="evenodd" d="M52.9875 28.593C52.4717 31.6963 50.6227 34.5531 47.6856 36.2488C42.4741 39.2577 35.8103 37.4721 32.8014 32.2606C29.7925 27.0492 31.5781 20.3853 36.7896 17.3764C39.7505 15.667 43.1802 15.5051 46.1421 16.6399L46.8315 14.8631C43.3501 13.5271 39.3176 13.7163 35.8367 15.726C29.7137 19.2611 27.6158 27.0905 31.151 33.2135C34.6861 39.3364 42.5155 41.4344 48.6385 37.8992C52.0956 35.9033 54.2696 32.5382 54.871 28.8843L52.9875 28.593ZM48.9746 27.9722C48.6412 29.9027 47.4847 31.6766 45.6555 32.7327C42.386 34.6204 38.2052 33.5001 36.3175 30.2306C34.4299 26.9611 35.5501 22.7803 38.8197 20.8926C40.658 19.8312 42.7845 19.7208 44.6294 20.4086C44.6441 20.4141 44.6587 20.4196 44.6734 20.4252L43.984 22.202C42.6485 21.6971 41.1055 21.7735 39.7725 22.5431C37.4145 23.9044 36.6066 26.9197 37.968 29.2777C39.3294 31.6358 42.3446 32.4437 44.7026 31.0822C46.0119 30.3264 46.8432 29.0607 47.0907 27.6808L48.9746 27.9722Z" fill="#00267B"/>
<path id="Vector_7" fill-rule="evenodd" clip-rule="evenodd" d="M14.7788 15.7509V6.22217H16.6846V15.7509H14.7788Z" fill="url(#paint0_linear_871_4759)"/>
<path id="Vector_8" fill-rule="evenodd" clip-rule="evenodd" d="M16.6844 29.0083V37.7085H14.7787V29.0083H16.6844Z" fill="url(#paint1_linear_871_4759)"/>
<g id="Group" filter="url(#filter0_d_871_4759)">
<path id="Vector_9" d="M45.15 22.5351C47.4152 22.5351 49.2515 20.6988 49.2515 18.4336C49.2515 16.1683 47.4152 14.332 45.15 14.332C42.8848 14.332 41.0485 16.1683 41.0485 18.4336C41.0485 20.6988 42.8848 22.5351 45.15 22.5351Z" fill="white"/>
</g>
<path id="Vector_10" d="M45.1496 20.0747C46.0557 20.0747 46.7902 19.3401 46.7902 18.4341C46.7902 17.528 46.0557 16.7935 45.1496 16.7935C44.2436 16.7935 43.509 17.528 43.509 18.4341C43.509 19.3401 44.2436 20.0747 45.1496 20.0747Z" fill="#0045E6"/>
<g id="Group_2" filter="url(#filter1_d_871_4759)">
<path id="Vector_11" d="M50.8673 32.4379C53.1325 32.4379 54.9688 30.6016 54.9688 28.3364C54.9688 26.0712 53.1325 24.2349 50.8673 24.2349C48.6021 24.2349 46.7657 26.0712 46.7657 28.3364C46.7657 30.6016 48.6021 32.4379 50.8673 32.4379Z" fill="white"/>
</g>
<path id="Vector_12" d="M50.8673 29.977C51.7734 29.977 52.5079 29.2425 52.5079 28.3364C52.5079 27.4303 51.7734 26.6958 50.8673 26.6958C49.9612 26.6958 49.2267 27.4303 49.2267 28.3364C49.2267 29.2425 49.9612 29.977 50.8673 29.977Z" fill="#0045E6"/>
<g id="Group_3" filter="url(#filter2_d_871_4759)">
<path id="Vector_13" d="M7.07283 26.0253C9.33804 26.0253 11.1744 24.189 11.1744 21.9238C11.1744 19.6586 9.33804 17.8223 7.07283 17.8223C4.80763 17.8223 2.97131 19.6586 2.97131 21.9238C2.97131 24.189 4.80763 26.0253 7.07283 26.0253Z" fill="white"/>
</g>
<path id="Vector_14" d="M7.07249 23.5649C7.97858 23.5649 8.7131 22.8304 8.7131 21.9243C8.7131 21.0182 7.97858 20.2837 7.07249 20.2837C6.16641 20.2837 5.43188 21.0182 5.43188 21.9243C5.43188 22.8304 6.16641 23.5649 7.07249 23.5649Z" fill="#0045E6"/>
</g>
<defs>
<filter id="filter0_d_871_4759" x="38.0772" y="12.8464" width="14.1456" height="14.1457" filterUnits="userSpaceOnUse" color-interpolation-filters="sRGB">
<feFlood flood-opacity="0" result="BackgroundImageFix"/>
<feColorMatrix in="SourceAlpha" type="matrix" values="0 0 0 0 0 0 0 0 0 0 0 0 0 0 0 0 0 0 127 0" result="hardAlpha"/>
<feOffset dy="1.48564"/>
<feGaussianBlur stdDeviation="1.48564"/>
<feColorMatrix type="matrix" values="0 0 0 0 0 0 0 0 0 0 0 0 0 0 0 0 0 0 0.45 0"/>
<feBlend mode="normal" in2="BackgroundImageFix" result="effect1_dropShadow_871_4759"/>
<feBlend mode="normal" in="SourceGraphic" in2="effect1_dropShadow_871_4759" result="shape"/>
</filter>
<filter id="filter1_d_871_4759" x="43.7945" y="22.7492" width="14.1456" height="14.1457" filterUnits="userSpaceOnUse" color-interpolation-filters="sRGB">
<feFlood flood-opacity="0" result="BackgroundImageFix"/>
<feColorMatrix in="SourceAlpha" type="matrix" values="0 0 0 0 0 0 0 0 0 0 0 0 0 0 0 0 0 0 127 0" result="hardAlpha"/>
<feOffset dy="1.48564"/>
<feGaussianBlur stdDeviation="1.48564"/>
<feColorMatrix type="matrix" values="0 0 0 0 0 0 0 0 0 0 0 0 0 0 0 0 0 0 0.45 0"/>
<feBlend mode="normal" in2="BackgroundImageFix" result="effect1_dropShadow_871_4759"/>
<feBlend mode="normal" in="SourceGraphic" in2="effect1_dropShadow_871_4759" result="shape"/>
</filter>
<filter id="filter2_d_871_4759" x="3.14713e-05" y="16.3366" width="14.1456" height="14.1457" filterUnits="userSpaceOnUse" color-interpolation-filters="sRGB">
<feFlood flood-opacity="0" result="BackgroundImageFix"/>
<feColorMatrix in="SourceAlpha" type="matrix" values="0 0 0 0 0 0 0 0 0 0 0 0 0 0 0 0 0 0 127 0" result="hardAlpha"/>
<feOffset dy="1.48564"/>
<feGaussianBlur stdDeviation="1.48564"/>
<feColorMatrix type="matrix" values="0 0 0 0 0 0 0 0 0 0 0 0 0 0 0 0 0 0 0.45 0"/>
<feBlend mode="normal" in2="BackgroundImageFix" result="effect1_dropShadow_871_4759"/>
<feBlend mode="normal" in="SourceGraphic" in2="effect1_dropShadow_871_4759" result="shape"/>
</filter>
<linearGradient id="paint0_linear_871_4759" x1="15.7731" y1="6.22217" x2="15.7731" y2="15.7509" gradientUnits="userSpaceOnUse">
<stop offset="0.203125" stop-color="#00267B"/>
<stop offset="0.911458" stop-color="#00267B" stop-opacity="0"/>
</linearGradient>
<linearGradient id="paint1_linear_871_4759" x1="15.6901" y1="37.7085" x2="15.6901" y2="29.0083" gradientUnits="userSpaceOnUse">
<stop offset="0.203125" stop-color="#00267B"/>
<stop offset="0.911458" stop-color="#00267B" stop-opacity="0"/>
</linearGradient>
<clipPath id="clip0_871_4759">
<rect width="57.94" height="51.9974" fill="white" transform="translate(0 0.00146484)"/>
</clipPath>
</defs>
</svg>
