<svg width="85" height="85" viewBox="0 0 85 85" fill="none" xmlns="http://www.w3.org/2000/svg">
<g id="custom application development">
<path id="Vector" d="M26.1418 76.2286C41.9364 85.874 62.2094 80.2888 71.4229 63.7539L74.2041 65.4522C64.0946 83.5952 41.8501 89.7235 24.5195 79.1401L26.1418 76.2286Z" fill="url(#paint0_linear_376_26636)"/>
<path id="Vector_2" d="M75.8013 47.5168C76.6193 28.3934 62.4742 12.1965 44.207 11.34L44.3512 7.97266C64.3947 8.91244 79.9154 26.6845 79.0177 47.6675L75.8013 47.5168Z" fill="url(#paint1_linear_376_26636)"/>
<path id="Vector_3" d="M25.5099 16.4777C9.92862 26.496 5.05531 47.8407 14.6251 64.1523L11.8815 65.9165C1.38106 48.0185 6.7283 24.5981 23.8249 13.6055L25.5099 16.4777Z" fill="url(#paint2_linear_376_26636)"/>
<path id="Vector_4" fill-rule="evenodd" clip-rule="evenodd" d="M50.3818 20.6328L56.0289 26.3519C56.4876 26.1139 57.0074 25.9235 57.5645 25.8245C58.8326 25.5992 60.3257 25.851 61.6142 27.0939C62.8666 28.3018 63.3022 29.7954 63.2096 31.1764C63.1641 31.8565 62.9923 32.5011 62.7414 33.0735L68.1338 38.7082L60.7819 46.638L59.6315 45.5862C59.1452 45.1415 58.6102 44.8808 58.154 44.8246C57.7547 44.7756 57.36 44.8682 56.9541 45.2738C56.5177 45.7099 56.3875 46.1588 56.404 46.5822C56.4222 47.0454 56.6258 47.591 57.0486 48.0917L58.0521 49.2802L35.2026 73.156L17.5312 54.8917L22.7794 49.4078C22.5398 48.8956 22.3471 48.3077 22.2644 47.6637C22.0859 46.2737 22.4436 44.7544 23.6681 43.414C25.5256 41.3806 27.8037 41.3772 29.4734 42.1815L40.2483 31.2772L41.3636 32.3131C41.5141 32.4527 41.969 32.7396 42.5263 32.8222C43.0156 32.8947 43.5428 32.8105 44.0709 32.3167C45.1791 31.2808 44.9379 29.9315 44.3825 29.3065L43.3329 28.1254L50.3818 20.6328ZM50.4367 25.3781L47.604 28.3891C48.4233 30.2981 48.2816 32.8994 46.2156 34.8309C44.8754 36.084 43.3546 36.3492 42.0752 36.1597C41.5108 36.076 40.9847 35.904 40.5227 35.6876L29.7062 46.634L28.5887 45.5563C28.3065 45.284 27.8717 45.071 27.4174 45.0544C27.0141 45.0396 26.5157 45.1738 25.9951 45.7437C25.4642 46.3249 25.404 46.8144 25.4554 47.2148C25.5178 47.7011 25.7764 48.1996 26.0674 48.5645L27.0113 49.7482L22.1015 54.8786L35.1902 68.4067L53.7688 48.9936C53.4294 48.2945 53.2183 47.5239 53.187 46.7198C53.1324 45.3221 53.6292 43.9369 54.7308 42.8357C55.8631 41.7042 57.2237 41.3165 58.5295 41.4769C59.2268 41.5627 59.884 41.7997 60.4765 42.1277L63.612 38.7458L58.4603 33.3625L59.5049 32.1718C59.7359 31.9083 59.9645 31.437 59.9978 30.9404C60.0264 30.5134 59.9188 30.0418 59.4326 29.5728C58.9825 29.1387 58.5391 29.0703 58.1034 29.1477C57.5968 29.2377 57.1504 29.529 56.9596 29.7216L55.8404 30.8507L50.4367 25.3781Z" fill="#01267B"/>
<path id="Vector_5" fill-rule="evenodd" clip-rule="evenodd" d="M38.6052 60.972L35.2454 64.5625L32.9453 62.2037L36.3051 58.6133L38.6052 60.972Z" fill="#01267B"/>
<path id="Vector_6" fill-rule="evenodd" clip-rule="evenodd" d="M38.2597 44.5681L34.0547 40.0042L36.372 37.6641L42.5155 44.3318L41.4966 45.4999C41.2482 45.7846 40.9873 46.2959 40.9252 46.8438C40.8698 47.3327 40.9686 47.8253 41.3936 48.2953C41.8147 48.7611 42.251 48.8728 42.6932 48.8291C43.198 48.7791 43.7284 48.5126 44.1018 48.1762L45.2261 47.1635L51.0426 53.1687L48.7819 55.5686L44.938 51.6001C44.3538 51.8998 43.6946 52.1158 42.9961 52.1849C41.6636 52.3166 40.2207 51.9017 39.0551 50.6122C37.8933 49.327 37.5744 47.801 37.7278 46.4468C37.8045 45.7709 37.9974 45.1329 38.2597 44.5681Z" fill="#01267B"/>
<g id="Group" filter="url(#filter0_d_376_26636)">
<path id="Vector_7" d="M73.4029 69.5498C76.8657 69.5498 79.6729 66.611 79.6729 62.9858C79.6729 59.3607 76.8657 56.4219 73.4029 56.4219C69.94 56.4219 67.1328 59.3607 67.1328 62.9858C67.1328 66.611 69.94 69.5498 73.4029 69.5498Z" fill="white"/>
</g>
<path id="Vector_8" d="M73.3986 65.6105C74.7838 65.6105 75.9067 64.435 75.9067 62.985C75.9067 61.5349 74.7838 60.3594 73.3986 60.3594C72.0135 60.3594 70.8906 61.5349 70.8906 62.985C70.8906 64.435 72.0135 65.6105 73.3986 65.6105Z" fill="#0045E6"/>
<g id="Group_2" filter="url(#filter1_d_376_26636)">
<path id="Vector_9" d="M12.3638 69.5498C15.8267 69.5498 18.6339 66.611 18.6339 62.9858C18.6339 59.3607 15.8267 56.4219 12.3638 56.4219C8.90095 56.4219 6.09375 59.3607 6.09375 62.9858C6.09375 66.611 8.90095 69.5498 12.3638 69.5498Z" fill="white"/>
</g>
<path id="Vector_10" d="M12.3635 65.6105C13.7486 65.6105 14.8715 64.435 14.8715 62.985C14.8715 61.5349 13.7486 60.3594 12.3635 60.3594C10.9783 60.3594 9.85547 61.5349 9.85547 62.985C9.85547 64.435 10.9783 65.6105 12.3635 65.6105Z" fill="#0045E6"/>
<g id="Group_3" filter="url(#filter2_d_376_26636)">
<path id="Vector_11" d="M42.8833 16.7881C46.3462 16.7881 49.1534 13.8493 49.1534 10.2241C49.1534 6.59894 46.3462 3.66016 42.8833 3.66016C39.4205 3.66016 36.6133 6.59894 36.6133 10.2241C36.6133 13.8493 39.4205 16.7881 42.8833 16.7881Z" fill="white"/>
</g>
<path id="Vector_12" d="M42.883 12.8527C44.2682 12.8527 45.391 11.6772 45.391 10.2271C45.391 8.77708 44.2682 7.60156 42.883 7.60156C41.4979 7.60156 40.375 8.77708 40.375 10.2271C40.375 11.6772 41.4979 12.8527 42.883 12.8527Z" fill="#0045E6"/>
</g>
<defs>
<filter id="filter0_d_376_26636" x="63.1328" y="54.4219" width="20.54" height="21.1289" filterUnits="userSpaceOnUse" color-interpolation-filters="sRGB">
<feFlood flood-opacity="0" result="BackgroundImageFix"/>
<feColorMatrix in="SourceAlpha" type="matrix" values="0 0 0 0 0 0 0 0 0 0 0 0 0 0 0 0 0 0 127 0" result="hardAlpha"/>
<feOffset dy="2"/>
<feGaussianBlur stdDeviation="2"/>
<feColorMatrix type="matrix" values="0 0 0 0 0 0 0 0 0 0 0 0 0 0 0 0 0 0 0.45 0"/>
<feBlend mode="normal" in2="BackgroundImageFix" result="effect1_dropShadow_376_26636"/>
<feBlend mode="normal" in="SourceGraphic" in2="effect1_dropShadow_376_26636" result="shape"/>
</filter>
<filter id="filter1_d_376_26636" x="2.09375" y="54.4219" width="20.54" height="21.1289" filterUnits="userSpaceOnUse" color-interpolation-filters="sRGB">
<feFlood flood-opacity="0" result="BackgroundImageFix"/>
<feColorMatrix in="SourceAlpha" type="matrix" values="0 0 0 0 0 0 0 0 0 0 0 0 0 0 0 0 0 0 127 0" result="hardAlpha"/>
<feOffset dy="2"/>
<feGaussianBlur stdDeviation="2"/>
<feColorMatrix type="matrix" values="0 0 0 0 0 0 0 0 0 0 0 0 0 0 0 0 0 0 0.45 0"/>
<feBlend mode="normal" in2="BackgroundImageFix" result="effect1_dropShadow_376_26636"/>
<feBlend mode="normal" in="SourceGraphic" in2="effect1_dropShadow_376_26636" result="shape"/>
</filter>
<filter id="filter2_d_376_26636" x="32.6133" y="1.66016" width="20.54" height="21.1289" filterUnits="userSpaceOnUse" color-interpolation-filters="sRGB">
<feFlood flood-opacity="0" result="BackgroundImageFix"/>
<feColorMatrix in="SourceAlpha" type="matrix" values="0 0 0 0 0 0 0 0 0 0 0 0 0 0 0 0 0 0 127 0" result="hardAlpha"/>
<feOffset dy="2"/>
<feGaussianBlur stdDeviation="2"/>
<feColorMatrix type="matrix" values="0 0 0 0 0 0 0 0 0 0 0 0 0 0 0 0 0 0 0.45 0"/>
<feBlend mode="normal" in2="BackgroundImageFix" result="effect1_dropShadow_376_26636"/>
<feBlend mode="normal" in="SourceGraphic" in2="effect1_dropShadow_376_26636" result="shape"/>
</filter>
<linearGradient id="paint0_linear_376_26636" x1="64.4099" y1="65.9674" x2="29.7573" y2="80.5983" gradientUnits="userSpaceOnUse">
<stop stop-color="#00267B"/>
<stop offset="1" stop-color="#00267B" stop-opacity="0"/>
</linearGradient>
<linearGradient id="paint1_linear_376_26636" x1="49.3379" y1="16.812" x2="79.6046" y2="39.778" gradientUnits="userSpaceOnUse">
<stop stop-color="#00267B"/>
<stop offset="1" stop-color="#00267B" stop-opacity="0"/>
</linearGradient>
<linearGradient id="paint2_linear_376_26636" x1="16.073" y1="56.6359" x2="19.1688" y2="17.6743" gradientUnits="userSpaceOnUse">
<stop stop-color="#00267B"/>
<stop offset="1" stop-color="#00267B" stop-opacity="0"/>
</linearGradient>
</defs>
</svg>
