<svg width="119" height="163" viewBox="0 0 119 163" fill="none" xmlns="http://www.w3.org/2000/svg">
<g id="cyber security" clip-path="url(#clip0_267_19921)">
<path id="Vector" d="M60.8151 24.8664C60.5186 24.5698 60.0737 24.4215 59.6289 24.2733C59.1841 24.1991 58.6651 24.125 58.1462 24.125H56.0703V31.3163H57.9237C59.1099 31.3163 59.9996 31.0939 60.741 30.5749C61.4824 30.056 61.7789 29.0922 61.7789 27.7577C61.7789 27.0905 61.7048 26.4974 61.4824 26.0526C61.3341 25.5336 61.1117 25.1629 60.8151 24.8664Z" fill="white"/>
<path id="Vector_2" d="M67.4905 40.5859H66.0078V45.1825H67.3422C68.0836 45.1825 68.6767 45.0342 69.1215 44.6635C69.5664 44.2928 69.7146 43.6997 69.7146 42.8101C69.7146 41.3273 68.9733 40.5859 67.4905 40.5859Z" fill="white"/>
<path id="Vector_3" d="M60.3703 20.0448C60.9634 19.6 61.2599 18.7845 61.2599 17.5983C61.2599 16.4862 60.9634 15.6707 60.4444 15.2259C59.8513 14.7811 59.0358 14.5586 57.7755 14.5586H56.0703V20.7862H57.4048C58.8134 20.7862 59.7772 20.5638 60.3703 20.0448Z" fill="white"/>
<path id="Vector_4" d="M0.3125 1.21484V58.1586H117.759V1.21484H0.3125ZM72.0112 11.002H85.3574V14.9317H76.8307V20.5668H84.8384V24.4965H76.8307V30.873H85.654V34.8027H72.0112V11.002ZM19.5903 53.1908C18.6264 53.9323 17.2918 54.303 15.5123 54.303C13.7328 54.303 12.3982 53.9323 11.6567 53.1167C10.9153 52.3011 10.4704 51.1889 10.4704 49.706V49.0387H13.6587V49.4835C13.6587 49.8543 13.6587 50.225 13.7328 50.5216C13.807 50.8182 13.8811 51.1147 14.0294 51.263C14.1777 51.4855 14.4001 51.6338 14.6967 51.7821C14.9933 51.9303 15.2899 51.9303 15.7347 51.9303C16.2538 51.9303 16.6986 51.782 17.0694 51.4855C17.4401 51.1889 17.6625 50.6699 17.6625 50.0026C17.6625 49.6318 17.5884 49.3352 17.5142 49.1128C17.4401 48.8904 17.2918 48.5938 17.0694 48.4455C16.8469 48.2231 16.5503 48.0748 16.1796 47.8523C15.8089 47.704 15.364 47.4816 14.845 47.3333C14.1035 47.1109 13.5104 46.8143 12.9914 46.5919C12.4723 46.2953 12.0275 45.9987 11.6567 45.628C11.286 45.2572 11.0636 44.8124 10.9153 44.2934C10.767 43.7743 10.6929 43.2553 10.6929 42.588C10.6929 41.031 11.1377 39.8446 12.0275 39.1032C12.9172 38.3617 14.1035 37.9168 15.6606 37.9168C16.4021 37.9168 16.9952 37.991 17.6625 38.1393C18.3298 38.2876 18.7747 38.5841 19.2196 38.8807C19.6645 39.2515 19.961 39.6963 20.2576 40.2153C20.4801 40.7344 20.6284 41.4017 20.6284 42.1431V42.588H17.5142C17.5142 41.8466 17.3659 41.2534 17.1435 40.8085C16.8469 40.4378 16.4021 40.2153 15.8089 40.2153C15.4382 40.2153 15.1416 40.2895 14.9191 40.3636C14.6967 40.4378 14.4743 40.5861 14.326 40.8085C14.1777 40.9568 14.1035 41.1792 14.0294 41.4017C13.9553 41.6241 13.9553 41.8465 13.9553 42.069C13.9553 42.588 14.0294 42.9587 14.2518 43.3295C14.4743 43.626 14.9191 43.9968 15.5865 44.2192L18.0333 45.2572C18.6264 45.5538 19.1454 45.7763 19.5162 46.0728C19.8869 46.3694 20.1835 46.666 20.4059 47.0367C20.6284 47.4075 20.7766 47.704 20.8508 48.1489C20.9249 48.5938 20.9991 48.9645 20.9991 49.4835C21.0732 51.1889 20.5542 52.4494 19.5903 53.1908ZM19.2937 35.1735C17.5142 35.1735 16.0313 34.8769 14.9933 34.2837C13.9553 33.6905 13.1397 32.8749 12.5465 31.7628C11.9533 30.6506 11.5826 29.3901 11.4343 27.833C11.286 26.3501 11.2119 24.6448 11.2119 22.7911C11.2119 21.0117 11.286 19.3063 11.4343 17.8234C11.5826 16.2663 11.9533 15.0059 12.5465 13.8937C13.1397 12.7815 13.9553 11.9659 14.9933 11.3727C16.0313 10.7796 17.5142 10.483 19.2937 10.483C20.9991 10.483 22.3337 10.7796 23.3717 11.2986C24.3356 11.8918 25.0771 12.5591 25.5961 13.4488C26.1151 14.3386 26.4117 15.2283 26.4858 16.1922C26.6341 17.1561 26.6341 18.12 26.6341 19.0097H21.8147C21.8147 17.3044 21.5922 16.0439 21.2215 15.2283C20.7766 14.4127 20.0352 14.042 18.9971 14.042C18.404 14.042 17.885 14.1903 17.5142 14.561C17.1435 14.8576 16.8469 15.3766 16.6245 16.1181C16.4021 16.8595 16.2538 17.7493 16.1796 18.9356C16.1055 20.1219 16.0313 21.5307 16.0313 23.236C16.0313 25.0155 16.1055 26.4984 16.1796 27.6106C16.3279 28.7228 16.4762 29.6125 16.7728 30.2057C16.9952 30.7989 17.3659 31.2437 17.7367 31.4662C18.1074 31.6886 18.5523 31.7628 19.0713 31.7628C19.5162 31.7628 19.8869 31.6886 20.2576 31.5403C20.6284 31.392 20.9249 31.0954 21.2215 30.6506C21.5181 30.2057 21.6664 29.6125 21.8888 28.7969C22.0371 27.9813 22.1113 26.9433 22.1113 25.6828H26.9307C26.9307 26.9433 26.8566 28.2038 26.6341 29.3901C26.4117 30.5764 26.041 31.5403 25.522 32.4301C25.0029 33.3198 24.1873 33.9871 23.2234 34.432C22.1854 34.951 20.8508 35.1735 19.2937 35.1735ZM33.1589 54.0806H24.039V38.2134H32.9365V40.8085H27.2273V44.5158H32.5658V47.1109H27.2273V51.4113H33.1589V54.0806ZM46.0603 50.4474C45.912 51.1889 45.6895 51.9303 45.3188 52.4494C44.9481 53.0425 44.4291 53.4874 43.7618 53.784C43.0944 54.0806 42.2788 54.303 41.1667 54.303C39.9803 54.303 39.0164 54.0806 38.275 53.7098C37.5335 53.3391 37.0145 52.7459 36.6438 52.0786C36.2731 51.3372 36.0506 50.5216 35.9023 49.4835C35.8282 48.4455 35.754 47.3333 35.754 46.147C35.754 44.9607 35.8282 43.8485 35.9023 42.8104C35.9765 41.7724 36.2731 40.9568 36.6438 40.2153C37.0145 39.4739 37.5335 38.9549 38.275 38.51C39.0164 38.1393 39.9062 37.9168 41.1667 37.9168C42.2788 37.9168 43.2427 38.0651 43.8359 38.51C44.5032 38.8807 45.0222 39.3256 45.3188 39.9188C45.6154 40.5119 45.8378 41.1051 45.912 41.7724C45.9861 42.4397 46.0603 43.0329 46.0603 43.626H42.872C42.872 42.4397 42.7237 41.6241 42.4271 41.1051C42.1306 40.5861 41.6857 40.2895 40.9442 40.2895C40.5735 40.2895 40.2028 40.3636 39.9803 40.5861C39.6837 40.8085 39.5355 41.1792 39.3872 41.6241C39.2389 42.069 39.1647 42.7363 39.0906 43.4778C39.0164 44.2934 39.0164 45.2572 39.0164 46.3694C39.0164 47.5558 39.0906 48.5196 39.1647 49.2611C39.2389 50.0026 39.3872 50.5957 39.5355 50.9664C39.6838 51.3372 39.9062 51.6338 40.2028 51.7821C40.4252 51.9303 40.7959 52.0045 41.0925 52.0045C41.3891 52.0045 41.6115 51.9303 41.9081 51.8562C42.1306 51.782 42.353 51.5596 42.5754 51.263C42.7237 50.9664 42.872 50.5957 43.0203 50.0767C43.0944 49.5577 43.1686 48.8904 43.1686 48.0006H46.3568C46.2827 48.8904 46.2086 49.706 46.0603 50.4474ZM41.1667 25.4604V34.8027H36.3472V25.4604L30.1931 11.002H35.6057L38.7199 20.1961H38.794L42.1306 11.002H47.3207L41.1667 25.4604ZM59.4065 49.2611C59.4065 50.2991 59.2582 51.1147 58.9616 51.7821C58.665 52.4494 58.2943 52.9684 57.8494 53.3391C57.4045 53.7098 56.8114 54.0064 56.2182 54.1547C55.625 54.303 54.9577 54.3771 54.2904 54.3771C53.6231 54.3771 53.0299 54.303 52.4368 54.2288C51.8436 54.0806 51.2505 53.8581 50.8056 53.4874C50.3607 53.1167 49.9158 52.5977 49.6934 51.9303C49.3968 51.263 49.2485 50.3733 49.2485 49.3352V38.2134H52.4368V49.2611C52.4368 49.6318 52.4368 50.0026 52.5109 50.3733C52.5851 50.744 52.6592 50.9664 52.8075 51.263C52.9558 51.4855 53.1782 51.7079 53.4007 51.8562C53.6231 52.0045 53.9197 52.0786 54.2904 52.0786C54.6611 52.0786 54.9577 52.0045 55.2543 51.8562C55.4767 51.7079 55.6992 51.4855 55.8475 51.263C55.9958 51.0406 56.0699 50.744 56.1441 50.3733C56.2182 50.0767 56.2182 49.706 56.2182 49.2611V38.2134H59.4065V49.2611ZM51.3246 34.8027V11.002H59.3323C60.2962 11.002 61.186 11.0762 62.0757 11.2986C62.9654 11.521 63.6328 11.8176 64.2259 12.3366C64.8191 12.8556 65.264 13.4488 65.6347 14.1903C65.9313 15.0059 66.1537 15.8956 66.1537 17.0819C66.1537 18.3424 65.8571 19.4546 65.264 20.4185C64.6708 21.3082 63.781 21.9755 62.5947 22.2721V22.3463C63.9293 22.4946 64.9674 23.0877 65.783 24.0516C66.5244 25.0155 66.9693 26.276 66.9693 27.9072C66.9693 28.8711 66.821 29.7608 66.5986 30.5764C66.3761 31.392 65.9313 32.1335 65.3381 32.8008C64.7449 33.4681 64.0035 33.913 63.0396 34.2837C62.0757 34.6544 60.8894 34.8769 59.5547 34.8769H51.3246V34.8027ZM73.5683 54.0806H70.0834C69.9351 53.8581 69.7868 53.6357 69.7868 53.3391C69.7127 53.0425 69.7127 52.7459 69.7127 52.4494L69.6385 49.4094C69.6385 48.8162 69.4161 48.2972 69.1937 47.9265C68.9712 47.5558 68.4522 47.4075 67.7849 47.4075H66.0796V54.1547H62.8913V38.2134H68.8229C70.1576 38.2134 71.1956 38.5841 71.9371 39.2515C72.6785 39.9188 73.0492 40.9568 73.0492 42.3656C73.0492 43.4036 72.8268 44.2934 72.3819 44.9607C71.937 45.628 71.2697 46.0728 70.38 46.2953V46.3694C71.1956 46.5177 71.7888 46.7402 72.1595 47.185C72.5302 47.5558 72.7527 48.2231 72.8268 49.1128C72.8268 49.4094 72.9009 49.706 72.9009 50.0767C72.9009 50.4474 72.9009 50.8182 72.9751 51.263C72.9751 52.0786 73.0492 52.7459 73.1234 53.1908C73.1975 53.6357 73.42 53.9323 73.7165 54.0806H73.5683ZM79.8706 54.0806H76.6824V38.2134H79.8706V54.0806ZM92.9944 40.8085H89.5095V54.0806H86.3213V40.8085H82.8364V38.2134H92.9944V40.8085ZM101.966 47.8523V54.0806H98.7777V47.8523L94.6256 38.2134H98.2587L100.335 44.3675H100.409L102.633 38.2134H106.118L101.966 47.8523ZM106.341 34.8027H101.15C100.928 34.432 100.78 34.0613 100.706 33.6164C100.631 33.1715 100.557 32.7266 100.557 32.2818L100.409 27.6848C100.335 26.7209 100.112 26.0536 99.7416 25.4604C99.2967 24.9414 98.6294 24.6448 97.5914 24.6448H94.9963V34.7286H90.1768V11.002H99.0743C101.076 11.002 102.633 11.521 103.745 12.4849C104.858 13.523 105.377 15.0059 105.377 17.0819C105.377 18.7131 105.08 19.9736 104.413 21.0117C103.745 22.0497 102.782 22.6429 101.447 22.9394V23.0136C102.633 23.1619 103.523 23.6067 104.116 24.1999C104.635 24.7931 105.006 25.757 105.154 27.0916C105.228 27.5365 105.228 28.0555 105.228 28.5745C105.228 29.0935 105.303 29.6867 105.303 30.354C105.377 31.6145 105.377 32.5784 105.525 33.2457C105.673 33.913 105.97 34.3579 106.415 34.5803V34.8027H106.341Z" fill="white"/>
<path id="Vector_5" d="M97.2943 14.5586H94.9961V21.4534H96.9978C98.184 21.4534 99.0736 21.1569 99.6667 20.6379C100.26 20.119 100.631 19.1552 100.631 17.8948C100.631 15.5966 99.5185 14.5586 97.2943 14.5586Z" fill="white"/>
<path id="Vector_6" d="M11.582 77.0647V63.3477H18.7V64.8307H13.2874V69.1311H18.4034V70.614H13.2874V75.5818H18.9224V77.0647H11.582Z" fill="white"/>
<path id="Vector_7" d="M24.262 70.095L20.8513 63.3477H22.7049L25.2259 68.4638L27.7468 63.3477H29.5263L26.1156 70.095L29.7488 77.0647H27.8951L25.1517 71.5779L22.3342 77.0647H20.5547L24.262 70.095Z" fill="white"/>
<path id="Vector_8" d="M38.0519 72.3189H39.8314C39.7573 73.8018 39.3866 74.9882 38.7192 75.9521C38.0519 76.8418 37.0139 77.3608 35.6793 77.3608C34.9378 77.3608 34.2705 77.2125 33.6773 76.916C33.1583 76.6194 32.7135 76.2486 32.4169 75.8038C32.1203 75.3589 31.8237 74.8399 31.6754 74.1726C31.453 73.5053 31.3788 72.8379 31.3047 72.2448C31.2305 71.6516 31.2305 70.9102 31.2305 70.1687C31.2305 69.4273 31.2305 68.6858 31.3047 68.0926C31.3788 67.4995 31.5271 66.8322 31.6754 66.1648C31.8979 65.4975 32.1203 64.9785 32.4169 64.5336C32.7135 64.0888 33.1583 63.718 33.6773 63.4215C34.1964 63.1249 34.8637 62.9766 35.6051 62.9766C38.2744 62.9766 39.609 64.3854 39.6831 67.277H37.9036C37.8295 65.3492 37.088 64.3854 35.6051 64.3854C35.012 64.3854 34.5671 64.5337 34.1964 64.8302C33.8256 65.1268 33.5291 65.5717 33.3808 66.0907C33.2325 66.6839 33.0842 67.277 33.01 67.8702C32.9359 68.4634 32.9359 69.2048 32.9359 70.1687C32.9359 71.0585 32.9359 71.7999 33.01 72.4672C33.0842 73.0604 33.1583 73.6535 33.3808 74.2467C33.5291 74.8399 33.8256 75.2848 34.1964 75.5072C34.5671 75.8038 35.012 75.9521 35.6051 75.9521C36.1242 75.9521 36.4949 75.8779 36.8656 75.6555C37.2363 75.433 37.4588 75.1365 37.6071 74.7657C37.7554 74.395 37.9036 74.0243 37.9036 73.6536C37.9036 73.2828 37.9778 72.8379 38.0519 72.3189Z" fill="white"/>
<path id="Vector_9" d="M41.832 77.0647V63.3477H48.95V64.8307H43.5374V69.1311H48.6534V70.614H43.5374V75.5818H49.1724V77.0647H41.832Z" fill="white"/>
<path id="Vector_10" d="M51.1758 77.0647V63.3477H52.8811V75.5818H58.442V77.0647H51.1758Z" fill="white"/>
<path id="Vector_11" d="M60.1484 77.0647V63.3477H61.8537V75.5818H67.4146V77.0647H60.1484Z" fill="white"/>
<path id="Vector_12" d="M69.1172 77.0647V63.3477H76.2351V64.8307H70.8225V69.1311H75.9386V70.614H70.8225V75.5818H76.4576V77.0647H69.1172Z" fill="white"/>
<path id="Vector_13" d="M78.4609 77.0647V63.3477H80.6853L85.2082 74.8403H85.2823V63.3477H86.9876V77.1388H84.6891L80.2404 66.017H80.1663V77.1388H78.4609V77.0647Z" fill="white"/>
<path id="Vector_14" d="M96.255 72.3189H98.0345C97.9603 73.8018 97.5896 74.9882 96.9223 75.9521C96.255 76.8418 95.2169 77.3608 93.8823 77.3608C93.1408 77.3608 92.4735 77.2125 91.8804 76.916C91.3614 76.6194 90.9165 76.2486 90.6199 75.8038C90.3233 75.3589 90.0267 74.8399 89.8784 74.1726C89.656 73.5053 89.5819 72.8379 89.5077 72.2448C89.4336 71.6516 89.4336 70.9102 89.4336 70.1687C89.4336 69.4273 89.4336 68.6858 89.5077 68.0926C89.5819 67.4995 89.7302 66.8322 89.8784 66.1648C90.1009 65.4975 90.3233 64.9785 90.6199 64.5336C90.9165 64.0888 91.3614 63.718 91.8804 63.4215C92.3994 63.1249 93.0667 62.9766 93.8082 62.9766C96.4774 62.9766 97.812 64.3854 97.8862 67.277H96.1067C96.0325 65.3492 95.2911 64.3854 93.8082 64.3854C93.215 64.3854 92.7701 64.5337 92.3994 64.8302C92.0287 65.1268 91.7321 65.5717 91.5838 66.0907C91.4355 66.6839 91.2872 67.277 91.2131 67.8702C91.1389 68.4634 91.1389 69.2048 91.1389 70.1687C91.1389 71.0585 91.1389 71.7999 91.2131 72.4672C91.2872 73.0604 91.3614 73.6535 91.5838 74.2467C91.7321 74.8399 92.0287 75.2848 92.3994 75.5072C92.7701 75.8038 93.215 75.9521 93.8082 75.9521C94.3272 75.9521 94.6979 75.8779 95.0686 75.6555C95.4394 75.433 95.6618 75.1365 95.8101 74.7657C95.9584 74.395 96.1067 74.0243 96.1067 73.6536C96.1067 73.2828 96.255 72.8379 96.255 72.3189Z" fill="white"/>
<path id="Vector_15" d="M100.035 77.0647V63.3477H107.153V64.8307H101.74V69.1311H106.856V70.614H101.74V75.5818H107.376V77.0647H100.035Z" fill="white"/>
<path id="Vector_16" d="M22.7812 94.1933L26.7851 80.4023H29.0836L32.7908 94.1933H31.0114L30.0476 90.4119H25.6729L24.6348 94.1933H22.7812ZM27.8231 82.4042L25.8953 89.0773H29.6026L27.8231 82.4042Z" fill="white"/>
<path id="Vector_17" d="M37.2356 94.1935L34.4922 80.4766H36.1976L38.2737 91.7467L40.2014 80.4766H42.2775L44.2053 91.7467H44.2794L46.3555 80.4766H48.0609L45.2433 94.2676H43.1673L41.3136 83.1458H41.2395L39.2376 94.2676H37.2356V94.1935Z" fill="white"/>
<path id="Vector_18" d="M49.8438 94.1933L53.8476 80.4023H56.0719L59.7793 94.1933H57.9997L57.0359 90.4119H52.6613L51.6232 94.1933H49.8438ZM54.8857 82.4042L52.9578 89.0773H56.6651L54.8857 82.4042Z" fill="white"/>
<path id="Vector_19" d="M62.4492 94.1935V80.4766H66.8979C68.0101 80.4766 68.8257 80.7732 69.493 81.3663C70.0862 81.9595 70.4569 82.8492 70.4569 83.8873C70.4569 84.7029 70.3086 85.4443 69.9379 86.1116C69.5671 86.7789 69.0481 87.1497 68.3067 87.3721V87.4463C68.8998 87.5204 69.3447 87.7428 69.7154 88.1877C70.0862 88.6326 70.2344 89.1516 70.3086 89.7448L70.4569 92.1174C70.531 92.8589 70.6052 93.3037 70.6793 93.6003C70.8276 93.8969 70.9759 94.1194 71.1983 94.2676H69.1223C68.8998 94.0452 68.7515 93.3779 68.6774 92.2657L68.5291 90.1155C68.455 89.5223 68.3808 89.0775 68.0842 88.7809C67.7876 88.4843 67.6394 88.2619 67.3428 88.1877C67.1203 88.1136 66.8238 88.1136 66.453 88.1136H64.1545V94.2676H62.4492V94.1935ZM64.1545 81.8112V86.7048H65.8599C66.1564 86.7048 66.3789 86.7048 66.5272 86.7048C66.6755 86.7048 66.972 86.6307 67.2686 86.5565C67.5652 86.4824 67.7876 86.3341 68.0101 86.1858C68.1584 86.0375 68.3808 85.7409 68.5291 85.3702C68.6774 84.9995 68.7515 84.5546 68.7515 84.1097C68.7515 83.4424 68.5291 82.9234 68.0842 82.4785C67.6394 82.1078 67.0462 81.8853 66.2306 81.8853H64.1545V81.8112Z" fill="white"/>
<path id="Vector_20" d="M74.3867 94.1935V80.4766H78.0939C78.7613 80.4766 79.4286 80.5507 79.9476 80.699C80.4666 80.8473 80.9115 81.0697 81.2822 81.4405C81.6529 81.7371 81.8754 82.1078 82.1719 82.4785C82.4685 82.8492 82.5427 83.3682 82.691 83.8873C82.8393 84.4804 82.9134 84.9995 82.9134 85.5185C82.9875 86.0375 82.9876 86.6307 82.9876 87.3721C82.9876 91.9691 81.4305 94.2676 78.3164 94.2676H74.3867V94.1935ZM76.092 81.8112V92.7847H77.8715C78.4647 92.7847 78.9095 92.6364 79.3544 92.414C79.7993 92.1916 80.0959 91.895 80.3183 91.5243C80.5407 91.1535 80.689 90.7828 80.8373 90.2638C80.9856 89.7448 81.0598 89.2257 81.0598 88.7809C81.1339 88.336 81.1339 87.817 81.1339 87.2238C81.1339 86.7048 81.1339 86.2599 81.1339 85.8892C81.1339 85.5185 81.0598 85.0736 80.9856 84.6287C80.9115 84.1838 80.8373 83.739 80.689 83.4424C80.5407 83.1458 80.3183 82.8492 80.0959 82.5527C79.8734 82.2561 79.5769 82.0336 79.2061 81.8853C78.8354 81.737 78.3905 81.6629 77.8715 81.6629H76.092V81.8112Z" fill="white"/>
<path id="Vector_21" d="M94.1835 84.0345H92.4782C92.4782 82.4033 91.7367 81.5877 90.328 81.5877C89.5865 81.5877 89.0675 81.8101 88.6226 82.1809C88.1777 82.5516 88.0294 83.1448 88.0294 83.8121C88.0294 84.3311 88.1777 84.776 88.4002 85.1467C88.6226 85.5174 88.9192 85.7398 89.3641 85.9623C89.7348 86.1847 90.1797 86.333 90.6245 86.4813C91.0694 86.6296 91.5143 86.7779 92.0333 87.0003C92.4782 87.1486 92.923 87.371 93.2938 87.6676C93.6645 87.9642 93.9611 88.2608 94.2577 88.7798C94.4801 89.2247 94.6284 89.8179 94.6284 90.4852C94.6284 91.2266 94.4801 91.8939 94.2577 92.4871C94.0352 93.0803 93.6645 93.451 93.2196 93.7476C92.7748 94.0441 92.3299 94.2666 91.885 94.4149C91.4401 94.5632 90.9211 94.6373 90.4021 94.6373C88.845 94.6373 87.807 94.2666 87.1397 93.5251C86.5465 92.7837 86.2499 91.5973 86.2499 90.0403H87.9553C87.9553 90.411 87.9553 90.7076 87.9553 91.0042C87.9553 91.2266 88.0294 91.5232 88.1036 91.8198C88.1777 92.1164 88.326 92.4129 88.4743 92.5612C88.6226 92.7095 88.9192 92.932 89.2158 93.0061C89.5865 93.1544 89.9572 93.2285 90.4021 93.2285C91.0694 93.2285 91.6626 93.0061 92.1074 92.5612C92.5523 92.1164 92.7748 91.5232 92.7748 90.7817C92.7748 90.2627 92.6265 89.8179 92.404 89.4471C92.1816 89.0764 91.885 88.7798 91.4401 88.6315C91.0694 88.4091 90.6245 88.2608 90.1797 88.1125C89.7348 87.9642 89.2899 87.8159 88.7709 87.5935C88.326 87.371 87.8812 87.1486 87.5104 86.9262C87.1397 86.7037 86.8431 86.333 86.5465 85.814C86.3241 85.3691 86.1758 84.776 86.1758 84.0345C86.1758 83.7379 86.1758 83.4413 86.2499 83.1448C86.3241 82.8482 86.3982 82.5516 86.6207 82.1809C86.769 81.8101 86.9914 81.5136 87.288 81.217C87.5846 80.9204 87.9553 80.698 88.4743 80.5497C88.9933 80.3272 89.5865 80.2531 90.2538 80.2531C92.8489 80.1789 94.1835 81.4394 94.1835 84.0345Z" fill="white"/>
<path id="Vector_22" d="M41.3906 152.693C41.3906 152.248 41.4648 151.803 41.5389 151.358C41.6131 150.988 41.7614 150.543 41.9838 150.172C42.2062 149.801 42.4287 149.43 42.7253 149.06C43.0218 148.689 43.3926 148.318 43.7633 148.022L44.653 147.206C44.8755 146.984 45.0979 146.835 45.2462 146.613C45.3945 146.465 45.4687 146.242 45.5428 146.094C45.6169 145.946 45.6911 145.723 45.6911 145.501C45.6911 145.278 45.7652 145.056 45.7652 144.759C45.7652 143.87 45.3945 143.425 44.7272 143.425C44.4306 143.425 44.2823 143.499 44.0599 143.573C43.9116 143.647 43.7633 143.795 43.6892 144.018C43.615 144.24 43.5409 144.389 43.5409 144.685C43.5409 144.908 43.5409 145.204 43.5409 145.501H41.4648V145.13C41.4648 144.166 41.7614 143.425 42.2804 142.906C42.7994 142.387 43.615 142.09 44.7272 142.09C45.7652 142.09 46.5808 142.313 47.0999 142.832C47.6189 143.351 47.8413 144.018 47.8413 144.982C47.8413 145.352 47.8413 145.649 47.7672 145.946C47.693 146.242 47.6189 146.539 47.4706 146.761C47.3223 147.058 47.174 147.28 46.9516 147.503C46.7291 147.725 46.5067 148.022 46.2101 148.244L45.0238 149.356C44.7272 149.653 44.4306 149.949 44.2823 150.172C44.134 150.469 43.9857 150.691 43.9116 150.839H47.8413V152.47H41.3906V152.693Z" fill="white"/>
<path id="Vector_23" d="M49.915 145.723C49.9891 145.056 50.0633 144.463 50.2857 143.944C50.5081 143.425 50.8047 142.98 51.2496 142.683C51.6945 142.387 52.2876 142.238 53.1032 142.238C53.7705 142.238 54.2895 142.312 54.7344 142.535C55.1793 142.683 55.4759 142.98 55.7725 143.425C56.069 143.869 56.2173 144.388 56.2915 144.982C56.3656 145.649 56.4398 146.39 56.4398 147.354C56.4398 148.096 56.4398 148.763 56.3656 149.43C56.2915 150.098 56.2173 150.691 55.9949 151.21C55.7725 151.729 55.4759 152.1 55.031 152.396C54.5861 152.693 53.993 152.841 53.1774 152.841C52.5101 152.841 51.991 152.767 51.6203 152.619C51.1754 152.47 50.8789 152.174 50.5823 151.729C50.2857 151.284 50.1374 150.765 50.0633 150.172C49.9891 149.505 49.915 148.763 49.915 147.799C49.8408 147.058 49.8408 146.39 49.915 145.723ZM51.991 149.875C51.991 150.32 52.0652 150.617 52.1393 150.839C52.2135 151.062 52.3618 151.284 52.5101 151.358C52.6583 151.432 52.8808 151.506 53.1032 151.506C53.3257 151.506 53.5481 151.432 53.6964 151.358C53.8447 151.21 53.993 151.062 54.0671 150.765C54.1413 150.468 54.2154 150.098 54.2154 149.653C54.2154 149.208 54.2895 148.615 54.2895 147.947V146.835C54.2895 146.168 54.2895 145.649 54.2154 145.204C54.2154 144.759 54.1413 144.463 54.0671 144.24C53.993 144.018 53.8447 143.869 53.6964 143.721C53.5481 143.647 53.3257 143.573 53.1032 143.573C52.8808 143.573 52.6583 143.647 52.5101 143.721C52.3618 143.795 52.2135 144.018 52.1393 144.314C52.0652 144.611 51.991 144.982 51.991 145.427C51.991 145.871 51.9169 146.465 51.9169 147.132V148.244C51.991 148.911 51.991 149.505 51.991 149.875Z" fill="white"/>
<path id="Vector_24" d="M58.293 152.693C58.293 152.248 58.3672 151.803 58.4413 151.358C58.5155 150.988 58.6638 150.543 58.8862 150.172C59.1086 149.801 59.3311 149.43 59.6276 149.06C59.9242 148.689 60.2949 148.318 60.6657 148.022L61.5554 147.206C61.7779 146.984 62.0003 146.835 62.1486 146.613C62.2969 146.465 62.371 146.242 62.4452 146.094C62.5193 145.946 62.5935 145.723 62.5935 145.501C62.5935 145.278 62.6676 145.056 62.6676 144.759C62.6676 143.87 62.2969 143.425 61.6296 143.425C61.333 143.425 61.1847 143.499 60.9623 143.573C60.814 143.647 60.6657 143.795 60.5915 144.018C60.5174 144.24 60.4432 144.389 60.4432 144.685C60.4432 144.908 60.4432 145.204 60.4432 145.501H58.293V145.13C58.293 144.166 58.5896 143.425 59.1086 142.906C59.6276 142.387 60.4432 142.09 61.5554 142.09C62.5935 142.09 63.4091 142.313 63.9281 142.832C64.4471 143.351 64.6695 144.018 64.6695 144.982C64.6695 145.352 64.6695 145.649 64.5954 145.946C64.5212 146.242 64.4471 146.539 64.2988 146.761C64.1505 147.058 64.0022 147.28 63.7798 147.503C63.5574 147.725 63.3349 148.022 63.0383 148.244L61.852 149.356C61.5554 149.653 61.2588 149.949 61.1106 150.172C60.9623 150.469 60.814 150.691 60.7398 150.839H64.6695V152.47H58.293V152.693Z" fill="white"/>
<path id="Vector_25" d="M69.1932 145.278H67.1172V143.869H67.3396C68.0811 143.869 68.6001 143.721 69.0449 143.499C69.4898 143.202 69.7123 142.831 69.7864 142.238H71.3435V152.767H69.1932V145.278Z" fill="white"/>
<path id="Vector_26" d="M0.3125 105.316V134.233H117.759V105.316H0.3125ZM14.845 126.003L11.5085 123.556L8.17192 126.003L9.4324 122.073L6.09585 119.626H10.248L11.5085 115.697L12.7689 119.626H16.9211L13.5845 122.073L14.845 126.003ZM37.3852 126.077H34.4936L33.0848 116.883L31.6019 126.077H28.7102L26.4117 113.398H28.8585L30.2673 122.815L31.7502 113.398H34.197L35.6799 122.815L37.0887 113.398H39.5355L37.3852 126.077ZM45.0222 126.077H42.4271V113.398H45.0222V126.077ZM56.9597 126.077H54.068L50.9539 117.179V126.077H48.5812V113.398H51.547L54.6611 122.073V113.398H57.0338V126.077H56.9597ZM68.7488 126.077H65.8571L62.743 117.179V126.077H60.3704V113.398H63.3362L66.4503 122.073V113.398H68.8229V126.077H68.7488ZM79.4258 126.077H72.1595V113.398H79.2775V115.474H74.7546V118.44H79.055V120.516H74.7546V123.927H79.4999V126.077H79.4258ZM90.9183 126.077H88.1749C88.0266 125.929 87.9525 125.706 87.9525 125.484C87.9525 125.261 87.8783 125.039 87.8783 124.742L87.8042 122.296C87.8042 121.776 87.6559 121.406 87.4335 121.109C87.211 120.813 86.8403 120.664 86.3213 120.664H84.9867V126.003H82.3916V113.324H87.1369C88.1749 113.324 89.0647 113.62 89.6578 114.139C90.251 114.659 90.5476 115.474 90.5476 116.586C90.5476 117.476 90.3993 118.143 90.0286 118.662C89.6578 119.181 89.1388 119.552 88.3974 119.7C89.0647 119.775 89.5095 119.997 89.8061 120.294C90.1027 120.59 90.251 121.109 90.3251 121.851C90.3251 122.073 90.3993 122.37 90.3993 122.592C90.3993 122.889 90.3993 123.185 90.3993 123.556C90.3993 124.223 90.4734 124.742 90.4734 125.113C90.5476 125.484 90.6959 125.706 90.9183 125.854V126.077ZM109.529 126.003L106.192 123.556L102.856 126.003L104.116 122.073L100.78 119.626H104.932L106.192 115.697L107.453 119.626H111.605L108.268 122.073L109.529 126.003Z" fill="white"/>
<path id="Vector_27" d="M86.1003 115.25H84.9141V118.883H85.952C86.5451 118.883 87.0641 118.735 87.3606 118.438C87.6572 118.142 87.8796 117.623 87.8796 116.956C87.8796 115.844 87.2865 115.25 86.1003 115.25Z" fill="white"/>
<path id="Vector_28" d="M59.0355 163C56.2921 163 53.5487 162.778 50.8053 162.407C45.9117 161.74 38.3489 160.405 30.267 157.884C15.1413 153.213 0.460498 151.73 0.312207 151.73H0.015625V0.84375H118.204V151.804H117.907C117.759 151.804 103.078 153.361 87.9522 157.958C79.8704 160.479 72.3075 161.814 67.4139 162.481C64.5222 162.852 61.7788 163 59.0355 163ZM0.682935 151.063C2.98145 151.285 16.4759 152.916 30.4153 157.217C38.4972 159.663 45.9859 160.998 50.8795 161.665C56.2921 162.407 61.7788 162.407 67.1915 161.665C72.0851 160.998 79.5738 159.663 87.6556 157.217C101.595 152.916 115.164 151.285 117.388 151.063V1.58521H0.682935V151.063Z" fill="white"/>
</g>
<defs>
<clipPath id="clip0_267_19921">
<rect width="119" height="163" fill="white"/>
</clipPath>
</defs>
</svg>
