<svg width="50" height="50" viewBox="0 0 50 50" fill="none" xmlns="http://www.w3.org/2000/svg">
<g id="Data flow consultancy, reporting, presentations and demo sessions" clip-path="url(#clip0_943_4477)">
<path id="Vector" d="M34.375 11.7188C36.5289 11.7188 38.2812 9.96641 38.2812 7.8125C38.2812 5.65859 36.5289 3.90625 34.375 3.90625C32.2211 3.90625 30.4688 5.65859 30.4688 7.8125C30.4688 9.96641 32.2211 11.7188 34.375 11.7188ZM34.375 5.46875C35.6672 5.46875 36.7188 6.52031 36.7188 7.8125C36.7188 9.10469 35.6672 10.1562 34.375 10.1562C33.0828 10.1562 32.0312 9.10469 32.0312 7.8125C32.0312 6.52031 33.0828 5.46875 34.375 5.46875Z" fill="#1E1D28"/>
<path id="Vector_2" d="M36.7188 44.5312H34.375C33.9437 44.5312 33.5938 44.1805 33.5938 43.75V32.0312H36.7188V35.1562H46.0938V27.3438H36.7188V30.4688H31.25C30.8188 30.4688 30.4688 30.118 30.4688 29.6875V24.2188H44.5312C47.1164 24.2188 49.2188 22.1164 49.2188 19.5312C49.2188 17.2125 47.5266 15.282 45.3125 14.9086C45.3125 14.8867 45.3125 14.8648 45.3125 14.8438C45.3125 12.0328 43.8211 9.50469 41.4062 8.10703V5.70234L40.3742 5.32734L40.8398 4.33281L37.8555 1.34844L36.8609 1.81328L36.4852 0.78125H32.2648L31.8906 1.81328L30.8961 1.34844L29.2656 2.97813C28.1445 2.56563 26.9773 2.34375 25.7812 2.34375C20.4281 2.34375 16.0297 6.50625 15.6516 11.7641C12.5594 12.1383 10.1562 14.7781 10.1562 17.9688C10.1562 18.2484 10.1789 18.5266 10.2164 18.8031C6.96172 20.275 4.6875 23.5461 4.6875 27.3438V31.2578C4.6875 32.4406 4.08203 33.6047 3.025 34.4523C2.09609 35.1984 1.5625 36.3094 1.5625 37.5C1.5625 38.3258 1.83281 39.125 2.31875 39.7875C1.36484 40.7773 0.78125 42.1086 0.78125 43.5727V49.2188H27.3438V43.5727C27.3438 42.1086 26.7602 40.7773 25.8063 39.7875C26.2922 39.125 26.5625 38.3258 26.5625 37.5C26.5625 36.3094 26.0289 35.1984 25.1 34.4523C24.043 33.6047 23.4375 32.4398 23.4375 31.2578V27.3438C23.4375 26.2469 23.2383 25.1977 22.8906 24.2188H28.9062V29.6875C28.9062 30.9797 29.9578 32.0312 31.25 32.0312H32.0312V43.75C32.0312 45.0422 33.0828 46.0938 34.375 46.0938H36.7188V49.2188H49.2188V41.4062H36.7188V44.5312ZM38.2812 28.9062H44.5312V33.5938H38.2812V28.9062ZM31.2266 3.22734L32.1648 3.66641L33.0063 3.31719L33.3602 2.34375H35.3898L35.6242 2.98672L35.7898 3.33594L36.5859 3.66641L37.5242 3.22734L38.9602 4.6625L38.5227 5.59844L38.8703 6.44297L39.8438 6.79766V8.82812L39.2008 9.06172L38.8547 9.22109L38.5227 10.0266L38.9602 10.9625L37.5242 12.3977L36.5859 11.9586L35.7445 12.3078L35.3898 13.2812H33.3602L33.1258 12.6383L32.9602 12.2891L32.1641 11.9586L31.2258 12.3977L29.7898 10.9625L30.2273 10.0266L29.8797 9.18203L28.9062 8.82734V6.79766L29.5492 6.56406L29.8953 6.40469L30.2273 5.59922L29.7898 4.66328L31.2266 3.22734ZM2.34375 43.5727C2.34375 41.743 3.58906 40.1781 5.37109 39.7664L10.0398 38.6891L12.2812 47.6562H7.03125V42.9688H5.46875V47.6562H2.34375V43.5727ZM14.0625 35.8609C11.2039 34.4961 9.375 31.6133 9.375 28.425V27.5281C9.375 26.9258 9.63359 26.3711 10.0727 25.9891C11.6672 27.3711 13.6828 28.125 15.8141 28.125H18.4531C18.6172 28.125 18.75 28.2578 18.75 28.425C18.75 31.6141 16.9211 34.4961 14.0625 35.8609ZM13.7547 37.4367L14.0625 37.5688L14.3703 37.4367C14.8297 37.2398 15.268 37.0102 15.6836 36.7523C15.8063 37.3273 16.1383 37.825 16.6094 38.1602L15.7969 41.4062H12.3289L11.5172 38.1594C11.9875 37.8242 12.3187 37.3273 12.4422 36.7523C12.8578 37.0102 13.2961 37.2398 13.7547 37.4367ZM15.4062 42.9688L14.2344 47.6562H13.8906L12.7188 42.9688H15.4062ZM25.7812 47.6562H22.6562V42.9688H21.0938V47.6562H15.8438L18.0859 38.6898L22.7539 39.7672C24.5359 40.1781 25.7812 41.743 25.7812 43.5727V47.6562ZM24.1219 35.6711C24.6797 36.1188 25 36.7852 25 37.5C25 37.9844 24.8461 38.4398 24.5688 38.8281C24.1172 38.5734 23.6328 38.3656 23.1047 38.2438L17.7922 37.018C17.4359 36.9359 17.1875 36.6227 17.1875 36.257V35.5977C19.1445 33.7766 20.3125 31.1992 20.3125 28.4219C20.3125 27.3961 19.4789 26.5625 18.4531 26.5625H15.8141C13.8852 26.5625 12.0727 25.8117 10.7086 24.4477L10.3102 24.0492L9.80625 24.3008C8.57734 24.9164 7.8125 26.1531 7.8125 27.5281V28.425C7.8125 31.2 8.98047 33.7766 10.9375 35.5977V36.257C10.9375 36.6227 10.6891 36.9359 10.3328 37.018L5.02031 38.2438C4.49219 38.3664 4.00781 38.5742 3.55625 38.8281C3.27891 38.4398 3.125 37.9844 3.125 37.5C3.125 36.7852 3.44531 36.1188 4.00312 35.6711C5.43125 34.525 6.25 32.9164 6.25 31.2578V27.3438C6.25 23.0359 9.75469 19.5312 14.0625 19.5312C18.3703 19.5312 21.875 23.0359 21.875 27.3438V31.2578C21.875 32.9164 22.6938 34.525 24.1219 35.6711ZM14.0625 17.9688C13.2586 17.9688 12.482 18.0812 11.7367 18.2727C11.7305 18.1711 11.7188 18.0703 11.7188 17.9688C11.7188 15.3836 13.8211 13.2812 16.4062 13.2812H17.1875V12.5C17.1875 7.76172 21.043 3.90625 25.7812 3.90625C26.5445 3.90625 27.2945 4.01719 28.0258 4.21797L27.9109 4.33281L28.3766 5.32734L27.3438 5.70234V9.92188L28.3758 10.2969L27.9102 11.2914L30.8945 14.2758L31.8891 13.8109L32.2648 14.8438H36.4852L36.8594 13.8117L37.8539 14.2766L40.8383 11.2922L40.3727 10.2977L41.3477 9.94375C42.8477 11.1133 43.75 12.893 43.75 14.8438C43.75 15.0805 43.7336 15.3133 43.7078 15.543L43.6109 16.4109H44.4844L44.5789 16.4062C46.2797 16.432 47.6562 17.8242 47.6562 19.5312C47.6562 21.2547 46.2547 22.6562 44.5312 22.6562H22.1687C20.5453 19.8586 17.5234 17.9688 14.0625 17.9688ZM38.2812 42.9688H47.6562V47.6562H38.2812V42.9688Z" fill="#1E1D28"/>
<path id="Vector_3" d="M26.5625 16.4062C25.2703 16.4062 24.2188 17.4578 24.2188 18.75C24.2188 20.0422 25.2703 21.0938 26.5625 21.0938C27.8547 21.0938 28.9062 20.0422 28.9062 18.75C28.9062 17.4578 27.8547 16.4062 26.5625 16.4062ZM26.5625 19.5312C26.1313 19.5312 25.7812 19.1805 25.7812 18.75C25.7812 18.3195 26.1313 17.9688 26.5625 17.9688C26.9938 17.9688 27.3438 18.3195 27.3438 18.75C27.3438 19.1805 26.9938 19.5312 26.5625 19.5312Z" fill="url(#paint0_linear_943_4477)"/>
<path id="Vector_4" d="M32.8125 16.4062C31.5203 16.4062 30.4688 17.4578 30.4688 18.75C30.4688 20.0422 31.5203 21.0938 32.8125 21.0938C34.1047 21.0938 35.1562 20.0422 35.1562 18.75C35.1562 17.4578 34.1047 16.4062 32.8125 16.4062ZM32.8125 19.5312C32.3813 19.5312 32.0312 19.1805 32.0312 18.75C32.0312 18.3195 32.3813 17.9688 32.8125 17.9688C33.2438 17.9688 33.5938 18.3195 33.5938 18.75C33.5938 19.1805 33.2438 19.5312 32.8125 19.5312Z" fill="url(#paint1_linear_943_4477)"/>
<path id="Vector_5" d="M39.0625 16.4062C37.7703 16.4062 36.7188 17.4578 36.7188 18.75C36.7188 20.0422 37.7703 21.0938 39.0625 21.0938C40.3547 21.0938 41.4062 20.0422 41.4062 18.75C41.4062 17.4578 40.3547 16.4062 39.0625 16.4062ZM39.0625 19.5312C38.6313 19.5312 38.2812 19.1805 38.2812 18.75C38.2812 18.3195 38.6313 17.9688 39.0625 17.9688C39.4938 17.9688 39.8438 18.3195 39.8438 18.75C39.8438 19.1805 39.4938 19.5312 39.0625 19.5312Z" fill="url(#paint2_linear_943_4477)"/>
</g>
<defs>
<linearGradient id="paint0_linear_943_4477" x1="26.5625" y1="16.4062" x2="26.5625" y2="21.0938" gradientUnits="userSpaceOnUse">
<stop stop-color="#E9374A"/>
<stop offset="1" stop-color="#E9722A"/>
</linearGradient>
<linearGradient id="paint1_linear_943_4477" x1="32.8125" y1="16.4062" x2="32.8125" y2="21.0938" gradientUnits="userSpaceOnUse">
<stop stop-color="#E9374A"/>
<stop offset="1" stop-color="#E9722A"/>
</linearGradient>
<linearGradient id="paint2_linear_943_4477" x1="39.0625" y1="16.4062" x2="39.0625" y2="21.0938" gradientUnits="userSpaceOnUse">
<stop stop-color="#E9374A"/>
<stop offset="1" stop-color="#E9722A"/>
</linearGradient>
<clipPath id="clip0_943_4477">
<rect width="50" height="50" fill="white"/>
</clipPath>
</defs>
</svg>
