<svg width="52" height="52" viewBox="0 0 52 52" fill="none" xmlns="http://www.w3.org/2000/svg">
<g id="deployment-and-next-steps.svg" clip-path="url(#clip0_871_729)">
<path id="Vector" fill-rule="evenodd" clip-rule="evenodd" d="M44.1594 43.8899H37.0793V41.8385H40.6575L25.3881 26.5691L26.8386 25.1187L42.108 40.388V36.8098H44.1594V43.8899Z" fill="#00267B"/>
<path id="Vector_2" fill-rule="evenodd" clip-rule="evenodd" d="M9.85102 40.388L25.1205 25.1187L26.571 26.5692L11.3016 41.8386H14.8797V43.89H7.79968V36.8099H9.85102V40.388Z" fill="#00267B"/>
<path id="Vector_3" fill-rule="evenodd" clip-rule="evenodd" d="M51.6889 25.71L46.6826 30.7164L45.232 29.2659L47.7622 26.7357H4.19542L6.72557 29.2658L5.27505 30.7164L0.268677 25.71L5.27505 20.7036L6.72557 22.1542L4.19542 24.6844H47.7622L45.232 22.1542L46.6826 20.7036L51.6889 25.71Z" fill="#00267B"/>
<path id="Vector_4" fill-rule="evenodd" clip-rule="evenodd" d="M25.979 0L30.9854 5.00637L29.5349 6.4569L27.0047 3.92675V25.9777H24.9533V3.92675L22.4232 6.4569L20.9727 5.00637L25.979 0Z" fill="#00267B"/>
<path id="Vector_5" fill-rule="evenodd" clip-rule="evenodd" d="M25.9789 52L20.9725 46.9936L22.423 45.5431L24.9532 48.0733V41.4967H27.0045V48.0733L29.5347 45.5431L30.9852 46.9936L25.9789 52ZM27.0045 25.7993V36.7697H24.9532V25.7993H27.0045Z" fill="url(#paint0_linear_871_729)"/>
<path id="Vector_6" fill-rule="evenodd" clip-rule="evenodd" d="M25.9794 40.3816C26.6691 40.3816 27.2281 39.8226 27.2281 39.133C27.2281 38.4434 26.6691 37.8843 25.9794 37.8843C25.2898 37.8843 24.7308 38.4434 24.7308 39.133C24.7308 39.8226 25.2898 40.3816 25.9794 40.3816ZM25.9794 42.433C27.802 42.433 29.2795 40.9556 29.2795 39.133C29.2795 37.3105 27.802 35.833 25.9794 35.833C24.1569 35.833 22.6794 37.3105 22.6794 39.133C22.6794 40.9556 24.1569 42.433 25.9794 42.433Z" fill="#00267B"/>
<path id="Vector_7" fill-rule="evenodd" clip-rule="evenodd" d="M44.1437 7.51025V14.5903H42.0923V11.0121L37.442 15.6625L35.9914 14.2119L40.6418 9.56165H37.0636V7.51025H44.1437ZM24.8917 25.3116L32.6489 17.5545L34.0995 19.005L26.3423 26.7622L24.8917 25.3116Z" fill="url(#paint1_linear_871_729)"/>
<path id="Vector_8" fill-rule="evenodd" clip-rule="evenodd" d="M35.9283 15.7257C35.4407 15.2381 34.6501 15.2381 34.1624 15.7257C33.6748 16.2133 33.6748 17.004 34.1624 17.4915C34.6501 17.9792 35.4407 17.9792 35.9283 17.4915C36.416 17.004 36.416 16.2133 35.9283 15.7257ZM37.3789 14.2752C36.0901 12.9864 34.0007 12.9864 32.712 14.2752C31.4232 15.5639 31.4232 17.6534 32.712 18.9421C34.0007 20.2308 36.0901 20.2308 37.3789 18.9421C38.6676 17.6534 38.6676 15.5639 37.3789 14.2752Z" fill="#00267B"/>
<path id="Vector_9" fill-rule="evenodd" clip-rule="evenodd" d="M7.82385 7.51025L14.904 7.51026V9.56165H11.3258L15.976 14.2119L14.5256 15.6625L9.87523 11.0121V14.5904H7.82385V7.51025ZM25.6253 26.7622L17.868 19.005L19.3186 17.5545L27.0758 25.3116L25.6253 26.7622Z" fill="url(#paint2_linear_871_729)"/>
<path id="Vector_10" fill-rule="evenodd" clip-rule="evenodd" d="M16.0385 15.7252C15.5509 16.2128 15.5509 17.0034 16.0385 17.4911C16.5262 17.9787 17.3168 17.9787 17.8044 17.4911C18.292 17.0034 18.292 16.2128 17.8044 15.7252C17.3168 15.2376 16.5262 15.2376 16.0385 15.7252ZM14.588 14.2747C13.2993 15.5634 13.2993 17.6528 14.588 18.9416C15.8768 20.2303 17.9662 20.2303 19.255 18.9416C20.5437 17.6528 20.5437 15.5634 19.255 14.2747C17.9662 12.9859 15.8768 12.9859 14.588 14.2747Z" fill="#00267B"/>
<g id="Group" filter="url(#filter0_d_871_729)">
<path id="Vector_11" d="M25.9608 29.9983C28.1671 29.9983 29.9556 28.2098 29.9556 26.0035C29.9556 23.7973 28.1671 22.0088 25.9608 22.0088C23.7546 22.0088 21.9661 23.7973 21.9661 26.0035C21.9661 28.2098 23.7546 29.9983 25.9608 29.9983Z" fill="white"/>
</g>
<path id="Vector_12" d="M25.9602 27.6021C26.8427 27.6021 27.5581 26.8867 27.5581 26.0042C27.5581 25.1217 26.8427 24.4062 25.9602 24.4062C25.0777 24.4062 24.3623 25.1217 24.3623 26.0042C24.3623 26.8867 25.0777 27.6021 25.9602 27.6021Z" fill="#0045E6"/>
</g>
<defs>
<filter id="filter0_d_871_729" x="18.7161" y="20.3838" width="14.4895" height="14.4897" filterUnits="userSpaceOnUse" color-interpolation-filters="sRGB">
<feFlood flood-opacity="0" result="BackgroundImageFix"/>
<feColorMatrix in="SourceAlpha" type="matrix" values="0 0 0 0 0 0 0 0 0 0 0 0 0 0 0 0 0 0 127 0" result="hardAlpha"/>
<feOffset dy="1.625"/>
<feGaussianBlur stdDeviation="1.625"/>
<feColorMatrix type="matrix" values="0 0 0 0 0 0 0 0 0 0 0 0 0 0 0 0 0 0 0.45 0"/>
<feBlend mode="normal" in2="BackgroundImageFix" result="effect1_dropShadow_871_729"/>
<feBlend mode="normal" in="SourceGraphic" in2="effect1_dropShadow_871_729" result="shape"/>
</filter>
<linearGradient id="paint0_linear_871_729" x1="25.9789" y1="37.0372" x2="25.9789" y2="28.3412" gradientUnits="userSpaceOnUse">
<stop stop-color="#00267B"/>
<stop offset="1" stop-color="#00267B" stop-opacity="0"/>
</linearGradient>
<linearGradient id="paint1_linear_871_729" x1="33.8816" y1="17.7723" x2="27.5844" y2="24.0695" gradientUnits="userSpaceOnUse">
<stop stop-color="#00267B"/>
<stop offset="1" stop-color="#00267B" stop-opacity="0"/>
</linearGradient>
<linearGradient id="paint2_linear_871_729" x1="18.5765" y1="18.2629" x2="23.7941" y2="23.4804" gradientUnits="userSpaceOnUse">
<stop stop-color="#00267B"/>
<stop offset="1" stop-color="#00267B" stop-opacity="0"/>
</linearGradient>
<clipPath id="clip0_871_729">
<rect width="52" height="52" fill="white"/>
</clipPath>
</defs>
</svg>
