<svg width="52" height="52" viewBox="0 0 52 52" fill="none" xmlns="http://www.w3.org/2000/svg">
<g id="designing-and-developing%E2%80%A8-prototype.svg" clip-path="url(#clip0_871_7623)">
<path id="Vector" fill-rule="evenodd" clip-rule="evenodd" d="M6.03418 4.72119H35.6558V6.60626H26.6059V13.8492H24.7208V6.60626H7.91927V23.5308H17.9592V25.4159H7.91927V42.3404H24.6799V32.3414H26.5649V42.3404H43.3255V25.4159H35.6558V23.5308H43.3255V13.8492H45.2106V44.2254H6.03418V4.72119Z" fill="url(#paint0_linear_871_7623)"/>
<path id="Vector_2" fill-rule="evenodd" clip-rule="evenodd" d="M45.2409 4.64987C44.7898 4.19876 43.5696 3.90676 42.6315 4.82195C42.4825 4.96736 42.204 5.24252 41.8178 5.62558L44.3684 8.18198C44.5233 8.0286 44.66 7.89416 44.7798 7.77636C44.8369 7.72021 44.8901 7.66792 44.9397 7.61912C45.247 7.3162 45.362 7.19562 45.4046 7.13999C46.1118 6.2152 45.8167 5.22571 45.2409 4.64987ZM43.0383 9.51767L40.4809 6.95456C37.379 10.0424 31.7186 15.6966 27.3265 20.0869L29.8853 22.6335C34.2625 18.2888 39.7886 12.7899 43.0383 9.51767ZM28.5472 23.9613L25.9932 21.4196C25.4236 21.9891 24.8865 22.5261 24.3922 23.0204L23.6021 26.535L26.7792 25.7142C27.3246 25.1738 27.9181 24.5854 28.5472 23.9613ZM21.4862 27.3527L22.6729 22.0738L22.8661 21.8807C23.5966 21.1502 24.4284 20.3185 25.3254 19.4218C30.1214 14.6275 36.7851 7.97044 39.8188 4.95419C40.556 4.2213 41.0826 3.69959 41.3151 3.47267C43.0653 1.76517 45.4677 2.2108 46.5738 3.31693C47.6371 4.38028 48.3257 6.42326 46.902 8.28507C46.7598 8.47091 46.5289 8.69953 46.2629 8.96165C46.2119 9.01193 46.1576 9.06534 46.0997 9.12223C45.8298 9.38769 45.4835 9.72817 45.0376 10.1786C41.7664 13.4835 35.3187 19.8978 30.5482 24.6314C29.594 25.5783 28.7067 26.4582 27.9251 27.2326L27.7441 27.4119L22.8215 28.6836L20.214 31.2145L18.9011 29.8618L21.4862 27.3527Z" fill="#00267B"/>
<g id="Group" filter="url(#filter0_d_871_7623)">
<path id="Vector_3" d="M6.95971 9.31738C8.98709 9.31738 10.6306 7.67386 10.6306 5.64648C10.6306 3.6191 8.98709 1.97559 6.95971 1.97559C4.93233 1.97559 3.28882 3.6191 3.28882 5.64648C3.28882 7.67386 4.93233 9.31738 6.95971 9.31738Z" fill="white"/>
</g>
<path id="Vector_4" d="M6.95932 7.11494C7.77027 7.11494 8.42768 6.45753 8.42768 5.64658C8.42768 4.83563 7.77027 4.17822 6.95932 4.17822C6.14837 4.17822 5.49097 4.83563 5.49097 5.64658C5.49097 6.45753 6.14837 7.11494 6.95932 7.11494Z" fill="#0045E6"/>
<g id="Group_2" filter="url(#filter1_d_871_7623)">
<path id="Vector_5" d="M6.95971 46.9365C8.98709 46.9365 10.6306 45.293 10.6306 43.2656C10.6306 41.2382 8.98709 39.5947 6.95971 39.5947C4.93233 39.5947 3.28882 41.2382 3.28882 43.2656C3.28882 45.293 4.93233 46.9365 6.95971 46.9365Z" fill="white"/>
</g>
<path id="Vector_6" d="M6.95932 44.7346C7.77027 44.7346 8.42768 44.0772 8.42768 43.2662C8.42768 42.4553 7.77027 41.7979 6.95932 41.7979C6.14837 41.7979 5.49097 42.4553 5.49097 43.2662C5.49097 44.0772 6.14837 44.7346 6.95932 44.7346Z" fill="#0045E6"/>
<g id="Group_3" filter="url(#filter2_d_871_7623)">
<path id="Vector_7" d="M44.251 46.9365C46.2784 46.9365 47.9219 45.293 47.9219 43.2656C47.9219 41.2382 46.2784 39.5947 44.251 39.5947C42.2236 39.5947 40.5801 41.2382 40.5801 43.2656C40.5801 45.293 42.2236 46.9365 44.251 46.9365Z" fill="white"/>
</g>
<path id="Vector_8" d="M44.2506 44.7346C45.0615 44.7346 45.7189 44.0772 45.7189 43.2662C45.7189 42.4553 45.0615 41.7979 44.2506 41.7979C43.4396 41.7979 42.7822 42.4553 42.7822 43.2662C42.7822 44.0772 43.4396 44.7346 44.2506 44.7346Z" fill="#0045E6"/>
</g>
<defs>
<filter id="filter0_d_871_7623" x="0.317804" y="0.490079" width="13.2838" height="13.2838" filterUnits="userSpaceOnUse" color-interpolation-filters="sRGB">
<feFlood flood-opacity="0" result="BackgroundImageFix"/>
<feColorMatrix in="SourceAlpha" type="matrix" values="0 0 0 0 0 0 0 0 0 0 0 0 0 0 0 0 0 0 127 0" result="hardAlpha"/>
<feOffset dy="1.48551"/>
<feGaussianBlur stdDeviation="1.48551"/>
<feColorMatrix type="matrix" values="0 0 0 0 0 0 0 0 0 0 0 0 0 0 0 0 0 0 0.45 0"/>
<feBlend mode="normal" in2="BackgroundImageFix" result="effect1_dropShadow_871_7623"/>
<feBlend mode="normal" in="SourceGraphic" in2="effect1_dropShadow_871_7623" result="shape"/>
</filter>
<filter id="filter1_d_871_7623" x="0.317804" y="38.1092" width="13.2838" height="13.2838" filterUnits="userSpaceOnUse" color-interpolation-filters="sRGB">
<feFlood flood-opacity="0" result="BackgroundImageFix"/>
<feColorMatrix in="SourceAlpha" type="matrix" values="0 0 0 0 0 0 0 0 0 0 0 0 0 0 0 0 0 0 127 0" result="hardAlpha"/>
<feOffset dy="1.48551"/>
<feGaussianBlur stdDeviation="1.48551"/>
<feColorMatrix type="matrix" values="0 0 0 0 0 0 0 0 0 0 0 0 0 0 0 0 0 0 0.45 0"/>
<feBlend mode="normal" in2="BackgroundImageFix" result="effect1_dropShadow_871_7623"/>
<feBlend mode="normal" in="SourceGraphic" in2="effect1_dropShadow_871_7623" result="shape"/>
</filter>
<filter id="filter2_d_871_7623" x="37.6091" y="38.1092" width="13.2838" height="13.2838" filterUnits="userSpaceOnUse" color-interpolation-filters="sRGB">
<feFlood flood-opacity="0" result="BackgroundImageFix"/>
<feColorMatrix in="SourceAlpha" type="matrix" values="0 0 0 0 0 0 0 0 0 0 0 0 0 0 0 0 0 0 127 0" result="hardAlpha"/>
<feOffset dy="1.48551"/>
<feGaussianBlur stdDeviation="1.48551"/>
<feColorMatrix type="matrix" values="0 0 0 0 0 0 0 0 0 0 0 0 0 0 0 0 0 0 0.45 0"/>
<feBlend mode="normal" in2="BackgroundImageFix" result="effect1_dropShadow_871_7623"/>
<feBlend mode="normal" in="SourceGraphic" in2="effect1_dropShadow_871_7623" result="shape"/>
</filter>
<linearGradient id="paint0_linear_871_7623" x1="29.7204" y1="20.8261" x2="39.7603" y2="10.4174" gradientUnits="userSpaceOnUse">
<stop stop-color="#00267B"/>
<stop offset="1" stop-color="#00267B" stop-opacity="0"/>
</linearGradient>
<clipPath id="clip0_871_7623">
<rect width="51.25" height="51.9928" fill="white" transform="translate(0 0.00341797)"/>
</clipPath>
</defs>
</svg>
