<svg width="69" height="70" viewBox="0 0 69 70" fill="none" xmlns="http://www.w3.org/2000/svg">
<g id="designing" clip-path="url(#clip0_296_25559)">
<path id="Vector" fill-rule="evenodd" clip-rule="evenodd" d="M8.125 6.35156H48.0059V8.8895H35.8216V18.641H33.2836V8.8895H10.663V31.6757H24.1802V34.2137H10.663V56.9999H33.2285V43.5378H35.7664V56.9999H58.3319V34.2137H48.0059V31.6757H58.3319V18.641H60.8699V59.5378H8.125V6.35156Z" fill="url(#paint0_linear_296_25559)"/>
<path id="Vector_2" fill-rule="evenodd" clip-rule="evenodd" d="M60.9115 6.25465C60.3042 5.64731 58.6614 5.25418 57.3984 6.48634C57.1978 6.6821 56.8228 7.05256 56.3029 7.56829L59.7369 11.0101C59.9454 10.8036 60.1295 10.6226 60.2908 10.464C60.3676 10.3884 60.4393 10.318 60.506 10.2523C60.9197 9.84444 61.0746 9.6821 61.1319 9.60721C62.084 8.36213 61.6868 7.02994 60.9115 6.25465ZM57.9461 12.8084L54.503 9.35755C50.3267 13.5148 42.7059 21.1274 36.7926 27.0382L40.2377 30.4668C46.1308 24.6173 53.5709 17.214 57.9461 12.8084ZM38.4361 32.2545L34.9976 28.8324C34.2307 29.5992 33.5075 30.3222 32.8421 30.9877L31.7783 35.7196L36.0558 34.6145C36.7901 33.8869 37.5891 33.0947 38.4361 32.2545ZM28.9296 36.8205L30.5273 29.7133L30.7874 29.4532C31.7709 28.4697 32.8908 27.35 34.0985 26.1427C40.5555 19.688 49.5272 10.7253 53.6116 6.66438C54.604 5.67765 55.313 4.97525 55.6261 4.66974C57.9825 2.37087 61.2169 2.97083 62.7061 4.46007C64.1377 5.89169 65.0647 8.64224 63.1479 11.1489C62.9565 11.3991 62.6456 11.7069 62.2875 12.0598C62.2188 12.1275 62.1457 12.1994 62.0678 12.276C61.7044 12.6334 61.2382 13.0918 60.6378 13.6983C56.2337 18.1477 47.5528 26.7836 41.1302 33.1567C39.8455 34.4315 38.6509 35.6161 37.5986 36.6588L37.3549 36.9002L30.7274 38.6123L27.2168 42.0197L25.4492 40.1985L28.9296 36.8205Z" fill="white"/>
<g id="Group" filter="url(#filter0_d_296_25559)">
<path id="Vector_3" d="M9.36806 12.5408C12.0976 12.5408 14.3103 10.3281 14.3103 7.59853C14.3103 4.86898 12.0976 2.65625 9.36806 2.65625C6.63852 2.65625 4.42578 4.86898 4.42578 7.59853C4.42578 10.3281 6.63852 12.5408 9.36806 12.5408Z" fill="white"/>
</g>
<path id="Vector_4" d="M9.37144 9.57491C10.4633 9.57491 11.3484 8.68982 11.3484 7.598C11.3484 6.50619 10.4633 5.62109 9.37144 5.62109C8.27962 5.62109 7.39453 6.50619 7.39453 7.598C7.39453 8.68982 8.27962 9.57491 9.37144 9.57491Z" fill="#0045E6"/>
<g id="Group_2" filter="url(#filter1_d_296_25559)">
<path id="Vector_5" d="M9.36806 63.1892C12.0976 63.1892 14.3103 60.9765 14.3103 58.247C14.3103 55.5174 12.0976 53.3047 9.36806 53.3047C6.63852 53.3047 4.42578 55.5174 4.42578 58.247C4.42578 60.9765 6.63852 63.1892 9.36806 63.1892Z" fill="white"/>
</g>
<path id="Vector_6" d="M9.37144 60.2234C10.4633 60.2234 11.3484 59.3383 11.3484 58.2464C11.3484 57.1546 10.4633 56.2695 9.37144 56.2695C8.27962 56.2695 7.39453 57.1546 7.39453 58.2464C7.39453 59.3383 8.27962 60.2234 9.37144 60.2234Z" fill="#0045E6"/>
<g id="Group_3" filter="url(#filter2_d_296_25559)">
<path id="Vector_7" d="M59.5751 63.1892C62.3046 63.1892 64.5174 60.9765 64.5174 58.247C64.5174 55.5174 62.3046 53.3047 59.5751 53.3047C56.8455 53.3047 54.6328 55.5174 54.6328 58.247C54.6328 60.9765 56.8455 63.1892 59.5751 63.1892Z" fill="white"/>
</g>
<path id="Vector_8" d="M59.5746 60.2234C60.6664 60.2234 61.5515 59.3383 61.5515 58.2464C61.5515 57.1546 60.6664 56.2695 59.5746 56.2695C58.4827 56.2695 57.5977 57.1546 57.5977 58.2464C57.5977 59.3383 58.4827 60.2234 59.5746 60.2234Z" fill="#0045E6"/>
</g>
<defs>
<filter id="filter0_d_296_25559" x="0.425781" y="0.65625" width="17.8848" height="17.8848" filterUnits="userSpaceOnUse" color-interpolation-filters="sRGB">
<feFlood flood-opacity="0" result="BackgroundImageFix"/>
<feColorMatrix in="SourceAlpha" type="matrix" values="0 0 0 0 0 0 0 0 0 0 0 0 0 0 0 0 0 0 127 0" result="hardAlpha"/>
<feOffset dy="2"/>
<feGaussianBlur stdDeviation="2"/>
<feColorMatrix type="matrix" values="0 0 0 0 0 0 0 0 0 0 0 0 0 0 0 0 0 0 0.45 0"/>
<feBlend mode="normal" in2="BackgroundImageFix" result="effect1_dropShadow_296_25559"/>
<feBlend mode="normal" in="SourceGraphic" in2="effect1_dropShadow_296_25559" result="shape"/>
</filter>
<filter id="filter1_d_296_25559" x="0.425781" y="51.3047" width="17.8848" height="17.8848" filterUnits="userSpaceOnUse" color-interpolation-filters="sRGB">
<feFlood flood-opacity="0" result="BackgroundImageFix"/>
<feColorMatrix in="SourceAlpha" type="matrix" values="0 0 0 0 0 0 0 0 0 0 0 0 0 0 0 0 0 0 127 0" result="hardAlpha"/>
<feOffset dy="2"/>
<feGaussianBlur stdDeviation="2"/>
<feColorMatrix type="matrix" values="0 0 0 0 0 0 0 0 0 0 0 0 0 0 0 0 0 0 0.45 0"/>
<feBlend mode="normal" in2="BackgroundImageFix" result="effect1_dropShadow_296_25559"/>
<feBlend mode="normal" in="SourceGraphic" in2="effect1_dropShadow_296_25559" result="shape"/>
</filter>
<filter id="filter2_d_296_25559" x="50.6328" y="51.3047" width="17.8848" height="17.8848" filterUnits="userSpaceOnUse" color-interpolation-filters="sRGB">
<feFlood flood-opacity="0" result="BackgroundImageFix"/>
<feColorMatrix in="SourceAlpha" type="matrix" values="0 0 0 0 0 0 0 0 0 0 0 0 0 0 0 0 0 0 127 0" result="hardAlpha"/>
<feOffset dy="2"/>
<feGaussianBlur stdDeviation="2"/>
<feColorMatrix type="matrix" values="0 0 0 0 0 0 0 0 0 0 0 0 0 0 0 0 0 0 0.45 0"/>
<feBlend mode="normal" in2="BackgroundImageFix" result="effect1_dropShadow_296_25559"/>
<feBlend mode="normal" in="SourceGraphic" in2="effect1_dropShadow_296_25559" result="shape"/>
</filter>
<linearGradient id="paint0_linear_296_25559" x1="40.0147" y1="28.0343" x2="53.5319" y2="14.0206" gradientUnits="userSpaceOnUse">
<stop stop-color="white"/>
<stop offset="1" stop-color="#252525"/>
</linearGradient>
<clipPath id="clip0_296_25559">
<rect width="69" height="70" fill="white"/>
</clipPath>
</defs>
</svg>
