<svg width="78" height="70" viewBox="0 0 78 70" fill="none" xmlns="http://www.w3.org/2000/svg">
<path fill-rule="evenodd" clip-rule="evenodd" d="M66.4191 14.6265H10.8164V55.2682H66.4191V14.6265ZM8.04053 11.8506V58.0441H69.195V11.8506H8.04053Z" fill="#00267B"/>
<path fill-rule="evenodd" clip-rule="evenodd" d="M16.5585 19.6592H12.7363V17.1475H16.5585V19.6592Z" fill="#00267B"/>
<path fill-rule="evenodd" clip-rule="evenodd" d="M22.3465 19.6592H18.5244V17.1475H22.3465V19.6592Z" fill="#00267B"/>
<path fill-rule="evenodd" clip-rule="evenodd" d="M28.1342 19.6592H24.312V17.1475H28.1342V19.6592Z" fill="#00267B"/>
<path fill-rule="evenodd" clip-rule="evenodd" d="M38.7925 20.5479L51.1216 27.9516V41.6842L38.7927 49.3619L26.1138 41.6951V27.9409L38.7925 20.5479ZM28.6255 30.8213V40.2787L37.5272 45.6616V35.8838L28.6255 30.8213ZM40.0389 35.8731V45.627L48.6099 40.2895V30.8533L40.0389 35.8731ZM47.4038 28.6489L38.7738 33.7033L29.8861 28.6488L38.7737 23.4664L47.4038 28.6489Z" fill="#00267B"/>
<path fill-rule="evenodd" clip-rule="evenodd" d="M4.89551 40.0328L22.4775 29.7676L23.7439 31.9367L6.16192 42.2019L4.89551 40.0328Z" fill="url(#paint0_linear_252_10914)"/>
<path fill-rule="evenodd" clip-rule="evenodd" d="M20.4497 57.2913L34.8101 48.7734L36.0915 50.9337L21.7311 59.4516L20.4497 57.2913Z" fill="url(#paint1_linear_252_10914)"/>
<path fill-rule="evenodd" clip-rule="evenodd" d="M52.3999 38.0671L69.9818 27.8018L71.2482 29.9709L53.6663 40.2361L52.3999 38.0671Z" fill="url(#paint2_linear_252_10914)"/>
<path fill-rule="evenodd" clip-rule="evenodd" d="M35.2324 22.5399L53.7125 12.0693L54.9507 14.2546L36.4706 24.7252L35.2324 22.5399Z" fill="url(#paint3_linear_252_10914)"/>
<g filter="url(#filter0_d_252_10914)">
<path d="M9.40562 43.8474C12.3911 43.8474 14.8112 41.4272 14.8112 38.4417C14.8112 35.4563 12.3911 33.0361 9.40562 33.0361C6.42018 33.0361 4 35.4563 4 38.4417C4 41.4272 6.42018 43.8474 9.40562 43.8474Z" fill="white"/>
</g>
<path d="M9.40541 40.6048C10.5996 40.6048 11.5677 39.6367 11.5677 38.4425C11.5677 37.2483 10.5996 36.2803 9.40541 36.2803C8.21124 36.2803 7.24316 37.2483 7.24316 38.4425C7.24316 39.6367 8.21124 40.6048 9.40541 40.6048Z" fill="#0045E6"/>
<g filter="url(#filter1_d_252_10914)">
<path d="M68.5941 35.3298C71.5795 35.3298 73.9997 32.9096 73.9997 29.9242C73.9997 26.9387 71.5795 24.5186 68.5941 24.5186C65.6087 24.5186 63.1885 26.9387 63.1885 29.9242C63.1885 32.9096 65.6087 35.3298 68.5941 35.3298Z" fill="white"/>
</g>
<path d="M68.5934 32.0872C69.7876 32.0872 70.7557 31.1191 70.7557 29.9249C70.7557 28.7308 69.7876 27.7627 68.5934 27.7627C67.3992 27.7627 66.4312 28.7308 66.4312 29.9249C66.4312 31.1191 67.3992 32.0872 68.5934 32.0872Z" fill="#0045E6"/>
<g filter="url(#filter2_d_252_10914)">
<path d="M54.0702 18.2937C57.0556 18.2937 59.4758 15.8735 59.4758 12.888C59.4758 9.9026 57.0556 7.48242 54.0702 7.48242C51.0847 7.48242 48.6646 9.9026 48.6646 12.888C48.6646 15.8735 51.0847 18.2937 54.0702 18.2937Z" fill="white"/>
</g>
<path d="M54.07 15.0511C55.2641 15.0511 56.2322 14.083 56.2322 12.8888C56.2322 11.6946 55.2641 10.7266 54.07 10.7266C52.8758 10.7266 51.9077 11.6946 51.9077 12.8888C51.9077 14.083 52.8758 15.0511 54.07 15.0511Z" fill="#0045E6"/>
<g filter="url(#filter3_d_252_10914)">
<path d="M23.493 62.4128C26.4785 62.4128 28.8986 59.9926 28.8986 57.0072C28.8986 54.0217 26.4785 51.6016 23.493 51.6016C20.5076 51.6016 18.0874 54.0217 18.0874 57.0072C18.0874 59.9926 20.5076 62.4128 23.493 62.4128Z" fill="white"/>
</g>
<path d="M23.4928 59.1702C24.687 59.1702 25.6551 58.2021 25.6551 57.008C25.6551 55.8138 24.687 54.8457 23.4928 54.8457C22.2986 54.8457 21.3306 55.8138 21.3306 57.008C21.3306 58.2021 22.2986 59.1702 23.4928 59.1702Z" fill="#0045E6"/>
<defs>
<filter id="filter0_d_252_10914" x="0" y="31.0361" width="18.811" height="18.811" filterUnits="userSpaceOnUse" color-interpolation-filters="sRGB">
<feFlood flood-opacity="0" result="BackgroundImageFix"/>
<feColorMatrix in="SourceAlpha" type="matrix" values="0 0 0 0 0 0 0 0 0 0 0 0 0 0 0 0 0 0 127 0" result="hardAlpha"/>
<feOffset dy="2"/>
<feGaussianBlur stdDeviation="2"/>
<feColorMatrix type="matrix" values="0 0 0 0 0 0 0 0 0 0 0 0 0 0 0 0 0 0 0.45 0"/>
<feBlend mode="normal" in2="BackgroundImageFix" result="effect1_dropShadow_252_10914"/>
<feBlend mode="normal" in="SourceGraphic" in2="effect1_dropShadow_252_10914" result="shape"/>
</filter>
<filter id="filter1_d_252_10914" x="59.1885" y="22.5186" width="18.811" height="18.811" filterUnits="userSpaceOnUse" color-interpolation-filters="sRGB">
<feFlood flood-opacity="0" result="BackgroundImageFix"/>
<feColorMatrix in="SourceAlpha" type="matrix" values="0 0 0 0 0 0 0 0 0 0 0 0 0 0 0 0 0 0 127 0" result="hardAlpha"/>
<feOffset dy="2"/>
<feGaussianBlur stdDeviation="2"/>
<feColorMatrix type="matrix" values="0 0 0 0 0 0 0 0 0 0 0 0 0 0 0 0 0 0 0.45 0"/>
<feBlend mode="normal" in2="BackgroundImageFix" result="effect1_dropShadow_252_10914"/>
<feBlend mode="normal" in="SourceGraphic" in2="effect1_dropShadow_252_10914" result="shape"/>
</filter>
<filter id="filter2_d_252_10914" x="44.6646" y="5.48242" width="18.811" height="18.811" filterUnits="userSpaceOnUse" color-interpolation-filters="sRGB">
<feFlood flood-opacity="0" result="BackgroundImageFix"/>
<feColorMatrix in="SourceAlpha" type="matrix" values="0 0 0 0 0 0 0 0 0 0 0 0 0 0 0 0 0 0 127 0" result="hardAlpha"/>
<feOffset dy="2"/>
<feGaussianBlur stdDeviation="2"/>
<feColorMatrix type="matrix" values="0 0 0 0 0 0 0 0 0 0 0 0 0 0 0 0 0 0 0.45 0"/>
<feBlend mode="normal" in2="BackgroundImageFix" result="effect1_dropShadow_252_10914"/>
<feBlend mode="normal" in="SourceGraphic" in2="effect1_dropShadow_252_10914" result="shape"/>
</filter>
<filter id="filter3_d_252_10914" x="14.0874" y="49.6016" width="18.811" height="18.811" filterUnits="userSpaceOnUse" color-interpolation-filters="sRGB">
<feFlood flood-opacity="0" result="BackgroundImageFix"/>
<feColorMatrix in="SourceAlpha" type="matrix" values="0 0 0 0 0 0 0 0 0 0 0 0 0 0 0 0 0 0 127 0" result="hardAlpha"/>
<feOffset dy="2"/>
<feGaussianBlur stdDeviation="2"/>
<feColorMatrix type="matrix" values="0 0 0 0 0 0 0 0 0 0 0 0 0 0 0 0 0 0 0.45 0"/>
<feBlend mode="normal" in2="BackgroundImageFix" result="effect1_dropShadow_252_10914"/>
<feBlend mode="normal" in="SourceGraphic" in2="effect1_dropShadow_252_10914" result="shape"/>
</filter>
<linearGradient id="paint0_linear_252_10914" x1="14.3743" y1="35.9848" x2="22.8377" y2="35.9848" gradientUnits="userSpaceOnUse">
<stop stop-color="#00267B"/>
<stop offset="1" stop-color="#00267B" stop-opacity="0"/>
</linearGradient>
<linearGradient id="paint1_linear_252_10914" x1="28.2433" y1="54.1125" x2="33.1575" y2="48.7615" gradientUnits="userSpaceOnUse">
<stop stop-color="#00267B"/>
<stop offset="1" stop-color="#00267B" stop-opacity="0"/>
</linearGradient>
<linearGradient id="paint2_linear_252_10914" x1="63.8989" y1="32.3809" x2="52.3778" y2="37.3497" gradientUnits="userSpaceOnUse">
<stop stop-color="#00267B"/>
<stop offset="1" stop-color="#00267B" stop-opacity="0"/>
</linearGradient>
<linearGradient id="paint3_linear_252_10914" x1="50.3026" y1="15.0178" x2="40.8564" y2="20.5326" gradientUnits="userSpaceOnUse">
<stop stop-color="#00267B"/>
<stop offset="1" stop-color="#00267B" stop-opacity="0"/>
</linearGradient>
</defs>
</svg>
