<svg width="64" height="64" viewBox="0 0 64 64" fill="none" xmlns="http://www.w3.org/2000/svg">
<path fill-rule="evenodd" clip-rule="evenodd" d="M32.0002 24.607C37.3631 24.607 41.7106 20.2595 41.7106 14.8967C41.7106 9.53384 37.3631 5.18637 32.0002 5.18637C26.6374 5.18637 22.2899 9.53384 22.2899 14.8967C22.2899 20.2595 26.6374 24.607 32.0002 24.607ZM32.0002 27.1449C38.7648 27.1449 44.2485 21.6612 44.2485 14.8967C44.2485 8.13218 38.7648 2.64844 32.0002 2.64844C25.2357 2.64844 19.752 8.13218 19.752 14.8967C19.752 21.6612 25.2357 27.1449 32.0002 27.1449Z" fill="#00267B"/>
<path fill-rule="evenodd" clip-rule="evenodd" d="M30.7312 35.2847V26.6484H33.2691V35.2721L42.6626 41.1884L41.3101 43.3359L32.0117 37.4795L23.0376 43.3254L21.6523 41.1989L30.7312 35.2847Z" fill="url(#paint0_radial_907_5139)"/>
<path fill-rule="evenodd" clip-rule="evenodd" d="M12.6897 58.7027C18.0526 58.7027 22.4 54.3553 22.4 48.9924C22.4 43.6295 18.0526 39.2821 12.6897 39.2821C7.32681 39.2821 2.97934 43.6295 2.97934 48.9924C2.97934 54.3553 7.32681 58.7027 12.6897 58.7027ZM12.6897 61.2407C19.4542 61.2407 24.938 55.7569 24.938 48.9924C24.938 42.2279 19.4542 36.7441 12.6897 36.7441C5.92515 36.7441 0.441406 42.2279 0.441406 48.9924C0.441406 55.7569 5.92515 61.2407 12.6897 61.2407Z" fill="#00267B"/>
<path fill-rule="evenodd" clip-rule="evenodd" d="M51.1994 51.5364C52.6213 51.5364 53.8763 50.367 53.8763 48.8C53.8763 47.233 52.6213 46.0636 51.1994 46.0636C49.7775 46.0636 48.5225 47.233 48.5225 48.8C48.5225 50.367 49.7775 51.5364 51.1994 51.5364ZM51.1994 53.6C53.8504 53.6 55.9994 51.451 55.9994 48.8C55.9994 46.149 53.8504 44 51.1994 44C48.5484 44 46.3994 46.149 46.3994 48.8C46.3994 51.451 48.5484 53.6 51.1994 53.6Z" fill="#00267B"/>
<path fill-rule="evenodd" clip-rule="evenodd" d="M51.1998 54.0879C48.8183 54.0879 46.8877 56.0185 46.8877 58.4H44.7998C44.7998 54.8654 47.6652 52 51.1998 52C54.7344 52 57.5998 54.8654 57.5998 58.4H55.5119C55.5119 56.0185 53.5813 54.0879 51.1998 54.0879Z" fill="#00267B"/>
<path fill-rule="evenodd" clip-rule="evenodd" d="M12.8 51.5364C14.2219 51.5364 15.4769 50.367 15.4769 48.8C15.4769 47.233 14.2219 46.0636 12.8 46.0636C11.3781 46.0636 10.1231 47.233 10.1231 48.8C10.1231 50.367 11.3781 51.5364 12.8 51.5364ZM12.8 53.6C15.451 53.6 17.6 51.451 17.6 48.8C17.6 46.149 15.451 44 12.8 44C10.149 44 8 46.149 8 48.8C8 51.451 10.149 53.6 12.8 53.6Z" fill="#00267B"/>
<path fill-rule="evenodd" clip-rule="evenodd" d="M12.8004 54.0879C10.4189 54.0879 8.48833 56.0185 8.48833 58.4H6.40039C6.40039 54.8654 9.26577 52 12.8004 52C16.335 52 19.2004 54.8654 19.2004 58.4H17.1124C17.1124 56.0185 15.1819 54.0879 12.8004 54.0879Z" fill="#00267B"/>
<path fill-rule="evenodd" clip-rule="evenodd" d="M51.4211 58.7027C56.784 58.7027 61.1315 54.3553 61.1315 48.9924C61.1315 43.6295 56.784 39.2821 51.4211 39.2821C46.0583 39.2821 41.7108 43.6295 41.7108 48.9924C41.7108 54.3553 46.0583 58.7027 51.4211 58.7027ZM51.4211 61.2407C58.1856 61.2407 63.6693 55.7569 63.6693 48.9924C63.6693 42.2279 58.1856 36.7441 51.4211 36.7441C44.6566 36.7441 39.1729 42.2279 39.1729 48.9924C39.1729 55.7569 44.6566 61.2407 51.4211 61.2407Z" fill="#00267B"/>
<path fill-rule="evenodd" clip-rule="evenodd" d="M31.9992 17.1361C33.4211 17.1361 34.6761 15.9667 34.6761 14.3997C34.6761 12.8326 33.4211 11.6632 31.9992 11.6632C30.5773 11.6632 29.3223 12.8326 29.3223 14.3997C29.3223 15.9667 30.5773 17.1361 31.9992 17.1361ZM31.9992 19.1997C34.6502 19.1997 36.7992 17.0506 36.7992 14.3997C36.7992 11.7487 34.6502 9.59961 31.9992 9.59961C29.3483 9.59961 27.1992 11.7487 27.1992 14.3997C27.1992 17.0506 29.3483 19.1997 31.9992 19.1997Z" fill="#00267B"/>
<path fill-rule="evenodd" clip-rule="evenodd" d="M31.9996 19.6875C29.6181 19.6875 27.6876 21.6181 27.6876 23.9996H25.5996C25.5996 20.4649 28.465 17.5996 31.9996 17.5996C35.5342 17.5996 38.3996 20.4649 38.3996 23.9996H36.3117C36.3117 21.6181 34.3811 19.6875 31.9996 19.6875Z" fill="#00267B"/>
<g filter="url(#filter0_d_907_5139)">
<path d="M32.0956 42.4363C34.8251 42.4363 37.0379 40.2236 37.0379 37.494C37.0379 34.7645 34.8251 32.5518 32.0956 32.5518C29.3661 32.5518 27.1533 34.7645 27.1533 37.494C27.1533 40.2236 29.3661 42.4363 32.0956 42.4363Z" fill="white"/>
</g>
<path d="M32.0951 39.4714C33.1869 39.4714 34.072 38.5863 34.072 37.4945C34.072 36.4027 33.1869 35.5176 32.0951 35.5176C31.0033 35.5176 30.1182 36.4027 30.1182 37.4945C30.1182 38.5863 31.0033 39.4714 32.0951 39.4714Z" fill="#0045E6"/>
<defs>
<filter id="filter0_d_907_5139" x="23.1533" y="30.5518" width="17.8846" height="17.8848" filterUnits="userSpaceOnUse" color-interpolation-filters="sRGB">
<feFlood flood-opacity="0" result="BackgroundImageFix"/>
<feColorMatrix in="SourceAlpha" type="matrix" values="0 0 0 0 0 0 0 0 0 0 0 0 0 0 0 0 0 0 127 0" result="hardAlpha"/>
<feOffset dy="2"/>
<feGaussianBlur stdDeviation="2"/>
<feColorMatrix type="matrix" values="0 0 0 0 0 0 0 0 0 0 0 0 0 0 0 0 0 0 0.45 0"/>
<feBlend mode="normal" in2="BackgroundImageFix" result="effect1_dropShadow_907_5139"/>
<feBlend mode="normal" in="SourceGraphic" in2="effect1_dropShadow_907_5139" result="shape"/>
</filter>
<radialGradient id="paint0_radial_907_5139" cx="0" cy="0" r="1" gradientUnits="userSpaceOnUse" gradientTransform="translate(32.1105 36.3587) rotate(90) scale(9.10345 11.4517)">
<stop offset="0.53125" stop-color="#00267B" stop-opacity="0"/>
<stop offset="1" stop-color="#00267B"/>
</radialGradient>
</defs>
</svg>
