<svg width="288" height="100" viewBox="0 0 288 100" fill="none" xmlns="http://www.w3.org/2000/svg">
<path d="M83.5796 14.8554C95.8244 14.8554 108.029 14.8554 120.254 14.8554C120.254 37.886 120.254 60.8965 120.254 83.9372C117.778 83.9372 115.313 83.9372 112.808 83.9372C112.798 83.726 112.788 83.5046 112.778 83.2933C112.728 79.9026 112.687 76.522 112.627 73.1313C112.617 72.8294 112.516 72.5074 112.386 72.2358C111.45 70.304 109.759 69.5192 107.737 69.2677C106.56 69.1268 105.383 68.9658 104.045 68.7847C104.306 68.6841 104.457 68.6137 104.618 68.5634C106.56 67.9094 108.472 67.2151 110.242 66.1587C110.725 65.8669 111.198 65.5349 111.601 65.1425C112.546 64.2269 112.516 63.2409 111.41 62.5466C110.464 61.9631 109.438 61.47 108.371 61.1481C106.811 60.6752 105.182 60.3834 103.592 60.0111C103.501 59.991 103.411 59.9709 103.32 59.8502C103.954 59.669 104.598 59.5181 105.212 59.2867C106.892 58.673 108.572 58.0492 110.222 57.365C110.735 57.1537 111.198 56.7814 111.611 56.389C112.214 55.8155 112.194 55.1414 111.52 54.6786C110.816 54.1856 110.031 53.7529 109.226 53.4813C107.325 52.8474 105.383 52.3242 103.451 51.7607C103.139 51.6702 102.827 51.5595 102.405 51.4187C103.944 51.0766 105.373 50.815 106.771 50.4326C107.999 50.1006 109.196 49.668 110.373 49.2051C110.846 49.024 111.279 48.692 111.661 48.3499C112.214 47.8469 112.255 47.1828 111.701 46.6697C111.218 46.2169 110.665 45.8144 110.081 45.5025C108.22 44.5266 106.198 43.9631 104.175 43.4098C103.984 43.3594 103.803 43.2991 103.602 43.1582C104.155 42.9771 104.729 42.8262 105.272 42.6048C106.801 41.981 108.341 41.3673 109.83 40.6529C110.383 40.3913 110.886 39.9386 111.319 39.4858C111.923 38.8419 111.903 38.0973 111.218 37.5439C110.554 37.0006 109.81 36.4875 109.005 36.1957C107.003 35.4512 104.95 34.8374 102.918 34.1633C102.797 34.123 102.666 34.0828 102.435 34.0023C103.481 33.7709 104.437 33.63 105.353 33.3483C106.761 32.9157 108.15 32.4327 109.518 31.8995C110.001 31.7083 110.444 31.3461 110.826 30.9839C111.52 30.3299 111.54 29.5753 110.836 28.9213C110.363 28.4886 109.81 28.1063 109.236 27.8246C107.335 26.8687 105.282 26.3757 103.22 25.933C101.831 25.6312 100.422 25.4098 99.0239 25.1684C98.883 25.1482 98.6718 25.1784 98.5913 25.279C97.8367 26.1745 97.0921 27.08 96.2872 28.056C97.1726 28.1868 97.9775 28.2773 98.7724 28.4283C100.503 28.7502 102.223 29.0923 103.944 29.4344C104.256 29.4948 104.558 29.6256 104.829 29.7664C104.97 29.8369 105.061 30.018 105.182 30.1488C105.061 30.2594 104.95 30.4204 104.809 30.4607C104.004 30.672 103.189 30.9436 102.374 31.0141C98.2794 31.3561 94.1944 31.658 90.0994 31.9397C88.1274 32.0705 86.1453 32.1208 84.1732 32.2013C83.9921 32.2114 83.811 32.2013 83.5997 32.2013C83.5796 26.416 83.5796 20.6508 83.5796 14.8554Z" fill="black"/>
<path d="M133.293 60.3331C133.484 59.3873 133.676 58.4415 133.857 57.4958C134.249 55.5438 134.662 53.5919 134.994 51.6299C135.094 51.0464 135.406 50.8854 135.879 50.8753C136.845 50.8452 137.821 50.8653 138.847 50.8653C139.461 54.0044 140.065 57.1336 140.668 60.2627C140.698 60.2627 140.739 60.2627 140.769 60.2627C141.644 57.1637 142.52 54.0648 143.395 50.976C144.743 50.976 146.051 50.976 147.399 50.976C147.027 52.3141 146.665 53.612 146.293 54.92C145.327 58.3309 144.351 61.7518 143.405 65.1626C143.284 65.5852 143.123 65.7462 142.66 65.7361C141.272 65.6958 139.883 65.726 138.475 65.726C137.982 63.1805 137.509 60.7456 137.036 58.3107C137.006 58.3107 136.966 58.3107 136.935 58.3007C136.442 60.7758 135.949 63.2408 135.436 65.8266C133.877 65.8367 132.307 65.8468 130.738 65.8669C130.365 65.8769 130.416 65.5852 130.365 65.3839C129.711 62.6673 129.057 59.9508 128.413 57.2241C127.971 55.3527 127.518 53.4812 127.075 51.6098C127.045 51.469 127.015 51.3281 126.975 51.1067C128.061 51.1067 129.098 51.1067 130.134 51.1067C130.959 51.1067 130.959 51.1067 131.15 51.9217C131.824 54.7188 132.498 57.5159 133.162 60.323C133.223 60.3331 133.263 60.3331 133.293 60.3331Z" fill="black"/>
<path d="M178.68 65.9575C178.68 61.0575 178.68 56.1777 178.68 51.2979C178.761 51.2778 178.831 51.2577 178.892 51.2577C181.518 51.1973 184.144 51.1068 186.77 51.0866C188.641 51.0665 190.1 52.123 190.654 53.7831C191.207 55.4433 190.633 57.1336 189.134 58.2705C189.094 58.3007 189.054 58.3309 188.983 58.3913C189.114 58.4818 189.235 58.5724 189.356 58.6529C190.784 59.659 191.418 61.46 190.925 63.1403C190.442 64.8105 188.983 66.038 187.253 66.0681C184.456 66.1084 181.659 66.048 178.851 66.0279C178.811 66.0078 178.771 65.9776 178.68 65.9575ZM182.373 63.1503C183.54 63.1503 184.657 63.1503 185.774 63.1503C186.86 63.1503 187.635 62.4259 187.655 61.4198C187.675 60.4035 186.88 59.6389 185.774 59.6288C184.768 59.6188 183.761 59.6288 182.755 59.6288C182.625 59.6288 182.504 59.659 182.373 59.6691C182.373 60.8261 182.373 61.9429 182.373 63.1503ZM182.383 57.1738C183.389 57.1738 184.335 57.2141 185.291 57.1638C186.166 57.1235 186.85 56.379 186.891 55.5137C186.931 54.6383 186.337 53.7731 185.492 53.7026C184.466 53.6221 183.429 53.6825 182.383 53.6825C182.383 54.8496 182.383 55.9765 182.383 57.1738Z" fill="black"/>
<path d="M163.98 65.9474C163.98 60.9368 163.98 56.067 163.98 51.1772C164.051 51.1571 164.111 51.1269 164.172 51.1269C166.888 51.0665 169.595 50.986 172.311 50.976C174.012 50.9659 175.451 52.0827 175.974 53.6925C176.487 55.2722 175.954 56.9726 174.615 58.0089C174.515 58.0894 174.414 58.1699 174.283 58.2705C175.3 58.8943 175.984 59.7495 176.276 60.8965C176.879 63.3113 175.088 65.877 172.623 65.9373C169.766 65.9977 166.898 65.9474 163.98 65.9474ZM167.683 63.0296C168.86 63.0296 170.007 63.0396 171.154 63.0296C172.17 63.0195 172.915 62.275 172.925 61.299C172.935 60.2929 172.201 59.5282 171.164 59.5081C170.078 59.4879 168.991 59.498 167.904 59.5081C167.824 59.5081 167.754 59.5382 167.683 59.5584C167.683 60.7154 167.683 61.8423 167.683 63.0296ZM167.673 56.9927C168.74 56.9927 169.796 57.0631 170.832 56.9726C171.627 56.9021 172.191 56.0872 172.191 55.2823C172.191 54.4975 171.637 53.6724 170.883 53.602C169.826 53.5114 168.76 53.5819 167.683 53.5819C167.673 54.7188 167.673 55.8457 167.673 56.9927Z" fill="black"/>
<path d="M161.838 60.7356C161.415 61.9228 160.771 62.8887 159.906 63.6936C155.7 67.6277 149.009 65.5248 147.661 59.8602C146.635 55.5338 149.17 51.2778 153.336 50.322C157.089 49.4567 160.912 51.8312 162.059 55.6646C162.351 56.6305 162.371 57.5763 162.341 58.6026C158.497 58.6026 154.684 58.6026 150.871 58.6026C150.971 60.152 152.138 61.5606 153.819 62.0134C155.267 62.4058 156.555 62.0536 157.692 61.0575C157.894 60.8764 158.215 60.7557 158.477 60.7456C159.574 60.7155 160.681 60.7356 161.838 60.7356ZM151.082 56.3991C152.38 56.3991 153.638 56.3991 154.885 56.3991C156.153 56.3991 157.411 56.3991 158.698 56.3991C158.236 54.8396 156.565 53.6825 154.865 53.6926C153.175 53.7127 151.535 54.8597 151.082 56.3991Z" fill="black"/>
<path d="M83.5696 41.0856C83.5696 39.1739 83.5696 37.3226 83.5696 35.4008C84.7166 35.4914 85.8435 35.5719 86.9703 35.6826C89.9184 35.9643 92.8764 36.2158 95.8144 36.578C98.3901 36.9 100.936 37.3528 103.501 37.7753C103.904 37.8458 104.306 38.0068 104.689 38.1677C104.85 38.2382 104.97 38.4193 105.111 38.5501C104.96 38.6909 104.839 38.9123 104.658 38.9626C103.803 39.194 102.948 39.4657 102.073 39.5663C99.2352 39.9084 96.3879 40.2203 93.5304 40.4618C90.3611 40.7234 87.1816 40.8843 84.0022 41.0856C83.8915 41.0956 83.7507 41.0856 83.5696 41.0856Z" fill="black"/>
<path d="M191.006 50.9558C192.163 50.9558 193.31 50.9458 194.457 50.976C194.587 50.976 194.748 51.1671 194.839 51.308C195.926 52.9178 197.012 54.5276 198.129 56.1878C198.36 55.8558 198.572 55.5539 198.773 55.2521C199.618 54.0045 200.453 52.7468 201.308 51.5092C201.399 51.3684 201.57 51.1973 201.711 51.1973C202.848 51.1671 203.975 51.1872 205.212 51.1872C205.071 51.4086 204.981 51.5696 204.88 51.7104C203.321 54.0145 201.761 56.3186 200.222 58.6327C200.041 58.9044 199.93 59.2766 199.93 59.5986C199.9 61.4399 199.92 63.2912 199.92 65.1324C199.92 65.3135 199.92 65.4946 199.92 65.7059C198.783 65.7059 197.706 65.7059 196.559 65.7059C196.559 65.5047 196.559 65.3336 196.559 65.1525C196.559 63.3415 196.549 61.5304 196.569 59.7193C196.569 59.3672 196.469 59.1056 196.278 58.8239C194.517 56.2582 192.776 53.6825 191.026 51.1068C190.995 51.0766 191.006 51.0363 191.006 50.9558Z" fill="black"/>
<path d="M83.5596 61.6914C85.0487 61.782 86.4673 61.8524 87.886 61.953C90.9245 62.1744 93.9732 62.3655 97.0117 62.6472C99.0743 62.8384 101.127 63.1604 103.189 63.4421C103.532 63.4924 103.874 63.6232 104.186 63.7641C104.457 63.8848 104.467 64.1061 104.196 64.247C103.854 64.408 103.491 64.579 103.119 64.6394C100.624 65.062 98.1386 65.5148 95.6333 65.8367C92.2929 66.2593 88.9324 66.5611 85.592 66.9133C85.0788 66.9636 84.5557 67.024 84.0425 67.0542C83.801 67.0743 83.5696 67.0642 83.5696 66.702C83.5596 65.0519 83.5596 63.4119 83.5596 61.6914Z" fill="black"/>
<path d="M83.5796 58.1598C83.5796 56.3689 83.5796 54.5981 83.5796 52.8172C85.2699 53.0184 86.9502 53.2197 88.6204 53.4008C91.669 53.7328 94.7176 54.0145 97.7562 54.3868C99.7483 54.6283 101.73 54.9703 103.702 55.2923C104.045 55.3527 104.367 55.5338 104.688 55.6646C104.688 55.725 104.688 55.7954 104.688 55.8558C104.447 55.9664 104.216 56.1475 103.964 56.1878C102.354 56.4695 100.744 56.8116 99.1145 56.9625C95.0597 57.3449 91.0049 57.6366 86.9502 57.9586C85.8535 58.0592 84.7266 58.0995 83.5796 58.1598Z" fill="black"/>
<path d="M104.819 47.3438C104.588 47.4444 104.367 47.6054 104.125 47.6456C102.676 47.8871 101.227 48.1688 99.7584 48.3197C94.8383 48.8228 89.9183 49.2756 84.9983 49.7585C84.5354 49.8088 84.0726 49.8994 83.5796 49.9799C83.5796 48.1889 83.5796 46.4382 83.5796 44.6272C83.7406 44.6272 83.9016 44.6171 84.0625 44.6272C87.4532 44.919 90.844 45.1705 94.2246 45.5025C96.8708 45.7641 99.5169 46.1062 102.153 46.4382C102.797 46.5187 103.431 46.6898 104.065 46.8508C104.326 46.9212 104.558 47.0721 104.809 47.1828C104.819 47.2331 104.819 47.2935 104.819 47.3438Z" fill="black"/>
<path d="M138.425 71.0586C138.666 70.968 138.867 70.8976 139.119 70.797C140.477 74.3084 141.815 77.7998 143.224 81.4521C144.522 77.5482 145.779 73.7953 147.077 69.9015C148.436 73.7752 149.754 77.5181 151.102 81.3816C152.4 77.7796 153.648 74.3084 154.905 70.8071C155.147 70.8876 155.348 70.958 155.61 71.0385C154.12 75.2341 152.641 79.3995 151.112 83.6958C149.764 79.8523 148.456 76.1296 147.108 72.2861C145.81 76.1598 144.552 79.8926 143.254 83.7763C141.624 79.47 140.034 75.2844 138.425 71.0586Z" fill="black"/>
<path d="M158.236 45.2611C155.308 45.2611 152.42 45.2611 149.452 45.2611C149.452 45.1202 149.452 44.9391 149.452 44.758C149.452 43.1783 149.452 41.6088 149.452 40.0291C149.452 37.7351 149.462 35.4512 149.442 33.1571C149.442 32.805 149.522 32.644 149.915 32.644C152.48 32.6541 155.046 32.6541 157.612 32.6541C157.672 32.6541 157.743 32.6742 157.833 32.6843C157.833 33.0062 157.833 33.3181 157.833 33.7005C155.358 33.7005 152.893 33.7005 150.398 33.7005C150.398 35.2801 150.398 36.7793 150.398 38.3489C152.802 38.3489 155.207 38.3489 157.632 38.3489C157.632 38.7211 157.632 39.033 157.632 39.3852C155.217 39.3852 152.823 39.3852 150.398 39.3852C150.398 40.995 150.398 42.5646 150.398 44.1744C153.004 44.1744 155.589 44.1744 158.226 44.1744C158.236 44.5366 158.236 44.8485 158.236 45.2611Z" fill="black"/>
<path d="M137.69 38.4495C140.316 38.4495 142.841 38.4495 145.417 38.4495C145.417 36.5378 145.417 34.6563 145.417 32.7446C145.749 32.7446 146.021 32.7446 146.323 32.7446C146.323 36.9201 146.323 41.0755 146.323 45.2711C146.051 45.2711 145.769 45.2711 145.437 45.2711C145.437 43.3393 145.437 41.3874 145.437 39.3952C142.841 39.3952 140.306 39.3952 137.71 39.3952C137.71 41.2767 137.71 43.1582 137.71 45.08C137.348 45.08 137.036 45.08 136.684 45.08C136.684 40.9548 136.684 36.8296 136.684 32.6742C136.996 32.6742 137.308 32.6742 137.68 32.6742C137.69 34.5859 137.69 36.5076 137.69 38.4495Z" fill="black"/>
<path d="M175.692 78.0714C176.889 79.6008 178.067 81.0999 179.274 82.6393C179.083 82.7902 178.902 82.9311 178.69 83.0921C177.574 81.6634 176.447 80.295 175.4 78.8663C174.958 78.2525 174.485 78.0211 173.74 78.0714C172.653 78.1419 171.567 78.0916 170.44 78.0916C170.44 79.7316 170.44 81.3112 170.44 82.921C170.188 82.921 169.977 82.921 169.695 82.921C169.695 82.7601 169.695 82.5991 169.695 82.4482C169.675 78.7959 169.645 75.1436 169.625 71.4812C169.625 70.8272 169.776 70.6763 170.43 70.6662C172.171 70.6561 173.921 70.7065 175.662 70.6159C176.909 70.5455 177.694 71.129 178.328 72.0748C179.767 74.228 178.731 77.1357 176.276 77.9004C176.084 77.9608 175.913 78.0111 175.692 78.0714ZM170.4 77.3068C171.929 77.3068 173.398 77.3168 174.867 77.3068C176.185 77.2967 177.191 76.7031 177.825 75.5661C178.459 74.4191 178.137 73.3224 177.513 72.2962C177.181 71.7629 176.658 71.4208 176.014 71.4108C174.203 71.3806 172.402 71.4007 170.591 71.4108C170.531 71.4108 170.47 71.4409 170.4 71.4611C170.4 73.413 170.4 75.3448 170.4 77.3068Z" fill="black"/>
<path d="M181.89 70.6662C183.842 70.7366 185.774 70.6964 187.675 70.8976C189.758 71.119 191.197 72.3364 191.972 74.2984C192.495 75.6064 192.726 76.9647 192.605 78.3833C192.394 80.8081 190.975 82.3375 188.42 82.8305C187.595 82.9814 186.76 83.082 185.925 83.1122C184.586 83.1625 183.248 83.1223 181.88 83.1223C181.89 79.0977 181.89 74.9624 181.89 70.6662ZM182.624 82.5588C184.526 82.418 186.377 82.3777 188.188 82.1061C190.704 81.7237 191.921 80.2648 191.881 77.7193C191.861 76.7232 191.629 75.6969 191.328 74.731C190.764 72.9401 189.466 71.8434 187.615 71.6321C185.975 71.4409 184.315 71.4711 182.634 71.4107C182.624 75.1536 182.624 78.7858 182.624 82.5588Z" fill="black"/>
<path d="M132.388 70.3141C134.41 74.4996 136.402 78.6047 138.415 82.7701C138.163 82.8406 137.952 82.9009 137.68 82.9714C137.227 82.0457 136.775 81.1301 136.352 80.2145C136.191 79.8624 136 79.7114 135.577 79.7114C133.464 79.7014 131.361 79.641 129.249 79.5806C128.896 79.5706 128.705 79.6511 128.554 79.9831C128.081 81.0094 127.568 82.0256 127.055 83.082C126.834 82.9814 126.643 82.8909 126.391 82.7701C128.383 78.6248 130.365 74.4996 132.388 70.3141ZM135.698 78.8763C134.601 76.6427 133.525 74.4292 132.398 72.1251C131.301 74.3889 130.235 76.5823 129.118 78.8763C131.351 78.8763 133.494 78.8763 135.698 78.8763Z" fill="black"/>
<path d="M168.015 82.7701C167.723 82.8405 167.512 82.8808 167.271 82.9412C166.808 81.9853 166.335 81.0395 165.892 80.0938C165.761 79.812 165.631 79.7114 165.309 79.7014C163.166 79.6712 161.022 79.6209 158.879 79.5505C158.507 79.5404 158.306 79.6309 158.155 79.9831C157.692 80.9993 157.179 82.0054 156.666 83.0518C156.444 82.9512 156.243 82.8607 155.992 82.75C157.984 78.6147 159.956 74.4996 161.978 70.304C164.011 74.4795 166.003 78.5946 168.015 82.7701ZM161.988 72.105C160.882 74.3789 159.825 76.5622 158.708 78.8562C160.962 78.8562 163.105 78.8562 165.299 78.8562C164.192 76.6125 163.105 74.399 161.988 72.105Z" fill="black"/>
<path d="M194.557 81.1804C194.789 80.9792 194.95 80.8383 195.131 80.6874C195.996 81.4621 196.982 82.0055 198.109 82.1664C198.854 82.2671 199.659 82.2872 200.393 82.1363C201.57 81.8948 202.184 80.9792 202.556 79.8925C202.607 79.7517 202.536 79.5605 202.486 79.4197C202.234 78.7757 201.751 78.3129 201.138 78.0614C200.041 77.6086 198.924 77.2263 197.807 76.8238C197.324 76.6528 196.811 76.532 196.338 76.3308C194.99 75.7674 194.588 75.0429 194.759 73.6142C194.99 71.6623 196.328 70.4449 198.29 70.3744C199.276 70.3342 200.242 70.3644 201.138 70.8071C201.59 71.0284 201.993 71.3504 202.496 71.6824C202.234 71.9239 202.063 72.0748 201.872 72.2559C200.997 71.6321 200.041 71.28 198.994 71.1391C197.113 70.8876 195.372 72.5175 195.553 74.4091C195.574 74.6204 195.755 74.892 195.946 74.9926C196.499 75.3045 197.073 75.5862 197.656 75.8177C198.632 76.2101 199.659 76.5018 200.614 76.9345C201.278 77.2363 201.932 77.6187 202.466 78.1016C203.693 79.1983 203.663 80.7276 202.486 81.9048C201.731 82.6594 200.775 82.9613 199.759 83.0418C198.27 83.1625 196.861 82.8305 195.584 82.0356C195.221 81.7942 194.92 81.4823 194.557 81.1804Z" fill="black"/>
<path d="M129.138 33.8212C127.8 33.8212 126.522 33.8212 125.194 33.8212C125.194 33.4489 125.194 33.127 125.194 32.7849C128.424 32.7849 131.633 32.7849 134.873 32.7849C134.873 33.127 134.873 33.4389 134.873 33.8011C133.354 33.8011 131.855 33.8011 130.285 33.8011C130.285 37.5641 130.285 41.2667 130.285 45.0095C129.882 45.0095 129.54 45.0095 129.138 45.0095C129.138 41.2868 129.138 37.5741 129.138 33.8212Z" fill="black"/>
</svg>
