<svg width="287" height="100" viewBox="0 0 287 100" fill="none" xmlns="http://www.w3.org/2000/svg">
<path d="M110.425 64.787H173.612" stroke="#7B7F80" stroke-width="0.24995" stroke-miterlimit="10"/>
<path d="M109.558 70.1193H110.725L112.458 79.2508H112.891L114.957 70.186H116.29L118.356 79.2508H118.79L120.523 70.1193H121.689L119.589 80.2506H117.523L115.59 71.5857L113.657 80.2506H111.591L109.558 70.1193Z" fill="#373737"/>
<path d="M123.155 71.2857V70.0193H124.255V71.2857H123.155ZM123.155 80.2506V72.9188H124.255V80.2506H123.155Z" fill="#373737"/>
<path d="M127.455 80.2506H126.355V72.9188H127.455V73.4187C128.254 72.9854 128.988 72.7521 129.721 72.7521C130.687 72.7521 131.354 73.0187 131.687 73.552C132.02 74.0852 132.187 75.0183 132.187 76.3514V80.2173H131.087V76.3847C131.087 75.3849 130.987 74.6851 130.787 74.2851C130.587 73.9186 130.154 73.7186 129.521 73.7186C129.221 73.7186 128.888 73.7519 128.521 73.8519C128.188 73.9519 127.921 74.0185 127.721 74.1185L127.455 74.2518V80.2506Z" fill="#373737"/>
<path d="M135.32 80.2506H134.22V72.9188H135.32V73.4187C136.119 72.9854 136.853 72.7521 137.586 72.7521C138.552 72.7521 139.219 73.0187 139.552 73.552C139.885 74.0852 140.052 75.0183 140.052 76.3514V80.2173H138.952V76.3847C138.952 75.3849 138.852 74.6851 138.652 74.2851C138.452 73.9186 138.019 73.7186 137.386 73.7186C137.086 73.7186 136.753 73.7519 136.386 73.8519C136.053 73.9519 135.786 74.0185 135.586 74.1185L135.32 74.2518V80.2506Z" fill="#373737"/>
<path d="M147.051 79.3508L147.484 79.3175L147.517 80.184C146.417 80.3506 145.451 80.4172 144.651 80.4172C143.585 80.4172 142.851 80.1173 142.418 79.5174C141.985 78.9175 141.752 77.9511 141.752 76.6513C141.752 74.0852 142.785 72.7854 144.818 72.7854C145.818 72.7854 146.551 73.052 147.017 73.6186C147.517 74.1852 147.751 75.0516 147.751 76.2181L147.684 77.0512H142.851C142.851 77.8511 142.985 78.451 143.285 78.8509C143.585 79.2508 144.085 79.4508 144.818 79.4508C145.584 79.4508 146.317 79.4174 147.051 79.3508ZM146.684 76.1848C146.684 75.2849 146.551 74.6517 146.251 74.2851C145.951 73.9185 145.484 73.7186 144.851 73.7186C144.185 73.7186 143.718 73.9185 143.385 74.3185C143.051 74.7184 142.885 75.3183 142.885 76.1848H146.684Z" fill="#373737"/>
<path d="M149.483 80.2506V72.9188H150.583V73.9186C151.45 73.3187 152.316 72.9521 153.249 72.7521V73.8519C152.849 73.9186 152.416 74.0519 151.983 74.2185C151.55 74.3851 151.183 74.5184 150.95 74.6517L150.583 74.8517V80.2173L149.483 80.2506Z" fill="#373737"/>
<path d="M110.025 90.182L111.358 85.3496H112.524L113.857 90.182H113.324L112.991 88.9489H110.924L110.591 90.182H110.025ZM111.758 85.8162L111.024 88.449H112.857L112.124 85.8162H111.758Z" fill="#373737"/>
<path d="M114.557 90.182V85.3496H115.09V90.182H114.557Z" fill="#373737"/>
<path d="M115.823 90.1153L117.79 85.2496L118.256 85.4162L116.29 90.2819L115.823 90.1153Z" fill="#373737"/>
<path d="M118.99 90.182V85.3496H119.956L121.322 89.4154L122.689 85.3496H123.655V90.182H123.122V85.9161H123.022L121.622 89.982H121.022L119.623 85.9161H119.523V90.182H118.99Z" fill="#373737"/>
<path d="M127.454 90.182H124.788V85.3496H125.322V89.6821H127.454V90.182Z" fill="#373737"/>
<path d="M129.021 85.8162V85.3496H132.52V85.8162H131.054V90.1486H130.52V85.8162H129.021Z" fill="#373737"/>
<path d="M134.753 89.7487L134.953 89.7154V90.1153C134.42 90.182 133.953 90.2153 133.587 90.2153C133.087 90.2153 132.72 90.082 132.52 89.782C132.32 89.4821 132.22 89.0488 132.22 88.4156C132.22 87.1826 132.72 86.5827 133.687 86.5827C134.153 86.5827 134.52 86.716 134.753 86.9826C134.986 87.2492 135.086 87.6491 135.086 88.2157L135.053 88.6156H132.753C132.753 89.0155 132.82 89.2821 132.953 89.4821C133.087 89.6821 133.32 89.7487 133.687 89.7487C134.053 89.782 134.42 89.782 134.753 89.7487ZM134.586 88.2157C134.586 87.7824 134.52 87.4825 134.386 87.3159C134.253 87.1492 134.02 87.0493 133.72 87.0493C133.42 87.0493 133.187 87.1492 133.02 87.3159C132.853 87.5158 132.787 87.8158 132.787 88.2157H134.586Z" fill="#373737"/>
<path d="M138.319 87.7491V89.5488C138.319 89.7154 138.452 89.8154 138.719 89.8487L138.686 90.2486C138.319 90.2486 138.052 90.1486 137.852 89.982C137.419 90.182 137.019 90.2486 136.586 90.2486C136.253 90.2486 136.019 90.1486 135.853 89.982C135.686 89.8154 135.586 89.5488 135.586 89.2155C135.586 88.8822 135.686 88.6156 135.853 88.449C136.019 88.2823 136.286 88.1824 136.653 88.149L137.752 88.0491V87.7491C137.752 87.5158 137.686 87.3492 137.586 87.2492C137.486 87.1492 137.352 87.0826 137.153 87.0826C136.786 87.0826 136.386 87.1159 135.986 87.1492L135.786 87.1826L135.753 86.7826C136.253 86.6827 136.719 86.616 137.119 86.616C137.519 86.616 137.786 86.716 137.986 86.8826C138.219 87.0826 138.319 87.3492 138.319 87.7491ZM136.153 89.1488C136.153 89.5821 136.319 89.782 136.686 89.782C136.986 89.782 137.319 89.7154 137.619 89.6154L137.786 89.5488V88.3823L136.753 88.4823C136.553 88.5156 136.386 88.5489 136.286 88.6489C136.219 88.8156 136.153 88.9489 136.153 89.1488Z" fill="#373737"/>
<path d="M139.785 90.182H139.252V86.6827H139.752V86.9159C140.085 86.716 140.452 86.616 140.785 86.616C141.218 86.616 141.518 86.7493 141.685 86.9826C141.852 86.8826 142.052 86.816 142.285 86.7493C142.518 86.6826 142.751 86.6493 142.918 86.6493C143.385 86.6493 143.685 86.7826 143.851 87.0159C144.018 87.2492 144.085 87.7158 144.085 88.349V90.182H143.551V88.349C143.551 87.8491 143.518 87.5491 143.418 87.3492C143.318 87.1826 143.118 87.0826 142.818 87.0826C142.652 87.0826 142.518 87.1159 142.352 87.1492C142.185 87.1826 142.052 87.2492 141.985 87.2825L141.852 87.3492C141.918 87.5158 141.952 87.8491 141.952 88.3823V90.182H141.418V88.3823C141.418 87.8824 141.385 87.5491 141.285 87.3492C141.185 87.1826 140.985 87.0826 140.685 87.0826C140.552 87.0826 140.385 87.1159 140.219 87.1492C140.052 87.1826 139.952 87.2492 139.852 87.2825L139.719 87.3492V90.182H139.785Z" fill="#373737"/>
<path d="M110.225 96.7806C110.225 96.1474 110.325 95.6809 110.558 95.4142C110.791 95.1143 111.158 94.981 111.724 94.981C112.258 94.981 112.657 95.1143 112.891 95.4142C113.124 95.7142 113.224 96.1474 113.224 96.7806C113.224 97.4138 113.124 97.8804 112.891 98.1804C112.691 98.4803 112.291 98.6136 111.724 98.6136C111.158 98.6136 110.758 98.4803 110.558 98.1804C110.325 97.8804 110.225 97.4138 110.225 96.7806ZM110.758 96.7806C110.758 97.2805 110.824 97.6471 110.958 97.8471C111.091 98.0471 111.324 98.147 111.724 98.147C112.124 98.147 112.358 98.0471 112.491 97.8471C112.624 97.6471 112.657 97.2805 112.657 96.7806C112.657 96.2807 112.591 95.9142 112.457 95.7142C112.324 95.5142 112.058 95.4142 111.691 95.4142C111.324 95.4142 111.091 95.5142 110.924 95.7142C110.824 95.9142 110.758 96.2807 110.758 96.7806Z" fill="#373737"/>
<path d="M114.657 95.5142V98.547H114.124V95.5142H113.691V95.0477H114.124V94.7477C114.124 94.2478 114.191 93.9145 114.324 93.7479C114.457 93.5813 114.724 93.4813 115.057 93.4813L115.757 93.5146V93.9479C115.49 93.9479 115.29 93.9479 115.124 93.9479C114.957 93.9479 114.824 94.0145 114.757 94.1145C114.69 94.2145 114.657 94.4478 114.657 94.7477V95.0477H115.657V95.5142H114.657Z" fill="#373737"/>
<path d="M119.489 95.5142H118.39V97.1806C118.39 97.5805 118.423 97.8471 118.49 97.9804C118.556 98.1137 118.69 98.1804 118.89 98.1804L119.523 98.147L119.556 98.5803C119.256 98.6469 119.023 98.6469 118.856 98.6469C118.49 98.6469 118.256 98.547 118.09 98.3803C117.956 98.2137 117.89 97.8804 117.89 97.3805V95.5476H117.39V95.081H117.89V93.9812H118.39V95.0477H119.489V95.5142Z" fill="#373737"/>
<path d="M120.589 98.547H120.056V93.548H120.589V95.2476C120.956 95.081 121.322 94.981 121.656 94.981C122.122 94.981 122.422 95.1143 122.589 95.3476C122.755 95.6142 122.822 96.0475 122.822 96.6807V98.5136H122.289V96.6807C122.289 96.1808 122.255 95.8808 122.155 95.6809C122.056 95.5142 121.856 95.4142 121.556 95.4142C121.256 95.4142 120.989 95.4809 120.689 95.5809L120.589 95.6475V98.547Z" fill="#373737"/>
<path d="M126.121 98.1137L126.321 98.0804V98.4803C125.788 98.547 125.322 98.5803 124.955 98.5803C124.455 98.5803 124.089 98.447 123.889 98.147C123.689 97.8471 123.589 97.4139 123.589 96.7806C123.589 95.5476 124.089 94.9477 125.055 94.9477C125.522 94.9477 125.888 95.081 126.121 95.3476C126.355 95.6142 126.455 96.0141 126.455 96.5807L126.421 96.9806H124.122C124.122 97.3805 124.189 97.6471 124.322 97.8471C124.455 98.0471 124.688 98.1137 125.055 98.1137C125.388 98.147 125.755 98.147 126.121 98.1137ZM125.921 96.614C125.921 96.1808 125.855 95.8808 125.722 95.7142C125.588 95.5476 125.355 95.4476 125.055 95.4476C124.755 95.4476 124.522 95.5476 124.355 95.7142C124.189 95.9142 124.122 96.2141 124.122 96.614H125.921Z" fill="#373737"/>
<path d="M130.287 98.547H129.754V96.514L128.221 93.7146H128.821L130.021 95.9808L131.22 93.7146H131.82L130.287 96.514V98.547Z" fill="#373737"/>
<path d="M134.22 98.1137L134.42 98.0804V98.4803C133.887 98.547 133.42 98.5803 133.053 98.5803C132.554 98.5803 132.187 98.447 131.987 98.147C131.787 97.8471 131.687 97.4139 131.687 96.7806C131.687 95.5476 132.187 94.9477 133.153 94.9477C133.62 94.9477 133.987 95.081 134.22 95.3476C134.453 95.6142 134.553 96.0141 134.553 96.5807L134.52 96.9806H132.22C132.22 97.3805 132.287 97.6471 132.42 97.8471C132.554 98.0471 132.787 98.1137 133.153 98.1137C133.52 98.147 133.853 98.147 134.22 98.1137ZM134.02 96.614C134.02 96.1808 133.953 95.8808 133.82 95.7142C133.687 95.5476 133.453 95.4476 133.153 95.4476C132.853 95.4476 132.62 95.5476 132.454 95.7142C132.287 95.8808 132.22 96.2141 132.22 96.614H134.02Z" fill="#373737"/>
<path d="M137.753 96.1141V97.9137C137.753 98.0804 137.886 98.1804 138.152 98.2137L138.119 98.6136C137.753 98.6136 137.486 98.5136 137.286 98.347C136.853 98.547 136.453 98.6136 136.02 98.6136C135.686 98.6136 135.453 98.5136 135.286 98.347C135.12 98.1804 135.02 97.9137 135.02 97.5805C135.02 97.2472 135.12 96.9806 135.286 96.8473C135.453 96.6807 135.72 96.5807 136.086 96.5474L137.186 96.4474V96.1474C137.186 95.9141 137.119 95.7475 137.019 95.6475C136.919 95.5476 136.786 95.4809 136.586 95.4809C136.22 95.4809 135.82 95.5142 135.42 95.5476L135.22 95.5809L135.186 95.181C135.686 95.081 136.153 95.0143 136.553 95.0143C136.953 95.0143 137.219 95.1143 137.419 95.2809C137.686 95.4476 137.753 95.7142 137.753 96.1141ZM135.62 97.5472C135.62 97.9804 135.786 98.1804 136.153 98.1804C136.453 98.1804 136.786 98.1137 137.086 98.0137L137.253 97.9471V96.7806L136.22 96.8806C136.02 96.9139 135.853 96.9473 135.753 97.0473C135.653 97.1472 135.62 97.3472 135.62 97.5472Z" fill="#373737"/>
<path d="M138.719 98.547V95.0477H139.219V95.5142C139.619 95.2476 140.052 95.0477 140.485 94.9477V95.4809C140.285 95.5142 140.085 95.5809 139.885 95.6475C139.685 95.7142 139.519 95.7808 139.386 95.8475L139.252 95.9808V98.547H138.719Z" fill="#373737"/>
<path d="M109.491 27.2946L111.424 18.7629H114.69L116.59 27.2946H114.857L114.524 25.7615H111.558L111.224 27.2946H109.491ZM112.724 20.196L111.858 24.2285H114.191L113.324 20.196H112.724Z" fill="#373737"/>
<path d="M117.423 27.2946V18.7629H119.156V27.2946H117.423Z" fill="#373737"/>
<path d="M124.289 18.8629C124.755 18.5296 125.388 18.363 126.188 18.363C126.988 18.363 127.621 18.5296 128.054 18.8962C128.488 19.2295 128.721 19.7294 128.721 20.3293C128.721 20.9292 128.588 21.3957 128.354 21.729C128.088 22.0623 127.655 22.4622 127.021 22.9288L128.254 24.1618C128.321 24.0285 128.354 23.7953 128.421 23.4287C128.488 23.0621 128.488 22.7621 128.521 22.5622L130.154 22.5955C130.021 23.562 129.821 24.4285 129.521 25.1283L130.921 26.3614L129.921 27.4279L128.588 26.3281C128.288 26.6613 127.921 26.8946 127.455 27.0946C126.988 27.2946 126.521 27.3945 126.022 27.3945C124.788 27.3945 123.922 27.1612 123.422 26.728C122.922 26.2948 122.656 25.6282 122.656 24.7951C122.656 24.1285 122.789 23.5953 123.089 23.1954C123.389 22.7955 123.822 22.4955 124.455 22.2622C124.122 21.829 123.889 21.4957 123.789 21.2624C123.689 20.9958 123.622 20.6625 123.622 20.2626C123.589 19.6627 123.822 19.1962 124.289 18.8629ZM125.822 25.9282C126.155 25.9282 126.488 25.8948 126.788 25.7949C127.121 25.6949 127.321 25.5949 127.455 25.4283L125.288 23.262C124.655 23.562 124.355 24.0285 124.355 24.6951C124.355 25.5282 124.822 25.9282 125.822 25.9282ZM125.288 20.6292C125.288 20.9625 125.488 21.3291 125.855 21.729L126.055 21.9623C126.388 21.6957 126.655 21.4957 126.788 21.2958C126.921 21.0958 126.988 20.8625 126.988 20.5959C126.988 20.0627 126.688 19.7961 126.121 19.7961C125.555 19.7961 125.288 20.0627 125.288 20.6292Z" fill="#373737"/>
<path d="M134.053 27.2946V18.7629H136.986L138.486 24.9617L139.985 18.7629H142.918V27.2946H141.185V20.6959H140.985L139.319 26.8946H137.586L135.92 20.6959H135.72V27.2946H134.053Z" fill="#373737"/>
<path d="M149.15 22.9621V25.5616C149.184 25.7615 149.217 25.8948 149.25 25.9948C149.317 26.0615 149.417 26.1281 149.55 26.1615L149.484 27.4279C149.05 27.4279 148.717 27.3945 148.45 27.3279C148.184 27.2612 147.95 27.1613 147.684 26.9613C147.084 27.2612 146.484 27.3945 145.851 27.3945C144.551 27.3945 143.918 26.6947 143.918 25.3283C143.918 24.6618 144.085 24.1952 144.451 23.8952C144.818 23.6286 145.351 23.462 146.118 23.3953L147.451 23.2954V22.8954C147.451 22.6288 147.384 22.4622 147.284 22.3622C147.151 22.2622 146.984 22.2289 146.717 22.2289L144.351 22.3289L144.285 21.1625C145.184 20.9292 146.018 20.7959 146.851 20.7959C147.651 20.7959 148.25 20.9625 148.584 21.2958C148.95 21.6957 149.15 22.2289 149.15 22.9621ZM146.317 24.6284C145.851 24.6618 145.618 24.9284 145.618 25.3949C145.618 25.8615 145.818 26.0948 146.218 26.0948C146.551 26.0948 146.884 26.0282 147.251 25.9282L147.451 25.8615V24.5285L146.317 24.6284Z" fill="#373737"/>
<path d="M152.783 20.8625C153.216 20.8625 153.783 20.9292 154.449 21.0625L154.782 21.1291L154.716 22.4622C154.049 22.3955 153.583 22.3622 153.249 22.3622C152.683 22.3622 152.283 22.4955 152.116 22.7288C151.916 22.9621 151.85 23.4287 151.85 24.1285C151.85 24.8284 151.95 25.295 152.116 25.5283C152.316 25.7949 152.683 25.8948 153.283 25.8948L154.749 25.7949L154.816 27.1279C153.916 27.2946 153.249 27.3945 152.783 27.3945C151.85 27.3945 151.183 27.1279 150.783 26.628C150.383 26.0948 150.183 25.2616 150.183 24.1285C150.183 22.9954 150.383 22.1289 150.817 21.629C151.183 21.1291 151.85 20.8625 152.783 20.8625Z" fill="#373737"/>
<path d="M157.382 27.2945H155.716V18.5296H157.382V21.3291C157.948 21.0291 158.482 20.8625 158.948 20.8625C159.781 20.8625 160.348 21.0958 160.681 21.5957C161.015 22.0956 161.148 22.8621 161.148 23.8619V27.2612H159.481V23.9286C159.481 23.3953 159.415 22.9954 159.282 22.7621C159.148 22.4955 158.915 22.3955 158.515 22.3955C158.182 22.3955 157.848 22.4622 157.549 22.5622L157.382 22.6288V27.2945Z" fill="#373737"/>
<path d="M162.314 20.2293V18.5296H163.981V20.2293H162.314ZM162.314 27.2945V21.0291H163.981V27.2945H162.314Z" fill="#373737"/>
<path d="M166.913 27.2946H165.247V21.0291H166.913V21.3957C167.48 21.0625 168.013 20.8958 168.48 20.8958C169.313 20.8958 169.879 21.1291 170.213 21.629C170.546 22.1289 170.679 22.8954 170.679 23.8952V27.2946H169.013V23.9619C169.013 23.4287 168.946 23.0288 168.813 22.7621C168.68 22.4955 168.446 22.3955 168.047 22.3955C167.713 22.3955 167.38 22.4622 167.047 22.5622L166.88 22.6288L166.913 27.2946Z" fill="#373737"/>
<path d="M173.545 25.6949C173.745 25.8615 174.012 25.9615 174.378 25.9615C175.145 25.9615 175.845 25.9282 176.445 25.8948L176.811 25.8615L176.845 27.0946C175.878 27.3279 175.012 27.4612 174.245 27.4612C173.312 27.4612 172.612 27.1946 172.179 26.6947C171.746 26.1948 171.546 25.3949 171.546 24.2618C171.546 22.029 172.479 20.8958 174.312 20.8958C176.145 20.8958 177.045 21.829 177.045 23.7286L176.911 24.895H173.245C173.245 25.2616 173.345 25.5282 173.545 25.6949ZM175.378 23.5953C175.378 23.0954 175.312 22.7621 175.145 22.5622C174.978 22.3622 174.712 22.2622 174.312 22.2622C173.912 22.2622 173.645 22.3622 173.479 22.5622C173.312 22.7621 173.245 23.0954 173.212 23.5953H175.378Z" fill="#373737"/>
<path d="M115.057 37.8591H110.191V29.3608H111.924V36.3594H115.057V37.8591Z" fill="#373737"/>
<path d="M117.323 36.2928C117.523 36.4594 117.79 36.5594 118.156 36.5594C118.923 36.5594 119.623 36.526 120.223 36.4927L120.589 36.4594L120.623 37.6925C119.656 37.9258 118.79 38.0591 118.023 38.0591C117.09 38.0591 116.39 37.7925 115.957 37.2926C115.524 36.7927 115.324 35.9928 115.324 34.8597C115.324 32.6268 116.257 31.4937 118.09 31.4937C119.923 31.4937 120.823 32.4269 120.823 34.3265L120.689 35.4929H117.023C117.023 35.8262 117.123 36.1261 117.323 36.2928ZM119.19 34.1598C119.19 33.6599 119.123 33.3267 118.956 33.1267C118.79 32.9268 118.523 32.8268 118.123 32.8268C117.723 32.8268 117.457 32.9268 117.29 33.1267C117.123 33.3267 117.057 33.6599 117.023 34.1598H119.19Z" fill="#373737"/>
<path d="M126.521 33.56V36.1594C126.555 36.3594 126.588 36.4927 126.621 36.5927C126.688 36.6593 126.788 36.726 126.921 36.7593L126.855 38.0257C126.421 38.0257 126.088 37.9924 125.821 37.9258C125.555 37.8591 125.322 37.7591 125.055 37.5592C124.455 37.8591 123.855 37.9924 123.222 37.9924C121.922 37.9924 121.289 37.2926 121.289 35.9262C121.289 35.2596 121.456 34.7931 121.822 34.4931C122.189 34.2265 122.722 34.0599 123.489 33.9932L124.822 33.8932V33.4933C124.822 33.2267 124.755 33.0601 124.655 32.9601C124.522 32.8601 124.355 32.8268 124.089 32.8268L121.756 32.9934L121.689 31.827C122.589 31.5937 123.422 31.4604 124.255 31.4604C125.055 31.4604 125.655 31.627 125.988 31.9603C126.355 32.2936 126.521 32.8268 126.521 33.56ZM123.689 35.2263C123.222 35.2596 122.989 35.5262 122.989 35.9928C122.989 36.4594 123.189 36.6927 123.589 36.6927C123.922 36.6927 124.255 36.626 124.622 36.526L124.822 36.4594V35.1263L123.689 35.2263Z" fill="#373737"/>
<path d="M127.821 37.8591V31.5937H129.487V32.2602C130.187 31.827 130.854 31.5604 131.487 31.4604V33.16C130.82 33.2934 130.221 33.46 129.754 33.5933L129.487 33.6933V37.8924L127.821 37.8591Z" fill="#373737"/>
<path d="M133.853 37.8591H132.187V31.5937H133.853V31.9603C134.42 31.627 134.953 31.4604 135.42 31.4604C136.253 31.4604 136.819 31.6937 137.153 32.1936C137.486 32.6935 137.619 33.46 137.619 34.4598V37.8591H135.953V34.5264C135.953 33.9932 135.886 33.5933 135.753 33.3267C135.62 33.0601 135.386 32.9601 134.986 32.9601C134.653 32.9601 134.32 33.0267 133.987 33.1267L133.82 33.1934L133.853 37.8591Z" fill="#373737"/>
<path d="M138.786 30.7939V29.0942H140.452V30.7939H138.786ZM138.786 37.8591V31.5937H140.452V37.8591H138.786Z" fill="#373737"/>
<path d="M143.385 37.8591H141.718V31.5937H143.385V31.9603C143.951 31.627 144.484 31.4604 144.951 31.4604C145.784 31.4604 146.351 31.6937 146.684 32.1936C147.017 32.6935 147.151 33.46 147.151 34.4598V37.8591H145.484V34.5264C145.484 33.9932 145.418 33.5933 145.284 33.3267C145.151 33.0601 144.918 32.9601 144.518 32.9601C144.184 32.9601 143.851 33.0267 143.518 33.1267L143.351 33.1934L143.385 37.8591Z" fill="#373737"/>
<path d="M153.982 38.6589C153.982 39.3588 153.716 39.892 153.149 40.2586C152.583 40.5919 151.85 40.7585 150.916 40.7585C149.983 40.7585 149.25 40.6252 148.75 40.3919C148.25 40.1253 147.984 39.6921 147.984 39.0255C147.984 38.4923 148.284 37.9924 148.883 37.5258C148.584 37.3259 148.417 36.9926 148.417 36.5594C148.417 36.3927 148.55 36.1261 148.783 35.7262L148.883 35.5596C148.317 35.1596 148.017 34.5598 148.017 33.7599C148.017 32.9601 148.25 32.3935 148.75 32.0269C149.217 31.6603 149.883 31.4937 150.65 31.4937C151.016 31.4937 151.35 31.527 151.716 31.627L151.916 31.6603L153.949 31.5937V32.9268L153.016 32.8601C153.216 33.16 153.283 33.4267 153.283 33.7266C153.283 34.5598 153.083 35.1263 152.649 35.4596C152.216 35.7929 151.55 35.9262 150.65 35.9262C150.45 35.9262 150.283 35.8928 150.15 35.8595C150.05 36.0928 150.017 36.2594 150.017 36.3927C150.017 36.526 150.083 36.626 150.217 36.6593C150.35 36.726 150.683 36.726 151.216 36.7593C152.283 36.7593 152.983 36.8926 153.383 37.1926C153.782 37.4592 153.982 37.9258 153.982 38.6589ZM149.65 38.8256C149.65 39.1922 150.083 39.3588 150.983 39.3588C151.85 39.3588 152.316 39.1588 152.316 38.7256C152.316 38.4923 152.249 38.359 152.083 38.2924C151.916 38.2257 151.616 38.1924 151.116 38.1924L149.983 38.0924C149.75 38.359 149.65 38.5923 149.65 38.8256ZM149.75 33.6933C149.75 34.2932 150.083 34.6264 150.716 34.6264C151.35 34.6264 151.683 34.3265 151.683 33.6933C151.683 33.0934 151.35 32.7601 150.716 32.7601C150.083 32.7935 149.75 33.0934 149.75 33.6933Z" fill="#373737"/>
<path d="M109.491 48.457L111.424 39.9254H114.69L116.623 48.457H114.89L114.557 46.924H111.591L111.258 48.457H109.491ZM112.724 41.3584L111.858 45.3909H114.191L113.324 41.3584H112.724Z" fill="#373737"/>
<path d="M116.657 42.1916H118.323L119.09 47.024H119.39L120.356 42.3249H122.089L123.055 47.024H123.355L124.122 42.1916H125.788L124.588 48.457H121.956L121.256 44.6244L120.556 48.457H117.923L116.657 42.1916Z" fill="#373737"/>
<path d="M131.287 44.1245V46.724C131.32 46.924 131.354 47.0573 131.387 47.1572C131.454 47.2239 131.554 47.2905 131.687 47.3239L131.62 48.5903C131.187 48.5903 130.854 48.557 130.587 48.4903C130.321 48.4237 130.087 48.3237 129.821 48.1237C129.221 48.4237 128.621 48.557 127.988 48.557C126.688 48.557 126.055 47.8571 126.055 46.4907C126.055 45.8242 126.221 45.3576 126.588 45.0577C126.955 44.791 127.488 44.6244 128.254 44.5578L129.587 44.4578V44.0579C129.587 43.7912 129.521 43.6246 129.421 43.5246C129.287 43.4247 129.121 43.3913 128.854 43.3913L126.488 43.4913L126.421 42.3249C127.321 42.0916 128.154 41.9583 128.987 41.9583C129.787 41.9583 130.387 42.1249 130.72 42.4582C131.12 42.8581 131.287 43.3913 131.287 44.1245ZM128.454 45.7908C127.988 45.8242 127.754 46.0908 127.754 46.5574C127.754 47.0239 127.954 47.2572 128.354 47.2572C128.687 47.2572 129.021 47.1906 129.387 47.0906L129.587 47.0239V45.6909L128.454 45.7908Z" fill="#373737"/>
<path d="M132.587 48.457V42.1916H134.253V42.8581C134.953 42.4249 135.62 42.1582 136.253 42.0583V43.7579C135.586 43.8912 134.986 44.0579 134.52 44.1912L134.253 44.2911V48.4903L132.587 48.457Z" fill="#373737"/>
<path d="M142.251 39.6921V48.457H140.585V48.1904C139.985 48.457 139.485 48.5903 139.085 48.5903C138.186 48.5903 137.552 48.3237 137.186 47.7905C136.819 47.2572 136.653 46.4241 136.653 45.291C136.653 44.1578 136.853 43.3247 137.286 42.7915C137.719 42.2582 138.352 42.0249 139.219 42.0249C139.485 42.0249 139.852 42.0583 140.319 42.1583L140.552 42.2249V39.6921H142.251ZM140.385 46.9573L140.552 46.924V43.6246C140.085 43.5246 139.685 43.4913 139.319 43.4913C138.652 43.4913 138.319 44.0912 138.319 45.291C138.319 45.9575 138.386 46.3907 138.552 46.6907C138.719 46.9573 138.952 47.0906 139.285 47.0906C139.652 47.0906 140.019 47.0573 140.385 46.9573Z" fill="#373737"/>
<path d="M147.984 43.7579C146.951 43.6246 146.218 43.558 145.818 43.558C145.418 43.558 145.151 43.5913 145.018 43.6579C144.884 43.7246 144.851 43.8579 144.851 44.0245C144.851 44.1912 144.918 44.2911 145.084 44.3578C145.251 44.4245 145.651 44.5244 146.351 44.6244C147.017 44.7577 147.517 44.9577 147.784 45.2243C148.084 45.4909 148.217 45.9575 148.217 46.5574C148.217 47.9238 147.384 48.5903 145.684 48.5903C145.118 48.5903 144.451 48.5236 143.685 48.357L143.285 48.2903L143.351 46.8906C144.385 47.0239 145.118 47.0906 145.518 47.0906C145.918 47.0906 146.184 47.0573 146.351 46.9573C146.484 46.8906 146.584 46.7573 146.584 46.5907C146.584 46.4241 146.517 46.3241 146.351 46.2241C146.184 46.1574 145.784 46.0575 145.151 45.9575C144.518 45.8575 144.018 45.6575 143.718 45.3909C143.385 45.1243 143.251 44.6577 143.251 43.9912C143.251 43.3247 143.485 42.8248 143.918 42.4915C144.385 42.1582 144.951 41.9916 145.651 41.9916C146.151 41.9916 146.817 42.0583 147.684 42.2249L148.084 42.2915L147.984 43.7579Z" fill="#373737"/>
<path d="M114.79 59.0216H110.058V58.355L112.391 55.6222C112.758 55.189 113.024 54.8557 113.224 54.6224C113.391 54.3891 113.557 54.1225 113.691 53.8226C113.824 53.4893 113.891 53.1894 113.891 52.8561C113.891 52.2896 113.757 51.8896 113.457 51.6564C113.191 51.4231 112.758 51.2898 112.158 51.2898C111.658 51.2898 111.125 51.3564 110.491 51.5231L110.191 51.5897L110.125 50.9232C110.825 50.6899 111.558 50.5899 112.291 50.5899C113.024 50.5899 113.591 50.7565 113.991 51.1231C114.391 51.4564 114.557 52.0229 114.557 52.7895C114.557 53.356 114.424 53.8559 114.224 54.2892C114.024 54.7224 113.591 55.2223 113.058 55.8555L110.891 58.3217H114.79V59.0216Z" fill="#373737"/>
<path d="M116.39 52.3562C116.623 51.6897 116.89 51.2564 117.29 50.9898C117.656 50.7565 118.123 50.6232 118.623 50.6232C119.156 50.6232 119.556 50.6899 119.889 50.8232C120.223 50.9565 120.489 51.1898 120.722 51.5231C121.189 52.1563 121.422 53.2894 121.422 54.889C121.422 56.4887 121.189 57.6218 120.756 58.2217C120.323 58.8216 119.656 59.1549 118.756 59.1549C117.856 59.1549 117.19 58.8549 116.757 58.255C116.323 57.6552 116.09 56.5887 116.09 55.0557C116.057 53.9226 116.19 53.0228 116.39 52.3562ZM119.823 51.623C119.556 51.4231 119.189 51.3231 118.723 51.3231C118.256 51.3231 117.89 51.4231 117.623 51.623C117.057 52.0563 116.79 53.1894 116.79 55.0557C116.79 56.3554 116.957 57.2552 117.256 57.7218C117.556 58.1884 118.056 58.455 118.723 58.455C119.156 58.455 119.523 58.355 119.789 58.1884C120.389 57.7885 120.656 56.7553 120.656 55.0557C120.689 53.2227 120.389 52.0563 119.823 51.623Z" fill="#373737"/>
<path d="M127.088 59.0216H122.355V58.355L124.688 55.6222C125.055 55.189 125.322 54.8557 125.522 54.6224C125.688 54.3891 125.855 54.1225 125.988 53.8226C126.121 53.4893 126.188 53.1894 126.188 52.8561C126.188 52.2896 126.055 51.8896 125.755 51.6564C125.488 51.4231 125.055 51.2898 124.455 51.2898C123.955 51.2898 123.422 51.3564 122.789 51.5231L122.489 51.5897L122.422 50.9232C123.122 50.6899 123.855 50.5899 124.588 50.5899C125.322 50.5899 125.888 50.7565 126.288 51.1231C126.688 51.4564 126.855 52.0229 126.855 52.7895C126.855 53.356 126.721 53.8559 126.521 54.2892C126.321 54.7224 125.888 55.2223 125.355 55.8555L123.189 58.3217H127.088V59.0216Z" fill="#373737"/>
<path d="M132.553 59.0216H127.821V58.355L130.154 55.6222C130.521 55.189 130.787 54.8557 130.987 54.6224C131.154 54.3891 131.32 54.1225 131.454 53.8226C131.587 53.4893 131.654 53.1894 131.654 52.8561C131.654 52.2896 131.52 51.8896 131.22 51.6564C130.954 51.4231 130.521 51.2898 129.921 51.2898C129.421 51.2898 128.887 51.3564 128.254 51.5231L127.954 51.5897L127.888 50.9232C128.588 50.6899 129.321 50.5899 130.054 50.5899C130.787 50.5899 131.354 50.7565 131.754 51.1231C132.154 51.4564 132.32 52.0229 132.32 52.7895C132.32 53.356 132.187 53.8559 131.987 54.2892C131.787 54.7224 131.354 55.2223 130.82 55.8555L128.654 58.3217H132.553V59.0216Z" fill="#373737"/>
<path d="M112.457 8.49833C112.457 9.19819 112.757 9.53146 113.557 9.53146C114.09 9.53146 114.457 9.46481 114.957 9.36482L115.224 11.0645C114.524 11.2311 114.057 11.2644 113.557 11.2644C111.324 11.2644 110.425 10.4313 110.425 8.49833V6.93198C110.425 4.9657 111.324 4.13254 113.557 4.13254C114.024 4.13254 114.524 4.19919 115.224 4.3325L114.957 6.03216C114.524 5.93218 113.957 5.86552 113.557 5.86552C112.757 5.86552 112.457 6.19879 112.457 6.89865V8.49833Z" fill="#373737"/>
<path d="M119.389 8.53166C119.389 9.16487 119.056 9.53146 118.323 9.53146C117.59 9.53146 117.257 9.16487 117.257 8.53166V6.832C117.257 6.19879 117.59 5.8322 118.323 5.8322C119.056 5.8322 119.389 6.19879 119.389 6.832V8.53166ZM118.323 4.13254C115.89 4.13254 115.224 5.49893 115.224 6.89865V8.49833C115.224 9.89805 115.89 11.2644 118.323 11.2644C120.756 11.2644 121.422 9.89805 121.422 8.49833V6.89865C121.389 5.49893 120.756 4.13254 118.323 4.13254Z" fill="#373737"/>
<path d="M125.722 11.1311V6.59871C125.722 6.29877 125.588 6.09881 125.222 6.09881C124.855 6.09881 124.189 6.36542 123.755 6.59871V11.1311H121.722V4.26584H123.222L123.422 4.79907C124.255 4.39915 125.355 4.13254 126.155 4.13254C126.755 4.13254 127.155 4.36582 127.421 4.79907C128.188 4.43248 129.221 4.13254 130.154 4.13254C131.32 4.13254 131.72 4.99903 131.72 6.3321V11.1311H129.687V6.59871C129.687 6.29877 129.554 6.09881 129.188 6.09881C128.821 6.09881 128.154 6.36542 127.721 6.59871V11.1311H125.722Z" fill="#373737"/>
<path d="M136.153 8.73162C136.153 9.16487 135.953 9.49813 135.419 9.49813C134.986 9.49813 134.486 9.39815 134.12 9.3315V6.43208C134.42 6.16546 134.953 5.89885 135.419 5.89885C135.953 5.89885 136.153 6.19879 136.153 6.66536V8.73162ZM136.019 4.13254C135.286 4.13254 134.386 4.49913 133.92 4.8324L133.72 4.29917H132.12V14.1972L134.153 13.9306V11.0978C134.62 11.1978 135.319 11.2978 135.886 11.2978C137.486 11.2978 138.186 10.398 138.186 8.76494V6.66536C138.186 4.99903 137.386 4.13254 136.019 4.13254Z" fill="#373737"/>
<path d="M140.552 4.26584V8.79827C140.552 9.09821 140.685 9.29817 141.052 9.29817C141.418 9.29817 142.085 9.03155 142.518 8.79827V4.26584H144.551V11.0978H143.051L142.851 10.5646C142.018 10.9645 140.918 11.2311 140.119 11.2311C138.952 11.2311 138.552 10.3646 138.552 9.03155V4.26584H140.552Z" fill="#373737"/>
<path d="M147.817 11.2644C146.517 11.2644 145.751 10.7645 145.751 9.49812V5.89884H144.818V4.26583H145.751V2.63282L147.784 2.36621V4.29916H149.35L149.25 5.93216H147.817V9.26483C147.817 9.53144 147.984 9.63142 148.25 9.63142C148.484 9.63142 148.784 9.5981 149.083 9.49812L149.317 11.0311C148.85 11.1645 148.284 11.2644 147.817 11.2644Z" fill="#373737"/>
<path d="M151.65 1.9996H149.617V4.16584H151.65V1.9996Z" fill="#398ECC"/>
<path d="M151.65 4.26581H149.617V11.0978H151.65V4.26581Z" fill="#373737"/>
<path d="M155.949 11.1311V6.59868C155.949 6.29874 155.816 6.09878 155.449 6.09878C155.082 6.09878 154.416 6.36539 153.983 6.59868V11.1311H151.95V4.26581H153.449L153.649 4.79904C154.483 4.39912 155.582 4.13251 156.382 4.13251C157.549 4.13251 157.949 4.999 157.949 6.33207V11.1311H155.949Z" fill="#373737"/>
<path d="M161.981 7.09858C161.981 7.56515 161.715 7.76511 161.081 7.76511C160.415 7.76511 160.181 7.56515 160.181 7.09858V6.46537C160.181 5.9988 160.415 5.73219 161.081 5.73219C161.748 5.73219 161.981 5.9988 161.981 6.46537V7.09858ZM164.347 4.26581H162.214C161.881 4.16583 161.481 4.13251 161.048 4.13251C159.048 4.13251 158.282 4.999 158.249 6.36539V7.19856C158.249 7.9984 158.515 8.59828 159.115 8.96487C158.782 9.29814 158.515 9.66473 158.515 10.2313C158.515 11.1644 159.048 11.3644 159.982 11.4644C160.815 11.5644 160.948 11.5644 161.715 11.631C162.114 11.6643 162.248 11.731 162.248 11.9976C162.248 12.4308 161.814 12.4975 160.781 12.4975C160.181 12.4975 159.348 12.3975 158.548 12.2309L158.249 13.6639C159.148 13.8972 160.315 14.0305 160.981 14.0305C163.114 14.0305 164.114 13.5306 164.114 11.8643C164.114 10.6979 163.614 10.2979 162.448 10.198C161.948 10.1646 161.648 10.1313 160.748 10.0313C160.615 10.0313 160.515 9.89802 160.515 9.76471C160.515 9.56475 160.681 9.46477 160.815 9.39812H161.015C162.914 9.39812 163.814 8.53163 163.814 7.23189V6.39872C163.814 6.09878 163.747 5.76551 163.647 5.4989L164.347 5.23229V4.26581Z" fill="#373737"/>
<path d="M163.281 2.09958H163.081V1.9996H163.614V2.09958H163.414V2.69946H163.281V2.09958Z" fill="#373737"/>
<path d="M163.714 1.9996H163.847L163.981 2.3662L164.014 2.4995L164.047 2.3662L164.181 1.9996H164.314V2.69946H164.247V2.3662C164.247 2.33287 164.247 2.33287 164.247 2.29954C164.247 2.26622 164.247 2.26622 164.247 2.23289C164.247 2.19956 164.247 2.19956 164.247 2.16624C164.247 2.13291 164.247 2.13291 164.247 2.09958L164.181 2.26622L164.047 2.59948H163.981L163.847 2.26622L163.781 2.09958C163.781 2.13291 163.781 2.13291 163.781 2.16624C163.781 2.19956 163.781 2.19956 163.781 2.23289C163.781 2.26622 163.781 2.26622 163.781 2.29954C163.781 2.33287 163.781 2.33287 163.781 2.3662V2.69946H163.647V1.9996H163.714Z" fill="#373737"/>
</svg>
