<svg width="288" height="100" viewBox="0 0 288 100" fill="none" xmlns="http://www.w3.org/2000/svg">
<g clip-path="url(#clip0_68_6509)">
<path fill-rule="evenodd" clip-rule="evenodd" d="M106.51 100.327V89.5554H181.282V100.327H106.51ZM128.727 97.6338H129.469V95.2592H131.3V94.7115H129.469V92.9588H131.65V92.404H128.727V97.6338ZM132.671 97.6338H133.413V92.404H132.671V97.6338ZM134.827 97.6338H135.463V93.5948L138.099 97.6338H138.823V92.404H138.187V96.443L135.555 92.404H134.827V97.6338ZM143.675 97.6338H144.477L142.435 92.404H141.7L139.626 97.6338H140.315L140.891 96.185H143.106L143.675 97.6338ZM145.301 97.6338H148.396V97.079H146.043V92.404H145.301V97.6338ZM149.223 97.6338H149.965V92.404H149.223V97.6338ZM152.404 97.7645C152.957 97.7645 153.402 97.6267 153.738 97.3511C154.073 97.0755 154.241 96.7103 154.241 96.2557C154.241 95.9353 154.152 95.6608 153.973 95.4323C153.794 95.2038 153.478 94.9612 153.026 94.7044L152.651 94.4924C152.326 94.3063 152.102 94.1461 151.98 94.0118C151.857 93.8775 151.796 93.7232 151.796 93.5489C151.796 93.3416 151.88 93.1696 152.047 93.033C152.214 92.8964 152.426 92.828 152.683 92.828C152.954 92.828 153.365 92.9364 153.916 93.1531V92.4747C153.469 92.3404 153.043 92.2733 152.64 92.2733C152.188 92.2733 151.816 92.4034 151.524 92.6637C151.232 92.924 151.086 93.2556 151.086 93.6584C151.086 93.9576 151.177 94.2197 151.36 94.4447C151.542 94.6697 151.856 94.9094 152.301 95.1638L152.662 95.3723C152.975 95.5489 153.19 95.7091 153.307 95.8528C153.423 95.9965 153.481 96.1709 153.481 96.3758C153.481 96.6255 153.393 96.8269 153.215 96.9801C153.037 97.1332 152.802 97.2098 152.51 97.2098C152.13 97.2098 151.646 97.0731 151.057 96.7999V97.5348C151.604 97.688 152.053 97.7645 152.404 97.7645ZM156.588 97.6338H157.33V92.9588H159.185V92.404H154.733V92.9588H156.588V97.6338Z" fill="#373737"/>
<path fill-rule="evenodd" clip-rule="evenodd" d="M140.984 46.8733C141.642 46.8733 142.137 47.0954 142.561 47.4788C142.594 47.5121 142.599 47.5636 142.567 47.5966C142.535 47.6353 142.495 47.6744 142.463 47.707C142.424 47.7531 142.391 47.7464 142.353 47.707C141.987 47.3687 141.512 47.16 140.978 47.16C139.845 47.16 138.952 48.0847 138.952 49.212C138.952 50.3389 139.845 51.2639 140.978 51.2639C141.773 51.2639 142.267 50.9572 142.333 50.905V49.6812H141.219C141.147 49.6812 141.135 49.6546 141.135 49.5963V49.4657C141.135 49.4136 141.147 49.388 141.219 49.388H142.554C142.599 49.388 142.639 49.4264 142.639 49.4657V50.9767C142.639 51.0744 142.599 51.107 142.548 51.1461C142.43 51.2248 141.838 51.5631 140.984 51.5631C139.675 51.5631 138.627 50.5345 138.627 49.2247C138.627 47.9221 139.675 46.8733 140.984 46.8733Z" fill="#595A59"/>
<path fill-rule="evenodd" clip-rule="evenodd" d="M143.6 47.0234C143.6 46.9773 143.64 46.9382 143.685 46.9382H143.828C143.867 46.9382 143.907 46.9773 143.907 47.0234V51.2248H145.984C146.062 51.2248 146.069 51.2639 146.069 51.3093V51.4261C146.069 51.4722 146.03 51.4981 145.984 51.4981H143.685C143.64 51.4981 143.6 51.4588 143.6 51.4133V47.0234Z" fill="#595A59"/>
<path fill-rule="evenodd" clip-rule="evenodd" d="M148.54 51.2767C149.68 51.2767 150.605 50.3645 150.605 49.2247C150.605 48.0847 149.68 47.16 148.54 47.16C147.4 47.16 146.482 48.0847 146.482 49.2247C146.482 50.3645 147.4 51.2767 148.54 51.2767ZM148.54 46.8733C149.85 46.8733 150.892 47.9221 150.892 49.2247C150.892 50.5345 149.85 51.5631 148.54 51.5631C147.238 51.5631 146.195 50.5345 146.195 49.2247C146.195 47.9221 147.238 46.8733 148.54 46.8733Z" fill="#595A59"/>
<path fill-rule="evenodd" clip-rule="evenodd" d="M153.273 49.049C153.886 49.049 154.244 48.6646 154.244 48.1305C154.244 47.5636 153.853 47.225 153.227 47.225H152.062V49.049H153.273ZM153.313 51.2248C153.944 51.2248 154.388 50.8206 154.388 50.2541C154.388 49.6741 153.892 49.3291 153.273 49.3291H152.055V51.2248H153.313ZM151.755 47.0234C151.755 46.9773 151.795 46.9382 151.84 46.9382H153.227C154.029 46.9382 154.576 47.4011 154.576 48.1177C154.576 48.632 154.264 49.0097 153.859 49.1726C154.322 49.2968 154.72 49.6347 154.72 50.2601C154.72 50.9899 154.133 51.4981 153.286 51.4981H151.84C151.795 51.4981 151.755 51.4588 151.755 51.4133V47.0234Z" fill="#595A59"/>
<path fill-rule="evenodd" clip-rule="evenodd" d="M158.188 49.9868L157.074 47.362H157.061L155.928 49.9868H158.188ZM154.971 51.4194L156.976 46.8867C156.99 46.8605 157.022 46.8406 157.055 46.8406H157.074C157.107 46.8406 157.14 46.8477 157.159 46.8867L159.145 51.4194C159.159 51.4587 159.159 51.4981 159.087 51.4981H158.917C158.872 51.4981 158.839 51.4655 158.826 51.4392L158.299 50.2406H155.81L155.289 51.4392C155.276 51.4655 155.244 51.4981 155.198 51.4981H155.016C154.971 51.4981 154.951 51.4722 154.971 51.4194Z" fill="#595A59"/>
<path fill-rule="evenodd" clip-rule="evenodd" d="M159.683 47.0234C159.683 46.9773 159.722 46.9382 159.767 46.9382H159.911C159.95 46.9382 159.989 46.9773 159.989 47.0234V51.2248H162.067C162.145 51.2248 162.152 51.2639 162.152 51.3093V51.4261C162.152 51.4722 162.112 51.4981 162.067 51.4981H159.767C159.722 51.4981 159.683 51.4588 159.683 51.4133V47.0234Z" fill="#595A59"/>
<path fill-rule="evenodd" clip-rule="evenodd" d="M138.678 57.6054L138.738 57.5266C138.783 57.4745 138.828 57.4549 138.88 57.501C138.946 57.5593 139.428 58.0022 140.086 58.0022C140.679 58.0022 141.18 57.6054 141.18 57.1298C141.18 56.5502 140.704 56.2896 139.917 56.0224C139.161 55.7551 138.659 55.4885 138.659 54.7392C138.659 54.2508 139.05 53.5861 140.066 53.5861C140.711 53.5861 141.187 53.9186 141.187 53.9186C141.212 53.9381 141.258 53.9832 141.212 54.0553C141.193 54.0815 141.173 54.1142 141.16 54.1398C141.121 54.1916 141.082 54.2115 141.017 54.1728C140.998 54.1593 140.561 53.8661 140.06 53.8661C139.259 53.8661 138.959 54.3616 138.959 54.7325C138.959 55.2859 139.382 55.5279 140.04 55.7423C140.932 56.049 141.499 56.3613 141.499 57.1166C141.499 57.7676 140.828 58.2759 140.079 58.2759C139.304 58.2759 138.783 57.8205 138.698 57.742C138.659 57.7094 138.627 57.6771 138.678 57.6054Z" fill="#595A59"/>
<path fill-rule="evenodd" clip-rule="evenodd" d="M144.316 57.9894C145.456 57.9894 146.381 57.0773 146.381 55.9379C146.381 54.7982 145.456 53.8732 144.316 53.8732C143.176 53.8732 142.258 54.7982 142.258 55.9379C142.258 57.0773 143.176 57.9894 144.316 57.9894ZM144.316 53.5861C145.626 53.5861 146.668 54.6349 146.668 55.9379C146.668 57.2466 145.626 58.2759 144.316 58.2759C143.014 58.2759 141.971 57.2466 141.971 55.9379C141.971 54.6349 143.014 53.5861 144.316 53.5861Z" fill="#595A59"/>
<path fill-rule="evenodd" clip-rule="evenodd" d="M147.479 53.7365C147.479 53.6904 147.519 53.652 147.564 53.652H147.701C147.747 53.652 147.786 53.6904 147.786 53.7365V56.5168C147.786 57.3573 148.314 57.976 149.18 57.976C150.053 57.976 150.587 57.3644 150.587 56.5239V53.7365C150.587 53.6843 150.613 53.652 150.678 53.652H150.808C150.854 53.652 150.893 53.6904 150.893 53.7365V56.5502C150.893 57.5465 150.216 58.2759 149.18 58.2759C148.151 58.2759 147.479 57.5465 147.479 56.5502V53.7365Z" fill="#595A59"/>
<path fill-rule="evenodd" clip-rule="evenodd" d="M153.717 56.1786C154.342 56.1786 154.87 55.6901 154.87 55.0452C154.87 54.4266 154.342 53.9509 153.711 53.9509H152.342V56.1786H153.717ZM152.03 53.7365C152.03 53.6904 152.062 53.652 152.114 53.652H153.73C154.525 53.652 155.183 54.2508 155.183 55.0452C155.183 55.7029 154.726 56.2311 154.108 56.4068L155.059 58.0938C155.091 58.146 155.079 58.2109 155.013 58.2109H154.811C154.766 58.2109 154.739 58.1914 154.72 58.152L153.776 56.4458C153.691 56.4522 153.619 56.4522 153.535 56.4522H152.336V58.1265C152.336 58.1716 152.297 58.2109 152.232 58.2109H152.114C152.069 58.2109 152.03 58.1716 152.03 58.1265V53.7365Z" fill="#595A59"/>
<path fill-rule="evenodd" clip-rule="evenodd" d="M158.104 53.5861C158.768 53.5861 159.263 53.8072 159.687 54.1916C159.719 54.2243 159.726 54.2771 159.693 54.3097L159.589 54.4198C159.55 54.4592 159.517 54.4525 159.478 54.4138C159.107 54.0815 158.638 53.8789 158.104 53.8789C156.964 53.8789 156.072 54.8109 156.072 55.9379C156.072 57.0577 156.964 57.9831 158.104 57.9831C158.664 57.9831 159.088 57.7616 159.478 57.4361C159.517 57.4034 159.557 57.4034 159.582 57.4226L159.693 57.5337C159.726 57.5593 159.726 57.6121 159.693 57.6444C159.25 58.0743 158.684 58.2759 158.104 58.2759C156.801 58.2759 155.746 57.2466 155.746 55.9379C155.746 54.6349 156.801 53.5861 158.104 53.5861Z" fill="#595A59"/>
<path fill-rule="evenodd" clip-rule="evenodd" d="M160.557 53.7365C160.557 53.6904 160.596 53.652 160.641 53.652H160.785C160.831 53.652 160.869 53.6904 160.869 53.7365V58.1265C160.869 58.1786 160.824 58.2109 160.778 58.2109H160.641C160.596 58.2109 160.557 58.1716 160.557 58.1265V53.7365Z" fill="#595A59"/>
<path fill-rule="evenodd" clip-rule="evenodd" d="M162.056 53.6705C162.056 53.6187 162.102 53.5861 162.154 53.5861H162.264L165.391 57.6572C165.397 57.6572 165.397 57.6572 165.397 57.6572V53.7365C165.397 53.6904 165.437 53.652 165.482 53.652H165.613C165.658 53.652 165.697 53.6904 165.697 53.7365V58.1914C165.697 58.2503 165.645 58.2759 165.593 58.2759H165.508C165.501 58.2759 165.45 58.256 162.356 54.166H162.349V58.1264C162.349 58.1716 162.31 58.2109 162.264 58.2109H162.14C162.095 58.2109 162.056 58.1716 162.056 58.1264V53.6705Z" fill="#595A59"/>
<path fill-rule="evenodd" clip-rule="evenodd" d="M168.919 53.5861C169.577 53.5861 170.072 53.8072 170.496 54.1916C170.528 54.2243 170.534 54.2771 170.502 54.3097C170.469 54.3481 170.43 54.3875 170.398 54.4198C170.358 54.4659 170.326 54.4592 170.287 54.4198C169.922 54.0815 169.447 53.8732 168.913 53.8732C167.779 53.8732 166.887 54.7982 166.887 55.9251C166.887 57.0517 167.779 57.976 168.913 57.976C169.707 57.976 170.202 57.67 170.268 57.6182V56.394H169.154C169.082 56.394 169.069 56.3674 169.069 56.3085V56.1785C169.069 56.1267 169.082 56.1001 169.154 56.1001H170.489C170.534 56.1001 170.574 56.1395 170.574 56.1785V57.6899C170.574 57.7875 170.534 57.8205 170.482 57.8592C170.365 57.9376 169.772 58.2759 168.919 58.2759C167.61 58.2759 166.561 57.2466 166.561 55.9379C166.561 54.6349 167.61 53.5861 168.919 53.5861Z" fill="#595A59"/>
<path fill-rule="evenodd" clip-rule="evenodd" d="M141.519 63.4137L140.405 60.7886H140.391L139.259 63.4137H141.519ZM138.301 64.8466L140.307 60.3127C140.32 60.2867 140.353 60.2672 140.385 60.2672H140.405C140.438 60.2672 140.47 60.2739 140.49 60.3127L142.476 64.8466C142.489 64.8854 142.489 64.9247 142.417 64.9247H142.248C142.202 64.9247 142.17 64.8921 142.157 64.8658L141.629 63.6672H139.141L138.62 64.8658C138.607 64.8921 138.574 64.9247 138.529 64.9247H138.347C138.301 64.9247 138.282 64.8981 138.301 64.8466Z" fill="#595A59"/>
<path fill-rule="evenodd" clip-rule="evenodd" d="M142.74 64.3189L142.799 64.2404C142.844 64.1883 142.89 64.1687 142.942 64.2145C143.008 64.2727 143.489 64.7164 144.147 64.7164C144.74 64.7164 145.242 64.3189 145.242 63.8432C145.242 63.264 144.766 63.0034 143.978 62.7362C143.222 62.4686 142.721 62.202 142.721 61.4527C142.721 60.9643 143.112 60.2999 144.127 60.2999C144.772 60.2999 145.248 60.6321 145.248 60.6321C145.274 60.6516 145.319 60.697 145.274 60.7687C145.254 60.795 145.234 60.8277 145.222 60.8532C145.182 60.9054 145.144 60.9249 145.078 60.8866C145.059 60.8731 144.623 60.5803 144.121 60.5803C143.32 60.5803 143.02 61.0754 143.02 61.4463C143.02 61.9997 143.443 62.2414 144.102 62.4558C144.994 62.7624 145.561 63.0751 145.561 63.8305C145.561 64.4811 144.889 64.9894 144.14 64.9894C143.366 64.9894 142.844 64.5343 142.76 64.4555C142.721 64.4232 142.688 64.3906 142.74 64.3189Z" fill="#595A59"/>
<path fill-rule="evenodd" clip-rule="evenodd" d="M146.085 64.3189L146.144 64.2404C146.189 64.1883 146.234 64.1687 146.286 64.2145C146.352 64.2727 146.834 64.7164 147.492 64.7164C148.084 64.7164 148.586 64.3189 148.586 63.8432C148.586 63.264 148.11 63.0034 147.323 62.7362C146.567 62.4686 146.065 62.202 146.065 61.4527C146.065 60.9643 146.456 60.2999 147.472 60.2999C148.117 60.2999 148.593 60.6321 148.593 60.6321C148.619 60.6516 148.665 60.697 148.619 60.7687C148.599 60.795 148.579 60.8277 148.566 60.8532C148.527 60.9054 148.489 60.9249 148.423 60.8866C148.403 60.8731 147.968 60.5803 147.465 60.5803C146.665 60.5803 146.365 61.0754 146.365 61.4463C146.365 61.9997 146.789 62.2414 147.447 62.4558C148.338 62.7624 148.906 63.0751 148.906 63.8305C148.906 64.4811 148.234 64.9894 147.485 64.9894C146.71 64.9894 146.189 64.5343 146.105 64.4555C146.065 64.4232 146.033 64.3906 146.085 64.3189Z" fill="#595A59"/>
<path fill-rule="evenodd" clip-rule="evenodd" d="M151.722 64.7036C152.862 64.7036 153.787 63.7911 153.787 62.6513C153.787 61.512 152.862 60.5866 151.722 60.5866C150.583 60.5866 149.665 61.512 149.665 62.6513C149.665 63.7911 150.583 64.7036 151.722 64.7036ZM151.722 60.2999C153.032 60.2999 154.074 61.3487 154.074 62.6513C154.074 63.9604 153.032 64.9894 151.722 64.9894C150.42 64.9894 149.378 63.9604 149.378 62.6513C149.378 61.3487 150.42 60.2999 151.722 60.2999Z" fill="#595A59"/>
<path fill-rule="evenodd" clip-rule="evenodd" d="M156.97 60.2999C157.635 60.2999 158.13 60.521 158.553 60.9054C158.585 60.9381 158.592 60.9906 158.56 61.0232L158.456 61.1336C158.416 61.1727 158.384 61.1659 158.345 61.1276C157.973 60.795 157.505 60.593 156.97 60.593C155.831 60.593 154.938 61.5247 154.938 62.6513C154.938 63.7715 155.831 64.6965 156.97 64.6965C157.531 64.6965 157.954 64.4754 158.345 64.1499C158.384 64.1172 158.423 64.1172 158.449 64.1361L158.56 64.2472C158.592 64.2727 158.592 64.3259 158.56 64.3582C158.117 64.7881 157.55 64.9894 156.97 64.9894C155.668 64.9894 154.613 63.9604 154.613 62.6513C154.613 61.3487 155.668 60.2999 156.97 60.2999Z" fill="#595A59"/>
<path fill-rule="evenodd" clip-rule="evenodd" d="M159.423 60.45C159.423 60.4039 159.462 60.3655 159.508 60.3655H159.651C159.696 60.3655 159.735 60.4039 159.735 60.45V64.8399C159.735 64.8921 159.691 64.9247 159.645 64.9247H159.508C159.462 64.9247 159.423 64.8854 159.423 64.8399V60.45Z" fill="#595A59"/>
<path fill-rule="evenodd" clip-rule="evenodd" d="M163.489 63.4137L162.375 60.7886H162.362L161.229 63.4137H163.489ZM160.271 64.8466L162.277 60.3127C162.29 60.2867 162.323 60.2672 162.356 60.2672H162.375C162.408 60.2672 162.44 60.2739 162.46 60.3127L164.446 64.8466C164.46 64.8854 164.46 64.9247 164.388 64.9247H164.219C164.172 64.9247 164.14 64.8921 164.127 64.8658L163.599 63.6672H161.111L160.59 64.8658C160.577 64.8921 160.545 64.9247 160.499 64.9247H160.316C160.271 64.9247 160.252 64.8981 160.271 64.8466Z" fill="#595A59"/>
<path fill-rule="evenodd" clip-rule="evenodd" d="M165.419 60.6449H164.176C164.111 60.6449 164.091 60.6065 164.091 60.5476V60.45C164.091 60.3982 164.13 60.3655 164.176 60.3655H166.976C167.029 60.3655 167.061 60.4039 167.061 60.45V60.5604C167.061 60.6065 167.029 60.6449 166.976 60.6449H165.726V64.8399C165.726 64.8854 165.687 64.9247 165.622 64.9247H165.505C165.458 64.9247 165.419 64.8854 165.419 64.8399V60.6449Z" fill="#595A59"/>
<path fill-rule="evenodd" clip-rule="evenodd" d="M167.61 60.45C167.61 60.4039 167.649 60.3655 167.695 60.3655H167.838C167.884 60.3655 167.923 60.4039 167.923 60.45V64.8399C167.923 64.8921 167.877 64.9247 167.831 64.9247H167.695C167.649 64.9247 167.61 64.8854 167.61 64.8399V60.45Z" fill="#595A59"/>
<path fill-rule="evenodd" clip-rule="evenodd" d="M171.129 64.7036C172.268 64.7036 173.193 63.7911 173.193 62.6513C173.193 61.512 172.268 60.5866 171.129 60.5866C169.989 60.5866 169.07 61.512 169.07 62.6513C169.07 63.7911 169.989 64.7036 171.129 64.7036ZM171.129 60.2999C172.438 60.2999 173.48 61.3487 173.48 62.6513C173.48 63.9604 172.438 64.9894 171.129 64.9894C169.826 64.9894 168.784 63.9604 168.784 62.6513C168.784 61.3487 169.826 60.2999 171.129 60.2999Z" fill="#595A59"/>
<path fill-rule="evenodd" clip-rule="evenodd" d="M174.344 60.3847C174.344 60.3322 174.39 60.2999 174.443 60.2999H174.553L177.679 64.371C177.686 64.371 177.686 64.371 177.686 64.371V60.45C177.686 60.4039 177.725 60.3655 177.771 60.3655H177.901C177.947 60.3655 177.986 60.4039 177.986 60.45V64.9049C177.986 64.9638 177.934 64.9894 177.882 64.9894H177.797C177.79 64.9894 177.738 64.9702 174.644 60.8798H174.637V64.8399C174.637 64.8854 174.599 64.9247 174.553 64.9247H174.429C174.384 64.9247 174.344 64.8854 174.344 64.8399V60.3847Z" fill="#595A59"/>
<mask id="mask0_68_6509" style="mask-type:luminance" maskUnits="userSpaceOnUse" x="111" y="19" width="24" height="41">
<path d="M127.673 29.5552C127.673 26.5696 125.793 24.4682 123.028 24.4682C120.208 24.4682 118.162 26.5696 118.162 29.5552C118.162 32.5412 120.208 34.6422 123.028 34.6422C125.793 34.6422 127.673 32.5412 127.673 29.5552ZM122.918 55.0452C126.291 55.0452 129.221 53.3312 129.221 50.6772C129.221 49.7926 128.668 47.5252 125.074 47.5252C123.471 47.5252 121.812 47.5252 120.208 47.6363C119.876 47.7467 117.167 48.6316 117.167 51.1194C117.167 53.3864 119.545 55.0452 122.918 55.0452ZM115.121 34.8082C115.121 34.8082 113.407 32.7623 113.407 29.4448C113.407 24.3022 117.278 19.7682 122.918 19.7682H132.594C133.202 19.7682 133.644 20.2109 133.644 20.8188V22.2015C133.644 22.5883 133.423 23.0861 133.036 23.1413L129.995 23.9707C129.995 23.9707 132.372 25.7402 132.372 29.8871C132.372 34.587 128.723 38.8999 122.973 38.8999C120.153 38.8999 118.605 38.0153 118.162 38.0153C117.775 38.0153 115.895 38.9551 115.895 40.7243C115.895 41.9963 116.89 42.9916 118.549 42.9916H126.069C130.88 42.9916 134.75 45.5901 134.75 50.4005C134.75 55.2664 130.327 59.5795 122.973 59.5795C115.176 59.5795 112.025 55.5982 112.025 52.0044C112.025 48.6868 114.734 47.1385 115.288 46.8066V46.6407C114.126 46.3091 111.195 44.816 111.195 41.1117C111.195 36.854 115.121 34.8082 115.121 34.8082Z" fill="#4C1734"/>
</mask>
<g mask="url(#mask0_68_6509)">
<path fill-rule="evenodd" clip-rule="evenodd" d="M127.673 29.5552C127.673 26.5696 125.793 24.4682 123.028 24.4682C120.208 24.4682 118.162 26.5696 118.162 29.5552C118.162 32.5412 120.208 34.6422 123.028 34.6422C125.793 34.6422 127.673 32.5412 127.673 29.5552ZM122.918 55.0452C126.291 55.0452 129.221 53.3312 129.221 50.6772C129.221 49.7926 128.668 47.5252 125.074 47.5252C123.471 47.5252 121.812 47.5252 120.208 47.6363C119.876 47.7467 117.167 48.6316 117.167 51.1194C117.167 53.3864 119.545 55.0452 122.918 55.0452ZM115.121 34.8082C115.121 34.8082 113.407 32.7623 113.407 29.4448C113.407 24.3022 117.278 19.7682 122.918 19.7682H132.594C133.202 19.7682 133.644 20.2109 133.644 20.8188V22.2015C133.644 22.5883 133.423 23.0861 133.036 23.1413L129.995 23.9707C129.995 23.9707 132.372 25.7402 132.372 29.8871C132.372 34.587 128.723 38.8999 122.973 38.8999C120.153 38.8999 118.605 38.0153 118.162 38.0153C117.775 38.0153 115.895 38.9551 115.895 40.7243C115.895 41.9963 116.89 42.9916 118.549 42.9916H126.069C130.88 42.9916 134.75 45.5901 134.75 50.4005C134.75 55.2664 130.327 59.5795 122.973 59.5795C115.176 59.5795 112.025 55.5982 112.025 52.0044C112.025 48.6868 114.734 47.1385 115.288 46.8066V46.6407C114.126 46.3091 111.195 44.816 111.195 41.1117C111.195 36.854 115.121 34.8082 115.121 34.8082Z" fill="#373737"/>
</g>
<mask id="mask1_68_6509" style="mask-type:luminance" maskUnits="userSpaceOnUse" x="134" y="19" width="17" height="24">
<path d="M134.751 39.5633L135.913 37.4067C136.133 36.9644 136.742 36.7988 137.295 37.1304C137.295 37.1304 139.727 38.568 142.437 38.568C144.096 38.568 145.146 37.9046 145.146 36.6881C145.146 35.1953 143.929 34.4763 140.888 33.0939C137.46 31.6011 134.585 29.5 134.585 25.8506C134.585 23.0861 136.852 19.7682 142.16 19.7682C145.257 19.7682 147.579 20.7636 148.685 21.4825C149.183 21.8141 149.459 22.5331 149.127 23.0861L148.132 24.966C147.855 25.4635 147.137 25.6295 146.694 25.4083C146.694 25.4083 144.261 24.247 142.16 24.247C140.28 24.247 139.672 25.0764 139.672 25.9061C139.672 27.3434 141.054 27.952 143.211 28.8918C147.247 30.6609 150.565 32.3752 150.565 36.5221C150.565 39.9504 147.302 42.9916 142.382 42.9916C138.677 42.9916 136.244 41.6644 135.083 40.7243C134.751 40.5031 134.53 40.0056 134.751 39.5633Z" fill="#4C1734"/>
</mask>
<g mask="url(#mask1_68_6509)">
<path fill-rule="evenodd" clip-rule="evenodd" d="M134.751 39.5633L135.913 37.4067C136.133 36.9644 136.742 36.7988 137.295 37.1304C137.295 37.1304 139.727 38.568 142.437 38.568C144.096 38.568 145.146 37.9046 145.146 36.6881C145.146 35.1953 143.929 34.4763 140.888 33.0939C137.46 31.6011 134.585 29.5 134.585 25.8506C134.585 23.0861 136.852 19.7682 142.16 19.7682C145.257 19.7682 147.579 20.7636 148.685 21.4825C149.183 21.8141 149.459 22.5331 149.127 23.0861L148.132 24.966C147.855 25.4635 147.137 25.6295 146.694 25.4083C146.694 25.4083 144.261 24.247 142.16 24.247C140.28 24.247 139.672 25.0764 139.672 25.9061C139.672 27.3434 141.054 27.952 143.211 28.8918C147.247 30.6609 150.565 32.3752 150.565 36.5221C150.565 39.9504 147.302 42.9916 142.382 42.9916C138.677 42.9916 136.244 41.6644 135.083 40.7243C134.751 40.5031 134.53 40.0056 134.751 39.5633Z" fill="#373737"/>
</g>
<mask id="mask2_68_6509" style="mask-type:luminance" maskUnits="userSpaceOnUse" x="152" y="19" width="19" height="24">
<path d="M160.297 39.0658C162.508 39.0658 164.609 37.4067 165.273 36.301V32.7623C164.941 32.5412 163.393 31.8774 161.403 31.8774C158.748 31.8774 156.924 33.2602 156.924 35.5268C156.924 37.5175 158.251 39.0658 160.297 39.0658ZM160.96 28.4495C163.282 28.4495 165.328 29.1129 165.328 29.1129C165.384 25.6295 164.72 24.247 161.9 24.247C159.356 24.247 156.869 24.9108 155.707 25.2424C155.043 25.4083 154.657 24.966 154.491 24.3574L154.049 22.3119C153.883 21.5933 154.269 21.2062 154.767 21.0399C155.154 20.8743 158.306 19.7682 162.398 19.7682C169.475 19.7682 170.139 24.0811 170.139 29.6104V41.388C170.139 41.9411 169.641 42.4386 169.089 42.4386H167.54C167.042 42.4386 166.821 42.2174 166.6 41.6644L166.047 40.1716C164.831 41.3328 162.674 42.9916 159.246 42.9916C155.099 42.9916 152.114 40.1716 152.114 35.582C152.114 31.5459 155.32 28.4495 160.96 28.4495Z" fill="#4C1734"/>
</mask>
<g mask="url(#mask2_68_6509)">
<path fill-rule="evenodd" clip-rule="evenodd" d="M160.297 39.0658C162.508 39.0658 164.609 37.4067 165.273 36.301V32.7623C164.941 32.5412 163.393 31.8774 161.403 31.8774C158.748 31.8774 156.924 33.2602 156.924 35.5268C156.924 37.5175 158.251 39.0658 160.297 39.0658ZM160.96 28.4495C163.282 28.4495 165.328 29.1129 165.328 29.1129C165.384 25.6295 164.72 24.247 161.9 24.247C159.356 24.247 156.869 24.9108 155.707 25.2424C155.043 25.4083 154.657 24.966 154.491 24.3574L154.049 22.3119C153.883 21.5933 154.269 21.2062 154.767 21.0399C155.154 20.8743 158.306 19.7682 162.398 19.7682C169.475 19.7682 170.139 24.0811 170.139 29.6104V41.388C170.139 41.9411 169.641 42.4386 169.089 42.4386H167.54C167.042 42.4386 166.821 42.2174 166.6 41.6644L166.047 40.1716C164.831 41.3328 162.674 42.9916 159.246 42.9916C155.099 42.9916 152.114 40.1716 152.114 35.582C152.114 31.5459 155.32 28.4495 160.96 28.4495Z" fill="#373737"/>
</g>
<mask id="mask3_68_6509" style="mask-type:luminance" maskUnits="userSpaceOnUse" x="129" y="60" width="8" height="5">
<path d="M135.438 64.9109C135.368 64.9109 135.298 64.9062 135.227 64.8965C133.538 64.6622 131.857 64.2916 130.23 63.7955C129.426 63.5507 128.973 62.7002 129.218 61.8964C129.463 61.0919 130.315 60.6392 131.117 60.8842C132.591 61.3336 134.115 61.6688 135.645 61.8812C136.478 61.997 137.059 62.7655 136.944 63.5979C136.838 64.3593 136.186 64.9109 135.438 64.9109Z" fill="#4C1734"/>
</mask>
<g mask="url(#mask3_68_6509)">
<path fill-rule="evenodd" clip-rule="evenodd" d="M135.438 64.9109C135.368 64.9109 135.298 64.9062 135.227 64.8965C133.538 64.6622 131.857 64.2916 130.23 63.7955C129.426 63.5507 128.973 62.7002 129.218 61.8964C129.463 61.0919 130.315 60.6392 131.117 60.8842C132.591 61.3336 134.115 61.6688 135.645 61.8812C136.478 61.997 137.059 62.7655 136.944 63.5979C136.838 64.3593 136.186 64.9109 135.438 64.9109Z" fill="#373737"/>
</g>
<mask id="mask4_68_6509" style="mask-type:luminance" maskUnits="userSpaceOnUse" x="163" y="44" width="7" height="8">
<path d="M165.462 51.5247C165.169 51.5247 164.873 51.4402 164.612 51.2639C163.915 50.7933 163.732 49.8475 164.202 49.1507C165.151 47.7461 165.796 46.8898 166.488 45.3451C166.831 44.578 167.731 44.235 168.499 44.5787C169.266 44.922 169.609 45.8227 169.266 46.5898C168.502 48.294 167.772 49.3049 166.725 50.8546C166.431 51.2898 165.951 51.5247 165.462 51.5247Z" fill="#4C1734"/>
</mask>
<g mask="url(#mask4_68_6509)">
<path fill-rule="evenodd" clip-rule="evenodd" d="M165.462 51.5247C165.169 51.5247 164.873 51.4402 164.612 51.2639C163.915 50.7933 163.732 49.8475 164.202 49.1507C165.151 47.7461 165.796 46.8898 166.488 45.3451C166.831 44.578 167.731 44.235 168.499 44.5787C169.266 44.922 169.609 45.8227 169.266 46.5898C168.502 48.294 167.772 49.3049 166.725 50.8546C166.431 51.2898 165.951 51.5247 165.462 51.5247Z" fill="#373737"/>
</g>
<mask id="mask5_68_6509" style="mask-type:luminance" maskUnits="userSpaceOnUse" x="107" y="0" width="61" height="35">
<path d="M108.711 34.1814C107.87 34.1814 107.189 33.5002 107.189 32.6597C107.189 14.7136 121.789 0.11322 139.736 0.11322C150.989 0.11322 161.292 5.80545 167.296 15.34C167.744 16.0515 167.53 16.991 166.819 17.439C166.107 17.887 165.168 17.6729 164.72 16.962C159.277 8.31783 149.937 3.15675 139.736 3.15675C123.468 3.15675 110.233 16.3918 110.233 32.6597C110.233 33.5002 109.552 34.1814 108.711 34.1814Z" fill="#4C1734"/>
</mask>
<g mask="url(#mask5_68_6509)">
<path fill-rule="evenodd" clip-rule="evenodd" d="M108.711 34.1814C107.87 34.1814 107.189 33.5002 107.189 32.6597C107.189 14.7136 121.789 0.11322 139.736 0.11322C150.989 0.11322 161.292 5.80545 167.296 15.34C167.744 16.0515 167.53 16.991 166.819 17.439C166.107 17.887 165.168 17.6729 164.72 16.962C159.277 8.31783 149.937 3.15675 139.736 3.15675C123.468 3.15675 110.233 16.3918 110.233 32.6597C110.233 33.5002 109.552 34.1814 108.711 34.1814Z" fill="#373737"/>
</g>
<mask id="mask6_68_6509" style="mask-type:luminance" maskUnits="userSpaceOnUse" x="106" y="69" width="73" height="2">
<path d="M106.705 69.4002H178.338V70.4228H106.705V69.4002Z" fill="#4C1734"/>
</mask>
<g mask="url(#mask6_68_6509)">
<path fill-rule="evenodd" clip-rule="evenodd" d="M106.705 70.4228H178.338V69.4002H106.705V70.4228Z" fill="#373737"/>
</g>
<path fill-rule="evenodd" clip-rule="evenodd" d="M142.891 95.6337L142 93.3793L141.106 95.6337H142.891Z" fill="#373737"/>
<path d="M117.877 78.0989C117.332 78.255 116.856 78.333 116.451 78.333C115.735 78.333 115.186 78.1293 114.803 77.7219C114.422 77.3144 114.231 76.7307 114.231 75.9705C114.231 75.2246 114.425 74.6448 114.812 74.2313C115.199 73.8158 115.743 73.608 116.442 73.608C116.9 73.608 117.376 73.6759 117.871 73.8117V74.4016C117.251 74.1908 116.775 74.0854 116.445 74.0854C115.958 74.0854 115.58 74.2506 115.311 74.581C115.043 74.9114 114.909 75.3766 114.909 75.9766C114.909 76.5705 115.053 77.0327 115.341 77.3631C115.629 77.6915 116.032 77.8557 116.551 77.8557C116.764 77.8557 116.994 77.8182 117.242 77.7432V76.2776H117.877V78.0989ZM118.996 78.2205V73.7205H119.634V77.7432H121.659V78.2205H118.996ZM124.128 78.333C123.504 78.333 123.001 78.1172 122.62 77.6854C122.241 77.2516 122.052 76.679 122.052 75.9675C122.052 75.2519 122.242 74.6803 122.623 74.2526C123.006 73.8229 123.517 73.608 124.156 73.608C124.792 73.608 125.302 73.8218 125.685 74.2496C126.068 74.6773 126.26 75.2479 126.26 75.9614C126.26 76.6891 126.068 77.2668 125.685 77.6945C125.302 78.1202 124.783 78.333 124.128 78.333ZM124.138 77.8557C124.598 77.8557 124.953 77.6905 125.205 77.3601C125.456 77.0276 125.582 76.5594 125.582 75.9553C125.582 75.3695 125.455 74.9114 125.202 74.581C124.95 74.2506 124.602 74.0854 124.156 74.0854C123.708 74.0854 123.358 74.2516 123.107 74.584C122.855 74.9144 122.73 75.3746 122.73 75.9644C122.73 76.5523 122.854 77.0144 123.104 77.3509C123.353 77.6874 123.698 77.8557 124.138 77.8557ZM127.157 78.2205V73.7205H128.324C128.774 73.7205 129.119 73.8056 129.358 73.9759C129.599 74.1462 129.72 74.3914 129.72 74.7117C129.72 75.257 129.412 75.6452 128.796 75.8763C129.532 76.1013 129.899 76.5077 129.899 77.0955C129.899 77.4604 129.778 77.7391 129.535 77.9317C129.291 78.1243 128.941 78.2205 128.483 78.2205H127.157ZM127.789 77.7432H127.92C128.388 77.7432 128.691 77.7138 128.829 77.655C129.093 77.5435 129.224 77.3367 129.224 77.0347C129.224 76.7671 129.105 76.5452 128.866 76.3688C128.626 76.1904 128.327 76.1013 127.969 76.1013H127.789V77.7432ZM127.789 75.6969H127.993C128.334 75.6969 128.597 75.6239 128.784 75.4779C128.972 75.332 129.066 75.1262 129.066 74.8607C129.066 74.4188 128.724 74.1979 128.039 74.1979H127.789V75.6969ZM133.019 76.4996L132.253 74.5597L131.484 76.4996H133.019ZM133.694 78.2205L133.205 76.9739H131.298L130.802 78.2205H130.21L131.994 73.7205H132.627L134.384 78.2205H133.694ZM135.038 78.2205V73.7205H135.677V77.7432H137.702V78.2205H135.038ZM141.21 78.333C140.908 78.333 140.522 78.2672 140.052 78.1354V77.503C140.559 77.7381 140.975 77.8557 141.302 77.8557C141.553 77.8557 141.755 77.7898 141.907 77.658C142.061 77.5263 142.138 77.353 142.138 77.1381C142.138 76.9617 142.087 76.8117 141.986 76.6881C141.886 76.5644 141.702 76.4266 141.432 76.2746L141.122 76.0952C140.739 75.8763 140.468 75.6705 140.31 75.4779C140.154 75.2833 140.076 75.0573 140.076 74.7999C140.076 74.4533 140.202 74.1685 140.453 73.9455C140.705 73.7205 141.025 73.608 141.414 73.608C141.761 73.608 142.127 73.6658 142.512 73.7813V74.3651C142.037 74.1786 141.684 74.0854 141.451 74.0854C141.23 74.0854 141.047 74.1441 140.903 74.2617C140.759 74.3793 140.687 74.5273 140.687 74.7056C140.687 74.8556 140.74 74.9884 140.845 75.104C140.951 75.2195 141.143 75.3573 141.423 75.5175L141.745 75.6999C142.135 75.9209 142.406 76.1296 142.56 76.3263C142.714 76.5229 142.791 76.759 142.791 77.0347C142.791 77.4259 142.647 77.7401 142.357 77.9773C142.069 78.2145 141.687 78.333 141.21 78.333ZM145.498 78.333C144.873 78.333 144.371 78.1172 143.989 77.6854C143.61 77.2516 143.421 76.679 143.421 75.9675C143.421 75.2519 143.611 74.6803 143.992 74.2526C144.376 73.8229 144.886 73.608 145.525 73.608C146.161 73.608 146.671 73.8218 147.054 74.2496C147.437 74.6773 147.629 75.2479 147.629 75.9614C147.629 76.6891 147.437 77.2668 147.054 77.6945C146.671 78.1202 146.152 78.333 145.498 78.333ZM145.507 77.8557C145.967 77.8557 146.323 77.6905 146.574 77.3601C146.825 77.0276 146.951 76.5594 146.951 75.9553C146.951 75.3695 146.824 74.9114 146.571 74.581C146.32 74.2506 145.971 74.0854 145.525 74.0854C145.077 74.0854 144.727 74.2516 144.476 74.584C144.225 74.9144 144.099 75.3746 144.099 75.9644C144.099 76.5523 144.224 77.0144 144.473 77.3509C144.722 77.6874 145.067 77.8557 145.507 77.8557ZM148.489 73.7205H149.128V76.5604C149.128 77.0124 149.211 77.3418 149.377 77.5486C149.546 77.7533 149.812 77.8557 150.177 77.8557C150.534 77.8557 150.786 77.7594 150.934 77.5668C151.084 77.3722 151.159 77.0438 151.159 76.5817V73.7205H151.719V76.5725C151.719 77.1867 151.592 77.6337 151.338 77.9134C151.087 78.1932 150.686 78.333 150.134 78.333C149.573 78.333 149.158 78.1881 148.891 77.8982C148.623 77.6084 148.489 77.1604 148.489 76.5543V73.7205ZM152.844 78.2205V73.7205H154.206C154.638 73.7205 154.968 73.8158 155.197 74.0063C155.428 74.1968 155.544 74.4735 155.544 74.8364C155.544 75.4364 155.241 75.8621 154.634 76.1134L156.137 78.2205H155.352L154.072 76.3171H153.476V78.2205H152.844ZM153.476 75.8398H153.683C154.485 75.8398 154.887 75.5246 154.887 74.8942C154.887 74.43 154.55 74.1979 153.877 74.1979H153.476V75.8398ZM158.712 78.333C158.013 78.333 157.472 78.1283 157.091 77.7188C156.71 77.3074 156.52 76.7256 156.52 75.9736C156.52 75.2235 156.713 74.6418 157.1 74.2283C157.49 73.8147 158.037 73.608 158.742 73.608C159.146 73.608 159.618 73.6739 160.159 73.8056V74.4046C159.543 74.1918 159.068 74.0854 158.733 74.0854C158.245 74.0854 157.867 74.2506 157.599 74.581C157.331 74.9114 157.198 75.3776 157.198 75.9796C157.198 76.5533 157.341 77.0063 157.626 77.3388C157.912 77.6692 158.302 77.8344 158.797 77.8344C159.223 77.8344 159.679 77.7036 160.165 77.4421V77.9895C159.721 78.2185 159.237 78.333 158.712 78.333ZM161.093 78.2205V73.7205H161.731V78.2205H161.093ZM162.89 78.2205V73.7205H163.516L165.781 77.1959V73.7205H166.329V78.2205H165.705L163.437 74.7452V78.2205H162.89ZM170.874 78.0989C170.329 78.255 169.854 78.333 169.448 78.333C168.733 78.333 168.183 78.1293 167.8 77.7219C167.419 77.3144 167.229 76.7307 167.229 75.9705C167.229 75.2246 167.422 74.6448 167.809 74.2313C168.196 73.8158 168.74 73.608 169.439 73.608C169.897 73.608 170.373 73.6759 170.868 73.8117V74.4016C170.248 74.1908 169.772 74.0854 169.442 74.0854C168.956 74.0854 168.578 74.2506 168.308 74.581C168.04 74.9114 167.907 75.3766 167.907 75.9766C167.907 76.5705 168.05 77.0327 168.338 77.3631C168.626 77.6915 169.03 77.8557 169.548 77.8557C169.761 77.8557 169.991 77.8182 170.239 77.7432V76.2776H170.874V78.0989Z" fill="#6A6A6A"/>
<path d="M125.865 83.9048L125.098 81.9649L124.329 83.9048H125.865ZM126.54 85.6257L126.05 84.3791H124.144L123.648 85.6257H123.055L124.84 81.1257H125.472L127.23 85.6257H126.54ZM128.467 85.6257L127.309 81.1257H127.923L128.844 84.6801L129.693 81.1257H130.307L131.11 84.6315L132.101 81.1257H132.621L131.359 85.6257H130.723L129.93 82.1564L129.1 85.6257H128.467ZM135.491 83.9048L134.725 81.9649L133.956 83.9048H135.491ZM136.166 85.6257L135.677 84.3791H133.77L133.274 85.6257H132.682L134.466 81.1257H135.099L136.856 85.6257H136.166ZM137.51 85.6257V81.1257H138.872C139.304 81.1257 139.634 81.221 139.863 81.4115C140.094 81.602 140.21 81.8787 140.21 82.2416C140.21 82.8416 139.907 83.2673 139.301 83.5186L140.803 85.6257H140.018L138.738 83.7223H138.142V85.6257H137.51ZM138.142 83.245H138.349C139.152 83.245 139.553 82.9298 139.553 82.2993C139.553 81.8352 139.217 81.6031 138.544 81.6031H138.142V83.245ZM141.451 85.6257V81.1257H142.947C143.392 81.1257 143.752 81.1754 144.026 81.2747C144.302 81.374 144.54 81.5422 144.74 81.7794C145.059 82.1564 145.218 82.6531 145.218 83.2693C145.218 84.0173 145.02 84.597 144.625 85.0085C144.23 85.42 143.673 85.6257 142.956 85.6257H141.451ZM142.089 85.1484H142.907C143.491 85.1484 143.904 84.9913 144.148 84.6771C144.409 84.3426 144.54 83.8936 144.54 83.3301C144.54 82.801 144.411 82.3855 144.154 82.0835C143.998 81.899 143.811 81.7733 143.594 81.7064C143.377 81.6375 143.051 81.6031 142.615 81.6031H142.089V85.1484ZM146.997 85.7382C146.695 85.7382 146.308 85.6724 145.838 85.5406V84.9082C146.345 85.1433 146.761 85.2609 147.088 85.2609C147.339 85.2609 147.541 85.195 147.693 85.0632C147.847 84.9315 147.924 84.7582 147.924 84.5433C147.924 84.3669 147.873 84.2169 147.772 84.0933C147.673 83.9696 147.488 83.8318 147.219 83.6798L146.908 83.5004C146.525 83.2815 146.255 83.0757 146.097 82.8831C145.94 82.6885 145.862 82.4625 145.862 82.2051C145.862 81.8585 145.988 81.5737 146.239 81.3507C146.491 81.1257 146.811 81.0132 147.2 81.0132C147.547 81.0132 147.913 81.071 148.298 81.1865V81.7703C147.824 81.5838 147.47 81.4906 147.237 81.4906C147.016 81.4906 146.833 81.5493 146.689 81.6669C146.546 81.7845 146.474 81.9325 146.474 82.1108C146.474 82.2608 146.526 82.3936 146.632 82.5091C146.737 82.6247 146.93 82.7625 147.209 82.9227L147.532 83.1051C147.921 83.326 148.193 83.5348 148.347 83.7315C148.501 83.9281 148.578 84.1642 148.578 84.4399C148.578 84.8311 148.433 85.1453 148.143 85.3825C147.855 85.6197 147.473 85.7382 146.997 85.7382ZM151.378 85.6257V85.0997C151.552 84.6923 151.905 84.2484 152.436 83.7679L152.78 83.4608C153.222 83.0615 153.443 82.6652 153.443 82.272C153.443 82.0206 153.367 81.823 153.215 81.6791C153.065 81.5352 152.858 81.4632 152.594 81.4632C152.282 81.4632 151.914 81.5838 151.491 81.825V81.296C151.89 81.1074 152.286 81.0132 152.679 81.0132C153.101 81.0132 153.44 81.1267 153.695 81.3537C153.95 81.5808 154.078 81.8818 154.078 82.2568C154.078 82.5264 154.013 82.7656 153.883 82.9744C153.756 83.1831 153.517 83.4365 153.166 83.7345L152.935 83.9321C152.454 84.3396 152.177 84.7288 152.102 85.0997H154.057V85.6257H151.378ZM156.754 85.7382C156.29 85.7382 155.914 85.5203 155.626 85.0845C155.34 84.6467 155.197 84.0761 155.197 83.3727C155.197 82.6632 155.341 82.0926 155.629 81.6608C155.919 81.2291 156.3 81.0132 156.772 81.0132C157.244 81.0132 157.624 81.2291 157.912 81.6608C158.202 82.0926 158.347 82.6602 158.347 83.3635C158.347 84.0852 158.202 84.6619 157.912 85.0936C157.624 85.5234 157.238 85.7382 156.754 85.7382ZM156.76 85.2882C157.394 85.2882 157.712 84.6436 157.712 83.3544C157.712 82.0936 157.398 81.4632 156.772 81.4632C156.148 81.4632 155.835 82.0997 155.835 83.3727C155.835 84.6497 156.144 85.2882 156.76 85.2882ZM159.679 85.6257V85.1757H160.579V81.6243L159.679 81.8493V81.3872L161.181 81.0132V85.1757H162.081V85.6257H159.679ZM164.115 83.175C163.675 82.8689 163.455 82.5304 163.455 82.1595C163.455 81.8189 163.58 81.5422 163.829 81.3294C164.078 81.1166 164.404 81.0101 164.805 81.0101C165.176 81.0101 165.476 81.1004 165.705 81.2808C165.936 81.4612 166.052 81.6953 166.052 81.9831C166.052 82.4189 165.772 82.8162 165.213 83.175C165.892 83.5075 166.231 83.9362 166.231 84.4612C166.231 84.8382 166.088 85.1453 165.802 85.3825C165.519 85.6197 165.152 85.7382 164.702 85.7382C164.26 85.7382 163.902 85.6267 163.628 85.4038C163.357 85.1788 163.221 84.8838 163.221 84.519C163.221 83.9798 163.519 83.5318 164.115 83.175ZM164.878 82.9865C165.298 82.7108 165.508 82.4037 165.508 82.0652C165.508 81.8848 165.438 81.7399 165.298 81.6304C165.158 81.5189 164.973 81.4632 164.744 81.4632C164.523 81.4632 164.344 81.5179 164.206 81.6274C164.068 81.7348 163.999 81.8747 163.999 82.047C163.999 82.2152 164.061 82.3662 164.185 82.5C164.311 82.6318 164.542 82.7939 164.878 82.9865ZM164.44 83.4183C164.199 83.6048 164.035 83.7679 163.948 83.9078C163.863 84.0456 163.82 84.2179 163.82 84.4247C163.82 84.6821 163.903 84.8909 164.069 85.0511C164.236 85.2092 164.454 85.2882 164.726 85.2882C164.988 85.2882 165.2 85.2203 165.365 85.0845C165.531 84.9487 165.614 84.7723 165.614 84.5555C165.614 84.3811 165.562 84.2342 165.459 84.1146C165.358 83.9929 165.16 83.845 164.866 83.6706L164.44 83.4183Z" fill="#6A6A6A"/>
</g>
<defs>
<clipPath id="clip0_68_6509">
<rect width="74.7251" height="99.97" fill="white" transform="translate(106.51 0.019989)"/>
</clipPath>
</defs>
</svg>
