<svg width="287" height="100" viewBox="0 0 287 100" fill="none" xmlns="http://www.w3.org/2000/svg">
<g clip-path="url(#clip0_68_6374)">
<path d="M212.615 25.0239C213.257 25.7331 213.899 26.4424 214.574 27.1179C218.154 30.9006 221.768 34.6496 225.348 38.4323C228.489 41.7084 231.63 45.0183 234.771 48.2944C235.278 48.8348 235.784 49.3414 236.359 49.9493C236.359 45.964 236.359 42.0799 236.359 38.1959C236.359 34.3118 236.359 30.4615 236.359 26.5437C237.676 26.5437 238.993 26.5437 240.31 26.5437C240.31 37.5204 240.31 48.497 240.31 59.5413C232.373 51.2328 224.504 42.958 216.533 34.6496C216.533 42.5528 216.533 50.3884 216.533 58.2578C215.182 58.2578 213.865 58.2578 212.548 58.2578C212.548 47.1461 212.548 36.0681 212.548 24.9901C212.581 25.0239 212.581 25.0239 212.615 25.0239Z" fill="black"/>
<path d="M86.8054 61.6353C85.826 60.9936 84.8465 60.3856 83.9346 59.6764C80.0168 56.5691 77.5175 52.5837 76.8082 47.6189C75.9639 41.7422 77.6526 36.5409 81.6717 32.184C84.8803 28.7053 88.8657 26.7126 93.5265 26.0371C101.632 24.8888 109.637 28.5702 113.757 35.5952C114.872 37.4866 115.581 39.4793 115.987 41.6408C116.02 41.7422 116.02 41.8773 116.02 42.0461C115.885 41.9786 115.75 41.9448 115.649 41.8773C109.637 39.3442 103.558 39.074 97.6132 41.9786C91.6014 44.8832 87.9538 49.7129 86.8392 56.3327C86.569 58.0552 86.5352 59.8115 86.8054 61.6353Z" fill="black"/>
<path d="M192.418 58.9671C183.029 58.9671 175.666 51.503 175.801 42.1812C175.902 33.6701 183.062 25.8007 192.519 25.8344C201.875 25.902 209.271 33.6025 209.102 42.7554C208.934 51.7056 201.773 58.9671 192.418 58.9671ZM205.117 42.1812C205.083 41.8097 205.083 41.2693 205.016 40.6952C204.577 37.1826 203.023 34.2442 200.152 32.0827C197.214 29.8536 193.87 29.1781 190.256 29.7523C187.554 30.1913 185.224 31.3734 183.333 33.3661C180.225 36.676 179.212 40.5938 180.023 45.0183C181.239 51.7056 187.926 56.2989 194.579 55.083C200.693 53.9685 205.151 48.6321 205.117 42.1812Z" fill="black"/>
<path d="M69.3104 58.2916C67.9932 58.2916 66.7098 58.2916 65.3588 58.2916C65.3588 53.2255 65.3588 48.1593 65.3588 43.0594C60.3264 43.0594 55.3278 43.0594 50.2954 43.0594C50.2954 48.1255 50.2954 53.1917 50.2954 58.2578C48.9445 58.2578 47.661 58.2578 46.3438 58.2578C46.3101 47.7202 46.3101 37.1489 46.3101 26.5775C47.6273 26.5775 48.9107 26.5775 50.2617 26.5775C50.2617 30.7993 50.2617 35.0549 50.2617 39.3104C55.294 39.3104 60.2926 39.3104 65.325 39.3104C65.325 35.0886 65.325 30.8331 65.325 26.5775C66.676 26.5775 67.9594 26.5775 69.3104 26.5775C69.3104 37.1489 69.3104 47.6865 69.3104 58.2916Z" fill="black"/>
<path d="M122.201 26.5775C122.302 26.5775 122.404 26.5437 122.471 26.5437C125.106 26.5775 127.74 26.5775 130.375 26.645C132.266 26.7126 134.09 27.0841 135.677 28.1649C138.447 30.09 139.629 32.792 139.527 36.1018C139.46 38.2634 138.683 40.1885 137.231 41.8097C135.947 43.2282 134.326 44.0726 132.469 44.4103C132.333 44.4441 132.165 44.4779 131.996 44.5117C135.339 49.105 138.649 53.6645 141.993 58.2916C141.79 58.2916 141.689 58.3254 141.554 58.3254C140.237 58.3254 138.919 58.3254 137.569 58.3254C137.265 58.3254 137.096 58.2241 136.927 57.9876C133.988 53.7321 131.016 49.4765 128.044 45.2209C127.875 44.9845 127.706 44.8832 127.402 44.917C127.031 44.9507 126.626 44.917 126.187 44.917C126.187 49.409 126.187 53.8334 126.187 58.3254C124.836 58.3254 123.518 58.3254 122.201 58.3254C122.201 47.6865 122.201 37.1489 122.201 26.5775ZM126.187 41.472C127.267 41.472 128.348 41.5395 129.395 41.472C130.78 41.3707 132.131 41.0667 133.414 40.425C134.427 39.9184 135.137 39.1415 135.508 38.0608C135.914 36.9124 135.947 35.7303 135.778 34.5482C135.508 32.8257 134.563 31.6436 132.941 31.0357C131.557 30.4953 130.104 30.2251 128.618 30.1576C127.841 30.1238 127.065 30.1576 126.254 30.1576C126.187 33.9403 126.187 37.723 126.187 41.472Z" fill="black"/>
<path d="M154.456 30.1913C154.456 28.9755 154.456 27.7934 154.456 26.5775C161.177 26.5775 167.898 26.5775 174.687 26.5775C169.35 35.933 164.014 45.2547 158.644 54.644C164.014 54.644 169.316 54.644 174.653 54.644C174.653 55.8936 174.653 57.0757 174.653 58.2916C167.155 58.2916 159.691 58.2916 152.125 58.2916C157.495 48.9361 162.832 39.6144 168.202 30.1913C163.609 30.1913 159.049 30.1913 154.456 30.1913Z" fill="black"/>
<path d="M148.883 58.2578C147.566 58.2578 146.282 58.2578 144.931 58.2578C144.931 47.6865 144.931 37.1489 144.931 26.5437C146.248 26.5437 147.532 26.5437 148.883 26.5437C148.883 37.1489 148.883 47.6865 148.883 58.2578Z" fill="black"/>
<path d="M184.785 74.8748C184.042 72.9159 183.299 71.0583 182.556 69.0656C181.779 71.0583 181.07 72.9159 180.327 74.8748C179.212 72.0716 178.132 69.3696 177.051 66.6339C177.152 66.6001 177.186 66.6001 177.22 66.6001C178.132 66.5663 178.132 66.5663 178.436 67.3769C179.043 68.8968 179.618 70.4166 180.226 71.9365C180.259 72.004 180.293 72.0716 180.361 72.2067C181.104 70.2477 181.847 68.3901 182.59 66.3975C183.367 68.3901 184.076 70.2477 184.819 72.2067C184.886 72.0378 184.954 71.9365 184.988 71.8014C185.596 70.2477 186.237 68.6603 186.812 67.0729C186.947 66.7014 187.116 66.4988 187.555 66.5663C187.723 66.6001 187.892 66.5663 188.129 66.5663C186.98 69.3696 185.9 72.0716 184.785 74.8748Z" fill="black"/>
<path d="M73.5322 72.4093C73.5322 70.4166 73.5322 68.5252 73.5322 66.6339C73.8699 66.6339 74.2077 66.6339 74.5116 66.6339C74.5116 69.3358 74.5116 72.0715 74.5116 74.8748C72.5189 72.7808 70.5938 70.7543 68.6011 68.6941C68.6011 70.6868 68.6011 72.6119 68.6011 74.5371C68.2634 74.5371 67.9256 74.5371 67.5879 74.5371C67.5879 71.8014 67.5879 69.0656 67.5879 66.2286C69.5806 68.2888 71.5057 70.3153 73.5322 72.4093Z" fill="black"/>
<path d="M212.176 66.4988C213.257 66.6001 214.338 66.5663 215.351 66.769C217.141 67.1405 218.222 68.5252 218.255 70.3153C218.289 72.3417 217.31 73.7603 215.486 74.3007C214.405 74.6046 213.291 74.5371 212.176 74.5371C212.176 71.8689 212.176 69.2683 212.176 66.4988ZM213.155 73.5576C213.561 73.5576 213.899 73.5914 214.236 73.5576C216.432 73.355 217.58 71.8689 217.175 69.8087C216.871 68.2213 214.912 67.1067 213.155 67.5458C213.155 69.5385 213.155 71.5649 213.155 73.5576Z" fill="black"/>
<path d="M101.599 74.5371C101.16 74.5371 100.856 74.5709 100.518 74.5371C100.417 74.5371 100.282 74.402 100.18 74.3007C99.5048 73.355 98.8631 72.4093 98.2213 71.4974C98.12 71.3623 97.9174 71.2947 97.7823 71.1596C97.7485 71.1934 97.7147 71.2272 97.6472 71.261C97.6472 72.3417 97.6472 73.4225 97.6472 74.5371C97.3094 74.5371 97.0055 74.5371 96.6677 74.5371C96.6677 71.9027 96.6677 69.3021 96.6677 66.5663C97.5796 66.6001 98.4915 66.6001 99.3697 66.7352C100.315 66.8703 100.991 67.7822 101.025 68.7954C101.058 69.8762 100.45 70.7544 99.5048 71.0245C99.4034 71.0583 99.3021 71.0921 99.167 71.1259C99.9438 72.2404 100.754 73.355 101.599 74.5371ZM97.6472 70.4166C98.2551 70.2815 98.8293 70.214 99.3359 70.0789C99.775 69.9438 99.9776 69.5722 100.011 69.0994C100.045 68.6266 100.011 68.1537 99.5723 67.8835C98.9982 67.512 98.3227 67.4445 97.6134 67.512C97.6472 68.4577 97.6472 69.3696 97.6472 70.4166Z" fill="black"/>
<path d="M204.036 71.0921C204.036 72.3418 204.036 73.4225 204.036 74.5033C203.699 74.5033 203.395 74.5033 203.057 74.5033C203.057 71.9027 203.057 69.2683 203.057 66.5326C203.969 66.6001 204.881 66.5663 205.793 66.7352C206.772 66.9041 207.346 67.7822 207.38 68.8292C207.414 69.8762 206.806 70.7206 205.86 71.0246C205.759 71.0583 205.658 71.0921 205.522 71.1259C206.333 72.2742 207.144 73.355 207.988 74.5371C207.583 74.5371 207.245 74.5709 206.907 74.5371C206.772 74.5371 206.637 74.3682 206.569 74.2669C205.894 73.3212 205.252 72.3755 204.611 71.4636C204.509 71.2947 204.307 71.2272 204.036 71.0921ZM204.07 70.3153C204.712 70.3491 205.32 70.3153 205.86 70.0451C206.333 69.8087 206.434 69.4034 206.468 68.9305C206.468 68.4915 206.367 68.0524 205.928 67.816C205.354 67.512 204.746 67.4445 204.07 67.512C204.07 68.4577 204.07 69.3696 204.07 70.3153Z" fill="black"/>
<path d="M198.937 74.5033C197.856 74.5708 197.788 74.6046 197.484 73.6589C197.18 72.7133 196.64 72.3417 195.66 72.5106C194.985 72.6119 194.309 72.5444 193.634 72.5106C193.398 72.5106 193.262 72.5782 193.161 72.8146C192.992 73.2536 192.756 73.6589 192.587 74.098C192.452 74.4358 192.283 74.5708 191.911 74.5371C191.743 74.5033 191.54 74.5371 191.27 74.5371C192.553 71.7676 193.803 69.0318 195.086 66.2286C196.403 69.0318 197.653 71.7676 198.937 74.5033ZM195.12 68.4577C194.647 69.5722 194.208 70.5855 193.735 71.5987C194.681 71.5987 195.559 71.5987 196.471 71.5987C196.032 70.5517 195.593 69.5722 195.12 68.4577Z" fill="black"/>
<path d="M104.976 74.5371C106.26 71.7338 107.509 69.0318 108.793 66.2286C110.076 69.0318 111.326 71.7676 112.609 74.5371C112.238 74.5371 111.967 74.5708 111.663 74.5371C111.562 74.5371 111.461 74.402 111.393 74.3006C111.157 73.8278 110.954 73.3212 110.718 72.8484C110.65 72.7133 110.448 72.5782 110.312 72.5782C109.299 72.5444 108.32 72.5782 107.307 72.5444C107.07 72.5444 106.935 72.6119 106.834 72.8484C106.631 73.3212 106.428 73.7603 106.226 74.1993C106.124 74.4695 105.989 74.6046 105.685 74.5708C105.483 74.5033 105.246 74.5371 104.976 74.5371ZM107.408 71.5987C108.354 71.5987 109.232 71.5987 110.177 71.5987C109.704 70.5517 109.265 69.5385 108.793 68.4577C108.286 69.5722 107.847 70.5517 107.408 71.5987Z" fill="black"/>
<path d="M166.142 74.5371C167.425 71.7338 168.675 69.0318 169.958 66.2286C171.242 69.0318 172.491 71.7338 173.775 74.5371C173.403 74.5371 173.099 74.5708 172.829 74.5371C172.728 74.5371 172.626 74.402 172.559 74.3007C172.322 73.8278 172.086 73.3212 171.883 72.8146C171.782 72.6119 171.681 72.5444 171.444 72.5444C170.431 72.5444 169.418 72.5444 168.404 72.5444C168.269 72.5444 168.067 72.6795 168.033 72.7808C167.797 73.2199 167.594 73.6589 167.425 74.098C167.29 74.4358 167.121 74.5708 166.783 74.5371C166.614 74.5033 166.412 74.5371 166.142 74.5371ZM168.573 71.5987C169.519 71.5987 170.397 71.5987 171.309 71.5987C170.836 70.5517 170.397 69.5385 169.924 68.4577C169.485 69.5385 169.046 70.5517 168.573 71.5987Z" fill="black"/>
<path d="M87.6836 74.5033C87.6836 71.8689 87.6836 69.2683 87.6836 66.6001C89.1021 66.6001 90.4869 66.6001 91.9392 66.6001C91.9392 66.8703 91.9392 67.1743 91.9392 67.4782C90.8584 67.4782 89.7776 67.4782 88.6968 67.4782C88.6968 68.2213 88.6968 68.9305 88.6968 69.6736C89.7438 69.6736 90.7571 69.6736 91.8041 69.6736C91.8041 70.0113 91.8041 70.2815 91.8041 70.5855C90.7571 70.5855 89.7438 70.5855 88.6631 70.5855C88.6631 71.5987 88.6631 72.5782 88.6631 73.5576C89.7438 73.5576 90.7908 73.5576 91.8716 73.5576C91.8716 73.8954 91.8716 74.1656 91.8716 74.4695C90.5206 74.5033 89.1021 74.5033 87.6836 74.5033Z" fill="black"/>
<path d="M151.551 66.6001C152.97 66.6001 154.388 66.6001 155.807 66.6001C155.807 66.9041 155.807 67.1405 155.807 67.4782C154.726 67.4782 153.679 67.4782 152.564 67.4782C152.564 68.2213 152.564 68.9305 152.564 69.6736C153.578 69.6736 154.625 69.6736 155.672 69.6736C155.672 70.0113 155.672 70.2815 155.672 70.5855C154.658 70.5855 153.611 70.5855 152.564 70.5855C152.564 71.5987 152.564 72.5782 152.564 73.5914C153.645 73.5914 154.692 73.5914 155.773 73.5914C155.773 73.9291 155.773 74.1993 155.773 74.5033C154.354 74.5033 152.936 74.5033 151.517 74.5033C151.551 71.8689 151.551 69.2683 151.551 66.6001Z" fill="black"/>
<path d="M222.308 72.4768C222.612 72.4093 222.916 72.3417 223.22 72.2742C223.322 72.5444 223.355 72.7808 223.457 72.9835C223.727 73.5238 224.335 73.8278 224.977 73.7603C225.551 73.6927 226.024 73.2537 226.192 72.6457C226.361 72.004 226.192 71.4636 225.584 71.0921C225.247 70.8894 224.875 70.7544 224.504 70.5517C224.166 70.3828 223.828 70.2477 223.49 70.0451C222.241 69.2345 222.308 67.5458 223.558 66.769C224.774 66.0259 226.395 66.4312 226.969 67.6471C226.733 67.7822 226.463 67.9511 226.192 68.1199C225.787 67.512 225.213 67.2418 224.504 67.4445C224.031 67.5796 223.659 67.8498 223.592 68.3901C223.524 68.8968 223.828 69.2007 224.233 69.4034C224.673 69.6398 225.145 69.7749 225.618 70.0113C226.969 70.6193 227.476 71.5649 227.172 72.8484C226.902 74.0305 225.821 74.8073 224.571 74.7397C223.389 74.6384 222.443 73.7265 222.308 72.4768Z" fill="black"/>
<path d="M122.505 68.0862C120.85 66.9716 119.229 67.1067 118.081 68.3901C117.034 69.5722 117.034 71.4636 118.047 72.6795C118.959 73.7603 120.681 74.3344 122.505 72.9835C122.505 73.355 122.505 73.7265 122.505 74.0305C122.505 74.1318 122.37 74.1993 122.269 74.2669C120.783 75.0099 118.959 74.7735 117.642 73.6589C116.426 72.6119 115.953 70.8219 116.493 69.2345C117 67.6809 118.486 66.5663 120.073 66.4312C120.783 66.3637 121.458 66.465 122.1 66.7352C122.404 66.8703 122.573 67.0054 122.505 67.3769C122.471 67.5796 122.505 67.816 122.505 68.0862Z" fill="black"/>
<path d="M147.397 66.6001C146.248 69.4034 145.1 72.1391 143.952 74.9762C142.77 72.1391 141.655 69.4034 140.507 66.6001C140.845 66.6001 141.149 66.5663 141.453 66.6001C141.588 66.6339 141.723 66.8028 141.756 66.9379C142.432 68.6266 143.107 70.3153 143.817 72.004C143.851 72.1053 143.918 72.2067 143.986 72.4093C144.154 71.9702 144.323 71.5649 144.492 71.1934C145.066 69.8087 145.607 68.4239 146.147 67.0392C146.282 66.7014 146.417 66.5663 146.789 66.6001C146.924 66.6001 147.127 66.6001 147.397 66.6001Z" fill="black"/>
<path d="M80.5573 74.5033C80.5573 72.1729 80.5573 69.8762 80.5573 67.512C79.9156 67.512 79.3076 67.512 78.6997 67.512C78.6997 67.1743 78.6997 66.9041 78.6997 66.6339C80.2871 66.6339 81.8407 66.6339 83.4281 66.6339C83.4281 66.9378 83.4281 67.208 83.4281 67.512C82.8202 67.512 82.2122 67.512 81.5705 67.512C81.5705 69.8424 81.5705 72.1729 81.5705 74.5371C81.2328 74.5033 80.895 74.5033 80.5573 74.5033Z" fill="black"/>
<path d="M129.294 74.5033C128.922 74.5033 128.618 74.5033 128.28 74.5033C128.28 72.1729 128.28 69.8424 128.28 67.4782C127.639 67.4782 127.031 67.4782 126.423 67.4782C126.423 67.1743 126.423 66.9041 126.423 66.6001C128.01 66.6001 129.564 66.6001 131.151 66.6001C131.151 66.8703 131.151 67.1405 131.151 67.4782C130.543 67.4782 129.969 67.4782 129.327 67.4782C129.294 69.8424 129.294 72.1391 129.294 74.5033Z" fill="black"/>
<path d="M61.7449 66.6001C62.0826 66.6001 62.3866 66.6001 62.7243 66.6001C62.7243 69.2345 62.7243 71.8351 62.7243 74.5033C62.4204 74.5033 62.0826 74.5033 61.7449 74.5033C61.7449 71.8689 61.7449 69.2683 61.7449 66.6001Z" fill="black"/>
<path d="M135.407 66.6001C135.744 66.6001 136.048 66.6001 136.386 66.6001C136.386 69.2345 136.386 71.8689 136.386 74.5033C136.048 74.5033 135.744 74.5033 135.407 74.5033C135.407 71.8689 135.407 69.2683 135.407 66.6001Z" fill="black"/>
<path d="M205.117 42.1812C205.151 48.5984 200.693 53.9685 194.579 55.0493C187.926 56.2314 181.272 51.6718 180.023 44.9845C179.212 40.5938 180.225 36.6422 183.333 33.3323C185.19 31.3397 187.554 30.1575 190.256 29.7185C193.87 29.1443 197.214 29.8536 200.152 32.0489C202.989 34.2105 204.543 37.1151 205.016 40.6614C205.083 41.2693 205.083 41.8435 205.117 42.1812Z" fill="white"/>
<path d="M126.187 41.472C126.187 37.723 126.187 33.9403 126.187 30.1238C126.997 30.1238 127.774 30.09 128.551 30.1238C130.037 30.1913 131.489 30.4615 132.874 31.0019C134.495 31.6436 135.474 32.792 135.711 34.5144C135.88 35.6965 135.846 36.8787 135.441 38.027C135.069 39.1078 134.394 39.8846 133.347 40.3912C132.097 40.9991 130.746 41.3369 129.328 41.4382C128.348 41.5395 127.301 41.472 126.187 41.472Z" fill="white"/>
<path d="M213.156 73.5576C213.156 71.5312 213.156 69.5385 213.156 67.5458C214.912 67.1067 216.837 68.1875 217.175 69.8087C217.58 71.9027 216.432 73.3888 214.236 73.5576C213.899 73.5914 213.561 73.5576 213.156 73.5576Z" fill="white"/>
<path d="M97.6472 70.4166C97.6472 69.3696 97.6472 68.4577 97.6472 67.4782C98.3565 67.4445 98.9982 67.4782 99.6061 67.8498C100.045 68.12 100.079 68.5928 100.045 69.0656C100.011 69.5047 99.8088 69.91 99.3697 70.0451C98.8293 70.2477 98.2552 70.3153 97.6472 70.4166Z" fill="white"/>
<path d="M204.07 70.3153C204.07 69.3358 204.07 68.4239 204.07 67.512C204.746 67.4782 205.353 67.512 205.928 67.816C206.367 68.0524 206.468 68.4577 206.468 68.9305C206.468 69.4034 206.333 69.8087 205.86 70.0451C205.286 70.3153 204.712 70.3491 204.07 70.3153Z" fill="white"/>
<path d="M195.12 68.4577C195.593 69.5723 196.032 70.5517 196.505 71.5987C195.593 71.5987 194.715 71.5987 193.769 71.5987C194.208 70.5517 194.647 69.5723 195.12 68.4577Z" fill="white"/>
<path d="M107.408 71.5987C107.847 70.5517 108.32 69.5723 108.793 68.4577C109.266 69.5385 109.705 70.5517 110.177 71.5987C109.198 71.5987 108.32 71.5987 107.408 71.5987Z" fill="white"/>
<path d="M168.573 71.5987C169.046 70.5517 169.485 69.5385 169.958 68.4577C170.431 69.5385 170.87 70.5179 171.343 71.5987C170.397 71.5987 169.519 71.5987 168.573 71.5987Z" fill="white"/>
</g>
<defs>
<clipPath id="clip0_68_6374">
<rect width="194" height="50" fill="white" transform="translate(46.3101 25)"/>
</clipPath>
</defs>
</svg>
