<svg width="137" height="86" viewBox="0 0 137 86" fill="none" xmlns="http://www.w3.org/2000/svg">
<g clip-path="url(#clip0_221_41549)">
<path d="M136.72 0.240234H0.719971V85.2402H136.72V0.240234Z" fill="white"/>
<path d="M7.52075 0.240234H129.44V84.7501H7.52075V0.240234Z" fill="#004357"/>
<path d="M70.1387 85.2402L116.477 38.9014H84.0237L37.7395 85.2402H70.1387Z" fill="#F15A29"/>
<path d="M87.675 15.1603H115.064V19.7343H87.675V15.1603ZM71.6112 15.1603H75.0962V19.7343H71.6112V15.1603ZM77.0569 15.1603H85.7688V19.7343H77.0569V15.1603ZM95.244 26.5953C95.244 25.5063 94.8626 24.635 94.2093 24.0905C93.5015 23.546 92.6844 23.3826 91.4321 23.3826H87.7295V33.293H89.7439V25.1796H91.5408C92.031 25.1796 92.4124 25.234 92.63 25.3974C93.0113 25.6152 93.1745 25.9963 93.1745 26.5953C93.1745 27.6299 92.5212 28.0111 91.7046 28.0111H90.3429V29.808H91.16L93.2833 33.3474H95.6248L93.2833 29.4813C94.5901 29.0457 95.244 27.9022 95.244 26.5953ZM101.342 27.6844C99.9264 27.1943 98.2933 27.1398 98.2933 26.0508C98.2933 25.3429 98.9466 25.0162 99.8176 25.0162C100.689 25.0162 101.506 25.1251 102.812 25.4518V23.6549C101.669 23.3282 100.852 23.2193 99.7632 23.2193C97.8031 23.2193 96.115 23.9816 96.115 25.9963C96.115 27.5755 96.8771 28.3923 98.4564 28.8823C99.8176 29.3724 101.397 29.4268 101.397 30.5159C101.397 31.3326 100.635 31.6594 99.4912 31.6594C98.402 31.6594 97.7487 31.5505 96.3326 31.2238V33.0207C97.4761 33.3474 98.4565 33.4563 99.6 33.4563C102.05 33.4563 103.521 32.3673 103.521 30.407C103.575 28.8279 102.54 28.12 101.342 27.6844ZM112.451 23.3826L108.911 33.293H110.872L113.104 26.9765V33.293H115.119V23.3826H112.451ZM109.619 29.5357L107.278 23.3826H104.609V33.293H106.57V26.9765H106.624L108.584 32.3673L109.619 29.5357ZM71.6112 12.3289L71.6661 12.111C71.9925 12.2199 72.2107 12.2199 72.4283 12.2199C72.8097 12.2199 72.9729 12.0021 72.9729 11.8387C72.9729 11.5121 72.6459 11.4576 72.3739 11.4031C72.0469 11.2942 71.6661 11.1309 71.6661 10.7497C71.6661 10.3141 71.9925 10.1508 72.4283 10.1508C72.6459 10.1508 72.9185 10.2052 73.1905 10.2596L73.1361 10.4774C72.8097 10.3685 72.6459 10.3685 72.4283 10.3685C72.0469 10.3685 71.9381 10.5319 71.9381 10.7497C71.9381 11.0219 72.3195 11.1309 72.5371 11.1853C72.8641 11.2398 73.1905 11.4031 73.1905 11.8387C73.1905 12.2744 72.8641 12.4922 72.4283 12.4922C72.1557 12.4377 71.8837 12.4377 71.6112 12.3289ZM74.2252 10.9675C74.0076 10.9675 73.8438 11.0764 73.7894 11.1309V12.111C73.8438 12.1655 74.0076 12.2744 74.2252 12.2744C74.6066 12.2744 74.661 11.9477 74.661 11.621C74.7154 11.2398 74.6066 10.9675 74.2252 10.9675ZM73.7894 10.9675C73.8982 10.8586 74.1164 10.7497 74.334 10.7497C74.7698 10.7497 74.933 11.1309 74.933 11.621C74.933 12.111 74.7698 12.4922 74.334 12.4922C74.1164 12.4922 73.9526 12.4377 73.8438 12.2744V13.0911H73.6263V10.8042H73.8438V10.9675H73.7894ZM75.5319 11.621C75.5319 12.0021 75.6408 12.2744 76.0221 12.2744C76.4035 12.2744 76.5123 12.0021 76.5123 11.621C76.5123 11.2398 76.4035 10.9675 76.0221 10.9675C75.6408 10.9675 75.5319 11.2398 75.5319 11.621ZM75.2599 11.621C75.2599 11.1309 75.4776 10.7497 76.0221 10.7497C76.5667 10.7497 76.7843 11.0764 76.7843 11.621C76.7843 12.111 76.5667 12.4922 76.0221 12.4922C75.4776 12.4377 75.2599 12.111 75.2599 11.621ZM77.3832 12.4377H77.1656V10.8042H77.3832V11.022C77.547 10.8586 77.7646 10.7497 77.9822 10.7497C78.3092 10.7497 78.4724 10.9675 78.4724 11.2942V12.4377H78.2548V11.3487C78.2548 11.1309 78.146 10.9675 77.8734 10.9675C77.6558 10.9675 77.4376 11.0764 77.3288 11.1853V12.4377H77.3832ZM79.5071 12.4377C79.2345 12.4377 79.0169 12.4377 78.7994 12.3833L78.8537 12.2199C79.1257 12.2744 79.3439 12.2744 79.4527 12.2744C79.7791 12.2744 79.8335 12.0566 79.8335 12.0021C79.8335 11.8932 79.7791 11.7843 79.3983 11.7298C79.0713 11.6754 78.7994 11.5665 78.7994 11.2398C78.7994 10.9675 79.0169 10.8042 79.3983 10.8042C79.6703 10.8042 79.8335 10.8042 80.0517 10.8586L79.9973 11.022C79.7247 10.9675 79.5071 10.9675 79.3983 10.9675C79.0713 10.9675 79.017 11.1853 79.017 11.2398C79.017 11.3487 79.0713 11.4576 79.3983 11.5121C79.7791 11.5665 79.9973 11.6754 79.9973 12.0021C80.1061 12.2744 79.8885 12.4377 79.5071 12.4377ZM80.6507 11.621C80.6507 12.0021 80.7595 12.2744 81.1408 12.2744C81.5216 12.2744 81.6304 12.0021 81.6304 11.621C81.6304 11.2398 81.5216 10.9675 81.1408 10.9675C80.7595 10.9675 80.6507 11.2398 80.6507 11.621ZM80.4325 11.621C80.4325 11.1309 80.6507 10.7497 81.1952 10.7497C81.7398 10.7497 81.9574 11.0764 81.9574 11.621C81.9574 12.111 81.7398 12.4922 81.1952 12.4922C80.5962 12.4377 80.4325 12.111 80.4325 11.621ZM82.5019 12.4377H82.2843V10.8042H82.5019V11.0764C82.6651 10.9131 82.8833 10.8042 83.1553 10.8042V11.022C82.8833 11.022 82.6107 11.1309 82.5019 11.2398V12.4377ZM83.4823 11.5121H84.4077V11.2942C84.4077 11.0764 84.2988 10.9131 83.9719 10.9131C83.5911 10.9131 83.4823 11.1853 83.4823 11.5121ZM83.4823 11.621C83.4823 12.0021 83.6455 12.2744 84.0813 12.2744C84.2444 12.2744 84.4076 12.2744 84.5708 12.2199L84.6258 12.3833C84.4076 12.4377 84.2444 12.4377 84.0268 12.4377C83.4279 12.4377 83.2097 12.111 83.2097 11.5665C83.2097 11.0764 83.4273 10.6953 83.9719 10.6953C84.462 10.6953 84.6258 11.0219 84.6258 11.2942V11.5665H83.4823V11.621ZM85.66 12.2744C85.8781 12.2744 86.0413 12.1655 86.0957 12.111V11.1309C86.0413 11.0764 85.8781 10.9675 85.66 10.9675C85.2792 10.9675 85.2248 11.2942 85.2248 11.621C85.2248 11.9477 85.2792 12.2744 85.66 12.2744ZM86.0957 12.2744C85.9869 12.3833 85.7688 12.4922 85.5512 12.4922C85.1154 12.4922 84.9522 12.111 84.9522 11.621C84.9522 11.1309 85.1154 10.7497 85.5512 10.7497C85.7688 10.7497 85.9325 10.8042 86.0414 10.9675V10.1508H86.2589V12.4377H86.0414V12.2744H86.0957ZM88.0014 10.9675C87.7839 10.9675 87.6206 11.0764 87.5662 11.1309V12.111C87.6206 12.1655 87.7839 12.2744 88.0014 12.2744C88.3828 12.2744 88.4372 11.9477 88.4372 11.621C88.4372 11.2398 88.3284 10.9675 88.0014 10.9675ZM87.5662 10.9675C87.675 10.8586 87.8926 10.7497 88.1103 10.7497C88.546 10.7497 88.7092 11.1309 88.7092 11.621C88.7092 12.111 88.546 12.4922 88.1103 12.4922C87.8926 12.4922 87.7294 12.4377 87.5662 12.2744L87.5113 12.4377H87.3481V10.1508H87.5662V10.9675ZM88.8186 10.8042H89.0906L89.6351 12.2199L90.1253 10.8042H90.3973L89.7439 12.5466C89.5807 12.9278 89.4175 13.1456 89.0906 13.1456H88.873V12.9278H89.0362C89.3082 12.9278 89.4175 12.6555 89.4719 12.4922L88.8186 10.8042ZM68.7257 8.19043H69.1065V33.4019H68.7257V8.19043ZM18.6294 11.7298C18.6294 9.82402 20.1541 8.29934 22.0599 8.29934C23.9657 8.29934 25.4904 9.82402 25.4904 11.7298C25.4904 13.6357 23.9657 15.1603 22.0599 15.1603C20.1541 15.1603 18.6294 13.6357 18.6294 11.7298ZM27.7229 15.1603V8.19043H32.2969V9.44288H29.0842V11.0764H31.8613V12.2744H29.0842V13.9624H32.2969V15.1603H27.7229ZM35.9997 15.1603V14.6703C35.673 14.997 35.1829 15.2148 34.7472 15.2148C34.2572 15.2148 33.8216 15.0515 33.5493 14.7792C33.1137 14.3436 33.0048 13.9079 33.0048 13.309V10.0418H34.2572V13.1456C34.2572 13.8535 34.6928 14.0713 35.074 14.0713C35.4551 14.0713 35.9452 13.8535 35.9452 13.1456V10.0418H37.1976V15.1603H35.9997ZM40.9549 11.4576C40.737 11.2398 40.5737 11.1309 40.3014 11.1309C39.9202 11.1309 39.4846 11.4031 39.4846 12.0566V15.1059H38.2322V9.98739H39.4846V10.4774C39.7569 10.2052 40.247 9.93293 40.7915 9.93293C41.2815 9.93293 41.6627 10.0418 41.9894 10.423L40.9549 11.4576ZM45.6922 14.6158C45.3654 14.9425 44.8754 15.2692 44.1131 15.2692C43.3507 15.2692 42.8607 14.997 42.5339 14.6158C42.0983 14.1258 41.935 13.5812 41.935 12.6555C41.935 11.7298 42.0439 11.1309 42.5339 10.6953C42.8607 10.3685 43.3507 10.0418 44.1131 10.0418C44.8754 10.0418 45.3654 10.3141 45.6922 10.6953C46.1278 11.1853 46.2912 11.7298 46.2912 12.6555C46.2912 13.5268 46.1278 14.1258 45.6922 14.6158ZM44.712 11.4031C44.5487 11.2398 44.3853 11.1853 44.1131 11.1853C43.8408 11.1853 43.6775 11.2398 43.5141 11.4031C43.2418 11.6754 43.2418 12.111 43.2418 12.6555C43.2418 13.2 43.2963 13.6357 43.5141 13.9079C43.6775 14.0713 43.8408 14.1258 44.1131 14.1258C44.3853 14.1258 44.5487 14.0713 44.712 13.9079C44.9843 13.6357 44.9843 13.2 44.9843 12.6555C44.9843 12.111 44.9843 11.6754 44.712 11.4031ZM50.7563 14.7792C50.484 15.0515 49.9939 15.2148 49.5038 15.2148C49.0138 15.2148 48.5782 15.0515 48.2514 14.7247V17.0662H46.999V10.0963H48.2514V10.5864C48.6326 10.2052 48.9593 10.0418 49.5038 10.0418C49.9939 10.0418 50.484 10.2052 50.7563 10.4774C51.2463 10.9675 51.3008 11.8387 51.3008 12.6011C51.2463 13.3634 51.2463 14.2891 50.7563 14.7792ZM49.1227 11.1853C48.3603 11.1853 48.2514 11.7843 48.2514 12.6555C48.2514 13.4723 48.3603 14.1258 49.1227 14.1258C49.885 14.1258 49.9939 13.4723 49.9939 12.6555C49.9939 11.7843 49.885 11.1853 49.1227 11.1853ZM52.9888 13.0367C52.9888 13.6902 53.37 14.1802 54.1323 14.1802C54.6768 14.1802 54.9491 14.0168 55.2758 13.6902L56.0381 14.4524C55.4936 14.9425 55.0035 15.2692 54.0778 15.2692C52.8799 15.2692 51.7364 14.7247 51.7364 12.6555C51.7364 10.9675 52.6621 10.0418 53.9689 10.0418C55.3847 10.0418 56.2015 11.0764 56.2015 12.4922V13.0367H52.9888ZM54.8402 11.621C54.7313 11.2942 54.4045 11.0764 53.9689 11.0764C53.5333 11.0764 53.261 11.2942 53.0977 11.621C53.0432 11.7843 52.9888 11.9477 52.9888 12.1655H54.9491C54.9491 11.9477 54.8946 11.7843 54.8402 11.621ZM59.4686 15.1603V14.7247C59.1417 15.0515 58.8153 15.2148 58.2163 15.2148C57.6173 15.2148 57.236 15.0515 56.9094 14.7792C56.6371 14.5069 56.4737 14.0713 56.4737 13.6357C56.4737 12.8189 57.0183 12.1655 58.2163 12.1655H59.4142V11.8932C59.4142 11.3487 59.1417 11.0764 58.4883 11.0764C57.9981 11.0764 57.7805 11.1853 57.5085 11.5121L56.6915 10.6953C57.1816 10.1508 57.6717 9.98739 58.5427 9.98739C59.9588 9.98739 60.721 10.5864 60.721 11.7843V15.1603H59.4686ZM59.4686 13.0367H58.4339C57.9981 13.0367 57.7261 13.2545 57.7261 13.6357C57.7261 13.9624 57.9437 14.2347 58.4339 14.2347C58.8153 14.2347 59.0329 14.1802 59.251 14.0168C59.4142 13.9079 59.4142 13.6902 59.4142 13.3634V13.0367H59.4686ZM64.5873 15.1603V12.0566C64.5873 11.3487 64.1516 11.1309 63.7702 11.1309C63.3894 11.1309 62.8992 11.3487 62.8992 12.0566V15.1603H61.6469V10.0418H62.8992V10.5319C63.2256 10.1508 63.7158 9.98739 64.1516 9.98739C64.6417 9.98739 65.077 10.1508 65.3495 10.423C65.7853 10.8586 65.8941 11.2942 65.8941 11.8932V15.1603H64.5873ZM30.8267 24.5261H27.7229V17.0662H30.7178C32.188 17.0662 33.0048 17.883 33.0048 19.1354C33.0048 19.9522 32.4603 20.4967 32.0791 20.66C32.5148 20.8778 33.1137 21.3135 33.1137 22.348C33.1137 23.7638 32.188 24.5261 30.8267 24.5261ZM30.6089 18.373H29.1931V20.1155H30.6089C31.2078 20.1155 31.589 19.7888 31.589 19.2443C31.589 18.6997 31.2078 18.373 30.6089 18.373ZM30.7178 21.4224H29.1931V23.2737H30.7178C31.3712 23.2737 31.698 22.8381 31.698 22.348C31.698 21.8035 31.3712 21.4224 30.7178 21.4224ZM37.1432 24.5261V24.0361C36.762 24.4172 36.2719 24.5806 35.7819 24.5806C35.2374 24.5806 34.8017 24.4172 34.475 24.0905C34.0394 23.6549 33.9305 23.1648 33.9305 22.5659V19.0809H35.2918V22.348C35.2918 23.1104 35.7819 23.3282 36.2175 23.3282C36.6531 23.3282 37.1432 23.0559 37.1432 22.348V19.0809H38.5045V24.5261H37.1432ZM41.2815 24.5806C40.4103 24.5806 39.648 24.4717 38.9401 23.8182L39.8113 22.947C40.247 23.3826 40.8459 23.4371 41.2815 23.4371C41.7716 23.4371 42.2617 23.2737 42.2617 22.8925C42.2617 22.6203 42.0983 22.4569 41.6627 22.4025L40.7915 22.2936C39.8113 22.1847 39.2124 21.7491 39.2124 20.769C39.2124 19.6254 40.1925 19.0265 41.336 19.0265C42.2072 19.0265 42.9151 19.1898 43.4052 19.6799L42.5884 20.5511C42.2617 20.2244 41.7716 20.1155 41.2815 20.1155C40.737 20.1155 40.5192 20.3878 40.5192 20.66C40.5192 20.8778 40.6281 21.0956 41.0637 21.1501L41.935 21.259C43.024 21.3679 43.5685 21.9669 43.5685 22.8381C43.5685 24.0361 42.5339 24.5806 41.2815 24.5806ZM44.1675 17.0117H45.5288V18.1007H44.1675V17.0117ZM44.1675 19.0809H45.5288V24.5261H44.1675V19.0809ZM49.7216 24.5261V21.259C49.7216 20.4967 49.2316 20.2788 48.7959 20.2788C48.3603 20.2788 47.8703 20.5511 47.8703 21.259V24.5261H46.509V19.0809H47.8158V19.571C48.197 19.1898 48.6871 19.0265 49.1771 19.0265C49.7216 19.0265 50.1572 19.1898 50.484 19.5165C50.9196 19.9522 51.0285 20.4422 51.0285 21.0412V24.5261H49.7216ZM53.0977 22.2391C53.0977 22.947 53.5333 23.4371 54.2957 23.4371C54.8946 23.4371 55.1669 23.2737 55.5481 22.947L56.3648 23.7638C55.8203 24.3083 55.2758 24.635 54.2957 24.635C52.9888 24.635 51.7908 24.0361 51.7908 21.858C51.7908 20.0611 52.771 19.0809 54.1867 19.0809C55.7114 19.0809 56.5826 20.1699 56.5826 21.6946V22.2936H53.0977V22.2391ZM55.058 20.7145C54.8946 20.3878 54.6223 20.1699 54.1323 20.1699C53.6966 20.1699 53.37 20.3878 53.2066 20.7145C53.0977 20.9323 53.0977 21.0412 53.0977 21.3135H55.1669C55.1669 21.0412 55.1124 20.9323 55.058 20.7145ZM59.0329 24.5806C58.1619 24.5806 57.3992 24.4717 56.6915 23.8182L57.5629 22.947C57.9981 23.3826 58.5971 23.4371 59.0329 23.4371C59.523 23.4371 60.0132 23.2737 60.0132 22.8925C60.0132 22.6203 59.85 22.4569 59.4142 22.4025L58.5971 22.2936C57.6174 22.1847 57.0183 21.7491 57.0183 20.769C57.0183 19.6254 57.9981 19.0265 59.1417 19.0265C60.0132 19.0265 60.721 19.1898 61.2111 19.6799L60.3396 20.4967C60.0132 20.2244 59.523 20.1155 59.0873 20.1155C58.5427 20.1155 58.3251 20.3878 58.3251 20.66C58.3251 20.8778 58.4339 21.0956 58.8697 21.1501L59.7407 21.259C60.8298 21.3679 61.3744 21.9669 61.3744 22.8381C61.3744 24.0361 60.3396 24.5806 59.0329 24.5806ZM63.7158 24.5806C62.8448 24.5806 62.0821 24.4717 61.3744 23.8182L62.2459 22.947C62.6811 23.3826 63.28 23.4371 63.7158 23.4371C64.206 23.4371 64.6962 23.2737 64.6962 22.8925C64.6962 22.6203 64.5324 22.4569 64.0972 22.4025L63.2257 22.2936C62.2459 22.1847 61.6469 21.7491 61.6469 20.769C61.6469 19.6254 62.6267 19.0265 63.7702 19.0265C64.6417 19.0265 65.3495 19.1898 65.8397 19.6799L65.0225 20.5511C64.6961 20.2788 64.206 20.1699 63.7702 20.1699C63.2256 20.1699 63.008 20.4422 63.008 20.7145C63.008 20.9323 63.1168 21.1501 63.5526 21.2046L64.4236 21.3135C65.5127 21.4224 66.0573 22.0213 66.0573 22.8925C66.0029 24.0361 64.9681 24.5806 63.7158 24.5806ZM24.1835 31.8228C23.639 32.3673 22.8767 32.694 22.0599 32.694C21.2431 32.694 20.4808 32.3673 19.9362 31.8228C19.3917 31.2782 19.065 30.5159 19.065 29.6991C19.065 28.8823 19.3917 28.12 19.9362 27.5755C20.4808 27.031 21.2431 26.7042 22.0599 26.7042C22.8767 26.7042 23.639 27.031 24.1835 27.5755C24.7281 28.12 25.0548 28.8823 25.0548 29.6991C25.0548 30.5704 24.7281 31.2782 24.1835 31.8228ZM22.0599 26.1597C20.0996 26.1597 18.4661 27.7388 18.4661 29.7536C18.4661 31.7138 20.0451 33.3474 22.0599 33.3474C24.0202 33.3474 25.6537 31.7683 25.6537 29.7536C25.6537 27.7388 24.0202 26.1597 22.0599 26.1597ZM24.1835 23.0559C23.639 23.6004 22.8767 23.9272 22.0599 23.9272C21.2431 23.9272 20.4808 23.6004 19.9362 23.0559C19.3917 22.5114 19.065 21.7491 19.065 20.9323C19.065 20.1155 19.3917 19.3532 19.9362 18.8086C20.4808 18.2641 21.2431 17.9374 22.0599 17.9374C22.8767 17.9374 23.639 18.2641 24.1835 18.8086C24.7281 19.3532 25.0548 20.1155 25.0548 20.9323C25.0548 21.8035 24.7281 22.5114 24.1835 23.0559ZM22.0599 17.3929C20.0996 17.3929 18.4661 18.972 18.4661 20.9867C18.4661 22.947 20.0451 24.5806 22.0599 24.5806C24.0202 24.5806 25.6537 23.0015 25.6537 20.9867C25.6537 18.972 24.0202 17.3929 22.0599 17.3929ZM32.9503 33.293L32.5148 32.0406H29.7921L29.302 33.293H27.7229L30.5 26.2686H31.698L34.5295 33.293H32.9503ZM31.1534 28.3378L30.1733 30.897H32.0791L31.1534 28.3378ZM40.4647 33.293H39.3213L38.1233 30.0803L36.9798 33.293H35.7819L34.0938 28.1744H35.564L36.4897 31.3326L37.6332 28.1744H38.6678L39.8113 31.3326L40.6826 28.1744H42.2072L40.4647 33.293ZM45.3654 33.293V32.8573C44.9843 33.1841 44.6576 33.3474 44.0041 33.3474C43.3507 33.3474 42.9151 33.1841 42.5884 32.9118C42.2617 32.6395 42.0983 32.2039 42.0983 31.7683C42.0983 30.9515 42.6973 30.2436 44.0041 30.2436H45.311V29.9713C45.311 29.4268 44.9843 29.1546 44.2764 29.1546C43.7319 29.1546 43.5141 29.2635 43.1874 29.5902L42.3162 28.8279C42.8607 28.2834 43.4052 28.12 44.3309 28.12C45.91 28.12 46.7268 28.719 46.7268 29.9169V33.293H45.3654ZM45.311 31.1149H44.222C43.7319 31.1149 43.4596 31.3326 43.4596 31.7138C43.4596 32.095 43.7319 32.3128 44.2764 32.3128C44.6576 32.3128 44.9298 32.2584 45.1477 32.0406C45.311 31.9317 45.3654 31.7138 45.3654 31.3871V31.1149H45.311ZM50.7563 29.5357C50.5384 29.3724 50.3751 29.2635 49.9939 29.2635C49.5583 29.2635 49.0682 29.5357 49.0682 30.1892V33.293H47.6525V28.12H49.0138V28.61C49.286 28.3378 49.8306 28.0655 50.4295 28.0655C50.974 28.0655 51.3552 28.1744 51.7364 28.5556L50.7563 29.5357ZM55.2213 33.293V32.8029C54.8402 33.1841 54.4045 33.3474 53.8055 33.3474C53.261 33.3474 52.7165 33.1841 52.4442 32.8573C51.8997 32.3673 51.8453 31.4416 51.8453 30.6792C51.8453 29.9169 51.8453 29.0457 52.4442 28.5012C52.7165 28.2834 53.261 28.0655 53.8055 28.0655C54.4045 28.0655 54.7857 28.2289 55.1669 28.5556V26.2142H56.5826V33.2385H55.2213V33.293ZM54.1867 29.2635C53.37 29.2635 53.261 29.9169 53.261 30.7337C53.261 31.6049 53.37 32.2039 54.1867 32.2039C55.0579 32.2039 55.1669 31.5505 55.1669 30.7337C55.1669 29.8625 55.0579 29.2635 54.1867 29.2635ZM59.4686 33.3474C58.5971 33.3474 57.7805 33.2385 57.0727 32.5851L57.9981 31.7683C58.4883 32.2039 59.0873 32.2584 59.523 32.2584C60.0132 32.2584 60.5034 32.095 60.5034 31.7138C60.5034 31.4416 60.3396 31.2782 59.9044 31.2238L59.0329 31.1693C57.9981 31.0604 57.3992 30.6792 57.3992 29.7536C57.3992 28.6645 58.4339 28.12 59.5774 28.12C60.449 28.12 61.2111 28.2834 61.7013 28.719L60.8298 29.5357C60.5034 29.2635 60.0132 29.209 59.523 29.209C58.9785 29.209 58.7065 29.4268 58.7065 29.6991C58.7065 29.8625 58.8153 30.0803 59.3055 30.1347L60.1764 30.1892C61.2655 30.2981 61.8645 30.8426 61.8645 31.7138C61.8645 32.8029 60.7754 33.3474 59.4686 33.3474ZM63.4438 28.5556H63.28V28.8823H63.4438C63.5526 28.8823 63.607 28.8279 63.607 28.719C63.607 28.61 63.5526 28.5556 63.4438 28.5556ZM63.607 29.4268L63.3894 28.9912H63.28V29.4268H63.0624V28.3923H63.4438C63.6614 28.3923 63.7702 28.5556 63.7702 28.719C63.7702 28.8823 63.6614 28.9368 63.5526 28.9912L63.7702 29.4268H63.607ZM63.3894 28.12C62.9537 28.12 62.6267 28.4467 62.6267 28.8823C62.6267 29.3179 62.9537 29.6447 63.3894 29.6447C63.8246 29.6447 64.1516 29.3179 64.1516 28.8823C64.1516 28.5011 63.8246 28.12 63.3894 28.12ZM63.3894 29.8625C62.8448 29.8625 62.4091 29.4268 62.4091 28.8823C62.4091 28.3378 62.8448 27.9022 63.3894 27.9022C63.9334 27.9022 64.3692 28.3378 64.3692 28.8823C64.3692 29.4268 63.9334 29.8625 63.3894 29.8625Z" fill="white"/>
<path d="M92.8994 80.176V79.8496L94.9144 77.1811C95.132 76.9091 95.1864 76.691 95.1864 76.419C95.1864 75.82 94.8051 75.4386 94.2061 75.4386C93.6621 75.4386 93.2263 75.7112 93.2263 76.419H92.845C92.845 75.6568 93.3351 75.1122 94.1517 75.1122C94.9688 75.1122 95.459 75.6568 95.459 76.419C95.459 76.8003 95.3496 77.0723 95.132 77.3993L93.2263 79.8496H95.459V80.176H92.8994ZM98.0181 80.2304C97.2559 80.2304 96.7113 79.6864 96.7113 78.8692V76.419C96.7113 75.6568 97.2559 75.0578 98.0181 75.0578C98.7802 75.0578 99.3248 75.6024 99.3248 76.419V78.8692C99.3248 79.6864 98.7802 80.2304 98.0181 80.2304ZM98.944 76.4734C98.944 75.8744 98.617 75.3842 97.9637 75.3842C97.3103 75.3842 96.9833 75.8744 96.9833 76.4734V78.8148C96.9833 79.4138 97.3103 79.904 97.9637 79.904C98.617 79.904 98.944 79.4138 98.944 78.8148V76.4734ZM101.612 80.176V75.548L100.686 76.3646V75.9288L101.612 75.1666H101.993V80.2304H101.612V80.176ZM104.498 80.176H104.117L105.913 75.4386H104.008V76.2558H103.626V75.1666H106.24V75.493L104.498 80.176ZM106.676 80.7205H106.295L108.309 74.6221H108.691L106.676 80.7205ZM110.542 80.176V75.548L109.617 76.3646V75.9288L110.542 75.1666H110.923V80.2304H110.542V80.176ZM113.918 80.2304C113.101 80.2304 112.502 79.6314 112.502 78.8148C112.502 78.2159 112.829 77.8345 113.319 77.5625C112.883 77.3449 112.611 76.9091 112.611 76.419C112.611 75.6568 113.156 75.1122 113.918 75.1122C114.68 75.1122 115.225 75.7112 115.225 76.419C115.225 76.9091 115.007 77.3449 114.517 77.5625C115.007 77.8345 115.334 78.2159 115.334 78.8148C115.334 79.6314 114.68 80.2304 113.918 80.2304ZM113.918 77.7257C113.319 77.7257 112.829 78.2159 112.829 78.8148C112.829 79.4138 113.319 79.904 113.918 79.904C114.517 79.904 115.007 79.4138 115.007 78.8148C114.953 78.2159 114.517 77.7257 113.918 77.7257ZM113.918 75.4386C113.319 75.4386 112.938 75.8744 112.938 76.419C112.938 77.0179 113.319 77.3993 113.918 77.3993C114.517 77.3993 114.899 76.9635 114.899 76.419C114.844 75.8744 114.463 75.4386 113.918 75.4386Z" fill="#F15A29"/>
<path d="M65.7817 72.3896L62.1879 71.6274L64.3656 73.8057L63.6578 74.5135L60.1184 70.9741L60.7174 70.3751L64.3112 71.1373L62.1335 68.959L62.8412 68.2512L66.3806 71.7906L65.7817 72.3896ZM69.4843 68.687L68.6677 68.2512L67.4154 69.5036L67.8506 70.3751L67.1428 71.0829L64.8557 66.2367L65.4003 65.6922L70.2464 67.9792L69.4843 68.687ZM66.1081 66.9989L66.9796 68.7414L67.8506 67.8704L66.1081 66.9989ZM68.9397 63.3507L71.8801 66.2911L71.1724 66.9989L68.2319 64.0585L67.306 64.9844L66.707 64.3854L69.2667 61.8258L69.8656 62.4248L68.9397 63.3507ZM73.5138 64.6574L69.9744 61.118L70.6822 60.4103L74.2216 63.9497L73.5138 64.6574ZM76.9988 60.4647C76.9988 60.9548 76.8356 61.3906 76.4543 61.8258C76.0729 62.2072 75.5827 62.4248 75.0931 62.4248C74.3848 62.4248 73.9496 61.9896 73.2962 61.3356C72.6973 60.7367 72.2071 60.3015 72.2071 59.5387C72.2071 59.0491 72.3703 58.6134 72.8061 58.1776C73.1869 57.7962 73.677 57.633 74.1672 57.633C74.875 57.633 75.3107 58.0688 75.9641 58.7222C76.5087 59.3211 76.9988 59.7569 76.9988 60.4647ZM74.0584 58.559C73.8402 58.559 73.6226 58.6134 73.405 58.831C73.2413 58.9942 73.1325 59.2667 73.1325 59.4843C73.1325 59.7569 73.2962 59.9745 73.9496 60.6823C74.6574 61.3906 74.8206 61.4994 75.1475 61.4994C75.3651 61.4994 75.5827 61.445 75.8009 61.2268C75.9641 61.0636 76.0729 60.7916 76.0729 60.5735C76.0729 60.3015 75.9097 60.0833 75.2563 59.3755C74.5486 58.6678 74.3304 58.559 74.0584 58.559ZM80.647 57.5242L77.0532 56.7619L79.2315 58.9398L78.5232 59.6481L74.9838 56.1085L75.5827 55.5095L79.1771 56.2719L76.9988 54.0938L77.7066 53.3859L81.246 56.9253L80.647 57.5242ZM84.3496 53.8215L83.5331 53.3859L82.2807 54.6383L82.7165 55.5095L82.0082 56.2174L79.7211 51.3711L80.2657 50.8266L85.1124 53.1136L84.3496 53.8215ZM80.974 52.1335L81.845 53.8759L82.7165 53.0047L80.974 52.1335ZM85.7113 52.4602L82.1719 48.9208L82.8797 48.2129L85.8201 51.1533L87.4538 49.5197L88.0528 50.1188L85.7113 52.4602Z" fill="white"/>
<path d="M73.7327 73.6416L73.1337 74.2406L70.3021 72.7162L71.827 75.5473L71.228 76.1463L66.7083 73.5328L67.416 72.825L70.1933 74.5131L68.614 71.6271L69.1585 71.0825L72.0446 72.6618L70.3565 69.8846L71.0648 69.1768L73.7327 73.6416ZM75.3664 72.0079L71.827 68.4685L72.5347 67.7607L76.0741 71.3001L75.3664 72.0079ZM79.1234 68.3053L75.5296 67.5431L77.7078 69.7214L77.0001 70.4292L73.4607 66.8898L74.0596 66.2908L77.6534 67.053L75.4752 64.8747L76.1829 64.1669L79.7223 67.7063L79.1234 68.3053ZM82.7716 64.6027L79.1778 63.8405L81.356 66.0182L80.6483 66.726L77.1088 63.1866L77.7078 62.5876L81.3016 63.3504L79.1234 61.1721L79.8311 60.4643L83.3705 64.0037L82.7716 64.6027ZM84.3509 63.0234L80.8115 59.484L83.1529 57.1425L83.7519 57.7415L82.1182 59.3752L82.9353 60.1918L84.3509 58.7762L84.9498 59.3752L83.5343 60.7907L84.4053 61.6623L86.039 60.0286L86.6379 60.6275L84.3509 63.0234ZM89.4152 58.0141L87.2913 57.3063L86.8011 57.7959L88.2172 59.212L87.5089 59.9198L83.9695 56.3803L85.3856 54.9646C86.0934 54.2567 87.0193 54.3111 87.6183 54.9102C88.1079 55.4002 88.1079 55.9992 87.8903 56.4892L90.2317 57.2513L89.4152 58.0141ZM85.9302 55.618L85.2768 56.2715L86.2022 57.1969L86.8555 56.5437C87.1825 56.217 87.1825 55.8358 86.9099 55.5636C86.6379 55.2913 86.2565 55.2913 85.9302 55.618Z" fill="white"/>
</g>
<defs>
<clipPath id="clip0_221_41549">
<rect width="136" height="85" fill="white" transform="translate(0.719971 0.240234)"/>
</clipPath>
</defs>
</svg>
