<svg width="24" height="24" viewBox="0 0 24 24" fill="none" xmlns="http://www.w3.org/2000/svg">
<g id="entypo:check">
<path id="Vector" d="M9.95199 20.3961C9.42999 20.3961 8.93559 20.1525 8.61879 19.7325L4.33119 14.0673C4.19863 13.8923 4.10185 13.693 4.04639 13.4806C3.99093 13.2682 3.97787 13.047 4.00796 12.8295C4.03805 12.6121 4.1107 12.4027 4.22175 12.2134C4.33281 12.0241 4.48009 11.8585 4.65519 11.7261C4.83022 11.5932 5.02976 11.4961 5.24238 11.4404C5.455 11.3847 5.67652 11.3716 5.89423 11.4017C6.11195 11.4318 6.32159 11.5045 6.51113 11.6158C6.70067 11.7271 6.86639 11.8747 6.99879 12.0501L9.81999 15.7749L16.9132 4.38449C17.1484 4.00841 17.5232 3.74098 17.9554 3.64088C18.3875 3.54077 18.8417 3.61615 19.2184 3.85049C20.002 4.33769 20.2432 5.36969 19.7536 6.15449L11.3728 19.6065C11.2297 19.8372 11.0325 20.0294 10.7983 20.1666C10.5641 20.3038 10.3 20.3817 10.0288 20.3937C10.0024 20.3961 9.97839 20.3961 9.95199 20.3961Z" fill="#0045E6"/>
</g>
</svg>
