<svg width="32" height="32" viewBox="0 0 32 32" fill="none" xmlns="http://www.w3.org/2000/svg">
<g id="ep:arrow-left-bold" clip-path="url(#clip0_213_26574)">
<path id="Vector" d="M10.5849 3.27112C10.21 3.64618 9.99935 4.15479 9.99935 4.68512C9.99935 5.21545 10.21 5.72406 10.5849 6.09912L20.4849 15.9991L10.5849 25.8991C10.2206 26.2763 10.019 26.7815 10.0236 27.3059C10.0281 27.8303 10.2385 28.3319 10.6093 28.7028C10.9801 29.0736 11.4817 29.2839 12.0061 29.2885C12.5305 29.293 13.0357 29.0914 13.4129 28.7271L24.7269 17.4131C25.1019 17.0381 25.3125 16.5294 25.3125 15.9991C25.3125 15.4688 25.1019 14.9602 24.7269 14.5851L13.4129 3.27112C13.0379 2.89618 12.5293 2.68555 11.9989 2.68555C11.4686 2.68555 10.96 2.89618 10.5849 3.27112Z" fill="#252525"/>
<path id="Vector_2" opacity="0.4" d="M0.584928 3.58557C0.209986 3.96063 -0.000645638 4.46924 -0.000645638 4.99957C-0.000645638 5.5299 0.209986 6.03852 0.584928 6.41357L10.4849 16.3136L0.584928 26.2136C0.220612 26.5908 0.0190229 27.096 0.0235796 27.6204C0.0281363 28.1448 0.238474 28.6464 0.60929 29.0172C0.980106 29.388 1.48173 29.5984 2.00613 29.6029C2.53052 29.6075 3.03572 29.4059 3.41293 29.0416L14.7269 17.7276C15.1019 17.3525 15.3125 16.8439 15.3125 16.3136C15.3125 15.7832 15.1019 15.2746 14.7269 14.8996L3.41293 3.58557C3.03787 3.21063 2.52926 3 1.99893 3C1.4686 3 0.959983 3.21063 0.584928 3.58557Z" fill="#252525"/>
</g>
<defs>
<clipPath id="clip0_213_26574">
<rect width="32" height="32" fill="white" transform="matrix(-1 0 0 1 32 0)"/>
</clipPath>
</defs>
</svg>
