<svg width="32" height="32" viewBox="0 0 32 32" fill="none" xmlns="http://www.w3.org/2000/svg">
<g id="ep:arrow-left-bold">
<path id="Vector" d="M21.4151 3.27112C21.79 3.64618 22.0006 4.15479 22.0006 4.68512C22.0006 5.21545 21.79 5.72406 21.4151 6.09912L11.5151 15.9991L21.4151 25.8991C21.7794 26.2763 21.981 26.7815 21.9764 27.3059C21.9719 27.8303 21.7615 28.3319 21.3907 28.7028C21.0199 29.0736 20.5183 29.2839 19.9939 29.2885C19.4695 29.293 18.9643 29.0914 18.5871 28.7271L7.27307 17.4131C6.89813 17.0381 6.6875 16.5294 6.6875 15.9991C6.6875 15.4688 6.89813 14.9602 7.27307 14.5851L18.5871 3.27112C18.9621 2.89618 19.4707 2.68555 20.0011 2.68555C20.5314 2.68555 21.04 2.89618 21.4151 3.27112Z" fill="#252525"/>
<path id="Vector_2" opacity="0.4" d="M30.7276 3.27307C31.1025 3.64813 31.3131 4.15674 31.3131 4.68707C31.3131 5.2174 31.1025 5.72602 30.7276 6.10107L20.8276 16.0011L30.7276 25.9011C31.0919 26.2783 31.2935 26.7835 31.2889 27.3079C31.2844 27.8323 31.074 28.3339 30.7032 28.7047C30.3324 29.0755 29.8308 29.2859 29.3064 29.2904C28.782 29.295 28.2768 29.0934 27.8996 28.7291L16.5856 17.4151C16.2106 17.04 16 16.5314 16 16.0011C16 15.4707 16.2106 14.9621 16.5856 14.5871L27.8996 3.27307C28.2746 2.89813 28.7832 2.6875 29.3136 2.6875C29.8439 2.6875 30.3525 2.89813 30.7276 3.27307Z" fill="#252525"/>
</g>
</svg>
