<svg width="20" height="22" viewBox="0 0 20 22" fill="none" xmlns="http://www.w3.org/2000/svg">
<path id="Vector" d="M17.9875 1.60266C15.8507 -0.53422 12.3741 -0.53422 10.2372 1.60266L2.07696 9.76285C1.82512 10.0147 1.82512 10.4227 2.07696 10.6745C2.3288 10.9264 2.73679 10.9264 2.98863 10.6745L11.1488 2.51433C12.7328 0.93153 15.4918 0.93153 17.0758 2.51433C18.7096 4.14813 18.7096 6.80695 17.0758 8.44075L5.68122 19.9637C4.7066 20.9383 3.00856 20.9383 2.03399 19.9637C1.02852 18.9582 1.02852 17.3225 2.03399 16.317L12.9728 5.24929C13.3379 4.88414 13.9751 4.88414 14.3403 5.24929C14.7174 5.62638 14.7174 6.24028 14.3403 6.61741L3.85793 17.2287C3.6405 17.4461 3.6405 17.9229 3.85793 18.1403C4.10977 18.3922 4.51775 18.3922 4.76959 18.1403L15.2519 7.52904C16.1321 6.64882 16.1321 5.21779 15.2519 4.33762C14.3994 3.48516 12.9123 3.48641 12.0611 4.33762L1.12232 15.4053C-0.374107 16.9018 -0.374107 19.3788 1.12232 20.8753C1.8533 21.6063 2.82474 22 3.85788 22C4.89102 22 5.86255 21.6063 6.59289 20.8753L17.9875 9.35237C20.1244 7.21549 20.1244 3.7395 17.9875 1.60266Z" fill="#252525"/>
</svg>
