<svg width="55" height="55" viewBox="0 0 55 55" fill="none" xmlns="http://www.w3.org/2000/svg">
<g id="fluent-mdl2:compliance-audit">
<path id="Vector" d="M27.7417 34.375C27.491 34.9121 27.3031 35.4671 27.1777 36.04C27.0524 36.613 26.936 37.2038 26.8286 37.8125H10.3125V34.375H27.7417ZM10.3125 44.6875V41.25H26.7749C26.8644 41.8408 26.9897 42.4227 27.1509 42.9956C27.312 43.5685 27.5179 44.1325 27.7686 44.6875H10.3125ZM6.875 51.5625H43.103L46.5137 55H3.4375V0H33.3813L48.125 14.7437V29.9976C47.6058 29.5321 47.0597 29.1113 46.4868 28.7354C45.9139 28.3594 45.3141 28.0282 44.6875 27.7417V17.1875H30.9375V3.4375H6.875V51.5625ZM34.375 5.88135V13.75H42.2437L34.375 5.88135ZM35.0195 27.5C33.068 28.234 31.394 29.3799 29.9976 30.9375H10.3125V27.5H35.0195ZM10.3125 13.75H27.5V17.1875H10.3125V13.75ZM41.25 20.625V24.0625H10.3125V20.625H41.25ZM55 53.2812C55 53.7467 54.8299 54.1496 54.4897 54.4897C54.1496 54.8299 53.7467 55 53.2812 55C52.8158 55 52.4129 54.8299 52.0728 54.4897L44.2578 46.7017C43.5596 47.1672 42.8076 47.5163 42.002 47.749C41.1963 47.9818 40.3727 48.1071 39.5312 48.125C38.3496 48.125 37.2396 47.9012 36.2012 47.4536C35.1628 47.006 34.2497 46.3973 33.4619 45.6274C32.6742 44.8576 32.0565 43.9445 31.6089 42.8882C31.1613 41.8319 30.9375 40.7129 30.9375 39.5312C30.9375 38.3496 31.1613 37.2396 31.6089 36.2012C32.0565 35.1628 32.6652 34.2586 33.4351 33.4888C34.2049 32.7189 35.118 32.1012 36.1743 31.6357C37.2306 31.1702 38.3496 30.9375 39.5312 30.9375C40.7129 30.9375 41.8229 31.1613 42.8613 31.6089C43.8997 32.0565 44.8039 32.6742 45.5737 33.4619C46.3436 34.2497 46.9613 35.1628 47.4268 36.2012C47.8923 37.2396 48.125 38.3496 48.125 39.5312C48.125 40.3727 48.0086 41.1963 47.7759 42.002C47.5431 42.8076 47.1851 43.5596 46.7017 44.2578L54.4897 52.0728C54.8299 52.4129 55 52.8158 55 53.2812ZM34.375 39.5312C34.375 40.2474 34.5093 40.9188 34.7778 41.5454C35.0464 42.172 35.4134 42.7181 35.8789 43.1836C36.3444 43.6491 36.8905 44.0161 37.5171 44.2847C38.1437 44.5532 38.8151 44.6875 39.5312 44.6875C40.2474 44.6875 40.9188 44.5532 41.5454 44.2847C42.172 44.0161 42.7181 43.6491 43.1836 43.1836C43.6491 42.7181 44.0161 42.172 44.2847 41.5454C44.5532 40.9188 44.6875 40.2474 44.6875 39.5312C44.6875 38.8151 44.5532 38.1437 44.2847 37.5171C44.0161 36.8905 43.6491 36.3444 43.1836 35.8789C42.7181 35.4134 42.172 35.0464 41.5454 34.7778C40.9188 34.5093 40.2474 34.375 39.5312 34.375C38.8151 34.375 38.1437 34.5093 37.5171 34.7778C36.8905 35.0464 36.3444 35.4134 35.8789 35.8789C35.4134 36.3444 35.0464 36.8905 34.7778 37.5171C34.5093 38.1437 34.375 38.8151 34.375 39.5312Z" fill="white"/>
</g>
</svg>
