<svg width="28" height="24" viewBox="0 0 28 24" fill="none" xmlns="http://www.w3.org/2000/svg">
<path id="Vector" d="M12.5124 17.9283C12.5124 16.4617 12.1291 15.2317 11.3624 14.2333C10.8191 13.5467 10.0824 13.095 9.15078 12.88C8.23411 12.6667 7.36745 12.6517 6.58411 12.8333C6.31745 11.25 6.75078 9.57333 7.85078 7.79667C8.95078 6.02167 10.3758 4.685 12.1141 3.79167L9.47911 0C8.14578 0.66 6.87911 1.49667 5.71245 2.50833C4.52911 3.52 3.47911 4.68333 2.54578 5.99833C1.61245 7.31333 0.912446 8.79833 0.462446 10.4817C0.0124458 12.165 -0.112554 13.8817 0.102446 15.6483C0.382446 17.9817 1.13578 19.8483 2.36245 21.2317C3.58745 22.6333 5.11578 23.3333 6.94245 23.3333C8.55078 23.3333 9.88578 22.85 10.9424 21.87C11.9891 20.91 12.5091 19.595 12.5091 17.9233L12.5124 17.9283ZM27.7191 17.9283C27.7191 16.4617 27.3358 15.2317 26.5691 14.2333C26.0258 13.5333 25.2858 13.08 24.3574 12.8717C23.4241 12.665 22.5691 12.655 21.7908 12.835C21.5241 11.2683 21.9408 9.585 23.0441 7.80167C24.1441 6.035 25.5658 4.70167 27.3041 3.80167L24.6758 0C23.3424 0.66 22.0841 1.49667 20.9091 2.50833C19.715 3.53499 18.6545 4.70749 17.7524 5.99833C16.8258 7.315 16.1358 8.79833 15.6858 10.4817C15.2305 12.164 15.1076 13.919 15.3241 15.6483C15.6008 17.9817 16.3508 19.8483 17.5741 21.2317C18.7958 22.6217 20.3191 23.3183 22.1458 23.3183C23.7574 23.3183 25.0924 22.835 26.1491 21.8567C27.1941 20.8967 27.7191 19.5817 27.7191 17.91V17.9283Z" fill="#252525"/>
</svg>
