<svg width="137" height="86" viewBox="0 0 137 86" fill="none" xmlns="http://www.w3.org/2000/svg">
<g clip-path="url(#clip0_221_41996)">
<path d="M136.92 0.150391H0.919922V85.1504H136.92V0.150391Z" fill="white"/>
<path d="M77.1938 33.1068C78.2473 30.9998 79.1046 29.2849 79.9864 27.5943C81.7753 24.1153 84.3718 22.2288 88.5124 22.3023C98.0188 22.4493 107.525 22.5474 117.006 22.2533C121.563 22.1063 125.826 26.8838 125.507 30.7793C125.434 31.5143 125.507 32.2738 125.507 33.2538C129.158 33.1313 132.686 33.5233 134.793 36.7328C135.895 38.4479 136.876 40.6283 136.876 42.6129C136.9 48.0028 133.568 50.5018 125.63 51.6043C125.581 52.1678 125.507 52.7558 125.507 53.3438C125.459 58.8318 121.906 62.6783 116.467 62.752C108.97 62.85 101.448 62.8251 93.9513 62.752C90.2765 62.7027 87.6063 60.7919 85.9403 57.9251C84.2494 59.2726 82.7551 60.9636 80.893 61.8697C76.4339 64.0502 71.3872 62.115 68.9862 57.6316C68.0308 55.8183 67.1485 53.9563 66.0214 51.7268C64.9436 53.8583 64.037 55.7203 63.0816 57.5579C60.8274 61.7716 56.7361 63.585 52.1546 62.3355C49.6066 61.6492 47.8426 59.9832 46.642 57.7047C45.3681 55.2793 44.1676 52.8293 43.1876 50.8938C38.7285 51.1388 34.5881 51.3838 30.2761 51.6043C30.5456 55.3038 29.8106 58.783 26.5766 60.8655C24.9351 61.919 22.7546 62.6539 20.8191 62.6539C15.4536 62.6783 12.4891 58.8561 11.8521 51.4818C8.12809 51.6288 4.47759 50.9918 2.44409 47.4638C1.46409 45.7733 0.97409 43.5928 0.92509 41.6328C0.827091 38.8888 2.12559 36.3898 4.57559 35.0913C6.7316 33.9398 9.25508 33.4743 11.8766 32.6413C11.9746 31.8328 11.9991 30.5343 12.2441 29.2849C13.0526 25.1443 16.9726 22.1798 20.7211 22.3023C28.4141 22.5474 36.1316 22.4739 43.8491 22.3268C47.6466 22.2533 50.0966 24.0418 51.787 27.1778C52.7916 29.0153 53.6736 30.9263 54.776 33.1313C55.8541 30.9998 56.785 29.1868 57.6914 27.3493C59.5535 23.5763 62.567 22.1063 66.7564 22.3268C70.4805 22.4983 72.7098 24.4338 74.3027 27.4719C75.2337 29.1868 76.1155 30.9509 77.1938 33.1068ZM65.9971 37.7863C66.4136 38.6438 66.6584 39.1093 66.9037 39.5993C69.4027 44.5728 71.8524 49.5708 74.3758 54.5443C75.7483 57.2638 78.3697 57.3131 79.9864 54.7158C80.3048 54.2013 80.5746 53.6378 80.8443 53.0743C83.6861 47.3413 86.528 41.6328 89.2967 35.8508C89.9093 34.6013 90.5706 34.0378 92.0898 34.0623C96.622 34.1848 101.179 34.1113 105.711 34.1113C108.235 34.1113 110.759 34.1113 113.404 34.1113C113.404 35.9489 113.404 37.5658 113.404 39.3788C112.571 39.3788 111.836 39.3788 111.101 39.3788C105.663 39.3788 100.224 39.3788 94.7843 39.3788C92.1878 39.3788 91.0851 40.3588 91.0114 42.9313C90.9134 46.3123 90.9383 49.6688 91.0114 53.0498C91.0607 55.4018 92.1385 56.5533 94.4415 56.5778C101.669 56.6513 108.897 56.6513 116.124 56.5778C118.354 56.5533 119.358 55.4018 119.383 53.1968C119.407 50.5998 119.383 48.0028 119.383 45.2588C122.102 45.2588 124.577 45.2588 127.026 45.2588C129.256 45.2343 130.775 44.0338 130.751 42.2943C130.726 40.5793 129.231 39.4033 126.953 39.3788C124.503 39.3543 122.028 39.3788 119.383 39.3788C119.383 36.7819 119.383 34.3808 119.383 31.9798C119.383 29.0643 118.525 28.2068 115.561 28.2068C106.814 28.2068 98.0676 28.2558 89.3211 28.1578C87.2873 28.1333 86.1608 28.9418 85.3278 30.6813C82.9512 35.5568 80.4765 40.4078 78.0512 45.2588C77.8308 45.6998 77.561 46.1163 77.1938 46.7043C76.5813 45.4793 76.0911 44.4993 75.6009 43.5193C73.396 39.0848 71.1668 34.6748 68.9613 30.2403C68.3244 28.9663 67.3933 27.8638 65.9483 28.2558C64.8943 28.5498 64.0126 29.5053 63.1552 30.2893C62.7387 30.6813 62.567 31.3674 62.2973 31.9308C59.8476 36.8308 57.3975 41.7308 54.776 46.9493C51.9341 41.2653 49.2145 35.8754 46.5685 30.4853C45.7846 28.8684 44.6821 28.1578 42.8446 28.1823C35.9601 28.2558 29.0755 28.2068 22.1911 28.2068C18.9571 28.2068 18.0996 29.0888 18.0751 32.3963C18.0506 34.6503 18.0751 36.9043 18.0751 39.3543C15.4781 39.3543 13.0771 39.3543 10.6761 39.3543C8.3976 39.3788 6.97657 40.4813 6.92761 42.2698C6.85411 44.1073 8.20159 45.2098 10.5781 45.2343C13.0281 45.2343 15.4781 45.2343 18.0996 45.2343C18.0996 47.9048 17.9526 50.3058 18.1486 52.6823C18.2466 53.8093 18.6876 55.2548 19.4961 55.8918C21.5051 57.5086 24.0286 55.9898 24.1511 53.1723C24.2491 50.5753 24.1756 47.9783 24.1756 45.2098C28.8551 45.2098 33.314 45.2343 37.7731 45.2098C39.7576 45.1853 40.8601 44.1318 40.9091 42.4168C40.9336 40.5793 39.8066 39.4033 37.7731 39.3788C34.7106 39.3788 31.6971 39.4033 28.6591 39.4033C27.1891 39.4033 25.6946 39.4033 24.2981 39.4033C24.2981 37.4678 24.2981 35.8508 24.2981 34.1358C29.6636 34.1358 34.8821 34.1848 40.1251 34.1113C41.4481 34.0868 42.0361 34.6013 42.5751 35.7283C45.5886 41.9023 48.7245 48.0273 51.7626 54.2013C52.4241 55.5488 53.2571 56.6023 54.8006 56.5778C56.3196 56.5533 57.1771 55.5243 57.8388 54.1768C60.4358 48.7868 63.1552 43.4703 65.9971 37.7863Z" fill="black"/>
<path d="M113.381 50.4532C107.917 50.4532 102.577 50.4532 97.1621 50.4532C97.1621 48.7137 97.1621 47.1213 97.1621 45.4062C102.601 45.4062 107.942 45.4062 113.381 45.4062C113.381 47.1213 113.381 48.7873 113.381 50.4532Z" fill="black"/>
</g>
<defs>
<clipPath id="clip0_221_41996">
<rect width="136" height="85" fill="white" transform="translate(0.919922 0.150391)"/>
</clipPath>
</defs>
</svg>
