<svg width="137" height="86" viewBox="0 0 137 86" fill="none" xmlns="http://www.w3.org/2000/svg">
<g clip-path="url(#clip0_221_41532)">
<path d="M136.24 0.240234H0.23999V85.2402H136.24V0.240234Z" fill="white"/>
<path fill-rule="evenodd" clip-rule="evenodd" d="M67.2335 83.6513C89.8282 83.6513 108.145 65.3355 108.145 42.7403C108.145 20.1454 89.8282 1.8291 67.2335 1.8291C44.6383 1.8291 26.322 20.1454 26.322 42.7403C26.322 65.3355 44.6383 83.6513 67.2335 83.6513ZM67.2335 79.0029C87.2601 79.0029 103.496 62.7668 103.496 42.7403C103.496 22.7137 87.2601 6.47789 67.2335 6.47789C47.2066 6.47789 30.9708 22.7129 30.9708 42.7403C30.9708 62.7668 47.2066 79.0029 67.2335 79.0029Z" fill="#306FCD"/>
<path fill-rule="evenodd" clip-rule="evenodd" d="M67.2346 85.2402C90.2679 85.2402 108.94 66.2121 108.94 42.7402C108.94 19.2683 90.2679 0.240234 67.2346 0.240234C44.2012 0.240234 25.5291 19.2683 25.5291 42.7402C25.5291 66.2121 44.2012 85.2402 67.2346 85.2402ZM67.2346 80.4105C87.6505 80.4105 104.201 63.5454 104.201 42.7402C104.201 21.9351 87.6505 5.07014 67.2346 5.07014C46.8187 5.07014 30.2684 21.9351 30.2684 42.7402C30.2684 63.5454 46.8187 80.4105 67.2346 80.4105Z" fill="#4D91F6"/>
<path d="M59.474 72.7588C59.3754 72.8903 59.2377 72.9889 59.0632 73.0563C58.8881 73.1237 58.6897 73.1583 58.467 73.1583C58.2387 73.1583 58.0358 73.105 57.8596 72.9991C57.6816 72.892 57.5394 72.7345 57.4504 72.5463C57.3513 72.3304 57.3008 72.0953 57.3025 71.8578V71.6402C57.3025 71.2198 57.4011 70.8917 57.5989 70.6565C57.7961 70.4196 58.0715 70.3018 58.4251 70.3018C58.7294 70.3018 58.9708 70.3777 59.1499 70.5301C59.3284 70.6831 59.4355 70.9036 59.4723 71.1914H59.0065C58.9544 70.856 58.7634 70.6894 58.4347 70.6894C58.2228 70.6894 58.0613 70.767 57.9502 70.9234C57.8386 71.0792 57.7831 71.3082 57.7785 71.6091V71.8238C57.7785 72.1242 57.8403 72.3576 57.9644 72.5242C58.0239 72.6047 58.1027 72.6699 58.1933 72.7129C58.284 72.756 58.3837 72.7764 58.484 72.7719C58.726 72.7719 58.8988 72.7163 59.0008 72.6047V72.0601H58.4387V71.6935H59.474V72.7588ZM59.8656 72.0675C59.8656 71.8652 59.9052 71.6827 59.984 71.5218C60.0622 71.3592 60.1727 71.2339 60.3161 71.1478C60.4577 71.0594 60.6215 71.0158 60.8068 71.0158C61.0799 71.0158 61.3026 71.1053 61.4726 71.2849C61.6432 71.4646 61.7361 71.702 61.7497 71.9989L61.7514 72.1077C61.7514 72.3112 61.7129 72.4931 61.6353 72.654C61.565 72.8081 61.45 72.9373 61.3055 73.0263C61.1627 73.1136 60.9983 73.1583 60.8108 73.1583C60.5246 73.1583 60.2945 73.0614 60.1217 72.8676C59.9511 72.6727 59.8656 72.4149 59.8656 72.0907V72.0675ZM60.3212 72.1072C60.3212 72.3202 60.3642 72.4868 60.4498 72.6075C60.5376 72.7277 60.6566 72.7877 60.8108 72.7877C60.881 72.7905 60.9507 72.7747 61.0136 72.743C61.076 72.7107 61.1292 72.6631 61.1683 72.6047C61.255 72.4823 61.2975 72.3027 61.2975 72.0675C61.2975 71.8584 61.2533 71.6941 61.1649 71.5711C61.1253 71.5127 61.072 71.4657 61.0091 71.4334C60.9468 71.4017 60.8771 71.3858 60.8068 71.3881C60.7371 71.3864 60.6685 71.4022 60.6068 71.4334C60.5444 71.4651 60.4917 71.5122 60.4526 71.5694C60.3648 71.6884 60.3212 71.8675 60.3212 72.1072ZM62.0518 72.0675C62.0518 71.8652 62.0914 71.6827 62.1696 71.5218C62.2484 71.3592 62.3589 71.2339 62.5011 71.1478C62.6439 71.0594 62.8077 71.0158 62.993 71.0158C63.2661 71.0158 63.4888 71.1053 63.6577 71.2849C63.8294 71.4646 63.9218 71.702 63.9359 71.9989L63.9376 72.1077C63.9376 72.3112 63.8985 72.4931 63.8215 72.654C63.7506 72.8081 63.6356 72.9379 63.4911 73.0263C63.3489 73.1136 63.1834 73.1583 62.9958 73.1583C62.7102 73.1583 62.4807 73.0614 62.3079 72.8676C62.1373 72.6727 62.0518 72.4149 62.0518 72.0907V72.0675ZM62.5068 72.1072C62.5068 72.3202 62.5504 72.4868 62.636 72.6075C62.7227 72.7277 62.8428 72.7877 62.9958 72.7877C63.0667 72.7905 63.1364 72.7753 63.1993 72.743C63.2622 72.7107 63.3154 72.6631 63.3545 72.6047C63.4407 72.4823 63.4837 72.3027 63.4837 72.0675C63.4837 71.8584 63.4395 71.6941 63.3506 71.5711C63.3109 71.5127 63.2576 71.4657 63.1953 71.434C63.1324 71.4017 63.0633 71.3864 62.993 71.3881C62.9233 71.3864 62.8547 71.4017 62.7924 71.4334C62.7306 71.4651 62.6779 71.5122 62.6388 71.5694C62.551 71.6884 62.5068 71.8675 62.5068 72.1072ZM64.238 72.0715C64.238 71.7536 64.3099 71.498 64.4556 71.3059C64.5213 71.2135 64.6086 71.1387 64.71 71.0877C64.812 71.0373 64.9242 71.0124 65.0375 71.0158C65.2529 71.0158 65.4268 71.0917 65.5594 71.2447V70.1862H66.015V73.1198H65.6019L65.5804 72.9056C65.5152 72.9872 65.4325 73.0529 65.3373 73.0966C65.2427 73.1408 65.139 73.1617 65.0347 73.1583C64.9219 73.16 64.8103 73.1345 64.7094 73.0835C64.6086 73.0331 64.5219 72.9583 64.4567 72.8659C64.3111 72.671 64.238 72.4069 64.238 72.0715ZM64.693 72.1111C64.693 72.3219 64.7327 72.4863 64.8114 72.6036C64.8908 72.7214 65.0041 72.7798 65.1503 72.7798C65.2364 72.7838 65.3209 72.7611 65.394 72.7158C65.4671 72.6704 65.5249 72.6041 65.5594 72.5259V71.6442C65.5249 71.5666 65.4676 71.502 65.3951 71.4572C65.3231 71.413 65.2393 71.3915 65.1543 71.3954C65.0868 71.3926 65.0194 71.4079 64.9599 71.4396C64.8998 71.4708 64.8488 71.5178 64.8131 71.5751C64.7332 71.6941 64.6936 71.872 64.6936 72.1117L64.693 72.1111ZM66.6112 73.1198V71.3977H66.3018V71.0537H66.6112V70.9126C66.6123 70.7506 66.6463 70.6123 66.712 70.4961C66.7766 70.3817 66.8747 70.2904 66.9937 70.2338C67.1149 70.176 67.2606 70.1465 67.4306 70.1465C67.5303 70.1465 67.6261 70.1578 67.7162 70.1782C67.8091 70.2009 67.9054 70.2287 68.004 70.261L67.9349 70.6446C67.7836 70.5879 67.6238 70.5568 67.4623 70.5534C67.3229 70.5534 67.2232 70.5851 67.1603 70.6469C67.0974 70.7081 67.0668 70.8004 67.0668 70.9234V71.0537H67.4663V71.3977H67.0668V73.1198H66.6112ZM68.2194 73.1198H67.7638V71.0537H68.2194V73.1198ZM69.7868 71.477C69.7256 71.4668 69.6632 71.4617 69.6015 71.4623C69.3924 71.4623 69.2518 71.5439 69.1799 71.7071V73.1198H68.7237V71.0537H69.1589L69.1702 71.2844C69.2796 71.1053 69.432 71.0158 69.6275 71.0158C69.6927 71.0158 69.7471 71.0243 69.789 71.0418L69.7868 71.477ZM70.503 71.0537L70.5161 71.2691C70.6589 71.1002 70.8532 71.0152 71.1014 71.0152C71.3723 71.0152 71.5582 71.1212 71.6573 71.3325C71.7253 71.2305 71.8183 71.1484 71.9271 71.0923C72.0364 71.0367 72.1577 71.0101 72.2801 71.0152C72.5039 71.0152 72.67 71.0787 72.7788 71.205C72.8887 71.3303 72.9459 71.5161 72.9476 71.7626V73.1198H72.492V71.7751C72.492 71.6442 72.4643 71.5479 72.4082 71.4878C72.3515 71.4266 72.2586 71.3954 72.1282 71.3954C72.0359 71.392 71.9458 71.4221 71.8744 71.481C71.8075 71.5399 71.7593 71.6176 71.7367 71.7037L71.7384 73.1198H71.2839V71.7592C71.2777 71.5161 71.1553 71.3949 70.9184 71.3949C70.7359 71.3949 70.6062 71.4702 70.5302 71.6221V73.1192H70.0746V71.0532H70.5036L70.503 71.0537ZM74.553 72.5582C74.5547 72.5208 74.5456 72.4834 74.5281 72.45C74.5099 72.4166 74.4833 72.3888 74.451 72.3695C74.3853 72.3265 74.2748 72.2885 74.1189 72.2551C73.9852 72.2284 73.8549 72.1865 73.7313 72.1287C73.5041 72.0176 73.3896 71.8544 73.3896 71.6419C73.3896 71.464 73.4639 71.3144 73.6118 71.1954C73.7591 71.0758 73.9467 71.0158 74.1739 71.0158C74.4164 71.0158 74.6119 71.077 74.761 71.1982C74.8329 71.2549 74.8913 71.3274 74.9304 71.4102C74.9695 71.4929 74.9882 71.5836 74.9859 71.6748H74.5298C74.5309 71.6329 74.523 71.5915 74.506 71.553C74.4895 71.5144 74.4646 71.4804 74.4329 71.4527C74.3615 71.3903 74.2685 71.358 74.1739 71.3631C74.0861 71.3592 73.9999 71.3841 73.928 71.4345C73.8979 71.4561 73.8741 71.4844 73.8577 71.5167C73.8418 71.5496 73.8339 71.5858 73.835 71.6227C73.835 71.6941 73.8639 71.7496 73.9223 71.7893C73.9818 71.8284 74.1002 71.8692 74.2787 71.9088C74.4578 71.9485 74.5972 71.9961 74.6992 72.0522C74.7904 72.0975 74.8686 72.1661 74.9253 72.2511C74.9774 72.3361 75.0041 72.4341 75.0007 72.5339C75.0024 72.6223 74.9831 72.7095 74.9434 72.7883C74.9038 72.8671 74.8454 72.9351 74.774 72.9866C74.6227 73.1011 74.4244 73.1583 74.1796 73.1583C74.026 73.1606 73.8741 73.1294 73.7347 73.066C73.6123 73.0116 73.5075 72.9243 73.431 72.8144C73.3602 72.7129 73.3222 72.5922 73.3222 72.4687H73.7648C73.7653 72.5174 73.7767 72.5656 73.7976 72.6092C73.8186 72.6534 73.8492 72.692 73.8872 72.7231C73.962 72.7809 74.0617 72.8104 74.1852 72.8104C74.3048 72.8104 74.3966 72.7877 74.4589 72.7418C74.4884 72.7214 74.5122 72.6942 74.5286 72.6625C74.5451 72.6302 74.5536 72.5951 74.553 72.5594V72.5582ZM75.6835 72.6308C75.7685 72.6308 75.8342 72.6563 75.8801 72.7056C75.9034 72.7299 75.9215 72.7583 75.9334 72.79C75.9447 72.8212 75.9504 72.8546 75.9493 72.888C75.9493 72.9611 75.9255 73.0217 75.8801 73.071C75.8337 73.1175 75.7685 73.1407 75.6835 73.1407C75.6478 73.1424 75.6127 73.1373 75.5798 73.1249C75.5464 73.113 75.5158 73.0943 75.4903 73.0699C75.4665 73.0461 75.4478 73.0178 75.4359 72.9866C75.4234 72.9555 75.4177 72.9226 75.4189 72.8891C75.4189 72.8149 75.4421 72.7537 75.488 72.7061C75.5129 72.6806 75.5435 72.6602 75.5775 72.6472C75.611 72.6342 75.6472 72.6285 75.6835 72.6308ZM77.3053 72.7877C77.409 72.7911 77.5099 72.7549 77.5875 72.6863C77.6238 72.6551 77.6532 72.6166 77.6742 72.5735C77.6946 72.5305 77.7065 72.484 77.7082 72.4358H78.1372C78.1321 72.565 78.0913 72.6903 78.0187 72.7974C77.9434 72.9096 77.8402 73.0002 77.7195 73.0603C77.592 73.1255 77.4572 73.1583 77.3104 73.1583C77.0265 73.1583 76.8021 73.0643 76.6349 72.8778C76.4689 72.6903 76.3862 72.4319 76.3862 72.1026V72.055C76.3862 71.74 76.4689 71.4884 76.6332 71.3002C76.7987 71.1104 77.0237 71.0158 77.3087 71.0158C77.5495 71.0158 77.7456 71.0872 77.8963 71.2311C77.9728 71.3036 78.034 71.3909 78.0754 71.4878C78.1168 71.5853 78.1377 71.6895 78.1372 71.7949H77.7082C77.7071 71.6856 77.6634 71.5813 77.5875 71.5025C77.5512 71.4646 77.507 71.4351 77.4583 71.4153C77.4096 71.3954 77.3574 71.3858 77.3047 71.3875C77.2384 71.3841 77.1727 71.3977 77.1132 71.4266C77.0531 71.4549 77.0016 71.498 76.963 71.5518C76.8837 71.6601 76.8429 71.825 76.8418 72.0471V72.1213C76.8418 72.3457 76.8814 72.5123 76.9596 72.6234C77.0395 72.7333 77.1546 72.7877 77.3047 72.7877H77.3053ZM78.3961 72.0675C78.3961 71.8652 78.4358 71.6827 78.514 71.5218C78.5933 71.3592 78.7038 71.2339 78.8461 71.1478C78.9889 71.0594 79.1526 71.0158 79.3368 71.0158C79.6111 71.0158 79.8326 71.1053 80.0026 71.2849C80.1738 71.4646 80.2661 71.702 80.2803 71.9989L80.282 72.1077C80.282 72.3112 80.2429 72.4931 80.1658 72.654C80.0956 72.8081 79.9805 72.9379 79.8355 73.0263C79.6927 73.1136 79.5283 73.1583 79.3408 73.1583C79.0546 73.1583 78.8251 73.0614 78.6528 72.8676C78.4811 72.6727 78.3961 72.4149 78.3961 72.0907V72.0675ZM78.8512 72.1072C78.8512 72.3202 78.8942 72.4868 78.9809 72.6075C79.0676 72.7277 79.1872 72.7877 79.3408 72.7877C79.411 72.7905 79.4807 72.7747 79.5436 72.743C79.606 72.7107 79.6592 72.6631 79.6983 72.6047C79.7856 72.4823 79.8287 72.3027 79.8287 72.0675C79.8287 71.8584 79.7839 71.6941 79.6949 71.5711C79.6558 71.5127 79.602 71.4657 79.5397 71.434C79.4773 71.4017 79.4076 71.3864 79.3374 71.3881C79.2677 71.3864 79.1991 71.4017 79.1368 71.4334C79.075 71.4651 79.0217 71.5116 78.9826 71.5694C78.8948 71.6884 78.8512 71.8675 78.8512 72.1072Z" fill="black"/>
<path d="M14.408 47.9033H122.445L114.227 57.0391L122.445 66.1743H14.408L22.5044 57.0391L14.408 47.9033Z" fill="#4D91F6"/>
<path d="M38.2735 51.9628H37.0661V55.2755H36.2542V51.9628H35.0642V51.2995H38.2735V51.9628ZM37.9471 53.7709C37.9471 53.4778 38.0027 53.2164 38.1138 52.9876C38.2267 52.7573 38.3871 52.5801 38.5961 52.4554C38.8186 52.3265 39.0722 52.2611 39.3293 52.2663C39.7241 52.2663 40.0466 52.3886 40.2953 52.6317C40.5455 52.8764 40.6853 53.2076 40.7147 53.6263L40.7203 53.8289C40.7203 54.2817 40.5948 54.6463 40.3437 54.9212C40.0935 55.1936 39.7567 55.3303 39.3348 55.3303C38.913 55.3303 38.5754 55.1936 38.3228 54.9212C38.0725 54.6479 37.9471 54.2761 37.9471 53.8066V53.7709ZM38.7287 53.8289C38.7287 54.1085 38.7811 54.3238 38.886 54.4723C38.9901 54.6209 39.1402 54.6947 39.3348 54.6947C39.4211 54.698 39.5069 54.6797 39.5843 54.6414C39.6617 54.6031 39.7283 54.546 39.7781 54.4755C39.8846 54.3286 39.9378 54.0934 39.9378 53.7709C39.9378 53.496 39.8846 53.2831 39.7789 53.1322C39.7295 53.0593 39.6622 53.0002 39.5835 52.9606C39.5048 52.921 39.4173 52.9021 39.3293 52.9058C39.2422 52.9024 39.1557 52.9214 39.0781 52.961C39.0004 53.0007 38.9343 53.0596 38.886 53.1322C38.7811 53.2815 38.7287 53.5135 38.7287 53.8289ZM43.7811 53.8257C43.7811 54.2809 43.6778 54.6463 43.4729 54.9212C43.3792 55.0522 43.2546 55.1581 43.1103 55.2294C42.9659 55.3008 42.8061 55.3355 42.6451 55.3303C42.3488 55.3303 42.1105 55.227 41.9277 55.0189V56.4123H41.1461V52.3211H41.8713L41.8984 52.6103C42.0874 52.3807 42.3353 52.2663 42.6395 52.2663C43.0001 52.2663 43.2806 52.4013 43.4808 52.6707C43.6809 52.9407 43.7811 53.3117 43.7811 53.7852V53.8257ZM42.9994 53.7685C42.9994 53.4936 42.9509 53.2815 42.8532 53.1322C42.8098 53.0607 42.7479 53.0022 42.6741 52.9628C42.6004 52.9234 42.5173 52.9045 42.4338 52.9082C42.1883 52.9082 42.0199 53.0035 41.9277 53.1918V54.4016C42.023 54.597 42.1938 54.6939 42.4393 54.6939C42.8127 54.6939 42.9994 54.3857 42.9994 53.7685ZM45.5883 55.2755V51.2995H46.9682C47.4464 51.2995 47.8087 51.3925 48.0565 51.5776C48.3027 51.7618 48.4267 52.0328 48.4267 52.3894C48.4333 52.571 48.3826 52.7501 48.2816 52.9011C48.1806 53.0521 48.0346 53.1675 47.8642 53.2307C48.066 53.2815 48.2241 53.384 48.3401 53.5389C48.4569 53.6938 48.5156 53.8829 48.5156 54.1069C48.5156 54.489 48.3949 54.7789 48.1534 54.9752C47.9111 55.1722 47.5671 55.2723 47.1199 55.2763H45.5883V55.2755ZM46.4002 53.5445V54.6177H47.0953C47.2859 54.6177 47.4353 54.5724 47.5417 54.4811C47.5958 54.4337 47.6384 54.3747 47.6665 54.3086C47.6946 54.2424 47.7073 54.1707 47.7038 54.099C47.7038 53.7344 47.5171 53.55 47.1437 53.5445H46.4002ZM46.4002 52.9654H47.0008C47.4098 52.9582 47.6148 52.7938 47.6148 52.4713C47.6148 52.2909 47.5624 52.1615 47.4575 52.0836C47.355 52.0034 47.1922 51.9628 46.9682 51.9628H46.4002V52.9654ZM49.8455 55.2755H49.0606V51.0811H49.8455V55.2755ZM50.315 53.7709C50.315 53.4778 50.3706 53.2164 50.4826 52.9876C50.5938 52.7573 50.755 52.5801 50.964 52.4554C51.1865 52.3265 51.4401 52.2611 51.6972 52.2663C52.092 52.2663 52.4145 52.3886 52.6632 52.6317C52.9142 52.8764 53.054 53.2076 53.0826 53.6263L53.0882 53.8289C53.0882 54.2817 52.9627 54.6463 52.7116 54.9212C52.4614 55.1936 52.1246 55.3303 51.7027 55.3303C51.2809 55.3303 50.9433 55.1936 50.6907 54.9212C50.4405 54.6479 50.315 54.2761 50.315 53.8066V53.7709ZM51.0966 53.8289C51.0966 54.1085 51.149 54.3238 51.2539 54.4723C51.358 54.6209 51.5081 54.6947 51.7027 54.6947C51.7892 54.6981 51.8751 54.6798 51.9526 54.6415C52.0302 54.6033 52.097 54.5462 52.1468 54.4755C52.2533 54.3286 52.3057 54.0934 52.3057 53.7709C52.3057 53.496 52.2533 53.2831 52.1468 53.1322C52.0974 53.0593 52.0301 53.0002 51.9514 52.9606C51.8727 52.921 51.7852 52.9021 51.6972 52.9058C51.6101 52.9024 51.5236 52.9214 51.446 52.961C51.3683 53.0007 51.3022 53.0596 51.2539 53.1322C51.149 53.2815 51.0966 53.5135 51.0966 53.8289ZM54.7318 54.6939C54.8756 54.6939 54.9931 54.6542 55.0829 54.5748C55.1279 54.5347 55.1639 54.4853 55.1883 54.4301C55.2127 54.3749 55.225 54.315 55.2243 54.2547H55.9567C55.9551 54.4549 55.9011 54.6384 55.7947 54.806C55.6867 54.9729 55.5351 55.107 55.3561 55.1936C55.1657 55.2862 54.9562 55.333 54.7445 55.3303C54.3266 55.3303 53.9961 55.1968 53.7547 54.9291C53.5132 54.659 53.3924 54.288 53.3924 53.8146V53.7629C53.3924 53.3078 53.5116 52.9447 53.7523 52.673C53.9922 52.4021 54.3211 52.2663 54.7397 52.2663C55.1051 52.2663 55.399 52.372 55.6191 52.5833C55.8408 52.7922 55.9527 53.0718 55.9567 53.4213H55.2243C55.2264 53.2841 55.1758 53.1513 55.0829 53.0504C55.0371 53.0021 54.9815 52.9643 54.9198 52.9393C54.8582 52.9144 54.7919 52.9029 54.7254 52.9058C54.5443 52.9058 54.4061 52.9725 54.3123 53.1076C54.2202 53.2402 54.1741 53.4571 54.1741 53.7574V53.8392C54.1741 54.1434 54.2202 54.3619 54.3123 54.4946C54.4045 54.628 54.5443 54.6939 54.7318 54.6939ZM57.4112 54.091L57.1301 54.3746V55.2763H56.3484V51.0811H57.1301V53.4055L57.2808 53.2084L58.0311 52.3211H58.9701L57.9115 53.5524L59.0613 55.2763H58.1637L57.4112 54.091ZM60.4156 54.6939C60.5601 54.6939 60.678 54.6542 60.7675 54.5748C60.8123 54.5345 60.848 54.4851 60.8724 54.4299C60.8967 54.3747 60.9086 54.315 60.9081 54.2547H61.6413C61.6396 54.4549 61.5858 54.6384 61.4793 54.806C61.3716 54.9729 61.2197 55.107 61.0407 55.1936C60.8503 55.2862 60.6412 55.333 60.4292 55.3303C60.0105 55.3303 59.6807 55.1968 59.4393 54.9291C59.1973 54.659 59.076 54.288 59.076 53.8146V53.7629C59.076 53.3078 59.1962 52.9447 59.4364 52.673C59.6761 52.4021 60.0059 52.2663 60.4236 52.2663C60.7896 52.2663 61.0832 52.372 61.303 52.5833C61.5252 52.7922 61.6374 53.0718 61.6413 53.4213H60.9081C60.9103 53.2843 60.8599 53.1515 60.7675 53.0504C60.7216 53.0021 60.6661 52.9643 60.6043 52.9393C60.5426 52.9144 60.4763 52.9029 60.41 52.9058C60.2275 52.9058 60.0898 52.9725 59.9969 53.1076C59.9051 53.2402 59.8586 53.4571 59.8586 53.7574V53.8392C59.8586 54.1434 59.9051 54.3619 59.9963 54.4946C60.0881 54.628 60.2281 54.6939 60.4156 54.6939ZM62.7956 52.6428C63.0025 52.3918 63.2626 52.2663 63.5771 52.2663C64.2123 52.2663 64.5336 52.6389 64.5427 53.3832V55.2763H63.7607V53.4055C63.7607 53.2363 63.725 53.1115 63.653 53.0313C63.581 52.9495 63.4603 52.9082 63.2932 52.9082C63.0642 52.9082 62.8982 52.9971 62.7956 53.1759V55.2763H62.0131V51.0811H62.7956V52.6428ZM66.7731 55.2755C66.7374 55.2047 66.7113 55.1166 66.6954 55.0109C66.5056 55.2238 66.2591 55.3303 65.9565 55.3303C65.6698 55.3303 65.4323 55.2468 65.2414 55.0792C65.1513 55.0008 65.0787 54.9033 65.0306 54.7937C64.9818 54.6841 64.958 54.5651 64.9614 54.4453C64.9614 54.1323 65.0753 53.8924 65.3043 53.7248C65.5349 53.5572 65.8681 53.4722 66.3027 53.4706H66.6626V53.3014C66.6688 53.1828 66.6314 53.0661 66.5572 52.9733C66.4886 52.8915 66.3792 52.851 66.2296 52.851C66.118 52.8445 66.0075 52.8783 65.9185 52.9463C65.8811 52.9788 65.8522 53.0193 65.833 53.0647C65.8137 53.1101 65.8046 53.1592 65.8075 53.2084H65.0255C65.0255 53.0376 65.0782 52.8788 65.183 52.7334C65.2878 52.588 65.4352 52.4736 65.6261 52.3918C65.8296 52.3057 66.0489 52.263 66.2693 52.2663C66.6308 52.2663 66.917 52.3584 67.1272 52.542C67.3414 52.7247 67.4474 52.9813 67.4474 53.3125V54.5931C67.4491 54.8735 67.4871 55.0856 67.5636 55.2294V55.2763H66.7731V55.2755ZM66.1265 54.7273C66.2427 54.7273 66.3492 54.7019 66.4461 54.6503C66.5373 54.6035 66.6127 54.5305 66.6626 54.4405V53.9321H66.3702C65.9786 53.9321 65.7706 54.0688 65.7451 54.3421L65.7429 54.3881C65.7417 54.4337 65.7502 54.479 65.7678 54.5209C65.7859 54.5628 65.8126 54.6005 65.846 54.6312C65.9236 54.698 66.0245 54.7321 66.1265 54.7265V54.7273ZM68.8182 55.2755H68.0333V52.3203H68.817V55.2755H68.8182ZM67.9869 51.5561C67.9869 51.4378 68.026 51.3408 68.103 51.2638C68.1467 51.2244 68.1977 51.194 68.2526 51.1743C68.3082 51.1547 68.3671 51.1462 68.4255 51.1494C68.5592 51.1494 68.6646 51.1875 68.7451 51.2638C68.8244 51.3408 68.8641 51.4386 68.8641 51.5561C68.8658 51.6111 68.8556 51.6659 68.8346 51.7166C68.8136 51.7675 68.7819 51.8132 68.7417 51.8508C68.6992 51.89 68.6493 51.9203 68.5949 51.9401C68.5411 51.9598 68.4833 51.9687 68.4255 51.966C68.3082 51.9711 68.1931 51.9297 68.1064 51.8508C68.0668 51.8128 68.0362 51.7671 68.0158 51.7165C67.9948 51.6659 67.9852 51.6115 67.9869 51.5569V51.5561ZM70.1289 52.3203L70.1527 52.6619C70.3623 52.3982 70.6428 52.2663 70.9947 52.2663C71.3041 52.2663 71.5348 52.3584 71.6866 52.542C71.8374 52.7263 71.9161 53.0011 71.919 53.3673V55.2763H71.1375V53.3848C71.1375 53.218 71.1018 53.0965 71.0293 53.0218C70.9573 52.9455 70.8372 52.9074 70.6695 52.9074C70.5686 52.9032 70.4689 52.9277 70.381 52.9778C70.2932 53.028 70.2218 53.1018 70.1742 53.191V55.2755H69.3922V52.3203H70.1277H70.1289ZM76.6382 51.9628H75.4306V55.2755H74.6191V51.9628H73.4291V51.2995H76.6382V51.9628ZM78.1002 55.3311C77.6712 55.3311 77.321 55.1976 77.0501 54.9315C76.7815 54.6662 76.6472 54.3118 76.6472 53.8694V53.7931C76.6472 53.496 76.7039 53.2315 76.8172 52.9987C76.9311 52.7636 77.0915 52.5833 77.2989 52.4578C77.5086 52.3307 77.746 52.2663 78.014 52.2663C78.4135 52.2663 78.7286 52.3934 78.9575 52.6484C79.1882 52.9034 79.3038 53.2649 79.3038 53.7328V54.0553H77.4394C77.457 54.2323 77.538 54.3971 77.6672 54.5192C77.8004 54.6377 77.9738 54.7004 78.1523 54.6939C78.4521 54.6939 78.6872 54.5844 78.8572 54.3635L79.242 54.798C79.1241 54.9649 78.9655 55.0967 78.7654 55.1913C78.5563 55.2858 78.3297 55.3333 78.1002 55.3303V55.3311ZM78.0106 52.9058C77.9398 52.9032 77.8695 52.916 77.8038 52.9433C77.7386 52.9706 77.6797 53.0117 77.6315 53.0639C77.5363 53.1695 77.4751 53.3205 77.4485 53.5167H78.5359V53.4547C78.532 53.2799 78.4849 53.1449 78.3954 53.0496C78.3047 52.9542 78.1767 52.9058 78.0106 52.9058ZM80.9125 54.6939C81.0565 54.6939 81.1738 54.6542 81.2639 54.5748C81.3086 54.5346 81.3449 54.4852 81.3693 54.4301C81.3936 54.3748 81.4055 54.315 81.405 54.2547H82.1377C82.136 54.4549 82.0821 54.6384 81.9756 54.806C81.8674 54.9729 81.7161 55.1069 81.537 55.1936C81.3466 55.2862 81.1369 55.333 80.925 55.3303C80.5074 55.3303 80.177 55.1968 79.9356 54.9291C79.6942 54.659 79.5735 54.288 79.5735 53.8146V53.7629C79.5735 53.3078 79.6925 52.9447 79.9333 52.673C80.173 52.4021 80.5017 52.2663 80.9205 52.2663C81.286 52.2663 81.5801 52.372 81.7999 52.5833C82.0215 52.7922 82.1337 53.0718 82.1377 53.4213H81.405C81.4072 53.2841 81.3568 53.1514 81.2639 53.0504C81.218 53.0022 81.1624 52.9644 81.1012 52.9395C81.0395 52.9146 80.9732 52.9031 80.9069 52.9058C80.7244 52.9058 80.5867 52.9725 80.4932 53.1076C80.4008 53.2402 80.3549 53.4571 80.3549 53.7574V53.8392C80.3549 54.1434 80.4008 54.3619 80.4932 54.4946C80.585 54.628 80.7244 54.6939 80.9125 54.6939ZM83.292 52.6428C83.4994 52.3918 83.7606 52.2663 84.0734 52.2663C84.7092 52.2663 85.0305 52.6389 85.0396 53.3832V55.2763H84.2576V53.4055C84.2576 53.2363 84.2213 53.1115 84.1488 53.0313C84.0774 52.9495 83.9572 52.9082 83.7901 52.9082C83.56 52.9082 83.394 52.9971 83.292 53.1759V55.2763H82.51V51.0811H83.292V52.6428ZM86.2936 52.3203L86.3174 52.6619C86.5265 52.3982 86.8076 52.2663 87.1595 52.2663C87.4694 52.2663 87.7001 52.3584 87.8514 52.542C88.0027 52.7263 88.0803 53.0011 88.0843 53.3673V55.2763H87.3028V53.3848C87.3028 53.218 87.266 53.0965 87.1946 53.0218C87.1221 52.9455 87.0025 52.9074 86.8348 52.9074C86.7339 52.9033 86.6342 52.9278 86.5463 52.9779C86.4591 53.0281 86.3871 53.1019 86.3401 53.191V55.2755H85.5575V52.3203H86.2936ZM88.503 53.7709C88.503 53.4778 88.5586 53.2164 88.6696 52.9876C88.7818 52.7573 88.9422 52.5801 89.1519 52.4554C89.3746 52.3266 89.6279 52.2613 89.8846 52.2663C90.2801 52.2663 90.602 52.3886 90.8513 52.6317C91.1012 52.8764 91.2412 53.2076 91.2701 53.6263L91.2752 53.8289C91.2752 54.2817 91.1499 54.6463 90.8995 54.9212C90.6484 55.1936 90.3118 55.3303 89.8908 55.3303C89.4681 55.3303 89.1315 55.1936 88.8787 54.9212C88.6277 54.6479 88.5025 54.2761 88.5025 53.8066V53.7709H88.503ZM89.2839 53.8289C89.2839 54.1085 89.336 54.3238 89.4414 54.4723C89.4907 54.5445 89.5582 54.6027 89.6369 54.6416C89.7151 54.6805 89.8024 54.6988 89.8902 54.6947C89.9764 54.6981 90.0625 54.6798 90.1401 54.6415C90.2172 54.6033 90.2841 54.5462 90.3339 54.4755C90.4405 54.3286 90.4932 54.0934 90.4932 53.7709C90.4932 53.496 90.4405 53.2831 90.3339 53.1322C90.2846 53.0593 90.2172 53.0003 90.1384 52.9607C90.0597 52.9211 89.9724 52.9021 89.8846 52.9058C89.7973 52.9024 89.7106 52.9214 89.633 52.961C89.5553 53.0007 89.4896 53.0596 89.4414 53.1322C89.336 53.2815 89.2839 53.5135 89.2839 53.8289ZM92.5264 55.2755H91.7427V51.0811H92.5264V55.2755ZM92.9961 53.7709C92.9961 53.4778 93.0517 53.2164 93.1639 52.9876C93.2755 52.7573 93.4364 52.5801 93.6461 52.4554C93.8682 52.3265 94.1221 52.2611 94.3794 52.2663C94.7738 52.2663 95.0956 52.3886 95.3444 52.6317C95.5954 52.8764 95.7354 53.2076 95.7637 53.6263L95.7694 53.8289C95.7694 54.2817 95.6436 54.6463 95.3937 54.9212C95.1427 55.1936 94.8055 55.3303 94.3845 55.3303C93.9623 55.3303 93.6246 55.1936 93.3724 54.9212C93.1214 54.6479 92.9961 54.2761 92.9961 53.8066V53.7709ZM93.7787 53.8289C93.7787 54.1085 93.8303 54.3238 93.9351 54.4723C94.0399 54.6209 94.189 54.6947 94.3839 54.6947C94.47 54.6981 94.5562 54.6798 94.6338 54.6415C94.7114 54.6033 94.7783 54.5462 94.8282 54.4755C94.9341 54.3286 94.9868 54.0934 94.9868 53.7709C94.9868 53.496 94.9341 53.2831 94.8282 53.1322C94.7783 53.0595 94.7114 53.0005 94.6327 52.9609C94.5545 52.9212 94.4672 52.9023 94.3794 52.9058C94.2921 52.9022 94.2054 52.9212 94.1272 52.9609C94.0496 53.0005 93.9833 53.0595 93.9351 53.1322C93.8303 53.2815 93.7787 53.5135 93.7787 53.8289ZM96.0816 53.7765C96.0816 53.3236 96.1882 52.9582 96.4007 52.6818C96.6154 52.4045 96.9044 52.2663 97.2665 52.2663C97.5878 52.2663 97.8377 52.3775 98.0157 52.5999L98.0485 52.3211H98.7569V55.1778C98.7569 55.4359 98.6991 55.6607 98.5823 55.8522C98.4662 56.0428 98.3035 56.189 98.0922 56.2891C97.8808 56.3892 97.6337 56.44 97.351 56.44C97.1362 56.44 96.9265 56.3955 96.7231 56.3082C96.5191 56.2224 96.365 56.112 96.2601 55.9745L96.6064 55.4947C96.8013 55.7147 97.0382 55.8252 97.3158 55.8252C97.5227 55.8252 97.6847 55.7688 97.7998 55.6552C97.9148 55.544 97.9732 55.3859 97.9732 55.1801V55.0213C97.7924 55.2278 97.555 55.3311 97.2614 55.3311C96.9101 55.3311 96.6251 55.1921 96.4063 54.9156C96.1904 54.6376 96.0822 54.2682 96.0822 53.809V53.7773L96.0816 53.7765ZM96.8642 53.8336C96.8642 54.1013 96.9175 54.3118 97.0229 54.4652C97.1294 54.6161 97.2756 54.6916 97.4615 54.6916C97.6995 54.6916 97.8706 54.601 97.9732 54.4215V53.1783C97.8683 52.9979 97.6995 52.9082 97.4671 52.9082C97.3793 52.9058 97.2926 52.9259 97.215 52.9665C97.1373 53.0071 97.0716 53.0669 97.0234 53.1401C96.9175 53.295 96.8642 53.5262 96.8642 53.8336ZM100.398 54.1586L100.939 52.3211H101.778L100.601 55.7346L100.536 55.8903C100.362 56.2764 100.073 56.4694 99.6703 56.4694C99.557 56.4694 99.442 56.452 99.3241 56.4178V55.8196L99.4431 55.822C99.591 55.822 99.7015 55.7997 99.774 55.7537C99.8551 55.6992 99.9157 55.6197 99.9469 55.5273L100.038 55.2842L99.0136 52.3211H99.8551L100.398 54.1594V54.1586ZM57.9982 60.5179C57.9671 60.9452 57.8107 61.2818 57.5273 61.5283C57.2463 61.7737 56.875 61.8966 56.4127 61.8966C55.9082 61.8966 55.5103 61.7249 55.2195 61.3827C54.9311 61.0387 54.7874 60.5678 54.7874 59.9688V59.7257C54.7874 59.3427 54.8541 59.0061 54.9876 58.7154C55.121 58.4235 55.3109 58.2003 55.5579 58.0456C55.8181 57.8858 56.1187 57.8047 56.4238 57.811C56.8782 57.811 57.2446 57.9334 57.5222 58.1799C57.8005 58.4258 57.9603 58.7698 58.0039 59.2146H57.1919C57.172 58.9573 57.1012 58.7726 56.9782 58.657C56.8576 58.5414 56.6725 58.4825 56.4238 58.4825C56.1537 58.4825 55.9504 58.5811 55.8153 58.7777C55.6819 58.9726 55.6127 59.2752 55.6088 59.6866V59.9875C55.6088 60.4165 55.6739 60.7316 55.8018 60.9299C55.9313 61.1288 56.1355 61.2268 56.4135 61.2268C56.6637 61.2268 56.8504 61.1696 56.9726 61.0557C57.0972 60.939 57.1692 60.7593 57.1873 60.5179H57.9982ZM58.3025 60.3372C58.3025 60.0436 58.3581 59.783 58.4703 59.5535C58.5825 59.324 58.7428 59.1466 58.9525 59.0208C59.1746 58.8922 59.4285 58.827 59.6858 58.8321C60.0802 58.8321 60.402 58.9545 60.6508 59.1982C60.9018 59.4418 61.0418 59.7733 61.0701 60.1921L61.0758 60.3944C61.0758 60.8472 60.95 61.2121 60.7001 61.4869C60.4491 61.7601 60.1125 61.8966 59.6914 61.8966C59.2687 61.8966 58.931 61.7601 58.6794 61.4869C58.4283 61.2138 58.3025 60.8426 58.3025 60.3723V60.3372ZM59.084 60.3944C59.084 60.6749 59.1367 60.8897 59.2415 61.0387C59.3463 61.1866 59.4959 61.2603 59.6903 61.2603C59.777 61.2637 59.8626 61.2455 59.9402 61.2076C60.0178 61.1696 60.0847 61.1124 60.1346 61.0421C60.2411 60.8942 60.2932 60.659 60.2932 60.3372C60.2932 60.0623 60.2411 59.8487 60.1346 59.698C60.0853 59.6249 60.0178 59.5659 59.9391 59.5263C59.8609 59.4872 59.7736 59.4679 59.6858 59.4713C59.5985 59.4679 59.5118 59.4866 59.4342 59.5263C59.356 59.5659 59.2897 59.6254 59.2415 59.698C59.1367 59.847 59.084 60.0793 59.084 60.3944ZM62.2346 58.8865L62.2596 59.2174C62.467 58.9607 62.7475 58.8321 63.1016 58.8321C63.4779 58.8321 63.7369 58.9828 63.8774 59.2832C64.0825 58.9823 64.3755 58.8321 64.7569 58.8321C65.0742 58.8321 65.3099 58.9256 65.4658 59.1132C65.6205 59.299 65.6981 59.5795 65.6981 59.9552V61.8417H64.9133V59.9575C64.9133 59.7898 64.8815 59.6679 64.8158 59.592C64.7512 59.5127 64.6373 59.4736 64.4724 59.4736C64.2384 59.4736 64.0752 59.5869 63.9856 59.813L63.9879 61.8417H63.2065V59.9598C63.2065 59.7892 63.173 59.6651 63.1062 59.5892C63.0393 59.5121 62.926 59.4736 62.7645 59.4736C62.544 59.4736 62.3831 59.5665 62.2839 59.7518V61.8411H61.5014V58.8865H62.2346ZM68.8816 60.3916C68.8816 60.8466 68.7785 61.2121 68.5722 61.4869C68.4787 61.6178 68.3546 61.7238 68.2101 61.7958C68.0656 61.8672 67.9058 61.9017 67.7449 61.8966C67.4491 61.8966 67.21 61.7935 67.0281 61.5855V62.9778H66.2455V58.8865H66.9708L66.998 59.1766C67.1873 58.9466 67.4349 58.8321 67.7392 58.8321C68.0996 58.8321 68.3801 58.967 68.5813 59.2373C68.7808 59.5059 68.8816 59.8776 68.8816 60.3508V60.3916ZM68.0991 60.3343C68.0991 60.0595 68.0503 59.847 67.9529 59.6985C67.9092 59.6271 67.8475 59.5682 67.7738 59.5291C67.7001 59.4894 67.6168 59.4702 67.5335 59.4736C67.2887 59.4736 67.1204 59.5693 67.0281 59.758V60.9679C67.1233 61.1628 67.2933 61.2603 67.5392 61.2603C67.9121 61.2603 68.0991 60.9514 68.0991 60.3343ZM71.0089 61.8417C70.9732 61.7703 70.9471 61.683 70.9301 61.5765C70.7414 61.7901 70.4949 61.8966 70.1912 61.8966C69.9056 61.8966 69.667 61.8128 69.4772 61.645C69.3865 61.5668 69.3146 61.4694 69.2658 61.36C69.2171 61.2501 69.1933 61.1316 69.1961 61.0115C69.1961 60.6987 69.3106 60.4579 69.5401 60.2907C69.7702 60.1235 70.1039 60.0385 70.5386 60.0363H70.8978V59.8668C70.9035 59.749 70.8661 59.6322 70.7919 59.5399C70.7239 59.4577 70.6151 59.4169 70.4649 59.4169C70.3533 59.4101 70.2428 59.4441 70.1544 59.5121C70.117 59.5444 70.0881 59.5852 70.0688 59.6305C70.0495 59.6759 70.0405 59.7246 70.0427 59.7739H69.2613C69.2613 59.6033 69.3134 59.4452 69.4177 59.299C69.5225 59.154 69.6704 59.0401 69.862 58.9573C70.0654 58.8712 70.2841 58.8287 70.5051 58.8321C70.8667 58.8321 71.1528 58.9239 71.3631 59.1086C71.5761 59.2905 71.6827 59.5467 71.6827 59.8787V61.1588C71.6844 61.4393 71.7229 61.6513 71.7983 61.7952V61.8417H71.0089ZM70.3623 61.2931C70.4774 61.2931 70.5845 61.2676 70.6814 61.2166C70.7732 61.1696 70.848 61.0965 70.8978 61.0064V60.4975H70.6054C70.2144 60.4975 70.0065 60.6347 69.981 60.9078L69.9776 60.9548C69.9764 61.0002 69.9849 61.0455 70.0031 61.0874C70.0206 61.1294 70.0473 61.1668 70.0813 61.1979C70.1493 61.2614 70.2433 61.2931 70.3623 61.2931ZM72.9475 58.8865L72.9718 59.2282C73.1809 58.9647 73.4614 58.8321 73.8133 58.8321C74.1227 58.8321 74.3539 58.9239 74.5058 59.1086C74.6565 59.2917 74.7347 59.5665 74.7387 59.9331V61.8417H73.9567V59.9513C73.9567 59.7847 73.9204 59.664 73.8479 59.5892C73.7765 59.5121 73.6564 59.4736 73.4881 59.4736C73.3872 59.4702 73.2875 59.4945 73.1996 59.545C73.1124 59.5954 73.041 59.6691 72.9934 59.758V61.8417H72.2114V58.8865H72.9475ZM76.1027 61.8417H75.3184V58.8865H76.1032V61.8417H76.1027ZM75.2725 58.1215C75.2725 58.0042 75.3122 57.9067 75.3892 57.8302C75.4323 57.7906 75.4833 57.7605 75.5383 57.7407C75.5938 57.7209 75.6522 57.7124 75.7111 57.7152C75.8443 57.7152 75.9508 57.7532 76.0301 57.8302C76.1095 57.9067 76.1491 58.0042 76.1491 58.1226C76.1491 58.2416 76.1089 58.3408 76.0279 58.4167C75.9854 58.4558 75.9355 58.4859 75.8811 58.5057C75.8267 58.5255 75.7689 58.5346 75.7111 58.5318C75.5938 58.5369 75.4788 58.4961 75.3915 58.4173C75.3518 58.3793 75.3212 58.3329 75.3003 58.2824C75.2799 58.2314 75.2702 58.1765 75.2725 58.1215ZM78.0418 61.8966C77.6128 61.8966 77.2632 61.7635 76.9923 61.4977C76.7232 61.2319 76.5889 60.8783 76.5889 60.4352V60.3587C76.5889 60.0623 76.6461 59.7971 76.7594 59.5642C76.8733 59.3291 77.0337 59.1489 77.2411 59.0236C77.4496 58.8961 77.6882 58.8327 77.9557 58.8327C78.3552 58.8327 78.6708 58.9596 78.8997 59.214C79.1298 59.4696 79.246 59.8306 79.246 60.2992V60.6211H77.3816C77.3986 60.7984 77.4797 60.9633 77.6089 61.0857C77.7375 61.2019 77.8984 61.2603 78.0934 61.2603C78.3954 61.2603 78.6294 61.1498 78.7994 60.9299L79.1831 61.364C79.0663 61.5311 78.9077 61.6626 78.7071 61.7567C78.4985 61.8519 78.2713 61.8995 78.0418 61.8966ZM77.9528 59.4713C77.882 59.469 77.8112 59.4821 77.746 59.5093C77.6803 59.537 77.6219 59.5778 77.5737 59.6305C77.4785 59.7354 77.4173 59.8861 77.3896 60.0833H78.4776V60.0198C78.4736 59.8447 78.4271 59.7104 78.3365 59.6158C78.2464 59.52 78.1189 59.4713 77.9528 59.4713ZM81.2225 61.0251C81.2225 60.9293 81.1749 60.8528 81.0786 60.799C80.9851 60.7423 80.8332 60.6925 80.6241 60.6477C79.9282 60.5009 79.5797 60.2023 79.5797 59.7529C79.5797 59.4906 79.6868 59.2718 79.9022 59.0973C80.1181 58.9211 80.4003 58.8321 80.7482 58.8321C81.1199 58.8321 81.4169 58.9199 81.6384 59.0973C81.8628 59.2735 81.9739 59.5025 81.9739 59.7852H81.1925C81.1942 59.7342 81.1851 59.6832 81.1664 59.6351C81.1483 59.5875 81.1199 59.5438 81.0842 59.507C81.0117 59.4328 80.8989 59.3954 80.7459 59.3954C80.6145 59.3954 80.5125 59.4248 80.4399 59.4849C80.4054 59.5121 80.3776 59.5472 80.3589 59.5869C80.3402 59.6271 80.3311 59.6708 80.3317 59.7144C80.3317 59.8017 80.3725 59.8736 80.4535 59.9275C80.5368 59.9796 80.6757 60.0266 80.8706 60.0663C81.065 60.1048 81.2293 60.1485 81.363 60.1978C81.7761 60.3508 81.9824 60.6154 81.9824 60.9917C81.9824 61.262 81.8674 61.4807 81.6384 61.6479C81.4101 61.8133 81.1143 61.8966 80.751 61.8966C80.5261 61.9006 80.3028 61.8564 80.0965 61.7657C79.9186 61.6858 79.7645 61.56 79.65 61.4019C79.5452 61.2563 79.4885 61.0818 79.4885 60.9021H80.2291C80.2291 60.9639 80.2433 61.0251 80.2699 61.0812C80.2966 61.1367 80.3351 61.186 80.3833 61.2246C80.479 61.2994 80.6065 61.3356 80.7675 61.3356C80.9171 61.3356 81.0293 61.3079 81.1058 61.2518C81.142 61.2263 81.1721 61.1923 81.1925 61.1532C81.2129 61.1135 81.2231 61.0699 81.2225 61.0251Z" fill="white"/>
<g opacity="0.3">
<path d="M48.5642 42.9472V40.8683H49.3539C49.6152 40.8683 49.813 40.9159 49.9497 41.0097C50.0855 41.1034 50.1538 41.244 50.1538 41.4307C50.1538 41.526 50.1252 41.6118 50.068 41.6881C50.0033 41.7699 49.9164 41.8314 49.8178 41.8653C49.9425 41.8954 50.0386 41.9526 50.1062 42.0376C50.1744 42.1218 50.2094 42.2227 50.2094 42.3403C50.2094 42.5357 50.1395 42.6858 50.0005 42.7907C49.8615 42.8948 49.6637 42.9472 49.4047 42.9472H48.5642ZM48.9646 42.0098V42.6588H49.4094C49.5142 42.665 49.6178 42.6353 49.7034 42.5746C49.7385 42.5468 49.7664 42.5111 49.7849 42.4703C49.8035 42.4295 49.812 42.385 49.8099 42.3403C49.8099 42.1242 49.6875 42.0146 49.4428 42.009H48.9646V42.0098ZM48.9646 41.7437H49.357C49.4597 41.7498 49.5618 41.7234 49.6486 41.6682C49.6832 41.6438 49.711 41.611 49.7296 41.573C49.7482 41.5349 49.7569 41.4928 49.7551 41.4506C49.7551 41.3473 49.7217 41.2734 49.6565 41.2281C49.5922 41.1821 49.4913 41.1598 49.3547 41.1598H48.9654V41.7437H48.9646ZM52.0977 42.9472H50.5486V42.7089L51.316 41.9542C51.4272 41.8422 51.5051 41.7493 51.552 41.6754C51.5996 41.5999 51.6235 41.5245 51.6235 41.4498C51.6253 41.4053 51.618 41.361 51.6019 41.3196C51.5857 41.2781 51.5611 41.2405 51.5297 41.2091C51.4966 41.1778 51.4575 41.1536 51.4147 41.1379C51.372 41.1222 51.3265 41.1153 51.281 41.1177C51.2283 41.1145 51.1754 41.1219 51.1255 41.1397C51.0757 41.1574 51.0299 41.1851 50.9911 41.221C50.9557 41.2584 50.9283 41.3026 50.9106 41.351C50.8928 41.3993 50.8851 41.4508 50.8878 41.5022H50.5033C50.5033 41.3751 50.5351 41.2615 50.5987 41.1606C50.6653 41.057 50.7605 40.9747 50.8728 40.9239C50.9919 40.8683 51.1285 40.8397 51.2842 40.8397C51.5075 40.8397 51.6838 40.8905 51.8125 40.9922C51.8764 41.0414 51.9276 41.1053 51.9616 41.1784C51.9956 41.2516 52.0115 41.3319 52.008 41.4124C52.008 41.5157 51.9746 41.6253 51.9094 41.7389C51.8214 41.8819 51.7145 42.0122 51.5917 42.1266L51.0276 42.6708H52.0977V42.9472ZM52.4528 42.9472V40.8683H53.2424C53.503 40.8683 53.7016 40.9159 53.8382 41.0097C53.9733 41.1034 54.0416 41.244 54.0416 41.4307C54.0416 41.526 54.013 41.6118 53.9566 41.6881C53.8918 41.7699 53.805 41.8314 53.7063 41.8653C53.831 41.8954 53.9272 41.9526 53.9947 42.0376C54.063 42.1218 54.098 42.2227 54.098 42.3403C54.098 42.5357 54.0273 42.6858 53.8883 42.7907C53.7501 42.8948 53.5514 42.9472 53.2925 42.9472H52.4528ZM52.8531 42.0098V42.6588H53.298C53.4027 42.665 53.5064 42.6353 53.592 42.5746C53.627 42.5468 53.655 42.5111 53.6734 42.4703C53.692 42.4295 53.7005 42.385 53.6984 42.3403C53.6984 42.1242 53.576 42.0146 53.3314 42.009H52.8531V42.0098ZM52.8531 41.7437H53.2456C53.3483 41.7498 53.4503 41.7234 53.5371 41.6682C53.5716 41.6437 53.5993 41.6109 53.6177 41.5729C53.6362 41.5348 53.6448 41.4928 53.6428 41.4506C53.6428 41.3473 53.6102 41.2734 53.5451 41.2281C53.4807 41.1821 53.3799 41.1598 53.2424 41.1598H52.8531V41.7437ZM56.1523 42.1464H55.7059V42.9472H55.3054V40.8683H56.1157C56.3818 40.8683 56.5868 40.9223 56.7314 41.0295C56.876 41.1368 56.9485 41.2925 56.9485 41.4966C56.9525 41.6226 56.9128 41.7461 56.8362 41.8462C56.7546 41.9452 56.6475 42.0199 56.5264 42.0622L57.0426 42.9289V42.9472H56.6138L56.1523 42.1464ZM55.7059 41.8565H56.1173C56.2523 41.8565 56.358 41.8263 56.4343 41.7651C56.4716 41.7348 56.5013 41.6962 56.5211 41.6523C56.5408 41.6084 56.55 41.5606 56.5479 41.5125C56.5509 41.4642 56.5429 41.4158 56.5246 41.371C56.5063 41.3262 56.4782 41.286 56.4422 41.2535C56.3723 41.1932 56.2675 41.1614 56.1284 41.1598H55.7059V41.8565ZM58.0456 42.9758C57.8013 42.9758 57.6036 42.9067 57.4517 42.7693C57.301 42.6303 57.2256 42.4451 57.2256 42.2148V42.1719C57.2256 42.0177 57.2579 41.8803 57.3242 41.7588C57.3877 41.6398 57.4846 41.5414 57.6019 41.4752C57.7237 41.4069 57.8614 41.3718 58.0008 41.3735C58.2343 41.3735 58.4139 41.441 58.5408 41.5753C58.6683 41.7095 58.7324 41.8994 58.7324 42.1448V42.2847H57.6132C57.6194 42.4001 57.6699 42.5086 57.7543 42.5874C57.8382 42.662 57.9419 42.6985 58.0677 42.6985C58.2439 42.6985 58.3878 42.635 58.4983 42.5063L58.7057 42.685C58.6343 42.7795 58.5391 42.8536 58.4303 42.9003C58.3091 42.9523 58.1776 42.978 58.0456 42.9758ZM57.9991 41.6524C57.9521 41.6505 57.905 41.6585 57.8608 41.6757C57.8166 41.6929 57.777 41.7191 57.7435 41.7524C57.6738 41.8298 57.6308 41.9271 57.6194 42.0305H58.3527V42.0051C58.3516 41.9079 58.3147 41.8146 58.2496 41.7429C58.2161 41.7117 58.1765 41.6875 58.1334 41.672C58.0909 41.6564 58.045 41.6498 57.9991 41.6524ZM59.9932 42.5277C59.9938 42.4985 59.9858 42.4696 59.9711 42.4446C59.9558 42.4195 59.9337 42.3993 59.9076 42.3864C59.8187 42.3435 59.724 42.3146 59.6271 42.3006C59.5149 42.2811 59.405 42.2494 59.2996 42.206C59.1075 42.1226 59.0112 42.0011 59.0112 41.8422C59.0112 41.7087 59.0735 41.5975 59.1982 41.5085C59.3228 41.4188 59.4809 41.3735 59.673 41.3735C59.8782 41.3735 60.0431 41.4196 60.1689 41.5109C60.2278 41.5496 60.276 41.6023 60.3088 41.6643C60.3423 41.7264 60.3593 41.7957 60.3587 41.866H59.9739C59.9745 41.8339 59.9671 41.8022 59.9524 41.7735C59.9382 41.7448 59.9173 41.7198 59.8918 41.7008C59.8289 41.6534 59.7512 41.6295 59.673 41.6333C59.5999 41.6303 59.528 41.6488 59.4656 41.6865C59.4413 41.7011 59.4209 41.7218 59.4073 41.7466C59.3931 41.7714 59.3857 41.7995 59.3863 41.8279C59.3863 41.8811 59.4107 41.9232 59.4611 41.9518C59.5104 41.9812 59.6113 42.0114 59.762 42.0424C59.9127 42.0718 60.0306 42.1075 60.1162 42.1488C60.2029 42.1901 60.2675 42.2394 60.3077 42.2974C60.336 42.3416 60.3553 42.3912 60.3644 42.443C60.3734 42.4949 60.3717 42.548 60.3598 42.5993C60.3479 42.6505 60.3258 42.6989 60.2952 42.7415C60.2641 42.784 60.225 42.82 60.1796 42.8471C60.0521 42.9329 59.8844 42.9758 59.6776 42.9758C59.5495 42.9781 59.422 42.9548 59.303 42.9075C59.2021 42.8686 59.1137 42.8036 59.0463 42.7192C58.9874 42.6458 58.9545 42.5545 58.9539 42.4603H59.3274C59.333 42.5421 59.367 42.6056 59.4305 42.6509C59.4945 42.6946 59.5778 42.716 59.6827 42.716C59.7626 42.7209 59.8425 42.703 59.9127 42.6644C59.966 42.6295 59.9932 42.5842 59.9932 42.5277ZM61.462 42.9758C61.2183 42.9758 61.0206 42.9067 60.8687 42.7693C60.7174 42.6303 60.642 42.4451 60.642 42.2148V42.1719C60.642 42.0177 60.6738 41.8803 60.7401 41.7588C60.8035 41.6398 60.9004 41.5414 61.0177 41.4752C61.1401 41.4067 61.2778 41.3716 61.4172 41.3735C61.6513 41.3735 61.8303 41.441 61.9578 41.5753C62.0848 41.7095 62.1482 41.8994 62.1482 42.1448V42.2847H61.0296C61.0359 42.4 61.0863 42.5085 61.1707 42.5874C61.254 42.662 61.3589 42.6985 61.4841 42.6985C61.6603 42.6985 61.8037 42.635 61.9148 42.5063L62.1216 42.685C62.0502 42.7795 61.955 42.8537 61.8468 42.9003C61.7249 42.9522 61.594 42.9779 61.462 42.9758ZM61.4161 41.6524C61.3685 41.6504 61.3215 41.6583 61.2773 41.6755C61.2331 41.6928 61.1928 41.7189 61.1594 41.7524C61.0903 41.8299 61.0472 41.9272 61.0364 42.0305H61.7697V42.0051C61.7686 41.9079 61.7317 41.8146 61.666 41.7429C61.6326 41.7117 61.5935 41.6875 61.5504 41.672C61.5073 41.6564 61.4614 41.6498 61.4161 41.6524ZM63.4725 42.9472C63.4504 42.9018 63.4357 42.8533 63.4283 42.8034C63.3071 42.918 63.145 42.98 62.9784 42.9758C62.8271 42.9825 62.6781 42.9355 62.5574 42.8431C62.5064 42.8049 62.4656 42.7553 62.4372 42.6984C62.4089 42.6414 62.3942 42.5786 62.3947 42.5151C62.3947 42.3498 62.4622 42.2235 62.597 42.1361C62.733 42.0479 62.9274 42.0035 63.1796 42.0035H63.4153V41.9018C63.4153 41.8224 63.3909 41.7588 63.3405 41.7111C63.2918 41.6619 63.2158 41.638 63.1144 41.638C63.0271 41.638 62.9557 41.6579 62.8996 41.6976C62.8741 41.7134 62.8526 41.7357 62.8379 41.7621C62.8231 41.7885 62.8158 41.8183 62.8158 41.8485H62.431C62.431 41.7627 62.4622 41.6841 62.5239 41.6103C62.5925 41.5318 62.6798 41.4719 62.7772 41.4363C62.8849 41.395 63.0045 41.3735 63.1365 41.3735C63.3377 41.3735 63.4975 41.4196 63.6165 41.5109C63.7355 41.6015 63.7967 41.7286 63.8001 41.8938V42.5905C63.795 42.7051 63.8171 42.8192 63.8652 42.9234V42.9472H63.4725ZM63.0498 42.6977C63.124 42.6981 63.1971 42.681 63.2634 42.6477C63.3263 42.6185 63.379 42.5715 63.4153 42.5127V42.2219H63.2079C63.0651 42.2219 62.9586 42.2442 62.8866 42.2895C62.8532 42.3084 62.8254 42.3361 62.8067 42.3695C62.7874 42.403 62.7784 42.4409 62.7789 42.4793C62.7789 42.546 62.8027 42.5985 62.852 42.639C62.9013 42.6787 62.9676 42.6977 63.0498 42.6977ZM65.1006 41.7191C65.0484 41.7115 64.9957 41.7077 64.943 41.7079C64.7668 41.7079 64.6484 41.7691 64.5872 41.8906V42.9472H64.2024V41.4021H64.5696L64.5792 41.5753C64.6206 41.5113 64.6784 41.4591 64.7458 41.4238C64.8133 41.3885 64.8892 41.3711 64.9651 41.3735C65.0207 41.3735 65.0654 41.3806 65.1017 41.3934L65.1006 41.7191ZM66.0146 42.6993C66.1109 42.6993 66.1908 42.6739 66.2537 42.6231C66.2832 42.6014 66.3076 42.5734 66.3257 42.5411C66.3433 42.5088 66.3535 42.4731 66.3557 42.4364H66.7178C66.7127 42.5345 66.6782 42.6287 66.6187 42.7065C66.5518 42.7927 66.4645 42.8604 66.3642 42.9035C66.256 42.9522 66.1381 42.9769 66.0197 42.9758C65.7806 42.9758 65.5907 42.9059 65.4496 42.7661C65.3091 42.6263 65.2394 42.4324 65.2394 42.1862V42.1504C65.2394 41.9153 65.3091 41.727 65.4485 41.5864C65.5873 41.445 65.7772 41.3735 66.018 41.3735C66.222 41.3735 66.3875 41.4275 66.515 41.5348C66.5779 41.5857 66.6283 41.6499 66.6634 41.7226C66.6986 41.7954 66.7173 41.8751 66.7178 41.9558H66.3557C66.354 41.9145 66.345 41.8739 66.3274 41.8364C66.3098 41.799 66.2849 41.7655 66.2537 41.7381C66.1886 41.6799 66.103 41.6492 66.0157 41.6524C65.9613 41.6491 65.9069 41.6585 65.8571 41.6797C65.8072 41.701 65.7624 41.7334 65.7273 41.7747C65.6593 41.8557 65.6247 41.9788 65.6236 42.1448V42.2005C65.6236 42.3681 65.657 42.4936 65.7239 42.5762C65.7913 42.658 65.8882 42.6993 66.0146 42.6993ZM67.3876 41.5705C67.4483 41.5059 67.5225 41.455 67.6047 41.421C67.6868 41.3871 67.7752 41.3709 67.8642 41.3735C68.2297 41.3735 68.4144 41.5618 68.4201 41.9375V42.9472H68.0348V41.951C68.0348 41.8438 68.0093 41.7683 67.9577 41.7246C67.9067 41.6801 67.8325 41.6579 67.7327 41.6579C67.6636 41.6543 67.595 41.6698 67.5344 41.7025C67.4732 41.7353 67.4222 41.7842 67.3876 41.8438V42.948H67.0029V40.7539H67.3876V41.5705ZM69.5563 42.3864C69.5563 42.2903 69.5857 42.2021 69.6435 42.1218C69.7013 42.0408 69.8158 41.9455 69.9875 41.835C69.9138 41.7565 69.8504 41.6692 69.7982 41.5753C69.7654 41.511 69.7478 41.4401 69.7467 41.3679C69.7467 41.2051 69.8016 41.0764 69.911 40.9827C70.0209 40.8874 70.1683 40.8397 70.3547 40.8397C70.5219 40.8397 70.6596 40.8842 70.7661 40.9739C70.8494 41.0404 70.9049 41.1359 70.9214 41.2414C70.9378 41.3469 70.914 41.4547 70.8551 41.5435C70.7899 41.6308 70.7089 41.7045 70.6159 41.7604L70.4584 41.8637L70.9032 42.3379C70.9684 42.2215 71.0018 42.09 71.0001 41.9566H71.3339C71.3339 42.2124 71.2682 42.4221 71.1356 42.5866L71.4739 42.9472H71.0273L70.897 42.809C70.7327 42.9202 70.5366 42.9758 70.3082 42.9758C70.0804 42.9758 69.8974 42.9218 69.7603 42.8129C69.6951 42.7629 69.6424 42.6982 69.6073 42.6241C69.5716 42.55 69.554 42.4685 69.5563 42.3864ZM70.3196 42.6993C70.4499 42.6989 70.5774 42.6578 70.6834 42.5818L70.1807 42.0464L70.1314 42.0781C70.0039 42.1647 69.9405 42.2632 69.9405 42.3745C69.9405 42.4714 69.9756 42.5492 70.0436 42.6088C70.1212 42.6721 70.2193 42.7044 70.3196 42.6993ZM70.1076 41.3592C70.1076 41.4387 70.1615 41.5395 70.2703 41.6611L70.4459 41.5522L70.4952 41.5165C70.5264 41.4932 70.5513 41.4628 70.5683 41.4278C70.5853 41.3929 70.5944 41.3544 70.5933 41.3155C70.5938 41.2887 70.5876 41.2622 70.5757 41.238C70.5638 41.2139 70.5468 41.1928 70.5253 41.1765C70.4771 41.1364 70.4153 41.1154 70.353 41.1177C70.3201 41.1162 70.2873 41.1216 70.2561 41.1335C70.2255 41.1454 70.1977 41.1635 70.1739 41.1868C70.1518 41.2097 70.1348 41.2367 70.1235 41.2663C70.1122 41.2959 70.1065 41.3275 70.1076 41.3592ZM73.3824 42.1464H72.9364V42.9472H72.5358V40.8683H73.3461C73.6125 40.8683 73.8182 40.9223 73.9627 41.0295C74.1072 41.1368 74.1797 41.2925 74.1797 41.4966C74.1837 41.6227 74.1434 41.7463 74.0664 41.8462C73.9853 41.9452 73.8777 42.02 73.757 42.0622L74.2738 42.9289V42.9472H73.8448L73.3824 42.1464ZM72.9364 41.8565H73.3478C73.4827 41.8565 73.5887 41.8263 73.6646 41.7651C73.702 41.7349 73.732 41.6963 73.7519 41.6524C73.7717 41.6086 73.7808 41.5606 73.7791 41.5125C73.7819 41.4642 73.774 41.4158 73.7553 41.3709C73.7371 41.3261 73.7088 41.286 73.6725 41.2535C73.6028 41.1932 73.498 41.1614 73.3586 41.1598H72.9364V41.8565ZM75.2768 42.9758C75.0325 42.9758 74.8348 42.9067 74.6823 42.7693C74.5316 42.6303 74.4557 42.4451 74.4557 42.2148V42.1719C74.4557 42.0177 74.4891 41.8803 74.5543 41.7588C74.6183 41.6397 74.7146 41.5413 74.8325 41.4752C74.9543 41.4067 75.092 41.3716 75.232 41.3735C75.4649 41.3735 75.6451 41.441 75.772 41.5753C75.8995 41.7095 75.963 41.8994 75.963 42.1448V42.2847H74.8444C74.8501 42.4 74.9005 42.5085 74.9849 42.5874C75.0682 42.662 75.1731 42.6985 75.2989 42.6985C75.4751 42.6985 75.6179 42.635 75.7295 42.5063L75.9358 42.685C75.8644 42.7795 75.7698 42.8537 75.661 42.9003C75.5397 42.9522 75.4088 42.978 75.2768 42.9758ZM75.2303 41.6524C75.1833 41.6504 75.1357 41.6584 75.0915 41.6756C75.0473 41.6928 75.0076 41.719 74.9736 41.7524C74.9045 41.8299 74.8614 41.9272 74.8506 42.0305H75.5833V42.0051C75.5822 41.9079 75.5454 41.8146 75.4796 41.7429C75.4468 41.7118 75.4071 41.6878 75.3646 41.6722C75.3215 41.6567 75.2762 41.6499 75.2303 41.6524ZM76.8447 42.5079L77.2074 41.4021H77.6046L77.0113 42.9472H76.6776L76.0786 41.4021H76.4775L76.8447 42.5079ZM78.2557 42.9472H77.871V41.4021H78.2557V42.9472ZM77.8472 41.0009C77.8472 40.9477 77.8653 40.9032 77.9027 40.8683C77.9475 40.8305 78.0053 40.8114 78.0642 40.8151C78.1339 40.8151 78.1877 40.8325 78.2251 40.8683C78.2637 40.9032 78.2824 40.9477 78.2824 41.0009C78.2829 41.0256 78.2778 41.0501 78.2682 41.0727C78.2586 41.0953 78.2438 41.1156 78.2251 41.132C78.1798 41.1689 78.1226 41.1873 78.0642 41.1837C78.0058 41.1873 77.948 41.1689 77.9027 41.132C77.8846 41.1153 77.8704 41.095 77.8608 41.0724C77.8511 41.0498 77.8466 41.0255 77.8472 41.0009ZM79.4304 42.9758C79.1868 42.9758 78.9884 42.9067 78.8371 42.7693C78.6858 42.6303 78.6105 42.4451 78.6105 42.2148V42.1719C78.6105 42.0177 78.6422 41.8803 78.7085 41.7588C78.7725 41.6397 78.8689 41.5413 78.9873 41.4752C79.1086 41.4069 79.2463 41.3718 79.3857 41.3735C79.6197 41.3735 79.7988 41.441 79.9263 41.5753C80.0532 41.7095 80.1167 41.8994 80.1167 42.1448V42.2847H78.9981C79.0043 42.4 79.0547 42.5085 79.1386 42.5874C79.2225 42.662 79.3273 42.6985 79.4525 42.6985C79.6288 42.6985 79.7721 42.635 79.8832 42.5063L80.0906 42.685C80.0186 42.7796 79.924 42.8537 79.8146 42.9003C79.6934 42.9522 79.5625 42.9779 79.4304 42.9758ZM79.3845 41.6524C79.3369 41.6504 79.2899 41.6584 79.2457 41.6756C79.2015 41.6928 79.1613 41.719 79.1278 41.7524C79.0587 41.8299 79.0156 41.9272 79.0043 42.0305H79.7376V42.0051C79.737 41.9079 79.7002 41.8146 79.6344 41.7429C79.601 41.7117 79.5619 41.6876 79.5188 41.6721C79.4758 41.6565 79.4299 41.6498 79.3845 41.6524ZM81.9226 42.4698L82.1946 41.4021H82.5698L82.1028 42.9472H81.7855L81.4189 41.8867L81.0579 42.9472H80.7411L80.2725 41.4021H80.6476L80.9253 42.4579L81.2766 41.4021H81.5656L81.9226 42.4698ZM84.9996 42.0662H84.072V42.948H83.6714V40.8683H85.1356V41.1598H84.0714V41.7779H84.9996V42.0662ZM85.8258 42.9472H85.4416V41.4021H85.8258V42.9472ZM85.4178 41.0009C85.4178 40.9477 85.436 40.9032 85.4734 40.8683C85.5108 40.8325 85.5646 40.8151 85.6343 40.8151C85.7046 40.8151 85.7584 40.8325 85.7958 40.8683C85.8338 40.9032 85.853 40.9477 85.853 41.0009C85.8536 41.0256 85.8485 41.0501 85.8389 41.0727C85.8287 41.0953 85.8145 41.1156 85.7958 41.132C85.7505 41.1689 85.6927 41.1873 85.6343 41.1837C85.5765 41.1873 85.5187 41.1689 85.4734 41.132C85.4552 41.1153 85.4411 41.095 85.4314 41.0724C85.4218 41.0498 85.4173 41.0255 85.4178 41.0009ZM87.1433 41.7191C87.0912 41.7115 87.0391 41.7077 86.9864 41.7079C86.8101 41.7079 86.6917 41.7691 86.6305 41.8906V42.9472H86.2457V41.4021H86.6135L86.6226 41.5753C86.6645 41.5114 86.7217 41.4592 86.7892 41.4239C86.8572 41.3886 86.9325 41.3712 87.009 41.3735C87.0634 41.3735 87.1088 41.3806 87.1445 41.3934L87.1433 41.7191ZM87.7485 41.4021L87.7593 41.5634C87.8794 41.4363 88.0438 41.3735 88.2529 41.3735C88.4824 41.3735 88.6388 41.4529 88.7232 41.611C88.8479 41.4522 89.0224 41.3735 89.2491 41.3735C89.4372 41.3735 89.5777 41.4212 89.6701 41.5149C89.763 41.6095 89.8101 41.7485 89.8129 41.932V42.9472H89.4276V41.9423C89.4276 41.8438 89.4038 41.7723 89.3562 41.7262C89.3086 41.6809 89.2309 41.6579 89.1204 41.6579C89.0332 41.6579 88.9612 41.6793 88.9057 41.7214C88.8507 41.7635 88.8099 41.8219 88.7901 41.8883L88.7918 42.9472H88.407V41.9304C88.4013 41.7485 88.2982 41.6579 88.097 41.6579C87.944 41.6579 87.8352 41.7143 87.7701 41.8279V42.948H87.3853V41.4021H87.7485Z" fill="black"/>
</g>
<path d="M48.8274 32.6986H45.5863L45.1756 33.7623H47.6462V35.6871C47.1163 36.2186 46.2719 36.4069 45.5371 36.4069C43.8379 36.4069 42.597 34.7069 42.597 33.3373C42.597 31.4474 44.0793 30.0541 45.7547 30.0541C46.7303 30.0541 47.3816 30.4322 48.0203 30.8922L48.7194 30.1018C47.9838 29.3693 46.8391 28.9912 45.7063 28.9912C43.2476 28.9912 41.4158 30.9637 41.4158 33.3365C41.4158 35.51 43.3684 37.4698 45.5736 37.4698C47.0194 37.4698 48.2976 36.9264 48.8274 36.2893V32.6986ZM53.4397 31.117C51.6316 31.117 50.1255 32.4992 50.1255 34.2938C50.1255 36.0883 51.6316 37.4698 53.4397 37.4698C55.2469 37.4698 56.7658 36.0883 56.7658 34.2938C56.7658 32.4984 55.2469 31.1162 53.4397 31.1162V31.117ZM55.6084 34.2938C55.6084 35.4504 54.6567 36.4069 53.4397 36.4069C52.2346 36.4069 51.2821 35.4504 51.2821 34.2938C51.2821 33.1363 52.2346 32.1799 53.4397 32.1799C54.6567 32.1799 55.6084 33.1363 55.6084 34.293V34.2938ZM60.807 31.117C58.9994 31.117 57.4926 32.4992 57.4926 34.2938C57.4926 36.0883 58.9994 37.4698 60.807 37.4698C62.6147 37.4698 64.1328 36.0883 64.1328 34.2938C64.1328 32.4984 62.6147 31.1162 60.807 31.1162V31.117ZM62.9757 34.2938C62.9757 35.4504 62.0237 36.4069 60.807 36.4069C59.6017 36.4069 58.6503 35.4504 58.6503 34.2938C58.6503 33.1363 59.6017 32.1799 60.807 32.1799C62.0237 32.1799 62.9757 33.1363 62.9757 34.293V34.2938ZM70.199 37.4229L71.2841 37.2807V28.9316L70.1264 29.1215V31.9789C69.5847 31.4943 68.8135 31.117 67.9816 31.117C66.2459 31.117 64.8361 32.4516 64.8598 34.2819C64.8836 35.9469 66.2221 37.4698 67.9816 37.4698C68.886 37.4698 69.6204 37.1155 70.199 36.4664V37.4229ZM70.2715 34.3049C70.2715 35.5918 69.3314 36.4069 68.0785 36.4069C66.9571 36.4069 66.0175 35.4035 66.0175 34.3049C66.0175 33.1832 66.8726 32.1799 68.0303 32.1799C69.2832 32.1799 70.2715 33.018 70.2715 34.3049ZM73.8545 37.2807V33.5971H76.3859V32.5342H73.8545V30.2432H77.1452L76.94 29.1803H72.6742V37.4229L73.8545 37.2807ZM79.1376 37.2807V31.1162L77.981 31.3061V37.4705L79.1376 37.2807ZM77.7997 29.7355L78.5709 30.6213L79.3178 29.7355L78.5471 28.8379L77.7997 29.7355ZM81.7012 37.2807V34.459C81.7012 32.9115 82.5925 32.168 83.629 32.2268L84.1112 31.0932H83.5326C82.5926 31.0932 82.0021 31.6484 81.6524 32.4039H81.6287V31.117L80.5435 31.3061V37.4705L81.7012 37.2807ZM85.7013 37.2807V33.3373C85.7013 32.4158 86.5093 32.1203 87.0284 32.1203C87.7384 32.1203 88.0155 32.5572 88.0155 33.219V37.4698L89.1732 37.2807V33.3373C89.1732 32.4158 89.9802 32.1203 90.4981 32.1203C91.2093 32.1203 91.4864 32.5572 91.4864 33.219V37.4698L92.6435 37.2807V33.0069C92.6435 31.6961 91.7159 31.1162 90.6188 31.1162C89.7869 31.1162 89.0525 31.5182 88.8106 31.99C88.5097 31.3061 87.9436 31.1162 87.2205 31.1162C86.485 31.1162 85.9064 31.4832 85.6775 31.9321H85.6537V31.117L84.5447 31.3061V37.4705L85.7013 37.2807ZM93.4788 36.4664C94.033 37.175 94.7203 37.4698 95.6236 37.4698C96.745 37.4698 97.7333 36.7262 97.7333 35.5688C97.7333 33.1951 94.7322 34.1992 94.7322 32.8527C94.7322 32.2863 95.1788 32.1203 95.6729 32.1203C96.2027 32.1203 96.4798 32.3332 96.8414 32.6994L97.5282 31.9551C96.9133 31.3648 96.4073 31.117 95.5522 31.117C94.4432 31.117 93.5757 31.8963 93.5757 33.0061C93.5757 35.2383 96.5762 34.1635 96.5762 35.7102C96.5762 36.2424 96.0095 36.4664 95.5511 36.4664C94.9737 36.4664 94.624 36.2067 94.2744 35.8047L93.4788 36.4664Z" fill="#4D91F6"/>
<path d="M64.6749 14.3907C64.6693 13.5057 65.513 13.3437 65.513 13.3437H75.4087V8.97852H64.5072C60.5632 9.95562 60.4822 13.3659 60.4822 13.3659V24.8663H64.6749V14.3907Z" fill="#4D91F6"/>
<path d="M65.8494 24.8663V20.3271H70.8802C71.397 20.3216 71.3834 19.8028 71.3834 19.8028V18.7558H65.8494V15.2637C65.8573 14.478 66.6875 14.5654 66.6875 14.5654H75.5762V20.3271C75.5445 24.2785 71.8872 24.8663 71.8872 24.8663H65.8494Z" fill="#4D91F6"/>
</g>
<defs>
<clipPath id="clip0_221_41532">
<rect width="136" height="85" fill="white" transform="translate(0.23999 0.240234)"/>
</clipPath>
</defs>
</svg>
