<svg width="137" height="86" viewBox="0 0 137 86" fill="none" xmlns="http://www.w3.org/2000/svg">
<g clip-path="url(#clip0_221_41453)">
<path d="M136.18 0.379883H0.179932V85.3799H136.18V0.379883Z" fill="white"/>
<path fill-rule="evenodd" clip-rule="evenodd" d="M67.1734 83.7909C89.7681 83.7909 108.084 65.4751 108.084 42.88C108.084 20.2851 89.7681 1.96875 67.1734 1.96875C44.5783 1.96875 26.262 20.2851 26.262 42.88C26.262 65.4751 44.5783 83.7909 67.1734 83.7909ZM67.1734 79.1425C87.2 79.1425 103.436 62.9064 103.436 42.88C103.436 22.8533 87.2 6.61754 67.1734 6.61754C47.1465 6.61754 30.9107 22.8525 30.9107 42.88C30.9107 62.9064 47.1465 79.1425 67.1734 79.1425Z" fill="#306FCD"/>
<path fill-rule="evenodd" clip-rule="evenodd" d="M67.1745 85.3799C90.2078 85.3799 108.88 66.3518 108.88 42.8799C108.88 19.408 90.2078 0.379883 67.1745 0.379883C44.1412 0.379883 25.469 19.408 25.469 42.8799C25.469 66.3518 44.1412 85.3799 67.1745 85.3799ZM67.1745 80.5502C87.5904 80.5502 104.141 63.6851 104.141 42.8799C104.141 22.0747 87.5904 5.20979 67.1745 5.20979C46.7587 5.20979 30.2083 22.0747 30.2083 42.8799C30.2083 63.6851 46.7587 80.5502 67.1745 80.5502Z" fill="#4D91F6"/>
<path d="M59.4139 72.8985C59.3153 73.0299 59.1776 73.1285 59.0031 73.196C58.828 73.2634 58.6297 73.298 58.407 73.298C58.1786 73.298 57.9757 73.2447 57.7995 73.1387C57.6216 73.0316 57.4793 72.8741 57.3904 72.686C57.2912 72.4701 57.2408 72.2349 57.2425 71.9975V71.7799C57.2425 71.3594 57.3411 71.0313 57.5388 70.7961C57.736 70.5593 58.0114 70.4414 58.365 70.4414C58.6693 70.4414 58.9107 70.5173 59.0898 70.6698C59.2683 70.8228 59.3754 71.0432 59.4122 71.3311H58.9464C58.8943 70.9956 58.7033 70.829 58.3747 70.829C58.1627 70.829 58.0012 70.9066 57.8902 71.063C57.7785 71.2189 57.723 71.4478 57.7185 71.7487V71.9635C57.7185 72.2638 57.7802 72.4973 57.9043 72.6639C57.9638 72.7443 58.0426 72.8095 58.1333 72.8526C58.2239 72.8956 58.3237 72.916 58.424 72.9115C58.6659 72.9115 58.8388 72.856 58.9408 72.7443V72.1998H58.3786V71.8331H59.4139V72.8985ZM59.8055 72.2071C59.8055 72.0048 59.8452 71.8224 59.9239 71.6614C60.0021 71.4988 60.1126 71.3736 60.256 71.2874C60.3977 71.199 60.5614 71.1554 60.7467 71.1554C61.0199 71.1554 61.2426 71.2449 61.4126 71.4246C61.5831 71.6042 61.6761 71.8416 61.6897 72.1386L61.6914 72.2474C61.6914 72.4508 61.6528 72.6327 61.5752 72.7936C61.5049 72.9478 61.3899 73.077 61.2454 73.1659C61.1026 73.2532 60.9383 73.298 60.7507 73.298C60.4645 73.298 60.2345 73.2011 60.0616 73.0073C59.8911 72.8123 59.8055 72.5545 59.8055 72.2304V72.2071ZM60.2611 72.2468C60.2611 72.4599 60.3042 72.6265 60.3897 72.7472C60.4776 72.8673 60.5966 72.9274 60.7507 72.9274C60.821 72.9302 60.8907 72.9143 60.9536 72.8826C61.0159 72.8503 61.0692 72.8027 61.1083 72.7443C61.195 72.6219 61.2375 72.4423 61.2375 72.2071C61.2375 71.998 61.1933 71.8337 61.1049 71.7107C61.0652 71.6524 61.0119 71.6053 60.949 71.573C60.8867 71.5413 60.817 71.5254 60.7467 71.5277C60.677 71.526 60.6085 71.5419 60.5467 71.573C60.4844 71.6048 60.4317 71.6518 60.3926 71.709C60.3047 71.828 60.2611 72.0071 60.2611 72.2468ZM61.9917 72.2071C61.9917 72.0048 62.0314 71.8224 62.1096 71.6614C62.1883 71.4988 62.2988 71.3736 62.4411 71.2874C62.5839 71.199 62.7476 71.1554 62.9329 71.1554C63.2061 71.1554 63.4288 71.2449 63.5976 71.4246C63.7693 71.6042 63.8617 71.8416 63.8759 72.1386L63.8776 72.2474C63.8776 72.4508 63.8385 72.6327 63.7614 72.7936C63.6906 72.9478 63.5755 73.0775 63.431 73.1659C63.2888 73.2532 63.1233 73.298 62.9358 73.298C62.6502 73.298 62.4207 73.2011 62.2478 73.0073C62.0773 72.8123 61.9917 72.5545 61.9917 72.2304V72.2071ZM62.4467 72.2468C62.4467 72.4599 62.4904 72.6265 62.5759 72.7472C62.6626 72.8673 62.7828 72.9274 62.9358 72.9274C63.0066 72.9302 63.0763 72.9149 63.1392 72.8826C63.2021 72.8503 63.2554 72.8027 63.2945 72.7443C63.3806 72.6219 63.4237 72.4423 63.4237 72.2071C63.4237 71.998 63.3795 71.8337 63.2905 71.7107C63.2508 71.6524 63.1976 71.6053 63.1352 71.5736C63.0723 71.5413 63.0032 71.526 62.9329 71.5277C62.8632 71.526 62.7947 71.5413 62.7323 71.573C62.6706 71.6048 62.6179 71.6518 62.5788 71.709C62.4909 71.828 62.4467 72.0071 62.4467 72.2468ZM64.1779 72.2111C64.1779 71.8932 64.2499 71.6376 64.3955 71.4455C64.4612 71.3532 64.5485 71.2784 64.6499 71.2274C64.7519 71.1769 64.8641 71.152 64.9775 71.1554C65.1928 71.1554 65.3668 71.2313 65.4994 71.3843V70.3258H65.955V73.2594H65.5419L65.5203 73.0452C65.4552 73.1268 65.3724 73.1926 65.2772 73.2362C65.1826 73.2804 65.0789 73.3014 64.9746 73.298C64.8619 73.2997 64.7502 73.2742 64.6494 73.2232C64.5485 73.1727 64.4618 73.0979 64.3966 73.0056C64.251 72.8106 64.1779 72.5466 64.1779 72.2111ZM64.6329 72.2508C64.6329 72.4616 64.6726 72.6259 64.7514 72.7432C64.8307 72.8611 64.944 72.9194 65.0902 72.9194C65.1764 72.9234 65.2608 72.9007 65.3339 72.8554C65.407 72.8101 65.4648 72.7438 65.4994 72.6656V71.7838C65.4648 71.7062 65.4076 71.6416 65.335 71.5968C65.2631 71.5526 65.1792 71.5311 65.0942 71.5351C65.0268 71.5322 64.9593 71.5475 64.8998 71.5793C64.8398 71.6104 64.7888 71.6575 64.7531 71.7147C64.6732 71.8337 64.6335 72.0116 64.6335 72.2513L64.6329 72.2508ZM66.5511 73.2594V71.5373H66.2417V71.1934H66.5511V71.0523C66.5522 70.8902 66.5862 70.7519 66.652 70.6358C66.7166 70.5213 66.8146 70.4301 66.9336 70.3734C67.0549 70.3156 67.2005 70.2861 67.3705 70.2861C67.4702 70.2861 67.566 70.2975 67.6561 70.3179C67.749 70.3405 67.8454 70.3683 67.944 70.4006L67.8748 70.7842C67.7235 70.7276 67.5637 70.6964 67.4022 70.693C67.2628 70.693 67.1631 70.7247 67.1002 70.7865C67.0373 70.8477 67.0067 70.9401 67.0067 71.063V71.1934H67.4062V71.5373H67.0067V73.2594H66.5511ZM68.1593 73.2594H67.7037V71.1934H68.1593V73.2594ZM69.7267 71.6167C69.6655 71.6065 69.6032 71.6014 69.5414 71.6019C69.3323 71.6019 69.1918 71.6835 69.1198 71.8467V73.2594H68.6636V71.1934H69.0988L69.1102 71.424C69.2195 71.2449 69.372 71.1554 69.5675 71.1554C69.6326 71.1554 69.687 71.1639 69.729 71.1815L69.7267 71.6167ZM70.443 71.1934L70.456 71.4087C70.5988 71.2398 70.7932 71.1548 71.0414 71.1548C71.3122 71.1548 71.4981 71.2608 71.5973 71.4722C71.6653 71.3702 71.7582 71.288 71.867 71.2319C71.9764 71.1764 72.0976 71.1497 72.22 71.1548C72.4439 71.1548 72.6099 71.2183 72.7187 71.3447C72.8286 71.4699 72.8859 71.6558 72.8876 71.9023V73.2594H72.432V71.9147C72.432 71.7838 72.4042 71.6875 72.3481 71.6274C72.2914 71.5662 72.1985 71.5351 72.0682 71.5351C71.9758 71.5317 71.8857 71.5617 71.8143 71.6206C71.7474 71.6796 71.6993 71.7572 71.6766 71.8433L71.6783 73.2594H71.2238V71.8989C71.2176 71.6558 71.0952 71.5345 70.8583 71.5345C70.6759 71.5345 70.5461 71.6099 70.4702 71.7617V73.2589H70.0146V71.1928H70.4435L70.443 71.1934ZM74.4929 72.6979C74.4946 72.6605 74.4856 72.6231 74.468 72.5896C74.4499 72.5562 74.4232 72.5284 74.3909 72.5092C74.3252 72.4661 74.2147 72.4281 74.0589 72.3947C73.9251 72.3681 73.7948 72.3261 73.6713 72.2683C73.444 72.1573 73.3296 71.9941 73.3296 71.7816C73.3296 71.6036 73.4038 71.454 73.5517 71.335C73.699 71.2155 73.8866 71.1554 74.1138 71.1554C74.3564 71.1554 74.5519 71.2166 74.7009 71.3379C74.7729 71.3945 74.8312 71.4671 74.8703 71.5498C74.9094 71.6325 74.9281 71.7232 74.9259 71.8144H74.4697C74.4708 71.7725 74.4629 71.7311 74.4459 71.6926C74.4295 71.6541 74.4045 71.6201 74.3728 71.5923C74.3014 71.53 74.2085 71.4977 74.1138 71.5028C74.026 71.4988 73.9399 71.5237 73.8679 71.5742C73.8379 71.5957 73.8141 71.624 73.7976 71.6563C73.7818 71.6892 73.7738 71.7255 73.775 71.7623C73.775 71.8337 73.8039 71.8892 73.8622 71.9289C73.9217 71.968 74.0402 72.0088 74.2187 72.0485C74.3977 72.0881 74.5371 72.1357 74.6391 72.1918C74.7304 72.2372 74.8086 72.3057 74.8652 72.3907C74.9174 72.4757 74.944 72.5738 74.9406 72.6735C74.9423 72.7619 74.923 72.8492 74.8834 72.9279C74.8437 73.0067 74.7853 73.0747 74.7139 73.1263C74.5626 73.2407 74.3643 73.298 74.1195 73.298C73.9659 73.3002 73.8141 73.2691 73.6747 73.2056C73.5523 73.1512 73.4474 73.0639 73.3709 72.954C73.3001 72.8526 73.2621 72.7319 73.2621 72.6083H73.7047C73.7053 72.6571 73.7166 72.7052 73.7376 72.7489C73.7585 72.7931 73.7891 72.8316 73.8271 72.8628C73.9019 72.9206 74.0016 72.95 74.1252 72.95C74.2447 72.95 74.3365 72.9274 74.3989 72.8815C74.4283 72.8611 74.4521 72.8339 74.4686 72.8021C74.485 72.7698 74.4935 72.7347 74.4929 72.699V72.6979ZM75.6234 72.7704C75.7084 72.7704 75.7742 72.7959 75.8201 72.8452C75.8433 72.8696 75.8614 72.8979 75.8733 72.9296C75.8847 72.9608 75.8903 72.9942 75.8892 73.0277C75.8892 73.1008 75.8654 73.1614 75.8201 73.2107C75.7736 73.2572 75.7084 73.2804 75.6234 73.2804C75.5877 73.2821 75.5526 73.277 75.5197 73.2645C75.4863 73.2526 75.4557 73.2339 75.4302 73.2096C75.4064 73.1858 75.3877 73.1574 75.3758 73.1263C75.3633 73.0951 75.3577 73.0622 75.3588 73.0288C75.3588 72.9546 75.382 72.8934 75.4279 72.8458C75.4529 72.8203 75.4835 72.7999 75.5175 72.7868C75.5509 72.7738 75.5872 72.7681 75.6234 72.7704ZM77.2452 72.9274C77.3489 72.9308 77.4498 72.8945 77.5274 72.8259C77.5637 72.7948 77.5932 72.7562 77.6141 72.7132C77.6345 72.6701 77.6464 72.6236 77.6481 72.5755H78.0771C78.072 72.7047 78.0312 72.8299 77.9587 72.937C77.8833 73.0492 77.7802 73.1399 77.6595 73.1999C77.532 73.2651 77.3971 73.298 77.2503 73.298C76.9664 73.298 76.742 73.2039 76.5749 73.0175C76.4088 72.8299 76.3261 72.5715 76.3261 72.2423V72.1947C76.3261 71.8796 76.4088 71.628 76.5732 71.4399C76.7386 71.25 76.9636 71.1554 77.2486 71.1554C77.4895 71.1554 77.6855 71.2268 77.8363 71.3707C77.9128 71.4433 77.974 71.5305 78.0153 71.6274C78.0567 71.7249 78.0777 71.8292 78.0771 71.9346H77.6481C77.647 71.8252 77.6034 71.7209 77.5274 71.6422C77.4912 71.6042 77.447 71.5747 77.3982 71.5549C77.3495 71.5351 77.2974 71.5254 77.2447 71.5271C77.1784 71.5237 77.1126 71.5373 77.0531 71.5662C76.9931 71.5946 76.9415 71.6376 76.903 71.6915C76.8236 71.7997 76.7828 71.9646 76.7817 72.1867V72.261C76.7817 72.4854 76.8214 72.652 76.8996 72.763C76.9795 72.873 77.0945 72.9274 77.2447 72.9274H77.2452ZM78.3361 72.2071C78.3361 72.0048 78.3757 71.8224 78.4539 71.6614C78.5333 71.4988 78.6438 71.3736 78.786 71.2874C78.9288 71.199 79.0926 71.1554 79.2767 71.1554C79.551 71.1554 79.7726 71.2449 79.9426 71.4246C80.1137 71.6042 80.2061 71.8416 80.2202 72.1386L80.2219 72.2474C80.2219 72.4508 80.1828 72.6327 80.1058 72.7936C80.0355 72.9478 79.9205 73.0775 79.7754 73.1659C79.6326 73.2532 79.4683 73.298 79.2807 73.298C78.9945 73.298 78.765 73.2011 78.5928 73.0073C78.4211 72.8123 78.3361 72.5545 78.3361 72.2304V72.2071ZM78.7911 72.2468C78.7911 72.4599 78.8342 72.6265 78.9209 72.7472C79.0076 72.8673 79.1271 72.9274 79.2807 72.9274C79.351 72.9302 79.4207 72.9143 79.4836 72.8826C79.5459 72.8503 79.5992 72.8027 79.6383 72.7443C79.7255 72.6219 79.7686 72.4423 79.7686 72.2071C79.7686 71.998 79.7238 71.8337 79.6349 71.7107C79.5958 71.6524 79.5419 71.6053 79.4796 71.5736C79.4173 71.5413 79.3476 71.526 79.2773 71.5277C79.2076 71.526 79.139 71.5413 79.0767 71.573C79.0149 71.6048 78.9617 71.6512 78.9226 71.709C78.8347 71.828 78.7911 72.0071 78.7911 72.2468Z" fill="black"/>
<path d="M14.3479 48.043H122.385L114.167 57.1787L122.385 66.3139H14.3479L22.4444 57.1787L14.3479 48.043Z" fill="#4D91F6"/>
<g opacity="0.3">
<path d="M48.5042 43.0868V41.0079H49.2938C49.5551 41.0079 49.753 41.0556 49.8896 41.1493C50.0254 41.2431 50.0938 41.3837 50.0938 41.5704C50.0938 41.6657 50.0651 41.7515 50.008 41.8278C49.9432 41.9095 49.8564 41.971 49.7577 42.0049C49.8825 42.035 49.9786 42.0923 50.0461 42.1773C50.1144 42.2615 50.1494 42.3624 50.1494 42.4799C50.1494 42.6754 50.0795 42.8255 49.9404 42.9304C49.8014 43.0344 49.6036 43.0868 49.3446 43.0868H48.5042ZM48.9046 42.1495V42.7985H49.3494C49.4541 42.8046 49.5578 42.7749 49.6433 42.7143C49.6784 42.6865 49.7063 42.6507 49.7249 42.61C49.7434 42.5692 49.7519 42.5246 49.7498 42.4799C49.7498 42.2639 49.6275 42.1542 49.3828 42.1487H48.9046V42.1495ZM48.9046 41.8834H49.297C49.3997 41.8895 49.5017 41.8631 49.5885 41.8079C49.6231 41.7834 49.651 41.7507 49.6696 41.7126C49.6881 41.6746 49.6969 41.6325 49.695 41.5902C49.695 41.487 49.6616 41.4131 49.5965 41.3678C49.5321 41.3217 49.4312 41.2995 49.2946 41.2995H48.9054V41.8834H48.9046ZM52.0377 43.0868H50.4886V42.8486L51.2559 42.0939C51.3672 41.9818 51.445 41.8889 51.4919 41.815C51.5396 41.7396 51.5634 41.6641 51.5634 41.5894C51.5653 41.545 51.5579 41.5007 51.5418 41.4592C51.5257 41.4178 51.5011 41.3802 51.4696 41.3487C51.4365 41.3175 51.3974 41.2933 51.3547 41.2776C51.3119 41.2619 51.2665 41.255 51.221 41.2574C51.1682 41.2541 51.1153 41.2615 51.0654 41.2793C51.0156 41.2971 50.9699 41.3247 50.9311 41.3607C50.8957 41.3981 50.8683 41.4423 50.8505 41.4907C50.8328 41.539 50.825 41.5904 50.8278 41.6418H50.4433C50.4433 41.5147 50.4751 41.4012 50.5386 41.3002C50.6052 41.1966 50.7004 41.1144 50.8127 41.0636C50.9319 41.0079 51.0685 40.9793 51.2242 40.9793C51.4474 40.9793 51.6238 41.0302 51.7525 41.1318C51.8164 41.181 51.8675 41.2449 51.9015 41.318C51.9355 41.3912 51.9515 41.4715 51.9479 41.5521C51.9479 41.6554 51.9145 41.765 51.8494 41.8786C51.7614 42.0215 51.6545 42.1519 51.5316 42.2662L50.9676 42.8104H52.0377V43.0868ZM52.3927 43.0868V41.0079H53.1824C53.4429 41.0079 53.6415 41.0556 53.7782 41.1493C53.9132 41.2431 53.9815 41.3837 53.9815 41.5704C53.9815 41.6657 53.9529 41.7515 53.8965 41.8278C53.8318 41.9095 53.7449 41.971 53.6463 42.0049C53.771 42.035 53.8671 42.0923 53.9346 42.1773C54.003 42.2615 54.0379 42.3624 54.0379 42.4799C54.0379 42.6754 53.9672 42.8255 53.8282 42.9304C53.69 43.0344 53.4914 43.0868 53.2324 43.0868H52.3927ZM52.7931 42.1495V42.7985H53.238C53.3426 42.8046 53.4463 42.7749 53.5319 42.7143C53.567 42.6865 53.5949 42.6507 53.6134 42.61C53.6319 42.5692 53.6405 42.5246 53.6383 42.4799C53.6383 42.2639 53.516 42.1542 53.2713 42.1487H52.7931V42.1495ZM52.7931 41.8834H53.1856C53.2882 41.8895 53.3902 41.8631 53.477 41.8079C53.5115 41.7833 53.5392 41.7505 53.5577 41.7125C53.5761 41.6745 53.5847 41.6324 53.5827 41.5902C53.5827 41.487 53.5501 41.4131 53.485 41.3678C53.4207 41.3217 53.3198 41.2995 53.1824 41.2995H52.7931V41.8834ZM56.0922 42.2861H55.6458V43.0868H55.2454V41.0079H56.0557C56.3218 41.0079 56.5267 41.062 56.6713 41.1692C56.8159 41.2764 56.8884 41.4321 56.8884 41.6363C56.8924 41.7623 56.8527 41.8858 56.7762 41.9858C56.6946 42.0848 56.5874 42.1595 56.4664 42.2019L56.9825 43.0686V43.0868H56.5538L56.0922 42.2861ZM55.6458 41.9962H56.0573C56.1923 41.9962 56.298 41.966 56.3742 41.9048C56.4115 41.8745 56.4413 41.8358 56.461 41.7919C56.4807 41.7481 56.4899 41.7002 56.4878 41.6522C56.4908 41.6039 56.4828 41.5555 56.4645 41.5107C56.4462 41.4658 56.4181 41.4257 56.3822 41.3932C56.3123 41.3328 56.2074 41.301 56.0684 41.2995H55.6458V41.9962ZM57.9855 43.1155C57.7413 43.1155 57.5435 43.0463 57.3916 42.9089C57.2409 42.7699 57.1655 42.5848 57.1655 42.3544V42.3115C57.1655 42.1574 57.1978 42.02 57.2641 41.8984C57.3276 41.7794 57.4245 41.6811 57.5418 41.6149C57.6636 41.5465 57.8013 41.5114 57.9407 41.5131C58.1742 41.5131 58.3538 41.5807 58.4808 41.7149C58.6083 41.8492 58.6723 42.0391 58.6723 42.2845V42.4243H57.5531C57.5594 42.5398 57.6098 42.6483 57.6942 42.727C57.7781 42.8016 57.8818 42.8382 58.0076 42.8382C58.1838 42.8382 58.3278 42.7747 58.4383 42.646L58.6457 42.8247C58.5743 42.9191 58.4791 42.9933 58.3703 43.04C58.249 43.0919 58.1175 43.1177 57.9855 43.1155ZM57.939 41.792C57.892 41.7901 57.845 41.7981 57.8008 41.8154C57.7566 41.8326 57.7169 41.8587 57.6835 41.8921C57.6138 41.9695 57.5707 42.0667 57.5594 42.1701H58.2926V42.1447C58.2915 42.0476 58.2547 41.9542 58.1895 41.8826C58.1561 41.8513 58.1164 41.8272 58.0733 41.8117C58.0308 41.7961 57.9849 41.7894 57.939 41.792ZM59.9331 42.6674C59.9337 42.6382 59.9258 42.6092 59.911 42.5842C59.8957 42.5592 59.8736 42.539 59.8476 42.526C59.7586 42.4832 59.664 42.4542 59.5671 42.4402C59.4549 42.4208 59.3449 42.389 59.2395 42.3457C59.0474 42.2623 58.9511 42.1407 58.9511 41.9818C58.9511 41.8484 59.0134 41.7372 59.1381 41.6482C59.2628 41.5584 59.4209 41.5131 59.613 41.5131C59.8181 41.5131 59.983 41.5592 60.1088 41.6506C60.1677 41.6892 60.2159 41.7419 60.2488 41.804C60.2822 41.866 60.2992 41.9354 60.2986 42.0057H59.9139C59.9144 41.9736 59.9071 41.9419 59.8923 41.9132C59.8782 41.8844 59.8572 41.8595 59.8317 41.8405C59.7688 41.793 59.6912 41.7691 59.613 41.7729C59.5399 41.77 59.4679 41.7885 59.4056 41.8262C59.3812 41.8407 59.3608 41.8614 59.3472 41.8862C59.333 41.9111 59.3257 41.9391 59.3262 41.9676C59.3262 42.0208 59.3506 42.0629 59.401 42.0915C59.4503 42.1208 59.5512 42.151 59.7019 42.182C59.8527 42.2115 59.9705 42.2472 60.0561 42.2885C60.1428 42.3298 60.2074 42.3791 60.2476 42.437C60.276 42.4813 60.2952 42.5308 60.3043 42.5827C60.3134 42.6345 60.3117 42.6877 60.2998 42.739C60.2879 42.7902 60.2658 42.8386 60.2352 42.8811C60.204 42.9237 60.1649 42.9596 60.1196 42.9868C59.9921 43.0726 59.8243 43.1155 59.6175 43.1155C59.4894 43.1177 59.3619 43.0945 59.2429 43.0471C59.1421 43.0082 59.0537 42.9432 58.9862 42.8589C58.9273 42.7854 58.8944 42.6941 58.8939 42.5999H59.2673C59.273 42.6817 59.307 42.7453 59.3704 42.7905C59.4345 42.8342 59.5178 42.8557 59.6226 42.8557C59.7025 42.8605 59.7824 42.8426 59.8527 42.8041C59.9059 42.7691 59.9331 42.7238 59.9331 42.6674ZM61.4019 43.1155C61.1583 43.1155 60.9605 43.0463 60.8086 42.9089C60.6573 42.7699 60.582 42.5848 60.582 42.3544V42.3115C60.582 42.1574 60.6137 42.02 60.68 41.8984C60.7435 41.7794 60.8404 41.6811 60.9577 41.6149C61.0801 41.5464 61.2178 41.5113 61.3572 41.5131C61.5912 41.5131 61.7703 41.5807 61.8978 41.7149C62.0247 41.8492 62.0882 42.0391 62.0882 42.2845V42.4243H60.9696C60.9758 42.5397 61.0262 42.6482 61.1107 42.727C61.194 42.8016 61.2988 42.8382 61.424 42.8382C61.6003 42.8382 61.7436 42.7747 61.8547 42.646L62.0615 42.8247C61.9901 42.9192 61.8949 42.9933 61.7867 43.04C61.6649 43.0918 61.534 43.1175 61.4019 43.1155ZM61.356 41.792C61.3084 41.79 61.2614 41.798 61.2172 41.8152C61.173 41.8324 61.1328 41.8586 61.0993 41.8921C61.0302 41.9696 60.9871 42.0668 60.9764 42.1701H61.7096V42.1447C61.7085 42.0476 61.6717 41.9542 61.6059 41.8826C61.5725 41.8513 61.5334 41.8272 61.4903 41.8117C61.4473 41.7961 61.4014 41.7894 61.356 41.792ZM63.4125 43.0868C63.3904 43.0414 63.3756 42.993 63.3683 42.9431C63.247 43.0577 63.0849 43.1196 62.9183 43.1155C62.767 43.1221 62.618 43.0752 62.4973 42.9828C62.4463 42.9445 62.4055 42.895 62.3772 42.838C62.3488 42.7811 62.3341 42.7183 62.3347 42.6547C62.3347 42.4895 62.4021 42.3631 62.537 42.2758C62.673 42.1876 62.8673 42.1431 63.1195 42.1431H63.3552V42.0415C63.3552 41.962 63.3309 41.8984 63.2804 41.8508C63.2317 41.8015 63.1558 41.7777 63.0543 41.7777C62.9671 41.7777 62.8957 41.7976 62.8396 41.8373C62.8141 41.8531 62.7925 41.8753 62.7778 41.9017C62.7631 41.9282 62.7557 41.9579 62.7557 41.9882H62.3709C62.3709 41.9024 62.4021 41.8237 62.4639 41.7499C62.5324 41.6714 62.6197 41.6116 62.7172 41.5759C62.8248 41.5346 62.9444 41.5131 63.0764 41.5131C63.2776 41.5131 63.4374 41.5592 63.5564 41.6506C63.6754 41.7412 63.7366 41.8683 63.74 42.0335V42.7302C63.7349 42.8447 63.757 42.9588 63.8052 43.063V43.0868H63.4125ZM62.9897 42.8374C63.064 42.8378 63.1371 42.8207 63.2034 42.7874C63.2663 42.7581 63.319 42.7112 63.3552 42.6523V42.3616H63.1478C63.005 42.3616 62.8985 42.3838 62.8265 42.4291C62.7931 42.4481 62.7653 42.4757 62.7466 42.5092C62.7274 42.5426 62.7183 42.5806 62.7189 42.6189C62.7189 42.6857 62.7427 42.7381 62.792 42.7786C62.8413 42.8184 62.9076 42.8374 62.9897 42.8374ZM65.0405 41.8587C64.9884 41.8511 64.9357 41.8474 64.883 41.8476C64.7067 41.8476 64.5883 41.9087 64.5271 42.0303V43.0868H64.1423V41.5418H64.5095L64.5192 41.7149C64.5605 41.651 64.6183 41.5988 64.6858 41.5635C64.7532 41.5281 64.8291 41.5108 64.9051 41.5131C64.9606 41.5131 65.0054 41.5203 65.0416 41.533L65.0405 41.8587ZM65.9545 42.839C66.0509 42.839 66.1308 42.8136 66.1937 42.7628C66.2231 42.741 66.2475 42.713 66.2656 42.6807C66.2832 42.6485 66.2934 42.6127 66.2957 42.576H66.6578C66.6527 42.6741 66.6181 42.7684 66.5586 42.8462C66.4917 42.9323 66.4045 43.0001 66.3042 43.0431C66.1959 43.0919 66.0781 43.1165 65.9596 43.1155C65.7205 43.1155 65.5307 43.0455 65.3896 42.9057C65.249 42.7659 65.1793 42.5721 65.1793 42.3258V42.29C65.1793 42.0549 65.249 41.8667 65.3884 41.726C65.5273 41.5847 65.7171 41.5131 65.9579 41.5131C66.1619 41.5131 66.3274 41.5672 66.4549 41.6744C66.5178 41.7254 66.5682 41.7895 66.6034 41.8623C66.6385 41.935 66.6572 42.0147 66.6578 42.0955H66.2957C66.294 42.0541 66.2849 42.0135 66.2673 41.9761C66.2498 41.9386 66.2248 41.9052 66.1937 41.8778C66.1285 41.8195 66.0429 41.7888 65.9557 41.792C65.9013 41.7888 65.8469 41.7982 65.797 41.8194C65.7471 41.8406 65.7024 41.8731 65.6672 41.9143C65.5992 41.9954 65.5647 42.1185 65.5635 42.2845V42.3401C65.5635 42.5078 65.597 42.6333 65.6638 42.7158C65.7313 42.7977 65.8282 42.839 65.9545 42.839ZM67.3276 41.7102C67.3882 41.6456 67.4624 41.5947 67.5446 41.5607C67.6268 41.5267 67.7152 41.5105 67.8041 41.5131C68.1696 41.5131 68.3544 41.7015 68.36 42.0772V43.0868H67.9747V42.0907C67.9747 41.9834 67.9492 41.9079 67.8976 41.8643C67.8466 41.8198 67.7724 41.7976 67.6727 41.7976C67.6035 41.7939 67.535 41.8094 67.4743 41.8422C67.4131 41.875 67.3621 41.9238 67.3276 41.9834V43.0876H66.9428V40.8936H67.3276V41.7102ZM69.4962 42.526C69.4962 42.4299 69.5257 42.3417 69.5835 42.2615C69.6413 42.1805 69.7557 42.0851 69.9274 41.9747C69.8538 41.8962 69.7903 41.8089 69.7382 41.7149C69.7053 41.6507 69.6877 41.5797 69.6866 41.5076C69.6866 41.3447 69.7416 41.216 69.8509 41.1223C69.9609 41.027 70.1082 40.9793 70.2946 40.9793C70.4618 40.9793 70.5995 41.0238 70.706 41.1136C70.7893 41.1801 70.8449 41.2755 70.8613 41.381C70.8777 41.4865 70.8539 41.5944 70.795 41.6831C70.7298 41.7704 70.6488 41.8441 70.5559 41.9L70.3983 42.0033L70.8432 42.4776C70.9083 42.3611 70.9418 42.2296 70.9401 42.0962H71.2738C71.2738 42.352 71.2081 42.5618 71.0755 42.7262L71.4138 43.0868H70.9673L70.8369 42.9486C70.6726 43.0599 70.4765 43.1155 70.2482 43.1155C70.0204 43.1155 69.8373 43.0615 69.7002 42.9526C69.635 42.9026 69.5823 42.8378 69.5472 42.7637C69.5115 42.6896 69.4939 42.6082 69.4962 42.526ZM70.2595 42.839C70.3898 42.8386 70.5173 42.7975 70.6233 42.7215L70.1207 42.186L70.0714 42.2178C69.9439 42.3044 69.8804 42.4029 69.8804 42.5141C69.8804 42.611 69.9155 42.6889 69.9835 42.7484C70.0612 42.8118 70.1592 42.844 70.2595 42.839ZM70.0476 41.4989C70.0476 41.5783 70.1014 41.6792 70.2102 41.8007L70.3859 41.6919L70.4352 41.6562C70.4663 41.6328 70.4913 41.6025 70.5083 41.5675C70.5253 41.5326 70.5343 41.4941 70.5332 41.4552C70.5338 41.4283 70.5275 41.4018 70.5156 41.3777C70.5037 41.3536 70.4867 41.3325 70.4652 41.3162C70.417 41.276 70.3553 41.2551 70.2929 41.2574C70.2601 41.2559 70.2272 41.2613 70.196 41.2732C70.1654 41.2851 70.1377 41.3032 70.1139 41.3265C70.0918 41.3493 70.0748 41.3764 70.0634 41.4059C70.0521 41.4355 70.0464 41.4671 70.0476 41.4989ZM73.3223 42.2861H72.8764V43.0868H72.4757V41.0079H73.2861C73.5524 41.0079 73.7581 41.062 73.9026 41.1692C74.0471 41.2764 74.1196 41.4321 74.1196 41.6363C74.1236 41.7624 74.0834 41.8859 74.0063 41.9858C73.9253 42.0849 73.8176 42.1596 73.6969 42.2019L74.2137 43.0686V43.0868H73.7847L73.3223 42.2861ZM72.8764 41.9962H73.2878C73.4226 41.9962 73.5286 41.966 73.6045 41.9048C73.6419 41.8745 73.672 41.8359 73.6918 41.7921C73.7116 41.7482 73.7207 41.7003 73.719 41.6522C73.7218 41.6038 73.7139 41.5554 73.6952 41.5106C73.6771 41.4657 73.6487 41.4257 73.6125 41.3932C73.5428 41.3328 73.4379 41.301 73.2985 41.2995H72.8764V41.9962ZM75.2167 43.1155C74.9725 43.1155 74.7747 43.0463 74.6223 42.9089C74.4715 42.7699 74.3956 42.5848 74.3956 42.3544V42.3115C74.3956 42.1574 74.429 42.02 74.4942 41.8984C74.5582 41.7794 74.6546 41.681 74.7724 41.6149C74.8943 41.5464 75.032 41.5113 75.1719 41.5131C75.4048 41.5131 75.585 41.5807 75.712 41.7149C75.8395 41.8492 75.9029 42.0391 75.9029 42.2845V42.4243H74.7843C74.79 42.5397 74.8404 42.6482 74.9249 42.727C75.0082 42.8016 75.113 42.8382 75.2388 42.8382C75.415 42.8382 75.5578 42.7747 75.6695 42.646L75.8757 42.8247C75.8043 42.9192 75.7097 42.9933 75.6009 43.04C75.4796 43.0919 75.3487 43.1176 75.2167 43.1155ZM75.1702 41.792C75.1232 41.7901 75.0756 41.798 75.0314 41.8152C74.9872 41.8325 74.9475 41.8586 74.9135 41.8921C74.8444 41.9696 74.8013 42.0668 74.7906 42.1701H75.5233V42.1447C75.5221 42.0476 75.4853 41.9542 75.4196 41.8826C75.3867 41.8514 75.347 41.8274 75.3045 41.8119C75.2615 41.7963 75.2161 41.7896 75.1702 41.792ZM76.7847 42.6476L77.1473 41.5418H77.5446L76.9513 43.0868H76.6175L76.0185 41.5418H76.4175L76.7847 42.6476ZM78.1957 43.0868H77.8109V41.5418H78.1957V43.0868ZM77.7871 41.1406C77.7871 41.0874 77.8052 41.0429 77.8426 41.0079C77.8874 40.9702 77.9452 40.9511 78.0041 40.9547C78.0738 40.9547 78.1277 40.9721 78.1651 41.0079C78.2036 41.0429 78.2223 41.0874 78.2223 41.1406C78.2229 41.1653 78.2178 41.1898 78.2081 41.2124C78.1985 41.235 78.1838 41.2552 78.1651 41.2717C78.1197 41.3085 78.0625 41.3269 78.0041 41.3233C77.9458 41.3269 77.888 41.3085 77.8426 41.2717C77.8245 41.2549 77.8103 41.2346 77.8007 41.212C77.7911 41.1895 77.7865 41.1651 77.7871 41.1406ZM79.3704 43.1155C79.1267 43.1155 78.9284 43.0463 78.7771 42.9089C78.6258 42.7699 78.5504 42.5848 78.5504 42.3544V42.3115C78.5504 42.1574 78.5821 42.02 78.6484 41.8984C78.7125 41.7793 78.8088 41.6809 78.9272 41.6149C79.0485 41.5465 79.1862 41.5114 79.3256 41.5131C79.5596 41.5131 79.7387 41.5807 79.8662 41.7149C79.9931 41.8492 80.0566 42.0391 80.0566 42.2845V42.4243H78.938C78.9442 42.5397 78.9947 42.6482 79.0785 42.727C79.1624 42.8016 79.2672 42.8382 79.3925 42.8382C79.5687 42.8382 79.7121 42.7747 79.8231 42.646L80.0305 42.8247C79.9586 42.9192 79.8639 42.9934 79.7546 43.04C79.6333 43.0918 79.5024 43.1175 79.3704 43.1155ZM79.3245 41.792C79.2769 41.7901 79.2298 41.798 79.1856 41.8152C79.1414 41.8325 79.1012 41.8586 79.0678 41.8921C78.9986 41.9696 78.9556 42.0668 78.9442 42.1701H79.6775V42.1447C79.6769 42.0476 79.6401 41.9542 79.5744 41.8826C79.5409 41.8514 79.5018 41.8273 79.4588 41.8117C79.4157 41.7961 79.3698 41.7895 79.3245 41.792ZM81.8626 42.6094L82.1346 41.5418H82.5097L82.0428 43.0868H81.7254L81.3588 42.0263L80.9978 43.0868H80.6811L80.2124 41.5418H80.5876L80.8652 42.5975L81.2166 41.5418H81.5056L81.8626 42.6094ZM84.9396 42.2058H84.0119V43.0876H83.6113V41.0079H85.0756V41.2995H84.0114V41.9175H84.9396V42.2058ZM85.7658 43.0868H85.3816V41.5418H85.7658V43.0868ZM85.3578 41.1406C85.3578 41.0874 85.3759 41.0429 85.4133 41.0079C85.4507 40.9721 85.5045 40.9547 85.5742 40.9547C85.6445 40.9547 85.6983 40.9721 85.7357 41.0079C85.7737 41.0429 85.793 41.0874 85.793 41.1406C85.7935 41.1653 85.7884 41.1898 85.7788 41.2124C85.7686 41.235 85.7544 41.2552 85.7357 41.2717C85.6904 41.3085 85.6326 41.3269 85.5742 41.3233C85.5164 41.3269 85.4586 41.3085 85.4133 41.2717C85.3952 41.2549 85.381 41.2346 85.3714 41.212C85.3617 41.1895 85.3572 41.1651 85.3578 41.1406ZM87.0833 41.8587C87.0311 41.8511 86.979 41.8474 86.9263 41.8476C86.7501 41.8476 86.6316 41.9087 86.5704 42.0303V43.0868H86.1857V41.5418H86.5534L86.5625 41.7149C86.6044 41.651 86.6617 41.5989 86.7291 41.5636C86.7971 41.5282 86.8725 41.5109 86.949 41.5131C87.0034 41.5131 87.0487 41.5203 87.0844 41.533L87.0833 41.8587ZM87.6885 41.5418L87.6992 41.703C87.8194 41.5759 87.9837 41.5131 88.1928 41.5131C88.4223 41.5131 88.5787 41.5926 88.6631 41.7507C88.7878 41.5918 88.9623 41.5131 89.189 41.5131C89.3771 41.5131 89.5177 41.5608 89.61 41.6546C89.703 41.7491 89.75 41.8881 89.7528 42.0716V43.0868H89.3675V42.082C89.3675 41.9834 89.3437 41.912 89.2961 41.8658C89.2485 41.8206 89.1709 41.7976 89.0604 41.7976C88.9731 41.7976 88.9011 41.819 88.8456 41.8611C88.7906 41.9032 88.7498 41.9616 88.73 42.0279L88.7317 43.0868H88.3469V42.07C88.3413 41.8881 88.2381 41.7976 88.037 41.7976C87.884 41.7976 87.7752 41.8539 87.71 41.9676V43.0876H87.3252V41.5418H87.6885Z" fill="black"/>
</g>
<path d="M48.7674 32.8383H45.5263L45.1155 33.902H47.5861V35.8268C47.0563 36.3583 46.2118 36.5465 45.477 36.5465C43.7778 36.5465 42.5369 34.8465 42.5369 33.477C42.5369 31.5871 44.0193 30.1937 45.6947 30.1937C46.6702 30.1937 47.3216 30.5719 47.9603 31.0318L48.6593 30.2414C47.9237 29.509 46.779 29.1308 45.6462 29.1308C43.1876 29.1308 41.3557 31.1033 41.3557 33.4762C41.3557 35.6496 43.3083 37.6094 45.5135 37.6094C46.9593 37.6094 48.2375 37.066 48.7674 36.4289V32.8383ZM53.3796 31.2566C51.5716 31.2566 50.0654 32.6389 50.0654 34.4334C50.0654 36.2279 51.5716 37.6094 53.3796 37.6094C55.1869 37.6094 56.7058 36.2279 56.7058 34.4334C56.7058 32.6381 55.1869 31.2558 53.3796 31.2558V31.2566ZM55.5483 34.4334C55.5483 35.59 54.5966 36.5465 53.3796 36.5465C52.1745 36.5465 51.2221 35.59 51.2221 34.4334C51.2221 33.276 52.1745 32.3195 53.3796 32.3195C54.5966 32.3195 55.5483 33.276 55.5483 34.4326V34.4334ZM60.747 31.2566C58.9393 31.2566 57.4326 32.6389 57.4326 34.4334C57.4326 36.2279 58.9393 37.6094 60.747 37.6094C62.5547 37.6094 64.0728 36.2279 64.0728 34.4334C64.0728 32.6381 62.5547 31.2558 60.747 31.2558V31.2566ZM62.9156 34.4334C62.9156 35.59 61.9636 36.5465 60.747 36.5465C59.5417 36.5465 58.5903 35.59 58.5903 34.4334C58.5903 33.276 59.5417 32.3195 60.747 32.3195C61.9636 32.3195 62.9156 33.276 62.9156 34.4326V34.4334ZM70.1389 37.5625L71.2241 37.4203V29.0713L70.0664 29.2612V32.1186C69.5247 31.634 68.7534 31.2566 67.9216 31.2566C66.1859 31.2566 64.776 32.5912 64.7998 34.4215C64.8236 36.0865 66.1621 37.6094 67.9216 37.6094C68.826 37.6094 69.5604 37.2551 70.1389 36.6061V37.5625ZM70.2115 34.4445C70.2115 35.7315 69.2714 36.5465 68.0185 36.5465C66.897 36.5465 65.9575 35.5432 65.9575 34.4445C65.9575 33.3229 66.8126 32.3195 67.9703 32.3195C69.2232 32.3195 70.2115 33.1576 70.2115 34.4445ZM73.7945 37.4203V33.7367H76.3258V32.6738H73.7945V30.3828H77.0851L76.88 29.3199H72.6141V37.5625L73.7945 37.4203ZM79.0775 37.4203V31.2558L77.921 31.4457V37.6102L79.0775 37.4203ZM77.7396 29.8752L78.5109 30.761L79.2577 29.8752L78.4871 28.9775L77.7396 29.8752ZM81.6411 37.4203V34.5986C81.6411 33.0512 82.5325 32.3076 83.5689 32.3664L84.0512 31.2328H83.4726C82.5325 31.2328 81.942 31.7881 81.5924 32.5436H81.5686V31.2566L80.4834 31.4457V37.6102L81.6411 37.4203ZM85.6412 37.4203V33.477C85.6412 32.5555 86.4493 32.26 86.9684 32.26C87.6784 32.26 87.9555 32.6969 87.9555 33.3586V37.6094L89.1132 37.4203V33.477C89.1132 32.5555 89.9201 32.26 90.4381 32.26C91.1492 32.26 91.4263 32.6969 91.4263 33.3586V37.6094L92.5835 37.4203V33.1465C92.5835 31.8357 91.6558 31.2558 90.5588 31.2558C89.7269 31.2558 88.9925 31.6578 88.7505 32.1297C88.4496 31.4457 87.8835 31.2558 87.1605 31.2558C86.4249 31.2558 85.8464 31.6229 85.6174 32.0717H85.5936V31.2566L84.4847 31.4457V37.6102L85.6412 37.4203ZM93.4187 36.6061C93.9729 37.3147 94.6603 37.6094 95.5636 37.6094C96.685 37.6094 97.6733 36.8658 97.6733 35.7084C97.6733 33.3348 94.6722 34.3389 94.6722 32.9924C94.6722 32.426 95.1187 32.26 95.6129 32.26C96.1427 32.26 96.4198 32.4729 96.7813 32.8391L97.4681 32.0947C96.8533 31.5045 96.3473 31.2566 95.4922 31.2566C94.3832 31.2566 93.5156 32.036 93.5156 33.1457C93.5156 35.3779 96.5161 34.3031 96.5161 35.8498C96.5161 36.3821 95.9495 36.6061 95.491 36.6061C94.9136 36.6061 94.564 36.3463 94.2143 35.9444L93.4187 36.6061Z" fill="#4D91F6"/>
<path d="M64.6149 14.5303C64.6092 13.6454 65.453 13.4833 65.453 13.4833H75.3487V9.11816H64.4472C60.5032 10.0953 60.4221 13.5056 60.4221 13.5056V25.006H64.6149V14.5303Z" fill="#4D91F6"/>
<path d="M65.7893 25.0059V20.4668H70.8202C71.337 20.4612 71.3234 19.9425 71.3234 19.9425V18.8955H65.7893V15.4033C65.7972 14.6177 66.6274 14.705 66.6274 14.705H75.5161V20.4668C75.4844 24.4181 71.8271 25.0059 71.8271 25.0059H65.7893Z" fill="#4D91F6"/>
<path d="M26.715 51.8357H25.9534V51.1455H28.2679V51.8357H27.5063V55.3462H26.715V51.8357Z" fill="white"/>
<path d="M29.5393 55.4118C29.2577 55.4118 29.0197 55.3523 28.8254 55.2333C28.631 55.1143 28.4862 54.9477 28.391 54.7335C28.3394 54.6304 28.3037 54.5134 28.2839 54.3825C28.2641 54.2516 28.2542 54.0751 28.2542 53.8529C28.2542 53.6308 28.2641 53.4543 28.2839 53.3234C28.3037 53.1925 28.3394 53.0735 28.391 52.9664C28.4862 52.7522 28.631 52.5856 28.8254 52.4666C29.0197 52.3476 29.2577 52.2881 29.5393 52.2881C29.8249 52.2881 30.0649 52.3476 30.2593 52.4666C30.4537 52.5856 30.5985 52.7522 30.6937 52.9664C30.7413 53.0775 30.775 53.1984 30.7948 53.3293C30.8186 53.4602 30.8305 53.6348 30.8305 53.8529C30.8305 54.0671 30.8186 54.2397 30.7948 54.3706C30.775 54.5015 30.7413 54.6225 30.6937 54.7335C30.5985 54.9477 30.4537 55.1143 30.2593 55.2333C30.0649 55.3523 29.8249 55.4118 29.5393 55.4118ZM29.5393 54.7752C29.6504 54.7752 29.7397 54.7534 29.8071 54.7097C29.8785 54.6661 29.934 54.6026 29.9737 54.5193C30.0015 54.4559 30.0193 54.3765 30.0272 54.2813C30.0391 54.1861 30.0451 54.0433 30.0451 53.8529C30.0451 53.6586 30.0391 53.5138 30.0272 53.4186C30.0193 53.3234 30.0015 53.246 29.9737 53.1865C29.934 53.0993 29.8785 53.0338 29.8071 52.9902C29.7397 52.9466 29.6504 52.9247 29.5393 52.9247C29.4283 52.9247 29.3371 52.9466 29.2657 52.9902C29.1982 53.0338 29.1466 53.0993 29.1109 53.1865C29.0832 53.246 29.0633 53.3234 29.0514 53.4186C29.0435 53.5138 29.0395 53.6586 29.0395 53.8529C29.0395 54.0433 29.0435 54.1861 29.0514 54.2813C29.0633 54.3765 29.0832 54.4559 29.1109 54.5193C29.1863 54.6899 29.3291 54.7752 29.5393 54.7752Z" fill="white"/>
<path d="M33.785 52.8652C33.8366 52.9803 33.8723 53.1132 33.8921 53.2639C33.9159 53.4107 33.9278 53.607 33.9278 53.8529C33.9278 54.0949 33.9159 54.2893 33.8921 54.436C33.8723 54.5828 33.8366 54.7137 33.785 54.8287C33.7017 55.0112 33.5827 55.154 33.428 55.2571C33.2733 55.3603 33.0869 55.4118 32.8687 55.4118C32.5434 55.4118 32.2915 55.2928 32.113 55.0548V56.4828H31.3752V52.3535H32.1011V52.6629C32.2796 52.413 32.5355 52.2881 32.8687 52.2881C33.0869 52.2881 33.2733 52.3397 33.428 52.4428C33.5827 52.542 33.7017 52.6828 33.785 52.8652ZM33.065 54.5015C33.0928 54.438 33.1126 54.3607 33.1245 54.2694C33.1364 54.1742 33.1424 54.0354 33.1424 53.8529C33.1424 53.6665 33.1364 53.5257 33.1245 53.4305C33.1126 53.3353 33.0928 53.2579 33.065 53.1984C32.9857 53.016 32.8389 52.9247 32.6247 52.9247C32.4581 52.9247 32.3312 52.9823 32.2439 53.0973C32.1567 53.2123 32.113 53.3789 32.113 53.5971V54.0969C32.113 54.3151 32.1567 54.4836 32.2439 54.6026C32.3312 54.7177 32.4581 54.7752 32.6247 54.7752C32.7318 54.7752 32.8211 54.7514 32.8925 54.7038C32.9679 54.6562 33.0254 54.5888 33.065 54.5015Z" fill="white"/>
<path d="M37.1975 55.4358C36.8405 55.4358 36.537 55.3605 36.2871 55.2097C36.0412 55.055 35.8528 54.8329 35.7219 54.5433C35.6545 54.3926 35.6049 54.2201 35.5731 54.0257C35.5454 53.8313 35.5315 53.5715 35.5315 53.2462C35.5315 52.9249 35.5454 52.6671 35.5731 52.4727C35.6049 52.2744 35.6564 52.0979 35.7278 51.9432C35.8548 51.6576 36.0392 51.4394 36.2812 51.2887C36.5271 51.134 36.8306 51.0566 37.1915 51.0566C37.4097 51.0566 37.608 51.0904 37.7865 51.1578C37.969 51.2213 38.1277 51.3145 38.2625 51.4374C38.4093 51.5723 38.5184 51.7349 38.5898 51.9253C38.6652 52.1157 38.7068 52.3418 38.7147 52.6036H37.8817C37.8778 52.437 37.8579 52.3042 37.8222 52.205C37.7905 52.1019 37.7389 52.0166 37.6675 51.9491C37.5961 51.8936 37.5208 51.852 37.4414 51.8242C37.3621 51.7925 37.2669 51.7766 37.1558 51.7766C36.8345 51.7766 36.6104 51.9174 36.4835 52.199C36.4399 52.2982 36.4081 52.4212 36.3883 52.5679C36.3724 52.7107 36.3645 52.9368 36.3645 53.2462C36.3645 53.5517 36.3724 53.7798 36.3883 53.9305C36.4081 54.0773 36.4399 54.2002 36.4835 54.2994C36.6104 54.5771 36.8365 54.7159 37.1618 54.7159C37.372 54.7159 37.5446 54.6584 37.6794 54.5433C37.7469 54.4799 37.7984 54.3986 37.8341 54.2994C37.8698 54.1963 37.8897 54.0614 37.8936 53.8948H38.7266C38.7266 54.3946 38.5799 54.7794 38.2863 55.0491C38.1515 55.176 37.9908 55.2732 37.8044 55.3406C37.618 55.4041 37.4157 55.4358 37.1975 55.4358Z" fill="white"/>
<path d="M41.6555 52.3535V55.3464H40.9118V55.0489C40.7373 55.2908 40.4874 55.4118 40.1621 55.4118C39.8805 55.4118 39.6623 55.3285 39.5076 55.1619C39.3569 54.9913 39.2815 54.7434 39.2815 54.4182V52.3535H40.0252V54.2456C40.0252 54.436 40.059 54.5729 40.1264 54.6562C40.1938 54.7355 40.3009 54.7752 40.4477 54.7752C40.7571 54.7752 40.9118 54.5947 40.9118 54.2337V52.3535H41.6555Z" fill="white"/>
<path d="M43.2905 55.4297C42.7669 55.4297 42.4278 55.2571 42.2731 54.912C42.2414 54.8406 42.2176 54.7633 42.2017 54.68C42.1898 54.5927 42.1838 54.4856 42.1838 54.3587H42.9038C42.9038 54.446 42.9078 54.5134 42.9157 54.561C42.9236 54.6046 42.9355 54.6443 42.9514 54.68C42.9831 54.7435 43.0268 54.793 43.0823 54.8287C43.1378 54.8605 43.2092 54.8763 43.2965 54.8763C43.4631 54.8763 43.5702 54.8208 43.6178 54.7097C43.6257 54.6899 43.6317 54.6681 43.6356 54.6443C43.6436 54.6205 43.6475 54.5907 43.6475 54.555C43.6475 54.4757 43.6376 54.4122 43.6178 54.3646C43.594 54.3131 43.5583 54.2714 43.5107 54.2397C43.4631 54.204 43.4036 54.1742 43.3322 54.1504C43.2608 54.1227 43.1854 54.0969 43.1061 54.0731C42.9157 54.0096 42.755 53.9382 42.6241 53.8589C42.4932 53.7796 42.3961 53.6725 42.3326 53.5376C42.3088 53.4781 42.2909 53.4206 42.279 53.365C42.2711 53.3095 42.2671 53.2401 42.2671 53.1568C42.2671 53.0021 42.2909 52.8712 42.3385 52.7641C42.406 52.6094 42.521 52.4924 42.6836 52.413C42.8502 52.3297 43.0506 52.2881 43.2846 52.2881C43.5226 52.2881 43.7229 52.3278 43.8855 52.4071C44.0482 52.4825 44.1652 52.5975 44.2366 52.7522C44.2644 52.8117 44.2842 52.8791 44.2961 52.9545C44.308 53.0259 44.3139 53.1211 44.3139 53.2401H43.6118C43.6118 53.1687 43.6079 53.1132 43.5999 53.0735C43.596 53.0338 43.588 52.9981 43.5761 52.9664C43.5246 52.8593 43.4254 52.8057 43.2786 52.8057C43.1358 52.8057 43.0426 52.8514 42.999 52.9426C42.9831 52.9743 42.9752 53.0199 42.9752 53.0794C42.9752 53.1469 42.9831 53.1965 42.999 53.2282C43.0347 53.2996 43.0942 53.3571 43.1775 53.4007C43.2648 53.4444 43.3877 53.49 43.5464 53.5376C43.6892 53.5852 43.8082 53.6328 43.9034 53.6804C43.9986 53.724 44.0859 53.7796 44.1652 53.847C44.2445 53.9105 44.306 53.9898 44.3496 54.085C44.3734 54.1366 44.3893 54.1941 44.3972 54.2575C44.4091 54.321 44.4151 54.3984 44.4151 54.4896C44.4151 54.5808 44.4091 54.6602 44.3972 54.7276C44.3853 54.795 44.3655 54.8585 44.3377 54.918C44.2624 55.0886 44.1335 55.2175 43.951 55.3047C43.7685 55.388 43.5484 55.4297 43.2905 55.4297Z" fill="white"/>
<path d="M45.9425 55.3877C45.7402 55.3877 45.5775 55.3599 45.4546 55.3044C45.3316 55.2449 45.2404 55.1517 45.1809 55.0247C45.1214 54.8938 45.0916 54.7173 45.0916 54.4952V52.9779H44.7346V52.3532H45.0916V51.6689H45.8354V52.3532H46.4363V52.9779H45.8354V54.3643C45.8354 54.5111 45.8612 54.6142 45.9127 54.6737C45.9643 54.7332 46.0516 54.7629 46.1745 54.7629C46.2539 54.7629 46.3391 54.753 46.4304 54.7332V55.3341C46.2439 55.3698 46.0813 55.3877 45.9425 55.3877Z" fill="white"/>
<path d="M48.0862 55.4118C47.8046 55.4118 47.5666 55.3523 47.3722 55.2333C47.1779 55.1143 47.0331 54.9477 46.9379 54.7335C46.8863 54.6304 46.8506 54.5134 46.8308 54.3825C46.8109 54.2516 46.801 54.0751 46.801 53.8529C46.801 53.6308 46.8109 53.4543 46.8308 53.3234C46.8506 53.1925 46.8863 53.0735 46.9379 52.9664C47.0331 52.7522 47.1779 52.5856 47.3722 52.4666C47.5666 52.3476 47.8046 52.2881 48.0862 52.2881C48.3718 52.2881 48.6118 52.3476 48.8062 52.4666C49.0005 52.5856 49.1453 52.7522 49.2405 52.9664C49.2881 53.0775 49.3218 53.1984 49.3417 53.3293C49.3655 53.4602 49.3774 53.6348 49.3774 53.8529C49.3774 54.0671 49.3655 54.2397 49.3417 54.3706C49.3218 54.5015 49.2881 54.6225 49.2405 54.7335C49.1453 54.9477 49.0005 55.1143 48.8062 55.2333C48.6118 55.3523 48.3718 55.4118 48.0862 55.4118ZM48.0862 54.7752C48.1973 54.7752 48.2865 54.7534 48.354 54.7097C48.4254 54.6661 48.4809 54.6026 48.5206 54.5193C48.5483 54.4559 48.5662 54.3765 48.5741 54.2813C48.586 54.1861 48.592 54.0433 48.592 53.8529C48.592 53.6586 48.586 53.5138 48.5741 53.4186C48.5662 53.3234 48.5483 53.246 48.5206 53.1865C48.4809 53.0993 48.4254 53.0338 48.354 52.9902C48.2865 52.9466 48.1973 52.9247 48.0862 52.9247C47.9752 52.9247 47.8839 52.9466 47.8125 52.9902C47.7451 53.0338 47.6935 53.0993 47.6578 53.1865C47.6301 53.246 47.6102 53.3234 47.5983 53.4186C47.5904 53.5138 47.5864 53.6586 47.5864 53.8529C47.5864 54.0433 47.5904 54.1861 47.5983 54.2813C47.6102 54.3765 47.6301 54.4559 47.6578 54.5193C47.7332 54.6899 47.876 54.7752 48.0862 54.7752Z" fill="white"/>
<path d="M52.9807 52.2881C53.2583 52.2881 53.4686 52.3734 53.6114 52.5439C53.7581 52.7145 53.8315 52.9644 53.8315 53.2936V55.3464H53.0937V53.4721C53.0937 53.2817 53.06 53.1429 52.9926 53.0556C52.9291 52.9684 52.8279 52.9247 52.6891 52.9247C52.5463 52.9247 52.4372 52.9723 52.3619 53.0675C52.2865 53.1627 52.2488 53.3036 52.2488 53.49V55.3464H51.511V53.4721C51.511 53.2778 51.4773 53.1389 51.4099 53.0556C51.3464 52.9684 51.2433 52.9247 51.1005 52.9247C50.9577 52.9247 50.8486 52.9723 50.7732 53.0675C50.6978 53.1627 50.6602 53.3036 50.6602 53.49V55.3464H49.9224V52.3535H50.6602V52.6451C50.8307 52.4071 51.0806 52.2881 51.4099 52.2881C51.7986 52.2881 52.0505 52.4368 52.1655 52.7343C52.2567 52.5796 52.3678 52.4666 52.4987 52.3952C52.6336 52.3238 52.7942 52.2881 52.9807 52.2881Z" fill="white"/>
<path d="M56.8598 55.4358C56.5224 55.4358 56.2448 55.3763 56.0266 55.2573C55.8124 55.1383 55.6577 54.9757 55.5625 54.7694C55.5189 54.6782 55.4891 54.581 55.4733 54.4779C55.4574 54.3708 55.4495 54.226 55.4495 54.0435H56.3182C56.3182 54.1744 56.3221 54.2736 56.3301 54.341C56.338 54.4045 56.3539 54.462 56.3777 54.5136C56.457 54.7 56.6276 54.7932 56.8892 54.7932C57.0162 54.7932 57.1233 54.7714 57.2105 54.7278C57.2978 54.6802 57.3596 54.6167 57.3953 54.5374C57.4151 54.4977 57.427 54.4581 57.431 54.4184C57.4389 54.3748 57.4429 54.3172 57.4429 54.2458C57.4429 54.1744 57.4389 54.1169 57.431 54.0733C57.423 54.0257 57.4089 53.984 57.389 53.9483C57.3573 53.873 57.3057 53.8095 57.2343 53.7579C57.1629 53.7064 57.0819 53.6627 56.9907 53.627C56.9034 53.5913 56.7842 53.5497 56.6335 53.5021L56.4907 53.4545C56.2686 53.3712 56.0841 53.28 55.9374 53.1808C55.7906 53.0816 55.6835 52.9567 55.6161 52.8059C55.5843 52.7306 55.5605 52.6512 55.5447 52.5679C55.5328 52.4807 55.5268 52.3756 55.5268 52.2526C55.5268 52.1296 55.5347 52.0265 55.5506 51.9432C55.5665 51.8599 55.5923 51.7766 55.628 51.6933C55.7192 51.495 55.8699 51.3403 56.0802 51.2292C56.2904 51.1142 56.5462 51.0566 56.8477 51.0566C57.1414 51.0566 57.389 51.1102 57.5913 51.2173C57.7936 51.3244 57.9404 51.4811 58.0316 51.6873C58.0713 51.7786 58.0991 51.8758 58.1149 51.9789C58.1308 52.0781 58.1387 52.2149 58.1387 52.3894H57.3239C57.3239 52.2625 57.3199 52.1673 57.312 52.1038C57.304 52.0404 57.2899 51.9829 57.27 51.9313C57.1907 51.7647 57.04 51.6814 56.818 51.6814C56.7029 51.6814 56.6057 51.7032 56.5264 51.7468C56.4471 51.7905 56.3915 51.85 56.3598 51.9253C56.3479 51.9571 56.34 51.9928 56.336 52.0324C56.332 52.0681 56.3301 52.1157 56.3301 52.1752C56.3301 52.2308 56.332 52.2804 56.336 52.324C56.34 52.3676 56.3499 52.4073 56.3658 52.443C56.3935 52.5025 56.4372 52.556 56.4967 52.6036C56.5601 52.6473 56.6295 52.685 56.7049 52.7167C56.7842 52.7445 56.8972 52.7821 57.0439 52.8297L57.2287 52.8892C57.4905 52.9765 57.6984 53.0697 57.8531 53.1689C58.0118 53.2681 58.1291 53.399 58.2045 53.5616C58.2402 53.637 58.264 53.7203 58.2759 53.8115C58.2917 53.8988 58.2997 54.0138 58.2997 54.1566C58.2997 54.2954 58.2917 54.4124 58.2759 54.5076C58.26 54.5989 58.2322 54.6842 58.1926 54.7635C58.0974 54.9817 57.9347 55.1483 57.7047 55.2633C57.4746 55.3783 57.193 55.4358 56.8598 55.4358Z" fill="white"/>
<path d="M60.0276 55.4118C59.746 55.4118 59.508 55.3523 59.3136 55.2333C59.1193 55.1143 58.9742 54.9477 58.879 54.7335C58.8274 54.6304 58.7917 54.5134 58.7719 54.3825C58.7521 54.2516 58.7424 54.0751 58.7424 53.8529C58.7424 53.6308 58.7521 53.4543 58.7719 53.3234C58.7917 53.1925 58.8274 53.0735 58.879 52.9664C58.9742 52.7522 59.1193 52.5856 59.3136 52.4666C59.508 52.3476 59.746 52.2881 60.0276 52.2881C60.3132 52.2881 60.5529 52.3476 60.7473 52.4666C60.9417 52.5856 61.0867 52.7522 61.1819 52.9664C61.2295 53.0775 61.263 53.1984 61.2828 53.3293C61.3066 53.4602 61.3185 53.6348 61.3185 53.8529C61.3185 54.0671 61.3066 54.2397 61.2828 54.3706C61.263 54.5015 61.2295 54.6225 61.1819 54.7335C61.0867 54.9477 60.9417 55.1143 60.7473 55.2333C60.5529 55.3523 60.3132 55.4118 60.0276 55.4118ZM60.0276 54.7752C60.1387 54.7752 60.2277 54.7534 60.2951 54.7097C60.3665 54.6661 60.422 54.6026 60.4617 54.5193C60.4895 54.4559 60.5076 54.3765 60.5155 54.2813C60.5274 54.1861 60.5331 54.0433 60.5331 53.8529C60.5331 53.6586 60.5274 53.5138 60.5155 53.4186C60.5076 53.3234 60.4895 53.246 60.4617 53.1865C60.422 53.0993 60.3665 53.0338 60.2951 52.9902C60.2277 52.9466 60.1387 52.9247 60.0276 52.9247C59.9166 52.9247 59.8253 52.9466 59.7539 52.9902C59.6865 53.0338 59.6349 53.0993 59.5992 53.1865C59.5715 53.246 59.5516 53.3234 59.5397 53.4186C59.5318 53.5138 59.5278 53.6586 59.5278 53.8529C59.5278 54.0433 59.5318 54.1861 59.5397 54.2813C59.5516 54.3765 59.5715 54.4559 59.5992 54.5193C59.6746 54.6899 59.8174 54.7752 60.0276 54.7752Z" fill="white"/>
<path d="M62.0056 52.9782H61.6724V52.3535H62.0056V51.9965C62.0056 51.6712 62.0832 51.4372 62.2379 51.2944C62.3966 51.1476 62.6465 51.0742 62.9876 51.0742C63.1106 51.0742 63.2273 51.0841 63.3384 51.104V51.7168C63.259 51.697 63.1837 51.6871 63.1123 51.6871C62.9853 51.6871 62.8924 51.7208 62.8329 51.7882C62.7774 51.8557 62.7496 51.9548 62.7496 52.0857V52.3535H63.3146V52.9782H62.7496V55.3463H62.0056V52.9782Z" fill="white"/>
<path d="M64.8602 55.3877C64.6579 55.3877 64.4952 55.3599 64.3723 55.3044C64.2493 55.2449 64.1581 55.1517 64.0986 55.0247C64.0391 54.8938 64.0096 54.7173 64.0096 54.4952V52.9779H63.6526V52.3532H64.0096V51.6689H64.7531V52.3532H65.3543V52.9779H64.7531V54.3643C64.7531 54.5111 64.7791 54.6142 64.8307 54.6737C64.8823 54.7332 64.9695 54.7629 65.0925 54.7629C65.1718 54.7629 65.2568 54.753 65.3481 54.7332V55.3341C65.1616 55.3698 64.999 55.3877 64.8602 55.3877Z" fill="white"/>
<path d="M69.8021 52.3535L68.9153 55.3464H68.1656L67.7134 53.4483L67.2612 55.3464H66.5058L65.6252 52.3535H66.3987L66.8628 54.3111L67.3507 52.3535H68.0647L68.5526 54.3111L69.0224 52.3535H69.8021Z" fill="white"/>
<path d="M72.3053 52.8057C72.345 52.893 72.3727 52.9942 72.3886 53.1092C72.4084 53.2242 72.4181 53.369 72.4181 53.5435V55.3464H71.6746V55.0429C71.4961 55.2889 71.2264 55.4118 70.8654 55.4118C70.6631 55.4118 70.4903 55.3761 70.3475 55.3047C70.2086 55.2333 70.1078 55.1262 70.0443 54.9834C70.0165 54.9239 69.9967 54.8585 69.9848 54.7871C69.9769 54.7157 69.9729 54.6225 69.9729 54.5074C69.9729 54.3884 69.9769 54.2952 69.9848 54.2278C69.9967 54.1564 70.0143 54.0909 70.0381 54.0314C70.1214 53.849 70.2642 53.7201 70.4665 53.6447C70.6688 53.5693 70.9328 53.5316 71.2581 53.5316H71.6746V53.4602C71.6746 53.3373 71.6706 53.25 71.6627 53.1984C71.6587 53.1469 71.6468 53.0973 71.627 53.0497C71.5953 52.9862 71.5477 52.9406 71.4842 52.9128C71.4247 52.8811 71.3431 52.8652 71.24 52.8652C71.1289 52.8652 71.0416 52.8811 70.9782 52.9128C70.9187 52.9406 70.8733 52.9882 70.8416 53.0556C70.8297 53.0913 70.8195 53.1251 70.8116 53.1568C70.8076 53.1885 70.8059 53.2341 70.8059 53.2936H70.0619C70.0619 53.1786 70.0681 53.0854 70.08 53.014C70.0919 52.9386 70.1117 52.8712 70.1395 52.8117C70.2188 52.6372 70.3514 52.5063 70.5379 52.419C70.7243 52.3317 70.9583 52.2881 71.24 52.2881C71.5256 52.2881 71.7539 52.3317 71.9245 52.419C72.099 52.5023 72.226 52.6312 72.3053 52.8057ZM71.1448 54.8287C71.3788 54.8287 71.5358 54.7415 71.6151 54.5669C71.6389 54.5114 71.6548 54.4519 71.6627 54.3884C71.6706 54.321 71.6746 54.2179 71.6746 54.079V54.0314H71.3295C71.1788 54.0314 71.0558 54.0453 70.9606 54.0731C70.8654 54.1009 70.8019 54.1485 70.7702 54.2159C70.7623 54.2397 70.7543 54.2675 70.7464 54.2992C70.7424 54.3309 70.7402 54.3746 70.7402 54.4301C70.7402 54.5253 70.7504 54.5987 70.7702 54.6502C70.8257 54.7692 70.9504 54.8287 71.1448 54.8287Z" fill="white"/>
<path d="M73.0354 52.3534H73.7732V52.5736C73.8287 52.4744 73.8905 52.403 73.9579 52.3594C74.0254 52.3158 74.1064 52.2939 74.2016 52.2939C74.3365 52.2939 74.4436 52.3356 74.5229 52.4189C74.6062 52.5022 74.6481 52.6133 74.6481 52.7521C74.6481 52.883 74.6062 52.9901 74.5229 53.0734C74.4436 53.1567 74.3387 53.1983 74.2078 53.1983C74.1285 53.1983 74.0571 53.1825 73.9936 53.1507C73.9341 53.119 73.8882 53.0754 73.8565 53.0198C73.8248 53.0397 73.8032 53.0674 73.7913 53.1031C73.7794 53.1349 73.7732 53.1944 73.7732 53.2816V55.3463H73.0354V52.3534Z" fill="white"/>
<path d="M76.5489 54.7038C76.5925 54.6641 76.6242 54.6165 76.6441 54.561C76.6679 54.5015 76.6815 54.4241 76.6854 54.3289H77.4295C77.4255 54.5114 77.3977 54.6641 77.3462 54.7871C77.2946 54.9061 77.217 55.0132 77.1138 55.1084C77.0028 55.2076 76.8702 55.2829 76.7155 55.3345C76.5608 55.3861 76.3919 55.4118 76.2094 55.4118C75.9199 55.4118 75.6739 55.3543 75.4716 55.2393C75.2693 55.1203 75.1209 54.9537 75.0257 54.7395C74.9781 54.6364 74.9441 54.5174 74.9242 54.3825C74.9044 54.2476 74.8948 54.0671 74.8948 53.841C74.8948 53.6149 74.9044 53.4384 74.9242 53.3115C74.9441 53.1846 74.9781 53.0675 75.0257 52.9604C75.1209 52.7462 75.2637 52.5816 75.4541 52.4666C75.6484 52.3476 75.8842 52.2881 76.1618 52.2881C76.4395 52.2881 76.6758 52.3476 76.8702 52.4666C77.0685 52.5816 77.2153 52.7443 77.3105 52.9545C77.366 53.0814 77.4017 53.2183 77.4176 53.365C77.4334 53.5078 77.4414 53.728 77.4414 54.0255H75.6382C75.6422 54.1604 75.6501 54.2675 75.662 54.3468C75.6739 54.4222 75.6921 54.4896 75.7159 54.5491C75.7952 54.7276 75.9516 54.8168 76.1856 54.8168C76.3483 54.8168 76.4695 54.7792 76.5489 54.7038ZM76.1737 52.8712C75.9476 52.8712 75.7952 52.9624 75.7159 53.1449C75.6921 53.2044 75.6739 53.2599 75.662 53.3115C75.6541 53.3591 75.6484 53.4325 75.6445 53.5316H76.6854C76.6815 53.4245 76.6758 53.3452 76.6679 53.2936C76.6599 53.2381 76.6458 53.1865 76.6259 53.1389C76.5387 52.9604 76.3879 52.8712 76.1737 52.8712Z" fill="white"/>
<path d="M79.1252 51.1455H80.458C80.8309 51.1455 81.142 51.2189 81.3919 51.3657C81.6458 51.5124 81.8345 51.7227 81.9574 51.9964C82.0209 52.1392 82.0663 52.3038 82.094 52.4902C82.1218 52.6727 82.1359 52.9246 82.1359 53.2459C82.1359 53.5672 82.1218 53.821 82.094 54.0075C82.0663 54.1899 82.0209 54.3526 81.9574 54.4954C81.8345 54.7691 81.6458 54.9793 81.3919 55.1261C81.142 55.2728 80.8309 55.3462 80.458 55.3462H79.1252V51.1455ZM80.3328 54.6501C80.5589 54.6501 80.7397 54.6124 80.8745 54.537C81.0134 54.4577 81.1182 54.3407 81.1896 54.186C81.2293 54.0947 81.257 53.9837 81.2729 53.8528C81.2888 53.7219 81.2967 53.5215 81.2967 53.2518C81.2967 52.9741 81.2888 52.7699 81.2729 52.639C81.257 52.5081 81.2293 52.397 81.1896 52.3058C81.1182 52.1511 81.0134 52.036 80.8745 51.9607C80.7397 51.8813 80.5589 51.8417 80.3328 51.8417H79.9163V54.6501H80.3328Z" fill="white"/>
<path d="M84.3147 54.7038C84.3584 54.6641 84.3901 54.6165 84.4099 54.561C84.4337 54.5015 84.4473 54.4241 84.4513 54.3289H85.1953C85.1914 54.5114 85.1636 54.6641 85.112 54.7871C85.0605 54.9061 84.9828 55.0132 84.8797 55.1084C84.7686 55.2076 84.636 55.2829 84.4813 55.3345C84.3266 55.3861 84.1578 55.4118 83.9753 55.4118C83.6857 55.4118 83.4398 55.3543 83.2375 55.2393C83.0352 55.1203 82.8867 54.9537 82.7915 54.7395C82.7439 54.6364 82.7099 54.5174 82.6901 54.3825C82.6703 54.2476 82.6606 54.0671 82.6606 53.841C82.6606 53.6149 82.6703 53.4384 82.6901 53.3115C82.7099 53.1846 82.7439 53.0675 82.7915 52.9604C82.8867 52.7462 83.0295 52.5816 83.2199 52.4666C83.4143 52.3476 83.65 52.2881 83.9277 52.2881C84.2054 52.2881 84.4417 52.3476 84.636 52.4666C84.8344 52.5816 84.9811 52.7443 85.0763 52.9545C85.1319 53.0814 85.1676 53.2183 85.1834 53.365C85.1993 53.5078 85.2072 53.728 85.2072 54.0255H83.4041C83.4081 54.1604 83.416 54.2675 83.4279 54.3468C83.4398 54.4222 83.4579 54.4896 83.4817 54.5491C83.5611 54.7276 83.7175 54.8168 83.9515 54.8168C84.1141 54.8168 84.2354 54.7792 84.3147 54.7038ZM83.9396 52.8712C83.7135 52.8712 83.5611 52.9624 83.4817 53.1449C83.4579 53.2044 83.4398 53.2599 83.4279 53.3115C83.42 53.3591 83.4143 53.4325 83.4103 53.5316H84.4513C84.4473 53.4245 84.4417 53.3452 84.4337 53.2936C84.4258 53.2381 84.4116 53.1865 84.3918 53.1389C84.3045 52.9604 84.1538 52.8712 83.9396 52.8712Z" fill="white"/>
<path d="M85.426 52.3535H86.2233L86.7707 54.4717L87.3181 52.3535H88.1154L87.1991 55.3464H86.3423L85.426 52.3535Z" fill="white"/>
<path d="M89.9942 54.7038C90.0378 54.6641 90.0695 54.6165 90.0894 54.561C90.1132 54.5015 90.1274 54.4241 90.1313 54.3289H90.8748C90.8708 54.5114 90.843 54.6641 90.7915 54.7871C90.7399 54.9061 90.6629 55.0132 90.5597 55.1084C90.4487 55.2076 90.3155 55.2829 90.1608 55.3345C90.0061 55.3861 89.8378 55.4118 89.6553 55.4118C89.3658 55.4118 89.1198 55.3543 88.9175 55.2393C88.7152 55.1203 88.5662 54.9537 88.471 54.7395C88.4234 54.6364 88.39 54.5174 88.3701 54.3825C88.3503 54.2476 88.3401 54.0671 88.3401 53.841C88.3401 53.6149 88.3503 53.4384 88.3701 53.3115C88.39 53.1846 88.4234 53.0675 88.471 52.9604C88.5662 52.7462 88.709 52.5816 88.8994 52.4666C89.0938 52.3476 89.3301 52.2881 89.6077 52.2881C89.8854 52.2881 90.1211 52.3476 90.3155 52.4666C90.5138 52.5816 90.6606 52.7443 90.7558 52.9545C90.8113 53.0814 90.847 53.2183 90.8629 53.365C90.8788 53.5078 90.8867 53.728 90.8867 54.0255H89.0841C89.0881 54.1604 89.096 54.2675 89.1079 54.3468C89.1198 54.4222 89.1374 54.4896 89.1612 54.5491C89.2405 54.7276 89.3975 54.8168 89.6315 54.8168C89.7941 54.8168 89.9148 54.7792 89.9942 54.7038ZM89.6196 52.8712C89.3935 52.8712 89.2405 52.9624 89.1612 53.1449C89.1374 53.2044 89.1198 53.2599 89.1079 53.3115C89.1 53.3591 89.0938 53.4325 89.0898 53.5316H90.1313C90.1274 53.4245 90.1211 53.3452 90.1132 53.2936C90.1053 53.2381 90.0917 53.1865 90.0718 53.1389C89.9846 52.9604 89.8338 52.8712 89.6196 52.8712Z" fill="white"/>
<path d="M91.4299 51.1455H92.1677V55.3462H91.4299V51.1455Z" fill="white"/>
<path d="M94.0042 55.4118C93.7226 55.4118 93.4846 55.3523 93.2902 55.2333C93.0958 55.1143 92.9513 54.9477 92.8561 54.7335C92.8046 54.6304 92.7689 54.5134 92.749 54.3825C92.7292 54.2516 92.719 54.0751 92.719 53.8529C92.719 53.6308 92.7292 53.4543 92.749 53.3234C92.7689 53.1925 92.8046 53.0735 92.8561 52.9664C92.9513 52.7522 93.0958 52.5856 93.2902 52.4666C93.4846 52.3476 93.7226 52.2881 94.0042 52.2881C94.2898 52.2881 94.5301 52.3476 94.7244 52.4666C94.9188 52.5856 95.0633 52.7522 95.1585 52.9664C95.2061 53.0775 95.2401 53.1984 95.2599 53.3293C95.2837 53.4602 95.2956 53.6348 95.2956 53.8529C95.2956 54.0671 95.2837 54.2397 95.2599 54.3706C95.2401 54.5015 95.2061 54.6225 95.1585 54.7335C95.0633 54.9477 94.9188 55.1143 94.7244 55.2333C94.5301 55.3523 94.2898 55.4118 94.0042 55.4118ZM94.0042 54.7752C94.1153 54.7752 94.2048 54.7534 94.2722 54.7097C94.3436 54.6661 94.3992 54.6026 94.4388 54.5193C94.4666 54.4559 94.4842 54.3765 94.4921 54.2813C94.504 54.1861 94.5102 54.0433 94.5102 53.8529C94.5102 53.6586 94.504 53.5138 94.4921 53.4186C94.4842 53.3234 94.4666 53.246 94.4388 53.1865C94.3992 53.0993 94.3436 53.0338 94.2722 52.9902C94.2048 52.9466 94.1153 52.9247 94.0042 52.9247C93.8931 52.9247 93.8019 52.9466 93.7305 52.9902C93.6631 53.0338 93.6115 53.0993 93.5758 53.1865C93.548 53.246 93.5282 53.3234 93.5163 53.4186C93.5084 53.5138 93.5044 53.6586 93.5044 53.8529C93.5044 54.0433 93.5084 54.1861 93.5163 54.2813C93.5282 54.3765 93.548 54.4559 93.5758 54.5193C93.6512 54.6899 93.794 54.7752 94.0042 54.7752Z" fill="white"/>
<path d="M98.2501 52.8652C98.3017 52.9803 98.3374 53.1132 98.3572 53.2639C98.381 53.4107 98.3929 53.607 98.3929 53.8529C98.3929 54.0949 98.381 54.2893 98.3572 54.436C98.3374 54.5828 98.3017 54.7137 98.2501 54.8287C98.1668 55.0112 98.0478 55.154 97.8931 55.2571C97.7384 55.3603 97.552 55.4118 97.3338 55.4118C97.0086 55.4118 96.7564 55.2928 96.5779 55.0548V56.4828H95.8401V52.3535H96.566V52.6629C96.7445 52.413 97.0006 52.2881 97.3338 52.2881C97.552 52.2881 97.7384 52.3397 97.8931 52.4428C98.0478 52.542 98.1668 52.6828 98.2501 52.8652ZM97.5299 54.5015C97.5577 54.438 97.5775 54.3607 97.5894 54.2694C97.6013 54.1742 97.6075 54.0354 97.6075 53.8529C97.6075 53.6665 97.6013 53.5257 97.5894 53.4305C97.5775 53.3353 97.5577 53.2579 97.5299 53.1984C97.4506 53.016 97.3038 52.9247 97.0896 52.9247C96.923 52.9247 96.796 52.9823 96.7088 53.0973C96.6215 53.2123 96.5779 53.3789 96.5779 53.5971V54.0969C96.5779 54.3151 96.6215 54.4836 96.7088 54.6026C96.796 54.7177 96.923 54.7752 97.0896 54.7752C97.1967 54.7752 97.2862 54.7514 97.3576 54.7038C97.433 54.6562 97.4902 54.5888 97.5299 54.5015Z" fill="white"/>
<path d="M102 52.2881C102.278 52.2881 102.488 52.3734 102.631 52.5439C102.777 52.7145 102.851 52.9644 102.851 53.2936V55.3464H102.113V53.4721C102.113 53.2817 102.079 53.1429 102.012 53.0556C101.948 52.9684 101.848 52.9247 101.709 52.9247C101.566 52.9247 101.457 52.9723 101.381 53.0675C101.306 53.1627 101.268 53.3036 101.268 53.49V55.3464H100.531V53.4721C100.531 53.2778 100.497 53.1389 100.429 53.0556C100.366 52.9684 100.263 52.9247 100.12 52.9247C99.9769 52.9247 99.8681 52.9723 99.7928 53.0675C99.7174 53.1627 99.6795 53.3036 99.6795 53.49V55.3464H98.9417V52.3535H99.6795V52.6451C99.85 52.4071 100.1 52.2881 100.429 52.2881C100.818 52.2881 101.07 52.4368 101.185 52.7343C101.276 52.5796 101.387 52.4666 101.518 52.3952C101.653 52.3238 101.814 52.2881 102 52.2881Z" fill="white"/>
<path d="M105.037 54.7038C105.081 54.6641 105.113 54.6165 105.132 54.561C105.156 54.5015 105.17 54.4241 105.174 54.3289H105.918C105.914 54.5114 105.886 54.6641 105.834 54.7871C105.783 54.9061 105.705 55.0132 105.602 55.1084C105.491 55.2076 105.358 55.2829 105.204 55.3345C105.049 55.3861 104.88 55.4118 104.698 55.4118C104.408 55.4118 104.162 55.3543 103.96 55.2393C103.758 55.1203 103.609 54.9537 103.514 54.7395C103.466 54.6364 103.432 54.5174 103.413 54.3825C103.393 54.2476 103.383 54.0671 103.383 53.841C103.383 53.6149 103.393 53.4384 103.413 53.3115C103.432 53.1846 103.466 53.0675 103.514 52.9604C103.609 52.7462 103.752 52.5816 103.942 52.4666C104.137 52.3476 104.372 52.2881 104.65 52.2881C104.928 52.2881 105.164 52.3476 105.358 52.4666C105.557 52.5816 105.704 52.7443 105.799 52.9545C105.854 53.0814 105.89 53.2183 105.906 53.365C105.922 53.5078 105.93 53.728 105.93 54.0255H104.127C104.13 54.1604 104.138 54.2675 104.15 54.3468C104.162 54.4222 104.18 54.4896 104.204 54.5491C104.283 54.7276 104.44 54.8168 104.674 54.8168C104.837 54.8168 104.958 54.7792 105.037 54.7038ZM104.662 52.8712C104.436 52.8712 104.283 52.9624 104.204 53.1449C104.18 53.2044 104.162 53.2599 104.15 53.3115C104.142 53.3591 104.137 53.4325 104.133 53.5316H105.174C105.17 53.4245 105.164 53.3452 105.156 53.2936C105.148 53.2381 105.134 53.1865 105.114 53.1389C105.027 52.9604 104.876 52.8712 104.662 52.8712Z" fill="white"/>
<path d="M107.966 52.2881C108.244 52.2881 108.458 52.3734 108.609 52.5439C108.763 52.7145 108.841 52.9604 108.841 53.2817V55.3464H108.103V53.4543C108.103 53.2679 108.068 53.133 107.996 53.0497C107.929 52.9664 107.823 52.9247 107.68 52.9247C107.53 52.9247 107.413 52.9704 107.33 53.0616C107.25 53.1489 107.211 53.2837 107.211 53.4662V55.3464H106.473V52.3535H107.211V52.6629C107.381 52.413 107.633 52.2881 107.966 52.2881Z" fill="white"/>
<path d="M110.442 55.3877C110.24 55.3877 110.077 55.3599 109.954 55.3044C109.831 55.2449 109.74 55.1517 109.681 55.0247C109.621 54.8938 109.592 54.7173 109.592 54.4952V52.9779H109.235V52.3532H109.592V51.6689H110.335V52.3532H110.936V52.9779H110.335V54.3643C110.335 54.5111 110.361 54.6142 110.413 54.6737C110.464 54.7332 110.552 54.7629 110.675 54.7629C110.754 54.7629 110.839 54.753 110.93 54.7332V55.3341C110.744 55.3698 110.581 55.3877 110.442 55.3877Z" fill="white"/>
<path d="M43.7561 61.6692C43.3991 61.6692 43.0956 61.5939 42.8457 61.4431C42.5998 61.2884 42.4114 61.0663 42.2805 60.7767C42.2131 60.626 42.1635 60.4537 42.1317 60.2594C42.104 60.065 42.0901 59.8049 42.0901 59.4796C42.0901 59.1583 42.104 58.9005 42.1317 58.7061C42.1635 58.5078 42.215 58.3316 42.2864 58.1769C42.4134 57.8913 42.5978 57.6731 42.8398 57.5224C43.0857 57.3677 43.3892 57.29 43.7501 57.29C43.9683 57.29 44.1666 57.324 44.3451 57.3915C44.5276 57.4549 44.6863 57.5479 44.8211 57.6708C44.9679 57.8057 45.077 57.9683 45.1484 58.1587C45.2238 58.3491 45.2654 58.5752 45.2733 58.837H44.4403C44.4364 58.6704 44.4165 58.5378 44.3808 58.4387C44.3491 58.3355 44.2975 58.25 44.2261 58.1825C44.1547 58.127 44.0794 58.0856 44 58.0579C43.9207 58.0261 43.8255 58.0103 43.7144 58.0103C43.3931 58.0103 43.169 58.1508 43.0421 58.4324C42.9985 58.5316 42.9667 58.6546 42.9469 58.8013C42.931 58.9441 42.9231 59.1702 42.9231 59.4796C42.9231 59.7851 42.931 60.0134 42.9469 60.1642C42.9667 60.3109 42.9985 60.4339 43.0421 60.5331C43.169 60.8107 43.3951 60.9496 43.7204 60.9496C43.9306 60.9496 44.1032 60.8918 44.238 60.7767C44.3055 60.7133 44.357 60.6322 44.3927 60.5331C44.4284 60.4299 44.4483 60.2951 44.4522 60.1285H45.2852C45.2852 60.6283 45.1385 61.013 44.8449 61.2828C44.7101 61.4097 44.5494 61.5066 44.363 61.574C44.1766 61.6375 43.9743 61.6692 43.7561 61.6692Z" fill="white"/>
<path d="M47.0589 61.645C46.7773 61.645 46.5393 61.5855 46.3449 61.4665C46.1505 61.3475 46.0057 61.1809 45.9105 60.9667C45.859 60.8635 45.8233 60.7468 45.8034 60.6159C45.7836 60.485 45.7737 60.3082 45.7737 60.0861C45.7737 59.8639 45.7836 59.6877 45.8034 59.5568C45.8233 59.4259 45.859 59.3069 45.9105 59.1998C46.0057 58.9856 46.1505 58.819 46.3449 58.7C46.5393 58.581 46.7773 58.5215 47.0589 58.5215C47.3445 58.5215 47.5845 58.581 47.7788 58.7C47.9732 58.819 48.118 58.9856 48.2132 59.1998C48.2608 59.3109 48.2945 59.4316 48.3143 59.5625C48.3381 59.6934 48.35 59.8679 48.35 60.0861C48.35 60.3003 48.3381 60.4731 48.3143 60.604C48.2945 60.7349 48.2608 60.8556 48.2132 60.9667C48.118 61.1809 47.9732 61.3475 47.7788 61.4665C47.5845 61.5855 47.3445 61.645 47.0589 61.645ZM47.0589 61.0086C47.17 61.0086 47.2592 60.9865 47.3266 60.9429C47.398 60.8992 47.4536 60.8358 47.4932 60.7525C47.521 60.689 47.5389 60.6097 47.5468 60.5145C47.5587 60.4193 47.5646 60.2765 47.5646 60.0861C47.5646 59.8917 47.5587 59.7472 47.5468 59.652C47.5389 59.5568 47.521 59.4792 47.4932 59.4197C47.4536 59.3324 47.398 59.2672 47.3266 59.2236C47.2592 59.18 47.17 59.1579 47.0589 59.1579C46.9478 59.1579 46.8566 59.18 46.7852 59.2236C46.7178 59.2672 46.6662 59.3324 46.6305 59.4197C46.6027 59.4792 46.5829 59.5568 46.571 59.652C46.5631 59.7472 46.5591 59.8917 46.5591 60.0861C46.5591 60.2765 46.5631 60.4193 46.571 60.5145C46.5829 60.6097 46.6027 60.689 46.6305 60.7525C46.7058 60.923 46.8487 61.0086 47.0589 61.0086Z" fill="white"/>
<path d="M51.9531 58.5215C52.2307 58.5215 52.441 58.6065 52.5838 58.7771C52.7305 58.9476 52.8039 59.1975 52.8039 59.5268V61.5798H52.0661V59.7053C52.0661 59.5149 52.0324 59.376 51.965 59.2888C51.9015 59.2015 51.8004 59.1579 51.6615 59.1579C51.5187 59.1579 51.4096 59.2055 51.3343 59.3007C51.2589 59.3959 51.2212 59.537 51.2212 59.7234V61.5798H50.4834V59.7053C50.4834 59.5109 50.4497 59.3721 50.3823 59.2888C50.3188 59.2015 50.2157 59.1579 50.0729 59.1579C49.9301 59.1579 49.821 59.2055 49.7456 59.3007C49.6703 59.3959 49.6326 59.537 49.6326 59.7234V61.5798H48.8948V58.5867H49.6326V58.8785C49.8031 58.6405 50.053 58.5215 50.3823 58.5215C50.771 58.5215 51.0229 58.67 51.1379 58.9675C51.2292 58.8128 51.3402 58.7 51.4711 58.6286C51.606 58.5572 51.7666 58.5215 51.9531 58.5215Z" fill="white"/>
<path d="M55.8394 59.0984C55.891 59.2134 55.9267 59.3466 55.9465 59.4973C55.9703 59.6441 55.9822 59.8401 55.9822 60.0861C55.9822 60.328 55.9703 60.5224 55.9465 60.6692C55.9267 60.8159 55.891 60.9468 55.8394 61.0619C55.7561 61.2443 55.6371 61.3871 55.4824 61.4903C55.3277 61.5934 55.1413 61.645 54.9231 61.645C54.5979 61.645 54.346 61.526 54.1675 61.288V62.716H53.4297V58.5867H54.1556V58.8961C54.3341 58.6462 54.5899 58.5215 54.9231 58.5215C55.1413 58.5215 55.3277 58.5731 55.4824 58.6762C55.6371 58.7754 55.7561 58.9159 55.8394 59.0984ZM55.1195 60.7349C55.1473 60.6714 55.1671 60.5938 55.179 60.5026C55.1909 60.4074 55.1968 60.2685 55.1968 60.0861C55.1968 59.8996 55.1909 59.7591 55.179 59.6639C55.1671 59.5687 55.1473 59.4911 55.1195 59.4316C55.0402 59.2491 54.8934 59.1579 54.6792 59.1579C54.5126 59.1579 54.3857 59.2157 54.2984 59.3307C54.2111 59.4457 54.1675 59.6123 54.1675 59.8305V60.3303C54.1675 60.5485 54.2111 60.7168 54.2984 60.8358C54.3857 60.9508 54.5126 61.0086 54.6792 61.0086C54.7863 61.0086 54.8755 60.9848 54.9469 60.9372C55.0223 60.8896 55.0798 60.8222 55.1195 60.7349Z" fill="white"/>
<path d="M58.7509 59.0389C58.7906 59.1261 58.8183 59.2276 58.8342 59.3426C58.854 59.4576 58.8637 59.6021 58.8637 59.7767V61.5798H58.1202V61.2761C57.9417 61.522 57.672 61.645 57.311 61.645C57.1087 61.645 56.9359 61.6093 56.7931 61.5379C56.6542 61.4665 56.5531 61.3594 56.4896 61.2166C56.4618 61.1571 56.442 61.0919 56.4301 61.0205C56.4222 60.9491 56.4182 60.8556 56.4182 60.7406C56.4182 60.6216 56.4222 60.5286 56.4301 60.4612C56.442 60.3898 56.4599 60.3241 56.4837 60.2646C56.567 60.0821 56.7098 59.9535 56.9121 59.8781C57.1144 59.8027 57.3784 59.7648 57.7037 59.7648H58.1202V59.6934C58.1202 59.5704 58.1162 59.4831 58.1083 59.4316C58.1043 59.38 58.0924 59.3307 58.0726 59.2831C58.0409 59.2196 57.9933 59.1737 57.9298 59.146C57.8703 59.1142 57.7887 59.0984 57.6856 59.0984C57.5745 59.0984 57.4872 59.1142 57.4238 59.146C57.3643 59.1737 57.3189 59.2213 57.2872 59.2888C57.2753 59.3245 57.2651 59.3585 57.2572 59.3902C57.2532 59.4219 57.2515 59.4673 57.2515 59.5268H56.5075C56.5075 59.4117 56.5134 59.3188 56.5253 59.2474C56.5372 59.172 56.557 59.1046 56.5848 59.0451C56.6641 58.8706 56.797 58.7397 56.9835 58.6524C57.1699 58.5651 57.4039 58.5215 57.6856 58.5215C57.9712 58.5215 58.1995 58.5651 58.3701 58.6524C58.5446 58.7357 58.6716 58.8643 58.7509 59.0389ZM57.5904 61.0619C57.8244 61.0619 57.9814 60.9746 58.0607 60.8001C58.0845 60.7445 58.1004 60.685 58.1083 60.6216C58.1162 60.5541 58.1202 60.451 58.1202 60.3122V60.2646H57.7751C57.6244 60.2646 57.5014 60.2787 57.4062 60.3065C57.311 60.3343 57.2475 60.3819 57.2158 60.4493C57.2079 60.4731 57.1999 60.5009 57.192 60.5326C57.188 60.5643 57.1858 60.608 57.1858 60.6635C57.1858 60.7587 57.196 60.8318 57.2158 60.8834C57.2713 61.0024 57.396 61.0619 57.5904 61.0619Z" fill="white"/>
<path d="M60.9744 58.5215C61.2521 58.5215 61.4663 58.6065 61.617 58.7771C61.7717 58.9476 61.8488 59.1936 61.8488 59.5149V61.5798H61.111V59.6877C61.111 59.5013 61.0753 59.3664 61.0039 59.2831C60.9365 59.1998 60.8316 59.1579 60.6888 59.1579C60.5381 59.1579 60.4208 59.2038 60.3375 59.295C60.2582 59.3823 60.2185 59.5171 60.2185 59.6996V61.5798H59.4807V58.5867H60.2185V58.8961C60.3891 58.6462 60.6412 58.5215 60.9744 58.5215Z" fill="white"/>
<path d="M62.8464 58.236C62.7235 58.236 62.622 58.2003 62.5427 58.1289C62.4673 58.0535 62.4299 57.9583 62.4299 57.8433C62.4299 57.7243 62.4673 57.6291 62.5427 57.5577C62.622 57.4823 62.7235 57.4443 62.8464 57.4443C62.9654 57.4443 63.0623 57.4823 63.1377 57.5577C63.217 57.6291 63.2567 57.7243 63.2567 57.8433C63.2567 57.9583 63.217 58.0535 63.1377 58.1289C63.0623 58.2003 62.9654 58.236 62.8464 58.236ZM62.4713 58.5867H63.2091V61.5799H62.4713V58.5867Z" fill="white"/>
<path d="M65.4124 60.9372C65.456 60.8975 65.4878 60.8499 65.5076 60.7944C65.5314 60.7349 65.545 60.6573 65.549 60.5621H66.293C66.289 60.7445 66.2613 60.8975 66.2097 61.0205C66.1581 61.1395 66.0805 61.2466 65.9774 61.3418C65.8663 61.441 65.7337 61.5163 65.579 61.5679C65.4243 61.6195 65.2554 61.645 65.073 61.645C64.7834 61.645 64.5375 61.5877 64.3352 61.4727C64.1329 61.3537 63.9844 61.1871 63.8892 60.9729C63.8416 60.8698 63.8076 60.7508 63.7878 60.6159C63.7679 60.481 63.7583 60.3003 63.7583 60.0742C63.7583 59.8481 63.7679 59.6718 63.7878 59.5449C63.8076 59.418 63.8416 59.3007 63.8892 59.1936C63.9844 58.9794 64.1272 58.815 64.3176 58.7C64.512 58.581 64.7477 58.5215 65.0254 58.5215C65.303 58.5215 65.5393 58.581 65.7337 58.7C65.932 58.815 66.0788 58.9777 66.174 59.1879C66.2295 59.3148 66.2652 59.4514 66.2811 59.5982C66.297 59.741 66.3049 59.9614 66.3049 60.2589H64.5018C64.5057 60.3938 64.5137 60.5009 64.5256 60.5802C64.5375 60.6556 64.5556 60.723 64.5794 60.7825C64.6587 60.961 64.8151 61.05 65.0492 61.05C65.2118 61.05 65.3331 61.0126 65.4124 60.9372ZM65.0373 59.1046C64.8112 59.1046 64.6587 59.1958 64.5794 59.3783C64.5556 59.4378 64.5375 59.4933 64.5256 59.5449C64.5176 59.5925 64.512 59.6656 64.508 59.7648H65.549C65.545 59.6577 65.5393 59.5783 65.5314 59.5268C65.5235 59.4712 65.5093 59.4197 65.4895 59.3721C65.4022 59.1936 65.2515 59.1046 65.0373 59.1046Z" fill="white"/>
<path d="M67.8452 61.6631C67.3216 61.6631 66.9828 61.4903 66.8281 61.1452C66.7963 61.0738 66.7725 60.9967 66.7567 60.9134C66.7448 60.8261 66.7385 60.719 66.7385 60.5921H67.4588C67.4588 60.6794 67.4627 60.7468 67.4707 60.7944C67.4786 60.838 67.4905 60.8777 67.5064 60.9134C67.5381 60.9769 67.5817 61.0262 67.6373 61.0619C67.6928 61.0936 67.7642 61.1095 67.8515 61.1095C68.0181 61.1095 68.1252 61.0539 68.1728 60.9429C68.1807 60.923 68.1864 60.9015 68.1903 60.8777C68.1983 60.8539 68.2022 60.8239 68.2022 60.7882C68.2022 60.7088 68.1926 60.6454 68.1728 60.5978C68.149 60.5462 68.1133 60.5048 68.0657 60.4731C68.0181 60.4374 67.9586 60.4074 67.8872 60.3836C67.8158 60.3558 67.7404 60.3303 67.6611 60.3065C67.4707 60.243 67.3097 60.1716 67.1788 60.0923C67.0479 60.013 66.951 59.9059 66.8876 59.771C66.8638 59.7115 66.8456 59.6537 66.8337 59.5982C66.8258 59.5426 66.8218 59.4735 66.8218 59.3902C66.8218 59.2355 66.8456 59.1046 66.8932 58.9975C66.9607 58.8428 67.0757 58.7255 67.2383 58.6462C67.4049 58.5629 67.6055 58.5215 67.8396 58.5215C68.0776 58.5215 68.2776 58.5612 68.4402 58.6405C68.6029 58.7159 68.7202 58.8309 68.7916 58.9856C68.8193 59.0451 68.8392 59.1125 68.8511 59.1879C68.863 59.2593 68.8686 59.3545 68.8686 59.4735H68.1665C68.1665 59.4021 68.1626 59.3466 68.1546 59.3069C68.1507 59.2672 68.1427 59.2315 68.1308 59.1998C68.0793 59.0927 67.9801 59.0389 67.8333 59.0389C67.6905 59.0389 67.5976 59.0848 67.554 59.176C67.5381 59.2077 67.5302 59.2531 67.5302 59.3126C67.5302 59.38 67.5381 59.4299 67.554 59.4616C67.5897 59.533 67.6492 59.5902 67.7325 59.6339C67.8197 59.6775 67.9427 59.7234 68.1014 59.771C68.2442 59.8186 68.3632 59.8662 68.4584 59.9138C68.5536 59.9574 68.6408 60.013 68.7202 60.0804C68.7995 60.1439 68.8607 60.2232 68.9043 60.3184C68.9281 60.37 68.944 60.4272 68.9519 60.4907C68.9638 60.5541 68.9701 60.6318 68.9701 60.723C68.9701 60.8142 68.9638 60.8936 68.9519 60.961C68.94 61.0284 68.9202 61.0919 68.8924 61.1514C68.8171 61.322 68.6884 61.4506 68.506 61.5379C68.3235 61.6212 68.1031 61.6631 67.8452 61.6631Z" fill="white"/>
<path d="M70.9675 58.236C70.8446 58.236 70.7437 58.2003 70.6644 58.1289C70.589 58.0535 70.551 57.9583 70.551 57.8433C70.551 57.7243 70.589 57.6291 70.6644 57.5577C70.7437 57.4823 70.8446 57.4443 70.9675 57.4443C71.0865 57.4443 71.184 57.4823 71.2594 57.5577C71.3387 57.6291 71.3784 57.7243 71.3784 57.8433C71.3784 57.9583 71.3387 58.0535 71.2594 58.1289C71.184 58.2003 71.0865 58.236 70.9675 58.236ZM70.593 58.5867H71.3308V61.5799H70.593V58.5867Z" fill="white"/>
<path d="M73.4705 58.5215C73.7482 58.5215 73.9624 58.6065 74.1131 58.7771C74.2678 58.9476 74.3449 59.1936 74.3449 59.5149V61.5798H73.6071V59.6877C73.6071 59.5013 73.5714 59.3664 73.5 59.2831C73.4326 59.1998 73.3277 59.1579 73.1849 59.1579C73.0342 59.1579 72.9169 59.2038 72.8336 59.295C72.7543 59.3823 72.7146 59.5171 72.7146 59.6996V61.5798H71.9768V58.5867H72.7146V58.8961C72.8852 58.6462 73.1373 58.5215 73.4705 58.5215Z" fill="white"/>
<path d="M77.0984 61.6208C76.8961 61.6208 76.7335 61.593 76.6105 61.5375C76.4876 61.478 76.3963 61.3851 76.3368 61.2581C76.2773 61.1272 76.2479 60.9504 76.2479 60.7283V59.2113H75.8909V58.5863H76.2479V57.9023H76.9913V58.5863H77.5926V59.2113H76.9913V60.5974C76.9913 60.7442 77.0174 60.8473 77.069 60.9068C77.1205 60.9663 77.2078 60.9963 77.3308 60.9963C77.4101 60.9963 77.4951 60.9861 77.5863 60.9663V61.5675C77.3999 61.6032 77.2373 61.6208 77.0984 61.6208Z" fill="white"/>
<path d="M79.5715 58.5213C79.8492 58.5213 80.0634 58.6063 80.2141 58.7769C80.3688 58.9474 80.4465 59.1934 80.4465 59.5147V61.5796H79.7087V59.6875C79.7087 59.5011 79.673 59.3662 79.6016 59.2829C79.5341 59.1996 79.4287 59.1577 79.2859 59.1577C79.1352 59.1577 79.0185 59.2036 78.9352 59.2948C78.8558 59.3821 78.8162 59.5169 78.8162 59.6994V61.5796H78.0784V57.3789H78.8162V58.8959C78.9867 58.646 79.2383 58.5213 79.5715 58.5213Z" fill="white"/>
<path d="M82.627 60.9372C82.6706 60.8975 82.7024 60.8499 82.7222 60.7944C82.746 60.7349 82.7602 60.6573 82.7641 60.5621H83.5076C83.5036 60.7445 83.4759 60.8975 83.4243 61.0205C83.3727 61.1395 83.2957 61.2466 83.1925 61.3418C83.0815 61.441 82.9483 61.5163 82.7936 61.5679C82.6389 61.6195 82.4706 61.645 82.2881 61.645C81.9986 61.645 81.7526 61.5877 81.5503 61.4727C81.348 61.3537 81.199 61.1871 81.1038 60.9729C81.0562 60.8698 81.0228 60.7508 81.0029 60.6159C80.9831 60.481 80.9729 60.3003 80.9729 60.0742C80.9729 59.8481 80.9831 59.6718 81.0029 59.5449C81.0228 59.418 81.0562 59.3007 81.1038 59.1936C81.199 58.9794 81.3418 58.815 81.5322 58.7C81.7266 58.581 81.9629 58.5215 82.2405 58.5215C82.5182 58.5215 82.7539 58.581 82.9483 58.7C83.1466 58.815 83.2934 58.9777 83.3886 59.1879C83.4441 59.3148 83.4798 59.4514 83.4957 59.5982C83.5116 59.741 83.5195 59.9614 83.5195 60.2589H81.7169C81.7209 60.3938 81.7288 60.5009 81.7407 60.5802C81.7526 60.6556 81.7702 60.723 81.794 60.7825C81.8733 60.961 82.0303 61.05 82.2643 61.05C82.427 61.05 82.5477 61.0126 82.627 60.9372ZM82.2524 59.1046C82.0263 59.1046 81.8733 59.1958 81.794 59.3783C81.7702 59.4378 81.7526 59.4933 81.7407 59.5449C81.7328 59.5925 81.7266 59.6656 81.7226 59.7648H82.7641C82.7602 59.6577 82.7539 59.5783 82.746 59.5268C82.7381 59.4712 82.7245 59.4197 82.7046 59.3721C82.6174 59.1936 82.4666 59.1046 82.2524 59.1046Z" fill="white"/>
<path d="M86.5584 61.6686C86.2331 61.6686 85.9673 61.6232 85.7611 61.532C85.5548 61.4368 85.4024 61.294 85.3032 61.1036C85.208 60.9132 85.1604 60.665 85.1604 60.3596V57.3789H85.9515V60.312C85.9515 60.5262 86.0013 60.6888 86.1005 60.7999C86.1997 60.907 86.3521 60.9608 86.5584 60.9608C86.7726 60.9608 86.9295 60.907 87.0287 60.7999C87.1279 60.6888 87.1772 60.5262 87.1772 60.312V57.3789H87.9745V60.3596C87.9745 60.661 87.9252 60.9092 87.826 61.1036C87.7268 61.294 87.5721 61.4368 87.3619 61.532C87.1556 61.6232 86.8876 61.6686 86.5584 61.6686Z" fill="white"/>
<path d="M89.914 61.6692C89.5768 61.6692 89.2992 61.6097 89.081 61.4907C88.8668 61.3717 88.7121 61.2091 88.6169 61.0028C88.5733 60.9116 88.5438 60.8147 88.5279 60.7116C88.5121 60.6045 88.5042 60.4594 88.5042 60.2769H89.3728C89.3728 60.4078 89.3768 60.507 89.3848 60.5744C89.3927 60.6379 89.4086 60.6957 89.4324 60.7473C89.5117 60.9337 89.6823 61.0266 89.9441 61.0266C90.071 61.0266 90.1781 61.0051 90.2654 60.9615C90.3526 60.9139 90.4138 60.8504 90.4495 60.7711C90.4693 60.7314 90.4813 60.6917 90.4852 60.6521C90.4932 60.6084 90.4971 60.5506 90.4971 60.4792C90.4971 60.4078 90.4932 60.3506 90.4852 60.307C90.4773 60.2594 90.4637 60.2174 90.4438 60.1817C90.4121 60.1064 90.3605 60.0429 90.2891 59.9913C90.2177 59.9398 90.1361 59.8961 90.0449 59.8604C89.9576 59.8247 89.8386 59.7834 89.6879 59.7358L89.5451 59.6882C89.323 59.6049 89.1388 59.5136 88.992 59.4145C88.8453 59.3153 88.7382 59.1901 88.6707 59.0393C88.639 58.964 88.6152 58.8846 88.5993 58.8013C88.5874 58.7141 88.5812 58.6092 88.5812 58.4863C88.5812 58.3633 88.5891 58.2602 88.605 58.1769C88.6209 58.0936 88.647 58.0103 88.6827 57.927C88.7739 57.7286 88.9246 57.5739 89.1348 57.4629C89.3451 57.3478 89.6006 57.29 89.9021 57.29C90.1956 57.29 90.4438 57.3439 90.6461 57.451C90.8484 57.5581 90.9952 57.7145 91.0864 57.9207C91.1261 58.012 91.1539 58.1094 91.1697 58.2126C91.1856 58.3117 91.1936 58.4483 91.1936 58.6228H90.3781C90.3781 58.4959 90.3741 58.4007 90.3662 58.3372C90.3583 58.2738 90.3447 58.2165 90.3248 58.165C90.2455 57.9984 90.0948 57.9151 89.8726 57.9151C89.7576 57.9151 89.6601 57.9366 89.5808 57.9802C89.5015 58.0239 89.446 58.0834 89.4142 58.1587C89.4023 58.1905 89.3944 58.2262 89.3904 58.2658C89.3864 58.3015 89.3848 58.3491 89.3848 58.4086C89.3848 58.4642 89.3864 58.514 89.3904 58.5577C89.3944 58.6013 89.4046 58.641 89.4204 58.6767C89.4482 58.7362 89.4918 58.7894 89.5513 58.837C89.6148 58.8807 89.6839 58.9186 89.7593 58.9504C89.8386 58.9781 89.952 59.0155 90.0987 59.0631L90.2829 59.1226C90.5447 59.2099 90.7532 59.3034 90.9079 59.4026C91.0666 59.5017 91.1833 59.6326 91.2587 59.7953C91.2944 59.8706 91.3182 59.9539 91.3301 60.0452C91.346 60.1324 91.3539 60.2475 91.3539 60.3903C91.3539 60.5291 91.346 60.6458 91.3301 60.741C91.3142 60.8323 91.2865 60.9178 91.2468 60.9972C91.1516 61.2153 90.989 61.3819 90.7589 61.497C90.5288 61.612 90.2472 61.6692 89.914 61.6692Z" fill="white"/>
<path d="M94.007 60.7404H92.6385L92.4305 61.5796H91.6213L92.7161 57.3789H93.9299L95.0247 61.5796H94.2155L94.007 60.7404ZM93.8523 60.104L93.3287 57.9796H93.3168L92.7932 60.104H93.8523Z" fill="white"/>
</g>
<defs>
<clipPath id="clip0_221_41453">
<rect width="136" height="85" fill="white" transform="translate(0.179932 0.379883)"/>
</clipPath>
</defs>
</svg>
