<svg width="91" height="52" viewBox="0 0 91 52" fill="none" xmlns="http://www.w3.org/2000/svg">
<g opacity="0.95">
<path d="M0.0117188 0C9.17189 0 18.3021 0 27.4472 0C27.4472 17.0697 27.4472 34.1246 27.4472 51.2018C25.5956 51.2018 23.7515 51.2018 21.8773 51.2018C21.8698 51.0452 21.8623 50.8812 21.8547 50.7245C21.8171 48.2114 21.787 45.7058 21.7418 43.1927C21.7343 42.969 21.659 42.7303 21.5612 42.529C20.8612 41.0972 19.5967 40.5155 18.0838 40.3291C17.2031 40.2247 16.3225 40.1053 15.3214 39.9711C15.5171 39.8965 15.63 39.8443 15.7504 39.8071C17.2031 39.3223 18.6332 38.8078 19.958 38.0248C20.3193 37.8085 20.673 37.5624 20.9741 37.2716C21.6816 36.593 21.659 35.8621 20.8311 35.3476C20.1236 34.9151 19.3558 34.5497 18.558 34.311C17.3913 33.9605 16.172 33.7443 14.9827 33.4683C14.915 33.4534 14.8472 33.4385 14.7795 33.349C15.2537 33.2148 15.7354 33.1029 16.1945 32.9314C17.4515 32.4765 18.7085 32.0142 19.9429 31.5071C20.3268 31.3505 20.673 31.0745 20.9816 30.7837C21.4332 30.3586 21.4182 29.859 20.9139 29.516C20.387 29.1506 19.7999 28.8299 19.1978 28.6286C17.7752 28.1587 16.3225 27.771 14.8773 27.3534C14.644 27.2862 14.4107 27.2042 14.0945 27.0998C15.2461 26.8463 16.315 26.6524 17.3612 26.369C18.2795 26.1229 19.1752 25.8022 20.0558 25.4592C20.4096 25.325 20.7332 25.0789 21.0193 24.8253C21.4332 24.4525 21.4633 23.9603 21.0494 23.58C20.6881 23.2444 20.2741 22.9461 19.8375 22.7149C18.4451 21.9916 16.9322 21.5739 15.4193 21.1638C15.2762 21.1265 15.1408 21.0818 14.9902 20.9774C15.4042 20.8431 15.8332 20.7313 16.2397 20.5672C17.3838 20.1049 18.5354 19.65 19.6494 19.1205C20.0633 18.9266 20.4397 18.591 20.7633 18.2554C21.215 17.7782 21.1999 17.2263 20.6881 16.8162C20.1913 16.4135 19.6343 16.0332 19.0322 15.8169C17.5343 15.2651 15.9988 14.8102 14.4784 14.3105C14.3881 14.2807 14.2902 14.2509 14.1171 14.1912C14.8999 14.0197 15.615 13.9153 16.2999 13.7065C17.3537 13.3858 18.3924 13.0279 19.416 12.6326C19.7773 12.4909 20.1085 12.2225 20.3945 11.954C20.9139 11.4693 20.9289 10.91 20.4021 10.4253C20.0483 10.1046 19.6343 9.82124 19.2053 9.61244C17.7827 8.90404 16.2472 8.53864 14.7042 8.21054C13.6655 7.98674 12.6117 7.82274 11.5655 7.64374C11.4601 7.62884 11.3021 7.65124 11.2418 7.72574C10.6773 8.38944 10.1203 9.06064 9.51819 9.78394C10.1806 9.88094 10.7827 9.94804 11.3773 10.0599C12.6719 10.2985 13.959 10.552 15.2461 10.8056C15.4795 10.8503 15.7053 10.9473 15.9085 11.0517C16.0139 11.1039 16.0816 11.2381 16.1719 11.3351C16.0816 11.4171 15.9988 11.5364 15.8935 11.5662C15.2913 11.7228 14.6816 11.9242 14.0719 11.9764C11.0085 12.2299 7.95259 12.4537 4.88914 12.6625C3.41387 12.7594 1.93108 12.7967 0.455809 12.8564C0.320319 12.8638 0.184839 12.8564 0.0267787 12.8564C0.0117187 8.56844 0.0117188 4.29541 0.0117188 0Z" fill="white"/>
<path d="M37.2035 33.7078C37.3465 33.0068 37.4895 32.3058 37.625 31.6048C37.9185 30.1581 38.2271 28.7114 38.4755 27.2572C38.5508 26.8247 38.7841 26.7054 39.1379 26.6979C39.8605 26.6755 40.5906 26.6904 41.3583 26.6904C41.8175 29.0171 42.2691 31.3363 42.7207 33.6556C42.7433 33.6556 42.7734 33.6556 42.796 33.6556C43.4508 31.3587 44.1056 29.0619 44.7605 26.7725C45.7691 26.7725 46.7476 26.7725 47.7562 26.7725C47.4777 27.7643 47.2067 28.7263 46.9282 29.6957C46.2056 32.2238 45.4755 34.7592 44.768 37.2873C44.6777 37.6005 44.5572 37.7198 44.211 37.7123C43.1723 37.6825 42.1336 37.7049 41.0798 37.7049C40.711 35.8182 40.3572 34.0135 40.0035 32.2089C39.9809 32.2089 39.9508 32.2088 39.9282 32.2014C39.5594 34.0359 39.1906 35.8629 38.8067 37.7795C37.64 37.7869 36.4658 37.7944 35.2917 37.8093C35.0132 37.8167 35.0508 37.6005 35.0132 37.4513C34.5239 35.4379 34.0347 33.4244 33.5529 31.4035C33.2218 30.0164 32.8831 28.6293 32.5519 27.2423C32.5293 27.1379 32.5067 27.0335 32.4766 26.8694C33.2895 26.8694 34.0648 26.8694 34.84 26.8694C35.4572 26.8694 35.4572 26.8694 35.6003 27.4735C36.1046 29.5466 36.6089 31.6197 37.1056 33.7003C37.1508 33.7078 37.1809 33.7078 37.2035 33.7078Z" fill="white"/>
<path d="M71.1602 37.8756C71.1602 34.2439 71.1602 30.6271 71.1602 27.0103C71.2204 26.9954 71.2731 26.9805 71.3182 26.9805C73.2827 26.9358 75.2473 26.8687 77.2118 26.8537C78.6118 26.8388 79.7032 27.6218 80.1172 28.8523C80.5311 30.0828 80.1021 31.3356 78.9806 32.1783C78.9505 32.2006 78.9204 32.223 78.8677 32.2677C78.9655 32.3349 79.0559 32.402 79.1462 32.4616C80.215 33.2074 80.6892 34.5422 80.3204 35.7876C79.9591 37.0255 78.8677 37.9353 77.5731 37.9577C75.4806 37.9875 73.3881 37.9428 71.2881 37.9278C71.258 37.9129 71.2279 37.8906 71.1602 37.8756ZM73.9225 35.7951C74.7956 35.7951 75.6311 35.7951 76.4666 35.7951C77.2795 35.7951 77.8591 35.2581 77.8741 34.5124C77.8892 33.7592 77.2946 33.1925 76.4666 33.185C75.7139 33.1775 74.9612 33.185 74.2086 33.185C74.1107 33.185 74.0204 33.2074 73.9225 33.2148C73.9225 34.0724 73.9225 34.9002 73.9225 35.7951ZM73.9301 31.3654C74.6827 31.3654 75.3903 31.3952 76.1053 31.358C76.7602 31.3281 77.272 30.7763 77.3021 30.135C77.3322 29.4862 76.8881 28.8448 76.2559 28.7926C75.4881 28.733 74.7128 28.7777 73.9301 28.7777C73.9301 29.6428 73.9301 30.478 73.9301 31.3654Z" fill="white"/>
<path d="M60.1602 37.868C60.1602 34.1542 60.1602 30.5449 60.1602 26.9206C60.2129 26.9057 60.2581 26.8834 60.3032 26.8834C62.3355 26.8386 64.3602 26.779 66.3925 26.7715C67.6645 26.764 68.7409 27.5918 69.1323 28.785C69.5161 29.9558 69.1172 31.216 68.1161 31.9842C68.0409 32.0438 67.9656 32.1035 67.8677 32.178C68.628 32.6404 69.1398 33.2743 69.3581 34.1244C69.8097 35.9141 68.4699 37.8158 66.6258 37.8605C64.4882 37.9053 62.343 37.868 60.1602 37.868ZM62.9301 35.7053C63.8108 35.7053 64.6688 35.7128 65.5269 35.7053C66.2871 35.6979 66.8441 35.146 66.8516 34.4227C66.8591 33.677 66.3097 33.1102 65.5344 33.0953C64.7215 33.0804 63.9086 33.0878 63.0957 33.0953C63.0355 33.0953 62.9828 33.1177 62.9301 33.1326C62.9301 33.9902 62.9301 34.8254 62.9301 35.7053ZM62.9226 31.231C63.7204 31.231 64.5108 31.2832 65.286 31.216C65.8806 31.1638 66.3022 30.5598 66.3022 29.9632C66.3022 29.3816 65.8882 28.7701 65.3237 28.7178C64.5333 28.6507 63.7355 28.7029 62.9301 28.7029C62.9226 29.5456 62.9226 30.3808 62.9226 31.231Z" fill="white"/>
<path d="M58.5571 34.0044C58.2409 34.8844 57.7592 35.6003 57.1119 36.1969C53.9657 39.1127 48.9603 37.5541 47.9517 33.3557C47.184 30.149 49.0807 26.9946 52.1969 26.2861C55.0044 25.6448 57.8646 27.4047 58.7227 30.246C58.9409 30.9619 58.956 31.6628 58.9334 32.4235C56.0581 32.4235 53.2055 32.4235 50.3528 32.4235C50.428 33.5719 51.3012 34.6159 52.5581 34.9515C53.642 35.2424 54.6055 34.9813 55.456 34.2431C55.6065 34.1088 55.8474 34.0194 56.0431 34.0119C56.8635 33.9895 57.6915 34.0044 58.5571 34.0044ZM50.5108 30.7903C51.4818 30.7903 52.4227 30.7903 53.356 30.7903C54.3044 30.7903 55.2452 30.7903 56.2087 30.7903C55.8624 29.6345 54.613 28.7769 53.3409 28.7843C52.0764 28.7992 50.8495 29.6494 50.5108 30.7903Z" fill="white"/>
<path d="M0.0078125 19.44C0.0078125 18.0231 0.0078125 16.6509 0.0078125 15.2266C0.865873 15.2937 1.70888 15.3534 2.55189 15.4354C4.75727 15.6442 6.97021 15.8306 9.16801 16.0991C11.0949 16.3377 12.9992 16.6733 14.9186 16.9865C15.2196 17.0387 15.5207 17.158 15.8067 17.2774C15.9272 17.3296 16.0175 17.4638 16.1229 17.5607C16.0099 17.6651 15.9196 17.8292 15.7841 17.8665C15.1444 18.038 14.5046 18.2394 13.8497 18.3139C11.7272 18.5675 9.59701 18.7986 7.45941 18.9776C5.08845 19.1715 2.70996 19.2908 0.331462 19.44C0.248672 19.4474 0.143293 19.44 0.0078125 19.44Z" fill="white"/>
<path d="M80.3762 26.7571C81.2418 26.7571 82.0999 26.7496 82.9579 26.772C83.0558 26.772 83.1762 26.9137 83.244 27.0181C84.0569 28.2112 84.8698 29.4044 85.7052 30.6349C85.8784 30.3888 86.0364 30.1651 86.187 29.9413C86.8192 29.0166 87.444 28.0845 88.0837 27.1672C88.1515 27.0628 88.2794 26.936 88.3848 26.936C89.2354 26.9137 90.0784 26.9286 91.0042 26.9286C90.8988 27.0926 90.8311 27.212 90.7558 27.3164C89.5891 29.0241 88.4225 30.7318 87.2708 32.447C87.1354 32.6483 87.0526 32.9243 87.0526 33.1629C87.03 34.5276 87.045 35.8997 87.045 37.2644C87.045 37.3986 87.045 37.5329 87.045 37.6895C86.1945 37.6895 85.3891 37.6895 84.5311 37.6895C84.5311 37.5403 84.5311 37.4136 84.5311 37.2793C84.5311 35.937 84.5235 34.5947 84.5386 33.2524C84.5386 32.9914 84.4633 32.7975 84.3203 32.5887C83.0031 30.6871 81.7009 28.778 80.3913 26.8689C80.3687 26.8466 80.3762 26.8167 80.3762 26.7571Z" fill="white"/>
<path d="M0 34.7129C1.11398 34.78 2.17527 34.8322 3.23656 34.9068C5.50968 35.0708 7.79034 35.2125 10.0634 35.4213C11.6064 35.563 13.1419 35.8016 14.6849 36.0105C14.9408 36.0477 15.1967 36.1447 15.4301 36.2491C15.6333 36.3386 15.6408 36.5026 15.4376 36.607C15.1817 36.7264 14.9107 36.8531 14.6322 36.8979C12.7656 37.2111 10.9064 37.5467 9.03224 37.7853C6.53334 38.0985 4.01936 38.3222 1.52043 38.5832C1.13656 38.6205 0.74516 38.6653 0.36129 38.6876C0.18065 38.7025 0.00753021 38.6951 0.00753021 38.4266C2.12342e-07 37.2036 0 35.9881 0 34.7129Z" fill="white"/>
<path d="M0.0117188 32.0966C0.0117188 30.7692 0.0117188 29.4567 0.0117188 28.1367C1.27624 28.2859 2.53323 28.435 3.78269 28.5693C6.06329 28.8153 8.34399 29.0242 10.6171 29.3001C12.1074 29.4791 13.5902 29.7326 15.0655 29.9712C15.3214 30.016 15.5623 30.1502 15.8031 30.2472C15.8031 30.2919 15.8031 30.3441 15.8031 30.3888C15.6225 30.4709 15.4494 30.6051 15.2612 30.6349C14.0569 30.8437 12.8526 31.0973 11.6332 31.2091C8.59989 31.4925 5.56656 31.7088 2.53323 31.9474C1.7128 32.022 0.869789 32.0518 0.0117188 32.0966Z" fill="white"/>
<path d="M15.901 24.0793C15.7279 24.1539 15.5623 24.2732 15.3816 24.303C14.2978 24.482 13.2139 24.6908 12.115 24.8026C8.43429 25.1755 4.75366 25.5111 1.07301 25.869C0.726779 25.9063 0.380539 25.9734 0.0117188 26.0331C0.0117188 24.7057 0.0117188 23.4081 0.0117188 22.0658C0.132149 22.0658 0.252579 22.0584 0.373009 22.0658C2.90957 22.2821 5.44613 22.4685 7.97519 22.7146C9.95469 22.9085 11.9343 23.162 13.9064 23.4081C14.3881 23.4678 14.8623 23.5946 15.3365 23.7139C15.5322 23.7661 15.7053 23.8779 15.8935 23.96C15.901 23.9973 15.901 24.042 15.901 24.0793Z" fill="white"/>
<path d="M41.043 41.6564C41.2237 41.5893 41.3742 41.5371 41.5624 41.4625C42.5785 44.0651 43.5796 46.6528 44.6333 49.3598C45.6043 46.4663 46.5452 43.6848 47.5161 40.7988C48.5323 43.6699 49.5183 46.444 50.5269 49.3076C51.4978 46.6379 52.4312 44.0651 53.372 41.4699C53.5527 41.5296 53.7032 41.5818 53.8989 41.6415C52.7849 44.7512 51.6785 47.8385 50.5344 51.0228C49.5258 48.1741 48.5473 45.4149 47.5387 42.5662C46.5677 45.4372 45.6269 48.2039 44.6559 51.0824C43.4366 47.8907 42.2473 44.7884 41.043 41.6564Z" fill="white"/>
<path d="M55.8637 22.535C53.6734 22.535 51.5132 22.535 49.2927 22.535C49.2927 22.4306 49.2927 22.2964 49.2927 22.1622C49.2927 20.9914 49.2927 19.828 49.2927 18.6572C49.2927 16.957 49.3002 15.2642 49.2852 13.5639C49.2852 13.3029 49.3454 13.1836 49.639 13.1836C51.5583 13.191 53.4777 13.191 55.397 13.191C55.4422 13.191 55.4949 13.206 55.5626 13.2134C55.5626 13.452 55.5626 13.6832 55.5626 13.9666C53.711 13.9666 51.8669 13.9666 50.0002 13.9666C50.0002 15.1374 50.0002 16.2485 50.0002 17.4119C51.7992 17.4119 53.5981 17.4119 55.4121 17.4119C55.4121 17.6878 55.4121 17.919 55.4121 18.18C53.6056 18.18 51.8142 18.18 50.0002 18.18C50.0002 19.3732 50.0002 20.5365 50.0002 21.7297C51.9497 21.7297 53.8841 21.7297 55.8562 21.7297C55.8637 21.9981 55.8637 22.2293 55.8637 22.535Z" fill="white"/>
<path d="M40.4949 17.4875C42.4594 17.4875 44.3486 17.4875 46.2755 17.4875C46.2755 16.0707 46.2755 14.6761 46.2755 13.2592C46.5239 13.2592 46.7271 13.2592 46.9529 13.2592C46.9529 16.354 46.9529 19.4339 46.9529 22.5436C46.7497 22.5436 46.539 22.5436 46.2906 22.5436C46.2906 21.1118 46.2906 19.6651 46.2906 18.1885C44.3486 18.1885 42.4519 18.1885 40.5099 18.1885C40.5099 19.583 40.5099 20.9776 40.5099 22.4019C40.239 22.4019 40.0056 22.4019 39.7422 22.4019C39.7422 19.3444 39.7422 16.2869 39.7422 13.207C39.9755 13.207 40.2089 13.207 40.4874 13.207C40.4949 14.6239 40.4949 16.0483 40.4949 17.4875Z" fill="white"/>
<path d="M68.9215 46.8543C69.8172 47.9879 70.6979 49.099 71.6011 50.24C71.4581 50.3518 71.3226 50.4562 71.1645 50.5755C70.3291 49.5166 69.486 48.5024 68.7033 47.4435C68.3721 46.9886 68.0183 46.8171 67.4613 46.8543C66.6484 46.9065 65.8355 46.8693 64.9925 46.8693C64.9925 48.0848 64.9925 49.2556 64.9925 50.4488C64.8043 50.4488 64.6463 50.4488 64.4355 50.4488C64.4355 50.3295 64.4355 50.2101 64.4355 50.0983C64.4205 47.3913 64.3979 44.6843 64.3828 41.9698C64.3828 41.4851 64.4957 41.3732 64.985 41.3658C66.2871 41.3583 67.5968 41.3956 68.899 41.3285C69.8323 41.2763 70.4194 41.7088 70.8936 42.4098C71.9699 44.0057 71.1947 46.1608 69.3581 46.7276C69.2151 46.7723 69.0871 46.8096 68.9215 46.8543ZM64.9624 46.2876C66.1065 46.2876 67.2054 46.2951 68.3043 46.2876C69.2904 46.2801 70.043 45.8402 70.5172 44.9975C70.9914 44.1473 70.7506 43.3345 70.2839 42.5739C70.0355 42.1786 69.6441 41.9251 69.1624 41.9176C67.8076 41.8952 66.4602 41.9102 65.1054 41.9176C65.0602 41.9176 65.0151 41.94 64.9624 41.9549C64.9624 43.4016 64.9624 44.8334 64.9624 46.2876Z" fill="white"/>
<path d="M73.5584 41.3652C75.0186 41.4174 76.4637 41.3876 77.8863 41.5368C79.4444 41.7008 80.5207 42.6031 81.1003 44.0573C81.4917 45.0268 81.6648 46.0335 81.5745 47.085C81.4164 48.8822 80.3551 50.0157 78.4433 50.3811C77.8261 50.493 77.2014 50.5675 76.5766 50.5899C75.5756 50.6272 74.5745 50.5974 73.5508 50.5974C73.5583 47.6145 73.5584 44.5495 73.5584 41.3652ZM74.1078 50.1798C75.5304 50.0754 76.9153 50.0455 78.2702 49.8442C80.1519 49.5608 81.0626 48.4795 81.0325 46.5928C81.0175 45.8545 80.8444 45.0939 80.6186 44.378C80.1971 43.0506 79.2261 42.2377 77.8411 42.0811C76.6143 41.9394 75.3723 41.9618 74.1153 41.9171C74.1078 44.6912 74.1078 47.3833 74.1078 50.1798Z" fill="white"/>
<path d="M36.5251 41.1055C38.038 44.2077 39.5284 47.2503 41.0337 50.3376C40.8456 50.3898 40.6875 50.4346 40.4843 50.4868C40.1456 49.8007 39.8069 49.1221 39.4907 48.4435C39.3703 48.1825 39.2273 48.0706 38.9112 48.0706C37.3305 48.0632 35.7574 48.0184 34.1768 47.9737C33.9133 47.9662 33.7703 48.0259 33.6574 48.272C33.3036 49.0326 32.9198 49.7858 32.5359 50.5688C32.3703 50.4942 32.2273 50.4271 32.0391 50.3376C33.5294 47.2652 35.0122 44.2077 36.5251 41.1055ZM39.0015 47.4517C38.1811 45.7961 37.3757 44.1555 36.5327 42.4478C35.7122 44.1257 34.9144 45.7514 34.0789 47.4517C35.7499 47.4517 37.3531 47.4517 39.0015 47.4517Z" fill="white"/>
<path d="M63.1782 50.3373C62.9599 50.3895 62.8018 50.4193 62.6212 50.4641C62.275 49.7556 61.9212 49.0546 61.59 48.3536C61.4922 48.1448 61.3943 48.0703 61.1534 48.0628C59.5502 48.0404 57.947 48.0031 56.3438 47.9509C56.0653 47.9435 55.9147 48.0106 55.8018 48.2716C55.4556 49.0248 55.0717 49.7705 54.6879 50.5461C54.5223 50.4715 54.3717 50.4044 54.1836 50.3224C55.6739 47.2574 57.1491 44.2074 58.662 41.0977C60.1825 44.1925 61.6728 47.2425 63.1782 50.3373ZM58.6696 42.4325C57.8416 44.1179 57.0513 45.7361 56.2158 47.4364C57.9018 47.4364 59.5051 47.4364 61.1459 47.4364C60.318 45.7734 59.5051 44.1328 58.6696 42.4325Z" fill="white"/>
<path d="M83.0352 49.1594C83.2083 49.0103 83.3287 48.9059 83.4642 48.794C84.1115 49.3682 84.8492 49.7709 85.6922 49.8902C86.2492 49.9648 86.8513 49.9797 87.4008 49.8679C88.2814 49.6889 88.7406 49.0103 89.0191 48.2049C89.0567 48.1005 89.004 47.9588 88.9664 47.8544C88.7782 47.3771 88.4169 47.0341 87.9578 46.8477C87.1373 46.5121 86.3019 46.2287 85.4664 45.9304C85.1051 45.8036 84.7212 45.7141 84.3675 45.565C83.3589 45.1474 83.0578 44.6105 83.1857 43.5515C83.3588 42.1048 84.3599 41.2025 85.8277 41.1503C86.5653 41.1204 87.2879 41.1428 87.9578 41.4709C88.2965 41.635 88.5976 41.8736 88.9739 42.1197C88.7782 42.2987 88.6503 42.4106 88.5072 42.5448C87.8524 42.0824 87.1374 41.8214 86.3546 41.717C84.947 41.5306 83.6449 42.7387 83.7804 44.1406C83.7954 44.2972 83.9309 44.4986 84.0739 44.5732C84.4879 44.8043 84.9169 45.0132 85.3535 45.1847C86.0836 45.4755 86.8513 45.6918 87.5664 46.0124C88.0632 46.2362 88.5524 46.5195 88.9513 46.8775C89.8696 47.6903 89.847 48.8238 88.9664 49.6963C88.4019 50.2556 87.6868 50.4794 86.9266 50.539C85.8126 50.6285 84.7589 50.3824 83.8029 49.7933C83.532 49.6143 83.3062 49.3831 83.0352 49.1594Z" fill="white"/>
<path d="M34.095 14.0572C33.0939 14.0572 32.138 14.0572 31.1445 14.0572C31.1445 13.7813 31.1445 13.5426 31.1445 13.2891C33.5606 13.2891 35.9617 13.2891 38.3853 13.2891C38.3853 13.5426 38.3853 13.7738 38.3853 14.0423C37.2488 14.0423 36.1273 14.0423 34.9531 14.0423C34.9531 16.8313 34.9531 19.5756 34.9531 22.3497C34.652 22.3497 34.3961 22.3497 34.095 22.3497C34.095 19.5905 34.095 16.8388 34.095 14.0572Z" fill="white"/>
</g>
</svg>
