<svg width="95" height="45" viewBox="0 0 95 45" fill="none" xmlns="http://www.w3.org/2000/svg">
<g id="Group" opacity="0.65">
<path id="Vector" fill-rule="evenodd" clip-rule="evenodd" d="M80.347 22.7149C80.7512 22.8619 81.1292 23.0735 81.466 23.3411C81.466 23.3411 81.466 23.3411 81.466 23.2611C81.466 23.0213 81.3594 22.6883 81.466 22.5417C81.5725 22.3951 81.9723 22.5417 82.2519 22.5417C82.5317 22.5417 82.9581 22.5417 83.3177 22.5417C83.6775 22.5417 83.7307 22.6083 83.7307 22.9413C83.7307 26.1564 83.7307 29.3714 83.7307 32.5864C83.7307 33.3724 83.7307 33.3724 82.9447 33.3724H81.6125C81.4261 33.3724 81.3594 33.3058 81.3594 33.1192C81.3594 32.9328 81.3594 32.6397 81.3594 32.3466C80.9767 32.6563 80.5502 32.9077 80.0938 33.0926C79.9074 33.0926 79.9206 32.9194 79.9206 32.7996C79.8806 32.2986 79.8806 31.7952 79.9206 31.2942C79.9206 31.121 80.1072 31.0544 80.2537 31.0011C80.9592 30.768 81.3892 30.0553 81.2662 29.3225C81.1729 28.2435 81.2662 27.151 81.2662 26.0586C81.2722 25.7396 81.1169 25.4391 80.8532 25.2594C80.5601 25.0329 80.1871 24.9396 79.9473 24.6466C79.8875 24.0976 79.8875 23.5437 79.9473 22.9947C80.0938 22.8081 80.1205 22.6349 80.347 22.7149Z" fill="#1E1D28"/>
<path id="Vector_2" fill-rule="evenodd" clip-rule="evenodd" d="M70.2198 35.6511C69.5831 36.3962 68.7158 36.9073 67.7553 37.1031H67.4089C67.2891 36.9965 67.3023 36.85 67.2891 36.7167C67.2891 36.1573 67.2891 35.5977 67.2891 35.0381C68.4579 34.6424 69.202 33.4959 69.0875 32.2672C69.0875 32.0674 69.0875 31.8676 69.0875 31.6278C68.6536 31.9484 68.1728 32.2 67.6621 32.3738C67.5155 32.2272 67.5555 32.054 67.5555 31.8808C67.5712 31.4358 67.5488 30.99 67.4889 30.5487C67.4889 30.3622 67.6621 30.3356 67.7819 30.269C68.1116 30.1131 68.4279 29.9304 68.7278 29.7227C68.8918 29.6012 68.9863 29.4073 68.9809 29.2032V25.8727C68.9894 25.6542 68.8834 25.4472 68.7011 25.3266C68.4852 25.1603 68.2582 25.009 68.0217 24.8736C67.9151 24.807 67.7686 24.7804 67.7819 24.6072C67.8127 24.1636 67.8127 23.7185 67.7819 23.275C67.7492 23.0987 67.7876 22.9168 67.8885 22.7687C68.2843 22.9166 68.6533 23.128 68.9809 23.3948C69.0608 23.3149 68.9809 23.235 68.9809 23.155C68.9809 22.5289 68.9809 22.5289 69.6204 22.5423H70.0466C70.1543 22.7417 70.1918 22.9717 70.1532 23.195V34.9183C70.2112 35.158 70.2337 35.4049 70.2198 35.6511Z" fill="#1E1D28"/>
<path id="Vector_3" fill-rule="evenodd" clip-rule="evenodd" d="M70.2217 35.6487C70.1618 35.4777 70.1345 35.2968 70.1418 35.1158C70.1418 30.915 70.1418 26.7097 70.1418 22.5C70.4615 22.5 70.7945 22.5 71.1276 22.5C71.4606 22.5 71.4207 22.5932 71.4207 22.8064C71.4207 24.5649 71.4207 26.3233 71.4207 28.0685C71.4207 29.4674 71.4207 30.8662 71.4207 32.2649C71.4373 33.4514 71.0575 34.6093 70.3416 35.5554C70.3039 35.5895 70.264 35.6206 70.2217 35.6487Z" fill="#1E1D28"/>
<path id="Vector_4" fill-rule="evenodd" clip-rule="evenodd" d="M62.5212 23.4173C63.2707 22.7835 64.2055 22.4095 65.1855 22.3516C65.4253 22.3516 65.3587 22.6046 65.372 22.7378C65.372 23.2974 65.372 23.8569 65.372 24.4031C65.372 24.6029 65.1589 24.6429 65.0123 24.7095C63.9604 25.0702 63.2261 26.0249 63.1472 27.1341C62.9408 28.4079 63.6118 29.6625 64.7858 30.1982C64.9324 30.2648 65.0789 30.318 65.1189 30.4912C65.1522 31.1036 65.1522 31.7172 65.1189 32.3297C65.1224 32.4334 65.084 32.5342 65.0123 32.6095C64.0869 32.5236 63.2113 32.151 62.5078 31.5437C62.5347 31.1533 62.5347 30.7616 62.5078 30.3713V24.6295C62.539 24.2263 62.5435 23.8212 62.5212 23.4173Z" fill="#1E1D28"/>
<path id="Vector_5" fill-rule="evenodd" clip-rule="evenodd" d="M74.8994 32.2641C74.633 32.1575 74.4998 31.9043 74.3266 31.6911C72.5294 29.2825 72.6742 25.9421 74.673 23.698L74.8328 23.5648C75.006 23.4982 75.046 23.6314 75.0726 23.7379C75.0914 23.8661 75.0914 23.9962 75.0726 24.1243C75.0726 26.6555 75.0726 29.1734 75.0726 31.7045C75.0993 31.9043 75.2058 32.1707 74.8994 32.2641Z" fill="#1E1D28"/>
<path id="Vector_6" fill-rule="evenodd" clip-rule="evenodd" d="M62.5225 23.4219C62.6823 23.4885 62.6823 23.6351 62.6823 23.7816V31.1886C62.6823 31.3351 62.6823 31.4816 62.5225 31.5482C61.7088 30.954 61.1328 30.09 60.8972 29.1103C60.2298 27.0866 60.8323 24.8597 62.4291 23.4486L62.5225 23.4219Z" fill="#1E1D28"/>
<path id="Vector_7" fill-rule="evenodd" clip-rule="evenodd" d="M89.0703 33.2896H86.0862C85.913 33.2896 85.8598 33.223 85.873 33.0498V31.7709C85.8711 31.6656 85.9039 31.5626 85.9662 31.4777C86.9788 30.2389 87.9912 28.9866 88.9903 27.7344C89.2035 27.8808 89.1769 28.1074 89.1769 28.3205C89.1769 29.1864 89.1769 30.0657 89.1769 30.9849C89.0939 31.0905 89.0181 31.2019 88.9504 31.3179C88.8705 31.4379 88.9504 31.3845 89.0437 31.4245C89.1049 31.5299 89.1147 31.6574 89.0703 31.7709C89.0703 32.1972 89.0703 32.6368 89.0703 33.1031C89.085 33.1643 89.085 33.2282 89.0703 33.2896Z" fill="#1E1D28"/>
<path id="Vector_8" fill-rule="evenodd" clip-rule="evenodd" d="M74.8986 32.2632C75.0318 32.1699 74.9919 32.0234 74.9919 31.9035V23.9103C74.9919 23.7771 74.9919 23.6039 74.832 23.5639C75.1616 23.2333 75.5563 22.9748 75.991 22.8047C76.1642 22.8713 76.1642 23.0445 76.1642 23.1909C76.1642 23.9769 76.1642 24.763 76.1642 25.549C76.1616 25.6804 76.1248 25.8089 76.0576 25.922C75.5765 26.7604 75.4156 27.7449 75.6046 28.6929C75.7308 29.5658 76.2131 30.3472 76.9368 30.8511C77.0701 30.9311 77.2432 30.9977 77.2699 31.1975C77.2699 31.7969 77.2699 32.3964 77.2699 32.9959C77.2699 33.1424 77.27 33.3822 77.0034 33.329C76.2137 33.1844 75.4826 32.8143 74.8986 32.2632Z" fill="#1E1D28"/>
<path id="Vector_9" fill-rule="evenodd" clip-rule="evenodd" d="M91.5599 24.4835V24.3637C91.4247 23.9838 91.388 23.5759 91.4534 23.1781C91.4011 22.9462 91.4392 22.7032 91.5599 22.4985L94.3975 22.4453C94.5574 22.4453 94.6107 22.5119 94.6107 22.6585C94.6107 23.1025 94.6107 23.5466 94.6107 23.9907C94.5989 24.1344 94.5321 24.268 94.4242 24.3637L91.9063 27.4544C91.9063 27.521 91.8131 27.6008 91.7598 27.6808C91.4667 27.6808 91.5333 27.4676 91.5333 27.3212C91.5333 26.7482 91.5333 26.1888 91.5333 25.6159C91.4964 25.2387 91.5054 24.8585 91.5599 24.4835Z" fill="#1E1D28"/>
<path id="Vector_10" fill-rule="evenodd" clip-rule="evenodd" d="M91.5613 24.4844C91.6216 24.8415 91.6216 25.2062 91.5613 25.5634C91.5613 26.1629 91.5613 26.7757 91.5613 27.3751C91.5613 27.4951 91.4947 27.6416 91.6813 27.6949C91.0285 28.5475 90.3491 29.4001 89.6563 30.1994C89.4432 30.4525 89.2567 30.719 89.0568 30.9721C88.857 30.9721 88.9236 30.7722 88.9236 30.6524V28.3477C88.9308 28.1492 88.9037 27.9509 88.8438 27.7615C89.7496 26.6425 90.6555 25.55 91.5613 24.4844Z" fill="#1E1D28"/>
<path id="Vector_11" fill-rule="evenodd" clip-rule="evenodd" d="M67.3047 35.0992C67.4237 35.2121 67.4787 35.3769 67.4512 35.5388C67.4512 36.085 67.4512 36.6312 67.4512 37.164C66.5721 37.3434 65.666 37.3434 64.7869 37.164C64.5521 37.146 64.3222 37.0874 64.1075 36.9909C64.0274 36.2804 64.0544 35.5618 64.1873 34.8594C65.0727 35.1644 66.0165 35.2601 66.945 35.1392C67.064 35.1188 67.1841 35.1054 67.3047 35.0992Z" fill="#1E1D28"/>
<path id="Vector_12" fill-rule="evenodd" clip-rule="evenodd" d="M77.082 33.3257C77.2686 33.3257 77.2418 33.1525 77.2418 33.0193V31.5006C77.2272 31.3709 77.2552 31.2399 77.3218 31.1276C77.4018 31.061 77.495 31.1276 77.5882 31.1276C78.3614 31.361 79.1863 31.361 79.9596 31.1276C80.0473 31.0825 80.1516 31.0825 80.2393 31.1276C80.2393 31.6338 80.2393 32.1401 80.2393 32.6463C80.2393 32.7661 80.2393 32.8861 80.3059 32.9793C79.3057 33.4711 78.1639 33.5938 77.082 33.3257Z" fill="#1E1D28"/>
<path id="Vector_13" fill-rule="evenodd" clip-rule="evenodd" d="M80.3459 22.7131C80.1594 22.7131 80.186 22.8863 80.186 23.0062V24.6182C80.0262 24.7248 79.8796 24.6182 79.7464 24.6182C79.0781 24.4119 78.3631 24.4119 77.6948 24.6182C77.5616 24.6182 77.4284 24.7248 77.2952 24.6182C77.2351 24.1449 77.2351 23.666 77.2952 23.1927C77.2784 22.9316 77.2058 22.6772 77.082 22.4467C78.1691 22.1674 79.3185 22.2612 80.3459 22.7131Z" fill="#1E1D28"/>
<path id="Vector_14" fill-rule="evenodd" clip-rule="evenodd" d="M88.937 24.3471H86.0329C85.8597 24.3471 85.7931 24.3471 85.8063 24.1207V22.6953C85.8063 22.5221 85.8063 22.4688 86.0329 22.4688H88.937C89.0051 22.5513 89.0428 22.6548 89.0436 22.7619C89.1049 23.2924 89.0688 23.8297 88.937 24.3471Z" fill="#1E1D28"/>
<path id="Vector_15" fill-rule="evenodd" clip-rule="evenodd" d="M89.0742 33.2924V31.4141H91.9251C92.0982 31.6271 92.0183 31.8937 92.0316 32.1334C92.045 32.3732 92.0316 32.5997 92.0316 32.8395C92.0316 33.0793 92.1249 33.1326 92.338 33.1326H93.3639C93.5103 33.1326 93.6703 33.1326 93.7635 33.2791L89.0742 33.2924Z" fill="#1E1D28"/>
<path id="Vector_16" fill-rule="evenodd" clip-rule="evenodd" d="M65.3065 24.4857C65.2534 23.9674 65.2534 23.4452 65.3065 22.9269C65.3065 22.7271 65.3865 22.5273 65.2266 22.3541C66.1699 22.1984 67.1382 22.3236 68.0109 22.7139V24.3391C68.0109 24.4457 68.0109 24.6055 67.8643 24.6455C67.7178 24.6855 67.6645 24.6455 67.5579 24.6455C66.9535 24.4395 66.3052 24.3981 65.6795 24.5256C65.5063 24.5523 65.3998 24.5789 65.3065 24.4857Z" fill="#1E1D28"/>
<path id="Vector_17" fill-rule="evenodd" clip-rule="evenodd" d="M65.0938 32.6114V30.4399C65.187 30.3466 65.2936 30.4399 65.3868 30.4399C65.9955 30.5849 66.6298 30.5849 67.2385 30.4399C67.345 30.3948 67.4652 30.3948 67.5715 30.4399C67.7581 30.4399 67.7181 30.6131 67.7315 30.7464V32.345C66.8927 32.6717 65.9809 32.7638 65.0938 32.6114Z" fill="#1E1D28"/>
<path id="Vector_18" fill-rule="evenodd" clip-rule="evenodd" d="M93.6966 33.2915C93.2045 33.2515 92.71 33.2515 92.2179 33.2915C91.9381 33.2915 91.8315 33.2915 91.8449 32.9451C91.8449 32.4389 91.8449 31.946 91.8449 31.4531H94.4026C94.5892 31.4531 94.6424 31.5197 94.6424 31.6929C94.6424 32.1725 94.6424 32.6387 94.6424 33.1183C94.6424 33.3049 94.6424 33.3715 94.3894 33.3715C94.1362 33.3715 93.923 33.3049 93.6966 33.2915Z" fill="#1E1D28"/>
<path id="Vector_19" fill-rule="evenodd" clip-rule="evenodd" d="M88.9375 24.3503V22.4453C89.8033 22.4453 90.6827 22.4453 91.6018 22.4453V24.3103L88.9375 24.3503Z" fill="#1E1D28"/>
<path id="Vector_20" fill-rule="evenodd" clip-rule="evenodd" d="M64.1716 34.8862V36.8712C64.1716 36.8712 64.1715 36.9644 64.0917 37.0176C63.4063 36.8524 62.7503 36.5827 62.1466 36.2184C62.0268 36.2184 62.0534 36.0852 62.1466 35.9918C62.3066 35.3524 62.4531 34.6597 62.6263 34.0469C63.1166 34.3701 63.6335 34.6509 64.1716 34.8862Z" fill="#1E1D28"/>
<path id="Vector_21" fill-rule="evenodd" clip-rule="evenodd" d="M77.0821 22.4453C77.3085 22.4453 77.3085 22.6185 77.3085 22.7783V24.6434C76.9082 25.0151 76.4855 25.3622 76.043 25.6825C76.043 24.8566 76.043 24.0439 76.043 23.2313C76.0833 23.0966 76.0833 22.9531 76.043 22.8183C76.361 22.6258 76.7143 22.499 77.0821 22.4453Z" fill="#1E1D28"/>
<path id="Vector_22" fill-rule="evenodd" clip-rule="evenodd" d="M57.8581 21.4478C57.8117 21.2495 57.6193 21.1212 57.4185 21.1547C56.0863 21.1547 54.754 21.1547 53.4218 21.1547C53.0488 21.1547 52.9822 21.2613 52.9822 21.6077C52.9822 25.3644 52.9822 29.1212 52.9822 32.8913C52.9822 33.2644 52.8756 33.3442 52.5293 33.331C51.7566 33.331 50.9839 33.331 50.2113 33.331C49.8783 33.331 49.8117 33.2244 49.8117 32.9046C49.8117 29.1212 49.8117 25.3511 49.8117 21.5677C49.8117 21.2213 49.7183 21.1547 49.3987 21.168H45.109C44.8692 21.168 44.7759 21.1014 44.7893 20.8483C44.7893 20.0224 44.7893 19.1964 44.7893 18.3571C44.7893 18.0774 44.8559 18.0108 45.1356 18.0108H55.953C55.2714 17.059 54.5092 16.1676 53.675 15.3463C51.2936 12.9664 48.6056 10.9144 45.6818 9.24492C36.6813 3.89417 26.5425 0.748898 16.0939 0.0661264C13.5213 -0.125321 10.9347 0.0996022 8.43377 0.732222C5.15572 1.47437 2.44006 3.7581 1.14669 6.8603C0.395111 8.74667 0.00640901 10.758 0.00100136 12.7886C-0.0169468 14.9823 0.206428 17.1713 0.667097 19.3162C1.00326 21.2523 1.5482 23.1462 2.29237 24.9648C4.27598 29.5738 7.17165 33.7337 10.8051 37.1943C15.4511 41.5986 21.4841 44.25 27.8705 44.6945C30.5929 44.9018 33.3309 44.7404 36.0101 44.2149C42.0587 43.125 47.6958 40.4078 52.3162 36.355C54.5304 34.4771 56.3043 32.1347 57.5117 29.4943C58.7147 26.9703 58.8397 24.0657 57.8581 21.4478ZM27.7905 31.1195C27.8036 31.3317 27.6953 31.5331 27.5109 31.639C25.9996 32.6116 24.2865 33.2266 22.5018 33.4374C20.5428 33.7414 18.5384 33.3752 16.8134 32.3983C14.7599 31.2568 13.4072 29.1704 13.2031 26.8298C12.9251 25.0598 13.2388 23.2477 14.0957 21.6742C15.2609 19.5587 17.3939 18.1535 19.7975 17.9175C22.3152 17.4705 24.9058 18.0879 26.9513 19.6226C27.1777 19.7958 27.2311 19.9158 27.0711 20.1556C26.6849 20.755 26.3119 21.3545 25.9655 21.9806C25.8189 22.2204 25.739 22.2204 25.5259 22.0606C23.9038 20.7965 21.7784 20.3764 19.7975 20.9282C17.8666 21.4145 16.4915 23.1211 16.427 25.1113C16.3667 25.8213 16.4206 26.5365 16.5868 27.2294C16.9331 28.667 17.9953 29.8249 19.3977 30.2935C21.0238 30.8766 22.8166 30.7757 24.3668 30.0137C24.5747 29.945 24.7036 29.7376 24.6732 29.5208C24.6732 28.8148 24.6732 28.0954 24.6732 27.3894C24.6732 27.1228 24.6732 27.0296 24.3268 27.0296H20.9431C20.7033 27.0296 20.6234 27.0296 20.6234 26.7232C20.6234 26.0038 20.6234 25.2978 20.6234 24.5784C20.6234 24.3653 20.69 24.3119 20.9031 24.3119H27.4175C27.7107 24.3119 27.8173 24.3119 27.8173 24.6849C27.7995 26.8164 27.7905 28.9613 27.7905 31.1195ZM45.2156 33.1044C43.6997 33.8025 41.9354 33.6976 40.513 32.8246C39.6387 32.2806 38.8411 31.622 38.1416 30.8663C37.329 30.0271 36.5164 29.1744 35.7171 28.3086C35.4055 27.9377 34.9345 27.7393 34.4515 27.7756C33.5856 27.7756 33.5856 27.7756 33.5856 28.6416C33.5856 30.0803 33.5856 31.5191 33.5856 32.9446C33.5856 33.211 33.5856 33.3176 33.2392 33.3176C32.4 33.3176 31.5606 33.3176 30.7214 33.3176C30.5082 33.3176 30.4416 33.3176 30.4416 33.0378V18.2771C30.4416 18.0773 30.4416 18.0107 30.6947 18.0107C33.0527 18.0107 35.4107 18.0107 37.7686 18.0107C38.9391 18.0148 40.0878 18.3272 41.0991 18.9166C42.3742 19.6476 43.1881 20.9788 43.2573 22.4469C43.3991 23.7231 43.026 25.0033 42.2208 26.0035C41.4156 27.0038 40.2446 27.6416 38.9676 27.7756C39.8284 28.7102 40.7788 29.558 41.8051 30.3068C42.7111 30.9146 43.8608 31.0296 44.8692 30.6132C45.1224 30.5199 45.2156 30.5466 45.2422 30.8263C45.2422 31.4525 45.3754 32.0787 45.4687 32.7048C45.4885 32.7913 45.4729 32.8823 45.4255 32.9574C45.3779 33.0324 45.3023 33.0854 45.2156 33.1044Z" fill="#1E1D28"/>
<path id="Vector_23" fill-rule="evenodd" clip-rule="evenodd" d="M33.5977 23.0335V21.0352C33.5977 20.8754 33.5977 20.7422 33.8241 20.7422C35.1563 20.7422 36.595 20.7422 37.9805 20.7422C38.5476 20.7624 39.082 21.0123 39.4614 21.4342C39.8407 21.8562 40.0322 22.4142 39.9921 22.9803C40.0248 23.548 39.8292 24.1052 39.449 24.528C39.0687 24.9508 38.5353 25.2042 37.9672 25.2317C36.635 25.3383 35.1962 25.2317 33.8107 25.2317C33.6109 25.2317 33.5977 25.1251 33.5977 24.9653V23.0335Z" fill="#1E1D28"/>
</g>
</svg>
