<svg width="177" height="27" viewBox="0 0 177 27" fill="none" xmlns="http://www.w3.org/2000/svg">
<g id="Group 101" opacity="0.65">
<g id="Mask group">
<mask id="mask0_450_43472" style="mask-type:alpha" maskUnits="userSpaceOnUse" x="0" y="0" width="177" height="27">
<g id="Group">
<path id="Clip 2" fill-rule="evenodd" clip-rule="evenodd" d="M0 0.414062H177V26.7372H0V0.414062Z" fill="white"/>
</g>
</mask>
<g mask="url(#mask0_450_43472)">
<g id="Group_2">
<path id="Fill 1" fill-rule="evenodd" clip-rule="evenodd" d="M15.3475 13.3492C16.1405 13.7826 16.9494 14.1441 17.6733 14.6372C19.4433 15.8393 20.077 17.6257 20.0186 19.7473C19.9301 22.9254 17.9494 24.9013 15.1705 25.7593C13.8501 26.1682 12.4943 26.3034 11.1243 26.305C7.57376 26.3086 4.02317 26.305 0.472586 26.305C0.00884989 26.305 0.00707993 26.305 0.00707993 25.8155C0.00707993 17.8433 0.00707993 9.87108 0 1.89712C0.00176999 1.57422 0.0814193 1.47595 0.401786 1.47946C4.10813 1.4935 7.81448 1.45665 11.5208 1.5128C13.3315 1.53912 15.0608 1.99889 16.5334 3.17638C18.2149 4.52234 18.8273 6.33508 18.6574 8.47774C18.4875 10.6256 17.3919 12.1295 15.6219 13.1737C15.521 13.2333 15.4236 13.3018 15.3493 13.3492H15.3475ZM8.27443 22.4883C9.22136 22.4883 10.1683 22.4972 11.117 22.4883C12.0675 22.4778 13.0074 22.3865 13.8959 21.997C15.0906 21.4759 15.7685 20.5562 15.8393 19.2156C15.9101 17.8784 15.3702 16.8695 14.1915 16.2604C13.2003 15.7462 12.1294 15.6235 11.0462 15.6164C8.86382 15.5954 6.68144 15.6164 4.49727 15.6042C4.19816 15.6042 4.10966 15.6954 4.11143 16.0025C4.12028 18.0328 4.11851 20.0649 4.10612 22.0935C4.10435 22.4041 4.19816 22.4972 4.49551 22.4936C5.75573 22.4832 7.0142 22.4883 8.27443 22.4883ZM4.14671 11.9365C4.22636 11.9541 4.27238 11.9681 4.32017 11.9681C6.35741 11.9681 8.39644 11.9892 10.4337 11.9506C11.3081 11.933 12.1718 11.7523 12.9541 11.2978C14.1471 10.6029 14.6002 9.51135 14.4746 8.15135C14.3595 6.91771 13.6798 6.08591 12.5594 5.71037C11.9152 5.48752 11.2408 5.36117 10.5593 5.33484C8.53627 5.28746 6.50963 5.3173 4.48301 5.3173C4.37681 5.3173 4.27061 5.32959 4.14671 5.33484V11.9383V11.9365ZM172.883 10.3747V9.5692V0.914356C172.883 0.426512 172.883 0.423003 173.364 0.423003C174.444 0.423003 175.524 0.431777 176.603 0.417738C176.894 0.414228 177 0.493196 177 0.810821C176.993 9.18139 176.993 17.5519 177 25.9226C177 26.2068 176.928 26.3139 176.637 26.3103C175.509 26.2981 174.383 26.2981 173.256 26.3103C172.973 26.3139 172.871 26.2173 172.877 25.926C172.894 25.1837 172.886 24.4396 172.885 23.6956C172.889 23.5516 172.857 23.4078 172.786 23.2814C172.656 23.4483 172.529 23.6201 172.398 23.7887C171.194 25.3382 169.681 26.3735 167.753 26.6227C165.194 26.9526 162.934 26.2086 161.058 24.3625C159.306 22.6428 158.492 20.4702 158.293 18.0188C158.129 15.9709 158.363 13.9844 159.237 12.126C160.533 9.37265 162.642 7.69854 165.609 7.28792C168.424 6.89658 170.736 7.89509 172.556 10.1395C172.63 10.2308 172.709 10.3203 172.786 10.4098L172.883 10.3747ZM167.626 10.8749C165.759 10.9486 164.246 11.7224 163.284 13.4264C162.175 15.4005 162.095 17.4977 162.883 19.6034C164.294 23.4027 168.998 24.2046 171.554 21.1126C173.193 19.1296 173.428 15.8269 172.065 13.5317C171.056 11.8347 169.578 10.9468 167.626 10.8731V10.8749ZM90.5995 23.4219C90.5818 23.6518 90.5641 23.7922 90.5641 23.9307C90.5606 24.5853 90.5517 25.2417 90.5659 25.8962C90.573 26.1981 90.4809 26.3174 90.1765 26.3121C89.0614 26.2981 87.9463 26.2946 86.8312 26.3121C86.5214 26.3174 86.4577 26.1981 86.4595 25.9015C86.4683 23.2656 86.463 20.6282 86.463 17.9924V0.910873C86.463 0.426539 86.463 0.423029 86.9356 0.423029C87.9799 0.423029 89.0224 0.423029 90.065 0.428294C90.5606 0.431803 90.5606 0.437068 90.5606 0.937196L90.5623 10.0343C90.5623 10.215 90.5783 10.3958 90.6685 10.6133C90.7747 10.473 90.881 10.3396 90.9854 10.1992C94.0121 6.09992 99.2069 6.57899 102.188 9.33759C103.809 10.838 104.71 12.7402 105.053 14.9285C105.381 17.0255 105.266 19.105 104.494 21.095C103.285 24.2133 101.08 26.1454 97.8351 26.621C95.0369 27.0316 92.697 26.0419 90.8933 23.7694C90.819 23.6763 90.7393 23.5869 90.5995 23.4219ZM101.017 16.5835C101.031 15.9815 100.848 15.0672 100.503 14.1845C99.1103 10.6398 94.6376 9.74479 92.0959 12.5052C89.9011 14.8917 89.917 19.056 92.1313 21.425C93.9809 23.4255 97.1155 23.5606 99.1333 21.7268C99.305 21.5723 99.4625 21.4057 99.6094 21.2284C100.641 19.9966 101.011 18.5278 101.018 16.5835H101.017ZM83.8831 25.9049L77.1413 15.876C76.6917 15.2074 76.69 15.2092 77.2564 14.6161C77.382 14.4845 77.5042 14.3476 77.6281 14.216C79.6317 12.1014 81.6352 9.98683 83.6353 7.86874C83.7008 7.79855 83.7504 7.71257 83.8406 7.58798C82.2175 7.58798 80.6707 7.58271 79.1237 7.60026C78.9733 7.60026 78.7892 7.7231 78.6777 7.84418C76.3218 10.429 73.973 13.0227 71.6207 15.6145C71.5552 15.6883 71.4755 15.7496 71.3251 15.8865V15.3074C71.3251 10.494 71.3216 5.67871 71.3322 0.863446C71.3322 0.524764 71.2455 0.4107 70.9109 0.415964C69.856 0.433512 68.8011 0.421229 67.7462 0.424738C67.2152 0.424738 67.2152 0.428248 67.2152 0.975756V18.0222C67.2152 20.6334 67.2205 23.2446 67.2081 25.8575C67.2081 26.2173 67.3143 26.3208 67.6612 26.3139C68.7409 26.2928 69.8206 26.2963 70.9003 26.3121C71.2189 26.3173 71.3375 26.2331 71.3322 25.8786C71.3145 24.4678 71.3463 23.055 71.3145 21.646C71.3021 21.144 71.4207 20.7668 71.7959 20.4474C72.0331 20.2438 72.2207 19.9771 72.4455 19.756C72.9411 19.2734 73.4473 18.8014 73.9642 18.3117C73.9766 18.3259 74.0438 18.4066 74.104 18.4943C75.7979 21.0002 77.4918 23.5078 79.1786 26.0137C79.3149 26.2173 79.4565 26.3121 79.706 26.3121C81.06 26.298 82.4158 26.305 83.7716 26.3033C83.8636 26.3033 83.9557 26.2893 84.1044 26.277C84.0088 26.1137 83.9504 26.0068 83.8831 25.9066V25.9049ZM41.8955 15.5796C42.0955 13.7844 41.391 12.1752 39.7504 11.5048C38.614 11.0398 37.4299 11.0626 36.2422 11.1609C34.8687 11.275 33.5695 11.6979 32.2597 12.2542L32.0332 11.5785C31.773 10.7959 31.5269 10.008 31.2455 9.23409C31.134 8.92524 31.2137 8.80591 31.4898 8.68483C33.32 7.86181 35.2953 7.40028 37.3042 7.32658C38.9733 7.26867 40.6087 7.39326 42.1592 8.09871C44.1593 9.00946 45.2974 10.638 45.7434 12.7999C45.8886 13.5071 45.9629 14.2441 45.9665 14.9671C45.9895 18.5821 45.9771 22.197 45.9771 25.8119C45.9771 26.3034 45.9771 26.3052 45.4815 26.3052C44.4389 26.3052 43.3964 26.291 42.3521 26.3157C41.9786 26.3244 41.8813 26.1981 41.9008 25.8295C41.9291 25.2662 41.9078 24.696 41.9078 24.0291C41.7698 24.1571 41.6901 24.2151 41.6246 24.2871C40.3131 25.7401 38.6866 26.4946 36.7785 26.6596C35.2386 26.7947 33.7625 26.5789 32.3889 25.8348C30.2702 24.6889 29.3923 22.627 29.5605 20.3246C29.7693 17.4695 31.6544 15.7709 34.1359 15.1778C36.5555 14.5986 38.9645 14.7794 41.3468 15.4462C41.4972 15.4883 41.6477 15.5374 41.7963 15.5796C41.8176 15.5849 41.8424 15.5796 41.8955 15.5796ZM42.0216 19.3085C42.0216 19.1594 42.0039 19.0085 42.0251 18.8645C42.0888 18.4539 41.9154 18.2504 41.5295 18.1819C40.4711 17.9959 39.4232 17.731 38.3559 17.6222C37.1665 17.5064 35.9806 17.6415 34.915 18.2872C34.0442 18.8137 33.6282 19.628 33.6282 20.6598C33.6282 21.6846 34.0601 22.4603 34.9363 22.9656C36.0089 23.5851 37.1629 23.5974 38.3258 23.4043C40.0551 23.1183 42.0357 21.9777 42.0216 19.3085ZM139.82 15.5971C140.033 13.5019 139.095 11.7189 136.893 11.268C135.063 10.8924 133.27 11.1556 131.512 11.7418C131.069 11.8892 130.636 12.0664 130.167 12.2401C129.795 11.1205 129.43 10.0132 129.048 8.85329C129.501 8.66377 129.924 8.46722 130.36 8.30578C133.137 7.27044 135.981 6.9493 138.868 7.6758C141.631 8.37071 143.24 10.2554 143.727 13.1351C143.845 13.837 143.889 14.56 143.893 15.276C143.911 18.7769 143.9 22.2812 143.9 25.7839C143.9 26.3069 143.9 26.307 143.381 26.307H139.822V24.0413C139.691 24.1537 139.62 24.2046 139.562 24.2695C138.227 25.7559 136.567 26.5174 134.616 26.6666C133.165 26.7772 131.769 26.5876 130.462 25.9086C128.372 24.8258 127.413 23.0447 127.471 20.644C127.542 17.6239 129.418 15.8111 132.069 15.1778C134.547 14.5793 137.018 14.7881 139.456 15.4989C139.567 15.534 139.68 15.5602 139.82 15.5971ZM135.138 23.522C135.507 23.4851 135.882 23.4763 136.245 23.4078C137.602 23.1465 138.767 22.5621 139.494 21.2706C139.944 20.4738 139.947 19.5982 139.947 18.7154C139.947 18.447 139.864 18.3241 139.618 18.2399C138.27 17.7697 136.845 17.5537 135.415 17.6028C134.429 17.6379 133.468 17.8205 132.623 18.4276C131.105 19.5191 131.213 22.0199 132.823 22.9499C133.544 23.3658 134.317 23.5289 135.138 23.522ZM106.808 17.0028C106.868 11.4136 111.11 7.17216 116.553 7.202C121.78 7.23182 126.161 11.2171 126.141 16.9799C126.122 22.7674 121.629 26.7525 116.392 26.7368C110.898 26.721 106.781 22.3497 106.809 17.0028H106.808ZM116.525 23.0463C117.693 23.0394 118.806 22.7147 119.637 22.0777C121.569 20.5984 122.208 18.5628 121.961 16.1691C121.686 13.5246 119.748 11.1819 116.951 10.9521C114.879 10.7818 113.176 11.4961 111.978 13.2825C110.96 14.8092 110.707 16.5202 111.057 18.3172C111.61 21.1371 113.799 23.0745 116.525 23.0463ZM54.1192 7.89686C50.5332 9.38846 47.8871 13.2035 48.3313 18.0626C48.6995 22.1039 51.4501 25.6066 55.691 26.5437C59.1246 27.3054 63.6098 25.7348 64.9763 23.2814L62.6363 20.7615C62.0009 21.2599 61.4327 21.7828 60.7991 22.1952C58.7336 23.5219 56.0379 23.2903 54.3139 21.6793C51.9634 19.4805 51.7297 15.3094 53.8059 12.7753C55.6627 10.5151 58.7354 10.3887 60.9265 11.9593C61.4416 12.3278 61.9035 12.7823 62.4062 13.2123L64.9072 10.4273C62.5124 7.41604 57.8628 6.33856 54.1192 7.89686ZM157.737 7.2266C154.593 7.16869 152.626 8.86913 151.382 11.6909L151.294 11.6365V7.62144H147.227C147.22 7.75306 147.209 7.84957 147.209 7.9496C147.208 13.9406 147.209 19.9351 147.202 25.9261C147.202 26.2192 147.287 26.3123 147.568 26.3087C148.671 26.2929 149.776 26.2947 150.878 26.3123C151.208 26.3192 151.306 26.2174 151.306 25.8752C151.288 23.6484 151.27 21.4179 151.308 19.1911C151.323 18.3294 151.406 17.4555 151.59 16.6184C152.102 14.2881 153.378 12.6175 155.697 11.9822C156.35 11.8032 157.037 11.7628 157.737 11.654V7.2266ZM22.9073 0.809113C22.9073 9.17617 22.9073 17.5415 22.902 25.9086C22.902 26.2156 22.9817 26.3174 23.2844 26.3121C24.3869 26.2963 25.4914 26.2963 26.5941 26.3121C26.9021 26.3174 27.0083 26.2279 27.0083 25.8945C27.0012 17.5275 27.0012 9.16213 27.0083 0.795074C27.0083 0.500263 26.9198 0.409011 26.6401 0.414276C25.5604 0.428314 24.4807 0.421295 23.4012 0.424805C23.2507 0.424805 23.1003 0.442353 22.9303 0.451127C22.9215 0.591514 22.9073 0.700314 22.9073 0.809113Z" fill="#1E1D28"/>
</g>
</g>
</g>
</g>
</svg>
