<svg width="168" height="29" viewBox="0 0 168 29" fill="none" xmlns="http://www.w3.org/2000/svg">
<g id="Group" opacity="0.65">
<path id="Vector" d="M167.782 20.1663C167.782 20.9129 167.255 21.4519 166.54 21.4519C165.829 21.4519 165.299 20.9129 165.299 20.1663C165.299 19.4198 165.829 18.8793 166.54 18.8793C167.255 18.8793 167.782 19.4198 167.782 20.1663ZM168.001 20.1663C168.001 19.341 167.347 18.6719 166.54 18.6719C165.738 18.6719 165.082 19.341 165.082 20.1663C165.082 20.9917 165.738 21.6594 166.54 21.6594C167.347 21.6594 168.001 20.9917 168.001 20.1663Z" fill="#1E1D28"/>
<path id="Vector_2" d="M166.811 19.8118C166.811 20.0324 166.632 20.0557 166.46 20.0557H166.307V19.5664H166.532C166.737 19.5664 166.811 19.6672 166.811 19.8118ZM167.174 20.9221L166.821 20.4151C166.759 20.3246 166.714 20.2632 166.645 20.2106C166.9 20.177 167.047 20.0353 167.047 19.8118C167.047 19.5825 166.889 19.375 166.584 19.375H166.09V20.9221H166.307V20.2296C166.426 20.2296 166.471 20.2676 166.544 20.3801L166.91 20.9221H167.174Z" fill="#1E1D28"/>
<path id="Vector_3" d="M43.0763 8.50427L40.3104 15.1075H45.8665L43.0763 8.50427ZM51.537 21.6595H48.541L46.9037 17.6771H39.2717L37.6116 21.6595H34.707L41.8091 5.03906H44.435L51.537 21.6595Z" fill="#1E1D28"/>
<path id="Vector_4" d="M77.7057 21.6598H74.8455V7.84426H69.7266V5.15625H83.0533L81.9547 7.84426H77.7057V21.6598Z" fill="#1E1D28"/>
<path id="Vector_5" d="M131.999 7.84427H123.355V12.0413H128.891V14.6374H123.355V19.0229H132.002V21.6598H120.5V5.15625H131.999V7.84427Z" fill="#1E1D28"/>
<path id="Vector_6" d="M152.263 21.6598H149.559V5.15625H152.263V21.6598Z" fill="#1E1D28"/>
<path id="Vector_7" d="M140.764 7.54027C139.116 7.54027 137.714 8.05011 137.707 9.16915C137.698 10.4796 138.503 10.9339 141.538 11.9433C144.893 13.0711 146.675 14.2179 146.656 17.0083C146.639 20.1535 144.261 21.9474 140.79 21.9474C138.333 21.9474 136.129 21.1323 134.449 19.6217L135.496 17.0331C137.02 18.3391 138.867 19.2653 140.863 19.2741C142.61 19.2829 143.853 18.4135 143.853 17.1266C143.853 16.0499 143.245 15.3341 140.3 14.3801C136.923 13.2479 134.883 12.0676 134.899 9.25534C134.919 6.45776 137.485 4.86686 140.711 4.88293C143.939 4.899 145.756 6.10568 146.031 6.26931L145.018 8.62278C144.359 8.25902 142.914 7.54027 140.764 7.54027Z" fill="#1E1D28"/>
<path id="Vector_8" d="M155.752 13.1459L162.976 5.15625H159.515L152.266 13.1459L160.232 21.6627H163.741L155.752 13.1459Z" fill="#1E1D28"/>
<path id="Vector_9" d="M91.7917 19.2837C88.62 19.2837 86.3041 16.6556 86.3041 13.4123C86.3041 10.1692 88.62 7.53964 91.7917 7.53964C94.9634 7.53964 97.2807 10.1692 97.2807 13.4123C97.2807 16.6556 94.9634 19.2837 91.7917 19.2837ZM91.7917 4.875C87.1813 4.875 83.4453 8.69812 83.4453 13.4123C83.4453 18.1266 87.1813 21.9468 91.7917 21.9468C96.4006 21.9468 100.14 18.1266 100.14 13.4123C100.14 8.69812 96.4006 4.875 91.7917 4.875Z" fill="#1E1D28"/>
<path id="Vector_10" d="M109.252 19.0186L105.992 19.0214V7.84573H109.265C112.435 7.84573 114.74 10.1437 114.74 13.3854C114.74 16.6271 112.421 19.0186 109.252 19.0186ZM109.252 5.15625H103.129V21.6598L109.252 21.6584C113.86 21.6584 117.597 18.0981 117.597 13.3854C117.597 8.67113 113.86 5.15625 109.252 5.15625Z" fill="#1E1D28"/>
<path id="Vector_11" d="M66.6074 14.3466C66.6074 19.2669 63.7843 21.9199 59.6897 21.9199C55.5965 21.9199 52.7734 19.2669 52.7734 14.3466V5.15625H55.6323V14.6944C55.6323 17.581 57.2896 19.2756 59.6897 19.2756C62.0928 19.2756 63.7501 17.581 63.7501 14.6944V5.15625H66.6074V14.3466Z" fill="#1E1D28"/>
<path id="Vector_12" d="M5.47977 28.9958C4.68495 28.9958 4.27191 28.6892 3.8754 27.977L0.253566 21.1118C0.00397727 20.6199 0 20.456 0 20.1016L5.69218 20.3582L6.99498 21.6903H18.4128L8.93249 27.6954C8.4704 27.9748 6.71291 28.9958 5.47977 28.9958Z" fill="#1E1D28"/>
<path id="Vector_13" d="M7.00021 21.6884H2.07655C0.58943 21.6884 0 20.893 0 20.0996C0 19.5975 0.157987 19.3238 0.376425 18.7659L7.55176 1.25057L7.62886 1.09687L7.7282 0.939173L7.9347 0.733363L8.23792 0.567646L8.67707 0.46875L9.4325 0.488797L14.4187 2.38385L12.7326 7.82046L7.00021 21.6884Z" fill="#1E1D28"/>
<path id="Vector_14" fill-rule="evenodd" clip-rule="evenodd" d="M21.4566 28.9965L10.1308 1.58041C9.93568 1.11359 9.62291 0.511271 8.81333 0.511271C8.08997 0.511271 7.74538 0.869416 7.55078 1.25433C7.6514 0.976749 7.95589 0.4375 8.83842 0.4375H16.6553C17.3756 0.4375 17.7211 0.871211 17.8786 1.26831L29.3319 28.9965H21.4566Z" fill="#1E1D28"/>
</g>
</svg>
