<svg width="46" height="44" viewBox="0 0 46 44" fill="none" xmlns="http://www.w3.org/2000/svg">
<g id="Group 427320336">
<path id="Vector" fill-rule="evenodd" clip-rule="evenodd" d="M0 0H2.06207V41.1966H45.5V43.2586H0V0Z" fill="#01267B"/>
<path id="Vector_2" fill-rule="evenodd" clip-rule="evenodd" d="M37.7993 8.73842L25.2493 32.0122L9.11133 21.3012L10.2517 19.5832L24.5068 29.0446L35.9843 7.75977L37.7993 8.73842Z" fill="#01267B"/>
<path id="Vector_3" fill-rule="evenodd" clip-rule="evenodd" d="M26.701 14.3809L36.4734 20.8361L35.3369 22.5566L25.5645 16.1015L26.701 14.3809Z" fill="#01267B"/>
<path id="Vector_4" fill-rule="evenodd" clip-rule="evenodd" d="M11.2402 35.5964L22.1333 15.4688L23.9468 16.4502L13.0537 36.5778L11.2402 35.5964Z" fill="url(#paint0_linear_871_6651)"/>
<g id="Group" filter="url(#filter0_d_871_6651)">
<path id="Vector_5" d="M39.5254 11.1611C41.6481 9.93562 42.3753 7.22142 41.1498 5.09879C39.9243 2.97616 37.2101 2.24889 35.0875 3.47439C32.9649 4.69989 32.2376 7.41409 33.4631 9.53672C34.6886 11.6594 37.4028 12.3866 39.5254 11.1611Z" fill="white"/>
</g>
<path id="Vector_6" d="M38.1934 8.85507C39.0424 8.36487 39.3333 7.27919 38.8431 6.43014C38.3529 5.58109 37.2673 5.29018 36.4182 5.78038C35.5692 6.27058 35.2782 7.35626 35.7684 8.20532C36.2586 9.05437 37.3443 9.34527 38.1934 8.85507Z" fill="#0045E6"/>
<g id="Group_2" filter="url(#filter1_d_871_6651)">
<path id="Vector_7" d="M27.1524 33.8447C29.275 32.6192 30.0023 29.905 28.7768 27.7824C27.5513 25.6598 24.8371 24.9325 22.7145 26.158C20.5918 27.3835 19.8646 30.0977 21.0901 32.2203C22.3156 34.3429 25.0298 35.0702 27.1524 33.8447Z" fill="white"/>
</g>
<path id="Vector_8" d="M25.8203 31.5387C26.6694 31.0485 26.9603 29.9628 26.4701 29.1137C25.9799 28.2647 24.8942 27.9738 24.0452 28.464C23.1961 28.9542 22.9052 30.0399 23.3954 30.8889C23.8856 31.738 24.9713 32.0289 25.8203 31.5387Z" fill="#0045E6"/>
<g id="Group_3" filter="url(#filter2_d_871_6651)">
<path id="Vector_9" d="M12.8086 24.4306C14.9313 23.2051 15.6585 20.491 14.433 18.3683C13.2075 16.2457 10.4933 15.5184 8.37071 16.7439C6.24808 17.9694 5.52081 20.6836 6.74631 22.8063C7.97181 24.9289 10.686 25.6561 12.8086 24.4306Z" fill="white"/>
</g>
<path id="Vector_10" d="M11.4766 22.1246C12.3256 21.6344 12.6165 20.5487 12.1263 19.6997C11.6361 18.8506 10.5505 18.5597 9.70141 19.0499C8.85236 19.5401 8.56145 20.6258 9.05165 21.4748C9.54185 22.3239 10.6275 22.6148 11.4766 22.1246Z" fill="#0045E6"/>
<path id="Vector_11" fill-rule="evenodd" clip-rule="evenodd" d="M38.1473 24.297C38.8405 24.297 39.4025 23.735 39.4025 23.0419C39.4025 22.3487 38.8405 21.7867 38.1473 21.7867C37.4541 21.7867 36.8921 22.3487 36.8921 23.0419C36.8921 23.735 37.4541 24.297 38.1473 24.297ZM38.1473 26.3591C39.9794 26.3591 41.4645 24.8739 41.4645 23.0419C41.4645 21.2098 39.9794 19.7246 38.1473 19.7246C36.3152 19.7246 34.8301 21.2098 34.8301 23.0419C34.8301 24.8739 36.3152 26.3591 38.1473 26.3591Z" fill="#01267B"/>
<path id="Vector_12" fill-rule="evenodd" clip-rule="evenodd" d="M24.161 15.0627C24.8542 15.0627 25.4162 14.5007 25.4162 13.8074C25.4162 13.1143 24.8542 12.5523 24.161 12.5523C23.4678 12.5523 22.9058 13.1143 22.9058 13.8074C22.9058 14.5007 23.4678 15.0627 24.161 15.0627ZM24.161 17.1247C25.9931 17.1247 27.4782 15.6395 27.4782 13.8074C27.4782 11.9754 25.9931 10.4902 24.161 10.4902C22.3289 10.4902 20.8438 11.9754 20.8438 13.8074C20.8438 15.6395 22.3289 17.1247 24.161 17.1247Z" fill="#01267B"/>
</g>
<defs>
<filter id="filter0_d_871_6651" x="29.6178" y="1.25391" width="15.3773" height="15.3774" filterUnits="userSpaceOnUse" color-interpolation-filters="sRGB">
<feFlood flood-opacity="0" result="BackgroundImageFix"/>
<feColorMatrix in="SourceAlpha" type="matrix" values="0 0 0 0 0 0 0 0 0 0 0 0 0 0 0 0 0 0 127 0" result="hardAlpha"/>
<feOffset dy="1.625"/>
<feGaussianBlur stdDeviation="1.625"/>
<feColorMatrix type="matrix" values="0 0 0 0 0 0 0 0 0 0 0 0 0 0 0 0 0 0 0.45 0"/>
<feBlend mode="normal" in2="BackgroundImageFix" result="effect1_dropShadow_871_6651"/>
<feBlend mode="normal" in="SourceGraphic" in2="effect1_dropShadow_871_6651" result="shape"/>
</filter>
<filter id="filter1_d_871_6651" x="17.2448" y="23.9375" width="15.3773" height="15.3774" filterUnits="userSpaceOnUse" color-interpolation-filters="sRGB">
<feFlood flood-opacity="0" result="BackgroundImageFix"/>
<feColorMatrix in="SourceAlpha" type="matrix" values="0 0 0 0 0 0 0 0 0 0 0 0 0 0 0 0 0 0 127 0" result="hardAlpha"/>
<feOffset dy="1.625"/>
<feGaussianBlur stdDeviation="1.625"/>
<feColorMatrix type="matrix" values="0 0 0 0 0 0 0 0 0 0 0 0 0 0 0 0 0 0 0.45 0"/>
<feBlend mode="normal" in2="BackgroundImageFix" result="effect1_dropShadow_871_6651"/>
<feBlend mode="normal" in="SourceGraphic" in2="effect1_dropShadow_871_6651" result="shape"/>
</filter>
<filter id="filter2_d_871_6651" x="2.901" y="14.5234" width="15.3773" height="15.3774" filterUnits="userSpaceOnUse" color-interpolation-filters="sRGB">
<feFlood flood-opacity="0" result="BackgroundImageFix"/>
<feColorMatrix in="SourceAlpha" type="matrix" values="0 0 0 0 0 0 0 0 0 0 0 0 0 0 0 0 0 0 127 0" result="hardAlpha"/>
<feOffset dy="1.625"/>
<feGaussianBlur stdDeviation="1.625"/>
<feColorMatrix type="matrix" values="0 0 0 0 0 0 0 0 0 0 0 0 0 0 0 0 0 0 0.45 0"/>
<feBlend mode="normal" in2="BackgroundImageFix" result="effect1_dropShadow_871_6651"/>
<feBlend mode="normal" in="SourceGraphic" in2="effect1_dropShadow_871_6651" result="shape"/>
</filter>
<linearGradient id="paint0_linear_871_6651" x1="22.7262" y1="16.5423" x2="12.4608" y2="35.863" gradientUnits="userSpaceOnUse">
<stop stop-color="#01267B"/>
<stop offset="1" stop-color="#01267B" stop-opacity="0"/>
</linearGradient>
</defs>
</svg>
