<svg width="137" height="86" viewBox="0 0 137 86" fill="none" xmlns="http://www.w3.org/2000/svg">
<g clip-path="url(#clip0_221_41403)">
<mask id="mask0_221_41403" style="mask-type:luminance" maskUnits="userSpaceOnUse" x="0" y="0" width="137" height="86">
<path d="M136.7 0.379883H0.699951V85.3799H136.7V0.379883Z" fill="white"/>
</mask>
<g mask="url(#mask0_221_41403)">
<path d="M136.7 0.379883H0.699951V85.3799H136.7V0.379883Z" fill="white"/>
<path fill-rule="evenodd" clip-rule="evenodd" d="M42.7156 85.437V76.2949H106.179V85.437H42.7156ZM61.5728 83.1516H62.2024V81.136H63.7562V80.6713H62.2024V79.1838H64.0531V78.7129H61.5728V83.1516ZM64.9196 83.1516H65.5497V78.7129H64.9196V83.1516ZM66.7493 83.1516H67.2894V79.7233L69.5266 83.1516H70.1414V78.7129H69.6014V82.1412L67.3676 78.7129H66.7493V83.1516ZM74.2594 83.1516H74.9405L73.2071 78.7129H72.5832L70.8225 83.1516H71.4073L71.8964 81.9219H73.7766L74.2594 83.1516ZM75.6392 83.1516H78.2668V82.6807H76.2693V78.7123H75.6392V83.1516ZM78.9684 83.1516H79.5985V78.7129H78.9684V83.1516ZM81.6685 83.2621C82.1383 83.2621 82.5157 83.1454 82.8002 82.9113C83.0852 82.6773 83.2274 82.3679 83.2274 81.982C83.2274 81.71 83.1515 81.4771 82.9996 81.2833C82.8478 81.0889 82.5797 80.8832 82.1961 80.6651L81.8782 80.4854C81.6022 80.3273 81.4124 80.1913 81.3081 80.0774C81.2073 79.9715 81.1517 79.8304 81.1523 79.6842C81.1523 79.5085 81.2231 79.3623 81.3654 79.2467C81.507 79.1305 81.6872 79.0722 81.9054 79.0722C82.1349 79.0722 82.484 79.1645 82.9515 79.3481V78.773C82.5718 78.6585 82.2108 78.6018 81.8691 78.6018C81.4855 78.6018 81.1693 78.7123 80.9211 78.9328C80.6735 79.1543 80.5494 79.4354 80.5494 79.7777C80.5494 80.0315 80.627 80.2537 80.7817 80.4446C80.937 80.6356 81.2033 80.839 81.5813 81.0549L81.8867 81.2323C82.153 81.3819 82.3355 81.5179 82.4347 81.6397C82.5333 81.7621 82.5831 81.91 82.5831 82.084C82.5831 82.2959 82.5072 82.4665 82.3565 82.5968C82.2057 82.7266 82.0063 82.7918 81.7581 82.7918C81.4362 82.7918 81.0254 82.6756 80.5256 82.4438V83.0677C80.9891 83.1975 81.3699 83.2621 81.6685 83.2621ZM85.2193 83.1516H85.8494V79.1838H87.4242V78.7129H83.6445V79.1838H85.2193V83.1516Z" fill="#4C1734"/>
<path fill-rule="evenodd" clip-rule="evenodd" d="M71.9759 40.0677C72.5346 40.0677 72.9545 40.2563 73.3144 40.5817C73.3421 40.61 73.3467 40.6537 73.3195 40.6817C73.2923 40.7145 73.2588 40.7477 73.2311 40.7754C73.1976 40.8146 73.1699 40.8088 73.1376 40.7754C72.827 40.4883 72.4241 40.3112 71.9708 40.3112C71.0086 40.3112 70.251 41.096 70.251 42.0527C70.251 43.0093 71.0086 43.7943 71.9708 43.7943C72.6451 43.7943 73.065 43.534 73.1206 43.4898V42.451H72.1754C72.1142 42.451 72.1034 42.4284 72.1034 42.379V42.2682C72.1034 42.2239 72.1142 42.2022 72.1754 42.2022H73.3081C73.3467 42.2022 73.3801 42.2347 73.3801 42.2682V43.5506C73.3801 43.6334 73.3467 43.6612 73.303 43.6943C73.2033 43.7612 72.7001 44.0483 71.9759 44.0483C70.8652 44.0483 69.975 43.1752 69.975 42.0636C69.9744 41.801 70.026 41.5408 70.1263 41.2982C70.2272 41.0554 70.3745 40.8351 70.5604 40.6496C70.7462 40.4641 70.9672 40.3172 71.2098 40.2173C71.4529 40.1175 71.713 40.0667 71.9759 40.0677ZM74.1961 40.1952C74.1961 40.156 74.2295 40.1229 74.2681 40.1229H74.3899C74.4233 40.1229 74.4568 40.156 74.4568 40.1952V43.7612H76.2197C76.286 43.7612 76.2916 43.7943 76.2916 43.8329V43.932C76.2916 43.9712 76.2582 43.9932 76.2197 43.9932H74.2681C74.2494 43.9927 74.2312 43.985 74.2176 43.9716C74.2046 43.9582 74.1967 43.9401 74.1961 43.9211V40.1952ZM78.3889 43.8052C79.3562 43.8052 80.141 43.031 80.141 42.0636C80.141 41.5989 79.9563 41.1533 79.6282 40.8246C79.2995 40.496 78.8536 40.3113 78.3889 40.3112C77.4216 40.3112 76.6418 41.096 76.6418 42.0636C76.6418 42.2929 76.6866 42.5199 76.7744 42.7317C76.8623 42.9435 76.9909 43.1358 77.1535 43.2977C77.3156 43.4595 77.5083 43.5877 77.7208 43.6748C77.9327 43.7618 78.16 43.8062 78.3889 43.8052ZM78.3889 40.0677C78.6513 40.0667 78.9113 40.1176 79.1539 40.2175C79.397 40.3175 79.6174 40.4644 79.8027 40.65C79.988 40.8355 80.1353 41.056 80.2351 41.2985C80.3348 41.5412 80.3858 41.8012 80.3847 42.0636C80.3847 43.1752 79.5001 44.0483 78.3889 44.0483C77.2833 44.0483 76.3987 43.1752 76.3987 42.0636C76.3976 41.8016 76.448 41.542 76.5478 41.2997C76.6469 41.0574 76.7937 40.8372 76.9784 40.6516C77.1637 40.4662 77.3836 40.3191 77.6256 40.2189C77.8676 40.1187 78.1271 40.0673 78.3889 40.0677ZM82.4065 41.9145C82.9262 41.9145 83.2299 41.5882 83.2299 41.1348C83.2299 40.6537 82.8978 40.3663 82.3674 40.3663H81.3786V41.9145H82.4065ZM82.44 43.7612C82.9755 43.7612 83.3523 43.418 83.3523 42.9372C83.3523 42.445 82.9313 42.1522 82.4065 42.1522H81.3724V43.7612H82.44ZM81.1179 40.1952C81.1179 40.156 81.1519 40.1229 81.1899 40.1229H82.3674C83.0474 40.1229 83.5121 40.5158 83.5121 41.124C83.5121 41.5605 83.2469 41.881 82.9041 42.0193C83.2968 42.1247 83.6339 42.4116 83.6339 42.9424C83.6339 43.5618 83.1358 43.9932 82.4173 43.9932H81.1899C81.1712 43.9927 81.1531 43.985 81.1395 43.9716C81.1259 43.9582 81.1185 43.9401 81.1179 43.9211V40.1952ZM86.5778 42.7104L85.6326 40.4826H85.6212L84.6596 42.7104H86.5778ZM83.847 43.9263L85.5493 40.0792C85.5561 40.0674 85.5657 40.0577 85.5776 40.0507C85.5889 40.0439 85.6025 40.0402 85.6161 40.04H85.6326C85.6603 40.04 85.6881 40.046 85.7045 40.0792L87.3904 43.9263C87.4017 43.9597 87.4017 43.9932 87.3411 43.9932H87.1966C87.1802 43.9926 87.1649 43.9877 87.1512 43.9789C87.1376 43.97 87.1263 43.9577 87.1195 43.9432L86.6713 42.9258H84.5593L84.1173 43.9432C84.1099 43.9577 84.0992 43.97 84.0856 43.9789C84.072 43.9877 84.0567 43.9927 84.0402 43.9932H83.885C83.847 43.9932 83.8306 43.9712 83.847 43.9263ZM87.8465 40.1952C87.8465 40.156 87.88 40.1229 87.9185 40.1229H88.0398C88.0732 40.1229 88.1066 40.156 88.1066 40.1952V43.7612H89.8701C89.9358 43.7612 89.9421 43.7943 89.9421 43.8329V43.932C89.9421 43.9712 89.9086 43.9932 89.8701 43.9932H87.9185C87.8992 43.9927 87.8811 43.985 87.8681 43.9716C87.8545 43.9581 87.8471 43.9401 87.8465 43.9211V40.1952ZM70.0186 49.1767L70.0691 49.1099C70.1076 49.0656 70.1461 49.049 70.1903 49.0882C70.2459 49.1376 70.655 49.5136 71.2132 49.5136C71.7164 49.5136 72.1419 49.1767 72.1419 48.773C72.1419 48.2811 71.7379 48.06 71.0698 47.8331C70.4278 47.6063 70.0022 47.38 70.0022 46.744C70.0022 46.3295 70.3343 45.7653 71.1967 45.7653C71.7441 45.7653 72.1476 46.0476 72.1476 46.0476C72.1697 46.0641 72.2077 46.1024 72.1697 46.1636C72.1527 46.1862 72.138 46.2102 72.1255 46.2352C72.0921 46.2793 72.0592 46.2961 72.0037 46.2632C71.9872 46.2518 71.6172 46.003 71.1916 46.003C70.5116 46.003 70.2566 46.4235 70.2566 46.7384C70.2566 47.208 70.6159 47.4134 71.1746 47.5954C71.9317 47.8557 72.4128 48.1208 72.4128 48.7619C72.4128 49.3144 71.8433 49.7458 71.2075 49.7458C70.5496 49.7458 70.1076 49.3593 70.0356 49.2927C70.0022 49.265 69.975 49.2376 70.0186 49.1767ZM74.8041 49.5027C75.7714 49.5027 76.5563 48.7285 76.5563 47.7614C76.5563 47.2967 76.3715 46.851 76.0429 46.5224C75.7142 46.1938 75.2688 46.0091 74.8041 46.009C73.8368 46.009 73.0565 46.7941 73.0565 47.7614C73.0565 47.9907 73.1013 48.2177 73.1891 48.4295C73.277 48.6412 73.4056 48.8336 73.5682 48.9954C73.7303 49.1573 73.9235 49.2854 74.1355 49.3724C74.3474 49.4595 74.5746 49.5038 74.8041 49.5027ZM74.8041 45.7653C75.0665 45.7643 75.3266 45.8152 75.5691 45.9152C75.8117 46.0151 76.0321 46.1621 76.2174 46.3477C76.4033 46.5332 76.5501 46.7537 76.6498 46.9963C76.7501 47.239 76.8011 47.499 76.8 47.7614C76.8 48.8722 75.9154 49.7458 74.8041 49.7458C73.6986 49.7458 72.814 48.8722 72.814 47.7614C72.8123 47.4994 72.8633 47.2398 72.9625 46.9975C73.0622 46.7551 73.2084 46.5348 73.3937 46.3493C73.5784 46.1638 73.7983 46.0167 74.0403 45.9164C74.2822 45.8162 74.5418 45.7648 74.8041 45.7653ZM77.489 45.893C77.489 45.8539 77.5224 45.8213 77.5604 45.8213H77.6766C77.7157 45.8213 77.7491 45.8539 77.7491 45.893V48.2528C77.7491 48.9662 78.1968 49.4912 78.9317 49.4912C79.6729 49.4912 80.1263 48.9722 80.1263 48.2588V45.893C80.1263 45.8487 80.1484 45.8213 80.2033 45.8213H80.3144C80.3529 45.8213 80.3864 45.8539 80.3864 45.893V48.2811C80.3864 49.1267 79.8112 49.7458 78.9317 49.7458C78.0591 49.7458 77.489 49.1267 77.489 48.2811V45.893ZM82.7828 47.9657C83.3138 47.9657 83.7614 47.5511 83.7614 47.0037C83.7614 46.4787 83.3138 46.075 82.7777 46.075H81.616V47.9657H82.7828ZM81.3508 45.893C81.3508 45.8539 81.3786 45.8213 81.4228 45.8213H82.7936C83.4685 45.8213 84.0266 46.3295 84.0266 47.0037C84.0266 47.562 83.6396 48.0103 83.1149 48.1594L83.9218 49.5913C83.9496 49.6356 83.9388 49.6907 83.8827 49.6907H83.7116C83.673 49.6907 83.6504 49.6741 83.6339 49.6407L82.8327 48.1925C82.7647 48.197 82.6967 48.1988 82.6287 48.1979H81.6109V49.619C81.6109 49.6573 81.5781 49.6907 81.5226 49.6907H81.4228C81.4041 49.6903 81.386 49.6827 81.3724 49.6693C81.3588 49.6559 81.3514 49.6379 81.3508 49.619V45.893ZM86.5064 45.7653C87.0702 45.7653 87.4901 45.953 87.85 46.2793C87.8772 46.307 87.8834 46.3518 87.8556 46.3795L87.7672 46.4729C87.7338 46.5064 87.706 46.5007 87.6726 46.4678C87.3581 46.1858 86.9597 46.0138 86.5064 46.0138C85.5391 46.0138 84.7814 46.8049 84.7814 47.7614C84.7814 48.7119 85.5391 49.4972 86.5064 49.4972C86.9818 49.4972 87.3416 49.3093 87.6726 49.033C87.706 49.0053 87.7394 49.0053 87.761 49.0216L87.8556 49.1159C87.8834 49.1376 87.8834 49.1824 87.8556 49.2098C87.4793 49.5747 86.9982 49.7458 86.5064 49.7458C85.4008 49.7458 84.5049 48.8722 84.5049 47.7614C84.5049 46.6555 85.4008 45.7653 86.5064 45.7653ZM88.5883 45.893C88.5883 45.8539 88.6212 45.8213 88.6597 45.8213H88.7821C88.8206 45.8213 88.8535 45.8539 88.8535 45.893V49.619C88.8535 49.6633 88.815 49.6907 88.7759 49.6907H88.6597C88.641 49.6903 88.6229 49.6827 88.6098 49.6693C88.5962 49.6559 88.5883 49.6379 88.5883 49.619V45.893ZM89.8605 45.837C89.8605 45.793 89.8996 45.7653 89.9438 45.7653H90.0373L92.691 49.2207H92.6966V45.893C92.6966 45.8539 92.7301 45.8213 92.7686 45.8213H92.8791C92.9177 45.8213 92.9511 45.8539 92.9511 45.893V49.6741C92.9511 49.7241 92.9069 49.7458 92.8627 49.7458H92.7913C92.7851 49.7458 92.7408 49.729 90.1149 46.2576H90.1093V49.619C90.1087 49.638 90.1013 49.656 90.0877 49.6693C90.0741 49.6828 90.056 49.6904 90.0373 49.6907H89.9319C89.9132 49.6903 89.8951 49.6826 89.882 49.6692C89.8684 49.6559 89.861 49.6378 89.8605 49.619V45.837ZM95.6858 45.7653C96.244 45.7653 96.6644 45.953 97.0237 46.2793C97.0515 46.307 97.0566 46.3518 97.0294 46.3795C97.001 46.4118 96.9716 46.443 96.9404 46.4729C96.907 46.5121 96.8798 46.5064 96.8469 46.4729C96.5369 46.1858 96.1335 46.009 95.6807 46.009C94.7185 46.009 93.9609 46.7941 93.9609 47.7506C93.9609 48.7067 94.7185 49.4912 95.6807 49.4912C96.3545 49.4912 96.7749 49.2316 96.8305 49.1876V48.1485H95.8853C95.8241 48.1485 95.8133 48.126 95.8133 48.0759V47.9657C95.8133 47.9217 95.8241 47.8991 95.8853 47.8991H97.0186C97.0566 47.8991 97.09 47.9326 97.09 47.9657V49.2484C97.09 49.3313 97.0566 49.3593 97.0124 49.3921C96.9132 49.4587 96.41 49.7458 95.6858 49.7458C94.5746 49.7458 93.6849 48.8722 93.6849 47.7614C93.6843 47.4987 93.7359 47.2386 93.8362 46.9959C93.9365 46.7532 94.0838 46.5327 94.2703 46.3472C94.4561 46.1617 94.6766 46.0148 94.9197 45.9149C95.1628 45.8151 95.4229 45.7642 95.6858 45.7653ZM72.4298 54.1066L71.484 51.8785H71.4727L70.5116 54.1066H72.4298ZM69.6985 55.3228L71.4013 51.4745C71.4075 51.4628 71.4177 51.4531 71.4291 51.4463C71.441 51.4396 71.454 51.436 71.4676 51.436H71.484C71.5118 51.436 71.5396 51.4417 71.556 51.4745L73.2418 55.3228C73.2537 55.3556 73.2537 55.3891 73.1925 55.3891H73.0492C73.0327 55.3886 73.0169 55.3837 73.0033 55.3749C72.9897 55.3661 72.9783 55.3537 72.9715 55.3391L72.5233 54.3217H70.4113L69.9693 55.3391C69.962 55.3536 69.9512 55.3659 69.9376 55.3747C69.924 55.3834 69.9087 55.3884 69.8923 55.3891H69.737C69.6985 55.3891 69.682 55.3665 69.6985 55.3228ZM73.4662 54.8748L73.5161 54.8083C73.5546 54.764 73.5932 54.7474 73.6374 54.7862C73.6929 54.8357 74.102 55.2122 74.6608 55.2122C75.1634 55.2122 75.5895 54.8748 75.5895 54.4712C75.5895 53.9795 75.1855 53.7584 74.5168 53.5315C73.8754 53.3044 73.4498 53.0781 73.4498 52.4422C73.4498 52.0276 73.7819 51.4637 74.6438 51.4637C75.1912 51.4637 75.5947 51.7457 75.5947 51.7457C75.6168 51.7622 75.6553 51.8008 75.6167 51.8617C75.6003 51.8843 75.585 51.9083 75.5725 51.9334C75.5391 51.9777 75.5062 51.9942 75.4507 51.9616C75.4348 51.9502 75.0642 51.7016 74.6387 51.7016C73.9587 51.7016 73.7042 52.1219 73.7042 52.4367C73.7042 52.9064 74.0629 53.1116 74.6217 53.2935C75.3787 53.5538 75.8598 53.8192 75.8598 54.4603C75.8598 55.0125 75.2903 55.4439 74.6545 55.4439C73.9972 55.4439 73.5546 55.0577 73.4827 54.9908C73.4498 54.9634 73.422 54.9357 73.4662 54.8748ZM76.3052 54.8748L76.3551 54.8083C76.3936 54.764 76.4322 54.7474 76.4758 54.7862C76.5319 54.8357 76.941 55.2122 77.4992 55.2122C78.0024 55.2122 78.428 54.8748 78.428 54.4712C78.428 53.9795 78.0245 53.7584 77.3558 53.5315C76.7138 53.3044 76.2882 53.0781 76.2882 52.4422C76.2882 52.0276 76.6203 51.4637 77.4828 51.4637C78.0302 51.4637 78.4336 51.7457 78.4336 51.7457C78.4557 51.7622 78.4948 51.8008 78.4557 51.8617C78.4387 51.8843 78.424 51.9083 78.4115 51.9334C78.3781 51.9777 78.3452 51.9942 78.2897 51.9616C78.2727 51.9502 77.9032 51.7016 77.4771 51.7016C76.7971 51.7016 76.5427 52.1219 76.5427 52.4367C76.5427 52.9064 76.9025 53.1116 77.4607 53.2935C78.2178 53.5538 78.6994 53.8192 78.6994 54.4603C78.6994 55.0125 78.1293 55.4439 77.4935 55.4439C76.8356 55.4439 76.3936 55.0577 76.3217 54.9908C76.2882 54.9634 76.2605 54.9357 76.3052 54.8748ZM81.0902 55.2014C82.0575 55.2014 82.8423 54.4269 82.8423 53.4595C82.8423 52.9948 82.6576 52.5492 82.3289 52.2206C82.0002 51.892 81.5548 51.7073 81.0902 51.7071C80.1229 51.7071 79.3437 52.4924 79.3437 53.4595C79.3432 53.6888 79.3879 53.9158 79.4758 54.1276C79.5636 54.3394 79.6922 54.5318 79.8543 54.6936C80.0169 54.8555 80.2096 54.9837 80.4215 55.0709C80.6334 55.158 80.8607 55.2023 81.0902 55.2014ZM81.0902 51.4637C81.3526 51.4626 81.6126 51.5135 81.8552 51.6135C82.0977 51.7134 82.3181 51.8604 82.5034 52.0459C82.6893 52.2314 82.8361 52.4519 82.9358 52.6945C83.0361 52.9371 83.0871 53.1971 83.086 53.4595C83.086 54.5706 82.2014 55.4439 81.0902 55.4439C79.9846 55.4439 79.1 54.5706 79.1 53.4595C79.0989 53.1976 79.1494 52.9379 79.2485 52.6956C79.3483 52.4533 79.495 52.2331 79.6798 52.0476C79.8645 51.8621 80.0843 51.715 80.3263 51.6148C80.5683 51.5146 80.8278 51.4632 81.0902 51.4637ZM85.5442 51.4637C86.108 51.4637 86.5285 51.6514 86.8877 51.9777C86.9149 52.0054 86.9212 52.0499 86.8934 52.0776L86.805 52.1713C86.7716 52.2045 86.7438 52.1988 86.7104 52.1662C86.3953 51.8839 85.9981 51.7125 85.5442 51.7125C84.5769 51.7125 83.8192 52.5033 83.8192 53.4595C83.8192 54.4103 84.5769 55.1954 85.5442 55.1954C86.0196 55.1954 86.3794 55.0077 86.7104 54.7314C86.7438 54.7037 86.7772 54.7037 86.7993 54.7197L86.8934 54.814C86.9212 54.8357 86.9212 54.8808 86.8934 54.9082C86.5171 55.2731 86.0366 55.4439 85.5442 55.4439C84.4386 55.4439 83.5433 54.5706 83.5433 53.4595C83.5433 52.3539 84.4386 51.4637 85.5442 51.4637ZM87.6261 51.5911C87.6261 51.552 87.6595 51.5194 87.6981 51.5194H87.8193C87.8579 51.5194 87.8913 51.552 87.8913 51.5911V55.3171C87.8913 55.3613 87.8533 55.3891 87.8148 55.3891H87.6981C87.6788 55.3887 87.6612 55.3809 87.6476 55.3675C87.634 55.3541 87.6267 55.336 87.6261 55.3171V51.5911ZM91.0771 54.1066L90.1314 51.8785H90.12L89.1584 54.1066H91.0771ZM88.3458 55.3228L90.048 51.4745C90.0548 51.4628 90.0645 51.453 90.0764 51.4463C90.0883 51.4395 90.1013 51.436 90.1149 51.436H90.1314C90.1591 51.436 90.1869 51.4417 90.2033 51.4745L91.8891 55.3228C91.901 55.3556 91.9011 55.3891 91.8399 55.3891H91.6965C91.68 55.3886 91.6642 55.3837 91.6506 55.3749C91.637 55.3661 91.6256 55.3537 91.6183 55.3391L91.1706 54.3217H89.0586L88.6166 55.3391C88.6093 55.3536 88.5985 55.3659 88.5849 55.3747C88.5713 55.3836 88.5554 55.3885 88.5396 55.3891H88.3843C88.3458 55.3891 88.3294 55.3665 88.3458 55.3228ZM92.7153 51.7565H91.6596C91.6047 51.7565 91.5877 51.724 91.5877 51.6739V51.5911C91.5877 51.5471 91.6211 51.5194 91.6596 51.5194H94.0368C94.081 51.5194 94.1088 51.552 94.1088 51.5911V51.6848C94.1094 51.6943 94.1076 51.7039 94.1042 51.7127C94.1003 51.7215 94.0952 51.7296 94.0884 51.7363C94.0816 51.7431 94.0736 51.7483 94.0646 51.7518C94.0561 51.7552 94.0464 51.7569 94.0368 51.7565H92.9754V55.3171C92.9754 55.3556 92.942 55.3891 92.887 55.3891H92.7879C92.7686 55.3888 92.7505 55.3812 92.7369 55.3677C92.7233 55.3543 92.7159 55.3361 92.7153 55.3171V51.7565ZM94.5746 51.5911C94.5746 51.552 94.608 51.5194 94.6465 51.5194H94.7684C94.8075 51.5194 94.8403 51.552 94.8403 51.5911V55.3171C94.8403 55.3613 94.8018 55.3891 94.7627 55.3891H94.6465C94.6278 55.3886 94.6097 55.3809 94.5961 55.3675C94.5831 55.3541 94.5751 55.336 94.5746 55.3171V51.5911ZM97.5609 55.2014C98.5282 55.2014 99.3136 54.4269 99.3136 53.4595C99.3136 52.9948 99.1289 52.5492 98.8002 52.2206C98.4715 51.892 98.0261 51.7073 97.5609 51.7071C96.5936 51.7071 95.8139 52.4924 95.8139 53.4595C95.8139 53.6888 95.8586 53.9158 95.9465 54.1277C96.0343 54.3395 96.163 54.5319 96.3256 54.6937C96.4877 54.8556 96.6803 54.9838 96.8928 55.0709C97.1047 55.158 97.332 55.2023 97.5609 55.2014ZM97.5609 51.4637C97.8238 51.4626 98.0834 51.5135 98.3265 51.6135C98.569 51.7134 98.7894 51.8604 98.9747 52.0459C99.1606 52.2314 99.3074 52.4519 99.4071 52.6945C99.5074 52.9371 99.5578 53.1971 99.5573 53.4595C99.5573 54.5706 98.6727 55.4439 97.5609 55.4439C96.4553 55.4439 95.5708 54.5706 95.5708 53.4595C95.5697 53.1975 95.6201 52.9379 95.7198 52.6956C95.8196 52.4533 95.9657 52.2331 96.151 52.0476C96.3358 51.8621 96.5556 51.715 96.7976 51.6148C97.0396 51.5146 97.2991 51.4632 97.5609 51.4637ZM100.291 51.5357C100.291 51.4911 100.33 51.4637 100.374 51.4637H100.467L103.121 54.9191H103.127V51.5911C103.127 51.552 103.16 51.5194 103.199 51.5194H103.309C103.348 51.5194 103.381 51.552 103.381 51.5911V55.3722C103.381 55.4222 103.337 55.4439 103.293 55.4439H103.221C103.215 55.4439 103.171 55.4276 100.544 51.9559H100.539V55.3171C100.539 55.3361 100.531 55.3542 100.518 55.3676C100.504 55.3811 100.486 55.3888 100.467 55.3891H100.362C100.343 55.3886 100.325 55.3809 100.312 55.3675C100.298 55.3541 100.291 55.336 100.291 55.3171V51.5357Z" fill="#595A59"/>
<mask id="mask1_221_41403" style="mask-type:alpha" maskUnits="userSpaceOnUse" x="46" y="17" width="21" height="34">
<path d="M60.6777 25.3693C60.6777 22.8352 59.0819 21.0516 56.7352 21.0516C54.342 21.0516 52.6056 22.8352 52.6056 25.3693C52.6056 27.9036 54.342 29.6869 56.7352 29.6869C59.0819 29.6869 60.6777 27.9036 60.6777 25.3693ZM56.6421 47.004C59.5047 47.004 61.9918 45.5493 61.9918 43.2966C61.9918 42.5458 61.5226 40.6214 58.4722 40.6214C57.1112 40.6214 55.7031 40.6214 54.342 40.7157C54.0606 40.8094 51.7611 41.5605 51.7611 43.672C51.7611 45.5961 53.7792 47.004 56.6421 47.004ZM50.0244 29.8277C50.0244 29.8277 48.5694 28.0913 48.5694 25.2755C48.5694 20.9107 51.8551 17.0625 56.6421 17.0625H64.8546C65.3708 17.0625 65.7465 17.4382 65.7465 17.9542V19.1278C65.7465 19.456 65.5584 19.8786 65.2303 19.9254L62.6491 20.6293C62.6491 20.6293 64.6664 22.1312 64.6664 25.651C64.6664 29.64 61.569 33.3006 56.6887 33.3006C54.2952 33.3006 52.9813 32.5498 52.6056 32.5498C52.2773 32.5498 50.6815 33.3474 50.6815 34.849C50.6815 35.9286 51.5263 36.7734 52.9342 36.7734H59.3165C63.3994 36.7734 66.6849 38.979 66.6849 43.0618C66.6849 47.1917 62.9307 50.8526 56.6887 50.8526C50.0715 50.8526 47.3963 47.4734 47.3963 44.4231C47.3963 41.6073 49.6961 40.2932 50.1658 40.0115V39.8706C49.1802 39.5892 46.6924 38.3219 46.6924 35.1779C46.6924 31.5642 50.0244 29.8277 50.0244 29.8277Z" fill="#4C1734"/>
</mask>
<g mask="url(#mask1_221_41403)">
<path fill-rule="evenodd" clip-rule="evenodd" d="M60.6777 25.3692C60.6777 22.8351 59.0819 21.0515 56.7352 21.0515C54.342 21.0515 52.6056 22.8351 52.6056 25.3692C52.6056 27.9036 54.342 29.6869 56.7352 29.6869C59.0819 29.6869 60.6777 27.9036 60.6777 25.3692ZM56.6421 47.004C59.5047 47.004 61.9918 45.5493 61.9918 43.2966C61.9918 42.5458 61.5226 40.6214 58.4722 40.6214C57.1112 40.6214 55.7031 40.6214 54.342 40.7157C54.0606 40.8093 51.7611 41.5605 51.7611 43.672C51.7611 45.5961 53.7792 47.004 56.6421 47.004ZM50.0244 29.8277C50.0244 29.8277 48.5694 28.0912 48.5694 25.2755C48.5694 20.9107 51.8551 17.0625 56.6421 17.0625H64.8546C65.3708 17.0625 65.7465 17.4381 65.7465 17.9541V19.1277C65.7465 19.456 65.5584 19.8785 65.2303 19.9254L62.6491 20.6293C62.6491 20.6293 64.6664 22.1312 64.6664 25.6509C64.6664 29.64 61.569 33.3006 56.6887 33.3006C54.2952 33.3006 52.9813 32.5498 52.6056 32.5498C52.2773 32.5498 50.6815 33.3474 50.6815 34.849C50.6815 35.9286 51.5263 36.7734 52.9342 36.7734H59.3165C63.3994 36.7734 66.6849 38.979 66.6849 43.0617C66.6849 47.1917 62.9307 50.8526 56.6887 50.8526C50.0715 50.8526 47.3963 47.4734 47.3963 44.4231C47.3963 41.6073 49.6961 40.2931 50.1658 40.0114V39.8706C49.1802 39.5892 46.6924 38.3218 46.6924 35.1778C46.6924 31.5641 50.0244 29.8277 50.0244 29.8277Z" fill="#4C1734"/>
</g>
<mask id="mask2_221_41403" style="mask-type:alpha" maskUnits="userSpaceOnUse" x="66" y="17" width="15" height="20">
<path d="M66.6848 33.8637L67.6708 32.0333C67.8584 31.6579 68.3746 31.5173 68.8438 31.7987C68.8438 31.7987 70.9087 33.0189 73.2083 33.0189C74.6164 33.0189 75.5078 32.4558 75.5078 31.4233C75.5078 30.1563 74.4748 29.5461 71.8942 28.3727C68.9843 27.1056 66.5437 25.3224 66.5437 22.2249C66.5437 19.8786 68.4681 17.0625 72.9737 17.0625C75.6019 17.0625 77.5727 17.9073 78.5111 18.5175C78.9339 18.7989 79.1685 19.4092 78.8868 19.8785L78.0419 21.4741C77.8073 21.8964 77.197 22.0372 76.8213 21.8495C76.8213 21.8495 74.757 20.8639 72.9737 20.8639C71.3779 20.8639 70.8617 21.5678 70.8617 22.2721C70.8617 23.492 72.0347 24.0085 73.8656 24.8062C77.2911 26.3077 80.1069 27.7628 80.1069 31.2825C80.1069 34.1922 77.3381 36.7734 73.1618 36.7734C70.0168 36.7734 67.9519 35.647 66.9664 34.849C66.6848 34.6614 66.4972 34.2391 66.6848 33.8637Z" fill="#4C1734"/>
</mask>
<g mask="url(#mask2_221_41403)">
<path fill-rule="evenodd" clip-rule="evenodd" d="M66.6848 33.8637L67.6708 32.0333C67.8584 31.6579 68.3746 31.5173 68.8438 31.7987C68.8438 31.7987 70.9087 33.0189 73.2083 33.0189C74.6164 33.0189 75.5078 32.4558 75.5078 31.4233C75.5078 30.1563 74.4748 29.5461 71.8942 28.3727C68.9843 27.1056 66.5437 25.3224 66.5437 22.2249C66.5437 19.8786 68.4681 17.0625 72.9737 17.0625C75.6019 17.0625 77.5727 17.9073 78.5111 18.5175C78.9339 18.7989 79.1685 19.4092 78.8868 19.8785L78.0419 21.4741C77.8073 21.8964 77.197 22.0372 76.8213 21.8495C76.8213 21.8495 74.757 20.8639 72.9737 20.8639C71.3779 20.8639 70.8617 21.5678 70.8617 22.2721C70.8617 23.492 72.0347 24.0085 73.8656 24.8062C77.2911 26.3077 80.1069 27.7628 80.1069 31.2825C80.1069 34.1922 77.3381 36.7734 73.1618 36.7734C70.0168 36.7734 67.9519 35.647 66.9664 34.849C66.6848 34.6614 66.4972 34.2391 66.6848 33.8637Z" fill="#4C1734"/>
</g>
<mask id="mask3_221_41403" style="mask-type:alpha" maskUnits="userSpaceOnUse" x="81" y="17" width="16" height="20">
<path d="M88.3682 33.4414C90.2456 33.4414 92.0289 32.0333 92.5916 31.0948V28.0913C92.3105 27.9036 90.9964 27.3402 89.3066 27.3402C87.0541 27.3402 85.506 28.5138 85.506 30.4377C85.506 32.1273 86.632 33.4414 88.3682 33.4414ZM88.9315 24.4308C90.9024 24.4308 92.6386 24.9938 92.6386 24.9938C92.6862 22.0372 92.1224 20.8639 89.7288 20.8639C87.5704 20.8639 85.4584 21.4273 84.473 21.7087C83.9091 21.8495 83.5816 21.4741 83.4405 20.9576L83.0654 19.2214C82.9243 18.6115 83.2524 18.283 83.6745 18.1418C84.0038 18.0013 86.679 17.0625 90.1515 17.0625C96.1588 17.0625 96.7215 20.7231 96.7215 25.4161V35.4124C96.7215 35.8818 96.2993 36.3041 95.8301 36.3041H94.516C94.0938 36.3041 93.9057 36.1163 93.7181 35.647L93.2489 34.3799C92.2165 35.3656 90.3861 36.7734 87.4763 36.7734C83.9567 36.7734 81.4226 34.3799 81.4226 30.4845C81.4226 27.0588 84.1443 24.4308 88.9315 24.4308Z" fill="#4C1734"/>
</mask>
<g mask="url(#mask3_221_41403)">
<path fill-rule="evenodd" clip-rule="evenodd" d="M88.3682 33.4414C90.2456 33.4414 92.0289 32.0333 92.5916 31.0948V28.0913C92.3105 27.9036 90.9964 27.3402 89.3066 27.3402C87.0541 27.3402 85.506 28.5138 85.506 30.4377C85.506 32.1273 86.632 33.4414 88.3682 33.4414ZM88.9315 24.4308C90.9024 24.4308 92.6386 24.9938 92.6386 24.9938C92.6862 22.0372 92.1224 20.8639 89.7288 20.8639C87.5704 20.8639 85.4584 21.4273 84.473 21.7087C83.9091 21.8495 83.5816 21.4741 83.4405 20.9576L83.0654 19.2214C82.9243 18.6115 83.2524 18.283 83.6745 18.1418C84.0038 18.0013 86.679 17.0625 90.1515 17.0625C96.1588 17.0625 96.7215 20.7231 96.7215 25.4161V35.4124C96.7215 35.8818 96.2993 36.3041 95.8301 36.3041H94.516C94.0938 36.3041 93.9057 36.1163 93.7181 35.647L93.2489 34.3799C92.2165 35.3656 90.3861 36.7734 87.4763 36.7734C83.9567 36.7734 81.4226 34.3799 81.4226 30.4845C81.4226 27.0588 84.1443 24.4308 88.9315 24.4308Z" fill="#4C1734"/>
</g>
<mask id="mask4_221_41403" style="mask-type:alpha" maskUnits="userSpaceOnUse" x="61" y="51" width="8" height="5">
<path d="M67.2699 55.377C67.2098 55.377 67.1498 55.3729 67.0903 55.3647C65.6543 55.1652 64.2365 54.8528 62.8493 54.4303C62.6873 54.3808 62.5365 54.2999 62.4051 54.1921C62.2742 54.0844 62.1659 53.9519 62.086 53.8022C62.0067 53.6525 61.9568 53.4886 61.9404 53.3198C61.924 53.151 61.941 52.9806 61.9908 52.8184C62.0906 52.4907 62.3167 52.2162 62.6187 52.0551C62.9213 51.894 63.2749 51.8596 63.603 51.9593C64.8593 52.3419 66.1445 52.6248 67.4456 52.8055C67.7686 52.8515 68.0627 53.018 68.2684 53.2716C68.4735 53.5253 68.5755 53.8474 68.5528 54.1731C68.5307 54.4988 68.3862 54.804 68.1482 55.0273C67.9097 55.2506 67.5963 55.3756 67.2699 55.377Z" fill="#4C1734"/>
</mask>
<g mask="url(#mask4_221_41403)">
<path fill-rule="evenodd" clip-rule="evenodd" d="M67.2699 55.377C67.2098 55.377 67.1498 55.3729 67.0903 55.3647C65.6543 55.1652 64.2365 54.8527 62.8493 54.4302C62.6873 54.3808 62.5365 54.2999 62.4051 54.1921C62.2742 54.0844 62.1659 53.9519 62.086 53.8022C62.0067 53.6525 61.9568 53.4886 61.9404 53.3198C61.924 53.151 61.941 52.9806 61.9908 52.8184C62.0906 52.4907 62.3167 52.2162 62.6187 52.0551C62.9213 51.894 63.2749 51.8596 63.603 51.9593C64.8593 52.3419 66.1445 52.6248 67.4456 52.8055C67.7686 52.8514 68.0627 53.018 68.2684 53.2717C68.4735 53.5253 68.5755 53.8474 68.5528 54.173C68.5307 54.4988 68.3862 54.8039 68.1482 55.0272C67.9097 55.2506 67.5963 55.3756 67.2699 55.377Z" fill="#4C1734"/>
</g>
<mask id="mask5_221_41403" style="mask-type:alpha" maskUnits="userSpaceOnUse" x="91" y="38" width="6" height="7">
<path d="M92.7527 44.0156C92.5181 44.0154 92.2886 43.9515 92.0874 43.8306C91.8868 43.7097 91.7225 43.5364 91.6125 43.3294C91.5026 43.1223 91.451 42.8892 91.4635 42.6552C91.476 42.4211 91.5519 42.1947 91.6834 42.0005C92.4886 40.8084 93.036 40.0816 93.6231 38.7705C93.7653 38.461 94.0237 38.2201 94.3427 38.1002C94.6618 37.9803 95.0148 37.9913 95.3253 38.1305C95.6364 38.2698 95.8795 38.5262 96.0025 38.8439C96.1249 39.1616 96.1175 39.5149 95.981 39.827C95.3333 41.2735 94.7128 42.1314 93.8248 43.4467C93.7064 43.6221 93.5466 43.7657 93.3596 43.8649C93.1726 43.964 92.964 44.0158 92.7527 44.0156Z" fill="#4C1734"/>
</mask>
<g mask="url(#mask5_221_41403)">
<path fill-rule="evenodd" clip-rule="evenodd" d="M92.7527 44.0156C92.5181 44.0154 92.2886 43.9515 92.0874 43.8306C91.8868 43.7097 91.7225 43.5364 91.6125 43.3294C91.5026 43.1223 91.451 42.8892 91.4635 42.6552C91.476 42.4211 91.5519 42.1947 91.6834 42.0005C92.4886 40.8084 93.036 40.0816 93.6231 38.7705C93.7653 38.461 94.0237 38.2201 94.3427 38.1002C94.6618 37.9803 95.0148 37.9913 95.3253 38.1305C95.6364 38.2698 95.8795 38.5262 96.0025 38.8439C96.1249 39.1616 96.1175 39.5149 95.981 39.827C95.3333 41.2735 94.7128 42.1314 93.8248 43.4467C93.7064 43.6221 93.5466 43.7657 93.3596 43.8649C93.1726 43.964 92.964 44.0158 92.7527 44.0156Z" fill="#4C1734"/>
</g>
<mask id="mask6_221_41403" style="mask-type:alpha" maskUnits="userSpaceOnUse" x="43" y="0" width="52" height="30">
<path d="M44.5817 29.2955C44.4121 29.2955 44.2441 29.2621 44.0873 29.1973C43.9306 29.1324 43.7882 29.0372 43.6682 28.9173C43.5483 28.7974 43.4531 28.655 43.3882 28.4982C43.3232 28.3415 43.2898 28.1735 43.2898 28.0039C43.2898 12.772 55.6819 0.379883 70.9142 0.379883C80.4653 0.379883 89.2101 5.2112 94.3056 13.3037C94.3963 13.4472 94.4575 13.6072 94.4864 13.7744C94.5147 13.9416 94.5102 14.1129 94.4722 14.2783C94.4348 14.4438 94.3651 14.6002 94.2671 14.7386C94.169 14.877 94.0444 14.9948 93.901 15.0852C93.7576 15.1757 93.5973 15.2369 93.4301 15.2655C93.2629 15.294 93.0918 15.2894 92.9263 15.2518C92.7609 15.2142 92.6045 15.1444 92.4662 15.0463C92.3279 14.9483 92.2101 14.824 92.1194 14.6804C87.4994 7.34359 79.5723 2.9631 70.9142 2.9631C57.1064 2.9631 45.8736 14.1965 45.8736 28.0039C45.8735 28.3465 45.7374 28.675 45.4951 28.9172C45.2528 29.1594 44.9243 29.2955 44.5817 29.2955Z" fill="#4C1734"/>
</mask>
<g mask="url(#mask6_221_41403)">
<path fill-rule="evenodd" clip-rule="evenodd" d="M44.5817 29.2955C44.4121 29.2955 44.2441 29.2621 44.0873 29.1973C43.9306 29.1324 43.7882 29.0372 43.6682 28.9173C43.5483 28.7974 43.4531 28.655 43.3882 28.4982C43.3232 28.3415 43.2898 28.1735 43.2898 28.0039C43.2898 12.772 55.6819 0.379883 70.9142 0.379883C80.4653 0.379883 89.2101 5.2112 94.3056 13.3037C94.3963 13.4472 94.4575 13.6072 94.4864 13.7744C94.5147 13.9416 94.5102 14.1129 94.4722 14.2783C94.4348 14.4438 94.3651 14.6002 94.2671 14.7386C94.169 14.877 94.0444 14.9948 93.901 15.0852C93.7576 15.1757 93.5973 15.2369 93.4301 15.2655C93.2629 15.294 93.0918 15.2894 92.9263 15.2518C92.7609 15.2142 92.6045 15.1444 92.4662 15.0463C92.3279 14.9483 92.2101 14.824 92.1194 14.6804C87.4994 7.34359 79.5723 2.9631 70.9142 2.9631C57.1064 2.9631 45.8736 14.1965 45.8736 28.0039C45.8735 28.3465 45.7374 28.675 45.4951 28.9172C45.2528 29.1594 44.9243 29.2955 44.5817 29.2955Z" fill="#4C1734"/>
</g>
<mask id="mask7_221_41403" style="mask-type:alpha" maskUnits="userSpaceOnUse" x="42" y="59" width="62" height="2">
<path d="M42.8796 59.1875H103.678V60.0551H42.8796V59.1875Z" fill="#4C1734"/>
</mask>
<g mask="url(#mask7_221_41403)">
<path fill-rule="evenodd" clip-rule="evenodd" d="M42.8796 60.0551H103.678V59.1875H42.8796V60.0551Z" fill="#4C1734"/>
</g>
<path fill-rule="evenodd" clip-rule="evenodd" d="M73.5936 81.4537L72.8376 79.54L72.0789 81.4537H73.5936Z" fill="#4C1734"/>
<path d="M52.3645 66.5786C51.9018 66.7112 51.4983 66.7769 51.1542 66.7769C50.5469 66.7769 50.0807 66.6041 49.7554 66.2584C49.432 65.9127 49.2703 65.4169 49.2703 64.772C49.2703 64.1391 49.4346 63.6466 49.7632 63.2959C50.0918 62.9428 50.5529 62.7666 51.1464 62.7666C51.5353 62.7666 51.9396 62.8244 52.3594 62.9394V63.4404C51.8329 63.2613 51.4295 63.1718 51.149 63.1718C50.7361 63.1718 50.4153 63.3123 50.1864 63.5928C49.9593 63.8727 49.8458 64.2677 49.8458 64.7771C49.8458 65.2815 49.9679 65.6736 50.2122 65.9541C50.4565 66.2329 50.7989 66.3717 51.2394 66.3717C51.42 66.3717 51.6153 66.34 51.8252 66.2765V65.0327H52.3645V66.5786ZM53.3142 66.6817V62.8624H53.8562V66.2765H55.5749V66.6817H53.3142ZM57.6706 66.7769C57.1406 66.7769 56.7139 66.5939 56.3904 66.2272C56.0687 65.8595 55.9079 65.3733 55.9079 64.7692C55.9079 64.1623 56.0696 63.6767 56.393 63.314C56.7182 62.9491 57.1517 62.7666 57.6938 62.7666C58.2339 62.7666 58.6668 62.9485 58.9921 63.3112C59.3168 63.6744 59.4794 64.1583 59.4794 64.7641C59.4794 65.3818 59.3168 65.8719 58.9921 66.2352C58.6668 66.5967 58.2259 66.7769 57.6706 66.7769ZM57.678 66.3717C58.069 66.3717 58.3704 66.2318 58.5841 65.9513C58.7971 65.6691 58.9042 65.2718 58.9042 64.759C58.9042 64.262 58.7966 63.8727 58.5812 63.5928C58.3682 63.3123 58.0724 63.1718 57.6938 63.1718C57.3135 63.1718 57.0167 63.3129 56.8034 63.5951C56.59 63.8756 56.4834 64.266 56.4834 64.7669C56.4834 65.2656 56.5892 65.6577 56.8008 65.9433C57.0124 66.2289 57.3049 66.3717 57.678 66.3717ZM60.241 66.6817V62.8624H61.2321C61.614 62.8624 61.9064 62.9343 62.1093 63.0788C62.3139 63.2233 62.4164 63.4319 62.4164 63.7033C62.4164 64.1663 62.1546 64.4961 61.6316 64.6921C62.2566 64.8831 62.5689 65.2276 62.5689 65.7269C62.5689 66.0363 62.4652 66.2731 62.2589 66.4363C62.0526 66.6001 61.7551 66.6817 61.3658 66.6817H60.241ZM60.7776 66.2765H60.8887C61.2859 66.2765 61.5432 66.2516 61.6605 66.2017C61.8838 66.1071 61.996 65.9314 61.996 65.6753C61.996 65.4481 61.894 65.2599 61.6911 65.1098C61.4882 64.9585 61.2344 64.8831 60.9301 64.8831H60.7776V66.2765ZM60.7776 64.5397H60.9505C61.2395 64.5397 61.4633 64.4779 61.6214 64.3538C61.7818 64.2297 61.8617 64.0552 61.8617 63.8302C61.8617 63.4551 61.571 63.2675 60.989 63.2675H60.7776V64.5397ZM65.2163 65.2208L64.5664 63.5747L63.913 65.2208H65.2163ZM65.7892 66.6817L65.3739 65.6237H63.756L63.335 66.6817H62.8318L64.3465 62.8624H64.8837L66.3752 66.6817H65.7892ZM66.9299 66.6817V62.8624H67.4722V66.2765H69.1909V66.6817H66.9299ZM72.1688 66.7769C71.9126 66.7769 71.5845 66.7214 71.1856 66.6092V66.0725C71.6157 66.272 71.9693 66.3717 72.2464 66.3717C72.4595 66.3717 72.6306 66.3162 72.7598 66.204C72.8907 66.0924 72.9559 65.945 72.9559 65.7631C72.9559 65.613 72.9128 65.486 72.8267 65.3812C72.7428 65.2758 72.5858 65.1591 72.3575 65.0299L72.094 64.878C71.7687 64.6921 71.5392 64.517 71.4049 64.3538C71.2723 64.1889 71.206 63.9968 71.206 63.7781C71.206 63.484 71.3131 63.2426 71.5262 63.0533C71.7398 62.8624 72.0112 62.7666 72.3416 62.7666C72.6357 62.7666 72.9462 62.8159 73.2732 62.9139V63.4092C72.8709 63.2511 72.5705 63.1718 72.3728 63.1718C72.1852 63.1718 72.0305 63.2216 71.9081 63.3214C71.7863 63.4211 71.7251 63.5469 71.7251 63.6982C71.7251 63.8257 71.7698 63.9385 71.8594 64.0365C71.9489 64.1345 72.1121 64.2513 72.3495 64.3873L72.6232 64.5425C72.9536 64.7295 73.1837 64.9069 73.3146 65.0741C73.4455 65.2407 73.5106 65.4413 73.5106 65.6753C73.5106 66.0074 73.3877 66.2737 73.1417 66.4754C72.8975 66.6766 72.5734 66.7769 72.1688 66.7769ZM75.8079 66.7769C75.2775 66.7769 74.8508 66.5939 74.5278 66.2272C74.2059 65.8595 74.045 65.3733 74.045 64.7692C74.045 64.1623 74.2065 63.6767 74.5301 63.314C74.8553 62.9491 75.2888 62.7666 75.8311 62.7666C76.3711 62.7666 76.8035 62.9485 77.1288 63.3112C77.4541 63.6744 77.6167 64.1583 77.6167 64.7641C77.6167 65.3818 77.4541 65.8719 77.1288 66.2352C76.8035 66.5967 76.3632 66.7769 75.8079 66.7769ZM75.8153 66.3717C76.2057 66.3717 76.5077 66.2318 76.7214 65.9513C76.9344 65.6691 77.041 65.2718 77.041 64.759C77.041 64.262 76.9339 63.8727 76.7185 63.5928C76.5055 63.3123 76.2091 63.1718 75.8311 63.1718C75.4509 63.1718 75.154 63.3129 74.9403 63.5951C74.7273 63.8756 74.6207 64.266 74.6207 64.7669C74.6207 65.2656 74.7261 65.6577 74.9381 65.9433C75.1494 66.2289 75.4418 66.3717 75.8153 66.3717ZM78.3471 62.8624H78.8889V65.2724C78.8889 65.656 78.9597 65.936 79.1008 66.1111C79.2436 66.285 79.4697 66.3717 79.7791 66.3717C80.0823 66.3717 80.2965 66.2901 80.4217 66.1269C80.5492 65.9615 80.6127 65.6827 80.6127 65.2905V62.8624H81.0875V65.2832C81.0875 65.8045 80.9804 66.1836 80.7651 66.421C80.552 66.6585 80.2115 66.7769 79.7434 66.7769C79.2668 66.7769 78.9149 66.6539 78.6877 66.408C78.4604 66.1621 78.3471 65.7818 78.3471 65.2673V62.8624ZM82.0424 66.6817V62.8624H83.1989C83.565 62.8624 83.8455 62.9428 84.0399 63.1049C84.2365 63.2664 84.3345 63.5016 84.3345 63.8093C84.3345 64.3187 84.0773 64.6797 83.5627 64.8933L84.8377 66.6817H84.1719L83.085 65.0661H82.5796V66.6817H82.0424ZM82.5796 64.661H82.7547C83.4364 64.661 83.7769 64.3935 83.7769 63.8586C83.7769 63.4642 83.4913 63.2675 82.9201 63.2675H82.5796V64.661ZM87.0234 66.7769C86.4301 66.7769 85.9711 66.6035 85.6481 66.2556C85.3245 65.9065 85.1624 65.4129 85.1624 64.7743C85.1624 64.1379 85.3268 63.6444 85.6554 63.293C85.9858 62.9423 86.4505 62.7666 87.0494 62.7666C87.3917 62.7666 87.7923 62.8227 88.2519 62.9343V63.4426C87.7289 63.2624 87.3254 63.1718 87.0415 63.1718C86.6267 63.1718 86.306 63.3123 86.0787 63.5928C85.8515 63.8727 85.7382 64.2688 85.7382 64.7794C85.7382 65.2667 85.8594 65.6509 86.1019 65.9331C86.3445 66.2136 86.676 66.3542 87.0959 66.3542C87.4569 66.3542 87.8439 66.2431 88.257 66.021V66.4856C87.8802 66.68 87.4688 66.7769 87.0234 66.7769ZM89.0441 66.6817V62.8624H89.5858V66.6817H89.0441ZM90.569 66.6817V62.8624H91.1011L93.0232 65.8119V62.8624H93.4879V66.6817H92.9592L91.0336 63.7322V66.6817H90.569ZM97.3463 66.5786C96.8834 66.7112 96.4799 66.7769 96.1359 66.7769C95.5285 66.7769 95.0621 66.6041 94.7368 66.2584C94.4138 65.9127 94.2518 65.4169 94.2518 64.772C94.2518 64.1391 94.4161 63.6466 94.7448 63.2959C95.0734 62.9428 95.5347 62.7666 96.128 62.7666C96.5167 62.7666 96.9213 62.8244 97.3412 62.9394V63.4404C96.8148 63.2613 96.4113 63.1718 96.1308 63.1718C95.7177 63.1718 95.397 63.3123 95.1681 63.5928C94.9408 63.8727 94.8275 64.2677 94.8275 64.7771C94.8275 65.2815 94.9493 65.6736 95.1941 65.9541C95.4384 66.2329 95.7806 66.3717 96.2209 66.3717C96.4017 66.3717 96.5972 66.34 96.8069 66.2765V65.0327H97.3463V66.5786Z" fill="#6A6A6A"/>
<path d="M59.1431 71.5059L58.4925 69.8592L57.8397 71.5059H59.1431ZM59.716 72.9662L59.3006 71.9082H57.6822L57.2618 72.9662H56.7585L58.2732 69.1469H58.8104L60.3019 72.9662H59.716ZM61.3519 72.9662L60.3688 69.1469H60.8901L61.6721 72.1638L62.3923 69.1469H62.9137L63.5948 72.1224L64.4363 69.1469H64.8772L63.8062 72.9662H63.2673L62.5935 70.0218L61.8891 72.9662H61.3519ZM67.3138 71.5059L66.6633 69.8592L66.0105 71.5059H67.3138ZM67.8867 72.9662L67.4708 71.9082H65.853L65.4325 72.9662H64.9293L66.444 69.1469H66.9806L68.4721 72.9662H67.8867ZM69.0274 72.9662V69.1469H70.1834C70.5501 69.1469 70.83 69.2279 71.0249 69.3894C71.221 69.5515 71.319 69.7861 71.319 70.0943C71.319 70.6032 71.0618 70.9647 70.5472 71.1778L71.8222 72.9662H71.1564L70.0695 71.3512H69.5641V72.9662H69.0274ZM69.5641 70.946H69.7397C70.4209 70.946 70.7614 70.678 70.7614 70.1431C70.7614 69.7492 70.4758 69.552 69.9046 69.552H69.5641V70.946ZM72.3719 72.9662V69.1469H73.6412C74.0198 69.1469 74.3252 69.1894 74.5575 69.2732C74.7916 69.3577 74.9939 69.5005 75.1639 69.7016C75.4342 70.0218 75.569 70.4434 75.569 70.9664C75.569 71.6011 75.4013 72.0935 75.0658 72.4426C74.7304 72.7917 74.2583 72.9662 73.6492 72.9662H72.3719ZM72.9136 72.561H73.6078C74.1036 72.561 74.4544 72.4279 74.6607 72.1615C74.8828 71.8776 74.9939 71.4963 74.9939 71.018C74.9939 70.5692 74.8845 70.2162 74.6658 69.96C74.5337 69.8036 74.3751 69.6965 74.1915 69.6399C74.0073 69.5815 73.7302 69.552 73.3602 69.552H72.9136V72.561ZM77.0792 73.062C76.8225 73.062 76.495 73.0059 76.0955 72.8942V72.3576C76.5261 72.5571 76.8792 72.6568 77.1563 72.6568C77.3699 72.6568 77.541 72.6007 77.6702 72.4891C77.8006 72.3774 77.8663 72.2301 77.8663 72.0476C77.8663 71.898 77.8232 71.7705 77.7371 71.6657C77.6527 71.5609 77.4963 71.4441 77.2673 71.3149L77.0044 71.1625C76.6791 70.9766 76.4491 70.8021 76.3153 70.6389C76.1827 70.4734 76.1164 70.2819 76.1164 70.0632C76.1164 69.7691 76.223 69.5271 76.4366 69.3378C76.6497 69.1469 76.9217 69.0517 77.252 69.0517C77.5461 69.0517 77.8567 69.1004 78.1836 69.1984V69.6943C77.7807 69.5356 77.481 69.4568 77.2826 69.4568C77.0951 69.4568 76.9404 69.5067 76.8185 69.6064C76.6961 69.7062 76.6349 69.832 76.6349 69.9833C76.6349 70.1108 76.6797 70.223 76.7692 70.321C76.8588 70.4196 77.022 70.5363 77.2594 70.6723L77.5331 70.827C77.8635 71.0146 78.0941 71.192 78.225 71.3586C78.3553 71.5257 78.4211 71.7258 78.4211 71.9598C78.4211 72.2919 78.2981 72.5588 78.0522 72.7599C77.8074 72.9611 77.4832 73.062 77.0792 73.062ZM80.7977 72.9662V72.5202C80.9456 72.174 81.2453 71.7972 81.6959 71.3897L81.9877 71.1291C82.3628 70.7902 82.5498 70.4536 82.5498 70.1198C82.5498 69.9068 82.4858 69.739 82.3566 69.6166C82.2291 69.4948 82.054 69.4336 81.8301 69.4336C81.5649 69.4336 81.2527 69.5356 80.8934 69.7407V69.2914C81.2323 69.1316 81.5683 69.0517 81.9021 69.0517C82.2602 69.0517 82.5475 69.148 82.764 69.3407C82.981 69.5333 83.0893 69.7889 83.0893 70.1068C83.0893 70.3357 83.0343 70.5392 82.9244 70.716C82.8161 70.8933 82.6127 71.1081 82.3152 71.3614L82.1191 71.5291C81.7111 71.8748 81.4754 72.2052 81.4119 72.5202H83.0711V72.9662H80.7977ZM85.3605 73.062C84.9666 73.062 84.6476 72.8772 84.4028 72.5072C84.1603 72.1355 84.039 71.651 84.039 71.0543C84.039 70.4519 84.1614 69.968 84.4056 69.6013C84.6516 69.2347 84.9751 69.0517 85.3758 69.0517C85.777 69.0517 86.0994 69.2347 86.3436 69.6013C86.5896 69.968 86.7125 70.4496 86.7125 71.0463C86.7125 71.6589 86.5896 72.1485 86.3436 72.5151C86.0994 72.8795 85.7719 73.062 85.3605 73.062ZM85.3656 72.68C85.9039 72.68 86.1736 72.1326 86.1736 71.039C86.1736 69.9685 85.9073 69.4336 85.3758 69.4336C84.8459 69.4336 84.5813 69.9736 84.5813 71.0543C84.5813 72.1383 84.8425 72.68 85.3656 72.68ZM87.843 72.9662V72.5843H88.6069V69.5702L87.843 69.7611V69.369L89.118 69.0517V72.5843H89.8819V72.9662H87.843ZM91.6085 70.8865C91.2351 70.6264 91.0481 70.3391 91.0481 70.0246C91.0481 69.7356 91.1541 69.5005 91.366 69.3197C91.5774 69.1395 91.8534 69.0488 92.1939 69.0488C92.509 69.0488 92.7634 69.1253 92.9584 69.2789C93.1544 69.4319 93.2524 69.6302 93.2524 69.875C93.2524 70.2445 93.015 70.5817 92.5401 70.8865C93.1164 71.1687 93.4043 71.5325 93.4043 71.9779C93.4043 72.2981 93.283 72.5588 93.0405 72.7599C92.7997 72.9611 92.4886 73.062 92.1066 73.062C91.7315 73.062 91.4278 72.9673 91.1954 72.7781C90.9648 72.5871 90.8498 72.3366 90.8498 72.0272C90.8498 71.5694 91.1025 71.1891 91.6085 70.8865ZM92.2563 70.7262C92.6121 70.4927 92.79 70.232 92.79 69.9447C92.79 69.7912 92.7311 69.6682 92.6121 69.5753C92.4937 69.4806 92.3367 69.4336 92.1423 69.4336C91.9548 69.4336 91.8029 69.4801 91.6856 69.573C91.5689 69.6642 91.5105 69.7827 91.5105 69.9289C91.5105 70.0717 91.5626 70.1997 91.6675 70.3136C91.7746 70.4253 91.9706 70.563 92.2563 70.7262ZM91.8845 71.0928C91.6799 71.2509 91.5405 71.3897 91.4663 71.5082C91.3943 71.6255 91.3581 71.7717 91.3581 71.9473C91.3581 72.1655 91.4283 72.3429 91.5694 72.4789C91.7105 72.6132 91.8964 72.68 92.127 72.68C92.3492 72.68 92.5299 72.6222 92.6688 72.5072C92.8099 72.3916 92.8807 72.242 92.8807 72.0578C92.8807 71.9099 92.8365 71.7853 92.7492 71.6838C92.6631 71.5807 92.4954 71.4549 92.246 71.307L91.8845 71.0928Z" fill="#6A6A6A"/>
</g>
</g>
<defs>
<clipPath id="clip0_221_41403">
<rect width="136" height="85" fill="white" transform="translate(0.699951 0.379883)"/>
</clipPath>
</defs>
</svg>
