<svg width="80" height="80" viewBox="0 0 80 80" fill="none" xmlns="http://www.w3.org/2000/svg">
<g id="Hyperledger" clip-path="url(#clip0_431_23967)">
<path id="Vector" fill-rule="evenodd" clip-rule="evenodd" d="M39.6662 21.3438L55.1359 30.4948V48.9479L39.6664 58.6879L23.7969 48.9603V30.4826L39.6662 21.3438ZM26.6674 33.7744V47.3414L38.2202 54.4589V40.9394L26.6674 33.7744ZM41.0907 40.9273V54.4194L52.2654 47.3539V33.8111L41.0907 40.9273ZM50.887 31.2916L39.6449 38.4474L28.108 31.2916L39.6447 24.6792L50.887 31.2916Z" fill="#00267B"/>
<path id="Vector_2" fill-rule="evenodd" clip-rule="evenodd" d="M39.9318 0.6875L46.7774 7.53325L44.5343 9.77649L41.5179 6.76017V17.4135H38.3454V6.76017L35.3291 9.77649L33.0859 7.53325L39.9318 0.6875Z" fill="#00267B"/>
<path id="Vector_3" fill-rule="evenodd" clip-rule="evenodd" d="M39.9318 79.1791L33.0859 72.3335L35.3293 70.0901L38.3456 73.1065V62.4531H41.5179V73.1065L44.5343 70.0901L46.7774 72.3335L39.9318 79.1791Z" fill="#00267B"/>
<path id="Vector_4" fill-rule="evenodd" clip-rule="evenodd" d="M0.691406 39.9318L7.53716 33.0859L9.78039 35.3293L6.76409 38.3456H17.4174V41.5179H6.76409L9.78039 44.5343L7.53716 46.7774L0.691406 39.9318Z" fill="#00267B"/>
<path id="Vector_5" fill-rule="evenodd" clip-rule="evenodd" d="M79.1752 39.9318L72.3296 46.7774L70.0862 44.5343L73.1025 41.5179H62.4492V38.3454H73.1025L70.0862 35.3291L72.3296 33.0859L79.1752 39.9318Z" fill="#00267B"/>
<path id="Vector_6" fill-rule="evenodd" clip-rule="evenodd" d="M3.61719 76.2471V66.5658H6.7896V70.8314L19.8399 57.7812L22.083 60.0244L9.03284 73.0748H13.2986V76.2471H3.61719Z" fill="url(#paint0_linear_431_23967)"/>
<path id="Vector_7" fill-rule="evenodd" clip-rule="evenodd" d="M76.251 3.61719V13.2985H73.0787V9.03284L60.0283 22.083L57.7852 19.8399L70.8353 6.7896H66.5697V3.61719H76.251Z" fill="url(#paint1_linear_431_23967)"/>
<path id="Vector_8" fill-rule="evenodd" clip-rule="evenodd" d="M3.61719 3.61719H13.2986V6.7896H9.03284L22.083 19.8399L19.8399 22.083L6.7896 9.03284V13.2985H3.61719V3.61719Z" fill="url(#paint2_linear_431_23967)"/>
<path id="Vector_9" fill-rule="evenodd" clip-rule="evenodd" d="M76.2512 76.2471H66.5697V73.0748H70.8355L57.7852 60.0244L60.0283 57.7812L73.0787 70.8314V66.5657H76.2512V76.2471Z" fill="url(#paint3_linear_431_23967)"/>
<g id="Group" filter="url(#filter0_d_431_23967)">
<path id="Vector_10" d="M39.9446 46.0533C43.683 46.0533 46.7135 43.0228 46.7135 39.2845C46.7135 35.5461 43.683 32.5156 39.9446 32.5156C36.2063 32.5156 33.1758 35.5461 33.1758 39.2845C33.1758 43.0228 36.2063 46.0533 39.9446 46.0533Z" fill="white"/>
</g>
<path id="Vector_11" d="M39.9419 41.9932C41.4372 41.9932 42.6494 40.781 42.6494 39.2857C42.6494 37.7903 41.4372 36.5781 39.9419 36.5781C38.4466 36.5781 37.2344 37.7903 37.2344 39.2857C37.2344 40.781 38.4466 41.9932 39.9419 41.9932Z" fill="#FB4825"/>
</g>
<defs>
<filter id="filter0_d_431_23967" x="29.1758" y="30.5156" width="21.5391" height="21.5391" filterUnits="userSpaceOnUse" color-interpolation-filters="sRGB">
<feFlood flood-opacity="0" result="BackgroundImageFix"/>
<feColorMatrix in="SourceAlpha" type="matrix" values="0 0 0 0 0 0 0 0 0 0 0 0 0 0 0 0 0 0 127 0" result="hardAlpha"/>
<feOffset dy="2"/>
<feGaussianBlur stdDeviation="2"/>
<feColorMatrix type="matrix" values="0 0 0 0 0 0 0 0 0 0 0 0 0 0 0 0 0 0 0.45 0"/>
<feBlend mode="normal" in2="BackgroundImageFix" result="effect1_dropShadow_431_23967"/>
<feBlend mode="normal" in="SourceGraphic" in2="effect1_dropShadow_431_23967" result="shape"/>
</filter>
<linearGradient id="paint0_linear_431_23967" x1="10.2794" y1="69.5848" x2="20.9347" y2="58.9296" gradientUnits="userSpaceOnUse">
<stop stop-color="#00267B"/>
<stop offset="1" stop-color="#00267B" stop-opacity="0"/>
</linearGradient>
<linearGradient id="paint1_linear_431_23967" x1="69.5887" y1="10.2795" x2="58.83" y2="21.0382" gradientUnits="userSpaceOnUse">
<stop stop-color="#00267B"/>
<stop offset="1" stop-color="#00267B" stop-opacity="0"/>
</linearGradient>
<linearGradient id="paint2_linear_431_23967" x1="10.3139" y1="10.3141" x2="20.7277" y2="20.7279" gradientUnits="userSpaceOnUse">
<stop stop-color="#00267B"/>
<stop offset="1" stop-color="#00267B" stop-opacity="0"/>
</linearGradient>
<linearGradient id="paint3_linear_431_23967" x1="69.5885" y1="69.5846" x2="59.1058" y2="59.1017" gradientUnits="userSpaceOnUse">
<stop stop-color="#00267B"/>
<stop offset="1" stop-color="#00267B" stop-opacity="0"/>
</linearGradient>
<clipPath id="clip0_431_23967">
<rect width="80" height="80" fill="white"/>
</clipPath>
</defs>
</svg>
