<svg width="240" height="150" viewBox="0 0 240 150" fill="none" xmlns="http://www.w3.org/2000/svg">
<g clip-path="url(#clip0_3834_1697)">
<rect width="240" height="150" fill="white"/>
<path d="M2.0127 110.895V98.8005L12.0095 90.0248C26.6611 77.2427 34.1396 69.8024 34.2159 62.362C34.2159 57.1347 30.782 53.4718 23.4561 53.4718C17.4656 53.4718 12.0095 56.4861 8.00311 59.2333L2.58503 44.8868C8.15574 40.8805 17.2749 37.4465 27.5769 37.4465C44.3653 37.4465 54.2476 46.5656 54.2476 60.7977C54.2476 72.3588 46.006 81.7069 37.4592 88.5749L30.3623 94.26V94.4889H55.5831V110.934L2.0127 110.895Z" fill="#E6ECF2"/>
<path d="M119.606 74.7244C119.606 95.9389 110.602 112.155 91.1425 112.155C70.4623 112.155 62.793 93.8022 62.793 74.9152C62.793 55.3414 70.9201 37.4465 91.3715 37.4465C112.395 37.4847 119.606 56.2572 119.606 74.7244ZM82.8246 74.8388C82.7101 90.5208 86.0297 97.1599 91.3715 97.1599C96.4843 97.1599 99.5752 90.3681 99.5752 74.8388C99.5752 59.6148 96.5606 52.5943 91.3715 52.5943C86.1823 52.5943 82.8246 59.157 82.8246 74.8388Z" fill="#E6ECF2"/>
<path d="M123.614 110.896V98.7624L133.611 89.9867C148.301 77.2045 155.742 69.7642 155.818 62.3239C155.818 57.0966 152.384 53.4337 145.058 53.4337C139.068 53.4337 133.611 56.448 129.605 59.1951L124.149 44.8487C129.758 40.8804 138.838 37.4465 149.179 37.4465C165.967 37.4465 175.849 46.5656 175.849 60.7977C175.849 72.3588 167.646 81.7069 159.061 88.5749L151.964 94.2219V94.4508H177.185V110.896H123.614Z" fill="#E6ECF2"/>
<path d="M236.117 56.445C235.717 30.3877 198.468 36.9294 189.175 42.6421L193.176 56.9924C205.057 50.2351 217.293 52.0096 217.293 59.106C217.293 65.3153 205.998 65.6782 198.778 65.6782V79.5077C206.381 79.5077 219.175 78.087 219.175 89.2652C219.175 100.443 199.875 97.2251 190.939 93.7004L187.174 107.894C220.787 121.489 238.393 104.198 237.993 89.8472C237.673 78.3669 228.009 73.0411 222.94 72.4117C234.144 69.3905 236.384 61.2284 236.117 56.445Z" fill="#E6ECF2"/>
<path d="M114.547 74.7701C111.577 75.5031 108.529 75.8889 105.481 75.9275C100.273 75.9275 96.762 74.9244 94.37 73.1883C91.978 71.4908 90.5892 68.7516 90.6277 65.8581C90.6663 58.8365 97.4564 55.2485 106.021 55.2485C109.571 55.2485 112.271 55.7115 113.621 56.2516L112.233 60.5726C110.728 60.1096 108.992 59.7238 105.983 59.7238C101.662 59.7238 98.0737 61.4599 98.0737 65.588C98.0737 69.3688 101.237 71.5679 105.558 71.5679C106.291 71.5679 107.024 71.5293 107.757 71.375V67.9028H104.247V63.7362H114.547V74.7701Z" fill="#CEDE54"/>
<path d="M118.947 55.48H126.007V71.1821H136.115V75.7345H118.947V55.48Z" fill="#CEDE54"/>
<path d="M162.85 65.3951C162.85 71.9151 157.796 76.0432 149.655 76.0432C141.515 76.0432 137.001 71.3364 137.001 65.7038C137.001 59.801 142.055 55.1328 150.08 55.1328C158.567 55.1714 162.85 59.9939 162.85 65.3951ZM144.447 65.6652C144.447 69.446 146.607 71.7994 150.002 71.7994C153.398 71.7994 155.404 69.2531 155.404 65.6266C155.404 62.1544 153.359 59.4924 149.964 59.4924C146.569 59.4924 144.447 61.9229 144.447 65.6652Z" fill="#CEDE54"/>
<path d="M166.592 55.7501C169.37 55.48 172.147 55.3257 174.925 55.3257C178.667 55.3257 180.905 55.5186 182.988 56.3288C184.994 57.0618 186.499 58.4893 186.499 60.4954C186.499 62.1929 185.303 63.8519 182.217 64.7392V64.7778C185.457 65.4722 187.386 67.2855 187.386 69.7161C187.386 71.6065 186.229 73.1111 184.454 74.1142C182.448 75.2716 179.169 75.966 173.575 75.966C171.26 76.0046 168.945 75.8503 166.63 75.6188L166.592 55.7501ZM173.575 63.2732H174.964C177.973 63.2732 179.4 62.463 179.4 61.1899C179.4 59.9939 178.243 59.2223 175.851 59.2223C175.079 59.2223 174.308 59.2609 173.536 59.338L173.575 63.2732ZM173.575 71.9151C174.269 71.9537 174.925 71.9923 175.62 71.9923C177.973 71.9923 179.941 71.2593 179.941 69.4846C179.941 67.787 177.896 67.0926 175.272 67.0926H173.575V71.9151Z" fill="#CEDE54"/>
<path d="M197.958 71.0663L196.492 75.7345H189.2L196.839 55.48H206.175L214.007 75.7345H206.407L204.748 71.0663H197.958ZM203.745 67.0154L202.549 63.3889C202.163 62.2315 201.662 60.6111 201.276 59.4151H201.199C200.813 60.6111 200.427 62.3087 200.041 63.4275L198.922 67.0154H203.745Z" fill="#CEDE54"/>
<path d="M217.364 55.48H224.424V71.1821H234.532V75.7345H217.364V55.48Z" fill="#CEDE54"/>
<path d="M54.0522 87.7714C54.0522 93.4427 50.9658 97.0692 46.0275 97.0692C41.0893 97.0692 38.3115 92.9411 38.3115 88.0414C38.3115 82.9103 41.3593 78.8208 46.259 78.8208C51.4673 78.8594 54.0522 83.0646 54.0522 87.7714ZM42.864 88.0029C42.864 91.3207 44.1757 93.3655 46.2204 93.3655C48.2652 93.3655 49.4997 91.1279 49.4997 87.9643C49.4997 84.9165 48.2652 82.6402 46.1819 82.6402C44.0985 82.6402 42.9026 84.7621 42.864 88.0029Z" fill="#CEDE54"/>
<path d="M60.6125 79.1294V89.1216C60.6125 91.7837 61.4226 93.3269 63.1202 93.3269C64.8177 93.3269 65.6665 91.938 65.6665 89.1216V79.1294H69.9874V88.8516C69.9874 94.2914 67.5183 97.0306 63.043 97.0306C58.6449 97.0306 56.3301 94.3685 56.3301 88.6973V79.0908H60.6125V79.1294Z" fill="#CEDE54"/>
<path d="M76.0065 83.1034H71.917V79.1296H84.4555V83.0648H80.2889V96.7993H76.0065V83.1034Z" fill="#CEDE54"/>
<path d="M86.4625 92.0926C87.7357 92.7871 89.1631 93.1729 90.6292 93.2114C92.0952 93.2114 92.8282 92.6713 92.8282 91.784C92.8282 90.8966 92.0952 90.4337 90.3205 89.7392C87.6199 88.6976 85.8452 87.0386 85.8452 84.4152C85.8452 81.2902 88.1986 78.8982 92.2495 78.8982C93.7541 78.8597 95.2202 79.1683 96.6091 79.8242L95.7217 83.605C94.6415 83.0649 93.4455 82.7562 92.2495 82.7562C90.9378 82.7562 90.2434 83.2964 90.2434 84.068C90.2434 84.9553 91.0921 85.3411 93.0983 86.1513C95.9532 87.3087 97.2649 89.0062 97.2649 91.4753C97.2649 94.5232 95.1045 97.1466 90.4363 97.1466C88.8159 97.1466 87.1955 96.7608 85.7295 96.0278L86.4625 92.0926Z" fill="#CEDE54"/>
<path d="M114.549 87.7714C114.549 93.4427 111.462 97.0692 106.524 97.0692C101.586 97.0692 98.8467 92.9411 98.8467 88.0414C98.8467 82.9103 101.895 78.8208 106.794 78.8208C111.925 78.8594 114.549 83.0646 114.549 87.7714ZM103.361 88.0029C103.361 91.3207 104.672 93.3655 106.717 93.3655C108.762 93.3655 109.996 91.1279 109.996 87.9643C109.996 84.9165 108.762 82.6402 106.717 82.6402C104.672 82.6402 103.361 84.7621 103.361 88.0029Z" fill="#CEDE54"/>
<path d="M121.106 79.1294V89.1216C121.106 91.7837 121.916 93.3269 123.613 93.3269C125.311 93.3269 126.16 91.938 126.16 89.1216V79.1294H130.442V88.8516C130.442 94.2914 127.973 97.0306 123.498 97.0306C119.099 97.0306 116.823 94.3685 116.823 88.6973V79.0908H121.106V79.1294Z" fill="#CEDE54"/>
<path d="M133.335 79.361C135.032 79.091 136.769 78.9752 138.505 79.0138C140.935 79.0138 142.71 79.361 143.906 80.3641C144.909 81.2129 145.488 82.486 145.488 84.2221C145.488 86.074 144.407 87.7329 142.748 88.5045V88.6203C143.829 89.1218 144.369 90.2406 144.793 91.7452C145.295 93.5585 145.796 96.1048 146.144 96.7992H141.745C141.282 95.4875 140.897 94.1372 140.627 92.7483C140.202 90.6264 139.624 90.202 138.273 90.202H137.579V96.7992H133.335V79.361ZM137.579 86.7684H138.698C140.318 86.7684 141.244 85.8811 141.244 84.5694C141.244 83.2576 140.472 82.486 139.045 82.486C138.543 82.486 138.08 82.486 137.579 82.6018V86.7684Z" fill="#CEDE54"/>
<path d="M159.801 96.3362C158.528 96.8763 157.139 97.1078 155.75 97.0692C149.77 97.0692 147.146 92.9411 147.146 88.2343C147.146 82.0229 151.275 78.8208 156.058 78.8208C157.91 78.8208 159.415 79.2066 160.071 79.5924L159.222 83.2961C158.296 82.8717 157.293 82.6788 156.251 82.6788C153.782 82.6788 151.66 84.2606 151.66 87.8871C151.66 91.0893 153.396 93.0954 156.329 93.0954C157.293 93.0954 158.296 92.9025 159.183 92.5553L159.801 96.3362Z" fill="#CEDE54"/>
<path d="M166.4 79.1296V96.7993H162.117V79.1682H166.4V79.1296Z" fill="#CEDE54"/>
<path d="M169.331 96.7993V79.1296H174.385L176.931 84.5309C177.896 86.537 178.745 88.5818 179.439 90.7037H179.516C179.285 88.2345 179.169 85.7654 179.169 83.2577V79.1296H183.104V96.7993H178.59L175.89 90.9351C174.887 88.8518 173.999 86.7299 173.189 84.5309H173.112C173.189 86.9228 173.266 89.5848 173.266 92.4398V96.7993H169.331Z" fill="#CEDE54"/>
<path d="M199.925 95.9503C198.15 96.5676 196.298 96.9148 194.408 96.9534C191.244 96.9534 189.122 96.1047 187.656 94.5615C186.19 93.0183 185.38 90.7035 185.38 88.1572C185.418 82.0229 189.547 78.8979 194.716 78.8979C196.877 78.8979 198.497 79.3223 199.346 79.7467L198.497 83.5276C197.301 82.9874 195.989 82.756 194.678 82.7945C192.054 82.7945 189.855 84.2992 189.855 87.8871C189.855 91.205 191.784 93.0954 194.408 93.0954C194.871 93.0954 195.295 93.0568 195.719 92.9411V89.8933H193.597V86.2282H199.886V95.9503H199.925Z" fill="#CEDE54"/>
<path d="M206.176 82.949H206.137L203.244 84.4536L202.665 81.753L206.562 79.7083H209.571V96.7992H206.176V82.949Z" fill="#003D79"/>
<path d="M222.456 88.1573C222.456 94.2916 220.218 96.9922 217.479 96.9922C213.737 96.9922 212.502 92.7098 212.502 88.3116C212.502 83.412 214.084 79.4768 217.633 79.4768C221.568 79.4768 222.456 84.1064 222.456 88.1573ZM215.974 88.2345C215.936 92.2468 216.437 94.0601 217.595 94.0601C218.675 94.0601 219.061 92.1697 219.061 88.2345C219.061 84.5694 218.713 82.4089 217.595 82.4089C216.476 82.4089 215.936 84.2607 215.974 88.2345Z" fill="#003D79"/>
<path d="M234.455 88.1573C234.455 94.2916 232.217 96.9922 229.478 96.9922C225.736 96.9922 224.501 92.7098 224.501 88.3116C224.501 83.412 226.083 79.4768 229.632 79.4768C233.529 79.4768 234.455 84.1064 234.455 88.1573ZM227.935 88.2345C227.896 92.2468 228.398 94.0601 229.555 94.0601C230.635 94.0601 230.982 92.1697 230.982 88.2345C230.982 84.5694 230.635 82.4089 229.555 82.4089C228.475 82.4089 227.896 84.2607 227.935 88.2345Z" fill="#003D79"/>
<path d="M32.9903 57.6787H29.0166V74.0367H32.9903V57.6787Z" fill="#003D79"/>
<path d="M41.4761 57.6787L34.5703 74.0367H38.6212L40.0487 70.3716H46.8388L48.1891 74.0367H52.3172L45.5271 57.6787H41.4761ZM41.0903 67.7095L43.4437 61.691H43.4823L45.7585 67.7095H41.0903Z" fill="#003D79"/>
<path d="M62.0409 74.3842C67.6736 74.3842 70.9529 70.6033 70.9529 65.8966C70.9529 61.0355 67.6736 57.2546 62.0409 57.2546C56.4468 57.2546 53.1289 61.0355 53.1289 65.8966C53.1289 70.6033 56.4082 74.3842 62.0409 74.3842ZM62.0409 60.3025C65.6288 60.3025 66.9792 63.0417 66.9792 65.9352C66.9792 68.6743 65.6288 71.4135 62.0409 71.4135C58.453 71.4135 57.1027 68.6743 57.1027 65.9352C57.1027 63.0417 58.453 60.3025 62.0409 60.3025Z" fill="#003D79"/>
<path d="M81.8342 57.6787H73.6553V74.0367H77.629V68.1725H81.7957C86.3095 68.1725 88.0842 65.5876 88.0842 62.9256C88.0842 60.2636 86.3481 57.6787 81.8342 57.6787ZM80.7154 65.3947H77.629V60.4565H80.7154C82.5673 60.4565 84.2262 60.8809 84.2262 62.9256C84.2262 65.0089 82.5673 65.3947 80.7154 65.3947Z" fill="#003D79"/>
<path d="M26.7381 77.7788C27.0853 77.8174 27.394 77.856 27.7412 77.8945V76.3513C27.394 76.3128 27.0468 76.2742 26.7381 76.2356C17.9419 75.1939 11.3832 70.6415 11.3832 65.2403V65.0088H5.32617V66.5134H9.9172C10.8817 72.1847 17.8647 76.7757 26.7381 77.7788Z" fill="url(#paint0_linear_3834_1697)"/>
<path d="M44.678 56.0589C41.5916 54.2456 37.5793 53.011 33.1426 52.6252V52.8181V54.1299C35.9589 54.3613 38.6981 54.9786 41.3216 56.0203H44.678V56.0589Z" fill="url(#paint1_linear_3834_1697)"/>
<path d="M10.3047 62.4629H11.9636C14.1241 57.6404 21.7244 54.0524 30.4435 54.0524H30.675V49.5386H29.1703V52.5478C19.9883 52.895 12.3109 57.0231 10.3047 62.4629Z" fill="url(#paint2_linear_3834_1697)"/>
</g>
<defs>
<linearGradient id="paint0_linear_3834_1697" x1="8.75206" y1="80.7642" x2="24.3406" y2="62.1865" gradientUnits="userSpaceOnUse">
<stop stop-color="#00407C"/>
<stop offset="0.04" stop-color="#003D79"/>
<stop offset="0.09" stop-color="#005C99"/>
<stop offset="0.15" stop-color="#0076B4"/>
<stop offset="0.22" stop-color="#008BCA"/>
<stop offset="0.29" stop-color="#0099D9"/>
<stop offset="0.38" stop-color="#00A1E1"/>
<stop offset="0.51" stop-color="#00A4E4"/>
<stop offset="1" stop-color="#003D79"/>
</linearGradient>
<linearGradient id="paint1_linear_3834_1697" x1="35.7027" y1="58.1865" x2="42.1504" y2="50.5025" gradientUnits="userSpaceOnUse">
<stop stop-color="#00407C"/>
<stop offset="0.04" stop-color="#003D79"/>
<stop offset="0.09" stop-color="#005C99"/>
<stop offset="0.15" stop-color="#0076B4"/>
<stop offset="0.22" stop-color="#008BCA"/>
<stop offset="0.29" stop-color="#0099D9"/>
<stop offset="0.38" stop-color="#00A1E1"/>
<stop offset="0.51" stop-color="#00A4E4"/>
<stop offset="1" stop-color="#003D79"/>
</linearGradient>
<linearGradient id="paint2_linear_3834_1697" x1="13.9076" y1="65.667" x2="28.6933" y2="48.046" gradientUnits="userSpaceOnUse">
<stop stop-color="#00407C"/>
<stop offset="0.04" stop-color="#003D79"/>
<stop offset="0.09" stop-color="#005C99"/>
<stop offset="0.15" stop-color="#0076B4"/>
<stop offset="0.22" stop-color="#008BCA"/>
<stop offset="0.29" stop-color="#0099D9"/>
<stop offset="0.38" stop-color="#00A1E1"/>
<stop offset="0.51" stop-color="#00A4E4"/>
<stop offset="1" stop-color="#003D79"/>
</linearGradient>
<clipPath id="clip0_3834_1697">
<rect width="240" height="150" fill="white"/>
</clipPath>
</defs>
</svg>
