<svg width="241" height="150" viewBox="0 0 241 150" fill="none" xmlns="http://www.w3.org/2000/svg">
<g clip-path="url(#clip0_221_41270)">
<mask id="mask0_221_41270" style="mask-type:luminance" maskUnits="userSpaceOnUse" x="0" y="0" width="241" height="150">
<path d="M240.82 0H0.820068V150H240.82V0Z" fill="white"/>
</mask>
<g mask="url(#mask0_221_41270)">
<path d="M240.82 0H0.820068V150H240.82V0Z" fill="white"/>
<path d="M2.83179 110.895V98.8003L12.8286 90.0246C27.4802 77.2425 34.9587 69.8022 35.035 62.3618C35.035 57.1345 31.6011 53.4716 24.2752 53.4716C18.2847 53.4716 12.8286 56.4859 8.8222 59.2331L3.40412 44.8866C8.97483 40.8803 18.094 37.4463 28.396 37.4463C45.1844 37.4463 55.0667 46.5654 55.0667 60.7975C55.0667 72.3586 46.8251 81.7067 38.2783 88.5747L31.1814 94.2598V94.4887H56.4022V110.934L2.83179 110.895Z" fill="#E6ECF2"/>
<path d="M120.426 74.7242C120.426 95.9387 111.422 112.155 91.9625 112.155C71.2823 112.155 63.613 93.802 63.613 74.915C63.613 55.3412 71.7401 37.4463 92.1915 37.4463C113.215 37.4845 120.426 56.257 120.426 74.7242ZM83.6446 74.8386C83.5301 90.5206 86.8497 97.1597 92.1915 97.1597C97.3043 97.1597 100.395 90.3679 100.395 74.8386C100.395 59.6146 97.3806 52.5941 92.1915 52.5941C87.0023 52.5941 83.6446 59.1568 83.6446 74.8386Z" fill="#E6ECF2"/>
<path d="M124.433 110.896V98.7622L134.43 89.9865C149.12 77.2043 156.561 69.764 156.637 62.3237C156.637 57.0964 153.203 53.4335 145.877 53.4335C139.887 53.4335 134.43 56.4478 130.424 59.1949L124.968 44.8485C130.577 40.8802 139.657 37.4463 149.998 37.4463C166.786 37.4463 176.668 46.5654 176.668 60.7975C176.668 72.3586 168.465 81.7067 159.88 88.5747L152.783 94.2217V94.4506H178.004V110.896H124.433Z" fill="#E6ECF2"/>
<path d="M236.939 56.4454C236.539 30.3881 199.29 36.9298 189.997 42.6425L193.998 56.9928C205.879 50.2355 218.115 52.01 218.115 59.1064C218.115 65.3157 206.82 65.6786 199.6 65.6786V79.5081C207.203 79.5081 219.997 78.0874 219.997 89.2656C219.997 100.443 200.697 97.2255 191.761 93.7008L187.996 107.894C221.609 121.489 239.215 104.198 238.815 89.8476C238.495 78.3673 228.831 73.0415 223.762 72.4121C234.966 69.3909 237.206 61.2288 236.939 56.4454Z" fill="#E6ECF2"/>
<path d="M115.365 74.7696C112.395 75.5026 109.347 75.8884 106.299 75.927C101.091 75.927 97.5802 74.9239 95.1882 73.1878C92.7962 71.4903 91.4073 68.7511 91.4458 65.8576C91.4844 58.836 98.2746 55.248 106.839 55.248C110.389 55.248 113.089 55.711 114.439 56.2511L113.051 60.5721C111.546 60.1091 109.81 59.7233 106.801 59.7233C102.48 59.7233 98.8918 61.4594 98.8918 65.5875C98.8918 69.3683 102.055 71.5674 106.376 71.5674C107.109 71.5674 107.842 71.5288 108.575 71.3745V67.9023H105.065V63.7357H115.365V74.7696Z" fill="#CEDE54"/>
<path d="M119.765 55.4805H126.825V71.1826H136.933V75.735H119.765V55.4805Z" fill="#CEDE54"/>
<path d="M163.669 65.3951C163.669 71.9151 158.615 76.0432 150.474 76.0432C142.334 76.0432 137.82 71.3364 137.82 65.7038C137.82 59.801 142.874 55.1328 150.899 55.1328C159.386 55.1714 163.669 59.9939 163.669 65.3951ZM145.266 65.6652C145.266 69.446 147.426 71.7994 150.821 71.7994C154.217 71.7994 156.223 69.2531 156.223 65.6266C156.223 62.1544 154.178 59.4924 150.783 59.4924C147.388 59.4924 145.266 61.9229 145.266 65.6652Z" fill="#CEDE54"/>
<path d="M167.414 55.7506C170.192 55.4805 172.969 55.3262 175.747 55.3262C179.489 55.3262 181.727 55.5191 183.81 56.3293C185.816 57.0623 187.321 58.4898 187.321 60.4959C187.321 62.1934 186.125 63.8524 183.039 64.7397V64.7783C186.279 65.4727 188.208 67.286 188.208 69.7166C188.208 71.607 187.051 73.1116 185.276 74.1147C183.27 75.2721 179.991 75.9665 174.397 75.9665C172.082 76.0051 169.767 75.8508 167.452 75.6193L167.414 55.7506ZM174.397 63.2737H175.786C178.795 63.2737 180.222 62.4635 180.222 61.1904C180.222 59.9944 179.065 59.2228 176.673 59.2228C175.901 59.2228 175.13 59.2614 174.358 59.3385L174.397 63.2737ZM174.397 71.9156C175.091 71.9542 175.747 71.9928 176.442 71.9928C178.795 71.9928 180.763 71.2598 180.763 69.4851C180.763 67.7875 178.718 67.0931 176.094 67.0931H174.397V71.9156Z" fill="#CEDE54"/>
<path d="M198.777 71.0668L197.311 75.735H190.019L197.658 55.4805H206.994L214.826 75.735H207.226L205.567 71.0668H198.777ZM204.564 67.0159L203.368 63.3894C202.982 62.232 202.481 60.6116 202.095 59.4156H202.018C201.632 60.6116 201.246 62.3092 200.86 63.428L199.741 67.0159H204.564Z" fill="#CEDE54"/>
<path d="M218.183 55.4805H225.243V71.1826H235.351V75.735H218.183V55.4805Z" fill="#CEDE54"/>
<path d="M54.8733 87.7709C54.8733 93.4422 51.7869 97.0687 46.8486 97.0687C41.9104 97.0687 39.1326 92.9406 39.1326 88.0409C39.1326 82.9098 42.1804 78.8203 47.0801 78.8203C52.2884 78.8589 54.8733 83.0641 54.8733 87.7709ZM43.6851 88.0024C43.6851 91.3202 44.9968 93.365 47.0415 93.365C49.0863 93.365 50.3208 91.1274 50.3208 87.9638C50.3208 84.916 49.0863 82.6397 47.003 82.6397C44.9196 82.6397 43.7237 84.7616 43.6851 88.0024Z" fill="#CEDE54"/>
<path d="M61.4345 79.1294V89.1216C61.4345 91.7837 62.2446 93.3269 63.9422 93.3269C65.6397 93.3269 66.4885 91.938 66.4885 89.1216V79.1294H70.8094V88.8516C70.8094 94.2914 68.3403 97.0306 63.865 97.0306C59.4669 97.0306 57.1521 94.3685 57.1521 88.6973V79.0908H61.4345V79.1294Z" fill="#CEDE54"/>
<path d="M76.8275 83.1037H72.738V79.1299H85.2765V83.0651H81.1099V96.7996H76.8275V83.1037Z" fill="#CEDE54"/>
<path d="M87.2835 92.0921C88.5567 92.7866 89.9841 93.1724 91.4502 93.2109C92.9162 93.2109 93.6492 92.6708 93.6492 91.7835C93.6492 90.8961 92.9162 90.4332 91.1415 89.7387C88.4409 88.6971 86.6662 87.0381 86.6662 84.4147C86.6662 81.2897 89.0196 78.8977 93.0705 78.8977C94.5751 78.8592 96.0412 79.1678 97.4301 79.8237L96.5427 83.6045C95.4625 83.0644 94.2665 82.7557 93.0705 82.7557C91.7588 82.7557 91.0644 83.2959 91.0644 84.0675C91.0644 84.9548 91.9131 85.3406 93.9193 86.1508C96.7742 87.3082 98.0859 89.0057 98.0859 91.4748C98.0859 94.5227 95.9255 97.1461 91.2573 97.1461C89.6369 97.1461 88.0165 96.7603 86.5505 96.0273L87.2835 92.0921Z" fill="#CEDE54"/>
<path d="M115.37 87.7709C115.37 93.4422 112.283 97.0687 107.345 97.0687C102.407 97.0687 99.6677 92.9406 99.6677 88.0409C99.6677 82.9098 102.716 78.8203 107.615 78.8203C112.746 78.8589 115.37 83.0641 115.37 87.7709ZM104.182 88.0024C104.182 91.3202 105.493 93.365 107.538 93.365C109.583 93.365 110.817 91.1274 110.817 87.9638C110.817 84.916 109.583 82.6397 107.538 82.6397C105.493 82.6397 104.182 84.7616 104.182 88.0024Z" fill="#CEDE54"/>
<path d="M121.927 79.1294V89.1216C121.927 91.7837 122.737 93.3269 124.434 93.3269C126.132 93.3269 126.981 91.938 126.981 89.1216V79.1294H131.263V88.8516C131.263 94.2914 128.794 97.0306 124.319 97.0306C119.92 97.0306 117.644 94.3685 117.644 88.6973V79.0908H121.927V79.1294Z" fill="#CEDE54"/>
<path d="M134.156 79.3613C135.853 79.0913 137.59 78.9755 139.326 79.0141C141.756 79.0141 143.531 79.3613 144.727 80.3644C145.73 81.2132 146.309 82.4863 146.309 84.2224C146.309 86.0743 145.228 87.7332 143.569 88.5048V88.6206C144.65 89.1221 145.19 90.2409 145.614 91.7455C146.116 93.5588 146.617 96.1051 146.965 96.7995H142.566C142.103 95.4878 141.718 94.1375 141.448 92.7486C141.023 90.6267 140.445 90.2023 139.094 90.2023H138.4V96.7995H134.156V79.3613ZM138.4 86.7687H139.519C141.139 86.7687 142.065 85.8814 142.065 84.5697C142.065 83.2579 141.293 82.4863 139.866 82.4863C139.364 82.4863 138.901 82.4863 138.4 82.6021V86.7687Z" fill="#CEDE54"/>
<path d="M160.62 96.3357C159.347 96.8758 157.958 97.1073 156.569 97.0687C150.589 97.0687 147.965 92.9406 147.965 88.2338C147.965 82.0224 152.094 78.8203 156.877 78.8203C158.729 78.8203 160.234 79.2061 160.89 79.5919L160.041 83.2956C159.115 82.8712 158.112 82.6783 157.07 82.6783C154.601 82.6783 152.479 84.2601 152.479 87.8866C152.479 91.0888 154.215 93.0949 157.148 93.0949C158.112 93.0949 159.115 92.902 160.002 92.5548L160.62 96.3357Z" fill="#CEDE54"/>
<path d="M167.22 79.1299V96.7996H162.937V79.1685H167.22V79.1299Z" fill="#CEDE54"/>
<path d="M170.152 96.7996V79.1299H175.206L177.752 84.5312C178.717 86.5373 179.566 88.5821 180.26 90.704H180.337C180.106 88.2348 179.99 85.7657 179.99 83.258V79.1299H183.925V96.7996H179.411L176.711 90.9354C175.708 88.8521 174.82 86.7302 174.01 84.5312H173.933C174.01 86.9231 174.087 89.5851 174.087 92.4401V96.7996H170.152Z" fill="#CEDE54"/>
<path d="M200.744 95.9499C198.969 96.5672 197.117 96.9144 195.227 96.953C192.063 96.953 189.941 96.1043 188.475 94.5611C187.009 93.0179 186.199 90.7031 186.199 88.1568C186.237 82.0225 190.366 78.8975 195.535 78.8975C197.696 78.8975 199.316 79.3219 200.165 79.7463L199.316 83.5272C198.12 82.987 196.808 82.7556 195.497 82.7941C192.873 82.7941 190.674 84.2988 190.674 87.8867C190.674 91.2046 192.603 93.095 195.227 93.095C195.69 93.095 196.114 93.0564 196.538 92.9407V89.8929H194.416V86.2278H200.705V95.9499H200.744Z" fill="#CEDE54"/>
<path d="M206.995 82.9487H206.956L204.063 84.4533L203.484 81.7527L207.381 79.708H210.39V96.7989H206.995V82.9487Z" fill="#003D79"/>
<path d="M223.278 88.1571C223.278 94.2914 221.04 96.992 218.301 96.992C214.559 96.992 213.324 92.7096 213.324 88.3114C213.324 83.4118 214.906 79.4766 218.455 79.4766C222.39 79.4766 223.278 84.1062 223.278 88.1571ZM216.796 88.2343C216.758 92.2466 217.259 94.0599 218.417 94.0599C219.497 94.0599 219.883 92.1695 219.883 88.2343C219.883 84.5692 219.535 82.4087 218.417 82.4087C217.298 82.4087 216.758 84.2605 216.796 88.2343Z" fill="#003D79"/>
<path d="M235.274 88.1571C235.274 94.2914 233.036 96.992 230.297 96.992C226.555 96.992 225.32 92.7096 225.32 88.3114C225.32 83.4118 226.902 79.4766 230.451 79.4766C234.348 79.4766 235.274 84.1062 235.274 88.1571ZM228.754 88.2343C228.715 92.2466 229.217 94.0599 230.374 94.0599C231.454 94.0599 231.801 92.1695 231.801 88.2343C231.801 84.5692 231.454 82.4087 230.374 82.4087C229.294 82.4087 228.715 84.2605 228.754 88.2343Z" fill="#003D79"/>
<path d="M33.8094 57.6787H29.8357V74.0367H33.8094V57.6787Z" fill="#003D79"/>
<path d="M42.2962 57.6787L35.3904 74.0367H39.4413L40.8688 70.3716H47.6589L49.0092 74.0367H53.1373L46.3472 57.6787H42.2962ZM41.9104 67.7095L44.2638 61.691H44.3024L46.5786 67.7095H41.9104Z" fill="#003D79"/>
<path d="M62.861 74.3845C68.4937 74.3845 71.773 70.6036 71.773 65.8969C71.773 61.0358 68.4937 57.2549 62.861 57.2549C57.2669 57.2549 53.949 61.0358 53.949 65.8969C53.949 70.6036 57.2283 74.3845 62.861 74.3845ZM62.861 60.3028C66.4489 60.3028 67.7993 63.042 67.7993 65.9355C67.7993 68.6746 66.4489 71.4138 62.861 71.4138C59.2731 71.4138 57.9228 68.6746 57.9228 65.9355C57.9228 63.042 59.2731 60.3028 62.861 60.3028Z" fill="#003D79"/>
<path d="M82.6552 57.6787H74.4763V74.0367H78.45V68.1725H82.6167C87.1305 68.1725 88.9052 65.5876 88.9052 62.9256C88.9052 60.2636 87.1691 57.6787 82.6552 57.6787ZM81.5364 65.3947H78.45V60.4565H81.5364C83.3883 60.4565 85.0472 60.8809 85.0472 62.9256C85.0472 65.0089 83.3883 65.3947 81.5364 65.3947Z" fill="#003D79"/>
<path d="M27.5562 77.7788C27.9034 77.8174 28.2121 77.856 28.5593 77.8945V76.3513C28.2121 76.3128 27.8649 76.2742 27.5562 76.2356C18.76 75.1939 12.2013 70.6415 12.2013 65.2403V65.0088H6.14429V66.5134H10.7353C11.6998 72.1847 18.6828 76.7757 27.5562 77.7788Z" fill="url(#paint0_linear_221_41270)"/>
<path d="M45.5 56.0587C42.4136 54.2454 38.4013 53.0108 33.9646 52.625V52.8179V54.1297C36.7809 54.3611 39.5201 54.9784 42.1436 56.0201H45.5V56.0587Z" fill="url(#paint1_linear_221_41270)"/>
<path d="M11.1248 62.4634H12.7837C14.9442 57.6409 22.5445 54.0529 31.2636 54.0529H31.4951V49.5391H29.9904V52.5483C20.8084 52.8955 13.131 57.0236 11.1248 62.4634Z" fill="url(#paint2_linear_221_41270)"/>
</g>
</g>
<defs>
<linearGradient id="paint0_linear_221_41270" x1="9.57018" y1="80.7642" x2="25.1587" y2="62.1865" gradientUnits="userSpaceOnUse">
<stop stop-color="#00407C"/>
<stop offset="0.04" stop-color="#003D79"/>
<stop offset="0.09" stop-color="#005C99"/>
<stop offset="0.15" stop-color="#0076B4"/>
<stop offset="0.22" stop-color="#008BCA"/>
<stop offset="0.29" stop-color="#0099D9"/>
<stop offset="0.38" stop-color="#00A1E1"/>
<stop offset="0.51" stop-color="#00A4E4"/>
<stop offset="1" stop-color="#003D79"/>
</linearGradient>
<linearGradient id="paint1_linear_221_41270" x1="36.5247" y1="58.1863" x2="42.9724" y2="50.5023" gradientUnits="userSpaceOnUse">
<stop stop-color="#00407C"/>
<stop offset="0.04" stop-color="#003D79"/>
<stop offset="0.09" stop-color="#005C99"/>
<stop offset="0.15" stop-color="#0076B4"/>
<stop offset="0.22" stop-color="#008BCA"/>
<stop offset="0.29" stop-color="#0099D9"/>
<stop offset="0.38" stop-color="#00A1E1"/>
<stop offset="0.51" stop-color="#00A4E4"/>
<stop offset="1" stop-color="#003D79"/>
</linearGradient>
<linearGradient id="paint2_linear_221_41270" x1="14.7277" y1="65.6675" x2="29.5134" y2="48.0465" gradientUnits="userSpaceOnUse">
<stop stop-color="#00407C"/>
<stop offset="0.04" stop-color="#003D79"/>
<stop offset="0.09" stop-color="#005C99"/>
<stop offset="0.15" stop-color="#0076B4"/>
<stop offset="0.22" stop-color="#008BCA"/>
<stop offset="0.29" stop-color="#0099D9"/>
<stop offset="0.38" stop-color="#00A1E1"/>
<stop offset="0.51" stop-color="#00A4E4"/>
<stop offset="1" stop-color="#003D79"/>
</linearGradient>
<clipPath id="clip0_221_41270">
<rect width="240" height="150" fill="white" transform="translate(0.820068)"/>
</clipPath>
</defs>
</svg>
