<svg width="54" height="52" viewBox="0 0 54 52" fill="none" xmlns="http://www.w3.org/2000/svg">
<g id="hypothesising-and-testing-1.svg" clip-path="url(#clip0_116_28374)">
<path id="Vector" d="M16.6204 45.8301C26.5784 51.6389 39.36 48.2753 45.1689 38.3172L46.9223 39.3401C40.5485 50.2665 26.524 53.9572 15.5976 47.5835L16.6204 45.8301Z" fill="url(#paint0_linear_116_28374)"/>
<path id="Vector_2" d="M47.9289 28.5386C48.4448 17.0217 39.5266 7.26725 28.0097 6.75143L28.1006 4.7235C40.7374 5.28947 50.5229 15.9925 49.9569 28.6294L47.9289 28.5386Z" fill="url(#paint1_linear_116_28374)"/>
<path id="Vector_3" d="M16.2209 9.84583C6.3974 15.8793 3.32492 28.734 9.35838 38.5575L7.62861 39.6199C1.00842 28.841 4.37969 14.7363 15.1586 8.11607L16.2209 9.84583Z" fill="url(#paint2_linear_116_28374)"/>
<path id="Vector_4" fill-rule="evenodd" clip-rule="evenodd" d="M31.9028 12.3504L35.463 15.7947C35.7522 15.6514 36.0799 15.5367 36.4312 15.4771C37.2306 15.3413 38.172 15.4931 38.9844 16.2416C39.7739 16.9689 40.0486 17.8685 39.9903 18.7001C39.9615 19.1097 39.8532 19.498 39.6951 19.8427L43.0948 23.2362L38.4597 28.0118L37.7344 27.3784C37.4277 27.1106 37.0905 26.9536 36.8028 26.9197C36.551 26.8902 36.3022 26.946 36.0464 27.1902C35.7712 27.4529 35.6891 27.7233 35.6996 27.9783C35.7109 28.2572 35.8394 28.5857 36.1059 28.8873L36.7387 29.6031L22.3326 43.9821L11.1913 32.9825L14.5002 29.6799C14.3491 29.3714 14.2276 29.0174 14.1754 28.6296C14.0629 27.7924 14.2884 26.8774 15.0605 26.0702C16.2316 24.8456 17.6678 24.8436 18.7205 25.3279L25.5138 18.7609L26.217 19.3848C26.3118 19.4689 26.5986 19.6416 26.95 19.6913C27.2586 19.735 27.5909 19.6844 27.9239 19.387C28.6225 18.7631 28.4705 17.9505 28.1203 17.5741L27.4585 16.8628L31.9028 12.3504ZM31.9373 15.2082L30.1513 17.0216C30.6679 18.1713 30.5785 19.7378 29.2761 20.9011C28.431 21.6558 27.4722 21.8154 26.6656 21.7013C26.3097 21.651 25.978 21.5474 25.6868 21.4171L18.8673 28.0094L18.1628 27.3604C17.9849 27.1964 17.7107 27.0681 17.4243 27.0581C17.17 27.0492 16.8558 27.13 16.5275 27.4732C16.1928 27.8232 16.1549 28.1181 16.1873 28.3592C16.2266 28.652 16.3897 28.9523 16.5731 29.172L17.1683 29.8849L14.0727 32.9747L22.3248 41.1217L34.0381 29.4304C33.8241 29.0094 33.6911 28.5453 33.6712 28.0611C33.6369 27.2194 33.9501 26.385 34.6446 25.722C35.3584 25.0405 36.2163 24.8069 37.0396 24.9036C37.4792 24.9552 37.8935 25.098 38.2671 25.2956L40.244 23.2588L36.9959 20.0168L37.6545 19.2997C37.8001 19.141 37.9443 18.8572 37.9653 18.5581C37.9833 18.3009 37.9155 18.0169 37.6089 17.7344C37.3251 17.473 37.0456 17.4318 36.7709 17.4785C36.4515 17.5326 36.17 17.7081 36.0497 17.824L35.3441 18.5041L31.9373 15.2082Z" fill="#01267B"/>
<path id="Vector_5" fill-rule="evenodd" clip-rule="evenodd" d="M24.4765 36.6421L22.3583 38.8044L20.9081 37.3839L23.0264 35.2215L24.4765 36.6421Z" fill="#01267B"/>
<path id="Vector_6" fill-rule="evenodd" clip-rule="evenodd" d="M24.2605 26.7642L21.6093 24.0156L23.0704 22.6063L26.9437 26.6219L26.3013 27.3253C26.1446 27.4968 25.9801 27.8048 25.941 28.1347C25.9061 28.4291 25.9684 28.7258 26.2363 29.0089C26.5018 29.2894 26.7768 29.3566 27.0557 29.3303C27.374 29.3003 27.7083 29.1397 27.9437 28.9371L28.6526 28.3272L32.3198 31.9438L30.8944 33.3892L28.471 30.9991C28.1027 31.1796 27.6871 31.3097 27.2467 31.3513C26.4066 31.4307 25.4969 31.1808 24.7619 30.4042C24.0294 29.6302 23.8284 28.7112 23.9252 27.8956C23.9734 27.4886 24.0951 27.1043 24.2605 26.7642Z" fill="#01267B"/>
<g id="Group" filter="url(#filter0_d_116_28374)">
<path id="Vector_7" d="M46.4159 41.8084C48.5991 41.8084 50.369 40.0385 50.369 37.8553C50.369 35.6721 48.5991 33.9022 46.4159 33.9022C44.2327 33.9022 42.4628 35.6721 42.4628 37.8553C42.4628 40.0385 44.2327 41.8084 46.4159 41.8084Z" fill="white"/>
</g>
<path id="Vector_8" d="M46.4152 39.4367C47.2884 39.4367 47.9964 38.7288 47.9964 37.8555C47.9964 36.9822 47.2884 36.2743 46.4152 36.2743C45.5419 36.2743 44.8339 36.9822 44.8339 37.8555C44.8339 38.7288 45.5419 39.4367 46.4152 39.4367Z" fill="#0045E6"/>
<g id="Group_2" filter="url(#filter1_d_116_28374)">
<path id="Vector_9" d="M7.93545 41.8084C10.1187 41.8084 11.8885 40.0385 11.8885 37.8553C11.8885 35.6721 10.1187 33.9022 7.93545 33.9022C5.75222 33.9022 3.98236 35.6721 3.98236 37.8553C3.98236 40.0385 5.75222 41.8084 7.93545 41.8084Z" fill="white"/>
</g>
<path id="Vector_10" d="M7.93467 39.4366C8.80796 39.4366 9.5159 38.7287 9.5159 37.8554C9.5159 36.9821 8.80796 36.2741 7.93467 36.2741C7.06138 36.2741 6.35344 36.9821 6.35344 37.8554C6.35344 38.7287 7.06138 39.4366 7.93467 39.4366Z" fill="#0045E6"/>
<g id="Group_3" filter="url(#filter2_d_116_28374)">
<path id="Vector_11" d="M27.1757 10.0349C29.3589 10.0349 31.1288 8.26508 31.1288 6.08186C31.1288 3.89863 29.3589 2.12877 27.1757 2.12877C24.9925 2.12877 23.2226 3.89863 23.2226 6.08186C23.2226 8.26508 24.9925 10.0349 27.1757 10.0349Z" fill="white"/>
</g>
<path id="Vector_12" d="M27.1749 7.66324C28.0481 7.66324 28.7561 6.9553 28.7561 6.08201C28.7561 5.20872 28.0481 4.50078 27.1749 4.50078C26.3016 4.50078 25.5936 5.20872 25.5936 6.08201C25.5936 6.9553 26.3016 7.66324 27.1749 7.66324Z" fill="#0045E6"/>
</g>
<defs>
<filter id="filter0_d_116_28374" x="39.2634" y="32.3025" width="14.305" height="14.305" filterUnits="userSpaceOnUse" color-interpolation-filters="sRGB">
<feFlood flood-opacity="0" result="BackgroundImageFix"/>
<feColorMatrix in="SourceAlpha" type="matrix" values="0 0 0 0 0 0 0 0 0 0 0 0 0 0 0 0 0 0 127 0" result="hardAlpha"/>
<feOffset dy="1.5997"/>
<feGaussianBlur stdDeviation="1.5997"/>
<feColorMatrix type="matrix" values="0 0 0 0 0 0 0 0 0 0 0 0 0 0 0 0 0 0 0.45 0"/>
<feBlend mode="normal" in2="BackgroundImageFix" result="effect1_dropShadow_116_28374"/>
<feBlend mode="normal" in="SourceGraphic" in2="effect1_dropShadow_116_28374" result="shape"/>
</filter>
<filter id="filter1_d_116_28374" x="0.782958" y="32.3025" width="14.305" height="14.305" filterUnits="userSpaceOnUse" color-interpolation-filters="sRGB">
<feFlood flood-opacity="0" result="BackgroundImageFix"/>
<feColorMatrix in="SourceAlpha" type="matrix" values="0 0 0 0 0 0 0 0 0 0 0 0 0 0 0 0 0 0 127 0" result="hardAlpha"/>
<feOffset dy="1.5997"/>
<feGaussianBlur stdDeviation="1.5997"/>
<feColorMatrix type="matrix" values="0 0 0 0 0 0 0 0 0 0 0 0 0 0 0 0 0 0 0.45 0"/>
<feBlend mode="normal" in2="BackgroundImageFix" result="effect1_dropShadow_116_28374"/>
<feBlend mode="normal" in="SourceGraphic" in2="effect1_dropShadow_116_28374" result="shape"/>
</filter>
<filter id="filter2_d_116_28374" x="20.0232" y="0.529067" width="14.305" height="14.305" filterUnits="userSpaceOnUse" color-interpolation-filters="sRGB">
<feFlood flood-opacity="0" result="BackgroundImageFix"/>
<feColorMatrix in="SourceAlpha" type="matrix" values="0 0 0 0 0 0 0 0 0 0 0 0 0 0 0 0 0 0 127 0" result="hardAlpha"/>
<feOffset dy="1.5997"/>
<feGaussianBlur stdDeviation="1.5997"/>
<feColorMatrix type="matrix" values="0 0 0 0 0 0 0 0 0 0 0 0 0 0 0 0 0 0 0.45 0"/>
<feBlend mode="normal" in2="BackgroundImageFix" result="effect1_dropShadow_116_28374"/>
<feBlend mode="normal" in="SourceGraphic" in2="effect1_dropShadow_116_28374" result="shape"/>
</filter>
<linearGradient id="paint0_linear_116_28374" x1="40.7473" y1="39.6503" x2="19.2124" y2="49.1689" gradientUnits="userSpaceOnUse">
<stop stop-color="#00267B"/>
<stop offset="1" stop-color="#00267B" stop-opacity="0"/>
</linearGradient>
<linearGradient id="paint1_linear_116_28374" x1="31.2446" y1="10.0469" x2="49.6805" y2="24.6916" gradientUnits="userSpaceOnUse">
<stop stop-color="#00267B"/>
<stop offset="1" stop-color="#00267B" stop-opacity="0"/>
</linearGradient>
<linearGradient id="paint2_linear_116_28374" x1="10.2713" y1="34.0308" x2="12.0532" y2="10.5536" gradientUnits="userSpaceOnUse">
<stop stop-color="#00267B"/>
<stop offset="1" stop-color="#00267B" stop-opacity="0"/>
</linearGradient>
<clipPath id="clip0_116_28374">
<rect width="53.59" height="51.9903" fill="white" transform="translate(-6.10352e-05 0.00474548)"/>
</clipPath>
</defs>
</svg>
