<svg width="52" height="52" viewBox="0 0 52 52" fill="none" xmlns="http://www.w3.org/2000/svg">
<g id="predictiive%E2%80%A8-analytics.svg">
<path id="Vector" fill-rule="evenodd" clip-rule="evenodd" d="M3.09375 5.29004H5.15582V46.4866H48.5937V48.5486H3.09375V5.29004Z" fill="#01267B"/>
<path id="Vector_2" fill-rule="evenodd" clip-rule="evenodd" d="M40.893 14.0272L28.3429 37.3011L12.205 26.59L13.3453 24.872L27.6004 34.3334L39.0779 13.0486L40.893 14.0272Z" fill="#01267B"/>
<path id="Vector_3" fill-rule="evenodd" clip-rule="evenodd" d="M29.7947 19.6709L39.5672 26.1261L38.4306 27.8467L28.6582 21.3915L29.7947 19.6709Z" fill="#01267B"/>
<path id="Vector_4" fill-rule="evenodd" clip-rule="evenodd" d="M14.334 40.8855L25.227 20.7578L27.0406 21.7393L16.1475 41.8669L14.334 40.8855Z" fill="url(#paint0_linear_116_28350)"/>
<g id="Group" filter="url(#filter0_d_116_28350)">
<path id="Vector_5" d="M42.6192 16.4502C44.7418 15.2247 45.4691 12.5105 44.2436 10.3879C43.0181 8.26522 40.3039 7.53796 38.1813 8.76346C36.0586 9.98896 35.3314 12.7032 36.5569 14.8258C37.7824 16.9484 40.4966 17.6757 42.6192 16.4502Z" fill="white"/>
</g>
<path id="Vector_6" d="M41.2874 14.1451C42.1364 13.6549 42.4273 12.5692 41.9371 11.7201C41.4469 10.8711 40.3613 10.5802 39.5122 11.0704C38.6631 11.5606 38.3722 12.6462 38.8624 13.4953C39.3526 14.3443 40.4383 14.6353 41.2874 14.1451Z" fill="#0045E6"/>
<g id="Group_2" filter="url(#filter1_d_116_28350)">
<path id="Vector_7" d="M30.2461 39.1328C32.3688 37.9073 33.096 35.1931 31.8705 33.0705C30.645 30.9478 27.9308 30.2206 25.8082 31.4461C23.6856 32.6716 22.9583 35.3858 24.1838 37.5084C25.4093 39.631 28.1235 40.3583 30.2461 39.1328Z" fill="white"/>
</g>
<path id="Vector_8" d="M28.9141 36.8277C29.7631 36.3375 30.054 35.2519 29.5638 34.4028C29.0736 33.5537 27.988 33.2628 27.1389 33.753C26.2899 34.2432 25.999 35.3289 26.4892 36.178C26.9794 37.027 28.065 37.3179 28.9141 36.8277Z" fill="#0045E6"/>
<g id="Group_3" filter="url(#filter2_d_116_28350)">
<path id="Vector_9" d="M15.9024 29.7187C18.025 28.4932 18.7523 25.779 17.5268 23.6564C16.3013 21.5338 13.5871 20.8065 11.4645 22.032C9.34183 23.2575 8.61456 25.9717 9.84006 28.0943C11.0656 30.217 13.7798 30.9442 15.9024 29.7187Z" fill="white"/>
</g>
<path id="Vector_10" d="M14.5703 27.4137C15.4194 26.9235 15.7103 25.8378 15.2201 24.9887C14.7299 24.1397 13.6442 23.8488 12.7952 24.339C11.9461 24.8292 11.6552 25.9149 12.1454 26.7639C12.6356 27.613 13.7213 27.9039 14.5703 27.4137Z" fill="#0045E6"/>
<path id="Vector_11" fill-rule="evenodd" clip-rule="evenodd" d="M41.241 29.5861C41.9342 29.5861 42.4963 29.0241 42.4963 28.3309C42.4963 27.6377 41.9342 27.0757 41.241 27.0757C40.5479 27.0757 39.9859 27.6377 39.9859 28.3309C39.9859 29.0241 40.5479 29.5861 41.241 29.5861ZM41.241 31.6481C43.0731 31.6481 44.5583 30.163 44.5583 28.3309C44.5583 26.4988 43.0731 25.0137 41.241 25.0137C39.409 25.0137 37.9238 26.4988 37.9238 28.3309C37.9238 30.163 39.409 31.6481 41.241 31.6481Z" fill="#01267B"/>
<path id="Vector_12" fill-rule="evenodd" clip-rule="evenodd" d="M27.2548 20.3517C27.948 20.3517 28.5099 19.7897 28.5099 19.0965C28.5099 18.4033 27.948 17.8413 27.2548 17.8413C26.5615 17.8413 25.9995 18.4033 25.9995 19.0965C25.9995 19.7897 26.5615 20.3517 27.2548 20.3517ZM27.2548 22.4138C29.0868 22.4138 30.572 20.9286 30.572 19.0965C30.572 17.2645 29.0868 15.7793 27.2548 15.7793C25.4227 15.7793 23.9375 17.2645 23.9375 19.0965C23.9375 20.9286 25.4227 22.4138 27.2548 22.4138Z" fill="#01267B"/>
</g>
<defs>
<filter id="filter0_d_116_28350" x="32.7115" y="6.54315" width="15.3773" height="15.3773" filterUnits="userSpaceOnUse" color-interpolation-filters="sRGB">
<feFlood flood-opacity="0" result="BackgroundImageFix"/>
<feColorMatrix in="SourceAlpha" type="matrix" values="0 0 0 0 0 0 0 0 0 0 0 0 0 0 0 0 0 0 127 0" result="hardAlpha"/>
<feOffset dy="1.625"/>
<feGaussianBlur stdDeviation="1.625"/>
<feColorMatrix type="matrix" values="0 0 0 0 0 0 0 0 0 0 0 0 0 0 0 0 0 0 0.45 0"/>
<feBlend mode="normal" in2="BackgroundImageFix" result="effect1_dropShadow_116_28350"/>
<feBlend mode="normal" in="SourceGraphic" in2="effect1_dropShadow_116_28350" result="shape"/>
</filter>
<filter id="filter1_d_116_28350" x="20.3385" y="29.2258" width="15.3773" height="15.3773" filterUnits="userSpaceOnUse" color-interpolation-filters="sRGB">
<feFlood flood-opacity="0" result="BackgroundImageFix"/>
<feColorMatrix in="SourceAlpha" type="matrix" values="0 0 0 0 0 0 0 0 0 0 0 0 0 0 0 0 0 0 127 0" result="hardAlpha"/>
<feOffset dy="1.625"/>
<feGaussianBlur stdDeviation="1.625"/>
<feColorMatrix type="matrix" values="0 0 0 0 0 0 0 0 0 0 0 0 0 0 0 0 0 0 0.45 0"/>
<feBlend mode="normal" in2="BackgroundImageFix" result="effect1_dropShadow_116_28350"/>
<feBlend mode="normal" in="SourceGraphic" in2="effect1_dropShadow_116_28350" result="shape"/>
</filter>
<filter id="filter2_d_116_28350" x="5.99475" y="19.8117" width="15.3773" height="15.3773" filterUnits="userSpaceOnUse" color-interpolation-filters="sRGB">
<feFlood flood-opacity="0" result="BackgroundImageFix"/>
<feColorMatrix in="SourceAlpha" type="matrix" values="0 0 0 0 0 0 0 0 0 0 0 0 0 0 0 0 0 0 127 0" result="hardAlpha"/>
<feOffset dy="1.625"/>
<feGaussianBlur stdDeviation="1.625"/>
<feColorMatrix type="matrix" values="0 0 0 0 0 0 0 0 0 0 0 0 0 0 0 0 0 0 0.45 0"/>
<feBlend mode="normal" in2="BackgroundImageFix" result="effect1_dropShadow_116_28350"/>
<feBlend mode="normal" in="SourceGraphic" in2="effect1_dropShadow_116_28350" result="shape"/>
</filter>
<linearGradient id="paint0_linear_116_28350" x1="25.82" y1="21.8314" x2="15.5545" y2="41.152" gradientUnits="userSpaceOnUse">
<stop stop-color="#01267B"/>
<stop offset="1" stop-color="#01267B" stop-opacity="0"/>
</linearGradient>
</defs>
</svg>
