<svg width="46" height="50" viewBox="0 0 46 50" fill="none" xmlns="http://www.w3.org/2000/svg">
<g id="icon" clip-path="url(#clip0_943_4463)">
<path id="Vector" d="M44.2891 8.30078H40.8711V4.88281C40.8711 4.47822 40.5432 4.15039 40.1387 4.15039H36.7207V0.732422C36.7207 0.327832 36.3928 0 35.9883 0H5.61719C5.2127 0 4.88477 0.327832 4.88477 0.732422V33.5938H1.71094C1.30645 33.5938 0.978516 33.9216 0.978516 34.3262V36.084C0.978516 39.1803 3.49746 41.6992 6.59375 41.6992H9.03516V45.1172C9.03516 45.5218 9.36309 45.8496 9.76758 45.8496H13.1855V49.2676C13.1855 49.6722 13.5135 50 13.918 50H28.6152C29.0197 50 29.3477 49.6722 29.3477 49.2676C29.3477 48.863 29.0197 48.5352 28.6152 48.5352H14.6504V45.8496H40.1387C40.5432 45.8496 40.8711 45.5218 40.8711 45.1172V33.5938C40.8711 33.1892 40.5432 32.8613 40.1387 32.8613C39.7342 32.8613 39.4062 33.1892 39.4062 33.5938V44.3848H10.5V41.6992H35.9883C36.3928 41.6992 36.7207 41.3714 36.7207 40.9668V5.61523H39.4062V30.2734C39.4062 30.678 39.7342 31.0059 40.1387 31.0059C40.5432 31.0059 40.8711 30.678 40.8711 30.2734V9.76562H43.5566V48.5352H31.9355C31.5311 48.5352 31.2031 48.863 31.2031 49.2676C31.2031 49.6722 31.5311 50 31.9355 50H44.2891C44.6936 50 45.0215 49.6722 45.0215 49.2676V9.0332C45.0215 8.62861 44.6936 8.30078 44.2891 8.30078ZM35.2559 40.2344H31.2031C28.9146 40.2344 27.0527 38.3726 27.0527 36.084V34.3262C27.0527 33.9216 26.7248 33.5938 26.3203 33.5938H21.2422C20.8377 33.5938 20.5098 33.9216 20.5098 34.3262C20.5098 34.7308 20.8377 35.0586 21.2422 35.0586H25.5879V36.084C25.5879 37.7267 26.297 39.2066 27.4249 40.2344H6.59375C4.30518 40.2344 2.44336 38.3726 2.44336 36.084V35.0586H17.8242C18.2287 35.0586 18.5566 34.7308 18.5566 34.3262C18.5566 33.9216 18.2287 33.5938 17.8242 33.5938H6.34961V1.46484H35.2559V40.2344Z" fill="#1E1D28"/>
<path id="Vector_2" d="M9.03516 15.625H18.4102C18.8146 15.625 19.1426 15.2972 19.1426 14.8926V5.51758C19.1426 5.11299 18.8146 4.78516 18.4102 4.78516H9.03516C8.63066 4.78516 8.30273 5.11299 8.30273 5.51758V14.8926C8.30273 15.2972 8.63066 15.625 9.03516 15.625ZM9.76758 6.25H17.6777V14.1602H9.76758V6.25Z" fill="url(#paint0_linear_943_4463)"/>
<path id="Vector_3" d="M32.5703 12.8906H21.8281C21.4236 12.8906 21.0957 13.2185 21.0957 13.623C21.0957 14.0276 21.4236 14.3555 21.8281 14.3555H32.5703C32.9748 14.3555 33.3027 14.0276 33.3027 13.623C33.3027 13.2185 32.9748 12.8906 32.5703 12.8906Z" fill="url(#paint1_linear_943_4463)"/>
<path id="Vector_4" d="M14.6504 20.2638C14.6504 20.6684 14.9783 20.9961 15.3828 20.9961H26.2227C26.6271 20.9961 26.9551 20.6684 26.9551 20.2638C26.9551 19.8592 26.6271 19.5312 26.2227 19.5312H15.3828C14.9783 19.5312 14.6504 19.8592 14.6504 20.2638Z" fill="#1E1D28"/>
<path id="Vector_5" d="M32.5703 9.47266H21.8281C21.4236 9.47266 21.0957 9.80049 21.0957 10.2051C21.0957 10.6097 21.4236 10.9375 21.8281 10.9375H32.5703C32.9748 10.9375 33.3027 10.6097 33.3027 10.2051C33.3027 9.80049 32.9748 9.47266 32.5703 9.47266Z" fill="url(#paint2_linear_943_4463)"/>
<path id="Vector_6" d="M32.5703 6.05469H21.8281C21.4236 6.05469 21.0957 6.38252 21.0957 6.78711C21.0957 7.1917 21.4236 7.51953 21.8281 7.51953H32.5703C32.9748 7.51953 33.3027 7.1917 33.3027 6.78711C33.3027 6.38252 32.9748 6.05469 32.5703 6.05469Z" fill="url(#paint3_linear_943_4463)"/>
<path id="Vector_7" d="M32.5703 28.2227H9.03516C8.63066 28.2227 8.30273 28.5505 8.30273 28.9551C8.30273 29.3597 8.63066 29.6875 9.03516 29.6875H32.5703C32.9748 29.6875 33.3027 29.3597 33.3027 28.9551C33.3027 28.5505 32.9748 28.2227 32.5703 28.2227Z" fill="#1E1D28"/>
<path id="Vector_8" d="M32.5703 23.8281H19.7773C19.3729 23.8281 19.0449 24.156 19.0449 24.5605C19.0449 24.9651 19.3729 25.293 19.7773 25.293H32.5703C32.9748 25.293 33.3027 24.9651 33.3027 24.5605C33.3027 24.156 32.9748 23.8281 32.5703 23.8281Z" fill="#1E1D28"/>
<path id="Vector_9" d="M8.98633 25.293H16.3594C16.7639 25.293 17.0918 24.9651 17.0918 24.5605C17.0918 24.156 16.7639 23.8281 16.3594 23.8281H8.98633C8.58184 23.8281 8.25391 24.156 8.25391 24.5605C8.25391 24.9651 8.58184 25.293 8.98633 25.293Z" fill="#1E1D28"/>
</g>
<defs>
<linearGradient id="paint0_linear_943_4463" x1="13.7227" y1="4.78516" x2="13.7227" y2="15.625" gradientUnits="userSpaceOnUse">
<stop stop-color="#EB3A49"/>
<stop offset="1" stop-color="#EB702C"/>
</linearGradient>
<linearGradient id="paint1_linear_943_4463" x1="27.1992" y1="12.8906" x2="27.1992" y2="14.3555" gradientUnits="userSpaceOnUse">
<stop stop-color="#EB3A49"/>
<stop offset="1" stop-color="#EB702C"/>
</linearGradient>
<linearGradient id="paint2_linear_943_4463" x1="27.1992" y1="9.47266" x2="27.1992" y2="10.9375" gradientUnits="userSpaceOnUse">
<stop stop-color="#EB3A49"/>
<stop offset="1" stop-color="#EB702C"/>
</linearGradient>
<linearGradient id="paint3_linear_943_4463" x1="27.1992" y1="6.05469" x2="27.1992" y2="7.51953" gradientUnits="userSpaceOnUse">
<stop stop-color="#EB3A49"/>
<stop offset="1" stop-color="#EB702C"/>
</linearGradient>
<clipPath id="clip0_943_4463">
<rect width="46" height="50" fill="white"/>
</clipPath>
</defs>
</svg>
