<svg width="52" height="52" viewBox="0 0 52 52" fill="none" xmlns="http://www.w3.org/2000/svg">
<g id="deployment-and-next-steps.svg" clip-path="url(#clip0_116_28398)">
<path id="Vector" fill-rule="evenodd" clip-rule="evenodd" d="M44.16 43.8903H37.0799V41.8389H40.6581L25.3887 26.5695L26.8392 25.119L42.1086 40.3884V36.8102H44.16V43.8903Z" fill="#00267B"/>
<path id="Vector_2" fill-rule="evenodd" clip-rule="evenodd" d="M9.85016 40.3884L25.1196 25.119L26.5701 26.5696L11.3007 41.839H14.8789V43.8904H7.79883V36.8102H9.85016V40.3884Z" fill="#00267B"/>
<path id="Vector_3" fill-rule="evenodd" clip-rule="evenodd" d="M51.6898 25.7094L46.6834 30.7158L45.2329 29.2653L47.7631 26.7351H4.19627L6.72642 29.2652L5.2759 30.7158L0.269531 25.7094L5.2759 20.703L6.72642 22.1536L4.19627 24.6838H47.7631L45.2329 22.1536L46.6834 20.703L51.6898 25.7094Z" fill="#00267B"/>
<path id="Vector_4" fill-rule="evenodd" clip-rule="evenodd" d="M25.979 -0.00012207L30.9854 5.00625L29.5349 6.45678L27.0047 3.92663V25.9776H24.9533V3.92663L22.4232 6.45678L20.9727 5.00625L25.979 -0.00012207Z" fill="#00267B"/>
<path id="Vector_5" fill-rule="evenodd" clip-rule="evenodd" d="M25.979 51.9994L20.9727 46.993L22.4231 45.5425L24.9533 48.0727V41.4961H27.0047V48.0727L29.5349 45.5425L30.9853 46.993L25.979 51.9994ZM27.0047 25.7987V36.7691H24.9533V25.7987H27.0047Z" fill="url(#paint0_linear_116_28398)"/>
<path id="Vector_6" fill-rule="evenodd" clip-rule="evenodd" d="M25.9797 40.3805C26.6693 40.3805 27.2284 39.8215 27.2284 39.1319C27.2284 38.4423 26.6693 37.8832 25.9797 37.8832C25.2901 37.8832 24.731 38.4423 24.731 39.1319C24.731 39.8215 25.2901 40.3805 25.9797 40.3805ZM25.9797 42.4319C27.8023 42.4319 29.2797 40.9545 29.2797 39.1319C29.2797 37.3094 27.8023 35.8319 25.9797 35.8319C24.1571 35.8319 22.6797 37.3094 22.6797 39.1319C22.6797 40.9545 24.1571 42.4319 25.9797 42.4319Z" fill="#00267B"/>
<path id="Vector_7" fill-rule="evenodd" clip-rule="evenodd" d="M44.1445 7.50964V14.5897H42.0931V11.0115L37.4429 15.6619L35.9923 14.2113L40.6426 9.56104H37.0645V7.50964H44.1445ZM24.8926 25.311L32.6498 17.5539L34.1003 19.0044L26.3431 26.7616L24.8926 25.311Z" fill="url(#paint1_linear_116_28398)"/>
<path id="Vector_8" fill-rule="evenodd" clip-rule="evenodd" d="M35.929 15.7256C35.4414 15.238 34.6508 15.238 34.1632 15.7256C33.6756 16.2132 33.6756 17.0038 34.1632 17.4914C34.6508 17.9791 35.4414 17.9791 35.929 17.4914C36.4167 17.0038 36.4167 16.2132 35.929 15.7256ZM37.3796 14.2751C36.0908 12.9863 34.0014 12.9863 32.7127 14.2751C31.4239 15.5638 31.4239 17.6533 32.7127 18.942C34.0014 20.2307 36.0908 20.2307 37.3796 18.942C38.6683 17.6533 38.6683 15.5638 37.3796 14.2751Z" fill="#00267B"/>
<path id="Vector_9" fill-rule="evenodd" clip-rule="evenodd" d="M7.82422 7.50964L14.9043 7.50965V9.56104H11.3262L15.9764 14.2113L14.5259 15.6619L9.87559 11.0115V14.5898H7.82422V7.50964ZM25.6257 26.7616L17.8684 19.0044L19.319 17.5538L27.0761 25.311L25.6257 26.7616Z" fill="url(#paint2_linear_116_28398)"/>
<path id="Vector_10" fill-rule="evenodd" clip-rule="evenodd" d="M16.0382 15.7255C15.5505 16.2132 15.5505 17.0038 16.0382 17.4914C16.5258 17.9791 17.3164 17.9791 17.8041 17.4914C18.2916 17.0038 18.2916 16.2132 17.8041 15.7255C17.3164 15.238 16.5258 15.238 16.0382 15.7255ZM14.5876 14.2751C13.2989 15.5638 13.2989 17.6532 14.5876 18.942C15.8764 20.2307 17.9658 20.2307 19.2546 18.942C20.5433 17.6532 20.5433 15.5638 19.2546 14.2751C17.9658 12.9863 15.8764 12.9863 14.5876 14.2751Z" fill="#00267B"/>
<g id="Group" filter="url(#filter0_d_116_28398)">
<path id="Vector_11" d="M25.9616 29.9992C28.1678 29.9992 29.9563 28.2106 29.9563 26.0044C29.9563 23.7982 28.1678 22.0096 25.9616 22.0096C23.7553 22.0096 21.9668 23.7982 21.9668 26.0044C21.9668 28.2106 23.7553 29.9992 25.9616 29.9992Z" fill="white"/>
</g>
<path id="Vector_12" d="M25.9592 27.6019C26.8417 27.6019 27.5571 26.8865 27.5571 26.004C27.5571 25.1215 26.8417 24.4061 25.9592 24.4061C25.0767 24.4061 24.3613 25.1215 24.3613 26.004C24.3613 26.8865 25.0767 27.6019 25.9592 27.6019Z" fill="#0045E6"/>
</g>
<defs>
<filter id="filter0_d_116_28398" x="18.7168" y="20.3846" width="14.4895" height="14.4895" filterUnits="userSpaceOnUse" color-interpolation-filters="sRGB">
<feFlood flood-opacity="0" result="BackgroundImageFix"/>
<feColorMatrix in="SourceAlpha" type="matrix" values="0 0 0 0 0 0 0 0 0 0 0 0 0 0 0 0 0 0 127 0" result="hardAlpha"/>
<feOffset dy="1.625"/>
<feGaussianBlur stdDeviation="1.625"/>
<feColorMatrix type="matrix" values="0 0 0 0 0 0 0 0 0 0 0 0 0 0 0 0 0 0 0.45 0"/>
<feBlend mode="normal" in2="BackgroundImageFix" result="effect1_dropShadow_116_28398"/>
<feBlend mode="normal" in="SourceGraphic" in2="effect1_dropShadow_116_28398" result="shape"/>
</filter>
<linearGradient id="paint0_linear_116_28398" x1="25.979" y1="37.0366" x2="25.979" y2="28.3406" gradientUnits="userSpaceOnUse">
<stop stop-color="#00267B"/>
<stop offset="1" stop-color="#00267B" stop-opacity="0"/>
</linearGradient>
<linearGradient id="paint1_linear_116_28398" x1="33.8825" y1="17.7717" x2="27.5853" y2="24.0689" gradientUnits="userSpaceOnUse">
<stop stop-color="#00267B"/>
<stop offset="1" stop-color="#00267B" stop-opacity="0"/>
</linearGradient>
<linearGradient id="paint2_linear_116_28398" x1="18.5768" y1="18.2623" x2="23.7945" y2="23.4798" gradientUnits="userSpaceOnUse">
<stop stop-color="#00267B"/>
<stop offset="1" stop-color="#00267B" stop-opacity="0"/>
</linearGradient>
<clipPath id="clip0_116_28398">
<rect width="52" height="52" fill="white"/>
</clipPath>
</defs>
</svg>
