<svg width="79" height="77" viewBox="0 0 79 77" fill="none" xmlns="http://www.w3.org/2000/svg">
<g id="Illustration" clip-path="url(#clip0_308_31888)">
<g id="Group">
<path id="Vector" d="M38.7994 76.7629C60.1133 76.7629 77.3917 59.6244 77.3917 38.483C77.3917 17.3416 60.1133 0.203125 38.7994 0.203125C17.4854 0.203125 0.207031 17.3416 0.207031 38.483C0.207031 59.6244 17.4854 76.7629 38.7994 76.7629Z" stroke="#F4F1D0" stroke-width="1.74957"/>
<path id="Vector_2" d="M24.5521 4.62439C25.4611 4.62439 26.1979 3.89349 26.1979 2.99188C26.1979 2.09027 25.4611 1.35938 24.5521 1.35938C23.6431 1.35938 22.9062 2.09027 22.9062 2.99188C22.9062 3.89349 23.6431 4.62439 24.5521 4.62439Z" fill="#F4F1D0"/>
<path id="Vector_3" d="M77.3568 38.4994C78.2657 38.4994 79.0026 37.7685 79.0026 36.8669C79.0026 35.9653 78.2657 35.2344 77.3568 35.2344C76.4478 35.2344 75.7109 35.9653 75.7109 36.8669C75.7109 37.7685 76.4478 38.4994 77.3568 38.4994Z" fill="#F4F1D0"/>
<path id="Vector_4" d="M5.07552 58.3627C5.98449 58.3627 6.72135 57.6318 6.72135 56.7302C6.72135 55.8286 5.98449 55.0977 5.07552 55.0977C4.16655 55.0977 3.42969 55.8286 3.42969 56.7302C3.42969 57.6318 4.16655 58.3627 5.07552 58.3627Z" fill="#F4F1D0"/>
<path id="Vector_5" d="M38.7952 66.5539C54.4265 66.5539 67.0982 53.9849 67.0982 38.4801C67.0982 22.9753 54.4265 10.4062 38.7952 10.4062C23.1639 10.4062 10.4922 22.9753 10.4922 38.4801C10.4922 53.9849 23.1639 66.5539 38.7952 66.5539Z" stroke="#F4F1D0" stroke-width="1.74957"/>
<path id="Vector_6" d="M10.974 35.2338C11.8829 35.2338 12.6198 34.5029 12.6198 33.6013C12.6198 32.6996 11.8829 31.9688 10.974 31.9688C10.065 31.9688 9.32812 32.6996 9.32812 33.6013C9.32812 34.5029 10.065 35.2338 10.974 35.2338Z" fill="#F4F1D0"/>
<path id="Vector_7" d="M47.0443 13.3314C47.9532 13.3314 48.6901 12.6005 48.6901 11.6989C48.6901 10.7973 47.9532 10.0664 47.0443 10.0664C46.1353 10.0664 45.3984 10.7973 45.3984 11.6989C45.3984 12.6005 46.1353 13.3314 47.0443 13.3314Z" fill="#F4F1D0"/>
<path id="Vector_8" d="M52.5326 64.7533C53.4415 64.7533 54.1784 64.0224 54.1784 63.1208C54.1784 62.2192 53.4415 61.4883 52.5326 61.4883C51.6236 61.4883 50.8867 62.2192 50.8867 63.1208C50.8867 64.0224 51.6236 64.7533 52.5326 64.7533Z" fill="#F4F1D0"/>
<path id="Vector_9" d="M38.8464 56.5816C48.8989 56.5816 57.0482 48.4983 57.0482 38.5271C57.0482 28.5559 48.8989 20.4727 38.8464 20.4727C28.7938 20.4727 20.6445 28.5559 20.6445 38.5271C20.6445 48.4983 28.7938 56.5816 38.8464 56.5816Z" stroke="#F4F1D0" stroke-width="1.74957"/>
<path id="Vector_10" d="M55.2747 48.2924C56.1837 48.2924 56.9206 47.5615 56.9206 46.6599C56.9206 45.7582 56.1837 45.0273 55.2747 45.0273C54.3658 45.0273 53.6289 45.7582 53.6289 46.6599C53.6289 47.5615 54.3658 48.2924 55.2747 48.2924Z" fill="#F4F1D0"/>
<path id="Vector_11" d="M30.5872 56.3197C31.4962 56.3197 32.2331 55.5888 32.2331 54.6872C32.2331 53.7856 31.4962 53.0547 30.5872 53.0547C29.6783 53.0547 28.9414 53.7856 28.9414 54.6872C28.9414 55.5888 29.6783 56.3197 30.5872 56.3197Z" fill="#F4F1D0"/>
<path id="Vector_12" d="M30.5872 24.0775C31.4962 24.0775 32.2331 23.3466 32.2331 22.445C32.2331 21.5434 31.4962 20.8125 30.5872 20.8125C29.6783 20.8125 28.9414 21.5434 28.9414 22.445C28.9414 23.3466 29.6783 24.0775 30.5872 24.0775Z" fill="#F4F1D0"/>
<path id="Vector_13" d="M38.8456 46.514C43.293 46.514 46.8983 42.9379 46.8983 38.5265C46.8983 34.1152 43.293 30.5391 38.8456 30.5391C34.3983 30.5391 30.793 34.1152 30.793 38.5265C30.793 42.9379 34.3983 46.514 38.8456 46.514Z" stroke="#F4F1D0" stroke-width="1.74957"/>
<path id="Vector_14" d="M44.4388 34.2806C45.3478 34.2806 46.0846 33.5497 46.0846 32.6481C46.0846 31.7465 45.3478 31.0156 44.4388 31.0156C43.5298 31.0156 42.793 31.7465 42.793 32.6481C42.793 33.5497 43.5298 34.2806 44.4388 34.2806Z" fill="#F4F1D0"/>
<path id="Vector_15" d="M40.3255 47.8861C41.2345 47.8861 41.9714 47.1552 41.9714 46.2536C41.9714 45.352 41.2345 44.6211 40.3255 44.6211C39.4166 44.6211 38.6797 45.352 38.6797 46.2536C38.6797 47.1552 39.4166 47.8861 40.3255 47.8861Z" fill="#F4F1D0"/>
<path id="Vector_16" d="M30.9974 38.4994C31.9064 38.4994 32.6432 37.7685 32.6432 36.8669C32.6432 35.9653 31.9064 35.2344 30.9974 35.2344C30.0884 35.2344 29.3516 35.9653 29.3516 36.8669C29.3516 37.7685 30.0884 38.4994 30.9974 38.4994Z" fill="#F4F1D0"/>
</g>
</g>
<defs>
<clipPath id="clip0_308_31888">
<rect width="79" height="77" fill="white"/>
</clipPath>
</defs>
</svg>
