<svg width="78" height="78" viewBox="0 0 78 78" fill="none" xmlns="http://www.w3.org/2000/svg">
<g id="Illustration" clip-path="url(#clip0_308_31842)">
<path id="Vector" d="M6.68375 13.3912C10.3751 13.3912 13.3675 10.3934 13.3675 6.69558C13.3675 2.99771 10.3751 0 6.68375 0C2.99241 0 0 2.99771 0 6.69558C0 10.3934 2.99241 13.3912 6.68375 13.3912Z" fill="black" fill-opacity="0.2"/>
<path id="Vector_2" d="M22.9455 13.3912C26.6368 13.3912 29.6292 10.3934 29.6292 6.69558C29.6292 2.99771 26.6368 0 22.9455 0C19.2541 0 16.2617 2.99771 16.2617 6.69558C16.2617 10.3934 19.2541 13.3912 22.9455 13.3912Z" fill="black" fill-opacity="0.2"/>
<path id="Vector_3" d="M39.0705 13.3912C42.7618 13.3912 45.7542 10.3934 45.7542 6.69558C45.7542 2.99771 42.7618 0 39.0705 0C35.3791 0 32.3867 2.99771 32.3867 6.69558C32.3867 10.3934 35.3791 13.3912 39.0705 13.3912Z" fill="black" fill-opacity="0.2"/>
<path id="Vector_4" d="M55.1916 13.3912C58.8829 13.3912 61.8753 10.3934 61.8753 6.69558C61.8753 2.99771 58.8829 0 55.1916 0C51.5002 0 48.5078 2.99771 48.5078 6.69558C48.5078 10.3934 51.5002 13.3912 55.1916 13.3912Z" fill="black" fill-opacity="0.2"/>
<path id="Vector_5" d="M71.3166 13.3912C75.0079 13.3912 78.0003 10.3934 78.0003 6.69558C78.0003 2.99771 75.0079 0 71.3166 0C67.6252 0 64.6328 2.99771 64.6328 6.69558C64.6328 10.3934 67.6252 13.3912 71.3166 13.3912Z" fill="black" fill-opacity="0.2"/>
<path id="Vector_6" d="M6.68375 29.5435C10.3751 29.5435 13.3675 26.5458 13.3675 22.8479C13.3675 19.1501 10.3751 16.1523 6.68375 16.1523C2.99241 16.1523 0 19.1501 0 22.8479C0 26.5458 2.99241 29.5435 6.68375 29.5435Z" fill="black" fill-opacity="0.2"/>
<path id="Vector_7" d="M22.9455 29.5435C26.6368 29.5435 29.6292 26.5458 29.6292 22.8479C29.6292 19.1501 26.6368 16.1523 22.9455 16.1523C19.2541 16.1523 16.2617 19.1501 16.2617 22.8479C16.2617 26.5458 19.2541 29.5435 22.9455 29.5435Z" fill="black" fill-opacity="0.2"/>
<path id="Vector_8" d="M39.0705 29.5435C42.7618 29.5435 45.7542 26.5458 45.7542 22.8479C45.7542 19.1501 42.7618 16.1523 39.0705 16.1523C35.3791 16.1523 32.3867 19.1501 32.3867 22.8479C32.3867 26.5458 35.3791 29.5435 39.0705 29.5435Z" fill="black" fill-opacity="0.2"/>
<path id="Vector_9" d="M55.1916 29.5435C58.8829 29.5435 61.8753 26.5458 61.8753 22.8479C61.8753 19.1501 58.8829 16.1523 55.1916 16.1523C51.5002 16.1523 48.5078 19.1501 48.5078 22.8479C48.5078 26.5458 51.5002 29.5435 55.1916 29.5435Z" fill="black" fill-opacity="0.2"/>
<path id="Vector_10" d="M71.3166 29.5435C75.0079 29.5435 78.0003 26.5458 78.0003 22.8479C78.0003 19.1501 75.0079 16.1523 71.3166 16.1523C67.6252 16.1523 64.6328 19.1501 64.6328 22.8479C64.6328 26.5458 67.6252 29.5435 71.3166 29.5435Z" fill="black" fill-opacity="0.2"/>
<path id="Vector_11" d="M6.68375 45.6958C10.3751 45.6958 13.3675 42.6981 13.3675 39.0003C13.3675 35.3024 10.3751 32.3047 6.68375 32.3047C2.99241 32.3047 0 35.3024 0 39.0003C0 42.6981 2.99241 45.6958 6.68375 45.6958Z" fill="black" fill-opacity="0.2"/>
<path id="Vector_12" d="M22.9455 45.6958C26.6368 45.6958 29.6292 42.6981 29.6292 39.0003C29.6292 35.3024 26.6368 32.3047 22.9455 32.3047C19.2541 32.3047 16.2617 35.3024 16.2617 39.0003C16.2617 42.6981 19.2541 45.6958 22.9455 45.6958Z" fill="black" fill-opacity="0.2"/>
<path id="Vector_13" d="M39.0705 45.6958C42.7618 45.6958 45.7542 42.6981 45.7542 39.0003C45.7542 35.3024 42.7618 32.3047 39.0705 32.3047C35.3791 32.3047 32.3867 35.3024 32.3867 39.0003C32.3867 42.6981 35.3791 45.6958 39.0705 45.6958Z" fill="#F4F1D0"/>
<path id="Vector_14" d="M55.1916 45.6958C58.8829 45.6958 61.8753 42.6981 61.8753 39.0003C61.8753 35.3024 58.8829 32.3047 55.1916 32.3047C51.5002 32.3047 48.5078 35.3024 48.5078 39.0003C48.5078 42.6981 51.5002 45.6958 55.1916 45.6958Z" fill="black" fill-opacity="0.2"/>
<path id="Vector_15" d="M71.3166 45.6958C75.0079 45.6958 78.0003 42.6981 78.0003 39.0003C78.0003 35.3024 75.0079 32.3047 71.3166 32.3047C67.6252 32.3047 64.6328 35.3024 64.6328 39.0003C64.6328 42.6981 67.6252 45.6958 71.3166 45.6958Z" fill="black" fill-opacity="0.2"/>
<path id="Vector_16" d="M6.68375 61.8482C10.3751 61.8482 13.3675 58.8505 13.3675 55.1526C13.3675 51.4547 10.3751 48.457 6.68375 48.457C2.99241 48.457 0 51.4547 0 55.1526C0 58.8505 2.99241 61.8482 6.68375 61.8482Z" fill="black" fill-opacity="0.2"/>
<path id="Vector_17" d="M22.9455 61.8482C26.6368 61.8482 29.6292 58.8505 29.6292 55.1526C29.6292 51.4547 26.6368 48.457 22.9455 48.457C19.2541 48.457 16.2617 51.4547 16.2617 55.1526C16.2617 58.8505 19.2541 61.8482 22.9455 61.8482Z" fill="black" fill-opacity="0.2"/>
<path id="Vector_18" d="M39.0705 61.8482C42.7618 61.8482 45.7542 58.8505 45.7542 55.1526C45.7542 51.4547 42.7618 48.457 39.0705 48.457C35.3791 48.457 32.3867 51.4547 32.3867 55.1526C32.3867 58.8505 35.3791 61.8482 39.0705 61.8482Z" fill="black" fill-opacity="0.2"/>
<path id="Vector_19" d="M55.1916 61.8482C58.8829 61.8482 61.8753 58.8505 61.8753 55.1526C61.8753 51.4547 58.8829 48.457 55.1916 48.457C51.5002 48.457 48.5078 51.4547 48.5078 55.1526C48.5078 58.8505 51.5002 61.8482 55.1916 61.8482Z" fill="black" fill-opacity="0.2"/>
<path id="Vector_20" d="M71.3166 61.8482C75.0079 61.8482 78.0003 58.8505 78.0003 55.1526C78.0003 51.4547 75.0079 48.457 71.3166 48.457C67.6252 48.457 64.6328 51.4547 64.6328 55.1526C64.6328 58.8505 67.6252 61.8482 71.3166 61.8482Z" fill="black" fill-opacity="0.2"/>
<path id="Vector_21" d="M6.68375 78.0005C10.3751 78.0005 13.3675 75.0028 13.3675 71.3049C13.3675 67.6071 10.3751 64.6094 6.68375 64.6094C2.99241 64.6094 0 67.6071 0 71.3049C0 75.0028 2.99241 78.0005 6.68375 78.0005Z" fill="black" fill-opacity="0.2"/>
<path id="Vector_22" d="M22.9455 78.0005C26.6368 78.0005 29.6292 75.0028 29.6292 71.3049C29.6292 67.6071 26.6368 64.6094 22.9455 64.6094C19.2541 64.6094 16.2617 67.6071 16.2617 71.3049C16.2617 75.0028 19.2541 78.0005 22.9455 78.0005Z" fill="black" fill-opacity="0.2"/>
<path id="Vector_23" d="M39.0705 78.0005C42.7618 78.0005 45.7542 75.0028 45.7542 71.3049C45.7542 67.6071 42.7618 64.6094 39.0705 64.6094C35.3791 64.6094 32.3867 67.6071 32.3867 71.3049C32.3867 75.0028 35.3791 78.0005 39.0705 78.0005Z" fill="black" fill-opacity="0.2"/>
<path id="Vector_24" d="M55.1916 78.0005C58.8829 78.0005 61.8753 75.0028 61.8753 71.3049C61.8753 67.6071 58.8829 64.6094 55.1916 64.6094C51.5002 64.6094 48.5078 67.6071 48.5078 71.3049C48.5078 75.0028 51.5002 78.0005 55.1916 78.0005Z" fill="black" fill-opacity="0.2"/>
<path id="Vector_25" d="M71.3166 78.0005C75.0079 78.0005 78.0003 75.0028 78.0003 71.3049C78.0003 67.6071 75.0079 64.6094 71.3166 64.6094C67.6252 64.6094 64.6328 67.6071 64.6328 71.3049C64.6328 75.0028 67.6252 78.0005 71.3166 78.0005Z" fill="#F4F1D0"/>
</g>
<defs>
<clipPath id="clip0_308_31842">
<rect width="78" height="78" fill="white"/>
</clipPath>
</defs>
</svg>
