<svg width="90" height="78" viewBox="0 0 90 78" fill="none" xmlns="http://www.w3.org/2000/svg">
<g id="Illustration" clip-path="url(#clip0_308_31875)">
<g id="Group">
<path id="Vector" d="M65.6367 3.2165L24.3103 3.19093L3.67773 38.9625L24.3633 74.7749L65.6897 74.8005L86.3221 39.0289L65.6367 3.2165ZM67.476 0.0277618L90 39.0235L67.524 77.9914L22.524 77.9635L0 38.9678L22.476 0L67.476 0.0277618Z" fill="#F4F1D0"/>
<path id="Vector_2" d="M22.4688 0L89.9491 39.0404L22.4688 77.9715L43.6154 38.9758L22.4688 0ZM30.9391 8.37323L47.1807 38.9758L30.9391 69.5784L83.3638 38.9758L30.9391 8.37323Z" fill="#F4F1D0"/>
<path id="Vector_3" d="M67.4804 0L0 39.0404L67.4804 77.9715L46.3336 38.9758L67.4805 0H67.4804ZM59.01 8.37323L42.7685 38.9758L59.01 69.5784L6.58537 38.9758L59.01 8.37323Z" fill="#F4F1D0"/>
<path id="Vector_4" fill-rule="evenodd" clip-rule="evenodd" d="M25.6877 3.22812V74.8924H64.3142V3.22812H25.6878H25.6877ZM22.4688 0H67.5333V77.9914H22.4688V0Z" fill="#F4F1D0"/>
<path id="Vector_5" fill-rule="evenodd" clip-rule="evenodd" d="M1.03125 40.6734V37.4453H89.0944V40.6734H1.03125Z" fill="#F4F1D0"/>
</g>
</g>
<defs>
<clipPath id="clip0_308_31875">
<rect width="90" height="77.9914" fill="white"/>
</clipPath>
</defs>
</svg>
