<svg width="74" height="70" viewBox="0 0 74 70" fill="none" xmlns="http://www.w3.org/2000/svg">
<g clip-path="url(#clip0_907_5126)">
<path fill-rule="evenodd" clip-rule="evenodd" d="M46.5312 8.62582C39.5074 7.92755 34.3491 11.9844 32.7085 14.0227L31.7099 15.2634L30.7201 14.0158C28.8085 11.6064 26.1113 10.1847 23.4368 9.40103C20.7951 8.62694 18.2727 8.50502 16.7801 8.62248C10.3407 9.83437 6.51421 13.2465 4.47525 17.1914C2.40309 21.2006 2.14258 25.8341 3.01771 29.4119C4.76953 36.5737 12.874 49.069 31.6949 60.1549L33.6985 58.9027L35.0476 61.0611L31.7419 63.1272L31.0789 62.743C11.416 51.3474 2.53577 38.1544 0.545243 30.0166C-0.460974 25.903 -0.168146 20.6318 2.21406 16.0227C4.62285 11.3622 9.13349 7.45195 16.3788 6.10805L16.4407 6.09657L16.5035 6.09125C18.2841 5.94035 21.1566 6.08048 24.1526 6.95839C26.7543 7.72077 29.5241 9.06249 31.7387 11.3274C34.3622 8.78379 39.7528 5.39404 46.783 6.09295C51.9288 6.60452 56.8669 9.74074 59.9851 14.2121C63.1216 18.7097 64.4733 24.6417 62.2982 30.7499L59.9003 29.896C61.7646 24.6608 60.6263 19.5813 57.8973 15.6681C55.1502 11.7288 50.8476 9.05493 46.5312 8.62582Z" fill="#00267B"/>
<path fill-rule="evenodd" clip-rule="evenodd" d="M14.6789 14.8452C11.1258 16.1154 8.24339 19.2365 7.91888 24.1541C7.63735 28.4245 9.9691 36.0925 23.1907 47.3944L21.5368 49.3293C8.08861 37.8336 5.01853 29.4549 5.37904 23.9866C5.77386 18.0035 9.36549 14.0417 13.822 12.4484C18.2289 10.8729 23.4919 11.6094 27.2943 14.9212L25.6226 16.8406C22.5636 14.1763 18.2816 13.5572 14.6789 14.8452Z" fill="url(#paint0_linear_907_5126)"/>
<path fill-rule="evenodd" clip-rule="evenodd" d="M49.144 60.5859C57.1081 60.5859 63.5644 54.1296 63.5644 46.1655C63.5644 38.2013 57.1081 31.7451 49.144 31.7451C41.1798 31.7451 34.7236 38.2013 34.7236 46.1655C34.7236 54.1296 41.1798 60.5859 49.144 60.5859ZM49.144 63.0985C58.4958 63.0985 66.077 55.5173 66.077 46.1655C66.077 36.8136 58.4958 29.2324 49.144 29.2324C39.7921 29.2324 32.2109 36.8136 32.2109 46.1655C32.2109 55.5173 39.7921 63.0985 49.144 63.0985Z" fill="url(#paint1_radial_907_5126)"/>
<g filter="url(#filter0_d_907_5126)">
<path d="M64.5676 54.8794C67.567 54.8794 69.9985 52.4479 69.9985 49.4485C69.9985 46.4491 67.567 44.0176 64.5676 44.0176C61.5682 44.0176 59.1367 46.4491 59.1367 49.4485C59.1367 52.4479 61.5682 54.8794 64.5676 54.8794Z" fill="white"/>
</g>
<path d="M64.5669 51.6211C65.7667 51.6211 66.7393 50.6485 66.7393 49.4487C66.7393 48.249 65.7667 47.2764 64.5669 47.2764C63.3671 47.2764 62.3945 48.249 62.3945 49.4487C62.3945 50.6485 63.3671 51.6211 64.5669 51.6211Z" fill="#0045E6"/>
<path fill-rule="evenodd" clip-rule="evenodd" d="M49.226 46.5246C50.8944 46.5246 52.367 45.1524 52.367 43.3138C52.367 41.4751 50.8944 40.1029 49.226 40.1029C47.5575 40.1029 46.0849 41.4751 46.0849 43.3138C46.0849 45.1524 47.5575 46.5246 49.226 46.5246ZM49.226 48.946C52.3365 48.946 54.8582 46.4243 54.8582 43.3138C54.8582 40.2032 52.3365 37.6816 49.226 37.6816C46.1154 37.6816 43.5938 40.2032 43.5938 43.3138C43.5938 46.4243 46.1154 48.946 49.226 48.946Z" fill="#00267B"/>
<path fill-rule="evenodd" clip-rule="evenodd" d="M49.2245 49.5183C46.4301 49.5183 44.1648 51.7836 44.1648 54.578H41.7148C41.7148 50.4305 45.077 47.0684 49.2245 47.0684C53.3719 47.0684 56.7341 50.4305 56.7341 54.578H54.2841C54.2841 51.7836 52.0188 49.5183 49.2245 49.5183Z" fill="#00267B"/>
</g>
<defs>
<filter id="filter0_d_907_5126" x="55.1367" y="42.0176" width="18.8618" height="18.8623" filterUnits="userSpaceOnUse" color-interpolation-filters="sRGB">
<feFlood flood-opacity="0" result="BackgroundImageFix"/>
<feColorMatrix in="SourceAlpha" type="matrix" values="0 0 0 0 0 0 0 0 0 0 0 0 0 0 0 0 0 0 127 0" result="hardAlpha"/>
<feOffset dy="2"/>
<feGaussianBlur stdDeviation="2"/>
<feColorMatrix type="matrix" values="0 0 0 0 0 0 0 0 0 0 0 0 0 0 0 0 0 0 0.45 0"/>
<feBlend mode="normal" in2="BackgroundImageFix" result="effect1_dropShadow_907_5126"/>
<feBlend mode="normal" in="SourceGraphic" in2="effect1_dropShadow_907_5126" result="shape"/>
</filter>
<linearGradient id="paint0_linear_907_5126" x1="16.499" y1="17.6516" x2="22.3643" y2="46.0378" gradientUnits="userSpaceOnUse">
<stop stop-color="#00267B"/>
<stop offset="1" stop-color="#00267B" stop-opacity="0"/>
</linearGradient>
<radialGradient id="paint1_radial_907_5126" cx="0" cy="0" r="1" gradientUnits="userSpaceOnUse" gradientTransform="translate(49.144 46.1655) rotate(11.8567) scale(15.978 15.978)">
<stop stop-color="#00267B" stop-opacity="0"/>
<stop offset="0.104167" stop-color="#00267B" stop-opacity="0"/>
<stop offset="0.307292" stop-color="#00267B"/>
<stop offset="1" stop-color="#00267B"/>
</radialGradient>
<clipPath id="clip0_907_5126">
<rect width="74" height="70" fill="white"/>
</clipPath>
</defs>
</svg>
