<svg width="21" height="20" viewBox="0 0 21 20" fill="none" xmlns="http://www.w3.org/2000/svg">
<g clip-path="url(#clip0_871_3211)">
<path fill-rule="evenodd" clip-rule="evenodd" d="M10.8 20.0098C16.3228 20.0098 20.8 15.5326 20.8 10.0098C20.8 4.48692 16.3228 0.00976562 10.8 0.00976562C5.2772 0.00976562 0.800049 4.48692 0.800049 10.0098C0.800049 15.5326 5.2772 20.0098 10.8 20.0098Z" fill="#40404C"/>
<path fill-rule="evenodd" clip-rule="evenodd" d="M9.36275 14.9064C9.29844 14.9753 9.21806 15.0098 9.12963 15.0098C9.04121 15.0098 8.96082 14.9753 8.89651 14.9064C8.7679 14.7684 8.7679 14.5443 8.89651 14.4064L12.9961 10.0098L8.89651 5.61321C8.7679 5.47528 8.7679 5.25114 8.89651 5.11321C9.02513 4.97528 9.23413 4.97528 9.36275 5.11321L13.7035 9.75976C13.8322 9.89769 13.8322 10.1219 13.7035 10.2598L9.36275 14.9064Z" fill="white"/>
</g>
<defs>
<clipPath id="clip0_871_3211">
<rect width="20" height="20" fill="white" transform="translate(0.800049 0.00976562)"/>
</clipPath>
</defs>
</svg>
