<svg width="52" height="53" viewBox="0 0 52 53" fill="none" xmlns="http://www.w3.org/2000/svg">
<g filter="url(#filter0_d_102_13389)">
<path d="M25.9076 12.2094C28.2916 12.2094 30.2243 10.2767 30.2243 7.89267C30.2243 5.5086 28.2916 3.57593 25.9076 3.57593C23.5235 3.57593 21.5908 5.5086 21.5908 7.89267C21.5908 10.2767 23.5235 12.2094 25.9076 12.2094Z" fill="white"/>
</g>
<path d="M25.9064 9.62111C26.86 9.62111 27.6331 8.84805 27.6331 7.89442C27.6331 6.94079 26.86 6.16772 25.9064 6.16772C24.9528 6.16772 24.1797 6.94079 24.1797 7.89442C24.1797 8.84805 24.9528 9.62111 25.9064 9.62111Z" fill="#FF4925"/>
<path fill-rule="evenodd" clip-rule="evenodd" d="M33.4504 19.1408C39.8375 11.81 46.9155 10.3787 49.8787 10.6616L50.7941 10.7491V50.7684H1.09473V11.6687H3.11789V25.1711H19.6102C23.6543 25.0364 29.1046 24.1285 33.4504 19.1408ZM17.7088 27.2128C18.3081 27.2185 18.9737 27.2182 19.6909 27.1942H21.9291L19.0342 48.7454H9.47001L17.7088 27.2128ZM7.30382 48.7454L15.5497 27.1942H11.2827L3.11789 38.3016V48.7454H7.30382ZM3.11789 34.8857L8.77165 27.1942H3.11789V34.8857ZM21.0754 48.7454H30.6921L27.9982 27.1942H23.9704L21.0754 48.7454ZM30.0371 27.1942L32.731 48.7454H42.2559L34.2145 27.1942H30.0371ZM36.3739 27.1942L44.4153 48.7454H48.771V38.2961L40.776 27.1942H36.3739ZM43.2691 27.1942L48.771 34.8341V27.1942H43.2691ZM48.771 25.1711H28.8108C30.9341 24.1671 33.0526 22.6771 34.9757 20.4698C40.2983 14.361 45.9819 12.7868 48.771 12.6602V25.1711Z" fill="white"/>
<path fill-rule="evenodd" clip-rule="evenodd" d="M12.466 14.0614C9.81498 13.0135 6.30329 12.1969 1.09473 12.1969V10.1738C6.52975 10.1738 10.297 11.0286 13.2097 12.1799C15.3236 13.0154 17.0044 14.0227 18.4578 14.8939C18.9735 15.2029 19.4605 15.4948 19.9281 15.7558C24.3414 18.2191 28.4996 19.2009 33.6296 19.5888L33.477 21.6062C28.1393 21.2026 23.677 20.1652 18.9422 17.5224C18.3855 17.2118 17.8458 16.8883 17.2984 16.5602C15.8817 15.7112 14.4132 14.831 12.466 14.0614Z" fill="url(#paint0_linear_102_13389)"/>
<defs>
<filter id="filter0_d_102_13389" x="17.6663" y="1.61366" width="16.4826" height="16.4826" filterUnits="userSpaceOnUse" color-interpolation-filters="sRGB">
<feFlood flood-opacity="0" result="BackgroundImageFix"/>
<feColorMatrix in="SourceAlpha" type="matrix" values="0 0 0 0 0 0 0 0 0 0 0 0 0 0 0 0 0 0 127 0" result="hardAlpha"/>
<feOffset dy="1.96226"/>
<feGaussianBlur stdDeviation="1.96226"/>
<feColorMatrix type="matrix" values="0 0 0 0 0 0 0 0 0 0 0 0 0 0 0 0 0 0 0.45 0"/>
<feBlend mode="normal" in2="BackgroundImageFix" result="effect1_dropShadow_102_13389"/>
<feBlend mode="normal" in="SourceGraphic" in2="effect1_dropShadow_102_13389" result="shape"/>
</filter>
<linearGradient id="paint0_linear_102_13389" x1="7.47208" y1="12.2849" x2="31.3982" y2="20.5535" gradientUnits="userSpaceOnUse">
<stop stop-color="white"/>
<stop offset="1" stop-color="white" stop-opacity="0"/>
</linearGradient>
</defs>
</svg>
