<svg width="53" height="53" viewBox="0 0 53 53" fill="none" xmlns="http://www.w3.org/2000/svg">
<g clip-path="url(#clip0_102_13444)">
<path d="M16.7925 45.019C26.455 50.6319 38.8574 47.3818 44.4938 37.7598L46.1953 38.748C40.0107 49.3058 26.4023 52.8721 15.8 46.7133L16.7925 45.019Z" fill="url(#paint0_linear_102_13444)"/>
<path d="M47.1725 28.3104C47.6729 17.1821 39.0194 7.75677 27.8442 7.25835L27.9324 5.29883C40.1944 5.84571 49.6894 16.1877 49.1402 28.3982L47.1725 28.3104Z" fill="url(#paint1_linear_102_13444)"/>
<path d="M16.4057 10.2476C6.87368 16.0775 3.89235 28.4984 9.74682 37.9906L8.06839 39.0172C1.64458 28.6019 4.91583 14.9731 15.3749 8.57617L16.4057 10.2476Z" fill="url(#paint2_linear_102_13444)"/>
<g filter="url(#filter0_d_102_13444)">
<path d="M45.7043 41.1316C47.8227 41.1316 49.54 39.4215 49.54 37.3119C49.54 35.2023 47.8227 33.4922 45.7043 33.4922C43.5858 33.4922 41.8684 35.2023 41.8684 37.3119C41.8684 39.4215 43.5858 41.1316 45.7043 41.1316Z" fill="white"/>
</g>
<path d="M45.7044 38.8409C46.5518 38.8409 47.2388 38.1569 47.2388 37.313C47.2388 36.4692 46.5518 35.7852 45.7044 35.7852C44.8571 35.7852 44.1702 36.4692 44.1702 37.313C44.1702 38.1569 44.8571 38.8409 45.7044 38.8409Z" fill="#FF4925"/>
<g filter="url(#filter1_d_102_13444)">
<path d="M8.36532 41.1316C10.4838 41.1316 12.2012 39.4215 12.2012 37.3119C12.2012 35.2023 10.4838 33.4922 8.36532 33.4922C6.24689 33.4922 4.52954 35.2023 4.52954 37.3119C4.52954 39.4215 6.24689 41.1316 8.36532 41.1316Z" fill="white"/>
</g>
<path d="M8.36369 38.8409C9.21103 38.8409 9.89795 38.1569 9.89795 37.313C9.89795 36.4692 9.21103 35.7852 8.36369 35.7852C7.51629 35.7852 6.82935 36.4692 6.82935 37.313C6.82935 38.1569 7.51629 38.8409 8.36369 38.8409Z" fill="#FF4925"/>
<g filter="url(#filter2_d_102_13444)">
<path d="M27.0352 10.4304C29.1537 10.4304 30.871 8.72028 30.871 6.61074C30.871 4.50117 29.1537 2.79102 27.0352 2.79102C24.9168 2.79102 23.1995 4.50117 23.1995 6.61074C23.1995 8.72028 24.9168 10.4304 27.0352 10.4304Z" fill="white"/>
</g>
<path d="M27.0346 8.13782C27.882 8.13782 28.5689 7.45376 28.5689 6.60992C28.5689 5.76609 27.882 5.08203 27.0346 5.08203C26.1872 5.08203 25.5002 5.76609 25.5002 6.60992C25.5002 7.45376 26.1872 8.13782 27.0346 8.13782Z" fill="#FF4925"/>
<path fill-rule="evenodd" clip-rule="evenodd" d="M30.7195 13.6602L32.2518 15.2144L33.4395 14.0251L34.8986 15.4822L33.6995 16.6829L35.2381 18.2436L35.0153 19.7846L37.6396 23.0243V39.2743H19.9058V33.8338L11.8501 25.7673L22.5139 14.8182L30.7195 13.6602ZM21.9679 35.8987V37.2122H35.5775V23.7547L34.6132 22.5643L34.0793 26.2559L22.9923 36.9244L21.9679 35.8987ZM30.7906 16.6695L29.9798 15.8471L23.4995 16.7616L14.7462 25.7491L23.0211 34.0351L32.1397 25.2605L33.0507 18.9619L32.2383 18.1379L30.7303 19.6314L29.2792 18.1663L30.7906 16.6695Z" fill="white"/>
<path fill-rule="evenodd" clip-rule="evenodd" d="M21.8235 28.2336L24.4234 20.4336L26.3797 21.0857L23.7797 28.8857L21.8235 28.2336Z" fill="white"/>
<path d="M20.5609 25.1545C21.3036 25.1545 21.9057 24.5524 21.9057 23.8097C21.9057 23.0669 21.3036 22.4648 20.5609 22.4648C19.8182 22.4648 19.2161 23.0669 19.2161 23.8097C19.2161 24.5524 19.8182 25.1545 20.5609 25.1545Z" fill="white"/>
<path d="M27.7328 26.7678C28.4755 26.7678 29.0776 26.1657 29.0776 25.423C29.0776 24.6802 28.4755 24.0781 27.7328 24.0781C26.99 24.0781 26.3879 24.6802 26.3879 25.423C26.3879 26.1657 26.99 26.7678 27.7328 26.7678Z" fill="white"/>
</g>
<defs>
<filter id="filter0_d_102_13444" x="39.2684" y="32.1922" width="12.8716" height="12.8392" filterUnits="userSpaceOnUse" color-interpolation-filters="sRGB">
<feFlood flood-opacity="0" result="BackgroundImageFix"/>
<feColorMatrix in="SourceAlpha" type="matrix" values="0 0 0 0 0 0 0 0 0 0 0 0 0 0 0 0 0 0 127 0" result="hardAlpha"/>
<feOffset dy="1.3"/>
<feGaussianBlur stdDeviation="1.3"/>
<feColorMatrix type="matrix" values="0 0 0 0 0 0 0 0 0 0 0 0 0 0 0 0 0 0 0.45 0"/>
<feBlend mode="normal" in2="BackgroundImageFix" result="effect1_dropShadow_102_13444"/>
<feBlend mode="normal" in="SourceGraphic" in2="effect1_dropShadow_102_13444" result="shape"/>
</filter>
<filter id="filter1_d_102_13444" x="1.92954" y="32.1922" width="12.8716" height="12.8392" filterUnits="userSpaceOnUse" color-interpolation-filters="sRGB">
<feFlood flood-opacity="0" result="BackgroundImageFix"/>
<feColorMatrix in="SourceAlpha" type="matrix" values="0 0 0 0 0 0 0 0 0 0 0 0 0 0 0 0 0 0 127 0" result="hardAlpha"/>
<feOffset dy="1.3"/>
<feGaussianBlur stdDeviation="1.3"/>
<feColorMatrix type="matrix" values="0 0 0 0 0 0 0 0 0 0 0 0 0 0 0 0 0 0 0.45 0"/>
<feBlend mode="normal" in2="BackgroundImageFix" result="effect1_dropShadow_102_13444"/>
<feBlend mode="normal" in="SourceGraphic" in2="effect1_dropShadow_102_13444" result="shape"/>
</filter>
<filter id="filter2_d_102_13444" x="20.5995" y="1.49102" width="12.8715" height="12.8396" filterUnits="userSpaceOnUse" color-interpolation-filters="sRGB">
<feFlood flood-opacity="0" result="BackgroundImageFix"/>
<feColorMatrix in="SourceAlpha" type="matrix" values="0 0 0 0 0 0 0 0 0 0 0 0 0 0 0 0 0 0 127 0" result="hardAlpha"/>
<feOffset dy="1.3"/>
<feGaussianBlur stdDeviation="1.3"/>
<feColorMatrix type="matrix" values="0 0 0 0 0 0 0 0 0 0 0 0 0 0 0 0 0 0 0.45 0"/>
<feBlend mode="normal" in2="BackgroundImageFix" result="effect1_dropShadow_102_13444"/>
<feBlend mode="normal" in="SourceGraphic" in2="effect1_dropShadow_102_13444" result="shape"/>
</filter>
<linearGradient id="paint0_linear_102_13444" x1="40.2036" y1="39.0478" x2="19.3364" y2="48.3101" gradientUnits="userSpaceOnUse">
<stop stop-color="white"/>
<stop offset="1" stop-color="white" stop-opacity="0"/>
</linearGradient>
<linearGradient id="paint1_linear_102_13444" x1="30.9832" y1="10.4426" x2="48.814" y2="24.6663" gradientUnits="userSpaceOnUse">
<stop stop-color="white"/>
<stop offset="1" stop-color="white" stop-opacity="0"/>
</linearGradient>
<linearGradient id="paint2_linear_102_13444" x1="10.6326" y1="33.6166" x2="12.3473" y2="10.9304" gradientUnits="userSpaceOnUse">
<stop stop-color="white"/>
<stop offset="1" stop-color="white" stop-opacity="0"/>
</linearGradient>
<clipPath id="clip0_102_13444">
<rect width="52" height="52" fill="white" transform="translate(0.800049 0.660156)"/>
</clipPath>
</defs>
</svg>
