<svg width="53" height="53" viewBox="0 0 53 53" fill="none" xmlns="http://www.w3.org/2000/svg">
<path fill-rule="evenodd" clip-rule="evenodd" d="M28.2969 22.4902H45.0175V51.5833H28.2969V22.4902ZM30.3589 24.5523V49.5213H42.9555V24.5523H30.3589Z" fill="white"/>
<path fill-rule="evenodd" clip-rule="evenodd" d="M1.08569 1.64648H51.3822V34.9982H47.2133V32.9361H49.3202V3.70856H3.14776V32.9361H18.8374V34.9982H1.08569V1.64648Z" fill="white"/>
<path fill-rule="evenodd" clip-rule="evenodd" d="M16.7758 39.1224V34.1465H18.8379V41.1844H13.2793V39.1224H16.7758Z" fill="white"/>
<path fill-rule="evenodd" clip-rule="evenodd" d="M26.0997 34.9976H18.7031V32.9355H26.0997V34.9976Z" fill="url(#paint0_linear_102_13510)"/>
<path fill-rule="evenodd" clip-rule="evenodd" d="M26.0997 41.1851H18.7031V39.123H26.0997V41.1851Z" fill="url(#paint1_linear_102_13510)"/>
<path fill-rule="evenodd" clip-rule="evenodd" d="M9.96191 27.6465H26.0998V29.7085H9.96191V27.6465Z" fill="white"/>
<path fill-rule="evenodd" clip-rule="evenodd" d="M5.30195 11.749L5.21094 5.74218L7.2728 5.71094L7.3638 11.7178L5.30195 11.749Z" fill="white"/>
<path fill-rule="evenodd" clip-rule="evenodd" d="M8.30333 29.7085H5.34473V27.6465H8.30333V29.7085Z" fill="white"/>
<path fill-rule="evenodd" clip-rule="evenodd" d="M35.7373 29.7085H33.4062V27.6465H35.7373V29.7085Z" fill="white"/>
<path fill-rule="evenodd" clip-rule="evenodd" d="M35.7373 33.8316H33.4062V31.7695H35.7373V33.8316Z" fill="white"/>
<path fill-rule="evenodd" clip-rule="evenodd" d="M39.8623 33.8316H37.5312V31.7695H39.8623V33.8316Z" fill="white"/>
<path fill-rule="evenodd" clip-rule="evenodd" d="M39.8623 29.7085H37.5312V27.6465H39.8623V29.7085Z" fill="white"/>
<path fill-rule="evenodd" clip-rule="evenodd" d="M36.1755 11.317C33.6544 11.4275 31.2656 12.5737 29.3357 14.4829L27.8855 13.0169C30.1245 10.802 32.9806 9.39296 36.0852 9.25692C39.2021 9.12035 42.4618 10.2716 45.482 12.9826L44.1046 14.5172C41.4318 12.1179 38.6846 11.207 36.1755 11.317ZM41.186 17.4266C38.6294 15.1024 34.4942 15.3173 32.3299 17.4056L30.8981 15.9218C33.8441 13.0791 39.2124 12.8456 42.5731 15.9008L41.186 17.4266ZM38.2076 20.3667C37.4661 19.6561 36.1638 19.4598 35.1882 20.3745L33.7778 18.8702C35.6711 17.0951 38.224 17.5264 39.6343 18.8779L38.2076 20.3667Z" fill="white"/>
<g filter="url(#filter0_d_102_13510)">
<path d="M36.7051 44.4199C38.9228 44.4199 40.7207 42.622 40.7207 40.4043C40.7207 38.1865 38.9228 36.3887 36.7051 36.3887C34.4873 36.3887 32.6895 38.1865 32.6895 40.4043C32.6895 42.622 34.4873 44.4199 36.7051 44.4199Z" fill="white"/>
</g>
<path d="M36.7049 42.0094C37.592 42.0094 38.3111 41.2902 38.3111 40.4031C38.3111 39.516 37.592 38.7969 36.7049 38.7969C35.8178 38.7969 35.0986 39.516 35.0986 40.4031C35.0986 41.2902 35.8178 42.0094 36.7049 42.0094Z" fill="#FF4925"/>
<defs>
<filter id="filter0_d_102_13510" x="30.0895" y="35.0887" width="13.2313" height="13.2313" filterUnits="userSpaceOnUse" color-interpolation-filters="sRGB">
<feFlood flood-opacity="0" result="BackgroundImageFix"/>
<feColorMatrix in="SourceAlpha" type="matrix" values="0 0 0 0 0 0 0 0 0 0 0 0 0 0 0 0 0 0 127 0" result="hardAlpha"/>
<feOffset dy="1.3"/>
<feGaussianBlur stdDeviation="1.3"/>
<feColorMatrix type="matrix" values="0 0 0 0 0 0 0 0 0 0 0 0 0 0 0 0 0 0 0.45 0"/>
<feBlend mode="normal" in2="BackgroundImageFix" result="effect1_dropShadow_102_13510"/>
<feBlend mode="normal" in="SourceGraphic" in2="effect1_dropShadow_102_13510" result="shape"/>
</filter>
<linearGradient id="paint0_linear_102_13510" x1="19.5997" y1="37.0149" x2="26.1445" y2="37.0149" gradientUnits="userSpaceOnUse">
<stop stop-color="white"/>
<stop offset="1" stop-color="white" stop-opacity="0"/>
</linearGradient>
<linearGradient id="paint1_linear_102_13510" x1="19.5997" y1="37.0161" x2="26.1445" y2="37.0161" gradientUnits="userSpaceOnUse">
<stop stop-color="white"/>
<stop offset="1" stop-color="white" stop-opacity="0"/>
</linearGradient>
</defs>
</svg>
