<svg width="52" height="53" viewBox="0 0 52 53" fill="none" xmlns="http://www.w3.org/2000/svg">
<g clip-path="url(#clip0_102_13424)">
<path fill-rule="evenodd" clip-rule="evenodd" d="M11.7975 12.6432C9.32396 12.7516 6.98032 13.8762 5.08678 15.7493L3.66394 14.311C5.8607 12.1379 8.66293 10.7555 11.709 10.622C14.767 10.4879 17.9652 11.6174 20.9285 14.2774L19.577 15.7829C16.9547 13.429 14.2593 12.5353 11.7975 12.6432ZM16.7135 18.6375C14.2051 16.3572 10.1481 16.5679 8.02454 18.6169L6.61973 17.161C9.51016 14.372 14.7771 14.1429 18.0744 17.1405L16.7135 18.6375ZM13.7912 21.5221C13.0638 20.8249 11.7861 20.6323 10.8289 21.5298L9.4451 20.0538C11.3028 18.3123 13.8074 18.7354 15.1911 20.0614L13.7912 21.5221Z" fill="url(#paint0_linear_102_13424)"/>
<path fill-rule="evenodd" clip-rule="evenodd" d="M31.9032 41.6161C31.7948 39.1425 30.6702 36.7988 28.797 34.9053L30.2354 33.4824C32.4085 35.6792 33.7909 38.4815 33.9244 41.5275C34.0585 44.5856 32.9289 47.7838 30.2689 50.747L28.7634 49.3956C31.1174 46.7731 32.011 44.0778 31.9032 41.6161ZM25.9089 46.5321C28.1891 44.0237 27.9784 39.9665 25.9294 37.8431L27.3853 36.4383C30.1744 39.3287 30.4034 44.5957 27.4059 47.893L25.9089 46.5321ZM23.0243 43.6098C23.7213 42.8824 23.914 41.6046 23.0166 40.6473L24.4926 39.2636C26.2341 41.1212 25.811 43.626 24.485 45.0096L23.0243 43.6098Z" fill="url(#paint1_linear_102_13424)"/>
<path fill-rule="evenodd" clip-rule="evenodd" d="M7.28936 29.0856C6.94573 29.65 6.70091 30.4343 6.70091 31.5454V32.5889C10.3479 31.6844 14.0427 31.699 17.9603 32.6158V31.5454C17.9603 29.7028 17.1102 28.6506 16.0217 28.0071C14.8714 27.3272 13.4305 27.1033 12.4186 27.1033C11.3235 27.1033 9.8525 27.2075 8.68053 27.8188C8.11325 28.1146 7.63309 28.5209 7.28936 29.0856ZM17.9603 34.6978C13.9761 33.6931 10.3108 33.6943 6.70091 34.6794V37.5883C10.1281 36.5382 13.9013 36.6146 17.9603 37.6806V34.6978ZM17.9603 39.7775C13.7187 38.5779 9.97191 38.5583 6.70091 39.7187V45.5773C9.68808 46.6069 13.8399 46.9017 17.9603 45.56V39.7775ZM17.9603 47.6765C13.8995 48.8537 9.84897 48.6404 6.70091 47.7016V47.8627C6.7009 48.1723 6.70624 48.2502 6.7849 48.3669C6.87905 48.5065 7.19716 48.8384 8.2523 49.19C9.54056 49.6195 11.207 49.7524 12.8578 49.6886C14.5005 49.6253 16.0351 49.3712 17.0226 49.0891C17.6197 48.9185 17.793 48.6565 17.8641 48.5023C17.9603 48.2938 17.9603 48.0842 17.9603 47.868V47.6765ZM4.67864 31.4154C4.69741 30.0564 5.01112 28.9371 5.56126 28.0335C6.12875 27.1013 6.91029 26.4602 7.74491 26.0249C9.37673 25.1738 11.2702 25.0801 12.4186 25.0801C13.6499 25.0801 15.4856 25.3401 17.0512 26.2655C18.6536 27.2127 19.9436 28.8512 19.9825 31.4255L21.6826 32.2104L20.8348 34.0472L19.9834 33.6543V47.8627C19.9834 47.8737 19.9835 47.8865 19.9836 47.901C19.9852 48.1202 19.99 48.7237 19.7013 49.3496C19.3678 50.0728 18.7054 50.7124 17.5784 51.0345C16.4108 51.368 14.7127 51.6418 12.9358 51.7104C11.1671 51.7785 9.22694 51.6476 7.6125 51.1094C6.36177 50.6924 5.55834 50.1666 5.10741 49.4979C4.67004 48.8492 4.67512 48.2097 4.67745 47.9164C4.6776 47.8969 4.67775 47.879 4.67775 47.8627V33.6298L3.72496 34.0532L2.90332 32.2044L4.67864 31.4154Z" fill="white"/>
<path fill-rule="evenodd" clip-rule="evenodd" d="M33.7649 6.04056C33.4213 6.60499 33.1765 7.38932 33.1765 8.50047V9.54394C36.8234 8.63945 40.5183 8.65406 44.4358 9.57083V8.50047C44.4358 6.65783 43.5858 5.60561 42.4972 4.96213C41.347 4.28219 39.9061 4.05832 38.8941 4.05832C37.7991 4.05832 36.3281 4.16253 35.1561 4.7738C34.5888 5.06968 34.1087 5.47597 33.7649 6.04056ZM44.4358 11.6528C40.4516 10.6482 36.7864 10.6494 33.1765 11.6345V14.5434C36.6036 13.4933 40.3769 13.5697 44.4358 14.6357V11.6528ZM44.4358 16.7325C40.1942 15.533 36.4474 15.5133 33.1765 16.6738V22.5323C36.1636 23.5619 40.3155 23.8568 44.4358 22.515V16.7325ZM44.4358 24.6315C40.375 25.8088 36.3245 25.5954 33.1765 24.6566V24.8177C33.1765 25.1273 33.1818 25.2052 33.2605 25.3219C33.3546 25.4616 33.6727 25.7934 34.7278 26.1451C36.0161 26.5746 37.6824 26.7074 39.3334 26.6437C40.9761 26.5804 42.5107 26.3263 43.4982 26.0442C44.0953 25.8735 44.2686 25.6116 44.3396 25.4573C44.4358 25.2489 44.4358 25.0392 44.4358 24.8231V24.6315ZM31.1542 8.37044C31.1729 7.01146 31.4867 5.89215 32.0368 4.98849C32.6043 4.05634 33.3859 3.4153 34.2205 2.97998C35.8523 2.12886 37.7458 2.03516 38.8941 2.03516C40.1253 2.03516 41.9611 2.29509 43.5266 3.22048C45.1291 4.16771 46.4192 5.80625 46.4581 8.38062L48.1582 9.16536L47.3103 11.0023L46.4589 10.6093V24.8177C46.4589 24.8287 46.459 24.8416 46.4591 24.856C46.4608 25.0752 46.4654 25.6788 46.1769 26.3046C45.8433 27.0278 45.1809 27.6674 44.054 27.9895C42.8863 28.323 41.1882 28.5968 39.4114 28.6654C37.6426 28.7336 35.7025 28.6026 34.088 28.0644C32.8373 27.6475 32.0339 27.1217 31.5829 26.4529C31.1455 25.8042 31.1506 25.1647 31.153 24.8714C31.1532 24.852 31.1533 24.834 31.1533 24.8177V10.5848L30.2005 11.0082L29.3789 9.15942L31.1542 8.37044Z" fill="white"/>
<path fill-rule="evenodd" clip-rule="evenodd" d="M24.4688 5.01269V2.60547H26.4918V5.01269H24.4688ZM24.4688 11.7529V6.93846H26.4918V11.7529H24.4688ZM24.4688 18.4931V13.6786H26.4918V18.4931H24.4688ZM24.4688 25.2333V20.4189H26.4918V25.2333H24.4688ZM24.4688 29.5663V27.1591H26.4918V29.5663H24.4688Z" fill="white"/>
<g filter="url(#filter0_d_102_13424)">
<path d="M12.2405 20.815C9.83577 20.815 7.88634 22.7645 7.88634 25.1692C7.88634 27.574 9.83577 29.5234 12.2405 29.5234C14.6453 29.5234 16.5947 27.574 16.5947 25.1692C16.5947 22.7645 14.6453 20.815 12.2405 20.815Z" fill="white"/>
</g>
<path d="M12.2417 23.4268C11.2798 23.4268 10.5 24.2066 10.5 25.1685C10.5 26.1304 11.2798 26.9102 12.2417 26.9102C13.2036 26.9102 13.9834 26.1304 13.9834 25.1685C13.9834 24.2066 13.2036 23.4268 12.2417 23.4268Z" fill="#FF4925"/>
<g filter="url(#filter1_d_102_13424)">
<path d="M19.72 37.7936C17.3153 37.7936 15.3658 39.743 15.3658 42.1478C15.3658 44.5525 17.3153 46.502 19.72 46.502C22.1248 46.502 24.0742 44.5525 24.0742 42.1478C24.0742 39.743 22.1248 37.7936 19.72 37.7936Z" fill="white"/>
</g>
<path d="M19.7202 40.4053C18.7583 40.4053 17.9786 41.1851 17.9786 42.147C17.9786 43.1089 18.7583 43.8887 19.7202 43.8887C20.6821 43.8887 21.4619 43.1089 21.4619 42.147C21.4619 41.1851 20.6821 40.4053 19.7202 40.4053Z" fill="#FF4925"/>
</g>
<defs>
<filter id="filter0_d_102_13424" x="3.96182" y="18.8527" width="16.5574" height="16.5576" filterUnits="userSpaceOnUse" color-interpolation-filters="sRGB">
<feFlood flood-opacity="0" result="BackgroundImageFix"/>
<feColorMatrix in="SourceAlpha" type="matrix" values="0 0 0 0 0 0 0 0 0 0 0 0 0 0 0 0 0 0 127 0" result="hardAlpha"/>
<feOffset dy="1.96226"/>
<feGaussianBlur stdDeviation="1.96226"/>
<feColorMatrix type="matrix" values="0 0 0 0 0 0 0 0 0 0 0 0 0 0 0 0 0 0 0.45 0"/>
<feBlend mode="normal" in2="BackgroundImageFix" result="effect1_dropShadow_102_13424"/>
<feBlend mode="normal" in="SourceGraphic" in2="effect1_dropShadow_102_13424" result="shape"/>
</filter>
<filter id="filter1_d_102_13424" x="11.4413" y="35.8312" width="16.5574" height="16.5576" filterUnits="userSpaceOnUse" color-interpolation-filters="sRGB">
<feFlood flood-opacity="0" result="BackgroundImageFix"/>
<feColorMatrix in="SourceAlpha" type="matrix" values="0 0 0 0 0 0 0 0 0 0 0 0 0 0 0 0 0 0 127 0" result="hardAlpha"/>
<feOffset dy="1.96226"/>
<feGaussianBlur stdDeviation="1.96226"/>
<feColorMatrix type="matrix" values="0 0 0 0 0 0 0 0 0 0 0 0 0 0 0 0 0 0 0.45 0"/>
<feBlend mode="normal" in2="BackgroundImageFix" result="effect1_dropShadow_102_13424"/>
<feBlend mode="normal" in="SourceGraphic" in2="effect1_dropShadow_102_13424" result="shape"/>
</filter>
<linearGradient id="paint0_linear_102_13424" x1="12.2963" y1="15.3174" x2="12.2963" y2="21.5298" gradientUnits="userSpaceOnUse">
<stop stop-color="white"/>
<stop offset="1" stop-color="white" stop-opacity="0"/>
</linearGradient>
<linearGradient id="paint1_linear_102_13424" x1="28.4703" y1="42.1147" x2="23.0166" y2="42.1147" gradientUnits="userSpaceOnUse">
<stop stop-color="white"/>
<stop offset="1" stop-color="white" stop-opacity="0"/>
</linearGradient>
<clipPath id="clip0_102_13424">
<rect width="51.0189" height="52" fill="white" transform="translate(0 0.660156)"/>
</clipPath>
</defs>
</svg>
