<svg width="52" height="53" viewBox="0 0 52 53" fill="none" xmlns="http://www.w3.org/2000/svg">
<g clip-path="url(#clip0_102_13469)">
<path fill-rule="evenodd" clip-rule="evenodd" d="M23.6897 0.660156H39.0235V32.7927H36.7771V23.3678H30.5753V21.1214H36.7771V13.1615H32.138V10.9152H36.7771V2.9065H25.936V8.71771H23.6897V0.660156Z" fill="url(#paint0_linear_102_13469)"/>
<path fill-rule="evenodd" clip-rule="evenodd" d="M36.9223 47.2971H2.83643V49.5434H36.9223V47.2971ZM0.590088 45.0508V51.7898H39.1687V45.0508H0.590088Z" fill="white"/>
<path fill-rule="evenodd" clip-rule="evenodd" d="M29.9881 10.7678H9.771V13.0141H29.9881V10.7678ZM7.52466 8.52148V15.2606H32.2345V8.52148H7.52466Z" fill="white"/>
<path fill-rule="evenodd" clip-rule="evenodd" d="M49.4242 34.1604H31.6975V31.9141H51.6705V50.3732H38.6319V48.1268H49.4242V34.1604Z" fill="white"/>
<path fill-rule="evenodd" clip-rule="evenodd" d="M41.4634 13.1623H38.387V10.916H43.7098V32.7935H41.4634V13.1623Z" fill="white"/>
<path fill-rule="evenodd" clip-rule="evenodd" d="M45.1267 38.4574H32.4788V36.2109H47.373V43.4872H34.3833V41.2409H45.1267V38.4574Z" fill="white"/>
<path fill-rule="evenodd" clip-rule="evenodd" d="M11.3811 14.2305C11.9267 25.5877 9.11215 38.5052 4.44547 46.6343L2.49731 45.5159C6.9137 37.8229 9.66619 25.3469 9.13739 14.3383L11.3811 14.2305Z" fill="white"/>
<path fill-rule="evenodd" clip-rule="evenodd" d="M28.3458 14.2305C27.8003 25.5877 30.6149 38.5052 35.2816 46.6343L37.2297 45.5159C32.8133 37.8229 30.0608 25.3469 30.5896 14.3383L28.3458 14.2305Z" fill="white"/>
<g filter="url(#filter0_d_102_13469)">
<path d="M20.0725 35.9648C22.6878 35.9648 24.8078 33.8447 24.8078 31.2295C24.8078 28.6142 22.6878 26.4941 20.0725 26.4941C17.4572 26.4941 15.3372 28.6142 15.3372 31.2295C15.3372 33.8447 17.4572 35.9648 20.0725 35.9648Z" fill="white"/>
</g>
<path d="M20.0731 33.1223C21.1192 33.1223 21.9672 32.2742 21.9672 31.2281C21.9672 30.182 21.1192 29.334 20.0731 29.334C19.027 29.334 18.179 30.182 18.179 31.2281C18.179 32.2742 19.027 33.1223 20.0731 33.1223Z" fill="#FF4925"/>
</g>
<defs>
<filter id="filter0_d_102_13469" x="11.6886" y="24.6699" width="16.7678" height="16.7678" filterUnits="userSpaceOnUse" color-interpolation-filters="sRGB">
<feFlood flood-opacity="0" result="BackgroundImageFix"/>
<feColorMatrix in="SourceAlpha" type="matrix" values="0 0 0 0 0 0 0 0 0 0 0 0 0 0 0 0 0 0 127 0" result="hardAlpha"/>
<feOffset dy="1.82429"/>
<feGaussianBlur stdDeviation="1.82429"/>
<feColorMatrix type="matrix" values="0 0 0 0 0 0 0 0 0 0 0 0 0 0 0 0 0 0 0.45 0"/>
<feBlend mode="normal" in2="BackgroundImageFix" result="effect1_dropShadow_102_13469"/>
<feBlend mode="normal" in="SourceGraphic" in2="effect1_dropShadow_102_13469" result="shape"/>
</filter>
<linearGradient id="paint0_linear_102_13469" x1="31.3566" y1="11.55" x2="31.3566" y2="32.7927" gradientUnits="userSpaceOnUse">
<stop offset="0.359375" stop-color="white"/>
<stop offset="1" stop-color="white" stop-opacity="0"/>
</linearGradient>
<clipPath id="clip0_102_13469">
<rect width="51.08" height="51.9921" fill="white" transform="translate(0.590088 0.660156)"/>
</clipPath>
</defs>
</svg>
