<svg width="53" height="53" viewBox="0 0 53 53" fill="none" xmlns="http://www.w3.org/2000/svg">
<path fill-rule="evenodd" clip-rule="evenodd" d="M3.73882 2.81555C4.89256 1.80337 6.29347 1.51172 7.33816 1.51172H43.3796C46.0306 1.51172 47.9855 2.55949 49.2639 4.03657C50.5175 5.48503 51.0899 7.30887 51.0899 8.86341V49.9703C51.0899 49.9703 51.0899 49.9703 50.0588 49.9703C50.0588 51.0014 50.0588 51.0014 50.0585 51.0014H18.1864C16.267 51.0014 14.493 50.4403 13.1801 49.3361C11.8496 48.2171 11.0588 46.5924 11.0588 44.6358H13.1209C13.1209 45.9966 13.6525 47.0391 14.5074 47.758C15.3798 48.4917 16.6542 48.9393 18.1864 48.9393H49.0278V8.86341C49.0278 7.77317 48.614 6.43669 47.7047 5.38601C46.8201 4.36395 45.4353 3.57379 43.3796 3.57379H11.8318C12.639 4.61678 13.1209 6.06366 13.1209 7.96687V17.7841H11.0588V14.8255H1.77954V7.96687C1.77954 5.51955 2.55554 3.85364 3.73882 2.81555ZM11.0588 12.7634V7.96687C11.0588 6.0422 10.4667 4.99602 9.80641 4.41523C9.11871 3.81041 8.20175 3.57379 7.33816 3.57379C6.63458 3.57379 5.77169 3.77524 5.09871 4.36565C4.45527 4.93015 3.84161 5.9763 3.84161 7.96687V12.7634H11.0588ZM50.0588 49.9703L50.0585 51.0014H51.0899V49.9703H50.0588Z" fill="white"/>
<path fill-rule="evenodd" clip-rule="evenodd" d="M11.9553 35.2665C16.6592 35.2665 20.4725 31.4532 20.4725 26.7493C20.4725 22.0453 16.6592 18.232 11.9553 18.232C7.25134 18.232 3.43804 22.0453 3.43804 26.7493C3.43804 31.4532 7.25134 35.2665 11.9553 35.2665ZM11.9553 37.3285C17.7981 37.3285 22.5346 32.592 22.5346 26.7493C22.5346 20.9065 17.7981 16.1699 11.9553 16.1699C6.11249 16.1699 1.37598 20.9065 1.37598 26.7493C1.37598 32.592 6.11249 37.3285 11.9553 37.3285Z" fill="white"/>
<path fill-rule="evenodd" clip-rule="evenodd" d="M6.30664 35.1328H8.36871V40.8771L11.8681 38.5558L15.317 40.8665V35.1328H17.3791V44.7302L11.8624 41.034L6.30664 44.7196V35.1328Z" fill="white"/>
<path fill-rule="evenodd" clip-rule="evenodd" d="M44.3205 18.6812H25.4033V16.6191H44.3205V18.6812Z" fill="white"/>
<path fill-rule="evenodd" clip-rule="evenodd" d="M38.3585 24.4195H25.4033V22.3574H38.3585V24.4195Z" fill="white"/>
<path fill-rule="evenodd" clip-rule="evenodd" d="M44.3206 24.4195H40.2861V22.3574H44.3206V24.4195Z" fill="white"/>
<path fill-rule="evenodd" clip-rule="evenodd" d="M33.024 30.1558H25.4033V28.0938H33.024V30.1558Z" fill="white"/>
<path fill-rule="evenodd" clip-rule="evenodd" d="M44.321 30.1558H34.9072V28.0938H44.321V30.1558Z" fill="white"/>
<path fill-rule="evenodd" clip-rule="evenodd" d="M38.9422 35.8042H25.4043V33.7422H38.9422V35.8042Z" fill="url(#paint0_linear_102_13489)"/>
<g filter="url(#filter0_d_102_13489)">
<path d="M11.9623 31.1569C14.3922 31.1569 16.362 29.1871 16.362 26.7572C16.362 24.3273 14.3922 22.3574 11.9623 22.3574C9.53234 22.3574 7.5625 24.3273 7.5625 26.7572C7.5625 29.1871 9.53234 31.1569 11.9623 31.1569Z" fill="white"/>
</g>
<path d="M11.962 28.5159C12.934 28.5159 13.722 27.728 13.722 26.756C13.722 25.784 12.934 24.9961 11.962 24.9961C10.9901 24.9961 10.2021 25.784 10.2021 26.756C10.2021 27.728 10.9901 28.5159 11.962 28.5159Z" fill="#FF4925"/>
<defs>
<filter id="filter0_d_102_13489" x="4.9625" y="21.0574" width="13.9996" height="13.9993" filterUnits="userSpaceOnUse" color-interpolation-filters="sRGB">
<feFlood flood-opacity="0" result="BackgroundImageFix"/>
<feColorMatrix in="SourceAlpha" type="matrix" values="0 0 0 0 0 0 0 0 0 0 0 0 0 0 0 0 0 0 127 0" result="hardAlpha"/>
<feOffset dy="1.3"/>
<feGaussianBlur stdDeviation="1.3"/>
<feColorMatrix type="matrix" values="0 0 0 0 0 0 0 0 0 0 0 0 0 0 0 0 0 0 0.45 0"/>
<feBlend mode="normal" in2="BackgroundImageFix" result="effect1_dropShadow_102_13489"/>
<feBlend mode="normal" in="SourceGraphic" in2="effect1_dropShadow_102_13489" result="shape"/>
</filter>
<linearGradient id="paint0_linear_102_13489" x1="25.4043" y1="34.7284" x2="38.9422" y2="34.7284" gradientUnits="userSpaceOnUse">
<stop stop-color="white"/>
<stop offset="0.96875" stop-color="white" stop-opacity="0.03125"/>
</linearGradient>
</defs>
</svg>
