<svg width="53" height="53" viewBox="0 0 53 53" fill="none" xmlns="http://www.w3.org/2000/svg">
<g filter="url(#filter0_d_102_13357)">
<path d="M37.6664 37.2227C39.9884 37.2227 41.8707 35.3404 41.8707 33.0185C41.8707 30.6965 39.9884 28.8142 37.6664 28.8142C35.3445 28.8142 33.4622 30.6965 33.4622 33.0185C33.4622 35.3404 35.3445 37.2227 37.6664 37.2227Z" fill="white"/>
</g>
<path d="M37.6653 34.7011C38.5941 34.7011 39.3471 33.9481 39.3471 33.0194C39.3471 32.0906 38.5941 31.3376 37.6653 31.3376C36.7366 31.3376 35.9836 32.0906 35.9836 33.0194C35.9836 33.9481 36.7366 34.7011 37.6653 34.7011Z" fill="#FF4925"/>
<path fill-rule="evenodd" clip-rule="evenodd" d="M38.1213 5.29226C32.6839 4.7517 28.6907 7.89227 27.4207 9.47021L26.6476 10.4306L25.8813 9.46481C24.4015 7.59964 22.3135 6.49907 20.2431 5.89238C18.1981 5.29313 16.2453 5.19875 15.0899 5.28967C10.1049 6.22785 7.14273 8.86928 5.5643 11.9232C3.96017 15.0268 3.7585 18.6138 4.43597 21.3835C5.79211 26.9277 12.066 36.6008 26.6359 45.1827L28.187 44.2133L29.2314 45.8842L26.6723 47.4836L26.1591 47.1863C10.9374 38.3645 4.06288 28.1513 2.52194 21.8516C1.743 18.6671 1.96969 14.5865 3.81384 11.0184C5.67856 7.41062 9.17042 4.38352 14.7793 3.34317L14.8272 3.33428L14.8757 3.33017C16.2543 3.21335 18.4779 3.32183 20.7972 4.00145C22.8113 4.59163 24.9555 5.6303 26.6699 7.38371C28.7008 5.41455 32.8738 2.79042 38.3162 3.33148C42.2998 3.7275 46.1225 6.15536 48.5364 9.61685C50.9644 13.0985 52.0109 17.6907 50.3271 22.4193L48.4708 21.7583C49.914 17.7054 49.0327 13.7733 46.9201 10.7439C44.7935 7.69434 41.4627 5.62445 38.1213 5.29226Z" fill="white"/>
<path fill-rule="evenodd" clip-rule="evenodd" d="M37.5307 19.0076L50.4277 24.3891V34.1267C50.4277 35.8922 49.8174 37.5097 49.0956 38.7877C48.3791 40.0565 47.5165 41.0551 46.9045 41.6129L37.5297 50.7107L36.8435 50.036C34.3121 47.5473 29.031 42.3439 28.2971 41.5751C28.2335 41.5084 28.1607 41.4344 28.0805 41.3527C27.0649 40.32 24.8547 38.0721 24.8547 34.1267V24.3937L37.5307 19.0076ZM37.5376 21.1455L26.8252 25.6974V34.1267C26.8252 37.2449 28.5117 38.9726 29.4999 39.9849C29.5789 40.0659 29.6536 40.1423 29.7225 40.2145C30.3694 40.8923 34.8345 45.2955 37.5388 47.9561L45.5557 40.1761L45.5681 40.1649C46.0261 39.7496 46.7629 38.9113 47.3799 37.8188C47.9968 36.7265 48.4573 35.4455 48.4573 34.1267V25.702L37.5376 21.1455Z" fill="white"/>
<path fill-rule="evenodd" clip-rule="evenodd" d="M13.464 10.1074C10.7135 11.0908 8.48207 13.5068 8.23085 17.3138C8.0129 20.6197 9.81802 26.5557 20.0533 35.3049L18.773 36.8027C8.36228 27.9036 5.9856 21.4173 6.26468 17.1841C6.57033 12.5523 9.35073 9.48536 12.8007 8.25199C16.2122 7.03232 20.2865 7.60251 23.2301 10.1662L21.9359 11.6521C19.5679 9.58962 16.253 9.11031 13.464 10.1074Z" fill="url(#paint0_linear_102_13357)"/>
<defs>
<filter id="filter0_d_102_13357" x="30.8622" y="27.5142" width="13.6086" height="13.6084" filterUnits="userSpaceOnUse" color-interpolation-filters="sRGB">
<feFlood flood-opacity="0" result="BackgroundImageFix"/>
<feColorMatrix in="SourceAlpha" type="matrix" values="0 0 0 0 0 0 0 0 0 0 0 0 0 0 0 0 0 0 127 0" result="hardAlpha"/>
<feOffset dy="1.3"/>
<feGaussianBlur stdDeviation="1.3"/>
<feColorMatrix type="matrix" values="0 0 0 0 0 0 0 0 0 0 0 0 0 0 0 0 0 0 0.45 0"/>
<feBlend mode="normal" in2="BackgroundImageFix" result="effect1_dropShadow_102_13357"/>
<feBlend mode="normal" in="SourceGraphic" in2="effect1_dropShadow_102_13357" result="shape"/>
</filter>
<linearGradient id="paint0_linear_102_13357" x1="14.873" y1="12.28" x2="19.4136" y2="34.2547" gradientUnits="userSpaceOnUse">
<stop stop-color="white"/>
<stop offset="1" stop-color="white" stop-opacity="0"/>
</linearGradient>
</defs>
</svg>
