<svg width="53" height="53" viewBox="0 0 53 53" fill="none" xmlns="http://www.w3.org/2000/svg">
<g clip-path="url(#clip0_102_13372)">
<path fill-rule="evenodd" clip-rule="evenodd" d="M25.5139 51.1365V4.69507H27.576V51.1365H25.5139Z" fill="white"/>
<path fill-rule="evenodd" clip-rule="evenodd" d="M2.08969 11.2849H20.0684L28.6364 25.5401H13.3619C10.647 25.5401 8.57714 24.589 7.20486 23.0244C5.99816 21.6486 5.40159 19.8801 5.3049 18.0692C2.42287 16.5223 1.75387 13.8761 1.97324 12.1834L2.08969 11.2849ZM7.47169 18.8898C7.66565 19.9561 8.09608 20.9133 8.75511 21.6646C9.685 22.7248 11.1589 23.478 13.3619 23.478H24.9911L18.9019 13.347H4.04162C4.21135 14.3723 4.89487 15.6682 6.73572 16.4733C7.76412 16.923 9.18944 17.2374 11.144 17.2374V19.2995C9.73759 19.2995 8.52046 19.1531 7.47169 18.8898Z" fill="white"/>
<path fill-rule="evenodd" clip-rule="evenodd" d="M51.0899 11.2849H33.1113L24.5432 25.5401H39.8177C42.5326 25.5401 44.6025 24.589 45.9748 23.0244C47.1815 21.6486 47.778 19.8801 47.8747 18.0692C50.7567 16.5223 51.4257 13.8761 51.2063 12.1834L51.0899 11.2849ZM45.7079 18.8898C45.514 19.9561 45.0835 20.9133 44.4245 21.6646C43.4946 22.7248 42.0207 23.478 39.8177 23.478H28.1885L34.2777 13.347H49.138C48.9683 14.3723 48.2847 15.6682 46.4439 16.4733C45.4155 16.923 43.9902 17.2374 42.0356 17.2374V19.2995C43.442 19.2995 44.6592 19.1531 45.7079 18.8898Z" fill="white"/>
<path fill-rule="evenodd" clip-rule="evenodd" d="M14.1282 33.5775C14.1282 30.7069 16.5597 29.1248 18.7185 29.1248H21.1715V31.1868H18.7185C17.4142 31.1868 16.1903 32.1107 16.1903 33.5775C16.1903 34.5118 16.5613 35.1148 17.0345 35.5039C17.5387 35.9184 18.192 36.1126 18.7185 36.1126H26.3661V38.1747H21.3995C20.5361 38.5927 20.0892 39.0373 19.8403 39.4579C19.5687 39.9168 19.461 40.4674 19.461 41.1918C19.461 42.3094 20.451 43.486 21.7968 43.486H26.3661V45.5481H23.6192C22.8885 45.8369 22.5771 46.1626 22.427 46.4112C22.2571 46.6928 22.2025 47.0241 22.2025 47.4568C22.2025 48.0504 22.6987 49.0282 23.9612 49.0282H26.3661V51.0903H23.9612C21.2797 51.0903 20.1405 48.8874 20.1405 47.4568C20.1405 46.8894 20.2035 46.1321 20.6342 45.392C18.6878 44.854 17.3989 43.0098 17.3989 41.1918C17.3989 40.2777 17.5316 39.3102 18.0657 38.4077C18.1181 38.3192 18.1736 38.2324 18.2325 38.1473C17.3905 38.0536 16.4796 37.7171 15.725 37.0967C14.7913 36.3292 14.1282 35.149 14.1282 33.5775Z" fill="url(#paint0_linear_102_13372)"/>
<path fill-rule="evenodd" clip-rule="evenodd" d="M39.321 33.5775C39.321 30.6998 36.8667 29.1248 34.7022 29.1248H32.2296V31.1868H34.7022C36.0285 31.1868 37.2589 32.1177 37.2589 33.5775C37.2589 34.5087 36.8865 35.1111 36.4081 35.5013C35.8983 35.9171 35.2368 36.1126 34.7022 36.1126H26.9934V38.1747H32.0034C32.8775 38.594 33.3293 39.04 33.5804 39.461C33.8537 39.9192 33.9621 40.4684 33.9621 41.1918C33.9621 42.3014 32.9683 43.486 31.5993 43.486H26.9934V45.5481H29.7653C30.5062 45.8381 30.8215 46.1654 30.973 46.4144C31.1437 46.695 31.1986 47.025 31.1986 47.4568C31.1986 48.0422 30.703 49.0282 29.4176 49.0282H26.9934V51.0903H29.4176C32.1077 51.0903 33.2606 48.8955 33.2606 47.4568C33.2606 46.8896 33.1972 46.1327 32.7648 45.393C34.7211 44.8573 36.0242 43.017 36.0242 41.1918C36.0242 40.2767 35.8902 39.3078 35.3514 38.4046C35.2993 38.3173 35.2441 38.2318 35.1857 38.1479C36.0328 38.0552 36.9506 37.7198 37.7114 37.0993C38.6511 36.3329 39.321 35.1522 39.321 33.5775Z" fill="url(#paint1_linear_102_13372)"/>
<g filter="url(#filter0_d_102_13372)">
<path d="M26.5514 10.9829C28.9813 10.9829 30.9511 9.01302 30.9511 6.5831C30.9511 4.15319 28.9813 2.18335 26.5514 2.18335C24.1214 2.18335 22.1516 4.15319 22.1516 6.5831C22.1516 9.01302 24.1214 10.9829 26.5514 10.9829Z" fill="white"/>
</g>
<path d="M26.5521 8.34573C27.5241 8.34573 28.312 7.5578 28.312 6.58583C28.312 5.61386 27.5241 4.82593 26.5521 4.82593C25.5802 4.82593 24.7922 5.61386 24.7922 6.58583C24.7922 7.5578 25.5802 8.34573 26.5521 8.34573Z" fill="#FF4925"/>
</g>
<defs>
<filter id="filter0_d_102_13372" x="19.5516" y="0.88335" width="13.9996" height="13.9996" filterUnits="userSpaceOnUse" color-interpolation-filters="sRGB">
<feFlood flood-opacity="0" result="BackgroundImageFix"/>
<feColorMatrix in="SourceAlpha" type="matrix" values="0 0 0 0 0 0 0 0 0 0 0 0 0 0 0 0 0 0 127 0" result="hardAlpha"/>
<feOffset dy="1.3"/>
<feGaussianBlur stdDeviation="1.3"/>
<feColorMatrix type="matrix" values="0 0 0 0 0 0 0 0 0 0 0 0 0 0 0 0 0 0 0.45 0"/>
<feBlend mode="normal" in2="BackgroundImageFix" result="effect1_dropShadow_102_13372"/>
<feBlend mode="normal" in="SourceGraphic" in2="effect1_dropShadow_102_13372" result="shape"/>
</filter>
<linearGradient id="paint0_linear_102_13372" x1="19.6868" y1="40.1075" x2="25.0213" y2="40.1075" gradientUnits="userSpaceOnUse">
<stop stop-color="white"/>
<stop offset="1" stop-color="white" stop-opacity="0"/>
</linearGradient>
<linearGradient id="paint1_linear_102_13372" x1="33.9865" y1="39.3006" x2="28.0693" y2="39.3006" gradientUnits="userSpaceOnUse">
<stop stop-color="white"/>
<stop offset="1" stop-color="white" stop-opacity="0"/>
</linearGradient>
<clipPath id="clip0_102_13372">
<rect width="52" height="52" fill="white" transform="translate(0.590088 0.659912)"/>
</clipPath>
</defs>
</svg>
