<svg width="64" height="65" viewBox="0 0 64 65" fill="none" xmlns="http://www.w3.org/2000/svg">
<g id="Insurance and healthcare">
<path id="Vector" fill-rule="evenodd" clip-rule="evenodd" d="M30.6758 63.1274V5.96875H33.2138V63.1274H30.6758Z" fill="#00267B"/>
<path id="Vector_2" fill-rule="evenodd" clip-rule="evenodd" d="M1.84686 14.0781H23.9745L34.5197 31.623H15.7204C12.379 31.623 9.83145 30.4524 8.14242 28.5267C6.65729 26.8335 5.92304 24.6568 5.80404 22.4281C2.25692 20.5241 1.43355 17.2673 1.70354 15.184L1.84686 14.0781ZM8.47086 23.438C8.70961 24.7504 9.23932 25.9285 10.0505 26.8532C11.195 28.1581 13.0091 29.085 15.7204 29.085H30.0332L22.5388 16.6161H4.24924C4.45813 17.8781 5.29938 19.473 7.56505 20.4638C8.83081 21.0174 10.5851 21.4043 12.9906 21.4043V23.9423C11.2597 23.9423 9.76167 23.7621 8.47086 23.438Z" fill="#00267B"/>
<path id="Vector_3" fill-rule="evenodd" clip-rule="evenodd" d="M62.1534 14.0781H40.0258L29.4805 31.623H48.2799C51.6213 31.623 54.1688 30.4524 55.8578 28.5267C57.3429 26.8335 58.0772 24.6568 58.1962 22.4281C61.7433 20.5241 62.5667 17.2673 62.2967 15.184L62.1534 14.0781ZM55.5294 23.438C55.2906 24.7504 54.7609 25.9285 53.9498 26.8532C52.8053 28.1581 50.9912 29.085 48.2799 29.085H33.967L41.4615 16.6161H59.751C59.5421 17.8781 58.7009 19.473 56.4352 20.4638C55.1694 21.0174 53.4152 21.4043 51.0096 21.4043V23.9423C52.7406 23.9423 54.2386 23.7621 55.5294 23.438Z" fill="#00267B"/>
<path id="Vector_4" fill-rule="evenodd" clip-rule="evenodd" d="M16.6602 41.5116C16.6602 37.9786 19.6528 36.0312 22.3098 36.0312H25.3289V38.5692H22.3098C20.7046 38.5692 19.1982 39.7063 19.1982 41.5116C19.1982 42.6616 19.6548 43.4037 20.2372 43.8825C20.8577 44.3926 21.6618 44.6317 22.3098 44.6317H31.7223V47.1698H25.6094C24.5468 47.6842 23.9969 48.2313 23.6905 48.7491C23.3562 49.314 23.2236 49.9914 23.2236 50.883C23.2236 52.2584 24.4422 53.7067 26.0985 53.7067H31.7223V56.2448H28.3414C27.4421 56.6002 27.0589 57.0009 26.8742 57.3069C26.6651 57.6535 26.5979 58.0612 26.5979 58.5938C26.5979 59.3244 27.2085 60.5279 28.7624 60.5279H31.7223V63.0658H28.7624C25.4621 63.0658 24.06 60.3545 24.06 58.5938C24.06 57.8954 24.1375 56.9635 24.6675 56.0527C22.2721 55.3904 20.6857 53.1205 20.6857 50.883C20.6857 49.758 20.8491 48.5673 21.5063 47.4566C21.5708 47.3476 21.6393 47.2406 21.7117 47.1359C20.6753 47.0206 19.5542 46.6065 18.6255 45.8429C17.4763 44.8982 16.6602 43.4458 16.6602 41.5116Z" fill="url(#paint0_linear_431_23213)"/>
<path id="Vector_5" fill-rule="evenodd" clip-rule="evenodd" d="M47.6685 41.5116C47.6685 37.9699 44.6478 36.0312 41.9838 36.0312H38.9406V38.5692H41.9838C43.6162 38.5692 45.1306 39.715 45.1306 41.5116C45.1306 42.6577 44.6721 43.3991 44.0833 43.8793C43.456 44.391 42.6418 44.6317 41.9838 44.6317H32.4961V47.1698H38.6622C39.738 47.6858 40.294 48.2346 40.6031 48.7528C40.9395 49.3167 41.0729 49.9927 41.0729 50.883C41.0729 52.2487 39.8498 53.7067 38.1649 53.7067H32.4961V56.2448H35.9077C36.8195 56.6016 37.2076 57.0043 37.394 57.3108C37.6041 57.6562 37.6716 58.0623 37.6716 58.5938C37.6716 59.3144 37.0617 60.5279 35.4797 60.5279H32.4961V63.0658H35.4797C38.7907 63.0658 40.2096 60.3646 40.2096 58.5938C40.2096 57.8956 40.1315 56.9641 39.5992 56.0538C42.0071 55.3944 43.6108 53.1294 43.6108 50.883C43.6108 49.7567 43.4459 48.5643 42.7828 47.4526C42.7187 47.3452 42.6508 47.24 42.579 47.1367C43.6215 47.0226 44.7511 46.6097 45.6874 45.8461C46.844 44.9028 47.6685 43.4497 47.6685 41.5116Z" fill="url(#paint1_linear_431_23213)"/>
<g id="Group" filter="url(#filter0_d_431_23213)">
<path id="Vector_6" d="M31.9541 13.7052C34.9448 13.7052 37.3692 11.2807 37.3692 8.29008C37.3692 5.29941 34.9448 2.875 31.9541 2.875C28.9635 2.875 26.5391 5.29941 26.5391 8.29008C26.5391 11.2807 28.9635 13.7052 31.9541 13.7052Z" fill="white"/>
</g>
<path id="Vector_7" d="M31.9512 10.4571C33.1475 10.4571 34.1172 9.4873 34.1172 8.29103C34.1172 7.09476 33.1475 6.125 31.9512 6.125C30.7549 6.125 29.7852 7.09476 29.7852 8.29103C29.7852 9.4873 30.7549 10.4571 31.9512 10.4571Z" fill="#0045E6"/>
</g>
<defs>
<filter id="filter0_d_431_23213" x="22.5391" y="0.875" width="18.832" height="18.832" filterUnits="userSpaceOnUse" color-interpolation-filters="sRGB">
<feFlood flood-opacity="0" result="BackgroundImageFix"/>
<feColorMatrix in="SourceAlpha" type="matrix" values="0 0 0 0 0 0 0 0 0 0 0 0 0 0 0 0 0 0 127 0" result="hardAlpha"/>
<feOffset dy="2"/>
<feGaussianBlur stdDeviation="2"/>
<feColorMatrix type="matrix" values="0 0 0 0 0 0 0 0 0 0 0 0 0 0 0 0 0 0 0.45 0"/>
<feBlend mode="normal" in2="BackgroundImageFix" result="effect1_dropShadow_431_23213"/>
<feBlend mode="normal" in="SourceGraphic" in2="effect1_dropShadow_431_23213" result="shape"/>
</filter>
<linearGradient id="paint0_linear_431_23213" x1="23.5016" y1="49.5486" x2="30.0671" y2="49.5486" gradientUnits="userSpaceOnUse">
<stop stop-color="#00267B"/>
<stop offset="1" stop-color="#00267B" stop-opacity="0"/>
</linearGradient>
<linearGradient id="paint1_linear_431_23213" x1="41.103" y1="48.5555" x2="33.8202" y2="48.5555" gradientUnits="userSpaceOnUse">
<stop stop-color="#00267B"/>
<stop offset="1" stop-color="#00267B" stop-opacity="0"/>
</linearGradient>
</defs>
</svg>
