<svg width="65" height="30" viewBox="0 0 65 30" fill="none" xmlns="http://www.w3.org/2000/svg">
<g id="svgexport-6" clip-path="url(#clip0_400_41740)">
<path id="Vector" fill-rule="evenodd" clip-rule="evenodd" d="M40.7307 23.8813C40.9462 24.0974 41.2384 24.2189 41.5432 24.2189C41.8479 24.2189 42.1402 24.0974 42.3557 23.8813L62.2158 3.95344V5.78084C62.2158 6.08647 62.3368 6.37958 62.5522 6.5957C62.7676 6.81181 63.0597 6.93323 63.3643 6.93323C63.6689 6.93323 63.9611 6.81181 64.1765 6.5957C64.3919 6.37958 64.5129 6.08647 64.5129 5.78084V1.17257C64.51 0.991477 64.4645 0.813619 64.3803 0.653444C64.3368 0.567383 64.2826 0.487182 64.2191 0.414749C64.1167 0.287575 63.9851 0.187297 63.8356 0.122575C63.8252 0.122575 63.8174 0.109531 63.807 0.105618C63.6798 0.0548528 63.5446 0.0274596 63.4079 0.0247486C63.3897 0.0273573 63.3793 0.0195312 63.365 0.0195312H58.7708C58.4661 0.0195313 58.174 0.140944 57.9586 0.357059C57.7432 0.573174 57.6222 0.866289 57.6222 1.17192C57.6222 1.47756 57.7432 1.77067 57.9586 1.98679C58.174 2.2029 58.4661 2.32431 58.7708 2.32431H60.5921L41.5432 21.4369L31.4448 11.3047C31.2293 11.089 30.9373 10.9678 30.6329 10.9678C30.3285 10.9678 30.0365 11.089 29.8211 11.3047L18.0002 23.1652L12.496 17.6426C12.2804 17.4264 11.9882 17.305 11.6835 17.305C11.3787 17.305 11.0865 17.4264 10.871 17.6426L0.535958 28.0121C0.320469 28.2282 0.199341 28.5213 0.199219 28.8269C0.199097 29.1325 0.319992 29.4257 0.535308 29.6419C0.750624 29.8581 1.04272 29.9797 1.34735 29.9798C1.65197 29.9799 1.94417 29.8586 2.15966 29.6426L11.6835 20.0856L17.1877 25.6095C17.4032 25.8257 17.6954 25.9471 18.0002 25.9471C18.3049 25.9471 18.5971 25.8257 18.8127 25.6095L30.6336 13.7478L40.7307 23.8813Z" fill="url(#paint0_linear_400_41740)"/>
</g>
<defs>
<linearGradient id="paint0_linear_400_41740" x1="-22.1078" y1="0.0195242" x2="70.7126" y2="33.6449" gradientUnits="userSpaceOnUse">
<stop stop-color="#CB2C30"/>
<stop offset="1" stop-color="#E9732A"/>
</linearGradient>
<clipPath id="clip0_400_41740">
<rect width="65" height="30" fill="white"/>
</clipPath>
</defs>
</svg>
