<svg width="93" height="16" viewBox="0 0 93 16" fill="none" xmlns="http://www.w3.org/2000/svg">
<path id="Vector" d="M11.5214 2.0095C10.8934 1.3641 10.2094 0.877099 9.46936 0.555599C8.73164 0.229299 7.93556 0.0685003 7.09512 0.0662003C5.26249 0.0662003 3.70767 0.775401 2.42367 2.1892C1.142 3.6054 0.502331 5.421 0.5 7.6363C0.5 9.7735 1.16068 11.5632 2.48437 12.9982C3.80806 14.438 5.37688 15.1591 7.19084 15.1591C8.00093 15.1603 8.75266 15.0126 9.44368 14.7193C10.137 14.4238 10.8281 13.9439 11.5168 13.2725V14.7926H15.0606V0.442101H11.5214V2.0095ZM10.5829 10.6766C9.85456 11.4662 8.93708 11.8563 7.8305 11.8587C6.75894 11.8575 5.85547 11.4568 5.12475 10.653C4.3917 9.8515 4.02518 8.8278 4.02518 7.5866C4.02518 6.3502 4.38703 5.3407 5.10608 4.551C5.82745 3.7614 6.73093 3.3713 7.82117 3.3713C8.93708 3.3713 9.85923 3.759 10.5876 4.5321C11.316 5.3099 11.5518 6.1941 11.5495 7.4448C11.5495 8.7238 11.3137 9.8893 10.5829 10.6766ZM35.3829 2.0095C34.7549 1.3641 34.0686 0.877099 33.3332 0.555599C32.5908 0.229299 31.7994 0.0685003 30.9543 0.0662003C29.1263 0.0662003 27.5668 0.775401 26.2852 2.1892C25.0035 3.6054 24.3638 5.421 24.3615 7.6363C24.3592 9.7735 25.0198 11.5632 26.3459 12.9982C27.6696 14.438 29.2384 15.1591 31.0547 15.1591C31.8624 15.1603 32.6142 15.0126 33.3028 14.7193C33.9962 14.4238 34.6872 13.9439 35.3759 13.2725V14.7926H38.9198V0.442101H35.3829V2.0095ZM34.4444 10.6766C33.7161 11.4662 32.7963 11.8563 31.6943 11.8587C30.6204 11.8575 29.717 11.4568 28.9839 10.653C28.2509 9.8515 27.8843 8.8278 27.8867 7.5866C27.889 6.3502 28.2462 5.3407 28.9676 4.551C29.689 3.7614 30.5924 3.3713 31.6827 3.3713C32.7963 3.3713 33.7184 3.759 34.4491 4.5321C35.1775 5.3099 35.411 6.1941 35.4086 7.4448C35.4086 8.7238 35.1752 9.8893 34.4444 10.6766ZM60.2436 0.792C59.4826 0.3168 58.6024 0.0803986 57.5986 0.0803986C56.6274 0.0791986 55.7379 0.300201 54.9185 0.744701C54.1014 1.1868 53.4127 1.8322 52.8478 2.6857C52.4182 1.8322 51.8486 1.1844 51.1412 0.742298C50.4292 0.297898 49.6354 0.0755994 48.7529 0.0732994C47.8798 0.0732994 47.0744 0.241101 46.3343 0.579201C45.5943 0.914901 44.9219 1.4232 44.3173 2.1065V0.442101H40.7711L40.7663 14.7926H44.3102L44.3125 8.4259C44.3148 7.05 44.4339 6.0405 44.672 5.3998C44.9125 4.7591 45.272 4.2626 45.7529 3.9056C46.2362 3.5533 46.7708 3.3737 47.3614 3.3737C47.8891 3.3748 48.342 3.5155 48.7155 3.7968C49.089 4.0782 49.3668 4.5061 49.5536 5.0806C49.7404 5.6551 49.8337 6.5818 49.8337 7.8656L49.8268 14.7926H53.3753V8.3384C53.3801 6.9696 53.4967 5.9766 53.7302 5.3596C53.966 4.7401 54.3255 4.2578 54.8064 3.9056C55.285 3.5557 55.8336 3.3807 56.4429 3.3807C57.2413 3.3807 57.8366 3.6692 58.2382 4.2413C58.6397 4.8182 58.8382 5.9175 58.8382 7.537L58.8334 14.7926H62.3773L62.3819 6.388C62.3819 4.6645 62.2161 3.4186 61.8846 2.655C61.5531 1.8889 61.007 1.2672 60.2436 0.792ZM74.7527 10.5631C73.8049 11.5183 72.6703 11.9958 71.3513 11.9958C70.2447 11.9946 69.3412 11.6861 68.6268 11.0761C67.9148 10.4662 67.4782 9.6434 67.3125 8.6079L78.6818 8.615L78.6958 7.9317C78.6958 5.5676 78.0024 3.6668 76.611 2.2223C75.222 0.782501 73.415 0.0613981 71.1925 0.0589981C69.1008 0.0589981 67.3592 0.780101 65.9748 2.2293C64.5857 3.6738 63.8924 5.4919 63.8924 7.6811C63.8901 9.8207 64.5857 11.5962 65.9725 13.0171C67.3592 14.4403 69.1615 15.1496 71.37 15.1496C72.794 15.1507 74.022 14.8942 75.0609 14.3788C76.0951 13.8658 76.9846 13.0691 77.727 11.9957L74.7527 10.5631ZM68.7762 3.9671C69.521 3.4115 70.3871 3.1349 71.3723 3.1372C72.2851 3.1372 73.0835 3.3831 73.7675 3.8772C74.4586 4.3737 74.9185 5.0144 75.1519 5.804L67.4782 5.7993C67.8751 4.9246 68.3093 4.3123 68.7762 3.9671ZM87.0932 7.1989L91.8837 0.439701H87.8426L85.0691 4.3525L82.2863 0.439701H78.1822L83.0217 7.2391L77.6709 14.7926H81.712L85.0434 10.088L88.3935 14.7926H92.5L87.0932 7.1989ZM23.5909 0C22.9349 0 22.3629 0.125201 21.8844 0.368801C21.4128 0.607601 20.8712 1.045 20.2618 1.6857V0.442101H16.8791V14.7926H20.4229L20.4206 7.3289C20.4206 4.5936 21.1677 3.2224 22.9746 3.2224C23.2874 3.2224 23.6073 3.291 23.9294 3.4139C24.5107 2.428 25.1831 1.5013 25.9348 0.6478C25.1247 0.227 24.3426 0 23.5909 0Z" fill="black"/>
</svg>
