<svg width="103" height="40" viewBox="0 0 103 40" fill="none" xmlns="http://www.w3.org/2000/svg">
<g id="logo" opacity="0.65">
<g id="Mask group">
<mask id="mask0_450_43478" style="mask-type:alpha" maskUnits="userSpaceOnUse" x="0" y="0" width="103" height="40">
<g id="Group">
<path id="Clip 4" fill-rule="evenodd" clip-rule="evenodd" d="M0 0.4375H103V39.4778H0V0.4375Z" fill="white"/>
</g>
</mask>
<g mask="url(#mask0_450_43478)">
<g id="Group_2">
<path id="Fill 3" fill-rule="evenodd" clip-rule="evenodd" d="M65.6921 14.6437C65.5977 14.6518 65.4819 14.6752 65.4345 14.6959C65.3874 14.7166 65.2616 14.7577 65.1555 14.787C65.0493 14.8164 64.911 14.8774 64.8484 14.9227C64.7855 14.968 64.7242 15.0052 64.7121 15.0052C64.6814 15.0052 64.4256 15.2677 64.4256 15.2992C64.4256 15.3131 64.3772 15.3887 64.3182 15.4673C64.2591 15.5462 64.2107 15.6372 64.2107 15.6693C64.2107 15.7016 64.1844 15.7668 64.1523 15.8143C64.0807 15.9193 63.9531 16.4249 63.9531 16.6038C63.9531 16.6756 63.9353 16.7529 63.9132 16.7757C63.8815 16.8086 63.7824 17.6384 63.7816 17.876C63.7816 17.9192 64.4282 17.9304 66.873 17.9304H69.9646L69.9643 17.4393C69.964 16.8786 69.8724 16.1781 69.7739 15.9866C69.7373 15.9151 69.7072 15.8381 69.7072 15.8153C69.7043 15.3885 68.671 14.7433 67.9908 14.7433C67.8994 14.7433 67.8183 14.7265 67.8106 14.706C67.7961 14.6688 66.0162 14.6165 65.6921 14.6437ZM20.6079 14.6123C20.6225 14.6362 20.7022 14.6558 20.7846 14.6558C20.9982 14.6558 21.5312 14.7499 21.5312 14.7876C21.5312 14.8049 21.6167 14.8437 21.7217 14.8735C21.8265 14.9035 21.9223 14.955 21.9349 14.9883C21.9475 15.0215 21.9847 15.0488 22.0177 15.0488C22.1704 15.0488 22.5213 15.5515 22.7497 16.098C22.8405 16.3146 22.9051 16.9004 22.9051 17.5038V18.018H19.835H16.7652V17.514C16.7652 16.8918 16.8352 16.2248 16.9174 16.0645C16.9515 15.9981 16.9793 15.9203 16.9795 15.8916C16.9803 15.7173 17.377 15.1468 17.5664 15.0475C17.6333 15.0124 17.7029 14.9605 17.7206 14.9322C17.7385 14.9042 17.8158 14.8673 17.8925 14.8502C17.969 14.8334 18.0428 14.8023 18.0562 14.781C18.0693 14.7595 18.2431 14.7194 18.4425 14.6915C18.6417 14.6635 18.8231 14.6244 18.8455 14.6045C18.9053 14.5518 20.5757 14.5591 20.6079 14.6123ZM38.2462 10.8475C37.8579 10.8545 37.5913 10.8768 37.5913 10.902C37.5913 10.9255 37.5091 10.9447 37.409 10.9444C37.1289 10.9444 36.3032 11.0424 36.3032 11.0756C36.3032 11.0919 36.163 11.1304 35.9919 11.1611C35.8207 11.1917 35.6609 11.2326 35.637 11.252C35.6133 11.2716 35.4974 11.3109 35.3793 11.3397C35.2617 11.3685 35.1266 11.4152 35.0795 11.4435C35.0324 11.4717 34.9115 11.5215 34.811 11.5543C34.7109 11.5868 34.6286 11.63 34.6286 11.6502C34.6286 11.6703 34.608 11.6868 34.5828 11.6868C34.5575 11.6868 34.4525 11.7458 34.3496 11.8178C34.2466 11.8899 34.1484 11.9488 34.1316 11.9488C34.0958 11.9488 34.006 12.0311 33.6922 12.3502C33.3572 12.6907 33.2975 12.7607 33.2975 12.8133C33.2975 12.8393 33.2619 12.8864 33.2184 12.9178C33.1746 12.9493 33.1151 13.0486 33.0862 13.1387C33.0571 13.2285 33.0185 13.3024 33.0004 13.3024C32.9827 13.3024 32.9422 13.381 32.9111 13.4769C32.8799 13.5731 32.8397 13.6517 32.8219 13.6517C32.8038 13.6517 32.7544 13.7891 32.7119 13.9574C32.6694 14.1253 32.6215 14.2628 32.6056 14.2628C32.5896 14.2628 32.5529 14.435 32.5241 14.645C32.4952 14.8552 32.4496 15.0545 32.4231 15.0882C32.3562 15.1727 32.3546 18.0656 32.4213 18.1532C32.4471 18.1866 32.4926 18.3616 32.5228 18.5419C32.5529 18.7219 32.5934 18.8895 32.6128 18.9139C32.6321 18.9385 32.6805 19.0564 32.7201 19.1759C32.7598 19.2956 32.8056 19.403 32.8219 19.4151C32.8385 19.4271 32.8766 19.4994 32.9067 19.5757C32.9371 19.6518 32.9989 19.7482 33.0439 19.7896C33.089 19.8313 33.126 19.884 33.126 19.9073C33.126 19.9558 33.7087 20.5496 33.7584 20.5514C33.7764 20.5523 33.8673 20.6112 33.9601 20.6825C34.0528 20.7538 34.1543 20.8121 34.1856 20.8121C34.2167 20.8121 34.2422 20.8286 34.2422 20.8488C34.2422 20.8689 34.3195 20.9114 34.414 20.9431C34.5083 20.9749 34.5856 21.0137 34.5856 21.0295C34.5856 21.0453 34.697 21.0936 34.8327 21.1368C34.9685 21.1797 35.0988 21.2302 35.1225 21.2491C35.1459 21.2677 35.2812 21.307 35.4229 21.3367C35.5646 21.3659 35.6903 21.4032 35.7021 21.4194C35.7274 21.454 36.5735 21.6004 36.7396 21.5991C36.8027 21.5986 36.8607 21.6167 36.8685 21.6392C36.8764 21.6617 37.2113 21.7029 37.6128 21.7303C38.0143 21.7582 38.3773 21.799 38.4196 21.8215C38.4621 21.8446 39.4544 21.8794 40.6329 21.8994C41.9792 21.9221 42.8002 21.9522 42.853 21.9816C42.8991 22.0067 43.0767 22.0502 43.2473 22.0786C43.4211 22.107 43.6035 22.1663 43.662 22.2132C43.7195 22.259 43.7826 22.297 43.8027 22.2973C43.8457 22.2981 44.0147 22.549 44.1517 22.8165C44.3738 23.2492 44.3769 24.6259 44.1566 24.9887C43.9052 25.4024 43.4061 25.6587 42.8515 25.6587C42.7714 25.6587 42.6941 25.6783 42.6795 25.7024C42.6454 25.7582 39.7239 25.7616 39.6196 25.7063C39.5787 25.6843 39.4114 25.644 39.2481 25.6165C38.5659 25.5017 38.0563 24.9794 37.9901 24.327C37.9767 24.1951 37.9492 24.0868 37.9288 24.0868C37.9085 24.0868 37.892 24.0082 37.892 23.9124V23.7376H35.1158H32.3397L32.3654 24.4397C32.3796 24.8258 32.4084 25.1648 32.4296 25.1929C32.4507 25.2209 32.4926 25.3914 32.5228 25.5714C32.5529 25.7516 32.5934 25.9188 32.6125 25.9432C32.6316 25.9675 32.6712 26.0843 32.7006 26.2028C32.8961 26.9926 33.7517 28.0714 34.4852 28.4531C34.6466 28.5373 34.7853 28.6208 34.7933 28.6386C34.801 28.6567 34.826 28.6713 34.8486 28.6713C34.8713 28.6713 35.0102 28.7287 35.1572 28.7987C35.3042 28.8683 35.4966 28.9394 35.5847 28.9562C35.6728 28.9731 35.7449 29.002 35.7449 29.0206C35.7449 29.0392 35.8755 29.079 36.0348 29.1088C36.1942 29.1387 36.3452 29.1796 36.3702 29.1995C36.3949 29.2194 36.6559 29.2676 36.9498 29.3066C37.2435 29.3456 37.5176 29.3955 37.5586 29.4175C37.6527 29.468 42.5588 29.4708 42.5892 29.4206C42.6016 29.4004 42.878 29.3713 43.2037 29.3562C43.925 29.3226 44.6672 29.2479 44.7835 29.1969C44.8306 29.1762 45.0237 29.1348 45.2126 29.1054C45.4018 29.0759 45.5756 29.0363 45.5991 29.0185C45.6228 29.0001 45.7629 28.9614 45.9106 28.9317C46.0581 28.9024 46.1788 28.8652 46.1788 28.8487C46.1788 28.8324 46.3139 28.7835 46.4794 28.74C46.6448 28.6965 46.78 28.6467 46.78 28.6294C46.78 28.6121 46.8619 28.572 46.9625 28.5401C47.0629 28.5081 47.1641 28.4605 47.1879 28.4343C47.2116 28.408 47.2791 28.3625 47.338 28.3328C47.4994 28.2521 47.6873 28.1372 47.8386 28.0274C47.913 27.9735 47.9842 27.9291 47.9968 27.9291C48.0391 27.9291 48.8184 27.1063 48.9556 26.9167C49.1677 26.6235 49.5144 25.8945 49.5931 25.5757C49.6322 25.4174 49.6811 25.2542 49.7023 25.2136C49.7231 25.1728 49.762 24.9569 49.7883 24.7334C49.8145 24.5099 49.8538 24.293 49.8752 24.2513C49.9249 24.1552 49.9272 22.1975 49.8778 22.1417C49.8574 22.1189 49.8181 21.9051 49.7903 21.6664C49.7628 21.4277 49.7247 21.2119 49.7059 21.1862C49.6871 21.1606 49.6356 20.9874 49.5913 20.8014C49.5469 20.6152 49.4985 20.4629 49.4833 20.4629C49.4681 20.4629 49.4302 20.3843 49.3991 20.2882C49.3679 20.1924 49.3262 20.1138 49.3064 20.1138C49.2864 20.1138 49.2702 20.0936 49.2702 20.0689C49.2702 19.7288 48.1436 18.7645 47.5318 18.5809C47.4253 18.5489 47.338 18.5094 47.338 18.493C47.338 18.4767 47.1884 18.4297 47.0055 18.3886C46.8223 18.3475 46.6533 18.2983 46.6295 18.2789C46.6061 18.2598 46.4225 18.2212 46.2218 18.1935C46.021 18.1657 45.818 18.1258 45.7709 18.1052C45.6743 18.0625 44.8443 17.974 44.5452 17.9742C44.4377 17.9742 44.3313 17.9562 44.3089 17.9342C44.2706 17.8964 42.9007 17.8346 40.7953 17.7759C40.2789 17.7615 39.8247 17.7335 39.7863 17.7136C39.7482 17.6937 39.5434 17.6546 39.3316 17.6265C39.1198 17.5988 38.9265 17.5608 38.9021 17.5425C38.8779 17.5241 38.7682 17.4752 38.6583 17.434C38.3526 17.3193 38.0357 16.9567 38.0007 16.6816C37.9858 16.564 37.9551 16.4338 37.9327 16.3922C37.8783 16.2909 37.8802 15.5415 37.9348 15.5072C37.9585 15.4926 37.9778 15.4122 37.9778 15.3285C37.9778 14.7548 38.5216 14.4376 39.5053 14.4376C39.6332 14.4376 39.7382 14.4179 39.7382 14.3939C39.7382 14.3657 40.1668 14.3503 40.9379 14.3503C41.6914 14.3503 42.1475 14.3665 42.1642 14.3939C42.1789 14.4179 42.2621 14.4378 42.3491 14.4384C42.5926 14.4394 42.9757 14.5439 43.1204 14.6487C43.1922 14.7008 43.2624 14.7433 43.2764 14.7433C43.3461 14.7433 43.7288 15.234 43.7306 15.3259C43.7311 15.3463 43.7586 15.4249 43.7919 15.5006C43.8251 15.5764 43.864 15.6925 43.8784 15.7584L43.9047 15.8784H46.5875H49.2702L49.2699 15.5399C49.2694 15.0843 49.1932 14.2351 49.1445 14.1418C49.1229 14.1004 49.0724 13.9388 49.0325 13.7826C48.9925 13.6264 48.9474 13.4889 48.9325 13.4769C48.9175 13.4651 48.8377 13.321 48.7549 13.1568C48.5991 12.8471 47.9081 12.0798 47.7853 12.0798C47.7518 12.0798 47.7245 12.0604 47.7245 12.0368C47.7245 12.013 47.6618 11.963 47.5851 11.9252C47.5084 11.8875 47.3197 11.7895 47.1664 11.7073C47.0129 11.625 46.8246 11.5454 46.7478 11.5302C46.6711 11.515 46.6081 11.489 46.6081 11.4723C46.6081 11.4558 46.4585 11.4055 46.2753 11.3604C46.0924 11.3156 45.9235 11.2648 45.8998 11.2478C45.8761 11.2307 45.6828 11.1938 45.4703 11.1652C45.2577 11.137 45.0451 11.0963 44.998 11.0749C44.8785 11.0204 43.8132 10.9447 43.1686 10.9447C42.8736 10.9447 42.6137 10.9274 42.5913 10.9062C42.5501 10.8671 39.45 10.8252 38.2462 10.8475ZM19.1097 10.6762C19.0974 10.6966 18.6856 10.7249 18.1948 10.7388C17.2587 10.7658 16.4173 10.8368 16.2719 10.9015C16.2248 10.9224 16.0411 10.9625 15.8642 10.9908C15.6869 11.0188 15.5227 11.0568 15.4991 11.0749C15.4754 11.093 15.3788 11.1218 15.2846 11.1391C15.1899 11.1561 15.0547 11.1962 14.9838 11.2282C14.913 11.2601 14.7577 11.3178 14.6386 11.356C14.1991 11.4977 13.4866 11.9085 13.1746 12.1998C13.1165 12.2541 13.055 12.2981 13.0372 12.2981C12.9873 12.2981 12.6008 12.7104 12.6008 12.7641C12.6008 12.7903 12.5526 12.8443 12.4934 12.8836C12.4344 12.9229 12.3862 12.9847 12.3862 13.0208C12.3862 13.0573 12.3571 13.0981 12.3218 13.112C12.2863 13.1256 12.2574 13.1565 12.2574 13.1801C12.2574 13.204 12.2139 13.2854 12.1608 13.3611C12.0142 13.5697 11.7203 14.1829 11.6576 14.4106C11.627 14.5214 11.5878 14.6123 11.5703 14.6123C11.5528 14.6123 11.5149 14.7349 11.4858 14.8851C11.4567 15.0352 11.4173 15.168 11.3977 15.1803C11.3784 15.1926 11.3279 15.4481 11.2856 15.748C11.2431 16.048 11.1944 16.3036 11.1772 16.3162C11.1597 16.3288 11.1231 16.6431 11.0958 17.0149C11.0682 17.3864 11.0236 17.7377 10.9968 17.7953C10.9232 17.9525 10.9275 22.2719 11.0015 22.3471C11.0308 22.3769 11.0551 22.4899 11.0551 22.5978C11.0551 22.9344 11.1517 23.7814 11.1901 23.7814C11.2104 23.7814 11.2269 23.8354 11.2266 23.9013C11.2266 24.0622 11.3583 24.796 11.3972 24.8511C11.4142 24.8751 11.4536 24.993 11.4845 25.113C11.5154 25.233 11.5551 25.3509 11.5729 25.375C11.5904 25.3991 11.628 25.5071 11.6564 25.6152C11.6847 25.7231 11.7205 25.8213 11.736 25.8334C11.7514 25.8454 11.7901 25.9338 11.8218 26.03C11.8534 26.126 11.9258 26.2777 11.9825 26.3674C12.0392 26.4569 12.0856 26.5502 12.0856 26.5748C12.0856 26.5992 12.1049 26.6193 12.1286 26.6193C12.152 26.6193 12.1716 26.6439 12.1719 26.6739C12.1724 26.7315 12.3896 27.0317 12.5905 27.2526C12.6562 27.3245 12.7438 27.4375 12.7853 27.5035C12.8265 27.5696 12.8841 27.6234 12.9134 27.6234C12.9425 27.6234 13.0251 27.6875 13.097 27.7654C13.2475 27.9293 13.6014 28.1912 13.6717 28.1912C13.6984 28.1912 13.73 28.2176 13.7424 28.2502C13.7545 28.2828 13.8408 28.3353 13.934 28.3668C14.0273 28.3979 14.1035 28.4369 14.1035 28.4532C14.1035 28.4692 14.1808 28.5088 14.2754 28.5404C14.3699 28.5721 14.4472 28.6109 14.4472 28.6269C14.4472 28.6425 14.5583 28.6908 14.694 28.734C14.8298 28.777 14.9601 28.8276 14.9838 28.8464C15.0075 28.8649 15.1377 28.9034 15.2728 28.9316C15.4084 28.9595 15.5289 28.9994 15.541 29.019C15.5533 29.0389 15.7322 29.0803 15.9389 29.1113C16.1458 29.1419 16.3245 29.1804 16.3363 29.1966C16.3661 29.2372 17.1485 29.3218 17.8087 29.3557C18.1106 29.3712 18.3677 29.4002 18.3801 29.4206C18.4092 29.4686 21.0475 29.4689 21.0766 29.4206C21.089 29.4004 21.3847 29.3717 21.7342 29.3567C22.4785 29.325 23.2347 29.2504 23.3567 29.1969C23.4038 29.1759 23.597 29.1356 23.7862 29.1074C23.9749 29.0787 24.1489 29.0407 24.1726 29.0229C24.196 29.0048 24.3362 28.9647 24.4837 28.9342C24.6314 28.9032 24.7522 28.8647 24.7522 28.8485C24.7522 28.8325 24.8875 28.7835 25.0526 28.74C25.218 28.6965 25.3532 28.6467 25.3532 28.6295C25.3532 28.6122 25.4306 28.5721 25.5251 28.5404C25.6193 28.5088 25.6967 28.4692 25.6967 28.4529C25.6967 28.4361 25.7693 28.3901 25.8576 28.35C26.205 28.1933 26.4226 28.0263 26.8588 27.5828C27.2798 27.1548 27.416 26.9736 27.6165 26.5756C27.6587 26.4918 27.7058 26.4129 27.721 26.4011C27.7362 26.3891 27.7709 26.2963 27.7974 26.1955C27.8242 26.0944 27.8628 26.0011 27.8834 25.9883C27.904 25.9752 27.9434 25.8614 27.9712 25.7355C27.9987 25.609 28.0393 25.4667 28.0609 25.4187C28.1196 25.2883 28.2301 24.5865 28.2301 24.343C28.2301 24.2263 28.2494 24.1306 28.2729 24.1306C28.2987 24.1306 28.316 23.9632 28.316 23.7159V23.3009H25.5034H22.6912V23.5558C22.6912 23.8406 22.6106 24.3053 22.5611 24.3053C22.5434 24.3053 22.5161 24.375 22.5004 24.4604C22.4846 24.5455 22.4438 24.6261 22.4096 24.6396C22.3756 24.653 22.3475 24.6874 22.3475 24.7161C22.3475 24.7821 22.0811 25.0476 22.015 25.0476C21.9877 25.0476 21.9501 25.0732 21.9313 25.1046C21.9121 25.1361 21.8292 25.1875 21.7465 25.2188C21.6639 25.2503 21.5383 25.3011 21.4675 25.332C21.3967 25.3626 21.213 25.4017 21.0594 25.419C20.9059 25.4363 20.7559 25.4704 20.7258 25.495C20.6491 25.5583 18.5556 25.5625 18.4776 25.4994C18.4452 25.4735 18.3126 25.4384 18.1827 25.4216C17.7598 25.3672 16.8516 24.7895 16.8516 24.5749C16.8516 24.5532 16.8166 24.4885 16.7738 24.4311C16.6901 24.3189 16.5509 23.9106 16.5509 23.7764C16.5509 23.7311 16.5352 23.6939 16.5159 23.6939C16.4703 23.6939 16.3794 22.9991 16.3794 22.6521C16.3794 22.4982 16.3606 22.384 16.3353 22.384C16.3067 22.384 16.2956 22.109 16.3031 21.5874L16.3149 20.7905L22.2082 20.7794L28.1014 20.7682V19.5485C28.1014 18.7824 28.0854 18.3187 28.0584 18.3017C28.0347 18.2868 28.0152 18.1395 28.0152 17.974C28.0152 17.546 27.9333 16.5714 27.8885 16.4679C27.8677 16.4199 27.8278 16.1939 27.7997 15.9657C27.7716 15.7375 27.7337 15.5314 27.7159 15.5073C27.6979 15.4833 27.659 15.3263 27.6294 15.158C27.6 14.9899 27.5506 14.7934 27.5199 14.7213C27.4892 14.6493 27.4505 14.5413 27.4341 14.4813C27.3486 14.1707 26.9702 13.3983 26.7813 13.1495C26.763 13.1256 26.7112 13.047 26.6663 12.975C26.5484 12.7859 25.9064 12.1236 25.8409 12.1236C25.8105 12.1236 25.7649 12.0843 25.7397 12.0361C25.7145 11.9881 25.6738 11.9488 25.6493 11.9488C25.6247 11.9488 25.5207 11.8899 25.4177 11.8179C25.3146 11.7458 25.2098 11.6869 25.1845 11.6869C25.1593 11.6869 25.1387 11.6704 25.1387 11.6502C25.1387 11.63 25.0564 11.586 24.956 11.5525C24.8558 11.5189 24.7071 11.4569 24.6258 11.4149C24.5443 11.3728 24.414 11.3261 24.3359 11.3112C24.2578 11.2963 24.1939 11.269 24.1939 11.2504C24.1939 11.2318 24.0685 11.1923 23.9149 11.1629C23.7613 11.1336 23.6357 11.0956 23.6357 11.0791C23.6357 11.0623 23.4581 11.023 23.2412 10.9919C23.0244 10.9607 22.8164 10.9185 22.7796 10.8983C22.6641 10.8352 21.807 10.7668 20.7896 10.7393C20.2515 10.7246 19.8012 10.6961 19.7887 10.6759C19.7594 10.6277 19.1391 10.6277 19.1097 10.6762ZM93.4425 12.7237L93.4314 14.8959L91.3812 14.9072L89.331 14.9187L89.3202 22.1115L89.3094 29.3045H86.4325H83.5558L83.545 22.1115L83.5339 14.9187L81.4841 14.9072L79.4339 14.8959L79.4225 12.7674L79.4115 10.6389H79.3045C79.2458 10.6389 79.1976 10.6192 79.1976 10.5951C79.1976 10.5663 81.6023 10.5516 86.3256 10.5516H93.4536L93.4425 12.7237ZM68.9268 10.6456C68.9346 10.666 69.0504 10.6825 69.1845 10.6825C69.5247 10.6825 70.3551 10.7682 70.4581 10.814C70.5056 10.835 70.6889 10.8753 70.8662 10.9033C71.0432 10.9316 71.2075 10.9694 71.2309 10.9872C71.2546 11.005 71.3995 11.0435 71.5531 11.0731C71.8225 11.125 71.9366 11.1648 72.3045 11.3353C72.3991 11.3791 72.5438 11.4406 72.6266 11.4721C72.7092 11.5035 72.788 11.546 72.8019 11.5664C72.8158 11.5868 72.8868 11.6371 72.9594 11.678C73.032 11.7189 73.1753 11.7993 73.2775 11.8567C73.5069 11.9848 74.3305 12.8236 74.4613 13.0623C74.5142 13.1584 74.5871 13.3007 74.6231 13.3787C74.6592 13.4568 74.7035 13.5206 74.7224 13.5206C74.7409 13.5206 74.7821 13.5943 74.8138 13.6845C74.8455 13.7745 74.8841 13.8581 74.8995 13.8699C74.9346 13.8969 75.074 14.3375 75.074 14.4208C75.074 14.4541 75.09 14.4814 75.11 14.4814C75.1299 14.4814 75.1698 14.5891 75.1989 14.7205C75.2277 14.8523 75.2673 14.97 75.2863 14.9818C75.3054 14.9938 75.344 15.1662 75.3723 15.3648C75.4006 15.5634 75.4416 15.7651 75.4632 15.813C75.5146 15.927 75.6323 16.9185 75.6323 17.2378C75.6323 17.3764 75.6526 17.4935 75.6784 17.5025C75.7095 17.5129 75.7324 18.057 75.7494 19.187L75.7744 20.8559H69.8851H63.9961V21.524C63.9961 22.2572 64.0697 23.3526 64.1214 23.388C64.1394 23.4002 64.1783 23.5377 64.2079 23.6939C64.2375 23.8501 64.2769 23.9975 64.2952 24.0213C64.3135 24.0455 64.3531 24.1433 64.3834 24.2385C64.4477 24.4413 65.1015 25.1348 65.2286 25.1348C65.2724 25.1348 65.3478 25.1634 65.3968 25.1979C65.4456 25.2327 65.6189 25.2857 65.782 25.3155C65.945 25.3454 66.0914 25.3889 66.1068 25.4122C66.1454 25.4701 68.0573 25.4659 68.1287 25.4078C68.1583 25.3837 68.2984 25.3501 68.4402 25.3331C68.6661 25.3061 68.9438 25.2092 69.1485 25.0858C69.1839 25.0644 69.2612 25.0232 69.3204 24.9943C69.5235 24.8948 69.8728 24.4642 69.9415 24.2289C69.9573 24.1749 69.9857 24.1306 70.0045 24.1306C70.0233 24.1306 70.0632 24.0078 70.0936 23.8576C70.1237 23.7076 70.1649 23.5661 70.1852 23.5433C70.2054 23.5204 70.2222 23.4369 70.2222 23.3578V23.2137H72.9983H75.7744L75.7456 23.9232C75.7293 24.3243 75.6984 24.6391 75.6745 24.6473C75.6513 24.6553 75.6323 24.7187 75.6323 24.7885C75.6323 24.9491 75.4995 25.6299 75.4624 25.6587C75.4472 25.6708 75.412 25.7593 75.3847 25.8552C75.3406 26.0085 75.2791 26.1404 75.0014 26.6739C74.967 26.7398 74.9209 26.7941 74.899 26.7941C74.8771 26.7941 74.8594 26.8197 74.8594 26.8512C74.8594 26.9374 74.3019 27.5355 74.0154 27.7568C73.8773 27.8635 73.7547 27.9606 73.7429 27.9727C73.6589 28.0586 72.6364 28.569 72.4225 28.6319C72.3222 28.6611 72.2401 28.6978 72.2401 28.7138C72.2401 28.7293 72.0612 28.7783 71.8429 28.8225C71.6244 28.8666 71.4265 28.9171 71.4028 28.9347C71.3791 28.9522 71.1859 28.9905 70.9733 29.0198C70.7609 29.0489 70.5483 29.0895 70.5012 29.11C70.3973 29.155 69.3876 29.2391 68.9518 29.2391C68.7794 29.2391 68.6264 29.2587 68.6119 29.2828C68.5949 29.3106 68.039 29.3264 67.0851 29.3264C66.1135 29.3264 65.5849 29.3112 65.5849 29.2828C65.5849 29.2582 65.4638 29.2391 65.3079 29.2391C64.8977 29.2391 63.9446 29.1545 63.846 29.1092C63.7985 29.0877 63.586 29.0466 63.3735 29.0182C63.1609 28.99 62.9676 28.9517 62.9442 28.9331C62.9205 28.9145 62.7486 28.8651 62.5625 28.8234C62.3762 28.7814 62.1734 28.7206 62.1116 28.6879C62.05 28.6552 61.9828 28.6282 61.9624 28.6282C61.942 28.628 61.7249 28.5297 61.4802 28.4095C61.2354 28.2895 61.0154 28.1912 60.9912 28.1912C60.9672 28.1912 60.9477 28.1711 60.9477 28.1465C60.9477 28.1217 60.8991 28.0831 60.8402 28.0602C60.7812 28.0374 60.7328 27.9986 60.7328 27.974C60.7328 27.9494 60.7114 27.9293 60.6854 27.9293C60.5905 27.9293 59.7023 27.1028 59.7023 27.0147C59.7023 26.9968 59.6652 26.9479 59.6196 26.906C59.5739 26.8638 59.5054 26.7626 59.4673 26.6809C59.4289 26.5989 59.3826 26.5321 59.3638 26.5321C59.345 26.5321 59.3042 26.4535 59.273 26.3574C59.2419 26.2612 59.204 26.1827 59.1888 26.1827C59.1739 26.1827 59.1355 26.1091 59.1038 26.0189C59.0722 25.9291 59.0334 25.8455 59.018 25.8334C58.9829 25.8065 58.8436 25.3659 58.8436 25.2828C58.8436 25.2495 58.8264 25.2222 58.8055 25.2222C58.7845 25.2222 58.7433 25.0895 58.714 24.9276C58.6846 24.7654 58.646 24.6132 58.6282 24.5891C58.6105 24.565 58.5731 24.3981 58.5456 24.2178C58.5177 24.0379 58.4782 23.8511 58.4576 23.8032C58.4036 23.6771 58.3292 22.8648 58.2985 22.0661C58.2841 21.687 58.2556 21.3663 58.2358 21.354C58.1884 21.3242 58.1884 18.4982 58.2356 18.4982C58.2556 18.4982 58.2841 18.1692 58.299 17.7668C58.3299 16.9397 58.4002 16.1611 58.4561 16.0312C58.4767 15.9833 58.5174 15.7783 58.5464 15.5761C58.5752 15.3739 58.6249 15.1577 58.6566 15.0959C58.6882 15.0341 58.7145 14.9343 58.7148 14.8743C58.715 14.8143 58.7439 14.7096 58.7786 14.6415C58.8138 14.5733 58.8637 14.4358 58.8897 14.3357C59.0566 13.6954 60.0608 12.1671 60.3144 12.1671C60.3337 12.1671 60.4062 12.1082 60.4752 12.0361C60.5444 11.9641 60.6145 11.9051 60.6307 11.9051C60.6469 11.9051 60.7202 11.8595 60.7933 11.804C60.9716 11.6678 61.7185 11.3008 61.8864 11.2667C61.9603 11.2518 62.0209 11.2258 62.0209 11.2093C62.0209 11.1761 62.3311 11.0917 62.6114 11.0487C62.7118 11.0333 62.7938 11.0058 62.7938 10.9872C62.7938 10.9688 62.963 10.9311 63.1696 10.9036C63.3763 10.8761 63.5791 10.8344 63.6203 10.8114C63.6617 10.7883 63.9902 10.748 64.3503 10.7215C64.7105 10.6953 65.0439 10.656 65.091 10.6346C65.2634 10.5557 68.8962 10.5662 68.9268 10.6456ZM53.7238 20.169L53.7346 36.4008L33.947 36.3892C19.5482 36.3811 14.1431 36.3648 14.099 36.3294C14.0661 36.303 13.8563 36.2564 13.6332 36.2262C13.4101 36.1962 13.1976 36.1551 13.1607 36.1349C13.1241 36.1147 12.9302 36.0659 12.7295 36.0271C12.5288 35.9881 12.3454 35.9399 12.3217 35.92C12.2977 35.9004 12.1576 35.86 12.0099 35.8308C11.8623 35.8011 11.7418 35.7628 11.7418 35.745C11.7418 35.7272 11.6258 35.6881 11.4841 35.6576C11.3424 35.6268 11.2265 35.5891 11.2265 35.5737C11.2265 35.5583 11.1345 35.5192 11.0225 35.4869C10.9104 35.4545 10.7798 35.4052 10.7326 35.377C10.6855 35.3486 10.5647 35.2989 10.4642 35.2661C10.364 35.2337 10.2818 35.1947 10.2818 35.1797C10.2818 35.1647 10.195 35.1265 10.0886 35.0943C9.98243 35.0628 9.89535 35.0191 9.89535 34.9979C9.89535 34.9764 9.87294 34.9589 9.84563 34.9589C9.79436 34.9589 9.16086 34.6508 9.12248 34.6072C9.11063 34.594 9.03335 34.5557 8.95065 34.5224C8.86794 34.4891 8.78499 34.4362 8.76619 34.4048C8.74712 34.3734 8.70847 34.3474 8.68013 34.3468C8.63274 34.3461 8.31173 34.1467 8.19039 34.0427C8.1618 34.0184 8.12598 33.9985 8.11079 33.9985C8.09532 33.9985 8.0098 33.9395 7.92015 33.8674C7.83074 33.7952 7.74264 33.7365 7.72434 33.7365C7.70632 33.7365 7.66072 33.7071 7.62336 33.6716C7.58574 33.6359 7.42808 33.4999 7.27247 33.3691C6.93137 33.0828 6.11677 32.2171 6.11677 32.1408C6.11677 32.111 6.08766 32.0751 6.05184 32.0612C6.01604 32.0472 5.96812 31.9862 5.94544 31.9254C5.92277 31.8649 5.888 31.8152 5.86841 31.8152C5.84858 31.8152 5.80581 31.7465 5.77336 31.6624C5.7409 31.5784 5.69813 31.5097 5.67829 31.5097C5.6587 31.5097 5.62393 31.4602 5.60151 31.4005C5.57911 31.3405 5.54484 31.2913 5.52551 31.2913C5.50594 31.2913 5.46394 31.2176 5.43174 31.1274C5.3998 31.0377 5.35059 30.9441 5.32251 30.9203C5.29443 30.8962 5.24522 30.8076 5.21354 30.7238C5.18159 30.6397 5.14475 30.5611 5.13161 30.549C5.08704 30.5081 4.75058 29.7861 4.67381 29.5666C4.63208 29.4466 4.57386 29.3088 4.54449 29.2609C4.51537 29.213 4.47827 29.1001 4.46204 29.01C4.44607 28.9198 4.41722 28.8462 4.39841 28.8462C4.37934 28.8462 4.35152 28.7708 4.33607 28.6786C4.32086 28.5863 4.28171 28.459 4.2495 28.3959C4.2173 28.3325 4.15753 28.1379 4.11682 27.9631C4.07612 27.7883 4.02846 27.6259 4.01145 27.6018C3.9942 27.5778 3.95529 27.4159 3.92515 27.2416C3.89501 27.0674 3.85792 26.9251 3.84245 26.9251C3.82726 26.9251 3.78964 26.7433 3.75899 26.5212C3.72833 26.2991 3.68736 26.0974 3.66804 26.0733C3.64872 26.0488 3.60055 25.7248 3.56086 25.3529C3.52145 24.9808 3.47276 24.6371 3.45318 24.5892C3.41351 24.4928 3.32592 23.4184 3.32592 23.0305C3.32592 22.8733 3.3066 22.7779 3.27259 22.7663C3.19427 22.7399 3.19402 17.698 3.27234 17.6186C3.30325 17.5868 3.32592 17.4533 3.32592 17.3013C3.32592 16.8976 3.413 15.8238 3.45344 15.7258C3.47353 15.6776 3.52326 15.3339 3.56448 14.9616C3.60544 14.5894 3.65207 14.275 3.66804 14.2629C3.68427 14.2512 3.72189 14.0692 3.75229 13.859C3.78243 13.6487 3.82158 13.4677 3.83936 13.4564C3.85714 13.4453 3.8963 13.2882 3.92669 13.1074C3.95735 12.9267 3.99497 12.7786 4.01068 12.7786C4.02666 12.7786 4.07483 12.6018 4.11785 12.3857C4.16114 12.1695 4.21034 11.9927 4.22761 11.9927C4.24486 11.9927 4.28351 11.8748 4.3134 11.7307C4.34354 11.5867 4.38011 11.4688 4.3948 11.4688C4.40948 11.4688 4.44607 11.3852 4.47621 11.283C4.53109 11.0973 4.56766 11.0059 4.73333 10.6391C4.78201 10.5309 4.84668 10.369 4.87682 10.2789C4.90722 10.1888 4.94432 10.1151 4.95926 10.1151C4.97446 10.1151 5.01233 10.0366 5.0435 9.94042C5.07468 9.84453 5.11152 9.76567 5.12542 9.76541C5.13934 9.76515 5.18881 9.67687 5.23544 9.56894C5.28206 9.461 5.33539 9.37298 5.35368 9.37298C5.37198 9.37298 5.38691 9.34704 5.38691 9.31508C5.38691 9.28338 5.44436 9.18017 5.51444 9.08585C5.58478 8.99154 5.64274 8.88989 5.64325 8.85977C5.64403 8.82992 5.66284 8.80528 5.68551 8.80528C5.70791 8.80528 5.75764 8.73822 5.79577 8.65648C5.83415 8.57449 5.90269 8.47336 5.94802 8.43144C5.99362 8.38953 6.03098 8.33845 6.03098 8.31828C6.03098 8.29785 6.0601 8.24702 6.0959 8.20484C6.13171 8.16292 6.27341 7.99107 6.41098 7.82288C6.68122 7.49254 7.6906 6.49127 7.7532 6.49127C7.77407 6.49127 7.82534 6.46062 7.86656 6.42316C8.02423 6.28013 8.37743 6.01763 8.52608 5.93301C8.85661 5.74439 8.88701 5.72631 8.90788 5.70483C8.91947 5.69252 9.00655 5.64353 9.10109 5.59559C9.19539 5.54791 9.28246 5.49788 9.29431 5.48451C9.33631 5.43657 10.2197 5.01086 10.3354 4.98257C10.4003 4.96659 10.4536 4.93752 10.4536 4.91813C10.4536 4.89848 10.5162 4.86939 10.593 4.85315C10.6698 4.83665 10.7736 4.79709 10.8238 4.76487C10.8738 4.73265 11.0382 4.67397 11.1886 4.63415C11.3393 4.59459 11.4818 4.54691 11.5055 4.52805C11.5292 4.50945 11.6547 4.46806 11.7845 4.43636C11.9144 4.40492 12.0401 4.36563 12.0638 4.34939C12.0872 4.33287 12.2418 4.29463 12.4072 4.2645C12.5726 4.23411 12.7272 4.19403 12.7506 4.17516C12.8057 4.13169 13.8432 4.00253 14.1371 4.00253C14.2604 4.00253 14.3608 3.98288 14.3608 3.95878C14.3608 3.9297 20.9269 3.91869 34.0369 3.92603L53.713 3.93703L53.7238 20.169ZM12.2351 0.495981C11.8812 0.531086 11.5818 0.574573 11.5697 0.592387C11.5576 0.610462 11.3785 0.650282 11.1719 0.680934C10.9653 0.711585 10.7963 0.749833 10.7963 0.765813C10.7963 0.781794 10.6031 0.83052 10.3668 0.874008C10.1308 0.917758 9.93763 0.968581 9.93763 0.987442C9.93763 1.00604 9.82169 1.04639 9.68 1.07704C9.53831 1.10769 9.42238 1.14646 9.42238 1.16323C9.42238 1.18025 9.31598 1.22007 9.18613 1.25177C9.05629 1.28347 8.94989 1.32277 8.94989 1.33901C8.94989 1.35525 8.82444 1.40529 8.67089 1.44983C8.51734 1.49436 8.39187 1.54361 8.39187 1.55907C8.39187 1.57452 8.31458 1.61068 8.22004 1.63949C8.12549 1.66831 8.0482 1.70839 8.0482 1.72883C8.0482 1.74926 7.98123 1.77861 7.8993 1.79431C7.81738 1.81004 7.72566 1.84724 7.69552 1.87737C7.66512 1.90749 7.57289 1.95884 7.49019 1.99159C7.40749 2.02433 7.32042 2.07436 7.29697 2.10293C7.27327 2.13148 7.18156 2.17916 7.09293 2.20877C7.00431 2.23836 6.93191 2.27609 6.93191 2.29259C6.93191 2.3091 6.85334 2.3573 6.75699 2.39974C6.58644 2.47493 6.53363 2.51003 6.37699 2.65333C6.335 2.69158 6.23993 2.75052 6.16548 2.78405C6.09103 2.81733 6.03023 2.85872 6.03023 2.87574C6.03023 2.89278 5.95784 2.94124 5.86921 2.98316C5.78059 3.02533 5.68295 3.09502 5.65203 3.13798C5.62112 3.18121 5.57784 3.21657 5.55543 3.21657C5.53328 3.21657 5.47918 3.2509 5.43537 3.29281C5.39157 3.33499 5.29163 3.41855 5.21331 3.47854C5.13499 3.53853 4.98041 3.6711 4.86989 3.77327C4.75937 3.87518 4.65735 3.95874 4.64318 3.95874C4.60402 3.95874 3.58279 5.00454 3.58279 5.04462C3.58279 5.06427 3.51039 5.1591 3.42178 5.25551C3.13092 5.57223 3.06755 5.65136 3.06755 5.69798C3.06755 5.7234 3.0338 5.76951 2.99232 5.80093C2.95109 5.83237 2.88824 5.91699 2.85295 5.98903C2.81738 6.06107 2.75685 6.14412 2.71821 6.17347C2.67956 6.20306 2.63577 6.27668 2.62082 6.33719C2.60587 6.39798 2.57702 6.44749 2.55668 6.44749C2.53632 6.44749 2.49587 6.50643 2.4665 6.57847C2.43713 6.65051 2.39747 6.70947 2.37866 6.70947C2.35985 6.70947 2.32198 6.7781 2.29467 6.86219C2.26736 6.94628 2.23129 7.01518 2.21429 7.01518C2.19754 7.01518 2.14756 7.12311 2.10325 7.25515C2.0592 7.38718 2.00768 7.49537 1.98887 7.49537C1.97006 7.49537 1.93142 7.57397 1.90308 7.67012C1.87474 7.766 1.83609 7.84459 1.81729 7.84459C1.79823 7.84459 1.76062 7.92816 1.73382 8.03033C1.70677 8.13224 1.67121 8.22549 1.65473 8.23756C1.61892 8.26375 1.47877 8.70255 1.47877 8.78848C1.47877 8.82176 1.46228 8.84899 1.44168 8.84899C1.42132 8.84899 1.3801 8.96688 1.34996 9.11097C1.32007 9.25505 1.28272 9.37294 1.26726 9.37294C1.23351 9.37294 1.13536 9.7308 1.13536 9.85366C1.13536 9.90134 1.1181 9.94038 1.09697 9.94038C1.07585 9.94038 1.02406 10.1272 0.981811 10.3553C0.939561 10.5835 0.891385 10.7701 0.875155 10.7701C0.858667 10.7701 0.820797 10.9322 0.790911 11.1303C0.76077 11.3283 0.720838 11.5009 0.702031 11.5135C0.682967 11.5261 0.644323 11.7226 0.615985 11.95C0.587646 12.1776 0.549002 12.3741 0.530195 12.3867C0.511388 12.3993 0.462183 12.7136 0.420962 13.0854C0.379743 13.4569 0.332597 13.7706 0.316367 13.7827C0.300394 13.7948 0.262008 14.1142 0.231608 14.4921C0.20095 14.8704 0.162822 15.1799 0.146592 15.1799C-0.0476575 15.1799 -0.0494609 24.5136 0.144788 24.6546C0.161276 24.6667 0.19992 25.0007 0.230577 25.3968C0.261235 25.7931 0.299621 26.1272 0.315851 26.1393C0.33234 26.151 0.380515 26.4654 0.423281 26.8377C0.465789 27.2099 0.515769 27.5342 0.534318 27.5581C0.552867 27.5822 0.592025 27.7836 0.621653 28.0058C0.651022 28.2279 0.689922 28.4095 0.707699 28.4095C0.725475 28.4095 0.763346 28.5767 0.791942 28.7807C0.82028 28.9848 0.857121 29.1519 0.87361 29.1519C0.890355 29.1519 0.93982 29.3385 0.983873 29.5666C1.02818 29.7947 1.07816 29.9814 1.09517 29.9814C1.11217 29.9814 1.14721 30.1029 1.17297 30.2511C1.19873 30.3997 1.23712 30.5319 1.25824 30.5459C1.27937 30.5598 1.32136 30.6839 1.35176 30.822C1.3819 30.9601 1.42004 31.0729 1.43626 31.0729C1.45275 31.0729 1.50016 31.2006 1.54163 31.3567C1.58311 31.5128 1.63232 31.6407 1.6506 31.6407C1.6689 31.6407 1.69646 31.7088 1.71192 31.792C1.72737 31.8753 1.76397 31.9686 1.79333 31.9993C1.82296 32.0302 1.87114 32.139 1.90076 32.2409C1.93039 32.343 1.97006 32.4266 1.98887 32.4266C2.00768 32.4266 2.0592 32.5345 2.10325 32.6665C2.14756 32.7986 2.19703 32.9068 2.21352 32.9068C2.23 32.9068 2.2635 32.9657 2.28822 33.0378C2.31296 33.1098 2.3498 33.1687 2.37042 33.1687C2.39076 33.1687 2.43404 33.2377 2.4665 33.3215C2.49896 33.4056 2.53761 33.4744 2.55229 33.4744C2.56724 33.4744 2.61155 33.5431 2.65096 33.6272C2.69039 33.7113 2.74217 33.78 2.76637 33.78C2.79033 33.78 2.80992 33.8046 2.80992 33.8346C2.80992 33.8646 2.85835 33.9463 2.91735 34.0159C2.97634 34.0859 3.02452 34.1572 3.02452 34.1744C3.02452 34.1917 3.10181 34.2892 3.19636 34.3913C3.2909 34.4932 3.36819 34.592 3.36819 34.6111C3.36819 34.6303 3.42615 34.7013 3.497 34.7694C3.56786 34.8376 3.62582 34.9085 3.62582 34.9274C3.62582 35.0005 4.93326 36.2694 5.1118 36.3695C5.15636 36.3944 5.2182 36.4507 5.24911 36.4944C5.28003 36.5386 5.33232 36.5744 5.36555 36.5744C5.3988 36.5744 5.4467 36.6137 5.47195 36.6617C5.4972 36.7096 5.54538 36.7491 5.57887 36.7491C5.61211 36.7491 5.65487 36.775 5.67394 36.807C5.69275 36.839 5.7757 36.9029 5.8584 36.949C5.94109 36.9951 6.0243 37.0575 6.04311 37.0873C6.06192 37.1175 6.10597 37.1421 6.14101 37.1421C6.17605 37.1421 6.21443 37.168 6.22654 37.2C6.23865 37.2319 6.31542 37.2849 6.39709 37.3174C6.47875 37.3498 6.54548 37.3928 6.54548 37.4124C6.54548 37.4321 6.62277 37.4798 6.71731 37.5181C6.81161 37.5565 6.8889 37.6042 6.8889 37.6236C6.8889 37.6433 6.95665 37.6815 7.03934 37.7095C7.12179 37.7374 7.18954 37.775 7.18954 37.7933C7.18954 37.8117 7.26683 37.8502 7.36138 37.8791C7.45567 37.9078 7.53296 37.9464 7.53296 37.9647C7.53296 37.9831 7.63446 38.0349 7.75838 38.0803C7.88255 38.1256 8.00853 38.1876 8.03893 38.2181C8.06933 38.2487 8.16105 38.2867 8.24297 38.3021C8.3249 38.3179 8.39187 38.3472 8.39187 38.3676C8.39187 38.388 8.4738 38.4273 8.57427 38.4545C8.67475 38.4821 8.76646 38.5183 8.77832 38.535C8.80408 38.5714 9.23534 38.7139 9.31984 38.7139C9.35257 38.7139 9.37936 38.7315 9.37936 38.7527C9.37936 38.7741 9.50481 38.8168 9.65836 38.8481C9.81191 38.8793 9.93763 38.9189 9.93763 38.936C9.93763 38.9536 10.0729 38.9924 10.238 39.0226C10.4034 39.0526 10.5387 39.0911 10.5387 39.1082C10.5387 39.1252 10.7899 39.1752 11.0969 39.2193C11.4038 39.2633 11.655 39.3125 11.655 39.3288C11.655 39.477 11.8958 39.4779 51.4367 39.4779C91.3448 39.4779 91.2183 39.4784 91.2183 39.3194C91.2183 39.2987 91.2616 39.2817 91.3149 39.2819C91.4909 39.2827 92.3346 39.1341 92.3346 39.1022C92.3346 39.0852 92.4698 39.0461 92.6352 39.0165C92.8004 38.9864 92.9356 38.9481 92.9356 38.9321C92.9356 38.9153 93.047 38.8771 93.1827 38.8465C93.3185 38.8158 93.439 38.777 93.4509 38.7606C93.4627 38.7438 93.6029 38.695 93.7623 38.6518C93.9216 38.6086 94.0521 38.5576 94.0521 38.5387C94.0521 38.5199 94.1488 38.4808 94.2668 38.4519C94.3848 38.4232 94.4814 38.382 94.4814 38.3608C94.4814 38.3396 94.5684 38.2998 94.6746 38.2727C94.781 38.2455 94.8678 38.2078 94.8678 38.1892C94.8678 38.1703 94.9645 38.1198 95.0826 38.0765C95.2007 38.0333 95.2973 37.9854 95.2973 37.9699C95.2973 37.9542 95.3745 37.9159 95.4692 37.8843C95.5634 37.8525 95.6406 37.8122 95.6406 37.7951C95.6406 37.778 95.6987 37.7394 95.7695 37.7095C95.8403 37.6797 95.8983 37.6396 95.8983 37.6205C95.8983 37.6014 95.9538 37.5733 96.0215 37.5582C96.089 37.5429 96.1809 37.4974 96.2253 37.4564C96.2699 37.4155 96.3644 37.3527 96.4352 37.3168C96.5061 37.2807 96.5795 37.2267 96.5983 37.1965C96.6171 37.1667 96.6596 37.1421 96.6928 37.1421C96.7258 37.1421 96.7684 37.1164 96.7872 37.085C96.8062 37.0538 96.894 36.9935 96.9826 36.9521C97.0711 36.9102 97.1437 36.8569 97.1437 36.8332C97.1437 36.8096 97.1918 36.7719 97.2508 36.7491C97.3099 36.7263 97.3583 36.687 97.3583 36.6617C97.3583 36.6364 97.4018 36.5961 97.4549 36.5723C97.5989 36.5071 97.8365 36.3235 97.9045 36.2247C97.9374 36.1771 97.984 36.1377 98.008 36.1377C98.0319 36.1377 98.1647 36.0198 98.3029 35.8757C98.4411 35.7316 98.5691 35.6137 98.5874 35.6137C98.6193 35.6137 99.0066 35.2079 99.3994 34.7624C99.5051 34.6424 99.6592 34.4686 99.7419 34.3768C99.8242 34.2845 99.892 34.1961 99.8922 34.1803C99.8925 34.1643 99.9459 34.0872 100.01 34.0091C100.213 33.7642 100.275 33.6778 100.427 33.4307C100.508 33.2987 100.602 33.1612 100.635 33.125C100.669 33.0891 100.711 33.0105 100.729 32.9505C100.747 32.8905 100.775 32.8313 100.792 32.8196C100.842 32.7831 101.137 32.1326 101.137 32.0588C101.137 32.0208 101.154 31.9898 101.175 31.9898C101.196 31.9898 101.239 31.9014 101.27 31.7933C101.302 31.6852 101.34 31.597 101.357 31.597C101.373 31.597 101.41 31.4936 101.439 31.3677C101.469 31.2414 101.509 31.1277 101.528 31.1148C101.548 31.1018 101.598 30.9542 101.64 30.7874C101.682 30.6203 101.729 30.4735 101.745 30.4615C101.76 30.4494 101.798 30.317 101.829 30.1668C101.859 30.017 101.897 29.894 101.913 29.894C101.929 29.894 101.964 29.7712 101.992 29.6211C102.019 29.471 102.059 29.3088 102.081 29.2609C102.13 29.1511 102.253 28.5227 102.253 28.383C102.253 28.3257 102.27 28.2785 102.291 28.2785C102.312 28.2785 102.354 28.082 102.384 27.8421C102.414 27.6018 102.453 27.4053 102.47 27.4053C102.487 27.4053 102.525 27.1745 102.554 26.8923C102.584 26.6102 102.623 26.3695 102.64 26.3575C102.673 26.3346 102.811 24.9333 102.811 24.6222C102.811 24.5239 102.829 24.437 102.85 24.429C103.051 24.3533 103.05 15.5272 102.849 15.4491C102.828 15.4413 102.811 15.364 102.811 15.2779C102.811 14.9888 102.672 13.5865 102.641 13.5645C102.624 13.5524 102.585 13.302 102.554 13.0078C102.523 12.7136 102.484 12.4729 102.467 12.4729C102.45 12.4729 102.412 12.2864 102.382 12.0582C102.352 11.83 102.315 11.6432 102.299 11.6432C102.284 11.6432 102.236 11.4074 102.192 11.1193C102.149 10.8311 102.1 10.5953 102.083 10.5953C102.066 10.5953 102.027 10.4578 101.995 10.2898C101.964 10.1217 101.925 9.98413 101.908 9.98413C101.89 9.98413 101.853 9.85655 101.824 9.70041C101.795 9.54427 101.757 9.41643 101.74 9.41643C101.723 9.41643 101.685 9.30351 101.655 9.16545C101.626 9.02739 101.566 8.84245 101.522 8.75442C101.478 8.66666 101.43 8.52415 101.414 8.43796C101.398 8.35178 101.37 8.28129 101.352 8.28129C101.334 8.28129 101.297 8.19275 101.27 8.08482C101.243 7.97662 101.204 7.88834 101.184 7.88834C101.163 7.88834 101.111 7.77045 101.069 7.62637C101.026 7.48228 100.978 7.36439 100.96 7.36439C100.943 7.36439 100.906 7.29339 100.877 7.20642C100.849 7.11971 100.79 7.01152 100.745 6.96645C100.701 6.92113 100.664 6.85459 100.664 6.8187C100.664 6.78255 100.65 6.7532 100.632 6.7532C100.614 6.7532 100.565 6.67462 100.525 6.57847C100.484 6.48233 100.433 6.40374 100.412 6.40374C100.391 6.40374 100.35 6.34479 100.321 6.27275C100.292 6.20071 100.253 6.14177 100.235 6.14177C100.217 6.14177 100.178 6.08282 100.149 6.01077C100.12 5.93873 100.083 5.87979 100.067 5.87979C100.052 5.87979 100.003 5.81613 99.958 5.73806C99.9133 5.66 99.8225 5.54185 99.7555 5.47557C99.6888 5.40929 99.6338 5.34065 99.6338 5.32257C99.6338 5.30476 99.5759 5.23455 99.5051 5.16644C99.4343 5.09858 99.3762 5.02445 99.3762 5.00218C99.3762 4.92647 98.0239 3.60744 97.8416 3.50553C97.8 3.48221 97.7408 3.42746 97.7102 3.38371C97.6793 3.3397 97.6358 3.30381 97.6136 3.30381C97.5912 3.30381 97.5295 3.26373 97.4762 3.21447C97.4232 3.16523 97.3508 3.09842 97.3153 3.06568C97.28 3.03293 97.1978 2.98158 97.1329 2.95146C97.068 2.92133 97.0148 2.88282 97.0148 2.86553C97.0148 2.84823 96.9569 2.80973 96.886 2.77986C96.8152 2.75 96.7573 2.70939 96.7573 2.68974C96.7573 2.65359 96.6828 2.60749 96.3386 2.42855C96.2382 2.37616 96.1559 2.31774 96.1559 2.29835C96.1559 2.27871 96.0982 2.24989 96.0274 2.23417C95.9567 2.21845 95.8844 2.18046 95.8663 2.15008C95.8486 2.11969 95.7422 2.0597 95.6301 2.01674C95.5178 1.97351 95.4262 1.92451 95.4262 1.90749C95.4262 1.89073 95.3488 1.85327 95.2543 1.82444C95.16 1.79563 95.0826 1.75555 95.0826 1.73512C95.0826 1.71469 95.0157 1.68534 94.9338 1.66962C94.8518 1.6539 94.7599 1.61592 94.7292 1.58474C94.6989 1.55383 94.5581 1.492 94.4167 1.4472C94.2753 1.40267 94.1498 1.35368 94.138 1.33849C94.1262 1.32329 94.02 1.28426 93.9018 1.25177C93.7837 1.21929 93.6773 1.18052 93.6658 1.16558C93.6346 1.12629 93.3069 1.03329 93.1992 1.03329C93.1487 1.03329 93.1075 1.01573 93.1075 0.994254C93.1075 0.972772 92.9238 0.920115 92.6996 0.877152C92.4752 0.834188 92.2916 0.784938 92.2916 0.767908C92.2916 0.75088 92.1226 0.712632 91.9159 0.683029C91.7094 0.653426 91.5306 0.615179 91.5187 0.597888C91.4148 0.446468 91.5939 0.446992 51.7157 0.439394C17.891 0.433107 12.7957 0.44018 12.2351 0.495981Z" fill="#1E1D28"/>
</g>
</g>
</g>
</g>
</svg>
