<svg width="113" height="80" viewBox="0 0 113 80" fill="none" xmlns="http://www.w3.org/2000/svg">
<g id="pace-logo-white.svg" clip-path="url(#clip0_68_6226)">
<g id="Clip path group">
<mask id="mask0_68_6226" style="mask-type:luminance" maskUnits="userSpaceOnUse" x="0" y="20" width="113" height="40">
<g id="clip0_350_1519">
<path id="Vector" d="M112.5 20H0.5V59.8462H112.5V20Z" fill="white"/>
</g>
</mask>
<g mask="url(#mask0_68_6226)">
<g id="Group">
<path id="Vector_2" d="M43.0626 56.7168C43.0605 56.5005 43.1169 56.2877 43.2255 56.1014C43.3342 55.915 43.4911 55.7621 43.6793 55.659C44.0238 55.4853 44.4392 55.3838 45.1706 55.2967L46.0024 55.1952V55.123C46.0024 54.2968 45.7158 53.9637 45.027 53.9637C44.425 53.9637 44.0516 54.2825 44.009 54.8478H43.1914C43.2487 53.935 43.9659 53.3262 45.0128 53.3262C46.2317 53.3262 46.7622 53.8915 46.7622 55.1952V56.4124C46.7622 57.1078 46.8054 57.586 46.92 57.934H46.1312L46.0597 57.1078C45.8589 57.6875 45.2999 58.0349 44.5685 58.0349C43.6651 58.0349 43.0626 57.5137 43.0626 56.7168ZM46.0166 55.9635V55.7318L44.812 55.9055C44.1521 56.007 43.8655 56.2387 43.8655 56.6732C43.8655 57.1078 44.1952 57.383 44.7405 57.383C45.515 57.3974 46.0166 56.8332 46.0166 55.9635Z" fill="black"/>
<path id="Vector_3" fill-rule="evenodd" clip-rule="evenodd" d="M76.6055 55.6741C76.6055 54.2104 77.3942 53.3125 78.6562 53.3125C79.7031 53.3125 80.3772 53.9208 80.4918 54.9499L79.7173 55.037C79.6311 54.3559 79.244 53.9793 78.642 53.9793C77.8822 53.9793 77.4089 54.6025 77.4089 55.6602C77.4089 56.7467 77.868 57.3556 78.6709 57.3556C79.273 57.3556 79.6463 56.9932 79.7609 56.2834L80.4781 56.3992C80.3204 57.4278 79.6463 58.0223 78.6567 58.0223C77.4089 58.0367 76.606 57.1096 76.606 55.6751L76.6055 55.6741Z" fill="black"/>
<path id="Vector_4" d="M81.252 55.6741C81.252 54.2104 82.0696 53.3125 83.3316 53.3125C84.5935 53.3125 85.4112 54.1966 85.4112 55.6741C85.4112 57.1377 84.5935 58.0356 83.3316 58.0356C82.0696 58.0356 81.252 57.1372 81.252 55.6741ZM84.5935 55.6741C84.5935 54.5584 84.1203 53.9787 83.3174 53.9787C82.5144 53.9787 82.0412 54.5584 82.0412 55.6741C82.0412 56.7897 82.5144 57.3694 83.3174 57.3694C84.1203 57.3694 84.5935 56.7897 84.5935 55.6741Z" fill="black"/>
<path id="Vector_5" fill-rule="evenodd" clip-rule="evenodd" d="M87.2753 53.429V54.2116C87.5193 53.6033 87.9494 53.2988 88.5515 53.2988C89.1682 53.2988 89.6126 53.6176 89.8134 54.2116C90.1 53.6033 90.559 53.2988 91.1616 53.2988C92.0219 53.2988 92.5098 53.922 92.5098 54.9798V57.9348H91.75V55.0515C91.75 54.3561 91.4635 53.9937 90.904 53.9937C90.273 53.9937 89.9002 54.4576 89.9002 55.2832V57.9491H89.1404V55.0223C89.1404 54.3704 88.8391 53.9937 88.3085 53.9937C87.6917 53.9937 87.3047 54.5011 87.3047 55.3124V57.9348H86.5449V53.4285H87.2763L87.2753 53.429Z" fill="black"/>
<path id="Vector_6" d="M93.9434 53.4282H94.6606V54.2681C94.9472 53.6449 95.4635 53.3262 96.1092 53.3262C97.1845 53.3262 97.9017 54.2681 97.9017 55.6877C97.9017 57.1222 97.1419 58.0493 96.0519 58.0493C95.3636 58.0493 94.8904 57.6726 94.6895 57.2231V59.6872H93.9297V53.4282H93.9434ZM97.0983 55.6739C97.0983 54.6161 96.654 53.9929 95.9078 53.9929C95.1617 53.9929 94.6748 54.5869 94.6748 55.5581V55.7754C94.6748 56.746 95.1338 57.3549 95.8794 57.3549C96.6393 57.3549 97.0983 56.7317 97.0983 55.6739ZM98.6184 56.7173C98.6164 56.501 98.6727 56.2883 98.7814 56.1019C98.8901 55.9155 99.047 55.7626 99.2352 55.6596C99.5796 55.4858 99.995 55.3844 100.726 55.2972L101.558 55.1958V55.1235C101.558 54.2974 101.272 53.9642 100.583 53.9642C99.9808 53.9642 99.6075 54.283 99.5649 54.8483H98.7473C98.8046 53.9356 99.5218 53.3267 100.569 53.3267C101.788 53.3267 102.318 53.892 102.318 55.1958V56.4129C102.318 57.1084 102.361 57.5865 102.476 57.9345H101.687L101.616 57.1084C101.415 57.688 100.856 58.0355 100.124 58.0355C99.2068 58.0355 98.6184 57.5143 98.6184 56.7173ZM101.573 55.964V55.7323L100.368 55.9061C99.7079 56.0076 99.4214 56.2392 99.4214 56.6738C99.4214 57.1084 99.7511 57.3836 100.296 57.3836C101.056 57.3979 101.573 56.8337 101.573 55.964Z" fill="black"/>
<path id="Vector_7" fill-rule="evenodd" clip-rule="evenodd" d="M103.766 53.4283H104.483V54.3124C104.77 53.6313 105.272 53.2982 105.975 53.2982C106.95 53.2982 107.466 53.9214 107.466 55.1237V57.9203H106.706V55.1672C106.706 54.3703 106.376 53.9644 105.731 53.9644C104.985 53.9644 104.54 54.5727 104.54 55.5726V57.9198H103.78V53.4278L103.766 53.4283ZM108.269 59.7023V59.0212C108.374 59.0325 108.479 59.0373 108.585 59.0355C109.115 59.0355 109.402 58.789 109.603 58.195L109.717 57.8619L107.939 53.4135H108.785L109.918 56.5433C109.984 56.7178 110.036 56.897 110.076 57.0793H110.09C110.119 56.9492 110.176 56.7749 110.248 56.5433L111.281 53.4135H112.098L110.363 58.195C109.947 59.3399 109.417 59.7166 108.671 59.7166C108.537 59.7334 108.402 59.7285 108.269 59.7023ZM3.76956 37.4028C3.76956 37.2726 3.82687 37.2577 3.9415 37.2577C4.12817 37.2577 4.74443 37.7215 5.87758 37.7215C7.49816 37.7215 9.07562 36.6494 9.07562 34.7511C9.07562 33.2295 8.08603 31.8679 5.13196 31.8679H3.12438C1.99123 31.8679 1.14518 31.81 0.801296 31.81C0.614629 31.81 0.5 31.9114 0.5 32.0708C0.5 32.3752 0.901728 32.3752 1.27454 32.3896C1.57583 32.4188 1.89132 32.4618 1.89132 32.7519V35.5486L1.83401 40.4895C1.83401 41.0256 1.59003 41.127 1.20302 41.2142C0.901728 41.3013 0.572038 41.2721 0.572038 41.5622C0.572038 41.6923 0.658272 41.7359 0.743981 41.7359H3.94203C4.30064 41.7359 4.58721 41.7938 4.85959 41.7938C5.16088 41.7938 5.31863 41.7795 5.31863 41.6052C5.31863 41.3736 5.2182 41.3157 4.93162 41.2864C3.91363 41.1414 3.77008 41.0691 3.77008 40.7068L3.76956 37.4028ZM3.78376 34.2586C3.78376 32.4331 3.78376 32.3896 4.88798 32.3896C6.33662 32.3896 7.05331 33.4761 7.05331 34.6066C7.05331 36.8237 5.46165 36.8816 4.71604 36.8816C4.07085 36.8816 3.78376 36.8672 3.78376 36.5336V34.2586ZM25.3093 36.939C25.327 36.9952 25.3367 37.0537 25.3382 37.1127C25.3382 37.2142 24.8792 37.2142 24.2629 37.2142C23.7466 37.2142 23.1298 37.1998 23.1298 37.084C23.1298 36.9538 23.1871 36.8088 23.2586 36.6494L24.1189 34.6789C24.162 34.5487 24.2477 34.4616 24.3055 34.4616C24.3344 34.4616 24.406 34.4616 24.4343 34.5338L25.3093 36.939ZM25.1226 31.2447H24.936L23.5878 34.6497L20.8919 40.4746C20.7434 40.7942 20.5037 41.0616 20.2036 41.2423C19.8166 41.474 19.3717 41.4161 19.3717 41.6913C19.3717 41.8071 19.4864 41.8214 19.6441 41.8214L21.4366 41.7635C22.0245 41.7635 22.34 41.8214 22.5267 41.8214C22.8711 41.8214 23.0141 41.7635 23.0141 41.5462C23.0141 41.3146 22.6986 41.2567 22.5409 41.2418C22.1681 41.2126 21.7952 41.1695 21.7952 40.7057C21.7952 40.3434 22.2396 39.4307 22.5267 38.7639C22.7848 38.1264 22.9137 37.9234 23.3154 37.9234L25.3088 37.9813C25.6532 37.9813 25.6958 38.0249 25.7389 38.1407L26.3841 40.2563C26.4414 40.4736 26.5418 40.6765 26.5418 40.8359C26.5418 41.1255 26.2405 41.2126 25.8819 41.2561C25.6096 41.2854 25.466 41.372 25.466 41.5457C25.466 41.7486 25.5664 41.763 25.6953 41.763H27.5882L29.5816 41.8209C29.8971 41.8209 29.9544 41.8066 29.9544 41.6907C29.9544 41.517 29.5816 41.517 29.1368 41.2418C28.6204 40.923 28.5489 40.7493 28.0757 39.5757L25.1216 31.2441L25.1226 31.2447ZM45.4577 42.0249C46.175 42.0249 48.2399 41.8076 48.3976 41.1557L48.6989 39.5619C48.6989 39.4317 48.6416 39.2867 48.527 39.2867C48.1684 39.2867 47.509 41.4166 45.3578 41.4166C44.5833 41.4166 42.0741 40.8805 42.0741 36.7652C42.0741 34.07 43.7951 32.2732 45.5587 32.2732C47.4227 32.2732 48.0395 34.0408 48.4844 34.0408C48.6563 34.0408 48.6852 33.9686 48.6852 33.8522C48.6852 33.7072 48.6279 32.838 48.5848 32.635C48.5133 32.1712 46.8785 31.8089 45.6018 31.8089C43.1352 31.8089 39.9661 33.1998 39.9661 37.0829C39.9661 40.1112 42.7913 42.0239 45.4583 42.0239L45.4577 42.0249Z" fill="black"/>
<path id="Vector_8" fill-rule="evenodd" clip-rule="evenodd" d="M24.248 28.3316C24.248 28.3316 37.6565 22.7388 59.6695 22.7388C82.3992 22.7388 97.0696 28.0564 97.0696 28.0564C97.0696 28.0564 82.2267 20 60.3862 20C38.8895 20 24.248 28.3316 24.248 28.3316ZM92.1216 42.0673H102.648L97.3988 31.7217L92.1216 42.0673Z" fill="black"/>
<path id="Vector_9" fill-rule="evenodd" clip-rule="evenodd" d="M60.07 39.4585C60.07 41.0524 59.9265 41.1103 58.8796 41.2261C58.7508 41.2405 58.4062 41.2405 58.4062 41.5592C58.4062 41.7478 58.564 41.8057 58.7649 41.8057C58.8937 41.8057 59.1094 41.7478 59.8834 41.7478H63.2676L65.8488 41.8057C65.9777 41.8057 66.0928 41.1974 66.1501 40.8494C66.2074 40.4728 66.4083 39.8352 66.4083 39.6179C66.4083 39.4729 66.4082 39.3135 66.2073 39.3135C65.8487 39.3135 65.8488 40.2842 64.7304 40.9074C64.4149 41.0811 64.1856 41.1969 63.5257 41.1969C62.7943 41.1969 62.0345 41.0811 62.0345 40.4871V37.4152C62.0345 37.0093 62.0917 36.9371 62.6796 36.9371C64.0704 36.9371 64.4006 37.2702 64.5152 37.7483C64.6872 38.5017 64.7161 38.5596 64.917 38.5596C65.1036 38.5596 65.1611 38.4725 65.1611 38.3423C65.1611 38.2122 65.1036 37.9221 65.1036 37.2702C65.1036 36.6619 65.2325 35.7922 65.2325 35.4298C65.2325 35.3863 65.2468 34.966 65.0175 34.966C64.7735 34.966 64.6589 35.4734 64.4007 35.8644C64.1999 36.1832 63.9847 36.3861 63.0813 36.3861C62.1349 36.3861 62.0634 36.2703 62.0634 35.9516V33.4885C62.0634 32.6045 62.0923 32.5614 62.7948 32.5614C64.143 32.5614 65.0321 32.7787 65.3045 33.2712C65.62 33.793 65.6343 34.2568 65.8925 34.2568C66.1365 34.2568 66.1364 33.8944 66.1364 33.2861C66.1364 31.9967 66.1075 31.9531 65.792 31.9531L62.3358 32.011C60.3997 32.011 59.6972 31.9531 59.0089 31.9531C58.7508 31.9531 58.6933 31.9823 58.6933 32.1704C58.6933 32.3441 58.7507 32.4169 59.5683 32.4892C60.0705 32.5328 60.0705 33.0688 60.0705 33.4455L60.07 39.4585Z" fill="black"/>
<path id="Vector_10" fill-rule="evenodd" clip-rule="evenodd" d="M57.2323 53.658V51.7598H50.4492V53.658H52.7723V58.0193H54.9092V53.658H57.2323Z" fill="black"/>
<path id="Vector_11" fill-rule="evenodd" clip-rule="evenodd" d="M66.3224 58.0193L62.0922 53.7739L62.006 53.658H61.9918L60.0988 51.7598H57.2305L60.5573 55.1068L57.6606 58.0193H60.5289L61.9918 56.5556L63.4546 58.0193H66.3224ZM73.1771 51.7603H67.6417L65.7488 53.6586H68.7028V58.0199H70.8251V53.6586H73.1771V51.7603Z" fill="black"/>
<path id="Vector_12" fill-rule="evenodd" clip-rule="evenodd" d="M66.7402 51.7617H63.8866L62.0078 53.66H64.8614L66.7402 51.7617Z" fill="black"/>
<path id="Vector_13" fill-rule="evenodd" clip-rule="evenodd" d="M57.2323 53.658V51.7598H50.4492V53.658H52.7723V58.0193H54.9092V53.658H57.2323Z" fill="black"/>
</g>
</g>
</g>
</g>
<defs>
<clipPath id="clip0_68_6226">
<rect width="112" height="80" fill="white" transform="translate(0.5)"/>
</clipPath>
</defs>
</svg>
