<svg width="81" height="80" viewBox="0 0 81 80" fill="none" xmlns="http://www.w3.org/2000/svg">
<g id="grt-gaz-logo-white.svg" clip-path="url(#clip0_68_6172)">
<path id="Vector" d="M68.2555 40.3586C68.5952 40.4822 68.9127 40.6597 69.1958 40.8844V40.8173C69.1958 40.6159 69.1062 40.3363 69.1958 40.2132C69.2853 40.0902 69.6211 40.2132 69.8562 40.2132H70.7517C71.0539 40.2132 71.0987 40.2691 71.0987 40.5488V48.6477C71.0987 49.3077 71.0987 49.3077 70.4382 49.3077H69.3189C69.1622 49.3077 69.1062 49.2518 69.1062 49.0952V48.4464C68.7846 48.7064 68.4262 48.9175 68.0428 49.0728C67.8861 49.0728 67.8973 48.9274 67.8973 48.8267C67.8637 48.406 67.8637 47.9833 67.8973 47.5626C67.8973 47.4172 68.054 47.3613 68.1771 47.3165C68.464 47.2218 68.7075 47.0277 68.8635 46.7691C69.0196 46.5106 69.0779 46.2048 69.0279 45.9071C68.9495 45.001 69.0279 44.0837 69.0279 43.1664C69.0303 43.0345 68.9999 42.9041 68.9393 42.7869C68.8787 42.6698 68.7899 42.5695 68.6809 42.4952C68.4346 42.3051 68.1212 42.2267 67.9197 41.9806C67.8694 41.5196 67.8694 41.0545 67.9197 40.5935C68.0428 40.4369 68.0652 40.2915 68.2555 40.3586Z" fill="black"/>
<path id="Vector_2" d="M59.7484 51.2206C59.2135 51.8464 58.4846 52.2755 57.6776 52.4399H57.3866C57.2859 52.3504 57.2971 52.2274 57.2859 52.1155V50.706C57.7629 50.5446 58.1716 50.2271 58.4458 49.8049C58.72 49.3827 58.8437 48.8804 58.797 48.3792V47.8423C58.4324 48.1115 58.0284 48.3228 57.5993 48.4687C57.4762 48.3457 57.5097 48.2003 57.5097 48.0548C57.5229 47.681 57.5042 47.3068 57.4538 46.9362C57.4538 46.7796 57.5993 46.7572 57.7 46.7013C57.9771 46.5704 58.2429 46.417 58.4948 46.2426C58.5627 46.1924 58.6175 46.1264 58.6545 46.0505C58.6915 45.9746 58.7097 45.8908 58.7074 45.8064V43.0098C58.7109 42.9196 58.6912 42.83 58.65 42.7497C58.6088 42.6694 58.5477 42.601 58.4724 42.5511C58.2909 42.4116 58.1002 42.2845 57.9015 42.1708C57.812 42.1149 57.6888 42.0925 57.7 41.9471C57.7258 41.5747 57.7258 41.2009 57.7 40.8285C57.6726 40.6805 57.7048 40.5277 57.7896 40.4034C58.1222 40.5275 58.4322 40.7051 58.7074 40.9291C58.7746 40.862 58.7074 40.7949 58.7074 40.7278C58.7074 40.202 58.7074 40.202 59.2447 40.2132H59.6029C59.6933 40.3807 59.7249 40.5738 59.6925 40.7613V50.6053C59.7412 50.8066 59.76 51.0139 59.7484 51.2206Z" fill="black"/>
<path id="Vector_3" d="M59.7485 51.2206C59.6982 51.077 59.6754 50.9252 59.6814 50.7731V40.1796H60.5097C60.7895 40.1796 60.756 40.2579 60.756 40.4369V48.3792C60.77 49.3754 60.4509 50.3478 59.8493 51.1423C59.8177 51.1709 59.784 51.197 59.7485 51.2206Z" fill="black"/>
<path id="Vector_4" d="M53.2785 40.9515C53.9084 40.4193 54.6938 40.1053 55.5172 40.0566C55.7187 40.0566 55.6627 40.2691 55.6739 40.381V41.7793C55.6739 41.9471 55.4948 41.9806 55.3717 42.0366C54.9393 42.1848 54.5602 42.4568 54.2816 42.8189C54.0029 43.1809 53.837 43.6169 53.8046 44.0725C53.7202 44.5929 53.8093 45.1265 54.058 45.5914C54.3068 46.0563 54.7015 46.4266 55.1814 46.6454C55.3045 46.7013 55.4276 46.746 55.4612 46.8915C55.4892 47.4057 55.4892 47.921 55.4612 48.4352C55.4627 48.4783 55.4555 48.5213 55.4401 48.5617C55.4248 48.602 55.4015 48.6389 55.3717 48.6701C54.5941 48.598 53.8584 48.2852 53.2673 47.7752C53.2898 47.4474 53.2898 47.1185 53.2673 46.7908V41.9695C53.2936 41.6308 53.2973 41.2907 53.2785 40.9515Z" fill="black"/>
<path id="Vector_5" d="M63.6773 48.3792C63.4534 48.2898 63.3415 48.0772 63.1959 47.8982C62.4634 46.9172 62.0923 45.7135 62.1454 44.4905C62.1984 43.2676 62.6723 42.1005 63.487 41.1864L63.6213 41.0746C63.7668 41.0186 63.8004 41.1305 63.8228 41.22C63.8385 41.3275 63.8385 41.4368 63.8228 41.5444V47.9094C63.8452 48.0772 63.9347 48.3009 63.6773 48.3792Z" fill="black"/>
<path id="Vector_6" d="M53.2786 40.9515C53.4129 41.0074 53.4129 41.1305 53.4129 41.2535V47.4731C53.4129 47.5962 53.4129 47.7192 53.2786 47.7752C52.595 47.2762 52.111 46.5507 51.913 45.7281C51.6386 44.8967 51.6144 44.0031 51.8432 43.1581C52.072 42.313 52.5438 41.5536 53.2002 40.9739L53.2786 40.9515Z" fill="black"/>
<path id="Vector_7" d="M75.5872 49.2406H73.0799C72.9344 49.2406 72.8896 49.1847 72.9008 49.0392V47.9654C72.8992 47.8769 72.9267 47.7905 72.9792 47.7193C73.8299 46.6789 74.6806 45.6274 75.5201 44.5759C75.6992 44.6989 75.6768 44.8891 75.6768 45.0681V47.3054C75.607 47.3941 75.5434 47.4875 75.4865 47.585C75.4193 47.6857 75.4865 47.6409 75.5649 47.6745C75.5903 47.7182 75.6055 47.767 75.6093 47.8174C75.6132 47.8677 75.6057 47.9183 75.5872 47.9654V49.084C75.5996 49.1355 75.5996 49.1891 75.5872 49.2406Z" fill="black"/>
<path id="Vector_8" d="M63.6773 48.3792C63.7892 48.3009 63.7556 48.1779 63.7556 48.0772V41.3654C63.7556 41.2535 63.7556 41.1081 63.6213 41.0746C63.8982 40.7969 64.2298 40.5798 64.5951 40.4369C64.7406 40.4929 64.7406 40.6383 64.7406 40.7613V42.7413C64.7384 42.8517 64.7076 42.9596 64.6511 43.0545C64.2468 43.7586 64.1116 44.5852 64.2705 45.3813C64.3229 45.7439 64.4493 46.0918 64.6418 46.4036C64.8344 46.7153 65.089 46.9842 65.3899 47.1935C65.5018 47.2606 65.6473 47.3165 65.6697 47.4843V48.9945C65.6697 49.1175 65.6697 49.3189 65.4458 49.2742C64.7822 49.1528 64.1679 48.842 63.6773 48.3792Z" fill="black"/>
<path id="Vector_9" d="M77.6804 41.8464V41.7457C77.5668 41.4268 77.536 41.0842 77.5909 40.7501C77.5469 40.5555 77.5789 40.3515 77.6804 40.1796L80.0646 40.1349C80.199 40.1349 80.2438 40.1908 80.2438 40.3139V41.4325C80.2339 41.5532 80.1777 41.6654 80.087 41.7457L77.9715 44.341C77.9715 44.3969 77.8931 44.464 77.8483 44.5311C77.6021 44.5311 77.658 44.3522 77.658 44.2291V42.7972C77.627 42.4806 77.6346 42.1613 77.6804 41.8464Z" fill="black"/>
<path id="Vector_10" d="M77.6804 41.8464C77.731 42.1463 77.731 42.4526 77.6804 42.7525V44.2739C77.6804 44.3745 77.6245 44.4976 77.7812 44.5423C77.2327 45.2583 76.6618 45.9742 76.0798 46.6454C75.9007 46.8579 75.744 47.0816 75.5761 47.2942C75.4082 47.2942 75.4641 47.1264 75.4641 47.0257V45.0905C75.4701 44.9238 75.4474 44.7573 75.397 44.5983C76.1581 43.6586 76.9193 42.7413 77.6804 41.8464Z" fill="black"/>
<path id="Vector_11" d="M57.297 50.7619C57.3462 50.8087 57.3832 50.8668 57.4046 50.9312C57.4261 50.9955 57.4314 51.0642 57.4201 51.1311V52.4958C56.6815 52.6465 55.92 52.6465 55.1814 52.4958C54.9841 52.4807 54.791 52.4315 54.6105 52.3504C54.5433 51.7538 54.5659 51.1505 54.6777 50.5606C55.4215 50.8167 56.2146 50.8971 56.9947 50.7955C57.0947 50.7785 57.1957 50.7672 57.297 50.7619Z" fill="black"/>
<path id="Vector_12" d="M65.5132 49.2742C65.6699 49.2742 65.6475 49.1287 65.6475 49.0169V47.7416C65.6352 47.6327 65.6588 47.5227 65.7147 47.4284C65.7818 47.3725 65.8602 47.4284 65.9386 47.4284C66.5882 47.6244 67.2813 47.6244 67.931 47.4284C67.9674 47.4098 68.0077 47.4 68.0485 47.4C68.0894 47.4 68.1297 47.4098 68.1661 47.4284V48.7037C68.1661 48.8043 68.1661 48.905 68.222 48.9833C67.3816 49.3962 66.4222 49.4992 65.5132 49.2742Z" fill="black"/>
<path id="Vector_13" d="M68.2556 40.3586C68.0989 40.3586 68.1213 40.504 68.1213 40.6047V41.9583C67.987 42.0478 67.8638 41.9583 67.7519 41.9583C67.1904 41.785 66.5896 41.785 66.0281 41.9583C65.9162 41.9583 65.8042 42.0478 65.6923 41.9583C65.6418 41.5609 65.6418 41.1587 65.6923 40.7613C65.6782 40.5421 65.6171 40.3285 65.5132 40.1349C66.4266 39.9003 67.3924 39.9791 68.2556 40.3586Z" fill="black"/>
<path id="Vector_14" d="M75.4754 41.7345H73.0352C72.8897 41.7345 72.8338 41.7345 72.8449 41.5444V40.3474C72.8449 40.202 72.8449 40.1573 73.0352 40.1573H75.4754C75.5327 40.2266 75.5643 40.3135 75.565 40.4034C75.6165 40.8488 75.5862 41.3 75.4754 41.7345Z" fill="black"/>
<path id="Vector_15" d="M75.5872 49.2406L75.5873 47.6633H77.9827C78.1282 47.8423 78.061 48.066 78.0722 48.2674C78.0834 48.4687 78.0722 48.6589 78.0722 48.8603C78.0722 49.0616 78.1506 49.1064 78.3297 49.1064H79.1916C79.3147 49.1064 79.449 49.1064 79.5274 49.2294L75.5872 49.2406Z" fill="black"/>
<path id="Vector_16" d="M55.6179 41.8464C55.5732 41.4113 55.5732 40.9727 55.6179 40.5376C55.6179 40.3698 55.6851 40.202 55.5508 40.0566C56.3433 39.9259 57.1569 40.0309 57.8902 40.3586V41.7234C57.8902 41.8128 57.8902 41.9471 57.7671 41.9806C57.644 42.0142 57.5992 41.9806 57.5096 41.9806C57.0018 41.8077 56.4571 41.7729 55.9313 41.88C55.7858 41.9023 55.6963 41.9247 55.6179 41.8464Z" fill="black"/>
<path id="Vector_17" d="M55.439 48.6701V46.8467C55.5174 46.7684 55.6069 46.8467 55.6853 46.8467C56.1968 46.9684 56.7297 46.9684 57.2412 46.8467C57.2855 46.8279 57.333 46.8183 57.3811 46.8183C57.4292 46.8183 57.4768 46.8279 57.521 46.8467C57.6777 46.8467 57.6442 46.9921 57.6554 47.104V48.4464C56.9506 48.7207 56.1844 48.798 55.439 48.6701Z" fill="black"/>
<path id="Vector_18" d="M79.4714 49.2406C79.0579 49.2071 78.6424 49.2071 78.2289 49.2406C77.9939 49.2406 77.9043 49.2406 77.9155 48.9498V47.6969H80.0647C80.2214 47.6969 80.2661 47.7528 80.2661 47.8982V49.0952C80.2661 49.2518 80.2661 49.3077 80.0535 49.3077C79.8408 49.3077 79.6617 49.2518 79.4714 49.2406Z" fill="black"/>
<path id="Vector_19" d="M75.4753 41.7345V40.1349H77.714V41.701L75.4753 41.7345Z" fill="black"/>
<path id="Vector_20" d="M54.6666 50.583V52.2497C54.6666 52.2497 54.6666 52.328 54.5994 52.3728C54.0235 52.234 53.4723 52.0076 52.9652 51.7016C52.8644 51.7016 52.8868 51.5897 52.9652 51.5114C53.0995 50.9745 53.2226 50.3928 53.3681 49.8782C53.7801 50.1496 54.2145 50.3854 54.6666 50.583Z" fill="black"/>
<path id="Vector_21" d="M65.513 40.1349C65.7033 40.1349 65.7033 40.2803 65.7033 40.4146V41.9806C65.3669 42.2928 65.0118 42.5842 64.6399 42.8532V40.7949C64.6738 40.6818 64.6738 40.5612 64.6399 40.4481C64.9071 40.2865 65.204 40.18 65.513 40.1349Z" fill="black"/>
<path id="Vector_22" d="M49.3606 39.2967C49.3418 39.2165 49.2932 39.1464 49.2246 39.1007C49.156 39.055 49.0725 39.0371 48.9912 39.0506H45.6332C45.3197 39.0506 45.2638 39.1401 45.2638 39.431V48.9058C45.2638 49.2191 45.1742 49.2862 44.8832 49.275H42.9355C42.6557 49.275 42.5997 49.1855 42.5997 48.917V39.3974C42.5997 39.1066 42.5214 39.0506 42.2527 39.0618H38.6484C38.4469 39.0618 38.3686 39.0059 38.3798 38.7934V36.7015C38.3798 36.4666 38.4357 36.4107 38.6708 36.4107H47.7599C47.1872 35.6115 46.5468 34.8629 45.8458 34.1734C43.8449 32.1749 41.5863 30.4519 39.1297 29.05C31.5672 24.557 23.0482 21.916 14.2689 21.3426C12.1074 21.1819 9.93402 21.3707 7.83267 21.902C6.47524 22.2091 5.2111 22.8365 4.1459 23.7317C3.0807 24.6269 2.2454 25.7639 1.70982 27.0477C1.07832 28.6317 0.751723 30.3205 0.747179 32.0256C0.732099 33.8677 0.919785 35.7059 1.30686 37.5069C1.58931 39.1326 2.04719 40.7229 2.67246 42.2499C4.33916 46.1201 6.7722 49.6132 9.82512 52.519C13.7289 56.2173 18.798 58.4437 24.164 58.817C26.4515 58.9909 28.752 58.8555 31.0032 58.4142C36.0854 57.499 40.8219 55.2174 44.7041 51.8143C46.5646 50.2374 48.0551 48.2705 49.0696 46.0533C49.5698 45.0044 49.8534 43.8655 49.9034 42.7046C49.9534 41.5438 49.7688 40.3847 49.3606 39.2967ZM24.0968 47.4181C24.1022 47.5054 24.0831 47.5926 24.0415 47.6697C24 47.7468 23.9377 47.8107 23.8618 47.8543C22.592 48.671 21.1526 49.1875 19.653 49.3645C18.007 49.6196 16.3229 49.3122 14.8734 48.4919C14.0237 48.0199 13.3028 47.3468 12.7739 46.5316C12.2451 45.7163 11.9244 44.7839 11.84 43.816C11.6064 42.3298 11.87 40.8081 12.5899 39.4869C13.0722 38.6119 13.7605 37.8675 14.5952 37.3178C15.4299 36.7682 16.3859 36.43 17.3807 36.3324C18.4274 36.1467 19.501 36.178 20.535 36.4243C21.569 36.6706 22.5414 37.1267 23.3917 37.7642C23.5819 37.9096 23.6267 38.0103 23.4924 38.2117C23.1678 38.7151 22.8544 39.2184 22.5633 39.7442C22.4402 39.9456 22.373 39.9456 22.1939 39.8113C21.5218 39.2879 20.7363 38.9293 19.9004 38.7642C19.0645 38.599 18.2016 38.632 17.3807 38.8605C16.5911 39.0593 15.8876 39.5095 15.3767 40.1432C14.8658 40.7769 14.5752 41.5596 14.5488 42.373C14.4981 42.9692 14.5434 43.5698 14.6831 44.1516C14.8262 44.7454 15.1181 45.2931 15.5312 45.7432C15.9444 46.1932 16.4653 46.5309 17.0449 46.7245C17.7211 46.9669 18.4392 47.0709 19.1564 47.0306C19.8736 46.9902 20.5754 46.8063 21.2201 46.4896C21.3047 46.4616 21.3768 46.4049 21.4239 46.3293C21.4709 46.2536 21.4899 46.1639 21.4776 46.0757V44.2859C21.4776 44.0621 21.4776 43.9838 21.1865 43.9838H18.3434C18.1419 43.9838 18.0747 43.9838 18.0747 43.7265V41.9255C18.0747 41.7466 18.1307 41.7018 18.3098 41.7018H23.7834C24.0297 41.7018 24.1192 41.7018 24.1192 42.015C24.1043 43.8049 24.0968 45.6059 24.0968 47.4181ZM38.738 49.0848C38.1108 49.3735 37.4221 49.503 36.7329 49.462C36.0436 49.4211 35.3751 49.2108 34.7866 48.8499C34.052 48.3931 33.3819 47.84 32.7942 47.2055C32.1114 46.5008 31.4286 45.7848 30.757 45.0577C30.6279 44.9042 30.4642 44.7836 30.2793 44.7058C30.0944 44.628 29.8937 44.5952 29.6936 44.6103C28.966 44.6103 28.966 44.6103 28.966 45.3374V48.9506C28.966 49.1743 28.966 49.2638 28.675 49.2638H26.5594C26.3803 49.2638 26.3244 49.2638 26.3244 49.0289V36.6344C26.3244 36.4666 26.3244 36.4107 26.537 36.4107H32.4808C33.4642 36.4141 34.4294 36.6765 35.2792 37.1713C35.8063 37.4734 36.2488 37.9033 36.5658 38.4214C36.8827 38.9395 37.0639 39.5291 37.0925 40.1357C37.1515 40.6663 37.1049 41.2033 36.9555 41.7159C36.806 42.2284 36.5566 42.7064 36.2216 43.1222C35.8867 43.5381 35.4727 43.8836 35.0036 44.139C34.5345 44.3944 34.0195 44.5545 33.4882 44.6103C34.2114 45.395 35.01 46.1069 35.8724 46.7357C36.2472 46.987 36.6783 47.1419 37.1274 47.1868C37.5765 47.2317 38.0297 47.1651 38.4469 46.993C38.6596 46.9147 38.738 46.937 38.7603 47.172C38.7603 47.6977 38.8723 48.2235 38.9506 48.7492C38.9589 48.7852 38.9599 48.8225 38.9537 48.8589C38.9474 48.8953 38.934 48.9301 38.9143 48.9613C38.8945 48.9925 38.8687 49.0195 38.8385 49.0407C38.8082 49.0619 38.774 49.0769 38.738 49.0848Z" fill="black"/>
<path id="Vector_23" d="M28.9768 40.6272V38.9492C28.9768 38.815 28.9768 38.7031 29.1671 38.7031H32.6595C32.8953 38.7115 33.127 38.7673 33.3408 38.8672C33.5545 38.967 33.746 39.1089 33.9037 39.2842C34.0615 39.4596 34.1823 39.665 34.2589 39.888C34.3355 40.111 34.3664 40.3472 34.3497 40.5824C34.3633 40.8185 34.3299 41.0548 34.2516 41.2779C34.1733 41.501 34.0515 41.7063 33.8933 41.8821C33.7351 42.0579 33.5436 42.2006 33.3299 42.302C33.1163 42.4034 32.8846 42.4615 32.6483 42.4729C31.5289 42.5624 30.32 42.4729 29.1559 42.4729C28.988 42.4729 28.9768 42.3834 28.9768 42.2492V40.6272Z" fill="black"/>
</g>
<defs>
<clipPath id="clip0_68_6172">
<rect width="80" height="80" fill="white" transform="translate(0.590088)"/>
</clipPath>
</defs>
</svg>
