<svg width="98" height="80" viewBox="0 0 98 80" fill="none" xmlns="http://www.w3.org/2000/svg">
<g id="fleming-logo-white.svg" clip-path="url(#clip0_68_6202)">
<g id="Clip path group">
<mask id="mask0_68_6202" style="mask-type:luminance" maskUnits="userSpaceOnUse" x="0" y="27" width="98" height="26">
<g id="clip0_367_2142">
<path id="Vector" d="M97.0614 27H0.48999V53H97.0614V27Z" fill="white"/>
</g>
</mask>
<g mask="url(#mask0_68_6202)">
<g id="Group">
<path id="Vector_2" d="M4.61022 49.7498C4.61022 49.8148 4.61022 49.8148 4.61022 49.8798C4.61022 49.9448 4.61022 50.0098 4.61022 50.0748C4.61022 50.1398 4.61022 50.2048 4.61022 50.2048L4.41708 51.1798C4.3527 51.4398 4.3527 51.5698 4.3527 51.6348C4.3527 51.6348 4.3527 51.6998 4.3527 51.7648H3.51575C3.51575 51.6998 3.51575 51.6998 3.51575 51.6348C3.51575 51.5698 3.51575 51.5698 3.51575 51.5048C3.38698 51.6348 3.3226 51.6998 3.19384 51.7648C3.12946 51.8298 3.0007 51.8298 2.80756 51.8298C2.61441 51.8298 2.42127 51.7648 2.35689 51.6348C2.22813 51.5048 2.16375 51.3748 2.16375 51.1798C2.16375 51.0498 2.16375 50.9848 2.22813 50.8548C2.29251 50.7248 2.35689 50.6598 2.42127 50.5298C2.55003 50.4648 2.61441 50.3998 2.74317 50.3348C2.87194 50.2698 3.0007 50.2698 3.12946 50.2048C3.25822 50.2048 3.45136 50.1398 3.64451 50.1398V50.0098C3.64451 49.9448 3.64451 49.8798 3.64451 49.8148C3.64451 49.6198 3.58013 49.5548 3.45136 49.5548C3.3226 49.5548 3.25822 49.5548 3.19384 49.6848C3.12946 49.8148 3.12946 49.8798 3.06508 50.0098L2.29251 49.8798C2.42127 49.3598 2.80756 49.0998 3.45136 49.0998C3.64451 49.0998 3.77327 49.0998 3.90203 49.1648C4.03079 49.2298 4.15956 49.2948 4.22394 49.4248C4.54584 49.4898 4.61022 49.6198 4.61022 49.7498ZM71.7596 27.2598H71.0514L68.6049 35.7098H71.1801L72.5965 42.0148H75.3649L71.7596 27.2598ZM67.8323 38.2448L66.7378 42.0148H69.5062L70.4719 38.2448C70.5363 38.2448 67.8323 38.2448 67.8323 38.2448ZM62.8106 38.2448H65.4502L66.094 35.7098H63.5188L62.8106 38.2448ZM92.3615 30.2498C92.7477 30.8348 92.7477 31.4848 92.8121 32.1348C92.8765 34.2148 92.8765 36.8148 92.7477 38.2448C92.619 38.8948 92.5546 39.5448 91.7177 39.9348C91.3957 39.9998 91.1382 40.1298 90.7519 40.1298V29.5348C91.3957 29.5348 92.0396 29.7948 92.3615 30.2498ZM88.1123 27.5848V42.0148C89.5931 42.0148 91.2026 42.1448 92.4902 41.8198C94.9367 41.1698 95.3874 38.9598 95.6449 37.0748C95.7736 34.8648 95.9024 31.6798 94.8079 29.4048C93.6491 27.3248 90.5588 27.6498 88.1123 27.5848ZM81.7386 29.4698C82.318 29.9248 82.3824 30.5748 82.4468 31.2248C82.7043 33.5648 82.7687 36.0998 82.4468 38.3748C82.318 39.1548 82.1893 40.3248 81.0948 40.3248C80.7729 40.3248 80.451 40.1948 80.2578 39.9998C79.8716 39.5448 79.8072 38.9598 79.7428 38.3098C79.4853 35.9048 79.3565 33.6298 79.7428 31.2898C79.8716 30.5748 80.0647 29.4698 80.966 29.3398C81.2236 29.2748 81.4811 29.2748 81.7386 29.4698ZM80.2578 27.3898C77.0388 28.2348 77.1032 31.2248 76.7813 33.5648C76.7169 35.9048 76.6525 38.3748 77.747 40.4548C78.3264 41.4298 79.5497 42.3398 80.966 42.2748C82.2537 42.2748 83.4125 41.7548 84.1851 40.7798C85.5371 38.4398 85.4727 35.6448 85.4083 32.9798C85.2152 31.4198 85.022 29.9248 84.0563 28.6248C83.2194 27.5198 81.7386 27.1298 80.2578 27.3898ZM59.2697 27.8448L58.6258 29.7298C58.1752 29.5998 57.7245 29.3398 57.1451 29.3398C56.5013 29.3398 56.0506 29.7948 55.7931 30.2498C55.2137 31.7448 55.278 33.4998 55.2137 35.2548C55.2137 36.7498 55.2137 38.3098 55.7931 39.6098C55.9862 39.9998 56.4369 40.2598 57.0163 40.2598C57.2095 40.1948 57.467 40.3248 57.6601 40.1948V35.7098C57.7889 35.1248 56.5013 34.4748 56.7588 33.8898H60.2998V41.2998C60.1066 41.5598 59.7203 41.6898 59.3984 41.8198C58.2396 42.2748 56.5013 42.4048 55.278 41.8848C52.8316 40.7798 52.7672 38.5048 52.574 36.4248C52.5097 33.7598 52.4453 31.0948 53.7973 28.8848C55.4068 26.8048 57.8533 27.1948 59.2697 27.8448ZM34.2255 27.3248L29.2681 34.4748L24.3108 27.3248H23.8601V42.0148H26.4354V35.1898L29.2681 39.2198L32.1009 35.1898V42.0148H34.6761V27.3248H34.2255ZM47.5523 34.4748V27.5848H50.0632V42.2098H49.6769L44.7196 35.1898V42.0148H42.1443V27.3248H42.595L47.5523 34.4748ZM39.5691 42.0148H36.9295V27.5848H39.5691V42.0148ZM20.7055 27.5848L21.478 29.4698H18.9672V33.7598H21.5424V35.7098H18.9672V40.1948H21.2849V41.9498H16.1988L16.2632 27.5198H20.7055V27.5848ZM11.8209 40.1298H14.2674V42.0148H9.37441V27.5848H11.8853V40.1298H11.8209ZM6.67041 27.5848C6.67041 27.5848 7.24984 28.9498 7.44298 29.4698H4.73898V33.7598H7.3786V35.6448H4.73898V41.9498H2.09937V27.5198H6.67041V27.5848ZM12.3359 49.7498C12.3359 49.8148 12.3359 49.8148 12.3359 49.8798C12.3359 49.9448 12.3359 50.0098 12.3359 50.0748C12.3359 50.1398 12.3359 50.2048 12.3359 50.2048L12.0784 51.1798C12.014 51.4398 12.014 51.5698 12.014 51.6348C12.014 51.6348 12.014 51.6998 12.014 51.7648H11.3059C11.3059 51.6998 11.3059 51.6998 11.3059 51.6348C11.3059 51.5698 11.3059 51.5698 11.3059 51.5048C11.1771 51.6348 11.1127 51.6998 10.9839 51.7648C10.9196 51.8298 10.7908 51.8298 10.5977 51.8298C10.4045 51.8298 10.2114 51.7648 10.147 51.6348C10.0182 51.5048 9.95384 51.3748 9.95384 51.1798C9.95384 51.0498 9.95384 50.9848 10.0182 50.8548C10.0826 50.7248 10.147 50.6598 10.2114 50.5298C10.3401 50.4648 10.4045 50.3998 10.5333 50.3348C10.662 50.2698 10.7908 50.2698 10.9839 50.2048C11.1127 50.2048 11.3059 50.1398 11.499 50.1398V50.0098C11.499 49.9448 11.499 49.8798 11.499 49.8148C11.499 49.6198 11.4346 49.5548 11.3059 49.5548C11.1771 49.5548 11.1127 49.5548 11.0483 49.6848C10.9839 49.7498 10.9839 49.8798 10.9196 50.0098L10.147 49.8798C10.2757 49.3598 10.662 49.0998 11.3059 49.0998C11.499 49.0998 11.6278 49.0998 11.7565 49.1648C11.8853 49.2298 12.014 49.2948 12.0784 49.4248C12.2716 49.4898 12.3359 49.6198 12.3359 49.7498ZM11.4346 50.5298C11.3059 50.5298 11.1771 50.5948 11.0483 50.6598C10.9839 50.6598 10.9196 50.7248 10.9196 50.7898C10.8552 50.8548 10.8552 50.9198 10.7908 50.9848C10.7908 51.0498 10.7264 51.1148 10.7264 51.1798C10.7264 51.2448 10.7264 51.3098 10.7908 51.3748C10.8552 51.4398 10.9196 51.4398 10.9839 51.4398C11.1771 51.4398 11.3059 51.2448 11.3702 50.8548L11.4346 50.5298ZM15.1043 49.5548V49.6198C15.1043 49.7498 15.1043 49.8798 15.0399 50.1398L14.6537 51.7648H13.8811L14.203 50.1398C14.2674 49.9448 14.2674 49.8148 14.2674 49.6848V49.6198C14.2674 49.6198 14.203 49.6198 14.1386 49.6198C14.0742 49.6198 14.0098 49.6198 14.0098 49.6848C13.9455 49.7498 13.9455 49.7498 13.8811 49.8148C13.8811 49.8798 13.8167 50.0098 13.8167 50.1398L13.4948 51.7648H12.6578L13.1729 49.0998H13.9455L13.8811 49.4248C14.0098 49.2948 14.0742 49.1648 14.203 49.0998C14.3318 49.0348 14.4605 49.0348 14.5893 49.0348C14.6537 49.0348 14.7824 49.0348 14.8468 49.0998C14.9112 49.1648 14.9756 49.1648 15.0399 49.2298C15.0399 49.3598 15.1043 49.4248 15.1043 49.5548ZM17.7439 49.9448C17.7439 50.0098 17.7439 50.0098 17.7439 49.9448C17.7439 50.0098 17.7439 50.0098 17.7439 50.0098C17.7439 50.0098 17.7439 50.0098 17.7439 50.0748H17.0358C17.0358 50.0098 17.0358 49.9448 17.0358 49.8798C17.0358 49.6848 16.9714 49.5548 16.7782 49.5548C16.7138 49.5548 16.6495 49.6198 16.5851 49.6848C16.5207 49.7498 16.4563 49.8798 16.4563 50.0748C16.3919 50.2048 16.3919 50.4648 16.3276 50.7248C16.3276 50.9198 16.3276 50.9848 16.3276 51.0498C16.3276 51.1148 16.3276 51.1798 16.3919 51.2448C16.3919 51.3098 16.4563 51.3098 16.5851 51.3098C16.7138 51.3098 16.7782 51.2448 16.8426 51.1798C16.907 51.1148 16.9714 50.9198 17.0358 50.7248L17.7439 50.8548C17.6796 51.1798 17.5508 51.4398 17.3577 51.5698C17.1645 51.7648 16.907 51.8298 16.5851 51.8298C16.2632 51.8298 16.07 51.7648 15.8769 51.5698C15.7481 51.4398 15.6838 51.3748 15.6838 51.2448C15.6838 51.1148 15.6194 50.9198 15.6194 50.7248C15.6194 50.5948 15.6194 50.4648 15.6838 50.3348C15.6838 50.2048 15.7481 50.0748 15.8125 49.9448C15.8769 49.8148 15.8769 49.7498 15.9413 49.6198C16.07 49.4248 16.1988 49.2948 16.3919 49.1648C16.5851 49.0998 16.7782 49.0348 17.0358 49.0348C17.2289 49.0348 17.422 49.0348 17.4864 49.1648C17.6152 49.2298 17.7439 49.3598 17.8083 49.4898C17.6796 49.6198 17.7439 49.8148 17.7439 49.9448ZM20.3192 50.0748C20.3192 50.1398 20.3192 50.3348 20.2548 50.5298H18.9028V50.5948C18.9028 50.5948 18.9028 50.6598 18.9028 50.7248C18.9028 50.7898 18.9028 50.7898 18.9028 50.7898V50.9198C18.9028 51.0498 18.9028 51.1148 18.9672 51.1798C18.9672 51.2448 19.0316 51.3098 19.1603 51.3098C19.2891 51.3098 19.3535 51.2448 19.4178 51.1798C19.4822 51.1148 19.4822 50.9848 19.5466 50.8548L20.1904 50.9848C20.126 51.1148 20.126 51.2448 20.0617 51.3748C19.9973 51.5048 19.9329 51.5698 19.8685 51.6348C19.8041 51.6998 19.6754 51.7648 19.5466 51.8298C19.4179 51.8948 19.2891 51.8948 19.0959 51.8948C18.7097 51.8948 18.4521 51.8298 18.3234 51.5698C18.1946 51.3748 18.1302 51.1148 18.1302 50.7898C18.1302 50.5948 18.1302 50.3998 18.1946 50.2048C18.259 50.0098 18.3234 49.8148 18.3878 49.6848C18.5165 49.4898 18.6453 49.3598 18.8384 49.2298C19.0316 49.0998 19.2247 49.0998 19.4822 49.0998C19.6754 49.0998 19.8041 49.0998 19.9329 49.1648C20.0617 49.2298 20.126 49.2948 20.1904 49.3598C20.2548 49.4248 20.3192 49.5548 20.3192 49.6848C20.3192 49.8148 20.3192 49.9448 20.3192 50.0748ZM19.5466 49.8798C19.5466 49.7498 19.5466 49.6848 19.5466 49.6198C19.5466 49.5548 19.4822 49.5548 19.3535 49.5548C19.1603 49.5548 19.0316 49.7498 18.9672 50.2048H19.5466C19.5466 50.0098 19.5466 49.8798 19.5466 49.8798ZM23.3451 48.1898L22.6369 51.7648H21.9287L21.9931 51.4398C21.9287 51.5048 21.8643 51.5698 21.7999 51.6348C21.7356 51.6998 21.6712 51.6998 21.6068 51.7648C21.5424 51.7648 21.478 51.7648 21.3493 51.7648C21.2205 51.7648 21.0274 51.6998 20.963 51.6348C20.8342 51.5048 20.7699 51.3748 20.7699 51.2448C20.7699 51.1798 20.7699 51.1148 20.7699 50.9848V50.8548C20.7699 50.6598 20.7699 50.4648 20.8342 50.2698C20.8986 50.0748 20.963 49.8798 21.0274 49.7498C21.1561 49.5548 21.2849 49.3598 21.4137 49.2298C21.5424 49.0998 21.7356 49.0348 21.8643 49.0348C21.9931 49.0348 22.1218 49.0348 22.1862 49.0998C22.2506 49.1648 22.315 49.2298 22.3794 49.3598L22.6369 48.1898H23.3451ZM22.2506 49.8148C22.2506 49.7498 22.2506 49.6848 22.1862 49.6198C22.1218 49.6198 22.1218 49.6198 22.0575 49.6198C22.0575 49.6198 21.9931 49.6198 21.9287 49.6848C21.8643 49.7498 21.8643 49.8148 21.7999 49.9448C21.7356 50.2048 21.6712 50.3998 21.6712 50.5948C21.6712 50.7898 21.6068 50.9198 21.6068 51.0498C21.6068 51.2448 21.6712 51.3098 21.7356 51.3098C21.8643 51.3098 21.9931 51.1148 22.0575 50.7898L22.1862 49.9448C22.2506 49.8798 22.2506 49.8148 22.2506 49.8148ZM27.5298 50.1398C27.5298 50.4648 27.4655 50.7248 27.4011 50.9848C27.2723 51.2448 27.1436 51.4398 27.0148 51.5698C26.886 51.6348 26.7573 51.6998 26.6285 51.7648C26.4998 51.8298 26.371 51.8298 26.1778 51.8298C25.9847 51.8298 25.8559 51.7648 25.7272 51.6998C25.5984 51.6348 25.4697 51.5048 25.4053 51.3098C25.3409 51.1798 25.2765 50.9848 25.2765 50.7248C25.2765 49.9448 25.4697 49.4248 25.9203 49.1648C26.0491 49.0998 26.1135 49.0348 26.2422 49.0348C26.371 49.0348 26.4998 49.0348 26.6285 49.0348C26.8217 49.0348 26.9504 49.0998 27.0792 49.1648C27.2079 49.2298 27.3367 49.3598 27.4011 49.5548C27.5298 49.7498 27.5298 49.8798 27.5298 50.1398ZM26.7573 49.8798C26.7573 49.8148 26.7573 49.6848 26.7573 49.6848C26.7573 49.6198 26.6929 49.6198 26.6285 49.6198C26.4998 49.6198 26.4354 49.6848 26.371 49.8148C26.3066 49.9448 26.2422 50.2048 26.1778 50.5298C26.1135 50.7248 26.1135 50.9198 26.1135 51.0498C26.1135 51.2448 26.1778 51.3098 26.2422 51.3098C26.371 51.3098 26.4354 51.2448 26.4354 51.1798C26.4998 51.1148 26.4998 50.9198 26.5641 50.6598C26.6285 50.4648 26.6285 50.3348 26.6285 50.1398C26.7573 50.0748 26.7573 49.9448 26.7573 49.8798ZM30.3626 49.1648L29.8476 51.8298H29.075L29.1394 51.5048C29.0106 51.6348 28.9462 51.7648 28.8175 51.8298C28.7531 51.8948 28.6243 51.8948 28.4312 51.8948C28.3024 51.8948 28.1737 51.8298 28.0449 51.7648C27.9805 51.6998 27.9161 51.5698 27.9161 51.3748C27.9161 51.2448 27.9161 51.1148 27.9805 50.9198L28.3024 49.2298H29.075L28.8175 50.8548C28.8175 50.9848 28.7531 51.1148 28.7531 51.1798C28.7531 51.2448 28.7531 51.2448 28.7531 51.2448C28.7531 51.2448 28.8175 51.2448 28.8818 51.2448C28.9462 51.2448 29.0106 51.1798 29.075 51.1148C29.1394 51.0498 29.1394 50.8548 29.2038 50.6598L29.5257 49.0348L30.3626 49.1648ZM32.5516 49.1648L32.4228 49.7498H31.9721L31.779 50.7898C31.779 50.9198 31.7146 51.0498 31.7146 51.0498C31.7146 51.1798 31.779 51.2448 31.9721 51.2448C31.9721 51.2448 32.1009 51.2448 32.2297 51.2448L32.0365 51.8298C31.8434 51.8298 31.6502 51.8948 31.5215 51.8948C31.2639 51.8948 31.0708 51.8298 31.0064 51.7648C30.8777 51.6348 30.8133 51.5048 30.8133 51.3098C30.8133 51.3098 30.8133 51.2448 30.8133 51.1798C30.8133 51.1148 30.8133 50.9848 30.8777 50.8548L31.0708 49.8148H30.7489L30.8777 49.2298H31.2639L31.4571 48.4498H32.2297L32.0365 49.0998L32.5516 49.1648ZM34.998 49.9448C34.998 50.0098 34.998 50.0098 34.998 49.9448C34.998 50.0098 34.998 50.0098 34.998 50.0098C34.998 50.0098 34.998 50.0098 34.998 50.0748H34.2898C34.2898 50.0098 34.2898 49.9448 34.2898 49.8798C34.2898 49.6848 34.2255 49.5548 34.0323 49.5548C33.9679 49.5548 33.9036 49.6198 33.8392 49.6848C33.7748 49.7498 33.7104 49.8798 33.7104 50.0748C33.646 50.2048 33.646 50.4648 33.5817 50.7248C33.5817 50.9198 33.5817 50.9848 33.5817 51.0498C33.5817 51.1148 33.5817 51.1798 33.646 51.2448C33.646 51.3098 33.7104 51.3098 33.8392 51.3098C33.9036 51.3098 34.0323 51.2448 34.0967 51.1798C34.1611 51.1148 34.2255 50.9198 34.2898 50.7248L34.998 50.8548C34.9337 51.1798 34.8049 51.4398 34.6118 51.5698C34.4186 51.6998 34.1611 51.8298 33.8392 51.8298C33.5173 51.8298 33.3241 51.7648 33.131 51.5698C33.0022 51.4398 32.9378 51.3748 32.9378 51.2448C32.9378 51.1148 32.8735 50.9198 32.8735 50.7248C32.8735 50.5948 32.8735 50.4648 32.9378 50.3348C32.9378 50.2048 33.0022 50.0748 33.0666 49.9448C33.131 49.8148 33.131 49.7498 33.1954 49.6198C33.3241 49.4248 33.4529 49.2948 33.646 49.1648C33.8392 49.0998 34.0323 49.0348 34.2898 49.0348C34.483 49.0348 34.6761 49.0348 34.8049 49.1648C34.9337 49.2948 35.0624 49.3598 35.1268 49.4898C34.9337 49.6198 34.998 49.8148 34.998 49.9448ZM37.5733 50.1398C37.5733 50.4648 37.5089 50.7248 37.4445 50.9848C37.3801 51.2448 37.187 51.4398 37.0582 51.5698C36.9295 51.6348 36.8007 51.6998 36.6719 51.7648C36.5432 51.8298 36.4144 51.8298 36.2213 51.8298C36.0281 51.8298 35.8994 51.7648 35.7706 51.6998C35.6418 51.6348 35.5131 51.5048 35.4487 51.3098C35.3843 51.1798 35.3199 50.9848 35.3199 50.7248C35.3199 49.9448 35.5131 49.4248 35.9638 49.1648C36.0925 49.0998 36.1569 49.0348 36.2857 49.0348C36.4144 49.0348 36.5432 49.0348 36.6719 49.0348C36.8651 49.0348 36.9938 49.0998 37.1226 49.1648C37.2514 49.2298 37.3801 49.3598 37.4445 49.5548C37.5733 49.7498 37.5733 49.8798 37.5733 50.1398ZM36.8007 49.8798C36.8007 49.8148 36.8007 49.6848 36.8007 49.6848C36.8007 49.6198 36.7363 49.6198 36.6719 49.6198C36.5432 49.6198 36.4788 49.6848 36.4144 49.8148C36.35 49.9448 36.2857 50.2048 36.2213 50.5298C36.1569 50.7248 36.1569 50.9198 36.1569 51.0498C36.1569 51.2448 36.2213 51.3098 36.2857 51.3098C36.35 51.3098 36.4788 51.2448 36.4788 51.1798C36.5432 51.1148 36.5432 50.9198 36.6076 50.6598C36.6719 50.4648 36.6719 50.3348 36.6719 50.1398C36.7363 50.0748 36.8007 49.9448 36.8007 49.8798ZM41.5005 49.5548C41.5005 49.6198 41.5005 49.8148 41.4361 50.0748L41.1142 51.7648H40.3417L40.6636 50.0748C40.6636 49.8798 40.7279 49.7498 40.7279 49.6848C40.7279 49.6198 40.6636 49.5548 40.5992 49.5548C40.5348 49.5548 40.4704 49.5548 40.406 49.6848C40.3417 49.7498 40.3417 49.8798 40.2773 50.0748L39.9554 51.7648H39.1184L39.4403 50.0748C39.5047 49.8798 39.5047 49.7498 39.5047 49.7498C39.5047 49.6198 39.4403 49.6198 39.3759 49.6198C39.3116 49.6198 39.2472 49.6848 39.1828 49.7498C39.1184 49.8148 39.1184 49.9448 39.054 50.1398L38.7321 51.7648H37.8952L38.4102 49.0998H39.1828L39.1184 49.4248C39.1828 49.2948 39.3116 49.1648 39.4403 49.0998C39.5691 49.0348 39.6978 49.0348 39.8266 49.0348C39.9554 49.0348 40.0841 49.0348 40.1485 49.1648C40.2129 49.2298 40.2773 49.3598 40.3417 49.4898C40.4704 49.3598 40.5348 49.2298 40.6636 49.1648C40.7923 49.0998 40.9211 49.0998 41.0498 49.0998C41.1786 49.0998 41.3074 49.1648 41.4361 49.2298C41.4361 49.2948 41.5005 49.4248 41.5005 49.5548ZM44.1401 50.0748C44.1401 50.1398 44.1401 50.3348 44.0758 50.5298H42.7237V50.5948C42.7237 50.5948 42.7237 50.6598 42.7237 50.7248C42.7237 50.7898 42.7237 50.7898 42.7237 50.7898V50.9198C42.7237 51.0498 42.7237 51.1148 42.7881 51.1798C42.7881 51.2448 42.8525 51.3098 42.9813 51.3098C43.11 51.3098 43.1744 51.2448 43.2388 51.1798C43.3032 51.1148 43.3032 50.9848 43.3676 50.8548L44.0114 50.9848C43.947 51.1148 43.947 51.2448 43.8826 51.3748C43.8182 51.5048 43.7538 51.5698 43.6895 51.6348C43.6251 51.6998 43.4963 51.7648 43.3676 51.8298C43.2388 51.8948 43.11 51.8948 42.9169 51.8948C42.5306 51.8948 42.2731 51.8298 42.1443 51.5698C42.0156 51.3748 41.9512 51.1148 41.9512 50.7898C41.9512 50.5948 41.9512 50.3998 42.0156 50.2048C42.0799 50.0098 42.1443 49.8148 42.2087 49.6848C42.3375 49.4898 42.4662 49.3598 42.6594 49.2298C42.8525 49.0998 43.0457 49.0998 43.2388 49.0998C43.4319 49.0998 43.5607 49.0998 43.6895 49.1648C43.8182 49.2298 43.8826 49.2948 43.947 49.3598C44.0114 49.4248 44.0758 49.5548 44.0758 49.6848C44.1401 49.8148 44.1401 49.9448 44.1401 50.0748ZM43.3676 49.8798C43.3676 49.7498 43.3676 49.6848 43.3032 49.6198C43.3032 49.5548 43.2388 49.5548 43.11 49.5548C42.9169 49.5548 42.7881 49.7498 42.7237 50.2048H43.3032C43.3676 50.0098 43.3676 49.8798 43.3676 49.8798ZM46.7154 49.7498L46.1359 49.9448C46.0716 49.6848 45.9428 49.5548 45.814 49.5548C45.7497 49.5548 45.6853 49.5548 45.6209 49.6198C45.5565 49.6848 45.5565 49.7498 45.5565 49.8148C45.5565 49.8798 45.5565 49.8798 45.6209 49.9448C45.6209 50.0098 45.6853 50.0098 45.7497 50.0098C45.9428 50.1398 46.1359 50.2048 46.2003 50.2048C46.2647 50.2048 46.3291 50.2698 46.4578 50.3348C46.5222 50.3998 46.5866 50.4648 46.651 50.5298C46.7154 50.5948 46.7154 50.7248 46.7154 50.7898C46.7154 51.1148 46.651 51.3098 46.4578 51.5048C46.2647 51.6998 46.0072 51.7648 45.6209 51.7648C45.4921 51.7648 45.3634 51.7648 45.2346 51.6998C45.1058 51.6998 44.9771 51.6348 44.9127 51.5698C44.8483 51.5048 44.7839 51.4398 44.7196 51.3748C44.6552 51.3098 44.5908 51.1798 44.5908 51.0498L45.2346 50.9198C45.299 51.1798 45.4278 51.3098 45.6209 51.3098C45.7497 51.3098 45.814 51.3098 45.8784 51.2448C45.9428 51.1798 45.9428 51.1148 45.9428 50.9848C45.9428 50.9198 45.814 50.7898 45.6209 50.6598C45.4278 50.5298 45.2346 50.4648 45.1702 50.3998C45.1058 50.3348 44.9771 50.2698 44.9127 50.1398C44.8483 50.0748 44.8483 49.9448 44.8483 49.7498C44.8483 49.6198 44.8483 49.5548 44.9127 49.4248C44.9771 49.2948 45.0415 49.2298 45.1058 49.1648C45.2346 49.0998 45.299 49.0348 45.4278 48.9698C45.5565 48.9048 45.6853 48.9048 45.8784 48.9048C46.3291 49.0348 46.651 49.2948 46.7154 49.7498ZM51.4796 48.1898L50.7714 51.7648H50.0632L50.1276 51.4398C50.0632 51.5048 49.9988 51.5698 49.9344 51.6348C49.87 51.6998 49.8057 51.6998 49.7413 51.7648C49.6769 51.7648 49.6125 51.7648 49.4837 51.7648C49.355 51.7648 49.1618 51.6998 49.0975 51.6348C48.9687 51.5048 48.9043 51.3748 48.9043 51.2448C48.9043 51.1798 48.9043 51.1148 48.9043 50.9848V50.8548C48.9043 50.6598 48.9043 50.4648 48.9687 50.2698C49.0331 50.0748 49.0975 49.8798 49.1618 49.7498C49.2906 49.5548 49.4194 49.3598 49.5481 49.2298C49.6769 49.0998 49.87 49.0348 49.9988 49.0348C50.1276 49.0348 50.2563 49.0348 50.3207 49.0998C50.3851 49.1648 50.4495 49.2298 50.5138 49.3598L50.7714 48.1898H51.4796ZM50.3207 49.8148C50.3207 49.7498 50.3207 49.6848 50.2563 49.6198C50.1919 49.6198 50.1919 49.6198 50.1276 49.6198C50.1276 49.6198 50.0632 49.6198 49.9988 49.6848C49.9344 49.7498 49.9344 49.8148 49.87 49.9448C49.8057 50.2048 49.7413 50.3998 49.7413 50.5948C49.7413 50.7898 49.6769 50.9198 49.6769 51.0498C49.6769 51.2448 49.7413 51.3098 49.8057 51.3098C49.9344 51.3098 50.0632 51.1148 50.1276 50.7898L50.2563 49.9448C50.3207 49.8798 50.3207 49.8148 50.3207 49.8148ZM53.7973 50.0748C53.7973 50.1398 53.7973 50.3348 53.7329 50.5298H52.3809V50.5948C52.3809 50.5948 52.3809 50.6598 52.3809 50.7248C52.3809 50.7898 52.3809 50.7898 52.3809 50.7898V50.9198C52.3809 51.0498 52.3809 51.1148 52.4453 51.1798C52.4453 51.2448 52.5097 51.3098 52.6384 51.3098C52.7672 51.3098 52.8316 51.2448 52.8959 51.1798C52.9603 51.1148 52.9603 50.9848 53.0247 50.8548L53.6685 50.9848C53.6041 51.1148 53.6041 51.2448 53.5398 51.3748C53.4754 51.5048 53.411 51.5698 53.3466 51.6348C53.2822 51.6998 53.1535 51.7648 53.0247 51.8298C52.8959 51.8948 52.7672 51.8948 52.574 51.8948C52.1878 51.8948 51.9302 51.8298 51.8015 51.5698C51.6727 51.3748 51.6083 51.1148 51.6083 50.7898C51.6083 50.5948 51.6083 50.3998 51.6727 50.2048C51.7371 50.0098 51.8015 49.8148 51.8659 49.6848C51.9946 49.4898 52.1234 49.3598 52.3165 49.2298C52.5097 49.0998 52.7028 49.0998 52.9603 49.0998C53.1535 49.0998 53.2822 49.0998 53.411 49.1648C53.5397 49.2298 53.6041 49.2948 53.6685 49.3598C53.7329 49.4248 53.7973 49.5548 53.7973 49.6848C53.7973 49.8148 53.7973 49.9448 53.7973 50.0748ZM53.0247 49.8798C53.0247 49.7498 53.0247 49.6848 53.0247 49.6198C53.0247 49.5548 52.9603 49.5548 52.8316 49.5548C52.6384 49.5548 52.5097 49.7498 52.4453 50.2048H53.0247C53.0247 50.0098 53.0247 49.8798 53.0247 49.8798ZM56.4369 49.7498L55.8575 49.9448C55.7931 49.6848 55.6643 49.5548 55.5356 49.5548C55.4712 49.5548 55.4068 49.5548 55.3424 49.6198C55.2137 49.6848 55.2137 49.7498 55.2137 49.8148C55.2137 49.8798 55.2137 49.8798 55.278 49.9448C55.278 50.0098 55.3424 50.0098 55.4068 50.0098C55.5999 50.1398 55.7931 50.2048 55.8575 50.2048C55.9218 50.2048 55.9862 50.2698 56.115 50.3348C56.1794 50.3998 56.2437 50.4648 56.3081 50.5298C56.3725 50.5948 56.3725 50.7248 56.3725 50.7898C56.3725 51.1148 56.3081 51.3098 56.115 51.5048C55.9218 51.6998 55.6643 51.7648 55.278 51.7648C55.1493 51.7648 55.0205 51.7648 54.8917 51.6998C54.763 51.6998 54.6342 51.6348 54.5698 51.5698C54.5055 51.5048 54.4411 51.4398 54.3767 51.3748C54.3123 51.3098 54.2479 51.1798 54.2479 51.0498L54.8917 50.9198C54.9561 51.1798 55.0849 51.3098 55.278 51.3098C55.3424 51.3098 55.4712 51.3098 55.5356 51.2448C55.5999 51.1798 55.5999 51.1148 55.5999 50.9848C55.5999 50.9198 55.4712 50.7898 55.278 50.6598C55.0849 50.5298 54.8918 50.4648 54.8274 50.3998C54.763 50.3348 54.6342 50.2698 54.6342 50.1398C54.5698 50.0748 54.5698 49.9448 54.5698 49.7498C54.5698 49.6198 54.5698 49.5548 54.6342 49.4248C54.6986 49.2948 54.763 49.2298 54.8917 49.1648C54.9561 49.0998 55.0849 49.0348 55.2137 48.9698C55.2137 49.0998 55.3424 49.0998 55.4712 49.0998C55.9862 49.0348 56.3081 49.2948 56.4369 49.7498ZM58.1752 48.1898L58.0464 48.9048H57.2095L57.3382 48.1898H58.1752ZM57.982 49.1648L57.467 51.8298H56.63L57.1451 49.1648H57.982ZM60.8148 48.5148L60.7504 48.9698C60.7504 48.9698 60.686 48.9698 60.6217 48.9698C60.5573 48.9698 60.4929 48.9698 60.4285 49.0348C60.3641 49.0348 60.3641 49.0998 60.2998 49.2298C60.4285 49.2948 60.4929 49.4248 60.5573 49.4898C60.6217 49.5548 60.6217 49.6848 60.6217 49.8798C60.6217 50.0098 60.5573 50.2048 60.4929 50.3348C60.4285 50.4648 60.2997 50.5948 60.1066 50.6598C59.9778 50.7248 59.7847 50.7898 59.5916 50.7898C59.4628 50.7898 59.334 50.7898 59.2053 50.7248C59.1409 50.7898 59.0765 50.7898 59.0765 50.8548C59.0765 50.8548 59.0121 50.9198 59.0121 50.9848C59.0121 51.0498 59.0121 51.0498 59.0765 51.1148C59.1409 51.1148 59.2053 51.1798 59.2697 51.1798C59.334 51.1798 59.4628 51.1798 59.7203 51.2448C59.9778 51.2448 60.1066 51.3098 60.2354 51.4398C60.3641 51.5698 60.4285 51.6998 60.4285 51.8298C60.4285 52.0248 60.3641 52.2198 60.2354 52.3498C60.1066 52.4798 59.9778 52.6098 59.7203 52.6748C59.5272 52.7398 59.2053 52.8048 58.8834 52.8048C58.6902 52.8048 58.5615 52.8048 58.4327 52.7398C58.3039 52.6748 58.1752 52.6098 58.1108 52.5448C58.0464 52.4798 57.982 52.3498 57.982 52.2198C57.982 52.0898 58.0464 51.9598 58.1108 51.8948C58.1752 51.8298 58.3683 51.7648 58.5615 51.6998C58.3683 51.5698 58.3039 51.4398 58.3039 51.3098C58.3039 51.1798 58.3683 51.0498 58.4327 50.9198C58.4971 50.7898 58.6902 50.7248 58.8834 50.5948C58.819 50.5298 58.6902 50.3998 58.6902 50.3348C58.6902 50.2698 58.6258 50.1398 58.6258 50.0098C58.6258 49.8798 58.6902 49.7498 58.7546 49.5548C58.819 49.3598 58.9477 49.2948 59.1409 49.2298C59.334 49.1648 59.5272 49.0998 59.7203 49.0998C59.8491 49.0998 59.9135 49.0998 60.0422 49.1648C60.1066 48.9698 60.171 48.8398 60.2354 48.7098C60.2998 48.6448 60.4285 48.5798 60.5573 48.5798H60.6217C60.7504 48.5148 60.8148 48.5148 60.8148 48.5148ZM59.8491 49.7498C59.8491 49.6848 59.8491 49.6198 59.7847 49.5548C59.7847 49.4898 59.7203 49.4898 59.5916 49.4898C59.3984 49.4898 59.2697 49.6848 59.2697 50.0098C59.2697 50.0748 59.2697 50.1398 59.334 50.2048C59.334 50.2698 59.3984 50.2698 59.5272 50.2698C59.7847 50.3348 59.8491 50.1398 59.8491 49.7498ZM59.7203 51.9598C59.7203 51.8298 59.4628 51.7648 58.8834 51.6998C58.7546 51.7648 58.6902 51.8298 58.6902 52.0248C58.6902 52.0898 58.7546 52.1548 58.819 52.2198C58.8834 52.2848 59.0121 52.2848 59.2053 52.2848C59.3984 52.2848 59.5272 52.2848 59.5916 52.2198C59.6559 52.1548 59.7203 52.0898 59.7203 51.9598ZM63.3257 49.5548V49.6198C63.3257 49.7498 63.3257 49.8798 63.2613 50.1398L62.9394 51.7648H62.1668L62.4887 50.1398C62.5531 49.9448 62.5531 49.8148 62.5531 49.6848V49.6198C62.5531 49.6198 62.4887 49.6198 62.4243 49.6198C62.3599 49.6198 62.2956 49.6198 62.2956 49.6848C62.2312 49.7498 62.2312 49.7498 62.1668 49.8148C62.1668 49.8798 62.1024 50.0098 62.1024 50.1398L61.7805 51.7648H60.9436L61.4586 49.0998H62.2312L62.1668 49.4248C62.2956 49.2948 62.3599 49.1648 62.4887 49.0998C62.6175 49.0348 62.7462 49.0348 62.875 49.0348C62.9394 49.0348 63.0681 49.0348 63.1325 49.0998C63.1969 49.1648 63.2613 49.1648 63.3257 49.2298C63.3257 49.3598 63.3257 49.4248 63.3257 49.5548ZM3.70889 50.5298C3.58013 50.5298 3.45136 50.5948 3.3226 50.6598C3.25822 50.6598 3.19384 50.7248 3.19384 50.7898C3.12946 50.7898 3.06508 50.8548 3.06508 50.9198C3.06508 50.9848 3.0007 51.0498 3.0007 51.1148C3.0007 51.1798 3.0007 51.2448 3.06508 51.3098C3.12946 51.3748 3.19384 51.3748 3.25822 51.3748C3.45136 51.3748 3.58013 51.1798 3.64451 50.7898L3.70889 50.5298ZM7.63613 48.1898L6.92794 51.7648H6.15536L6.21975 51.4398C6.15536 51.5048 6.09098 51.5698 6.0266 51.6348C5.96222 51.6998 5.89784 51.6998 5.83346 51.7648C5.76908 51.7648 5.7047 51.7648 5.57594 51.7648C5.44717 51.7648 5.25402 51.6998 5.18965 51.6348C5.06088 51.5048 4.99651 51.3748 4.99651 51.2448C4.99651 51.1798 4.99651 51.1148 4.99651 50.9848V50.8548C4.99651 50.6598 4.99651 50.4648 5.06089 50.2698C5.12527 50.0748 5.18965 49.8798 5.25403 49.7498C5.38279 49.5548 5.51156 49.3598 5.64032 49.2298C5.76908 49.0998 5.89784 49.0998 6.09098 49.0998C6.21975 49.0998 6.34851 49.0998 6.41289 49.1648C6.47727 49.2298 6.54165 49.2948 6.60603 49.4248L6.86355 48.2548L7.63613 48.1898ZM6.47727 49.8148C6.47727 49.7498 6.47727 49.6848 6.41289 49.6198C6.34851 49.6198 6.34851 49.6198 6.28413 49.6198C6.28413 49.6198 6.21975 49.6198 6.15536 49.6848C6.09098 49.7498 6.09098 49.8148 6.0266 49.9448C5.96222 50.2048 5.89784 50.3998 5.89784 50.5948C5.89784 50.7898 5.83346 50.9198 5.83346 51.0498C5.83346 51.2448 5.89784 51.3098 6.0266 51.3098C6.15536 51.3098 6.28412 51.1148 6.34851 50.7898L6.47727 49.9448C6.47727 49.8798 6.47727 49.8148 6.47727 49.8148ZM10.0826 49.1648L8.85936 51.7648H8.21555L7.95802 49.0998H8.7306V50.1398C8.7306 50.1398 8.7306 50.2048 8.7306 50.2698C8.7306 50.3348 8.7306 50.4648 8.7306 50.5298V50.7248C8.79498 50.4648 8.85935 50.2698 8.92375 50.0748L9.31003 49.0348H10.0826V49.1648Z" fill="black"/>
<path id="Vector_3" d="M0.48999 44.2891V46.8241H67.7681L65.9654 52.7391C65.9654 52.7391 71.6309 46.8241 91.3315 46.8241L92.0397 44.2891C92.1041 44.2891 0.48999 44.2891 0.48999 44.2891Z" fill="black"/>
<path id="Vector_4" d="M93.7791 46.7591H96.4187L97.0625 44.2891H94.4873L93.7791 46.7591Z" fill="black"/>
</g>
</g>
</g>
</g>
<defs>
<clipPath id="clip0_68_6202">
<rect width="97" height="80" fill="white" transform="translate(0.48999)"/>
</clipPath>
</defs>
</svg>
