<svg width="68" height="34" viewBox="0 0 68 34" fill="none" xmlns="http://www.w3.org/2000/svg">
<path id="Vector" fill-rule="evenodd" clip-rule="evenodd" d="M9.58796 4.32778H7.37647C7.33768 4.06589 7.25038 3.82825 7.11459 3.61487C6.97879 3.39178 6.80905 3.19779 6.60536 3.0329C6.40168 2.86801 6.16888 2.74191 5.907 2.65462C5.65481 2.55762 5.38808 2.50912 5.10679 2.50912C4.59272 2.50912 4.15624 2.61097 3.79735 2.81466C3.43848 3.00865 3.14749 3.27538 2.9244 3.61487C2.70131 3.94465 2.53642 4.32293 2.42973 4.74971C2.33273 5.17649 2.28424 5.61782 2.28424 6.07369C2.28424 6.51017 2.33273 6.93695 2.42973 7.35402C2.53642 7.76141 2.70131 8.12999 2.9244 8.45977C3.14749 8.78955 3.43848 9.05629 3.79735 9.25999C4.15624 9.45397 4.59272 9.55097 5.10679 9.55097C5.80516 9.55097 6.34832 9.33757 6.73631 8.9108C7.13399 8.48402 7.37647 7.92144 7.46377 7.22308H9.67526C9.61707 7.87295 9.46672 8.45977 9.22423 8.98355C8.98174 9.50732 8.66166 9.95353 8.26398 10.3221C7.8663 10.6906 7.40072 10.972 6.86725 11.166C6.33378 11.36 5.74696 11.4569 5.10679 11.4569C4.31143 11.4569 3.59366 11.3211 2.9535 11.0495C2.32304 10.7683 1.78956 10.3851 1.35308 9.9002C0.916603 9.41517 0.58197 8.84775 0.349182 8.19788C0.116394 7.53832 0 6.83026 0 6.07369C0 5.29773 0.116394 4.57997 0.349182 3.9204C0.58197 3.25114 0.916603 2.66916 1.35308 2.17449C1.78956 1.67982 2.32304 1.29183 2.9535 1.01056C3.59366 0.729267 4.31143 0.588623 5.10679 0.588623C5.67906 0.588623 6.21739 0.671069 6.72176 0.835959C7.23583 1.00085 7.69171 1.24334 8.08939 1.56343C8.49677 1.87381 8.8314 2.26179 9.09329 2.72736C9.35518 3.19294 9.52007 3.72641 9.58796 4.32778ZM13.1783 11.224V3.25974H14.9295V6.31605H18.1532V3.25974H19.9044V11.224H18.1532V7.78844H14.9295V11.224H13.1783ZM25.4722 6.86263V4.62058H27.3908C27.7923 4.62058 28.0934 4.70981 28.2942 4.88829C28.495 5.05932 28.5955 5.33818 28.5955 5.72487C28.5955 6.12643 28.495 6.41645 28.2942 6.59492C28.0934 6.77339 27.7923 6.86263 27.3908 6.86263H25.4722ZM23.7209 3.25974V11.224H25.4722V8.11192H27.2234C27.6622 8.11192 27.9782 8.20859 28.1715 8.40193C28.3649 8.59528 28.4913 8.90017 28.5508 9.3166C28.5955 9.63636 28.6289 9.97101 28.6512 10.3205C28.6735 10.67 28.733 10.9712 28.8297 11.224H30.5809C30.4991 11.1124 30.4359 10.9786 30.3912 10.8225C30.3541 10.6589 30.3243 10.4878 30.3021 10.3094C30.2872 10.1309 30.276 9.95615 30.2685 9.78508C30.2612 9.61405 30.2537 9.46533 30.2463 9.3389C30.2314 9.13813 30.2016 8.93735 30.157 8.73657C30.1198 8.53579 30.0567 8.35359 29.9674 8.19C29.8781 8.01897 29.7629 7.87396 29.6217 7.75498C29.4803 7.62856 29.3019 7.5356 29.0862 7.47611V7.45381C29.5324 7.27534 29.8522 7.01506 30.0455 6.67299C30.2463 6.33092 30.3467 5.92565 30.3467 5.45716C30.3467 5.15228 30.2909 4.8697 30.1794 4.60943C30.0752 4.34172 29.9191 4.10748 29.7109 3.9067C29.5101 3.70592 29.2647 3.54975 28.9747 3.43821C28.6921 3.31923 28.3723 3.25974 28.0154 3.25974H23.7209ZM33.3617 11.224V3.25974H35.113V11.224H33.3617ZM39.9789 8.58059H38.2834C38.2759 9.07138 38.3652 9.49526 38.551 9.85221C38.737 10.2091 38.9861 10.5029 39.2985 10.7334C39.6182 10.9639 39.9825 11.1313 40.3916 11.2353C40.808 11.3468 41.2356 11.4027 41.6743 11.4027C42.2172 11.4027 42.6931 11.3395 43.1021 11.2131C43.5185 11.0866 43.8643 10.9118 44.1395 10.6888C44.4221 10.4583 44.6339 10.1869 44.7753 9.87455C44.9165 9.56218 44.9871 9.22383 44.9871 8.85946C44.9871 8.41328 44.8905 8.0489 44.6972 7.76632C44.5112 7.47631 44.2882 7.24578 44.0279 7.07475C43.7676 6.90371 43.5037 6.78101 43.236 6.70664C42.9757 6.62485 42.7712 6.56908 42.6225 6.53934C42.1242 6.41291 41.719 6.30881 41.4067 6.22701C41.1017 6.14521 40.86 6.06341 40.6816 5.98161C40.5105 5.89981 40.3953 5.81058 40.3358 5.7139C40.2763 5.61724 40.2466 5.49081 40.2466 5.33466C40.2466 5.16362 40.2838 5.02233 40.3581 4.91078C40.4325 4.79924 40.5254 4.70629 40.637 4.63193C40.7559 4.55756 40.8861 4.5055 41.0274 4.47576C41.1687 4.44601 41.3099 4.43114 41.4512 4.43114C41.6669 4.43114 41.8639 4.44973 42.0425 4.48692C42.2283 4.5241 42.3919 4.58731 42.5332 4.67654C42.6745 4.76578 42.7861 4.88848 42.8679 5.04464C42.9571 5.2008 43.0091 5.39786 43.024 5.63582H44.7195C44.7195 5.17477 44.6302 4.78437 44.4518 4.46461C44.2807 4.13741 44.0465 3.8697 43.7491 3.66149C43.4516 3.45327 43.1096 3.30455 42.7228 3.21531C42.3436 3.11864 41.9457 3.07031 41.5294 3.07031C41.1723 3.07031 40.8154 3.11864 40.4584 3.21531C40.1015 3.31199 39.7817 3.46071 39.4992 3.66149C39.2167 3.86227 38.9861 4.11511 38.8076 4.41999C38.6366 4.71744 38.551 5.07066 38.551 5.47966C38.551 5.84404 38.618 6.15636 38.7518 6.41663C38.8932 6.66947 39.0753 6.8814 39.2985 7.05243C39.5215 7.22347 39.7744 7.36476 40.057 7.47631C40.3395 7.58041 40.6295 7.66965 40.927 7.74401C41.217 7.82581 41.5033 7.90017 41.7859 7.9671C42.0685 8.03402 42.3213 8.11211 42.5444 8.20134C42.7674 8.29058 42.9459 8.40212 43.0798 8.53597C43.2211 8.66982 43.2917 8.84458 43.2917 9.06023C43.2917 9.26102 43.2396 9.42832 43.1355 9.56218C43.0315 9.6886 42.9013 9.78897 42.7452 9.86338C42.589 9.93769 42.4217 9.98976 42.2432 10.0195C42.0647 10.0418 41.8974 10.053 41.7412 10.053C41.5107 10.053 41.2877 10.027 41.072 9.9749C40.8563 9.91545 40.6667 9.82986 40.5031 9.71834C40.3469 9.59936 40.2205 9.44692 40.1239 9.26101C40.0272 9.0751 39.9789 8.84829 39.9789 8.58059ZM49.273 11.224V4.73213H46.8859V3.25974H53.4113V4.73213H51.0242V11.224H49.273ZM56.4031 3.25974V11.224H58.1544V3.25974H56.4031ZM61.6744 11.224V3.25974H67.6309V4.73213H63.4256V6.43875H67.2851V7.7996H63.4256V9.75167H67.7201V11.224H61.6744ZM0 14.5834H5.34366V28.5122H13.6578V33.2667H0V14.5834ZM12.8614 29.3099V32.469H0.796373V15.3811H4.5473V29.3099H12.8614ZM59.7759 27.364V28.1202C59.7759 28.467 59.8385 28.7065 59.9241 28.8714C60.0287 29.0729 60.157 29.2266 60.3069 29.3447C60.4883 29.4655 60.7079 29.5666 60.974 29.6413C61.2607 29.7096 61.56 29.7444 61.8735 29.7444C62.0878 29.7444 62.3237 29.7294 62.5821 29.6976C62.7994 29.66 62.9975 29.5969 63.1796 29.51C63.3322 29.4372 63.4487 29.346 63.5402 29.2376C63.5815 29.1811 63.6231 29.0878 63.6231 28.9092C63.6231 28.7474 63.579 28.6784 63.5238 28.6259L63.516 28.6186L63.5084 28.6109C63.3824 28.4847 63.1887 28.3541 62.8965 28.2371C62.5733 28.1075 62.1966 27.9901 61.7632 27.8874C61.2916 27.7755 60.8143 27.6513 60.3315 27.5151C60.1447 27.4682 59.9595 27.4178 59.7759 27.364ZM59.6366 27.3225H55.411L55.3991 28.1082C55.3853 29.0191 55.5503 29.8528 55.9286 30.5805C56.2878 31.2712 56.7751 31.8493 57.3893 32.3033L57.3965 32.3085C58.0069 32.7494 58.6962 33.0647 59.4559 33.259C60.2066 33.46 60.9765 33.5601 61.7636 33.5601C62.7137 33.5601 63.5768 33.4497 64.3414 33.2132C65.1011 32.9819 65.7658 32.6522 66.3131 32.2077L66.315 32.2062C66.8681 31.7541 67.2952 31.2106 67.5812 30.5774C67.8627 29.954 68 29.2845 68 28.5789C68 27.7371 67.8185 26.971 67.3916 26.3406C67.0336 25.7836 66.5929 25.3236 66.0658 24.9765C65.5817 24.6578 65.0778 24.42 64.5544 24.2728C64.304 24.1941 64.0766 24.1273 63.8745 24.074H67.5604V23.2763C67.5604 22.4205 67.3958 21.6402 67.0252 20.9705C66.6866 20.3253 66.2191 19.7901 65.6272 19.375C65.0499 18.9702 64.3951 18.6874 63.6734 18.5194C62.985 18.3444 62.2683 18.2584 61.5255 18.2584C60.8665 18.2584 60.2104 18.3478 59.5589 18.5246C58.8881 18.7066 58.2763 18.9899 57.7306 19.3782C57.1728 19.7753 56.7179 20.2761 56.369 20.8733L56.3659 20.8786C56.0033 21.5102 55.8386 22.2339 55.8386 23.0193C55.8386 23.7152 55.9662 24.3602 56.2564 24.9255L56.2627 24.9377L56.2694 24.9498C56.5528 25.4576 56.9226 25.8901 57.3776 26.2396C57.8072 26.5695 58.288 26.8372 58.8153 27.0457L58.8238 27.0491L58.8323 27.0523C59.097 27.15 59.365 27.24 59.6366 27.3225ZM63.4854 19.2947C62.8626 19.1357 62.2093 19.0561 61.5255 19.0561C60.9394 19.0561 60.3532 19.1357 59.767 19.2947C59.181 19.4537 58.6559 19.6983 58.1919 20.0286C57.7278 20.3589 57.3493 20.7748 57.0563 21.2763C56.7753 21.7655 56.635 22.3466 56.635 23.0193C56.635 23.6187 56.7448 24.1325 56.9647 24.5606C57.1966 24.9766 57.4958 25.3251 57.8622 25.6064C58.2285 25.8879 58.6437 26.1202 59.1077 26.3037C59.5717 26.475 60.048 26.6218 60.5364 26.7441C61.0126 26.8786 61.4828 27.0009 61.9467 27.1111C62.4108 27.2212 62.826 27.3496 63.1923 27.4964C63.5586 27.6431 63.8517 27.8266 64.0714 28.0468C64.3035 28.267 64.4195 28.5544 64.4195 28.9092C64.4195 29.2395 64.334 29.5147 64.1631 29.7348C63.9921 29.9428 63.7785 30.108 63.522 30.2303C63.2655 30.3526 62.9908 30.4382 62.6978 30.4872C62.4047 30.5238 62.1299 30.5422 61.8735 30.5422C61.4949 30.5422 61.1286 30.4993 60.7745 30.4138C60.4204 30.3159 60.109 30.1753 59.8404 29.9918C59.5839 29.796 59.3763 29.5453 59.2176 29.2395C59.0589 28.9337 58.9795 28.5606 58.9795 28.1202H56.1954C56.1944 28.1823 56.1944 28.2438 56.1954 28.3046C56.1986 28.5169 56.2134 28.7214 56.2396 28.9179C56.3034 29.3964 56.4352 29.8277 56.635 30.2119C56.9402 30.799 57.3493 31.2822 57.8622 31.6615C58.3872 32.0406 58.9856 32.3159 59.6572 32.4871C60.341 32.6706 61.0431 32.7624 61.7636 32.7624C62.655 32.7624 63.4365 32.6583 64.1082 32.4505C64.792 32.2425 65.3598 31.955 65.8116 31.588C66.2756 31.2089 66.6236 30.7624 66.8557 30.2486C67.0876 29.7348 67.2036 29.1783 67.2036 28.5789C67.2036 27.845 67.0449 27.2456 66.7274 26.7808C66.4221 26.3037 66.0558 25.9245 65.6284 25.6432C65.201 25.3618 64.7675 25.16 64.3279 25.0377C63.9006 24.9031 63.5647 24.8114 63.3205 24.7625C62.5024 24.5545 61.8369 24.3832 61.324 24.2487C60.8234 24.1141 60.4265 23.9796 60.1335 23.8451C59.8525 23.7105 59.6633 23.5637 59.5656 23.4047C59.4679 23.2457 59.4191 23.0377 59.4191 22.7809C59.4191 22.4995 59.4801 22.2671 59.6022 22.0836C59.7243 21.9002 59.877 21.7473 60.0601 21.6249C60.2556 21.5026 60.4692 21.417 60.7013 21.368C60.9332 21.319 61.1652 21.2947 61.3973 21.2947C61.7514 21.2947 62.075 21.3252 62.368 21.3864C62.6734 21.4476 62.942 21.5515 63.1739 21.6983C63.406 21.8451 63.5891 22.0469 63.7235 22.3038C63.87 22.5606 63.9555 22.8848 63.9799 23.2763H66.7641C66.7641 22.9943 66.7438 22.7283 66.7032 22.4784C66.6348 22.0564 66.5086 21.6801 66.3244 21.3496C66.0435 20.8115 65.659 20.3711 65.1705 20.0286C64.6821 19.6861 64.1203 19.4415 63.4854 19.2947ZM60.4924 22.295C60.4011 22.3577 60.3265 22.4335 60.2649 22.5261C60.2512 22.5467 60.2155 22.6138 60.2155 22.7809C60.2155 22.9035 60.2335 22.9613 60.241 22.98C60.2461 22.9849 60.2547 22.9927 60.2683 23.0032C60.3066 23.0328 60.3708 23.0741 60.4712 23.1226C60.7066 23.2299 61.0531 23.3498 61.5281 23.4776C61.975 23.5948 62.5395 23.7403 63.2218 23.9142L63.1851 23.326C63.1659 23.0184 63.1018 22.8218 63.032 22.6995L63.0248 22.6869L63.018 22.6739C62.945 22.5343 62.8556 22.4405 62.7487 22.3728C62.6093 22.2846 62.4344 22.2132 62.2118 22.1687L62.2056 22.1674C61.9746 22.1192 61.7064 22.0924 61.3973 22.0924C61.2216 22.0924 61.0446 22.1109 60.8653 22.1486C60.7263 22.178 60.6035 22.227 60.4924 22.295ZM26.1692 19.3686V21.7906H30.0889V32.4693H32.9647V21.7906H36.8845V19.3686H26.1692ZM25.3728 22.5883H29.2926V33.267H33.761V22.5883H37.6808V18.5709H25.3728V22.5883ZM40.6831 18.5709H52.0569V22.5883H45.1515V23.8001H51.4891V27.6341H45.1515V29.2496H52.2034V33.267H40.6831V18.5709ZM51.407 30.0473V32.4693H41.4795V19.3686H51.2605V21.7906H44.3552V24.5979H50.6927V26.8364H44.3552V30.0473H51.407ZM21.963 18.5709H17.4946V33.267H21.963V18.5709ZM18.2909 19.3686V32.4693H21.1667V19.3686H18.2909Z" fill="#DB1A1F"/>
</svg>
