<svg width="104" height="29" viewBox="0 0 104 29" fill="none" xmlns="http://www.w3.org/2000/svg">
<path id="Vector" fill-rule="evenodd" clip-rule="evenodd" d="M100.209 0L99.8699 0.0481L99.5774 0.1456L99.2381 0.2912L98.9456 0.3874L98.6544 0.5824L98.4113 0.7761L98.1682 1.0179L97.9251 1.2597L97.7301 1.5028L97.5858 1.794L97.4389 2.0839L97.2933 2.4232L97.1958 2.7144L97.1477 3.0537V3.7804L97.1958 4.1197L97.2933 4.4603L97.4389 4.7502L97.5858 5.0414L97.7314 5.3326L97.9264 5.5744L98.1682 5.8175L98.4113 6.0593L98.6544 6.2543L98.9456 6.4467L99.2381 6.5923L99.5774 6.6898L99.8699 6.786L100.209 6.8354H100.937L101.279 6.786L101.57 6.6898L101.911 6.5923L102.202 6.4467L102.493 6.253L102.736 6.0593L102.979 5.8643L103.223 5.6225L103.418 5.3807L103.563 5.0895L103.709 4.7996L103.854 4.5084L103.903 4.1691L104 3.8298V3.0056L103.903 2.6663L103.854 2.3751L103.709 2.0371L103.563 1.7446L103.418 1.4547L103.223 1.2116L102.979 0.9698L102.736 0.7748L102.493 0.5811L102.202 0.3874L101.911 0.2418L101.57 0.1456L101.279 0.0481L100.938 0H100.209ZM100.064 6.0112L99.5293 5.8656L99.0912 5.6225L98.7025 5.2845L98.3632 4.8958L98.1201 4.4603L97.9745 3.9273L97.9251 3.3943L97.9745 2.86L98.1201 2.3751L98.3632 1.9396L98.7025 1.5509L99.0925 1.2129L99.5293 0.9698L100.064 0.8242L100.598 0.7761L101.133 0.8242L101.618 0.9698L102.056 1.2116L102.445 1.5509L102.786 1.9396L103.028 2.3751L103.174 2.9081L103.223 3.4411L103.174 3.9741L103.028 4.4603L102.786 4.8958L102.445 5.2832L102.055 5.6225L101.618 5.8656L101.133 6.0112L100.598 6.0593L100.064 6.0112ZM56.2276 0V28.5519H61.1858V19.6807H63.1293L69.6423 28.5519H75.7159L66.7251 17.3537L74.5979 6.8835H68.7661L62.6431 14.7849H61.1858V0H56.2276ZM23.6184 28.5519H28.6728V0H23.6184V28.5519ZM99.0912 1.599V5.2819H99.8699V3.7804H100.598L101.425 5.2832H102.3L101.377 3.7323L101.618 3.6842L101.813 3.6361L102.008 3.5867L102.154 3.4905L102.25 3.3449L102.348 3.1499L102.397 2.9575V2.7144L102.348 2.3764L102.3 2.1333L102.154 1.9383L102.007 1.794L101.765 1.6965L101.522 1.6484L100.937 1.6003L99.0912 1.599ZM99.8699 2.1801H100.793L101.133 2.2282L101.375 2.2776L101.473 2.3257L101.57 2.4219L101.618 2.5194V2.6169L101.57 2.9068L101.522 3.0043L101.473 3.1005L101.23 3.1499L100.987 3.198H99.8686L99.8699 2.1801ZM84.9498 6.9316H83.9774L83.0544 7.0291L82.1795 7.1253L81.354 7.2709L80.5753 7.4659L79.8954 7.7077L79.2636 8.0457L78.6799 8.3863L78.1469 8.8218L77.7088 9.3548L77.3682 9.9372L77.077 10.5677L76.882 11.3425L76.7364 12.1667V13.9607L76.882 14.7849L77.0276 15.4635L77.3201 16.094L77.6113 16.6751L78.0481 17.16L78.4862 17.5968L79.0205 17.9842L79.6523 18.2754L80.2841 18.5653L81.0615 18.8084L81.8389 19.0021L82.7138 19.1477L83.6368 19.2933L84.6092 19.3895L85.6791 19.487L87.1364 19.5832L88.3519 19.7288L89.323 19.9238L89.713 20.0681L90.0523 20.2137L90.3435 20.4087L90.5866 20.6011L90.7816 20.7961L90.9272 21.0379L91.0247 21.2797L91.1222 21.5709L91.1703 21.8621V22.5888L91.1222 22.9281L91.0728 23.2193L90.9753 23.5105L90.8297 23.8004L90.6347 24.0435L90.441 24.2385L90.246 24.4309L89.9548 24.6259L89.6636 24.7702L89.323 24.8677L88.9837 24.9639L88.1088 25.0614L87.0883 25.1095H84.6105L83.8318 24.9639L83.5406 24.8677L83.2 24.7702L82.9569 24.6246L82.7138 24.4309L82.5188 24.2372L82.3745 23.9954L82.2276 23.7042L82.082 23.3649L82.0339 23.0256L81.9364 22.6382L81.8883 21.6684H76.7364V23.3155L76.7858 23.8004L76.8339 24.2853L76.9795 24.674L77.077 25.1095L77.272 25.4488L77.4657 25.7881L77.6607 26.1274L77.9025 26.4186L78.1456 26.7098L78.3887 26.9516L78.6799 27.1466L79.3611 27.534L80.041 27.872L80.8184 28.1151L81.5958 28.3101L82.4226 28.4063L83.2494 28.5025L84.123 28.5519L84.9979 28.6H87.6707L88.6431 28.5519L89.5661 28.5025L90.4891 28.3582L91.3159 28.2126L92.0933 28.0176L92.7745 27.7277L93.4544 27.3884L94.0381 26.9997L94.5711 26.5161L95.0586 25.9337L95.3979 25.3032L95.7385 24.5284L95.9335 23.7042L96.0791 22.7344L96.1272 21.6684L96.0791 20.8923L95.9335 20.1643L95.7385 19.487L95.4473 18.9046L95.1067 18.3716L94.6699 17.8867L94.1837 17.4993L93.6494 17.1119L93.0644 16.8207L92.3858 16.5295L91.7046 16.3358L90.9272 16.1408L90.1498 15.9978L89.323 15.8509L87.6226 15.7053L85.9222 15.5597L84.5611 15.4154L83.5406 15.2204L83.1506 15.0761L82.8594 14.9786L82.5682 14.833L82.3732 14.6393L82.1795 14.4937L82.082 14.2519L81.9858 14.0569L81.9364 13.767L81.8883 13.1846L81.9364 12.4579L81.9858 12.1186L82.0339 11.8274L82.1314 11.5856L82.2276 11.3425L82.4226 11.1488L82.6176 10.9551L82.8594 10.8095L83.1025 10.7133L83.4431 10.6158L83.8331 10.5196L84.8042 10.4221L86.0184 10.374L87.282 10.4221L88.2544 10.5196L88.6431 10.6158L89.0331 10.7133L89.323 10.8589L89.6155 11.0032L89.8586 11.1488L90.0536 11.3438L90.1979 11.5375L90.2954 11.7793L90.3929 12.0705L90.441 12.3604L90.4904 13.0403H95.3498L95.4473 12.1186L95.3979 11.6818L95.3498 11.2463L95.3017 10.8095L95.2042 10.4221L95.0586 10.0828L94.9117 9.7435L94.7167 9.4523L94.523 9.1611L94.2812 8.9193L94.0381 8.6775L93.4544 8.2407L92.8226 7.9014L92.1427 7.6102L91.4134 7.3684L90.6854 7.2228L89.9067 7.0772L89.0799 7.0291L87.5251 6.9316L85.9703 6.8835L84.9498 6.9316ZM41.2113 6.9316L40.0452 7.0291L38.9272 7.2228L37.9548 7.4646L37.0799 7.8039L36.6431 7.9989L36.2531 8.2407L35.8657 8.4825L35.5251 8.7256L35.2339 9.0168L34.9427 9.3067L34.6502 9.646L34.359 10.0347L34.164 10.4221L33.9222 10.8095L33.5322 11.6818L33.241 12.6997L32.9979 13.8151L32.8523 15.0267L32.7548 16.3358L32.7067 17.7905L32.7548 19.2439L32.8523 20.553L32.9979 21.814L33.241 22.88L33.5322 23.8979L33.8728 24.7702L34.1159 25.1589L34.359 25.5463L34.6021 25.8843L34.8933 26.2249L35.1845 26.5629L35.477 26.806L35.8163 27.0972L36.2063 27.3403L36.595 27.534L36.9837 27.7277L37.9067 28.0657L38.8791 28.3088L39.9971 28.5038L41.1632 28.6H43.5929L44.6134 28.5519L45.5845 28.5025L46.5075 28.4063L47.3837 28.2607L48.2092 28.0189L48.9866 27.7758L49.6678 27.4846L50.2996 27.0972L50.8326 26.6604L51.3201 26.1768L51.7088 25.5944L52 24.9158L52.2431 24.1397L52.3887 23.3168L52.4381 22.347V21.5709H47.333V22.4432L47.2849 22.8319L47.1874 23.2193L47.0418 23.5105L46.8962 23.8004L46.7012 23.9954L46.4581 24.2372L46.1669 24.3828L45.8757 24.5284L45.4857 24.674L45.0983 24.7702L44.6602 24.8677L43.6891 24.9158L42.5217 24.9639H41.8899L41.3075 24.9158L40.7732 24.8196L40.287 24.7221L39.8489 24.5271L39.4602 24.3347L39.169 24.0916L38.8778 23.7536L38.6347 23.3636L38.4397 22.9281L38.2447 22.3951L38.0991 21.814L38.0029 21.1835L37.9535 20.4074L37.9054 19.5832V18.6628H52.4368V17.2575L52.3874 15.9484L52.2899 14.7368L52.1443 13.5733L51.9012 12.5554L51.61 11.6337L51.22 10.7614L50.7351 10.0334L50.492 9.646L50.2008 9.3561L49.9096 9.0168L49.569 8.7737L49.2284 8.4825L48.8397 8.2407L48.0623 7.8533L47.1393 7.514L46.1669 7.2228L45.0489 7.0278L43.8347 6.9316L42.5217 6.8835L41.2113 6.9316ZM37.9067 14.8811L37.9548 14.2519L38.0523 13.6695L38.1498 13.1846L38.2954 12.6997L38.441 12.3123L38.6841 11.9743L38.9272 11.6337L39.2184 11.3919L39.559 11.1488L39.9477 10.9551L40.3377 10.8095L40.8226 10.7133L41.3569 10.6158L41.9406 10.5677H43.2042L43.7866 10.6158L44.3222 10.7133L44.8071 10.8095L45.2452 10.9551L45.6339 11.1501L45.9745 11.3919L46.3138 11.6337L46.5569 11.973L46.8 12.3123L46.9456 12.6997L47.0912 13.1846L47.2381 13.6695L47.2862 14.2519L47.3343 14.8811V15.5116H37.908L37.9067 14.8811ZM8.5046 6.9316L7.3385 7.0291L6.2205 7.2228L5.2481 7.4646L4.3251 7.8039L3.9364 7.9989L3.5477 8.2407L3.1577 8.4825L2.8197 8.7256L2.4791 9.0168L2.1866 9.3067L1.8954 9.646L1.6523 10.0347L1.4092 10.4221L1.2142 10.8095L0.8268 11.6818L0.5343 12.6997L0.2912 13.8151L0.1456 15.0267L0.0481 16.3358L0 17.7905L0.0481 19.2439L0.0975 20.553L0.2925 21.814L0.4862 22.88L0.7774 23.8979L1.1674 24.7702L1.3611 25.1589L1.6042 25.5463L1.8954 25.8843L2.1385 26.2249L2.4297 26.5629L2.7703 26.806L3.1109 27.0972L3.4502 27.3403L3.8402 27.534L4.277 27.7277L5.1506 28.0657L6.1724 28.3088L7.241 28.5038L8.4565 28.6H10.8368L11.8586 28.5519L12.8791 28.5025L13.8021 28.4063L14.677 28.2607L15.5025 28.0189L16.2318 27.7758L16.9117 27.4846L17.5435 27.0972L18.1272 26.6604L18.564 26.1768L18.954 25.5944L19.2933 24.9158L19.4883 24.1397L19.6339 23.3168L19.682 22.347V21.5709H14.6276V22.4432L14.5795 22.8319L14.482 23.2193L14.3364 23.5105L14.1908 23.8004L13.9477 23.9954L13.7046 24.2372L13.4615 24.3828L13.1209 24.5284L12.7816 24.674L12.3916 24.7702L11.9548 24.8677L10.9343 24.9158L9.8163 24.9639H9.1845L8.5527 24.9158L8.0197 24.8196L7.5816 24.7221L7.1435 24.5271L6.7548 24.3347L6.4155 24.0916L6.123 23.7536L5.8799 23.3636L5.6849 22.9281L5.5406 22.3951L5.395 21.814L5.2975 21.1835L5.2481 20.4074L5.2 19.5832V18.6628H19.682V15.9484L19.5845 14.7368L19.3895 13.5733L19.1958 12.5554L18.8565 11.6337L18.4665 10.7614L18.0297 10.0334L17.7866 9.646L17.4954 9.3561L17.2042 9.0168L16.8636 8.7737L16.523 8.4825L16.1343 8.2407L15.3569 7.8533L14.4339 7.514L13.4134 7.2228L12.3435 7.0278L11.1293 6.9316L9.8163 6.8835L8.5046 6.9316ZM5.2 14.8811L5.2481 14.2519L5.2975 13.6695L5.4431 13.1846L5.5406 12.6997L5.7356 12.3123L5.9293 11.9743L6.1724 11.6337L6.4636 11.3919L6.8042 11.1488L7.1929 10.9551L7.6297 10.8095L8.1159 10.7133L8.6502 10.6158L9.2339 10.5677H10.4975L11.0799 10.6158L11.6155 10.7133L12.1004 10.8095L12.5385 10.9551L12.9272 11.1501L13.2678 11.3919L13.559 11.6337L13.8502 11.973L14.0452 12.3123L14.2402 12.6997L14.3845 13.1846L14.482 13.6695L14.5795 14.2519L14.6276 14.8811V15.5116H5.2V14.8811Z" fill="black"/>
</svg>
