<svg width="137" height="86" viewBox="0 0 137 86" fill="none" xmlns="http://www.w3.org/2000/svg">
<g clip-path="url(#clip0_221_41847)">
<mask id="mask0_221_41847" style="mask-type:luminance" maskUnits="userSpaceOnUse" x="0" y="0" width="137" height="86">
<path d="M136.16 0.240234H0.159912V85.2402H136.16V0.240234Z" fill="white"/>
</mask>
<g mask="url(#mask0_221_41847)">
<path d="M136.16 0.240234H0.159912V85.2402H136.16V0.240234Z" fill="white"/>
<path d="M6.33991 31.5571C6.33991 33.2229 6.33991 34.8888 6.33991 36.5843C5.92347 36.5843 5.47729 36.5843 5.06083 36.5843C5.06083 35.3349 5.06083 34.1153 5.06083 32.8957H5.00134C4.58489 34.1451 4.16844 35.3647 3.75198 36.614C3.33553 36.614 2.91908 36.614 2.50262 36.614C2.11592 35.3944 1.72921 34.1748 1.3425 32.9552H1.31276C1.31276 34.1748 1.31276 35.3944 1.31276 36.614C0.86656 36.614 0.450106 36.614 0.00390625 36.614C0.00390625 34.8888 0.00390625 33.2229 0.00390625 31.5273C0.658333 31.5273 1.3425 31.5273 1.99693 31.5273C2.14566 31.5273 2.14566 31.6166 2.17541 31.7058C2.47288 32.6577 2.80009 33.6096 3.09756 34.5615C3.12731 34.6508 3.15705 34.7103 3.18679 34.859C3.5735 33.6989 3.93046 32.628 4.31717 31.5273C5.00134 31.5571 5.65577 31.5571 6.33991 31.5571Z" fill="#242021"/>
<path d="M33.6756 34.0856C33.7054 34.3236 33.6459 34.5913 33.6161 34.859C33.3782 35.9597 32.575 36.6438 31.4149 36.7033C31.0579 36.7033 30.7307 36.7033 30.3738 36.6141C29.4516 36.3761 28.8864 35.7812 28.7079 34.859C28.5889 34.2641 28.5889 33.6394 28.7674 33.0445C29.0351 32.1521 29.6301 31.6167 30.5225 31.4679C30.9984 31.3787 31.4743 31.3787 31.9206 31.4977C32.9914 31.7654 33.6161 32.5983 33.6756 33.7881C33.6756 33.8774 33.6756 33.9666 33.6756 34.0856ZM32.2775 34.0559C32.2775 33.6692 32.218 33.3122 32.0395 32.9552C31.8611 32.5983 31.5338 32.4198 31.1472 32.4198C30.7605 32.4198 30.4332 32.5983 30.2548 32.9552C29.9275 33.6989 29.9276 34.4426 30.2845 35.1565C30.463 35.5135 30.7605 35.692 31.1472 35.692C31.5338 35.692 31.8313 35.5135 32.0098 35.1565C32.218 34.8293 32.2478 34.4426 32.2775 34.0559Z" fill="#242021"/>
<path d="M23.8035 34.1154C23.8333 34.3533 23.7738 34.6211 23.7143 34.8888C23.4763 35.9894 22.7029 36.6438 21.5726 36.7033C21.2156 36.7331 20.8586 36.7331 20.5017 36.6439C19.5795 36.4059 19.0143 35.8109 18.8358 34.8888C18.7168 34.2938 18.7168 33.6692 18.8656 33.0742C19.1036 32.1819 19.6985 31.6464 20.6206 31.4679C21.0966 31.3787 21.5726 31.3787 22.0188 31.4977C23.0896 31.7357 23.744 32.5983 23.7738 33.8179C23.8035 33.9071 23.8035 33.9964 23.8035 34.1154ZM22.4054 34.0559C22.4054 33.6692 22.3459 33.3122 22.1674 32.9552C21.989 32.5983 21.6915 32.4198 21.2751 32.3901C20.8586 32.3901 20.5314 32.5686 20.3529 32.9552C20.0257 33.6989 19.996 34.4426 20.3827 35.1565C20.7694 35.8704 21.6915 35.8407 22.108 35.1565C22.3459 34.8293 22.4054 34.4426 22.4054 34.0559Z" fill="#242021"/>
<path d="M14.1914 31.5276C15.1731 31.5871 16.1547 31.4384 17.1364 31.5871C17.6421 31.6764 18.0288 31.9144 18.1478 32.4498C18.2667 32.9555 18.2072 33.4017 17.8205 33.7884C17.6718 33.9074 17.5231 33.9966 17.3148 34.0561C17.7015 34.2643 17.761 34.651 17.9098 35.008C18.118 35.5137 18.2965 36.0193 18.475 36.5548C17.999 36.5548 17.5231 36.5548 17.0471 36.5548C16.8984 36.1086 16.7496 35.6624 16.6009 35.246C16.3927 34.6808 16.1845 34.5618 15.53 34.6213C15.53 35.2757 15.53 35.9004 15.53 36.5548C15.0838 36.5548 14.6377 36.5548 14.1914 36.5548C14.1914 34.889 14.1914 33.2232 14.1914 31.5276ZM15.5003 33.6396C15.8275 33.6396 16.0952 33.6396 16.3927 33.5801C16.6604 33.5206 16.8091 33.3124 16.8091 33.0447C16.8091 32.777 16.6604 32.5985 16.4224 32.539C16.125 32.4498 15.8275 32.4498 15.5003 32.4795C15.5003 32.896 15.5003 33.2529 15.5003 33.6396Z" fill="#242021"/>
<path d="M24.3677 36.4952C24.3975 36.1085 24.457 35.7516 24.4867 35.3649C25.0222 35.6029 25.5279 35.7219 26.093 35.6921C26.212 35.6921 26.3012 35.6624 26.3905 35.6326C26.7474 35.4839 26.8069 35.1269 26.5392 34.8592C26.4202 34.7402 26.2417 34.6807 26.0633 34.6212C25.7955 34.532 25.4981 34.4427 25.2304 34.3238C24.6057 34.0858 24.3082 33.6098 24.338 32.9554C24.3677 32.301 24.6652 31.8845 25.2601 31.6466C26.093 31.3194 26.9557 31.3788 27.8183 31.5871C27.8481 31.944 27.7588 32.301 27.7588 32.6579C27.2531 32.4794 26.7772 32.3902 26.2715 32.4497C26.0335 32.4794 25.7955 32.5687 25.7658 32.8661C25.736 33.1636 25.974 33.2529 26.1822 33.3421C26.4202 33.4313 26.6582 33.4908 26.8962 33.5801C27.8481 33.8775 28.1753 34.3535 28.1158 35.2459C28.0563 35.9895 27.5506 36.4952 26.6879 36.644C25.9145 36.763 25.1412 36.7035 24.3677 36.4952Z" fill="#242021"/>
<path d="M13.7178 31.6763C13.6881 32.0629 13.6583 32.4199 13.5988 32.8066C13.2122 32.5984 12.8255 32.4496 12.409 32.4199C11.5166 32.3604 10.8324 32.9553 10.7134 33.8775C10.5944 34.7699 11.1299 35.5136 12.0223 35.6623C12.5875 35.7515 13.1229 35.6326 13.6583 35.4541C13.6881 35.811 13.7178 36.1382 13.7178 36.5249C12.7065 36.7926 11.6951 36.8521 10.7432 36.4357C9.6723 35.9597 9.13686 34.9186 9.34511 33.6693C9.5533 32.3009 10.535 31.4978 11.9926 31.4383C12.5577 31.4085 13.1229 31.4978 13.7178 31.6763Z" fill="#242021"/>
<path d="M32.8446 41.969C32.8446 40.6602 32.8446 39.3513 32.8446 38.0424C33.0825 38.0424 33.3205 38.0424 33.5585 38.0424C33.5585 39.7082 33.5585 41.3741 33.5585 43.0696C33.2908 43.0696 33.023 43.0696 32.7553 43.0696C32.6066 43.0696 32.6066 42.9506 32.5471 42.8614C31.8926 41.6716 31.2382 40.4817 30.5838 39.2918C30.554 39.2025 30.4945 39.1431 30.4053 39.0538C30.4053 40.3924 30.4053 41.7012 30.4053 43.0399C30.1376 43.0399 29.9293 43.0399 29.6914 43.0399C29.6914 41.3741 29.6914 39.7082 29.6914 38.0127C29.9888 38.0127 30.2566 38.0127 30.5243 38.0127C30.673 38.0127 30.7028 38.1019 30.7623 38.2209C31.3869 39.381 32.0414 40.5709 32.6661 41.731C32.6958 41.8202 32.7553 41.8797 32.8148 41.969H32.8446Z" fill="#242021"/>
<path d="M37.6621 31.5576C37.6621 31.8551 37.6621 32.1526 37.6621 32.4798C36.978 32.4798 36.3236 32.4798 35.6394 32.4798C35.6394 32.8665 35.6394 33.2234 35.6394 33.5804C36.2641 33.5804 36.9185 33.5804 37.5729 33.5804C37.5729 33.9076 37.5729 34.2051 37.5729 34.5323C36.9482 34.5323 36.2938 34.5323 35.6394 34.5323C35.6394 35.2165 35.6394 35.8709 35.6394 36.5551C35.1932 36.5551 34.747 36.5551 34.3008 36.5551C34.3008 34.8893 34.3008 33.2234 34.3008 31.5576C35.4014 31.5576 36.5318 31.5576 37.6621 31.5576Z" fill="#242021"/>
<path d="M38.2891 38.0416C38.9732 38.0713 39.6871 37.9822 40.3416 38.1011C41.115 38.2201 41.5017 38.696 41.4719 39.4695C41.4422 39.9752 41.1745 40.2726 40.4903 40.5403C40.758 40.6891 40.877 40.9271 40.996 41.165C41.2935 41.7897 41.5909 42.4144 41.8884 43.039C41.8587 43.039 41.8587 43.0688 41.8289 43.0688C41.0555 43.0985 41.0555 43.0985 40.758 42.4144C40.6093 42.0871 40.4606 41.76 40.3416 41.4328C40.1928 40.9865 39.8954 40.7783 39.4194 40.8081C39.3004 40.8081 39.1814 40.8081 39.0327 40.8081C39.0327 41.5517 39.0327 42.2954 39.0327 43.039C38.7948 43.0985 38.5568 43.0688 38.3188 43.0688C38.2891 41.403 38.2891 39.7372 38.2891 38.0416ZM39.0029 40.1834C39.4194 40.1536 39.8359 40.2131 40.2226 40.0644C40.5498 39.9157 40.7283 39.6777 40.7283 39.3505C40.6985 39.053 40.52 38.815 40.1631 38.7258C39.7764 38.6068 39.3897 38.6663 39.0029 38.6663C39.0029 39.2017 39.0029 39.6777 39.0029 40.1834Z" fill="#242021"/>
<path d="M21.8071 38.0416C22.521 38.0713 23.2052 37.9822 23.8894 38.1011C24.6628 38.2201 25.0494 38.6663 25.0197 39.4695C24.9899 39.9157 24.752 40.2131 24.3653 40.4214C24.2761 40.4808 24.1571 40.5106 24.0083 40.5701C24.2761 40.6891 24.3951 40.9271 24.514 41.165C24.8115 41.7897 25.1089 42.4144 25.3767 43.0093V43.0688L25.2874 43.0985C24.5438 43.0985 24.5438 43.0985 24.2463 42.4441C24.0976 42.0871 23.9191 41.76 23.8001 41.403C23.6514 40.9865 23.3539 40.8081 22.9375 40.8378C22.7887 40.8378 22.64 40.8378 22.4912 40.8378C22.4912 41.5815 22.4912 42.3251 22.4912 43.0688C22.2533 43.1283 22.0153 43.0985 21.7773 43.0985C21.8071 41.403 21.8071 39.7372 21.8071 38.0416ZM22.521 40.1834C22.9375 40.1834 23.3539 40.2429 23.7406 40.0644C24.0678 39.9454 24.2463 39.6777 24.2463 39.3802C24.2166 39.053 24.0381 38.8448 23.6811 38.7258C23.2944 38.6365 22.9375 38.6663 22.521 38.6663C22.521 39.172 22.521 39.6479 22.521 40.1834Z" fill="#242021"/>
<path d="M39.1219 32.5393C38.6757 32.5393 38.289 32.5393 37.9023 32.5393C37.9023 32.2121 37.9023 31.9146 37.9023 31.5576C39.1517 31.5576 40.4308 31.5576 41.7099 31.5576C41.7099 31.8849 41.7099 32.1823 41.7099 32.5095C41.2934 32.5095 40.9068 32.5095 40.4903 32.5095C40.4903 33.8779 40.4903 35.2165 40.4903 36.5551C40.0143 36.5551 39.5979 36.5551 39.1219 36.5551C39.1219 35.2462 39.1219 33.9076 39.1219 32.5393Z" fill="#242021"/>
<path d="M21.4202 43.0695C21.1228 43.0695 20.8848 43.0695 20.6171 43.0695C20.4683 42.7125 20.3196 42.3556 20.2006 41.9986C20.1411 41.8499 20.0816 41.7904 19.9031 41.7904C19.2189 41.7904 18.5348 41.7904 17.8506 41.7904C17.6721 41.7904 17.6127 41.8499 17.5532 41.9986C17.4044 42.3556 17.2557 42.7125 17.1367 43.0695C16.869 43.0695 16.631 43.0695 16.3633 43.0695C16.5715 42.6233 16.75 42.1771 16.9285 41.7309C17.4342 40.5707 17.9101 39.4404 18.4158 38.2803C18.5051 38.072 18.5943 38.0126 18.8025 38.0423C18.9215 38.0423 19.0405 38.0423 19.1594 38.0423C19.2784 38.0423 19.3379 38.072 19.3677 38.191C20.0221 39.7974 20.736 41.4037 21.4202 43.0695ZM19.8734 41.1954C19.5462 40.3923 19.2189 39.5891 18.862 38.7265C18.5051 39.5891 18.2076 40.3923 17.8804 41.1954C18.5646 41.1954 19.1892 41.1954 19.8734 41.1954Z" fill="#242021"/>
<path d="M14.1045 41.0464C14.1045 41.7306 14.1045 42.385 14.1045 43.0692C13.8666 43.0692 13.6286 43.0692 13.3906 43.0692C13.3906 41.4034 13.3906 39.7376 13.3906 38.042C14.1343 38.1015 14.8482 37.9527 15.5918 38.161C16.2165 38.3395 16.5735 38.7857 16.6032 39.4104C16.633 40.1838 16.3355 40.6895 15.6811 40.9275C15.4134 41.0167 15.1754 41.0762 14.878 41.0762C14.64 41.0464 14.402 41.0464 14.1045 41.0464ZM14.1343 38.6667C14.1343 39.2616 14.1343 39.8268 14.1343 40.392C14.4913 40.392 14.8185 40.4218 15.1456 40.3325C15.5621 40.2135 15.8001 39.9458 15.8298 39.5591C15.8596 39.2021 15.6216 38.9047 15.2051 38.7559C14.878 38.6369 14.521 38.6667 14.1343 38.6667Z" fill="#242021"/>
<path d="M34.5977 38.042C35.5495 38.042 36.4717 38.042 37.3939 38.042C37.3939 38.2502 37.3939 38.4584 37.3939 38.6667C36.7097 38.6667 36.0255 38.6667 35.3116 38.6667C35.3116 39.1426 35.3116 39.6186 35.3116 40.1243C35.9362 40.1243 36.5609 40.1243 37.2154 40.1243C37.2154 40.3623 37.2154 40.5407 37.2154 40.7787C36.5907 40.7787 35.966 40.7787 35.3116 40.7787C35.3116 41.3439 35.3116 41.8793 35.3116 42.4742C35.9957 42.4742 36.7097 42.4742 37.3939 42.4742C37.3939 42.6825 37.3939 42.8907 37.3939 43.0989C36.4717 43.0989 35.5495 43.0989 34.5977 43.0989C34.5977 41.4034 34.5977 39.7376 34.5977 38.042Z" fill="#242021"/>
<path d="M8.5393 36.5848C8.09311 36.5848 7.67666 36.5848 7.23047 36.5848C7.23047 34.919 7.23047 33.2532 7.23047 31.5576C7.67666 31.5576 8.09311 31.5576 8.5393 31.5576C8.5393 33.2234 8.5393 34.8893 8.5393 36.5848Z" fill="#242021"/>
<path d="M26.8656 38.6667C26.3004 38.6667 25.7948 38.6667 25.2891 38.6667C25.2891 38.4584 25.2891 38.28 25.2891 38.042C26.5682 38.042 27.8473 38.042 29.1562 38.042C29.1562 38.2205 29.1562 38.4287 29.1562 38.6369C28.6505 38.6369 28.1448 38.6369 27.6093 38.6369C27.6093 40.1243 27.6093 41.5521 27.6093 43.0394C27.3713 43.0394 27.1334 43.0394 26.8954 43.0394C26.8656 41.6116 26.8656 40.154 26.8656 38.6667Z" fill="#242021"/>
<path d="M87.4013 46.1035C87.9963 48.6617 88.5913 51.1604 89.1863 53.6889H89.2458C89.8108 51.1604 90.3463 48.632 90.9118 46.1035C92.1012 46.1035 93.2618 46.1035 94.4812 46.1035C93.4102 49.6434 92.3098 53.2129 91.2388 56.7528C89.8108 56.7528 88.3833 56.7528 86.9553 56.7528C86.3603 54.1946 85.7653 51.6364 85.1703 49.0782H85.1108C84.4269 51.6364 83.7724 54.1946 83.0884 56.7528C81.6604 56.7528 80.2324 56.7528 78.8044 56.7528C77.734 53.2129 76.6329 49.6731 75.5625 46.1035C76.8415 46.1035 78.1204 46.1035 79.3994 46.1035C79.9649 48.632 80.5299 51.1604 81.0949 53.6889H81.1544C81.7494 51.1604 82.3744 48.632 82.9694 46.1035C84.4563 46.1035 85.9138 46.1035 87.4013 46.1035Z" fill="#242021"/>
<path d="M122.737 47.4122C122.737 45.4192 122.737 43.4559 122.737 41.4629C123.987 41.4629 125.176 41.4629 126.426 41.4629C126.426 46.5496 126.426 51.666 126.426 56.7824C125.295 56.7824 124.195 56.7824 123.064 56.7824C123.064 56.1875 123.064 55.5628 123.064 54.8786C121.756 57.5556 117.293 57.9126 115.538 54.9679C114.2 52.7368 114.111 50.3869 115.39 48.0667C116.342 46.3711 117.859 45.7166 119.792 45.9249C120.952 46.0141 121.934 46.4603 122.737 47.4122ZM122.767 51.428C122.767 50.9818 122.707 50.5356 122.529 50.1192C122.172 49.197 121.399 48.6616 120.476 48.6616C119.554 48.6616 118.811 49.2267 118.513 50.1489C118.186 51.1008 118.245 52.0527 118.662 52.9451C119.346 54.3432 121.101 54.5514 122.083 53.3615C122.588 52.8261 122.767 52.1419 122.767 51.428Z" fill="#242021"/>
<path d="M71.3951 42.5039C73.2396 47.2633 75.0541 51.9931 76.8686 56.7228C75.4706 56.7228 74.1021 56.7228 72.6747 56.7228C72.3471 55.8304 72.0202 54.9082 71.7227 53.9861C71.6331 53.7481 71.5442 53.6589 71.2761 53.6589C69.6996 53.6886 68.1232 53.6589 66.5467 53.6589C66.3087 53.6589 66.2192 53.7481 66.1597 53.9564C65.8622 54.819 65.5352 55.6519 65.2083 56.5146C65.1782 56.6335 65.1187 56.7228 64.9703 56.7228C63.7502 56.7228 62.5307 56.7228 61.2812 56.7228C61.4002 56.3658 61.5493 56.0386 61.6683 55.7114C63.3042 51.3981 64.9402 47.0848 66.5762 42.7716C66.6657 42.5634 66.7252 42.5039 66.9632 42.5039C68.4502 42.5336 69.9082 42.5039 71.3951 42.5039ZM67.2012 50.9817C68.3906 50.9817 69.5512 50.9817 70.7406 50.9817C70.1757 49.1374 69.6107 47.2931 69.0157 45.4191C68.3907 47.3228 67.7962 49.1374 67.2012 50.9817Z" fill="#242021"/>
<path d="M105.487 56.7531C104.357 56.7531 103.256 56.7531 102.126 56.7531C102.096 56.2177 102.066 55.6822 102.037 55.0874C101.769 55.4443 101.531 55.7715 101.263 56.0392C100.371 56.9019 99.2406 57.0506 98.0801 56.9611C97.1581 56.8721 96.3251 56.6044 95.6111 55.9797C94.3027 54.8196 94.1536 51.8747 96.3846 50.7741C97.4556 50.2386 98.6156 50.0602 99.7756 50.0304C100.46 50.0007 101.144 50.0602 101.829 50.1494C101.918 49.5842 101.591 48.9298 101.025 48.6323C100.49 48.3349 99.8946 48.3051 99.3296 48.3348C98.1991 48.3348 97.0986 48.5728 96.0577 49.138C96.0276 48.3051 96.0276 47.5317 95.9982 46.7583C95.9982 46.5798 96.1172 46.5798 96.2362 46.5501C97.3961 46.1039 98.6156 45.9254 99.8351 45.8956C100.698 45.8659 101.591 45.9254 102.423 46.1931C104.268 46.788 105.308 48.1861 105.308 50.1197C105.308 51.3095 105.308 52.5291 105.308 53.719C105.279 54.7006 105.279 55.712 105.487 56.7531ZM101.799 51.964C101.293 51.964 100.817 51.964 100.311 51.964C99.7461 51.964 99.2106 52.0235 98.7051 52.2911C98.2291 52.5589 98.0206 52.9753 98.0801 53.5108C98.1396 54.0165 98.4966 54.2842 98.9431 54.4329C100.401 54.8791 101.918 53.6 101.799 51.964Z" fill="#242021"/>
<path d="M114.735 45.9845C114.676 46.9958 114.616 48.0072 114.557 49.0186C114.17 48.9294 113.783 48.8996 113.397 48.8996C111.998 48.8996 111.076 49.6136 110.749 50.9819C110.63 51.4281 110.6 51.904 110.6 52.38C110.6 53.8078 110.6 55.2356 110.6 56.6932C109.381 56.6932 108.161 56.6932 106.941 56.6932C106.941 53.1534 106.941 49.6136 106.941 46.0737C108.042 46.0737 109.143 46.0737 110.273 46.0737C110.273 46.6983 110.273 47.323 110.273 47.9477L110.333 48.0072C111.225 46.0737 112.772 45.5383 114.735 45.9845Z" fill="#242021"/>
<path d="M135.471 46.2228C135.441 47.026 135.411 47.8291 135.381 48.6323C134.489 48.0969 133.418 47.8291 132.347 47.8886C131.752 47.9184 131.009 48.2158 131.068 48.8108C131.098 49.257 131.603 49.5247 132.02 49.6734C133.478 50.1791 135.233 50.6254 135.857 52.0532C136.303 53.0943 135.917 54.3437 135.143 55.1468C134.37 55.95 133.269 56.3664 132.139 56.5449C130.652 56.7829 129.105 56.6044 127.707 56.0392C127.498 55.95 127.498 53.7785 127.558 53.5703C128.896 53.8975 130.086 54.2841 131.484 54.2246C131.841 54.2246 132.288 54.1355 132.466 53.8082C132.615 53.5405 132.526 53.1538 132.317 52.9158C132.109 52.6779 131.782 52.5589 131.484 52.4399C130.176 51.9639 128.629 51.607 127.945 50.3874C127.35 49.3165 127.677 47.8886 128.51 47.026C129.343 46.1336 130.622 45.7469 131.841 45.7171C133.061 45.6874 134.281 45.9551 135.471 46.2228Z" fill="#242021"/>
<path d="M69.4342 19.3018L71.6057 21.9492L60.8968 36.1681L59.1719 32.658L69.4342 19.3018Z" fill="url(#paint0_linear_221_41847)"/>
<path d="M46.4102 31.3786L49.2064 30.04L62.9788 39.8862L59.9154 41.3735L46.4102 31.3786Z" fill="url(#paint1_linear_221_41847)"/>
<path d="M61.2829 27.0951L64.2279 25.1318L47.1237 9.30664L44.2383 10.7047L61.2829 27.0951Z" fill="url(#paint2_linear_221_41847)"/>
<path d="M59.915 41.3735L62.9784 39.8862L47.1237 9.30664L44.2383 10.7047L59.915 41.3735Z" fill="url(#paint3_linear_221_41847)"/>
<path d="M44.2383 10.7047L47.1237 9.30664L51.318 17.4275L44.2383 10.7047Z" fill="#9EAD1C"/>
<path d="M52.1216 32.1222L49.1172 29.9507L69.2856 19.3906L71.4571 22.0083L52.1216 32.1222Z" fill="url(#paint4_linear_221_41847)"/>
<path d="M46.2305 31.3195L49.1159 29.9512L52.1203 32.1227L49.2944 33.4613L46.2305 31.3195Z" fill="#288036"/>
<path d="M59.9137 41.3144L62.9777 39.8866L56.9688 35.6328L59.9137 41.3144Z" fill="#046F33"/>
<path d="M51.137 58.6562L41.5586 66.9557L44.8307 67.8782L51.2857 61.6312L51.137 58.6562Z" fill="#6CBB4E"/>
<path d="M39.6276 71.924L36.7422 71.0315L37.1586 49.1678L40.1333 48.2754L39.6276 71.924Z" fill="#6CBB4E"/>
<path d="M47.0039 38.5483L49.8001 37.0312L59.5272 44.0812L59.4677 47.621L47.0039 38.5483Z" fill="url(#paint5_linear_221_41847)"/>
<path d="M47.0352 38.3698L49.8016 37.0312L51.6161 61.4831L48.9389 63.8031L47.0352 38.3698Z" fill="url(#paint6_linear_221_41847)"/>
<path d="M29.957 63.6836L30.314 67.0156L42.7184 70.1385L44.8304 67.8781L29.957 63.6836Z" fill="url(#paint7_linear_221_41847)"/>
<path d="M37.1577 49.1675L40.1324 48.4238L39.9242 57.0505L36.8008 59.1324L37.1577 49.1675Z" fill="#048A66"/>
<path d="M37.0078 52.6178L37.1566 49.1672L50.3938 45.1514L50.6318 48.245L37.0078 52.6178Z" fill="url(#paint8_linear_221_41847)"/>
<path d="M48.9372 63.9217L48.6992 60.7687L51.3764 58.4482L51.6144 61.4827L48.9372 63.9217Z" fill="#589C30"/>
<path d="M36.8008 68.6517L36.8305 65.6172L39.7457 66.4502L39.6862 69.3952L36.8008 68.6517Z" fill="#399337"/>
<path d="M47.0352 38.3698L49.8016 37.0312L50.0396 40.7793L47.0352 38.3698Z" fill="#399337"/>
<path d="M59.4657 47.6209L59.5252 44.0811L29.957 63.684L30.314 67.0155L59.4657 47.6209Z" fill="#6CBB4E"/>
<path d="M56.9375 45.8063L59.5255 44.0811L59.466 47.6209L56.9375 45.8063Z" fill="#008341"/>
</g>
</g>
<defs>
<linearGradient id="paint0_linear_221_41847" x1="56.5592" y1="34.7814" x2="71.57" y2="22.4867" gradientUnits="userSpaceOnUse">
<stop stop-color="#E7C913"/>
<stop offset="0.0338942" stop-color="#E7C913"/>
<stop offset="0.0918522" stop-color="#E2C913"/>
<stop offset="0.4478" stop-color="#C9C913"/>
<stop offset="0.5358" stop-color="#C5C815"/>
<stop offset="0.6158" stop-color="#BAC41A"/>
<stop offset="0.6928" stop-color="#A8BD23"/>
<stop offset="0.768" stop-color="#8EB32F"/>
<stop offset="0.8417" stop-color="#6CA63F"/>
<stop offset="0.9144" stop-color="#439753"/>
<stop offset="0.9851" stop-color="#13856A"/>
<stop offset="1" stop-color="#08816F"/>
</linearGradient>
<linearGradient id="paint1_linear_221_41847" x1="61.2816" y1="42.5873" x2="46.4275" y2="26.8962" gradientUnits="userSpaceOnUse">
<stop stop-color="#C9C913"/>
<stop offset="0.1125" stop-color="#BCC419"/>
<stop offset="0.3211" stop-color="#99B72A"/>
<stop offset="0.6028" stop-color="#62A244"/>
<stop offset="0.9437" stop-color="#158669"/>
<stop offset="1" stop-color="#08816F"/>
</linearGradient>
<linearGradient id="paint2_linear_221_41847" x1="46.2565" y1="5.34239" x2="59.7518" y2="26.629" gradientUnits="userSpaceOnUse">
<stop stop-color="#C9C913"/>
<stop offset="0.2404" stop-color="#C6C814"/>
<stop offset="0.3893" stop-color="#BEC518"/>
<stop offset="0.5132" stop-color="#AFBF1F"/>
<stop offset="0.6235" stop-color="#9BB829"/>
<stop offset="0.7248" stop-color="#80AE36"/>
<stop offset="0.8194" stop-color="#5FA245"/>
<stop offset="0.9089" stop-color="#389358"/>
<stop offset="0.9923" stop-color="#0C836D"/>
<stop offset="1" stop-color="#08816F"/>
</linearGradient>
<linearGradient id="paint3_linear_221_41847" x1="47.0292" y1="7.91377" x2="56.5517" y2="33.0899" gradientUnits="userSpaceOnUse">
<stop stop-color="#C9C913"/>
<stop offset="0.2933" stop-color="#C7C814"/>
<stop offset="0.4419" stop-color="#BFC518"/>
<stop offset="0.558" stop-color="#B2C01E"/>
<stop offset="0.6573" stop-color="#9FB927"/>
<stop offset="0.7458" stop-color="#86B033"/>
<stop offset="0.8266" stop-color="#68A541"/>
<stop offset="0.9018" stop-color="#449852"/>
<stop offset="0.9703" stop-color="#1C8865"/>
<stop offset="1" stop-color="#08816F"/>
</linearGradient>
<linearGradient id="paint4_linear_221_41847" x1="46.5532" y1="34.8125" x2="66.3412" y2="22.0916" gradientUnits="userSpaceOnUse">
<stop stop-color="#C9C913"/>
<stop offset="0.1594" stop-color="#C5C815"/>
<stop offset="0.3043" stop-color="#BAC41A"/>
<stop offset="0.4438" stop-color="#A8BD23"/>
<stop offset="0.5798" stop-color="#8EB32F"/>
<stop offset="0.7133" stop-color="#6CA63F"/>
<stop offset="0.845" stop-color="#439753"/>
<stop offset="0.9729" stop-color="#13856A"/>
<stop offset="1" stop-color="#08816F"/>
</linearGradient>
<linearGradient id="paint5_linear_221_41847" x1="46.8202" y1="35.1832" x2="60.1064" y2="47.8468" gradientUnits="userSpaceOnUse">
<stop stop-color="#C9C913"/>
<stop offset="0.1594" stop-color="#C5C815"/>
<stop offset="0.3043" stop-color="#BAC41A"/>
<stop offset="0.4438" stop-color="#A8BD23"/>
<stop offset="0.5798" stop-color="#8EB32F"/>
<stop offset="0.7133" stop-color="#6CA63F"/>
<stop offset="0.845" stop-color="#439753"/>
<stop offset="0.9729" stop-color="#13856A"/>
<stop offset="1" stop-color="#08816F"/>
</linearGradient>
<linearGradient id="paint6_linear_221_41847" x1="50.347" y1="66.3553" x2="48.1601" y2="31.1957" gradientUnits="userSpaceOnUse">
<stop stop-color="#C9C913"/>
<stop offset="0.1594" stop-color="#C5C815"/>
<stop offset="0.3043" stop-color="#BAC41A"/>
<stop offset="0.4438" stop-color="#A8BD23"/>
<stop offset="0.5798" stop-color="#8EB32F"/>
<stop offset="0.7133" stop-color="#6CA63F"/>
<stop offset="0.845" stop-color="#439753"/>
<stop offset="0.9729" stop-color="#13856A"/>
<stop offset="1" stop-color="#08816F"/>
</linearGradient>
<linearGradient id="paint7_linear_221_41847" x1="47.2668" y1="71.5506" x2="31.859" y2="65.0402" gradientUnits="userSpaceOnUse">
<stop stop-color="#C9C913"/>
<stop offset="0.1594" stop-color="#C5C815"/>
<stop offset="0.3043" stop-color="#BAC41A"/>
<stop offset="0.4438" stop-color="#A8BD23"/>
<stop offset="0.5798" stop-color="#8EB32F"/>
<stop offset="0.7133" stop-color="#6CA63F"/>
<stop offset="0.845" stop-color="#439753"/>
<stop offset="0.9729" stop-color="#13856A"/>
<stop offset="1" stop-color="#08816F"/>
</linearGradient>
<linearGradient id="paint8_linear_221_41847" x1="28.6676" y1="54.8369" x2="45.9627" y2="47.8767" gradientUnits="userSpaceOnUse">
<stop stop-color="#C9C913"/>
<stop offset="0.1594" stop-color="#C5C815"/>
<stop offset="0.3043" stop-color="#BAC41A"/>
<stop offset="0.4438" stop-color="#A8BD23"/>
<stop offset="0.5798" stop-color="#8EB32F"/>
<stop offset="0.7133" stop-color="#6CA63F"/>
<stop offset="0.845" stop-color="#439753"/>
<stop offset="0.9729" stop-color="#13856A"/>
<stop offset="1" stop-color="#08816F"/>
</linearGradient>
<clipPath id="clip0_221_41847">
<rect width="136" height="85" fill="white" transform="translate(0.159912 0.240234)"/>
</clipPath>
</defs>
</svg>
