<svg width="52" height="52" viewBox="0 0 52 52" fill="none" xmlns="http://www.w3.org/2000/svg">
<g id="microphone-icon-blue.svg">
<path id="Vector" fill-rule="evenodd" clip-rule="evenodd" d="M49.851 24.1587C49.7405 21.6375 48.5943 19.2488 46.6851 17.3189L48.151 15.8687C50.366 18.1077 51.775 20.9638 51.911 24.0684C52.0476 27.1853 50.8964 30.445 48.1853 33.4652L46.6508 32.0878C49.0501 29.4149 49.9609 26.6677 49.851 24.1587ZM43.7414 29.1692C46.0655 26.6126 45.8507 22.4774 43.7623 20.3131L45.2462 18.8813C48.0889 21.8273 48.3223 27.1956 45.2672 30.5563L43.7414 29.1692ZM40.8013 26.1907C41.5118 25.4493 41.7081 24.147 40.7935 23.1713L42.2978 21.761C44.0728 23.6543 43.6416 26.2072 42.2901 27.6175L40.8013 26.1907Z" fill="url(#paint0_linear_871_8259)"/>
<path id="Vector_2" fill-rule="evenodd" clip-rule="evenodd" d="M37.2071 8.6065H33.2623V40.7031H37.2071V8.6065ZM31.2002 6.54443V42.7651H39.2692V6.54443H31.2002Z" fill="#00267B"/>
<path id="Vector_3" fill-rule="evenodd" clip-rule="evenodd" d="M19.9026 15.5757C24.4817 14.9691 28.8293 13.5435 31.4895 10.4053L33.0624 11.7387C30.0951 15.2392 25.5246 16.7933 21.0691 17.4907V31.5059C23.4422 31.8714 25.8015 32.4622 27.8461 33.4235C30.1538 34.5086 32.1274 36.0989 33.211 38.4306L31.3409 39.2996C30.524 37.5415 28.996 36.2428 26.9687 35.2896C24.9357 34.3338 22.4682 33.759 19.9039 33.4227C16.1728 32.9334 12.3772 32.9631 9.60701 32.9848C9.08548 32.9889 8.6003 32.9927 8.15873 32.9927H7.12769V15.9582H8.15873C8.7168 15.9582 9.32788 15.9656 9.98209 15.9735C12.7622 16.0071 16.3213 16.0502 19.9026 15.5757ZM19.007 31.2411V17.7576C15.6591 18.1067 12.3899 18.0662 9.89932 18.0354C9.6551 18.0324 9.41836 18.0294 9.18976 18.027V30.9256C9.30978 30.9247 9.43237 30.9237 9.55742 30.9227C12.0445 30.9026 15.5049 30.8746 19.007 31.2411Z" fill="#00267B"/>
<path id="Vector_4" fill-rule="evenodd" clip-rule="evenodd" d="M11.9243 41.3754C11.9243 42.1256 12.1945 42.5963 12.5343 42.8901C12.8953 43.2023 13.4118 43.3784 13.9715 43.3703C14.5313 43.3622 15.0604 43.1703 15.4342 42.8434C15.7883 42.5338 16.0485 42.0668 16.0485 41.3754V32.2754H18.1105V41.3754C18.1105 42.6563 17.5975 43.691 16.7916 44.3957C16.0055 45.083 14.9881 45.4179 14.0013 45.4322C13.0144 45.4465 11.9844 45.1407 11.1855 44.4499C10.3654 43.7407 9.8623 42.6872 9.8623 41.3754V32.2754H11.9243V41.3754Z" fill="#00267B"/>
<path id="Vector_5" fill-rule="evenodd" clip-rule="evenodd" d="M2.00026 20.4817C3.03779 19.6382 4.33972 19.186 5.42433 19.186H8.15881V21.2481H5.42433C4.85032 21.2481 4.00052 21.5131 3.30098 22.0817C2.62859 22.6283 2.15191 23.4049 2.15191 24.4308C2.15191 26.6955 3.80561 28.1067 5.33467 28.1067H8.15881V30.1688H5.33467C2.56029 30.1688 0.0898438 27.7248 0.0898438 24.4308C0.0898438 22.6774 0.935579 21.3471 2.00026 20.4817Z" fill="#00267B"/>
<g id="Group" filter="url(#filter0_d_871_8259)">
<path id="Vector_6" d="M20.1262 28.8656C22.5269 28.8656 24.4731 26.9195 24.4731 24.5188C24.4731 22.118 22.5269 20.1719 20.1262 20.1719C17.7255 20.1719 15.7793 22.118 15.7793 24.5188C15.7793 26.9195 17.7255 28.8656 20.1262 28.8656Z" fill="white"/>
</g>
<path id="Vector_7" d="M20.1255 26.2578C21.0858 26.2578 21.8642 25.4793 21.8642 24.519C21.8642 23.5587 21.0858 22.7803 20.1255 22.7803C19.1652 22.7803 18.3867 23.5587 18.3867 24.519C18.3867 25.4793 19.1652 26.2578 20.1255 26.2578Z" fill="#0045E6"/>
</g>
<defs>
<filter id="filter0_d_871_8259" x="11.7793" y="18.1719" width="16.6938" height="16.6938" filterUnits="userSpaceOnUse" color-interpolation-filters="sRGB">
<feFlood flood-opacity="0" result="BackgroundImageFix"/>
<feColorMatrix in="SourceAlpha" type="matrix" values="0 0 0 0 0 0 0 0 0 0 0 0 0 0 0 0 0 0 127 0" result="hardAlpha"/>
<feOffset dy="2"/>
<feGaussianBlur stdDeviation="2"/>
<feColorMatrix type="matrix" values="0 0 0 0 0 0 0 0 0 0 0 0 0 0 0 0 0 0 0.45 0"/>
<feBlend mode="normal" in2="BackgroundImageFix" result="effect1_dropShadow_871_8259"/>
<feBlend mode="normal" in="SourceGraphic" in2="effect1_dropShadow_871_8259" result="shape"/>
</filter>
<linearGradient id="paint0_linear_871_8259" x1="46.352" y1="24.6669" x2="40.7935" y2="24.6669" gradientUnits="userSpaceOnUse">
<stop stop-color="#00267B"/>
<stop offset="1" stop-color="#00267B" stop-opacity="0"/>
</linearGradient>
</defs>
</svg>
