<svg width="114" height="163" viewBox="0 0 114 163" fill="none" xmlns="http://www.w3.org/2000/svg">
<g clip-path="url(#clip0_296_25393)">
<path d="M1.57422 105.906H108.098" stroke="white" stroke-width="0.75" stroke-miterlimit="10"/>
<path d="M0.117188 114.887H2.07934L4.99674 130.287H5.73255L9.21795 115.003H11.4641L14.9495 130.287H15.6853L18.6027 114.887H20.5648L17.0278 131.965H13.5424L10.2894 117.353L7.03635 131.965H3.53804L0.117188 114.887Z" fill="white"/>
<path d="M23.0273 116.864V114.734H24.8862V116.864H23.0273ZM23.0273 131.98V119.626H24.8862V131.98H23.0273Z" fill="white"/>
<path d="M30.2846 131.966H28.4258V119.612H30.2846V120.451C31.6272 119.715 32.8664 119.328 34.1057 119.328C35.7322 119.328 36.8553 119.78 37.4232 120.67C37.9912 121.574 38.2623 123.136 38.2623 125.395V131.914H36.4034V125.447C36.4034 123.756 36.2356 122.581 35.9 121.91C35.5644 121.29 34.8286 120.954 33.77 120.954C33.2666 120.954 32.6986 121.006 32.079 121.174C31.511 121.342 31.0721 121.458 30.7364 121.626L30.2846 121.845V131.953V131.966Z" fill="white"/>
<path d="M43.5425 131.966H41.6836V119.612H43.5425V120.451C44.885 119.715 46.1243 119.328 47.3635 119.328C48.9901 119.328 50.1131 119.78 50.6811 120.67C51.2491 121.574 51.5202 123.136 51.5202 125.395V131.914H49.6613V125.447C49.6613 123.756 49.4935 122.581 49.1579 121.91C48.8222 121.29 48.0864 120.954 47.0279 120.954C46.5245 120.954 45.9565 121.006 45.3368 121.174C44.7688 121.342 44.3299 121.458 43.9943 121.626L43.5425 121.845V131.953V131.966Z" fill="white"/>
<path d="M63.3157 130.455L64.0515 130.403L64.1032 131.862C62.2443 132.146 60.6178 132.249 59.2752 132.249C57.4809 132.249 56.2417 131.746 55.5059 130.726C54.7701 129.719 54.3828 128.08 54.3828 125.898C54.3828 121.574 56.1255 119.379 59.5463 119.379C61.2374 119.379 62.4637 119.831 63.2512 120.786C64.0903 121.741 64.4904 123.2 64.4904 125.162L64.3743 126.569H56.2288C56.2288 127.912 56.4482 128.932 56.9646 129.603C57.468 130.274 58.3071 130.61 59.5463 130.61C60.7856 130.61 62.0765 130.558 63.3157 130.442V130.455ZM62.6961 125.124C62.6961 123.6 62.4767 122.542 61.9603 121.922C61.4569 121.303 60.6694 120.967 59.598 120.967C58.4749 120.967 57.6875 121.303 57.1324 121.974C56.5773 122.645 56.2933 123.665 56.2933 125.124H62.6961Z" fill="white"/>
<path d="M67.4219 131.968V119.615H69.2808V121.306C70.7395 120.299 72.1982 119.679 73.7731 119.344V121.202C73.1018 121.319 72.366 121.538 71.6431 121.822C70.9202 122.106 70.3006 122.326 69.9004 122.558L69.2808 122.893V131.943H67.4219V131.994V131.968Z" fill="white"/>
<path d="M0.902344 148.711L3.14848 140.566H5.11063L7.35678 148.711H6.45316L5.88516 146.633H2.41268L1.84469 148.711H0.902344ZM3.81974 141.353L2.58049 145.794H5.66571L4.42646 141.353H3.80684H3.81974Z" fill="white"/>
<path d="M8.54688 148.709V140.562H9.4505V148.709H8.54688Z" fill="white"/>
<path d="M10.6758 148.608L13.9934 140.41L14.7808 140.694L11.4633 148.892L10.6758 148.608Z" fill="white"/>
<path d="M16.0063 148.709V140.562H17.6328L19.9306 147.418L22.2284 140.562H23.8549V148.709H22.9513V141.519H22.7835L20.4211 148.372H19.4142L17.0519 141.519H16.8841V148.709H15.9805H16.0063Z" fill="white"/>
<path d="M30.2853 148.709H25.793V140.562H26.6966V147.87H30.2982V148.709H30.2853Z" fill="white"/>
<path d="M32.918 141.351V140.562H38.8174V141.351H36.3518V148.657H35.4481V141.351H32.918Z" fill="white"/>
<path d="M42.5881 147.987L42.9237 147.936V148.607C42.0201 148.723 41.2326 148.775 40.6259 148.775C39.7869 148.775 39.1672 148.555 38.8316 148.039C38.496 147.523 38.3281 146.8 38.3281 145.741C38.3281 143.663 39.1672 142.656 40.7937 142.656C41.5812 142.656 42.2008 142.875 42.5881 143.327C42.9753 143.779 43.1561 144.45 43.1561 145.406L43.1044 146.077H39.2318C39.2318 146.748 39.3479 147.2 39.5674 147.536C39.7869 147.871 40.187 147.987 40.8067 147.987C41.4263 148.039 42.0459 148.039 42.601 147.987H42.5881ZM42.3041 145.406C42.3041 144.67 42.1879 144.166 41.9684 143.882C41.749 143.598 41.3488 143.431 40.8454 143.431C40.3419 143.431 39.9418 143.598 39.6707 143.882C39.3867 144.218 39.2834 144.721 39.2834 145.406H42.317H42.3041Z" fill="white"/>
<path d="M48.6007 144.617V147.651C48.6007 147.935 48.8202 148.102 49.272 148.154L49.2203 148.825C48.6007 148.825 48.1489 148.658 47.8133 148.374C47.0775 148.709 46.4062 148.825 45.6833 148.825C45.1153 148.825 44.728 148.658 44.444 148.374C44.1601 148.09 43.9922 147.638 43.9922 147.083C43.9922 146.528 44.1601 146.076 44.444 145.792C44.728 145.508 45.1799 145.34 45.7866 145.288L47.6455 145.12V144.617C47.6455 144.23 47.5293 143.946 47.3615 143.778C47.1936 143.61 46.9742 143.494 46.6256 143.494C46.006 143.494 45.3348 143.546 44.6635 143.61L44.3279 143.662L44.2762 142.991C45.1153 142.823 45.9028 142.707 46.574 142.707C47.2453 142.707 47.6971 142.874 48.0327 143.158C48.42 143.494 48.6007 143.946 48.6007 144.617ZM44.9475 146.979C44.9475 147.715 45.2315 148.051 45.8511 148.051C46.3546 148.051 46.9226 147.935 47.426 147.767L47.71 147.651V145.688L45.9673 145.856C45.6317 145.908 45.3477 145.972 45.1799 146.14C45.0637 146.424 44.9604 146.644 44.9604 146.979H44.9475Z" fill="white"/>
<path d="M51.0677 148.711H50.1641V142.812H51.0031V143.199C51.5711 142.863 52.1778 142.695 52.7458 142.695C53.4816 142.695 53.9851 142.915 54.2691 143.315C54.5531 143.147 54.8887 143.031 55.276 142.928C55.6632 142.812 56.0634 142.76 56.3474 142.76C57.1348 142.76 57.6383 142.979 57.9223 143.38C58.2063 143.78 58.3096 144.554 58.3096 145.626V148.711H57.4059V145.626C57.4059 144.787 57.3543 144.283 57.1865 143.935C57.0187 143.651 56.683 143.483 56.1796 143.483C55.8956 143.483 55.6761 143.534 55.3921 143.599C55.1082 143.663 54.8887 143.767 54.7725 143.818L54.5531 143.935C54.6692 144.219 54.7209 144.774 54.7209 145.677V148.711H53.8173V145.677C53.8173 144.838 53.7656 144.27 53.5978 143.935C53.43 143.651 53.0944 143.483 52.5909 143.483C52.3715 143.483 52.0875 143.534 51.8035 143.599C51.5195 143.663 51.3517 143.767 51.1839 143.818L50.9644 143.935V148.711H51.0806H51.0677Z" fill="white"/>
<path d="M1.23828 159.839C1.23828 158.767 1.4061 157.98 1.80627 157.541C2.19354 157.038 2.81317 156.805 3.76842 156.805C4.67205 156.805 5.34331 157.025 5.73057 157.541C6.11784 158.057 6.29856 158.78 6.29856 159.839C6.29856 160.897 6.13075 161.698 5.73057 162.201C5.39494 162.705 4.72368 162.937 3.76842 162.937C2.81317 162.937 2.14191 162.717 1.80627 162.201C1.41901 161.698 1.23828 160.91 1.23828 159.839ZM2.14191 159.839C2.14191 160.678 2.25809 161.298 2.47754 161.633C2.69699 161.969 3.09716 162.137 3.76842 162.137C4.43969 162.137 4.83986 161.969 5.05931 161.633C5.27876 161.298 5.34331 160.678 5.34331 159.839C5.34331 159 5.22713 158.38 5.00768 158.044C4.78823 157.709 4.33641 157.541 3.71679 157.541C3.09716 157.541 2.7099 157.709 2.4259 158.044C2.25809 158.38 2.14191 159 2.14191 159.839Z" fill="white"/>
<path d="M8.71364 157.706V162.818H7.81002V157.706H7.07422V156.919H7.81002V156.416C7.81002 155.576 7.9262 155.008 8.14565 154.724C8.3651 154.44 8.81691 154.273 9.3849 154.273L10.5596 154.324V155.06H9.48818C9.20418 155.06 8.98473 155.176 8.86855 155.344C8.75237 155.512 8.70073 155.912 8.70073 156.416V156.919H10.3918V157.706H8.70073H8.71364Z" fill="white"/>
<path d="M16.8612 157.707H15.0024V160.521C15.0024 161.193 15.054 161.644 15.1702 161.864C15.2864 162.083 15.5058 162.2 15.8414 162.2L16.9129 162.148L16.9645 162.884C16.4611 163 16.0609 163 15.7898 163C15.1702 163 14.7829 162.832 14.4989 162.548C14.2795 162.264 14.1633 161.709 14.1633 160.857V157.772H13.3242V156.984H14.1633V155.125H15.0024V156.92H16.8612V157.707Z" fill="white"/>
<path d="M18.7044 162.821H17.8008V154.391H18.7044V157.257C19.324 156.973 19.9437 156.805 20.4988 156.805C21.2862 156.805 21.7896 157.025 22.0736 157.425C22.3576 157.877 22.4609 158.599 22.4609 159.671V162.756H21.5573V159.671C21.5573 158.832 21.5057 158.328 21.3378 157.98C21.17 157.696 20.8344 157.528 20.3309 157.528C19.8275 157.528 19.3757 157.644 18.8722 157.812L18.7044 157.928V162.821Z" fill="white"/>
<path d="M28.0372 162.085L28.3729 162.034V162.705C27.4692 162.821 26.6818 162.873 26.0751 162.873C25.236 162.873 24.6164 162.653 24.2808 162.137C23.9451 161.621 23.7773 160.898 23.7773 159.839C23.7773 157.761 24.6164 156.754 26.2429 156.754C27.0303 156.754 27.65 156.973 28.0372 157.425C28.4245 157.877 28.6052 158.548 28.6052 159.504L28.5536 160.175H24.6809C24.6809 160.846 24.7971 161.298 25.0166 161.634C25.236 161.969 25.6362 162.085 26.2558 162.085C26.8238 162.137 27.4305 162.137 28.0501 162.085H28.0372ZM27.7016 159.555C27.7016 158.819 27.5854 158.316 27.366 158.032C27.1465 157.748 26.7464 157.58 26.2429 157.58C25.7395 157.58 25.3393 157.748 25.0682 158.032C24.7842 158.368 24.6809 158.871 24.6809 159.555H27.7145H27.7016Z" fill="white"/>
<path d="M35.0596 162.822H34.156V159.401L31.5742 154.676H32.5811L34.6078 158.497L36.6345 154.676H37.6414L35.0596 159.401V162.822Z" fill="white"/>
<path d="M41.6819 162.085L42.0175 162.034V162.705C41.1139 162.821 40.3264 162.873 39.7197 162.873C38.8806 162.873 38.261 162.653 37.9254 162.137C37.5898 161.621 37.4219 160.898 37.4219 159.839C37.4219 157.761 38.261 156.754 39.8875 156.754C40.675 156.754 41.2946 156.973 41.6819 157.425C42.0691 157.877 42.2499 158.548 42.2499 159.504L42.1982 160.175H38.3256C38.3256 160.846 38.4417 161.298 38.6612 161.634C38.8806 161.969 39.2808 162.085 39.9004 162.085C40.5201 162.137 41.0752 162.137 41.6948 162.085H41.6819ZM41.3462 159.555C41.3462 158.819 41.2301 158.316 41.0106 158.032C40.7912 157.748 40.391 157.58 39.8875 157.58C39.3841 157.58 38.9839 157.748 38.7128 158.032C38.4417 158.316 38.3256 158.871 38.3256 159.555H41.3591H41.3462Z" fill="white"/>
<path d="M47.6476 158.714V161.748C47.6476 162.032 47.867 162.199 48.3188 162.251L48.2672 162.922C47.6476 162.922 47.1958 162.755 46.8601 162.471C46.1243 162.806 45.4531 162.922 44.7302 162.922C44.1622 162.922 43.7749 162.755 43.4909 162.471C43.2069 162.187 43.0391 161.735 43.0391 161.18C43.0391 160.625 43.2069 160.173 43.4909 159.94C43.7749 159.656 44.2267 159.489 44.8335 159.437L46.6923 159.269V158.766C46.6923 158.378 46.5762 158.094 46.4083 157.927C46.2405 157.759 46.0211 157.643 45.6725 157.643C45.0529 157.643 44.3816 157.694 43.7104 157.759L43.3747 157.81L43.3231 157.139C44.1622 156.971 44.9496 156.855 45.6209 156.855C46.2922 156.855 46.744 157.023 47.0796 157.307C47.5314 157.591 47.6476 158.043 47.6476 158.714ZM44.046 161.128C44.046 161.864 44.33 162.199 44.9496 162.199C45.4531 162.199 46.0211 162.083 46.5245 161.915L46.8085 161.799V159.837L45.0658 160.005C44.7302 160.057 44.4462 160.121 44.2784 160.289C44.1106 160.457 44.0589 160.792 44.0589 161.128H44.046Z" fill="white"/>
<path d="M49.2734 162.821V156.922H50.1125V157.709C50.7838 157.257 51.5196 156.922 52.2425 156.754V157.658C51.9068 157.709 51.5712 157.825 51.2356 157.942C50.8999 158.058 50.616 158.161 50.3965 158.277L50.177 158.497V162.821H49.2734Z" fill="white"/>
<path d="M0 42.7008L3.25304 28.3203H8.76513L11.9665 42.7008H9.04912L8.48113 40.119H3.4854L2.91741 42.7008H0ZM5.44755 30.7343L3.98884 37.5373H7.92605L6.46735 30.7343H5.46046H5.44755Z" fill="white"/>
<path d="M13.375 42.7008V28.3203H16.2924V42.7008H13.375Z" fill="white"/>
<path d="M24.941 28.4914C25.7284 27.9234 26.7998 27.6523 28.1424 27.6523C29.4849 27.6523 30.5563 27.9363 31.2921 28.5559C32.0279 29.1239 32.4152 29.963 32.4152 30.9699C32.4152 31.9768 32.1958 32.7642 31.7956 33.3322C31.3438 33.9002 30.6209 34.5714 29.5494 35.3589L31.6278 37.4372C31.7439 37.2178 31.7956 36.8176 31.9118 36.198C32.0279 35.5783 32.0279 35.0749 32.0796 34.7393L34.8292 34.7909C34.6097 36.4174 34.2612 37.8761 33.7577 39.0637L36.12 41.1421L34.429 42.9364L32.1828 41.0775C31.6794 41.6455 31.0598 42.0328 30.2723 42.3684C29.4849 42.704 28.6974 42.8719 27.8584 42.8719C25.78 42.8719 24.3213 42.4846 23.4823 41.7488C22.6432 41.013 22.1914 39.8899 22.1914 38.4957C22.1914 37.3727 22.4108 36.4691 22.9272 35.7978C23.4306 35.1265 24.1664 34.6231 25.225 34.2229C24.657 33.4871 24.2697 32.932 24.1019 32.5318C23.9341 32.08 23.8179 31.525 23.8179 30.8408C23.7663 29.8339 24.1535 29.0464 24.941 28.4785V28.4914ZM27.5227 40.4063C28.0907 40.4063 28.6458 40.3546 29.1493 40.1868C29.7172 40.019 30.0529 39.8512 30.2723 39.5672L26.6191 35.914C25.5477 36.4174 25.0442 37.2049 25.0442 38.3279C25.0442 39.735 25.8317 40.4063 27.5098 40.4063H27.5227ZM26.6191 31.4733C26.6191 32.0413 26.9547 32.648 27.5744 33.3322L27.91 33.7195C28.478 33.2677 28.9169 32.932 29.1493 32.5964C29.3687 32.2608 29.4849 31.8606 29.4849 31.4217C29.4849 30.5181 28.9814 30.0792 28.0262 30.0792C27.0709 30.0792 26.6191 30.531 26.6191 31.4862V31.4733Z" fill="white"/>
<path d="M41.4102 42.7008V28.3203H46.3543L48.8844 38.7765L51.4146 28.3203H56.3587V42.7008H53.4413V31.5734H53.1056L50.2915 42.0296H47.3741L44.5599 31.5734H44.2243V42.7008H41.4102Z" fill="white"/>
<path d="M66.8559 35.3981V39.7742C66.9075 40.1098 66.9721 40.3422 67.0237 40.51C67.1399 40.6262 67.3077 40.7295 67.5272 40.794L67.411 42.924C66.6752 42.924 66.1201 42.8723 65.6683 42.7562C65.2165 42.64 64.8292 42.4722 64.3774 42.1365C63.3705 42.64 62.3507 42.8723 61.2922 42.8723C59.0977 42.8723 58.0391 41.6976 58.0391 39.3869C58.0391 38.2639 58.3231 37.4764 58.9428 36.973C59.5624 36.5212 60.466 36.2372 61.7569 36.1339L64.003 35.9661V35.2948C64.003 34.843 63.8869 34.559 63.719 34.3912C63.4996 34.2234 63.2156 34.1718 62.7638 34.1718L58.7749 34.3396L58.6588 32.3774C60.182 31.9902 61.5762 31.7578 62.9832 31.7578C64.3903 31.7578 65.3456 32.0418 65.9006 32.5969C66.5203 33.2681 66.8559 34.1718 66.8559 35.411V35.3981ZM62.0796 38.2122C61.2922 38.2639 60.9049 38.7157 60.9049 39.5031C60.9049 40.2906 61.2405 40.6778 61.9118 40.6778C62.4798 40.6778 63.0349 40.5617 63.6545 40.3938L63.9901 40.2777V38.0315L62.0796 38.1993V38.2122Z" fill="white"/>
<path d="M72.9882 31.8594C73.724 31.8594 74.6793 31.9756 75.8023 32.195L76.3703 32.3112L76.2541 34.5573C75.1311 34.4412 74.3436 34.3895 73.7885 34.3895C72.8333 34.3895 72.162 34.609 71.878 35.0092C71.5424 35.3964 71.4262 36.1839 71.4262 37.3715C71.4262 38.5591 71.594 39.3336 71.878 39.7338C72.2137 40.1856 72.8333 40.3534 73.8402 40.3534L76.3058 40.1856L76.422 42.4318C74.8987 42.7158 73.7756 42.8836 73.0011 42.8836C71.4262 42.8836 70.3031 42.4318 69.6319 41.5927C68.9606 40.6891 68.625 39.2949 68.625 37.3844C68.625 35.4739 68.9606 34.0152 69.6964 33.1761C70.3161 32.337 71.4391 31.8852 73.014 31.8852L72.9882 31.8594Z" fill="white"/>
<path d="M80.7321 42.7026H77.918V27.9219H80.7321V32.6466C81.6874 32.1431 82.591 31.8591 83.3785 31.8591C84.7855 31.8591 85.7408 32.2464 86.2959 33.0984C86.8639 33.9375 87.0833 35.2284 87.0833 36.9194V42.651H84.2692V37.0356C84.2692 36.132 84.153 35.4607 83.9335 35.0735C83.7141 34.6216 83.3139 34.4538 82.6427 34.4538C82.0747 34.4538 81.5196 34.57 81.0161 34.7378L80.7321 34.854V42.7155V42.7026Z" fill="white"/>
<path d="M89.0469 30.7877V27.9219H91.861V30.7877H89.0469ZM89.0469 42.7026V32.1431H91.861V42.7026H89.0469Z" fill="white"/>
<path d="M96.8024 42.7009H93.9883V32.1414H96.8024V32.761C97.7577 32.193 98.6613 31.9219 99.4487 31.9219C100.856 31.9219 101.811 32.3092 102.366 33.1612C102.934 34.0003 103.154 35.2912 103.154 36.9822V42.7138H100.339V37.0984C100.339 36.1948 100.223 35.5235 100.004 35.0717C99.7843 34.6199 99.3842 34.4521 98.7129 34.4521C98.1449 34.4521 97.5898 34.5683 97.0219 34.7361L96.7379 34.8523V42.7138H96.7895L96.8024 42.7009Z" fill="white"/>
<path d="M107.982 40.0041C108.318 40.2881 108.77 40.4559 109.389 40.4559C110.68 40.4559 111.855 40.4043 112.875 40.3397L113.494 40.2881L113.546 42.3664C111.919 42.7537 110.461 42.9861 109.17 42.9861C107.595 42.9861 106.42 42.5343 105.684 41.6952C104.949 40.8561 104.613 39.5007 104.613 37.5902C104.613 33.8208 106.188 31.9102 109.273 31.9102C112.358 31.9102 113.882 33.4851 113.882 36.6865L113.662 38.6487H107.479C107.479 39.2683 107.647 39.7201 107.982 39.9912V40.0041ZM111.067 36.4671C111.067 35.628 110.951 35.06 110.68 34.7244C110.409 34.3887 109.944 34.2209 109.273 34.2209C108.602 34.2209 108.15 34.3887 107.866 34.7244C107.582 35.06 107.479 35.628 107.414 36.4671H111.067Z" fill="white"/>
<path d="M9.38583 60.5047H1.17578V46.1758H4.1061V57.9745H9.38583V60.5047Z" fill="white"/>
<path d="M13.2052 57.8712C13.5408 58.1552 13.9926 58.323 14.6122 58.323C15.9031 58.323 17.0778 58.2714 18.0976 58.2068L18.7173 58.1552L18.7689 60.2335C17.1424 60.6208 15.6837 60.8531 14.3928 60.8531C12.8179 60.8531 11.6432 60.4013 10.9074 59.5623C10.1716 58.7232 9.83594 57.3678 9.83594 55.4572C9.83594 51.6878 11.4108 49.7773 14.4961 49.7773C17.5813 49.7773 19.1045 51.3522 19.1045 54.5536L18.8851 56.5158H12.7017C12.7017 57.0838 12.8695 57.5872 13.2052 57.8583V57.8712ZM16.3549 54.2696C16.3549 53.4305 16.2388 52.8626 15.9677 52.5269C15.6966 52.1913 15.2319 52.0235 14.5606 52.0235C13.8893 52.0235 13.4375 52.1913 13.1535 52.5269C12.8695 52.8626 12.7663 53.4305 12.7017 54.2696H16.3549Z" fill="white"/>
<path d="M28.7074 53.2625V57.6386C28.759 57.9742 28.8236 58.2066 28.8752 58.3744C28.9914 58.4906 29.1592 58.5938 29.3787 58.6584L29.2625 60.7883C28.5267 60.7883 27.9716 60.7367 27.5198 60.6205C27.068 60.5044 26.6807 60.3365 26.2289 60.0009C25.222 60.5044 24.2022 60.7367 23.1437 60.7367C20.9492 60.7367 19.8906 59.562 19.8906 57.2513C19.8906 56.1282 20.1746 55.3408 20.7943 54.8374C21.4139 54.3855 22.3175 54.1016 23.6084 53.9983L25.8545 53.8305V53.1592C25.8545 52.7074 25.7384 52.4234 25.5706 52.2556C25.3511 52.0878 25.0671 52.0361 24.6153 52.0361L20.6781 52.3201L20.5619 50.358C22.0852 49.9707 23.4793 49.7383 24.8864 49.7383C26.2935 49.7383 27.2487 50.0223 27.8038 50.5774C28.4234 51.1454 28.7074 52.0361 28.7074 53.2754V53.2625ZM23.9311 56.0766C23.1437 56.1282 22.7564 56.5801 22.7564 57.3675C22.7564 58.1549 23.092 58.5422 23.7633 58.5422C24.3313 58.5422 24.8864 58.426 25.506 58.2582L25.8416 58.142V55.8959L23.9311 56.0637V56.0766Z" fill="white"/>
<path d="M30.9023 60.5016V49.9421H33.7164V51.0652C34.8911 50.3294 36.0142 49.8905 37.0856 49.7227V52.5884C35.9625 52.8079 34.9556 53.0919 34.1682 53.3242L33.7164 53.4921V60.5661H30.9023V60.5145V60.5016Z" fill="white"/>
<path d="M41.0641 60.5016H38.25V49.9421H41.0641V50.5617C42.0194 49.9937 42.923 49.7227 43.7104 49.7227C45.1175 49.7227 46.0728 50.1099 46.6278 50.9619C47.1829 51.8139 47.4153 53.0919 47.4153 54.7829V60.5145H44.6011V54.8991C44.6011 53.9955 44.485 53.3242 44.2655 52.8724C44.0461 52.4206 43.6459 52.2528 42.9746 52.2528C42.4066 52.2528 41.8516 52.369 41.2836 52.5368L40.9996 52.653V60.5145H41.0512L41.0641 60.5016Z" fill="white"/>
<path d="M49.3906 48.6002V45.7344H52.2048V48.6002H49.3906ZM49.3906 60.5151V49.9556H52.2048V60.5151H49.3906Z" fill="white"/>
<path d="M57.1345 60.5016H54.3203V49.9421H57.1345V50.5617C58.0897 49.9937 58.9934 49.7227 59.7808 49.7227C61.1879 49.7227 62.1431 50.1099 62.6982 50.9619C63.2533 51.8139 63.4856 53.0919 63.4856 54.7829V60.5145H60.6715V54.8991C60.6715 53.9955 60.5553 53.3242 60.3359 52.8724C60.1164 52.4206 59.7163 52.2528 59.045 52.2528C58.477 52.2528 57.9219 52.369 57.3539 52.5368L57.0699 52.653V60.5145H57.1216L57.1345 60.5016Z" fill="white"/>
<path d="M74.9994 61.86C74.9994 63.0347 74.5476 63.9384 73.5924 64.558C72.6371 65.126 71.3979 65.3971 69.823 65.3971C68.2481 65.3971 67.0088 65.1776 66.1698 64.7774C65.3307 64.3256 64.8789 63.6027 64.8789 62.4797C64.8789 61.576 65.3823 60.737 66.4021 59.9495C65.8987 59.6139 65.6147 59.0459 65.6147 58.323C65.6147 58.039 65.8341 57.5872 66.2343 56.9159L66.4021 56.6319C65.4469 55.9607 64.9434 54.9409 64.9434 53.5984C64.9434 52.2558 65.3307 51.3006 66.1827 50.681C66.9701 50.0613 68.0932 49.7773 69.3841 49.7773C70.0037 49.7773 70.5588 49.829 71.1784 49.9968L71.514 50.0484L74.9349 49.9322V52.1784L73.36 52.0622C73.6956 52.5657 73.8118 53.0175 73.8118 53.5209C73.8118 54.928 73.4762 55.8832 72.7404 56.4383C72.0046 57.0063 70.8815 57.2258 69.3712 57.2258C69.0355 57.2258 68.7515 57.1741 68.5321 57.1096C68.3643 57.4968 68.3126 57.7808 68.3126 58.0132C68.3126 58.2456 68.4288 58.4005 68.6483 58.465C68.8677 58.5812 69.4357 58.5812 70.3393 58.6328C72.1337 58.6328 73.3213 58.8523 73.9926 59.3686C74.6638 59.8204 74.9994 60.6079 74.9994 61.8342V61.86ZM67.693 62.144C67.693 62.7637 68.4288 63.0477 69.9392 63.0477C71.4495 63.0477 72.1853 62.712 72.1853 61.9762C72.1853 61.589 72.0691 61.3566 71.798 61.2404C71.514 61.1242 71.0106 61.0726 70.1715 61.0726L68.261 60.9048C67.8737 61.3566 67.693 61.7439 67.693 62.144ZM67.8608 53.4951C67.8608 54.502 68.4288 55.07 69.4874 55.07C70.5459 55.07 71.1139 54.5665 71.1139 53.4951C71.1139 52.4882 70.5459 51.9202 69.4874 51.9202C68.4159 51.9718 67.8608 52.4882 67.8608 53.4951Z" fill="white"/>
<path d="M0 78.3687L3.25304 63.9883H8.76513L12.0182 78.3687H9.10076L8.53277 75.787H3.53703L2.96904 78.3687H0ZM5.44755 66.4022L3.98884 73.2052H7.92605L6.46735 66.4022H5.46046H5.44755Z" fill="white"/>
<path d="M12.082 67.8086H14.8961L16.187 75.9542H16.6905L18.317 68.0281H21.2344L22.8609 75.9542H23.3644L24.6553 67.8086H27.4694L25.4427 78.3681H21.002L19.8273 71.9008L18.6526 78.3681H14.212L12.082 67.8086Z" fill="white"/>
<path d="M36.7387 71.0778V75.4539C36.7903 75.7895 36.8549 76.0219 36.9065 76.1897C37.0227 76.3059 37.1905 76.4092 37.41 76.4737L37.2938 78.6037C36.558 78.6037 36.0029 78.552 35.5511 78.4359C35.0993 78.3197 34.712 78.1519 34.2602 77.8162C33.2533 78.3197 32.2335 78.552 31.175 78.552C28.9805 78.552 27.9219 77.3773 27.9219 75.0666C27.9219 73.9436 28.2059 73.1561 28.8256 72.6527C29.4452 72.2009 30.3488 71.9169 31.6397 71.8136L33.8858 71.6458V70.9745C33.8858 70.5227 33.7697 70.2387 33.6018 70.0709C33.3824 69.9031 33.0984 69.8514 32.6466 69.8514L28.6577 70.0193L28.5416 68.0571C30.0648 67.6699 31.459 67.4375 32.866 67.4375C34.2731 67.4375 35.2284 67.7215 35.7834 68.2766C36.4547 68.9478 36.7387 69.8514 36.7387 71.0907V71.0778ZM31.9624 73.8919C31.175 73.9436 30.7877 74.3954 30.7877 75.1828C30.7877 75.9703 31.1233 76.3575 31.7946 76.3575C32.3626 76.3575 32.9177 76.2413 33.5373 76.0735L33.8729 75.9573V73.7112L31.9624 73.879V73.8919Z" fill="white"/>
<path d="M38.9336 78.3687V67.8092H41.7477V68.9323C42.9224 68.1965 44.0455 67.7576 45.117 67.5898V70.4555C43.9939 70.675 42.987 70.959 42.1995 71.1913L41.7477 71.3592V78.4332H38.9336V78.3816V78.3687Z" fill="white"/>
<path d="M55.2227 63.6016V78.3822H52.4086V77.9304C51.4017 78.3822 50.5497 78.6017 49.8784 78.6017C48.3552 78.6017 47.2967 78.1499 46.677 77.2591C46.0574 76.3555 45.7734 74.9614 45.7734 73.0509C45.7734 71.1403 46.109 69.7333 46.8449 68.8426C47.5807 67.9389 48.6392 67.5517 50.0979 67.5517C50.5497 67.5517 51.1693 67.6033 51.9568 67.7711L52.344 67.8873V63.6145H55.2098L55.2227 63.6016ZM52.0729 75.8521L52.3569 75.8004V70.2367C51.5695 70.0689 50.8982 70.0173 50.2786 70.0173C49.1555 70.0173 48.5875 71.0242 48.5875 73.0509C48.5875 74.1739 48.7037 74.9097 48.9748 75.4132C49.2588 75.865 49.6461 76.0844 50.2141 76.0844C50.8337 76.0844 51.4533 76.0328 52.0729 75.865V75.8521Z" fill="white"/>
<path d="M64.8918 70.4547C63.1491 70.2352 61.9099 70.119 61.2386 70.119C60.5673 70.119 60.1155 70.1707 59.8961 70.2868C59.6766 70.403 59.6121 70.6225 59.6121 70.9065C59.6121 71.1905 59.7283 71.3583 59.9993 71.4745C60.2704 71.5906 60.9546 71.7585 62.1293 71.9263C63.2524 72.1457 64.0915 72.4943 64.5433 72.9332C65.0467 73.385 65.2791 74.1724 65.2791 75.1793C65.2791 77.4771 63.872 78.6002 61.0062 78.6002C60.051 78.6002 58.9279 78.484 57.637 78.2129L56.9658 78.0967L57.0819 75.7344C58.8246 75.9538 60.0639 76.07 60.7352 76.07C61.4064 76.07 61.8582 76.0184 62.1422 75.8506C62.3617 75.7344 62.5295 75.5149 62.5295 75.2309C62.5295 74.9469 62.4133 74.7791 62.1422 74.6113C61.8582 74.4951 61.187 74.3273 60.1155 74.1595C59.0441 73.9917 58.205 73.6561 57.7016 73.2042C57.1336 72.7524 56.9141 71.965 56.9141 70.8419C56.9141 69.7189 57.3014 68.8798 58.0372 68.3118C58.8246 67.7438 59.7799 67.4727 60.9546 67.4727C61.7937 67.4727 62.9168 67.5889 64.3755 67.86L65.0467 67.9762L64.8789 70.4418L64.8918 70.4547Z" fill="white"/>
<path d="M8.93081 96.1826H0.953125V95.0595L4.89033 90.451C5.50996 89.7152 5.96177 89.1602 6.2974 88.76C6.5814 88.3727 6.86539 87.9209 7.08484 87.4175C7.30429 86.8495 7.42047 86.346 7.42047 85.7909C7.42047 84.8357 7.20102 84.1644 6.68467 83.7642C6.23285 83.377 5.50996 83.1446 4.49016 83.1446C3.65108 83.1446 2.74746 83.2608 1.67602 83.5319L1.17257 83.6481L1.05639 82.525C2.2311 82.1377 3.47036 81.957 4.70961 81.957C5.94886 81.957 6.90412 82.241 7.57538 82.8606C8.24664 83.4286 8.53064 84.3839 8.53064 85.6748C8.53064 86.63 8.31118 87.4691 7.96265 88.2049C7.61411 88.9407 6.89121 89.7798 6.0005 90.8512L2.34728 95.0079H8.93081V96.1826Z" fill="white"/>
<path d="M11.632 84.9526C12.0193 83.8295 12.4711 83.0937 13.1553 82.6548C13.7749 82.2676 14.5624 82.0352 15.4014 82.0352C16.305 82.0352 16.9763 82.1514 17.5314 82.3708C18.0865 82.5903 18.5383 82.9905 18.9385 83.5455C19.7259 84.617 20.1132 86.5275 20.1132 89.2255C20.1132 91.9234 19.7259 93.8339 18.9901 94.8408C18.2543 95.8477 17.1312 96.4157 15.6209 96.4157C14.1105 96.4157 12.9746 95.9122 12.2517 94.8924C11.5288 93.8726 11.1286 92.0783 11.1286 89.4965C11.077 87.586 11.2964 86.0757 11.632 84.9397V84.9526ZM17.4152 83.7134C16.9634 83.3777 16.3438 83.2099 15.5563 83.2099C14.7689 83.2099 14.1493 83.3777 13.6975 83.7134C12.7422 84.4492 12.2904 86.3597 12.2904 89.4965C12.2904 91.691 12.5744 93.2014 13.0778 93.9888C13.5813 94.7763 14.4204 95.2281 15.5434 95.2281C16.2792 95.2281 16.8859 95.0603 17.3378 94.7763C18.3447 94.105 18.7965 92.3623 18.7965 89.4965C18.8481 86.4113 18.3447 84.4363 17.3894 83.7134H17.4152Z" fill="white"/>
<path d="M29.6652 96.1826H21.6875V95.0595L25.6247 90.451C26.2443 89.7152 26.6962 89.1602 27.0318 88.76C27.3158 88.3727 27.5998 87.9209 27.8192 87.4175C28.0387 86.8495 28.1549 86.346 28.1549 85.7909C28.1549 84.8357 27.9354 84.1644 27.4191 83.7642C26.9672 83.377 26.2443 83.1446 25.2245 83.1446C24.3855 83.1446 23.4818 83.2608 22.4104 83.5319L21.907 83.6481L21.7908 82.525C22.9655 82.1377 24.2047 81.957 25.444 81.957C26.6832 81.957 27.6385 82.241 28.3098 82.8606C28.981 83.4286 29.265 84.3839 29.265 85.6748C29.265 86.63 29.0456 87.4691 28.697 88.2049C28.3485 88.9407 27.6256 89.7798 26.7349 90.8512L23.0817 95.0079H29.6523V96.1826H29.6652Z" fill="white"/>
<path d="M38.8799 96.1826H30.9023V95.0595L34.8395 90.451C35.4591 89.7152 35.9109 89.1602 36.2465 88.76C36.5305 88.3727 36.8145 87.9209 37.034 87.4175C37.2534 86.8495 37.3696 86.346 37.3696 85.7909C37.3696 84.8357 37.1501 84.1644 36.6338 83.7642C36.182 83.377 35.4591 83.1446 34.4393 83.1446C33.6002 83.1446 32.6966 83.2608 31.6251 83.5319L31.1217 83.6481L31.0055 82.525C32.1802 82.1377 33.4195 81.957 34.6587 81.957C35.898 81.957 36.8532 82.241 37.5245 82.8606C38.1958 83.4286 38.4798 84.3839 38.4798 85.6748C38.4798 86.63 38.2603 87.4691 37.9118 88.2049C37.5632 88.9407 36.8403 89.7798 35.9496 90.8512L32.2964 95.0079H38.867V96.1826H38.8799Z" fill="white"/>
<path d="M4.99508 11.0116C4.99508 12.1863 5.49852 12.7542 6.85395 12.7542C7.75758 12.7542 8.3772 12.6381 9.21628 12.4703L9.66809 15.336C8.49338 15.62 7.70594 15.6717 6.85395 15.6717C3.08456 15.6717 1.57422 14.2646 1.57422 11.0116V8.36528C1.57422 5.0477 3.09747 3.64062 6.85395 3.64062C7.6414 3.64062 8.48047 3.75681 9.66809 3.97626L9.21628 6.84203C8.48047 6.67422 7.52522 6.55803 6.85395 6.55803C5.51143 6.55803 4.99508 7.12603 4.99508 8.30074V10.9986V11.0116Z" fill="white"/>
<path d="M16.6904 11.062C16.6904 12.1335 16.1224 12.7531 14.8961 12.7531C13.6697 12.7531 13.1017 12.1335 13.1017 11.062V8.19627C13.1017 7.12483 13.6697 6.5052 14.8961 6.5052C16.1224 6.5052 16.6904 7.12483 16.6904 8.19627V11.062ZM14.8961 3.65234C10.791 3.65234 9.66797 5.95012 9.66797 8.31245V11.0104C9.66797 13.3727 10.791 15.6705 14.8961 15.6705C19.0011 15.6705 20.1242 13.3727 20.1242 11.0104V8.31245C20.0725 5.95012 19.0011 3.65234 14.8961 3.65234Z" fill="white"/>
<path d="M27.3662 15.451V7.809C27.3662 7.30555 27.1467 6.96992 26.5271 6.96992C25.9074 6.96992 24.7844 7.42173 24.0615 7.809V15.451H20.6406V3.87179H23.1708L23.5064 4.77541C24.9135 4.10415 26.7594 3.65234 28.1149 3.65234C29.1218 3.65234 29.8059 4.03961 30.2448 4.77541C31.5357 4.15579 33.2784 3.65234 34.8533 3.65234C36.8154 3.65234 37.4996 5.11104 37.4996 7.35719V15.451H34.0788V7.809C34.0788 7.30555 33.8593 6.96992 33.2397 6.96992C32.6201 6.96992 31.497 7.42173 30.7741 7.809V15.451H27.4049H27.3662Z" fill="white"/>
<path d="M44.9503 11.4117C44.9503 12.1475 44.6147 12.7026 43.7111 12.7026C42.9752 12.7026 42.1362 12.5348 41.5165 12.4186V7.5262C42.02 7.07439 42.9236 6.62258 43.7111 6.62258C44.6147 6.62258 44.9503 7.12602 44.9503 7.91347V11.3988V11.4117ZM44.7309 3.65354C43.4916 3.65354 41.9813 4.27317 41.1938 4.82825L40.8582 3.92463H38.1602V20.6158L41.5811 20.1639V15.3877C42.3685 15.5555 43.5432 15.7233 44.4985 15.7233C47.1965 15.7233 48.3712 14.2 48.3712 11.4505V7.91347C48.3712 5.09932 47.0286 3.64062 44.7179 3.64062" fill="white"/>
<path d="M52.3599 3.87109V11.5132C52.3599 12.0166 52.5793 12.3522 53.1989 12.3522C53.8186 12.3522 54.9416 11.9004 55.6645 11.5132V3.87109H59.0854V15.3987H56.5552L56.2196 14.4951C54.8125 15.1664 52.9666 15.6182 51.6111 15.6182C49.649 15.6182 48.9648 14.1595 48.9648 11.9133V3.87109H52.334H52.3599Z" fill="white"/>
<path d="M64.6072 15.672C62.4127 15.672 61.1218 14.8329 61.1218 12.69V6.63578H59.5469V3.87328H61.1218V1.12369L64.5427 0.671875V3.93782H67.189L67.0212 6.68741H64.6072V12.3028C64.6072 12.7546 64.8912 12.9224 65.343 12.9224C65.7303 12.9224 66.2466 12.8707 66.7501 12.7029L67.1374 15.2847C66.3499 15.5042 65.3947 15.672 64.6072 15.672Z" fill="white"/>
<path d="M71.0615 0H67.6406V3.65321H71.0615V0Z" fill="white"/>
<path d="M71.0615 3.875H67.6406V15.3898H71.0615V3.875Z" fill="white"/>
<path d="M78.3193 15.4511V7.80899C78.3193 7.30555 78.0998 6.96992 77.4802 6.96992C76.8606 6.96992 75.7375 7.42173 75.0146 7.80899V15.4511H71.5938V3.87179H74.1239L74.4595 4.77541C75.8666 4.10415 77.7126 3.65234 79.068 3.65234C81.0302 3.65234 81.7143 5.11104 81.7143 7.35718V15.4511H78.3451H78.3193Z" fill="white"/>
<path d="M88.4909 8.64808C88.4909 9.43552 88.0391 9.77115 86.9677 9.77115C85.8446 9.77115 85.4444 9.43552 85.4444 8.64808V7.57664C85.4444 6.7892 85.8317 6.33739 86.9677 6.33739C88.1036 6.33739 88.4909 6.7892 88.4909 7.57664V8.64808ZM92.4797 3.87179H88.8782C88.3102 3.70398 87.6389 3.65234 86.916 3.65234C83.5468 3.65234 82.2559 5.11104 82.1914 7.42173V8.8288C82.1914 10.1713 82.6432 11.1911 83.6501 11.8107C83.0821 12.3787 82.6432 12.9854 82.6432 13.9407C82.6432 15.5156 83.5468 15.8512 85.1088 16.019C86.5158 16.1868 86.7353 16.1868 88.0262 16.303C88.6974 16.3547 88.9298 16.4708 88.9298 16.9226C88.9298 17.6585 88.194 17.7617 86.4642 17.7617C85.4573 17.7617 84.0502 17.5939 82.6948 17.3099L82.1914 19.7239C83.7146 20.1111 85.6768 20.3435 86.7998 20.3435C90.4014 20.3435 92.0796 19.5044 92.0796 16.6903C92.0796 14.7281 91.2405 14.044 89.2654 13.8762C88.4264 13.8245 87.9229 13.76 86.3997 13.5922C86.1802 13.5922 86.0124 13.3727 86.0124 13.1403C86.0124 12.8047 86.2964 12.6369 86.5158 12.5207H86.8515C90.0529 12.5207 91.5761 11.062 91.5761 8.86753V7.46046C91.5761 6.95701 91.4599 6.38902 91.2921 5.93721L92.4668 5.4854V3.85888L92.4797 3.87179Z" fill="white"/>
<path d="M90.6717 0.218682H90.3359V0.0507812H91.24V0.218682H90.9042V1.239H90.6846V0.218682H90.6717Z" fill="white"/>
<path d="M91.4077 0.0546875H91.6273L91.8468 0.67463L91.8985 0.894193L91.9501 0.67463L92.1697 0.0546875H92.3893V1.24291H92.273V0.222588L92.1568 0.506729L91.9372 1.07501H91.821L91.6014 0.506729L91.4852 0.222588V1.24291H91.2656V0.0546875H91.3819H91.4077Z" fill="white"/>
</g>
<defs>
<clipPath id="clip0_296_25393">
<rect width="114" height="163" fill="white"/>
</clipPath>
</defs>
</svg>
