<svg width="38" height="38" viewBox="0 0 38 38" fill="none" xmlns="http://www.w3.org/2000/svg">
<g id="svgexport-5 1" clip-path="url(#clip0_450_42933)">
<path id="Vector" d="M7.03178 21.9824C6.37739 22.3706 5.9375 23.084 5.9375 23.8984C5.9375 25.1262 6.93634 26.125 8.16406 26.125C9.13158 26.125 9.95659 25.5045 10.263 24.6406H16.0312C17.259 24.6406 18.2578 25.6395 18.2578 26.8672C18.2578 28.0949 17.259 29.0938 16.0312 29.0938H7.125C5.07879 29.0938 3.41406 30.7585 3.41406 32.8047C3.41406 34.8509 5.07879 36.5156 7.125 36.5156H14.5469C14.9568 36.5156 15.2891 36.1833 15.2891 35.7734C15.2891 35.3635 14.9568 35.0312 14.5469 35.0312H7.125C5.89727 35.0312 4.89844 34.0324 4.89844 32.8047C4.89844 31.577 5.89727 30.5781 7.125 30.5781H16.0312C18.0775 30.5781 19.7422 28.9134 19.7422 26.8672C19.7422 24.821 18.0775 23.1562 16.0312 23.1562H10.263C10.0874 22.6614 9.74173 22.2465 9.29634 21.9824L14.965 12.6816C15.8568 11.3412 16.3281 9.77936 16.3281 8.16406C16.3281 3.6624 12.6657 0 8.16406 0C3.6624 0 0 3.6624 0 8.16406C0 9.77936 0.471363 11.3412 1.3631 12.6816L7.03178 21.9824ZM8.16406 24.6406C7.75482 24.6406 7.42188 24.3077 7.42188 23.8984C7.42188 23.4892 7.75482 23.1562 8.16406 23.1562C8.57331 23.1562 8.90625 23.4892 8.90625 23.8984C8.90625 24.3077 8.57331 24.6406 8.16406 24.6406ZM8.16406 1.48438C11.8472 1.48438 14.8438 4.48088 14.8438 8.16406C14.8438 9.4902 14.4558 10.7717 13.7219 11.8702C13.7162 11.8787 13.7107 11.8874 13.7053 11.8962L8.16406 20.9879C8.16406 20.9879 2.61191 11.8787 2.60619 11.8702C1.87232 10.7717 1.48438 9.4902 1.48438 8.16406C1.48438 4.48088 4.48088 1.48438 8.16406 1.48438Z" fill="url(#paint0_linear_450_42933)"/>
<path id="Vector_2" d="M8.16406 11.875C10.2103 11.875 11.875 10.2103 11.875 8.16406C11.875 6.11785 10.2103 4.45312 8.16406 4.45312C6.11785 4.45312 4.45312 6.11785 4.45312 8.16406C4.45312 10.2103 6.11785 11.875 8.16406 11.875ZM8.16406 5.9375C9.39179 5.9375 10.3906 6.93634 10.3906 8.16406C10.3906 9.39179 9.39179 10.3906 8.16406 10.3906C6.93634 10.3906 5.9375 9.39179 5.9375 8.16406C5.9375 6.93634 6.93634 5.9375 8.16406 5.9375Z" fill="url(#paint1_linear_450_42933)"/>
<path id="Vector_3" d="M29.8359 12.3203C25.3343 12.3203 21.6719 15.9827 21.6719 20.4844C21.6719 22.1023 22.1447 23.6665 23.0393 25.0083L28.6868 33.8671C28.2495 34.1316 27.9104 34.5425 27.7371 35.0312H21.2266C20.8167 35.0312 20.4844 35.3635 20.4844 35.7734C20.4844 36.1833 20.8167 36.5156 21.2266 36.5156H27.737C28.0434 37.3795 28.8683 38 29.8359 38C31.0637 38 32.0625 37.0012 32.0625 35.7734C32.0625 34.9659 31.6303 34.2574 30.9851 33.8671L36.6327 25.0083C37.5272 23.6665 38 22.1023 38 20.4844C38 15.9827 34.3376 12.3203 29.8359 12.3203ZM29.8359 36.5156C29.4267 36.5156 29.0938 36.1827 29.0938 35.7734C29.0938 35.3642 29.4267 35.0312 29.8359 35.0312C30.2452 35.0312 30.5781 35.3642 30.5781 35.7734C30.5781 36.1827 30.2452 36.5156 29.8359 36.5156ZM35.3938 24.1905C35.3909 24.1949 29.8359 32.9084 29.8359 32.9084C29.8359 32.9084 24.281 24.1949 24.2781 24.1905C23.5442 23.0921 23.1562 21.8105 23.1562 20.4844C23.1562 16.8012 26.1528 13.8047 29.8359 13.8047C33.5191 13.8047 36.5156 16.8012 36.5156 20.4844C36.5156 21.8105 36.1277 23.0921 35.3938 24.1905Z" fill="url(#paint2_linear_450_42933)"/>
<path id="Vector_4" d="M29.8359 16.7734C27.7897 16.7734 26.125 18.4382 26.125 20.4844C26.125 22.5306 27.7897 24.1953 29.8359 24.1953C31.8821 24.1953 33.5469 22.5306 33.5469 20.4844C33.5469 18.4382 31.8821 16.7734 29.8359 16.7734ZM29.8359 22.7109C28.6082 22.7109 27.6094 21.7121 27.6094 20.4844C27.6094 19.2566 28.6082 18.2578 29.8359 18.2578C31.0637 18.2578 32.0625 19.2566 32.0625 20.4844C32.0625 21.7121 31.0637 22.7109 29.8359 22.7109Z" fill="url(#paint3_linear_450_42933)"/>
<path id="Vector_5" d="M17.8867 36.5156C18.2966 36.5156 18.6289 36.1833 18.6289 35.7734C18.6289 35.3635 18.2966 35.0312 17.8867 35.0312C17.4768 35.0312 17.1445 35.3635 17.1445 35.7734C17.1445 36.1833 17.4768 36.5156 17.8867 36.5156Z" fill="url(#paint4_linear_450_42933)"/>
</g>
<defs>
<linearGradient id="paint0_linear_450_42933" x1="9.87109" y1="0" x2="9.87109" y2="36.5156" gradientUnits="userSpaceOnUse">
<stop stop-color="#EA851F"/>
<stop offset="1" stop-color="#E6304A"/>
</linearGradient>
<linearGradient id="paint1_linear_450_42933" x1="8.16406" y1="4.45312" x2="8.16406" y2="11.875" gradientUnits="userSpaceOnUse">
<stop stop-color="#EA851F"/>
<stop offset="1" stop-color="#E6304A"/>
</linearGradient>
<linearGradient id="paint2_linear_450_42933" x1="29.2422" y1="12.3203" x2="29.2422" y2="38" gradientUnits="userSpaceOnUse">
<stop stop-color="#EA851F"/>
<stop offset="1" stop-color="#E6304A"/>
</linearGradient>
<linearGradient id="paint3_linear_450_42933" x1="29.8359" y1="16.7734" x2="29.8359" y2="24.1953" gradientUnits="userSpaceOnUse">
<stop stop-color="#EA851F"/>
<stop offset="1" stop-color="#E6304A"/>
</linearGradient>
<linearGradient id="paint4_linear_450_42933" x1="17.8867" y1="35.0312" x2="17.8867" y2="36.5156" gradientUnits="userSpaceOnUse">
<stop stop-color="#EA851F"/>
<stop offset="1" stop-color="#E6304A"/>
</linearGradient>
<clipPath id="clip0_450_42933">
<rect width="38" height="38" fill="white"/>
</clipPath>
</defs>
</svg>
