<svg width="137" height="86" viewBox="0 0 137 86" fill="none" xmlns="http://www.w3.org/2000/svg">
<g clip-path="url(#clip0_221_41741)">
<path d="M136.18 0.240234H0.179932V85.2402H136.18V0.240234Z" fill="white"/>
<path d="M10.9456 65.2732C10.9456 45.1634 10.9456 25.0537 10.9456 4.95585C11.1119 4.94398 11.0762 4.80144 11.1 4.70641C11.5395 2.47333 13.2262 0.798507 15.4592 0.335259C15.6018 0.311503 15.7443 0.275869 15.875 0.240234C50.7611 0.240234 85.647 0.240234 120.521 0.240234C120.593 0.263991 120.652 0.299625 120.723 0.311503C122.885 0.572822 124.809 2.33079 125.285 4.46885C125.32 4.61139 125.356 4.74205 125.391 4.88458C125.391 25.018 125.391 45.1396 125.391 65.2732C125.094 65.2732 124.785 65.2732 124.489 65.2732C124.275 65.2732 124.049 65.2732 123.835 65.2732C86.7163 65.2732 49.597 65.2732 12.4897 65.2732C12.3591 65.2732 12.2165 65.2732 12.0978 65.2732C12.0384 65.3559 11.9908 65.4154 11.9433 65.4868C11.9195 65.4035 11.9077 65.3327 11.884 65.2256C11.5513 65.2375 11.2425 65.2494 10.9456 65.2732ZM124.512 65.2018C124.512 65.0238 124.512 64.8929 124.512 64.7501C124.512 45.0921 124.512 25.4219 124.512 5.76357C124.512 3.98185 123.681 2.63962 122.161 1.73688C121.424 1.29739 120.617 1.15485 119.761 1.15485C100.602 1.15485 81.4423 1.15485 62.2827 1.15485C47.1026 1.15485 31.9105 1.15485 16.7302 1.15485C16.4214 1.15485 16.1125 1.15485 15.8156 1.20236C13.535 1.58246 11.9195 3.49484 11.9195 5.7992C11.9195 25.4694 11.9195 45.1515 11.9195 64.8215C11.9195 64.9405 11.9195 65.059 11.9195 65.2018C49.4545 65.2018 86.9656 65.2018 124.512 65.2018Z" fill="#BCBCC1"/>
<path d="M10.9456 65.2732C11.2425 65.2613 11.5513 65.2375 11.8721 65.2256C11.8958 65.3327 11.9195 65.4154 11.9314 65.4868C11.9314 65.5344 11.9314 65.5939 11.9314 65.6415C11.9314 65.7481 11.9195 65.8671 11.9195 65.9742C11.9195 70.5115 11.9195 75.0488 11.9195 79.5861C11.9195 79.6932 11.9314 79.8002 11.9433 79.9187C11.9671 80.9166 12.2997 81.8193 12.9292 82.5917C13.8676 83.7556 15.091 84.3257 16.5877 84.3257C51.0105 84.3257 85.4452 84.3257 119.868 84.3257C122.529 84.3257 124.536 82.1519 124.524 79.6932C124.5 75.0131 124.512 70.3449 124.512 65.6653C124.512 65.5344 124.5 65.3916 124.489 65.2613C124.785 65.2613 125.094 65.2613 125.391 65.2613C125.391 70.3925 125.391 75.5236 125.391 80.6554C125.356 80.7976 125.308 80.9523 125.273 81.0945C124.679 83.5182 122.422 85.2522 119.904 85.2403C85.5404 85.2284 51.1649 85.2284 16.8015 85.2284C16.6589 85.2284 16.5045 85.2284 16.362 85.2284C13.8319 85.1927 11.5989 83.3159 11.1119 80.8333C11.0643 80.6197 11.0049 80.406 10.9575 80.2037C10.9456 75.2386 10.9456 70.2502 10.9456 65.2732Z" fill="#121660"/>
<path d="M124.515 65.202C86.9682 65.202 49.457 65.202 11.9221 65.202C11.9221 65.0592 11.9221 64.9408 11.9221 64.8218C11.9221 45.1517 11.9221 25.4697 11.9221 5.79946C11.9221 3.49511 13.5494 1.58273 15.8182 1.21451C16.1151 1.16699 16.4358 1.16699 16.7328 1.16699C31.913 1.16699 47.1051 1.16699 62.2854 1.16699C81.4449 1.16699 100.604 1.16699 119.763 1.16699C120.619 1.16699 121.427 1.30953 122.163 1.74902C123.684 2.65176 124.515 3.98211 124.515 5.77571C124.515 25.434 124.515 45.1042 124.515 64.7623C124.515 64.8932 124.515 65.0241 124.515 65.202ZM72.6197 13.8528C74.3061 13.8528 75.993 13.8409 77.6675 13.8409C77.6913 13.7578 77.7151 13.7222 77.7151 13.6865C77.7151 12.8789 77.7151 12.0711 77.727 11.2634C77.727 11.109 77.6675 11.014 77.5253 10.9546C77.0975 10.7645 76.6815 10.5626 76.2543 10.3844C75.0784 9.90929 73.8782 9.56482 72.6197 9.38666C72.5721 9.38666 72.5364 9.37476 72.4888 9.37476C72.4531 9.23224 72.3341 9.24414 72.2275 9.23224C70.0181 8.92341 67.8206 9.01844 65.6587 9.55297C56.5127 11.8217 50.9299 21.0629 53.1511 30.2209C55.3011 39.1295 64.3169 45.0211 73.7479 42.7642C81.9436 40.8044 87.4669 33.1429 86.7903 24.757C86.7784 24.5907 86.7427 24.4244 86.7308 24.2581C86.6356 24.2462 86.5761 24.2462 86.5166 24.2462C86.3744 24.2224 86.2316 24.1868 86.0893 24.1868C84.9486 24.175 83.8204 24.175 82.6803 24.175C82.6803 23.8305 82.6803 23.486 82.6803 23.1415C82.6803 21.8112 82.6684 20.4927 82.6684 19.1624C82.6446 19.1386 82.6327 19.1268 82.6089 19.103C80.9344 19.103 79.2712 19.0911 77.5961 19.0911C77.5842 19.0792 77.5723 19.0792 77.5604 19.0792C77.5604 18.9367 77.5491 18.7823 77.5491 18.6397C77.5491 17.2381 77.5491 15.8365 77.5491 14.4468C77.5491 14.3042 77.5372 14.1498 77.5253 14.0073C77.3944 13.9835 77.2635 13.9479 77.1451 13.9479C75.6009 13.936 74.0686 13.936 72.5245 13.936C72.5483 13.9122 72.584 13.8766 72.6197 13.8528ZM82.9772 18.8654C82.9772 20.564 82.9772 22.2626 82.9891 23.9849C84.2839 23.9849 85.5312 23.9849 86.8016 23.9849C86.5999 22.1913 86.1131 20.5165 85.3646 18.8773C84.5571 18.8773 83.7609 18.8773 82.9772 18.8654C82.9772 17.6657 82.9891 16.466 82.9772 15.2663C82.9772 15.1476 82.9058 15.005 82.8225 14.91C82.5375 14.5893 82.2405 14.2804 81.9436 13.9716C81.8014 13.8172 81.6348 13.7578 81.4211 13.7578C80.3399 13.7697 79.2593 13.7578 78.19 13.7578C78.0954 13.7578 78.0002 13.7697 77.8931 13.7816C77.8931 15.4801 77.8931 17.1431 77.8931 18.8654C78.0716 18.8654 78.2257 18.8654 78.3804 18.8654C79.9127 18.8773 81.4449 18.8773 82.9772 18.8654ZM42.9716 29.4845C42.9478 29.4964 42.9241 29.4964 42.9003 29.5082C38.3628 22.5001 33.8373 15.492 29.3236 8.51954C27.2924 8.51954 25.3088 8.51954 23.3252 8.51954C23.3252 20.0294 23.3252 31.5038 23.3252 43.0018C25.5701 43.0018 27.7794 43.0018 29.9769 43.0018C30.0007 42.9661 30.0126 42.9661 30.0126 42.9543C30.0126 42.9424 30.0244 42.9305 30.0244 42.9186C30.0244 42.8949 30.0244 42.8711 30.0363 42.8474C30.0363 42.8355 30.0363 42.8236 30.0363 42.8117C30.0363 42.7999 30.0363 42.788 30.0363 42.7761C30.0363 42.7523 30.0363 42.7286 30.0363 42.7048C30.0363 35.9343 30.0363 29.1519 30.0363 22.3813C30.0363 22.3101 30.0363 22.2388 30.0363 22.1556C30.0363 22.1319 30.0363 22.1082 30.0363 22.0844C30.0363 22.0725 30.0363 22.0606 30.0363 22.0488C30.0363 22.0369 30.0363 22.025 30.0481 22.0131C30.0481 22.0012 30.06 21.9894 30.0719 21.9894C30.0838 21.9894 30.0957 21.9894 30.1313 21.9775C30.2026 22.0844 30.2738 22.1913 30.3451 22.3101C34.74 29.1162 39.1231 35.9106 43.5061 42.7167C43.6487 42.9305 43.7912 43.0374 44.0644 43.0374C45.8223 43.0255 47.5684 43.0255 49.3264 43.0255C49.4451 43.0255 49.5639 43.0255 49.7065 43.0255C49.7065 31.5038 49.7065 20.0176 49.7065 8.54329C49.2907 8.47206 43.2685 8.4839 42.9834 8.56709C42.9716 15.5277 42.9716 22.5001 42.9716 29.4845ZM115.309 43.0018C111.105 31.48 106.9 19.982 102.707 8.5077C100.913 8.5077 99.1788 8.5077 97.421 8.5077C93.2401 20.0057 89.0587 31.4919 84.8778 43.0018C87.2533 43.0018 89.5692 43.0018 91.9096 43.0018C92.6105 40.9706 93.299 38.9514 93.9881 36.932C98.0981 36.932 102.161 36.932 106.246 36.932C106.923 38.9632 107.601 40.9825 108.278 43.0018C110.617 43.0018 112.934 43.0018 115.309 43.0018ZM121.795 47.5511C86.2554 47.5511 50.728 47.5511 15.2005 47.5511C15.1886 47.6224 15.1768 47.6699 15.1886 47.7174C15.1886 47.7649 15.2124 47.8124 15.2243 47.8481C50.7518 47.8481 86.2673 47.8481 121.795 47.8481C121.795 47.7411 121.795 47.6461 121.795 47.5511ZM58.4961 59.762C58.4728 59.762 58.449 59.762 58.4252 59.7739C58.211 59.0492 57.9974 58.3363 57.7957 57.6121C57.5934 57.6121 57.4273 57.6121 57.2488 57.6121C57.0352 58.3482 56.8215 59.073 56.6077 59.7977C56.5839 59.7977 56.5721 59.7977 56.5483 59.7858C56.3701 59.0611 56.1919 58.3482 56.0138 57.624C55.7524 57.624 55.5149 57.624 55.2536 57.624C55.5862 58.8712 55.9068 60.0828 56.2276 61.2943C56.4651 61.2943 56.6433 61.2943 56.8452 61.2943C57.059 60.5814 57.2726 59.8924 57.4868 59.192C57.5106 59.192 57.5225 59.192 57.5463 59.192C57.76 59.8924 57.9736 60.5933 58.1872 61.2943C58.4014 61.2943 58.6032 61.2943 58.8049 61.2943C59.1256 60.0709 59.4583 58.8593 59.779 57.6121C59.5059 57.6121 59.2803 57.6121 59.0191 57.6121C58.8525 58.3244 58.6746 59.0373 58.4961 59.762ZM115.013 52.92C114.989 52.9319 114.953 52.9319 114.929 52.9438C114.87 52.8606 114.799 52.7775 114.739 52.6825C114.431 52.1954 114.086 51.7322 113.813 51.2214C113.634 50.8889 113.397 50.7819 113.041 50.8413C113.005 50.8413 112.969 50.8532 112.91 50.8651C112.91 52.0648 112.91 53.2763 112.91 54.4998C113.148 54.4998 113.373 54.4998 113.623 54.4998C113.623 53.7871 113.623 53.1101 113.623 52.433C113.753 52.5043 113.825 52.5993 113.884 52.6943C114.228 53.2289 114.573 53.7634 114.929 54.2979C114.989 54.3929 115.096 54.4879 115.19 54.5117C115.345 54.5473 115.523 54.5236 115.702 54.5236C115.702 53.2764 115.702 52.0767 115.702 50.8532C115.464 50.8532 115.25 50.8532 115.001 50.8532C115.013 51.554 115.013 52.2311 115.013 52.92ZM23.6934 54.4998C23.6934 53.799 23.6934 53.1101 23.6934 52.4211C23.7171 52.4211 23.7409 52.4093 23.7647 52.4093C24.216 53.1101 24.6674 53.799 25.1188 54.4879C25.3444 54.4879 25.5464 54.4879 25.7483 54.4879C25.7483 53.2526 25.7483 52.0529 25.7483 50.8532C25.5107 50.8532 25.2969 50.8532 25.0356 50.8532C25.0356 51.554 25.0356 52.2311 25.0356 52.9081C24.905 52.825 24.8337 52.73 24.7743 52.6349C24.4655 52.1598 24.1329 51.7084 23.8596 51.2095C23.6815 50.8651 23.432 50.7701 23.0876 50.8295C23.052 50.8295 23.0163 50.8532 22.9688 50.8651C22.9688 52.0767 22.9688 53.2882 22.9688 54.4998C23.2064 54.4998 23.4202 54.4998 23.6934 54.4998ZM76.3727 50.8532C76.3727 52.0767 76.3727 53.2882 76.3727 54.4879C76.6226 54.4879 76.8362 54.4879 77.0975 54.4879C77.0975 53.7752 77.0975 53.0982 77.0975 52.4211C77.1213 52.4211 77.1332 52.4093 77.157 52.4093C77.6199 53.1101 78.0716 53.8228 78.5107 54.4998C78.7487 54.4998 78.9386 54.4998 79.1403 54.4998C79.1403 53.2763 79.1403 52.0648 79.1403 50.8532C78.9029 50.8532 78.6892 50.8532 78.4399 50.8532C78.4399 51.554 78.4399 52.2311 78.4399 52.9081C78.4161 52.92 78.3923 52.92 78.3566 52.9319C77.905 52.2311 77.442 51.5303 77.0023 50.8413C76.7767 50.8532 76.5869 50.8532 76.3727 50.8532ZM39.5625 50.8532C39.5625 51.1027 39.5625 51.3402 39.5625 51.5659C39.5625 51.8035 39.5744 52.0292 39.5625 52.2667C39.5507 52.4805 39.6219 52.7181 39.4913 52.9557C39.0993 52.3498 38.7073 51.8035 38.3747 51.2214C38.1847 50.8889 37.9471 50.7819 37.6027 50.8413C37.567 50.8413 37.5314 50.8532 37.4839 50.877C37.4839 52.0886 37.4839 53.2882 37.4839 54.4998C37.7333 54.4998 37.9471 54.4998 38.2084 54.4998C38.2084 53.7871 38.2084 53.1101 38.2084 52.433C38.2322 52.4211 38.256 52.4211 38.2678 52.4093C38.7192 53.1101 39.1825 53.8228 39.6219 54.4998C39.8595 54.4998 40.0614 54.4998 40.2634 54.4998C40.2634 53.2763 40.2634 52.0767 40.2634 50.8651C40.0258 50.8532 39.8239 50.8532 39.5625 50.8532ZM65.457 59.7382C65.5403 59.6787 65.5873 59.6549 65.6349 59.6192C66.0271 59.3461 66.1931 58.9302 66.0747 58.4672C65.9676 58.0037 65.6706 57.671 65.2077 57.6359C64.637 57.5883 64.067 57.624 63.4731 57.624C63.4731 58.8474 63.4731 60.0709 63.4731 61.2824C63.7105 61.2824 63.9247 61.2824 64.186 61.2824C64.186 60.7832 64.186 60.3202 64.186 59.8448C64.3758 59.8448 64.5186 59.8448 64.6846 59.8448C64.9345 60.3321 65.1839 60.8189 65.4094 61.2824C65.7063 61.2824 65.9557 61.2824 66.2407 61.2824C65.9795 60.7361 65.7301 60.2488 65.457 59.7382ZM68.2008 50.8413C68.2008 52.0886 68.2008 53.2882 68.2008 54.4998C68.4382 54.4998 68.6519 54.4998 68.9137 54.4998C68.9137 54.0128 68.9137 53.5377 68.9137 53.0625C69.1035 53.0625 69.2463 53.0625 69.4123 53.0625C69.6497 53.5496 69.8872 54.0247 70.1252 54.4998C70.3983 54.4998 70.6596 54.4998 70.9565 54.4998C70.6834 53.9653 70.4221 53.4546 70.2079 53.0151C70.4221 52.7656 70.6358 52.5993 70.731 52.3736C71.0517 51.6728 70.5644 50.8889 69.7688 50.8413C69.2695 50.8176 68.7471 50.8413 68.2008 50.8413ZM66.8584 61.2943C67.2624 61.2943 67.6307 61.2943 67.9991 61.2943C68.1413 61.2943 68.296 61.3062 68.4382 61.2824C69.0202 61.211 69.448 60.8308 69.4956 60.2369C69.5432 59.7501 69.5432 59.2628 69.5194 58.776C69.4718 58.0156 69.0202 57.6121 68.2484 57.5883C67.892 57.5764 67.5355 57.5883 67.1791 57.5883C67.0726 57.5883 66.9655 57.6121 66.8584 57.6121C66.8584 58.8474 66.8584 60.0471 66.8584 61.2943ZM82.6089 51.9935C82.597 51.8867 82.597 51.8035 82.5732 51.7203C82.3714 51.0789 81.7776 50.7345 81.029 50.8295C80.4589 50.9008 79.996 51.2927 79.9484 51.8629C79.9008 52.4093 79.8889 52.9675 79.9484 53.5021C80.0079 54.1197 80.5065 54.4998 81.1718 54.5592C81.7776 54.6067 82.3714 54.2622 82.5494 53.7278C82.6803 53.3239 82.6803 52.92 82.6327 52.4805C82.1697 52.4805 81.73 52.4805 81.2783 52.4805C81.2783 52.6825 81.2783 52.8725 81.2783 53.0744C81.4092 53.0744 81.5044 53.0744 81.5991 53.0744C81.7062 53.0744 81.8133 53.0982 81.9079 53.0982C81.9079 53.2051 81.9198 53.2882 81.9079 53.3595C81.8371 53.6921 81.5872 53.9059 81.2664 53.9059C80.9344 53.9059 80.6845 53.7159 80.6607 53.3476C80.6255 52.8963 80.6255 52.4449 80.6607 51.9935C80.6845 51.6728 80.863 51.5184 81.1361 51.4709C81.4449 51.4115 81.6705 51.5184 81.849 51.8035C81.8841 51.8629 81.9198 51.9222 81.9555 51.9816C82.1697 51.9935 82.3595 51.9935 82.6089 51.9935ZM36.7237 52.6587C36.7237 52.433 36.7355 52.2192 36.7237 51.9935C36.6524 51.2927 36.1417 50.8295 35.4171 50.8057C34.7044 50.7819 34.1461 51.1977 34.0749 51.8867C34.0155 52.4093 34.0392 52.9319 34.063 53.4546C34.0867 54.0128 34.5975 54.5711 35.4408 54.5592C36.1535 54.5354 36.6762 54.0484 36.7237 53.3476C36.7355 53.1219 36.7237 52.8844 36.7237 52.6587ZM96.554 52.6706C96.5421 52.4211 96.5421 52.1598 96.5183 51.9104C96.435 51.2571 95.9006 50.8176 95.2115 50.8057C94.4987 50.7938 93.9286 51.2214 93.8697 51.8985C93.8221 52.4211 93.8221 52.9557 93.8697 53.4664C93.9286 54.1316 94.5225 54.583 95.2115 54.5592C95.9125 54.5354 96.4469 54.0722 96.5183 53.407C96.5421 53.1695 96.5421 52.92 96.554 52.6706ZM51.2388 52.6943C51.215 52.4093 51.2031 52.1242 51.1675 51.851C51.0606 51.2095 50.5142 50.7819 49.8253 50.8057C49.1245 50.8176 48.5899 51.2571 48.5305 51.9104C48.4831 52.4211 48.4831 52.9438 48.5305 53.4546C48.5899 54.096 49.1482 54.5473 49.8253 54.5592C50.4904 54.5711 51.0606 54.1316 51.1675 53.4902C51.2031 53.2407 51.215 52.9675 51.2388 52.6943ZM63.9723 52.6943C63.9723 52.4449 63.9961 52.2073 63.9604 51.9579C63.889 51.2808 63.3666 50.8295 62.6656 50.8057C61.9408 50.7938 61.3708 51.2333 61.3113 51.9222C61.2637 52.4211 61.2637 52.92 61.3113 53.4189C61.3708 54.1078 61.9527 54.5711 62.6537 54.5592C63.3666 54.5473 63.9128 54.0722 63.9723 53.3833C63.9961 53.1576 63.9723 52.92 63.9723 52.6943ZM112.185 52.6825C112.174 52.4211 112.174 52.1598 112.138 51.9104C112.055 51.2452 111.508 50.8057 110.807 50.8057C110.095 50.8057 109.549 51.2571 109.489 51.9222C109.454 52.4211 109.454 52.92 109.489 53.4189C109.537 54.0841 110.107 54.5473 110.807 54.5473C111.496 54.5592 112.066 54.0841 112.138 53.4308C112.174 53.1932 112.174 52.9438 112.185 52.6825ZM82.0507 12.9501C81.4568 12.1662 78.8791 10.3488 78.2852 10.2657C78.2852 11.1565 78.2852 12.0355 78.2852 12.9501C79.5443 12.9501 80.7678 12.9501 82.0507 12.9501ZM51.8921 50.8532C51.8921 51.7322 51.8802 52.5756 51.9039 53.4189C51.9158 53.8346 52.1534 54.1554 52.5097 54.3692C53.2818 54.8087 54.6121 54.4998 54.6121 53.1813C54.6121 52.4805 54.6121 51.7797 54.6121 51.0789C54.6121 50.9957 54.5884 50.9126 54.5765 50.8413C54.3389 50.8413 54.1251 50.8413 53.8757 50.8413C53.8757 50.9839 53.8757 51.1027 53.8757 51.2333C53.8757 51.8867 53.8757 52.5281 53.8757 53.1813C53.8757 53.4546 53.7926 53.6921 53.5313 53.8228C53.0918 54.0366 52.6285 53.7634 52.6166 53.2763C52.6048 52.6231 52.6166 51.9816 52.6166 51.3284C52.6166 51.174 52.6166 51.0195 52.6166 50.8413C52.3672 50.8532 52.1534 50.8532 51.8921 50.8532ZM54.3508 60.6647C54.434 60.8903 54.5171 61.092 54.5884 61.2824C54.8497 61.2824 55.0754 61.2824 55.3367 61.2824C54.8854 60.0352 54.4459 58.8117 54.0064 57.6121C53.7925 57.6121 53.6025 57.6121 53.4124 57.6121C52.9848 58.8474 52.5097 60.0471 52.1059 61.2824C52.3791 61.2824 52.6166 61.2824 52.8423 61.2824C52.9254 61.0682 53.0086 60.8545 53.0799 60.6647C53.5194 60.6647 53.9232 60.6647 54.3508 60.6647ZM63.0339 61.2824C62.5704 60.0114 62.1312 58.7998 61.7034 57.6002C61.4779 57.6002 61.2994 57.6002 61.1095 57.6002C60.6698 58.8236 60.2306 60.0471 59.7909 61.2705C60.0759 61.2705 60.3139 61.2705 60.5395 61.2705C60.6228 61.0563 60.6936 60.8545 60.765 60.6647C60.884 60.6528 60.9786 60.6528 61.0738 60.6528C61.3946 60.6528 61.7034 60.6528 62.036 60.6528C62.1193 60.8784 62.2021 61.0801 62.2735 61.2943C62.5228 61.2824 62.7608 61.2824 63.0339 61.2824ZM90.1399 51.269C89.712 50.7938 88.845 50.6632 88.2631 50.972C87.8471 51.1858 87.6335 51.5897 87.693 52.1123C87.74 52.5399 88.0018 52.8131 88.4648 52.9319C88.5719 52.9557 88.6784 52.9675 88.7855 52.9913C88.9283 53.0151 89.0825 53.0269 89.2253 53.0625C89.4151 53.1101 89.5222 53.2289 89.5341 53.4308C89.546 53.6327 89.4627 53.799 89.2604 53.8584C89.0825 53.9059 88.8926 53.9416 88.726 53.9178C88.4767 53.8703 88.2393 53.7752 87.978 53.6802C87.859 53.799 87.7168 53.9416 87.5859 54.0841C88.1203 54.6661 89.3199 54.7611 89.9019 54.2504C90.2464 53.9534 90.3178 53.5733 90.2345 53.1457C90.1399 52.7181 89.8667 52.5043 89.4627 52.4093C89.2604 52.3617 89.0468 52.3498 88.845 52.3143C88.5481 52.2667 88.4053 52.1242 88.4053 51.8985C88.4053 51.661 88.5719 51.4828 88.8569 51.459C88.9992 51.4471 89.1539 51.459 89.2961 51.4946C89.4508 51.5303 89.593 51.6134 89.7358 51.6728C89.8667 51.5303 89.9971 51.3996 90.1399 51.269ZM93.1568 51.2571C92.8004 50.7345 91.6126 50.6751 91.1729 51.0314C91.0188 51.1621 90.8641 51.3284 90.7932 51.5065C90.5195 52.1479 90.8284 52.7537 91.5055 52.92C91.743 52.9794 91.9929 52.9913 92.2303 53.0507C92.4558 53.0982 92.551 53.217 92.551 53.4308C92.5629 53.6446 92.4796 53.7871 92.266 53.8465C92.0994 53.894 91.9215 53.9178 91.7668 53.894C91.5055 53.8465 91.2562 53.7515 90.9831 53.6565C90.9355 53.6921 90.8641 53.7634 90.7932 53.8346C90.7218 53.9059 90.6504 53.989 90.5909 54.0603C90.9712 54.6186 92.2898 54.7255 92.8361 54.286C92.9902 54.1672 93.133 53.9772 93.2044 53.799C93.4656 53.1219 93.0973 52.5043 92.3725 52.3855C92.1589 52.3498 91.9334 52.3261 91.7192 52.2786C91.5412 52.2311 91.4103 52.1242 91.399 51.9222C91.3871 51.7322 91.4936 51.5659 91.6959 51.5065C91.862 51.459 92.0637 51.459 92.2303 51.4828C92.4082 51.5065 92.5748 51.6016 92.729 51.6609C92.8837 51.5184 93.014 51.3996 93.1568 51.2571ZM85.5074 50.8532C85.0676 52.0648 84.6285 53.2763 84.1768 54.5117C84.4619 54.5117 84.6874 54.5117 84.9254 54.5117C85.0081 54.2979 85.0795 54.096 85.1509 53.894C85.5901 53.894 86.006 53.894 86.4339 53.894C86.5166 54.1078 86.588 54.3098 86.6713 54.5117C86.9206 54.5117 87.1462 54.5117 87.4193 54.5117C86.9682 53.2645 86.5166 52.0529 86.0893 50.8532C85.8638 50.8532 85.6972 50.8532 85.5074 50.8532ZM58.045 54.0603C58.4133 54.6186 59.7552 54.7374 60.3139 54.2741C60.4443 54.1672 60.5752 54.0009 60.646 53.8465C60.9316 53.1695 60.5633 52.5162 59.8385 52.3855C59.6368 52.3498 59.4226 52.338 59.2208 52.2905C58.9715 52.2311 58.8644 52.1005 58.8644 51.8867C58.8644 51.6728 58.9834 51.5303 59.2208 51.4828C59.3755 51.4471 59.5416 51.4471 59.6844 51.4828C59.8623 51.5184 60.0283 51.6016 60.1592 51.6491C60.3139 51.5184 60.4681 51.3996 60.599 51.2808C60.2663 50.7701 59.0667 50.6751 58.5794 51.067C58.449 51.174 58.33 51.3046 58.2467 51.459C57.926 52.1005 58.2348 52.7656 58.9358 52.9438C59.1851 53.0032 59.4464 53.0269 59.6963 53.0744C59.8861 53.1219 59.9813 53.2408 59.9932 53.4427C60.0051 53.6327 59.9218 53.799 59.7433 53.8465C59.5773 53.894 59.3755 53.9416 59.2089 53.9059C58.9477 53.8703 58.6984 53.7633 58.4133 53.6684C58.33 53.7752 58.1872 53.9059 58.045 54.0603ZM64.6965 50.8532C64.6965 51.756 64.6846 52.6112 64.7084 53.4664C64.7203 53.6684 64.8274 53.894 64.9459 54.0603C65.2666 54.5117 65.9319 54.678 66.5138 54.4879C67.0607 54.3098 67.3814 53.8822 67.3814 53.2645C67.3933 52.5399 67.3814 51.8154 67.3814 51.0908C67.3814 51.0076 67.3576 50.9364 67.3457 50.8532C67.1196 50.8532 66.9179 50.8532 66.6804 50.8532C66.6804 50.9957 66.6804 51.1146 66.6804 51.2333C66.6804 51.8272 66.6804 52.4093 66.6804 53.0032C66.6804 53.1101 66.6804 53.2289 66.6685 53.3357C66.609 53.704 66.3716 53.9178 66.0271 53.9178C65.6825 53.9059 65.457 53.6921 65.4094 53.312C65.3975 53.217 65.3975 53.1219 65.3975 53.0151C65.3975 52.3974 65.3975 51.7916 65.3975 51.174C65.3975 51.067 65.3856 50.9602 65.3737 50.8413C65.1363 50.8532 64.9345 50.8532 64.6965 50.8532ZM27.5537 50.8413C27.1024 52.0648 26.6748 53.2763 26.2234 54.4998C26.5085 54.4998 26.7342 54.4998 26.9717 54.4998C27.0549 54.286 27.1261 54.0841 27.2093 53.8822C27.6488 53.8822 28.0526 53.8822 28.4921 53.8822C28.5753 54.096 28.6465 54.2979 28.7416 54.5117C28.8723 54.5117 29.0148 54.5117 29.1454 54.5117C29.2405 54.5117 29.3355 54.4998 29.478 54.4998C29.0267 53.2645 28.5872 52.0529 28.1477 50.8413C27.922 50.8413 27.7557 50.8413 27.5537 50.8413ZM43.9812 54.4998C43.5298 53.2645 43.0904 52.0411 42.6509 50.8532C42.4252 50.8532 42.247 50.8532 42.0688 50.8532C41.6293 52.0767 41.1899 53.2763 40.7504 54.4998C41.0355 54.4998 41.2611 54.4998 41.4987 54.4998C41.5818 54.286 41.665 54.0841 41.7481 53.8703C42.1163 53.8703 42.4727 53.8703 42.829 53.8703C42.8884 53.8703 42.9478 53.8822 43.0191 53.894C43.1022 54.1078 43.1735 54.3098 43.2566 54.5117C43.4942 54.4998 43.7199 54.4998 43.9812 54.4998ZM69.9824 60.8427C70.5406 61.4127 71.6456 61.5198 72.2275 61.0563C72.3698 60.9498 72.4888 60.7951 72.5602 60.629C72.8571 59.9638 72.5007 59.2866 71.7759 59.1563C71.5504 59.1087 71.3129 59.0849 71.0874 59.0373C70.9089 58.9897 70.7899 58.8712 70.7899 58.6689C70.7899 58.4791 70.8732 58.3125 71.0636 58.2768C71.2534 58.2298 71.4433 58.2298 71.6337 58.2536C71.7997 58.2768 71.9425 58.372 72.1204 58.4315C72.1918 58.3601 72.2632 58.3006 72.3341 58.2298C72.4055 58.1584 72.465 58.087 72.5126 58.0156C72.1799 57.505 70.9565 57.4336 70.5049 57.8257C70.3626 57.9566 70.2317 58.1108 70.1609 58.2887C69.8872 58.954 70.2198 59.5597 70.9208 59.7144C71.1344 59.762 71.3605 59.7739 71.5742 59.821C71.7997 59.8686 71.8949 59.9876 71.9187 60.1893C71.9306 60.4154 71.8473 60.5695 71.6099 60.629C71.4314 60.6766 71.2415 60.7004 71.0636 60.6647C70.8256 60.6171 70.612 60.51 70.3626 60.4273C70.2674 60.5576 70.1371 60.6885 69.9824 60.8427ZM102.992 50.8413C102.552 52.0529 102.113 53.2645 101.661 54.4998C101.934 54.4998 102.172 54.4998 102.41 54.4998C102.493 54.286 102.576 54.0841 102.647 53.894C103.087 53.894 103.514 53.894 103.942 53.894C104.025 54.1078 104.084 54.2979 104.168 54.4998C104.417 54.4998 104.643 54.4998 104.916 54.4998C104.465 53.2645 104.025 52.0529 103.574 50.8413C103.372 50.8413 103.194 50.8413 102.992 50.8413ZM79.4372 59.477C79.4372 59.192 79.4491 58.9183 79.4372 58.6332C79.4134 57.9918 78.9624 57.5764 78.309 57.5883C77.6675 57.6002 77.2284 58.0037 77.2165 58.6213C77.2046 59.1682 77.2046 59.7263 77.2165 60.2726C77.2284 60.9141 77.6794 61.3419 78.3209 61.3419C78.9624 61.3419 79.4134 60.9141 79.4372 60.2726C79.4372 60.0114 79.4372 59.7382 79.4372 59.477ZM74.1281 51.9579C73.9853 51.1977 73.4867 50.7938 72.75 50.8176C72.0371 50.8413 71.5266 51.2808 71.4671 51.9816C71.4314 52.433 71.4433 52.8844 71.4552 53.3357C71.479 54.3573 72.6078 54.8443 73.4748 54.4048C73.8669 54.2029 74.0805 53.8584 74.14 53.407C73.8901 53.407 73.6646 53.407 73.451 53.407C73.3915 53.514 73.3439 53.609 73.2725 53.6921C73.1183 53.8822 72.9166 53.9534 72.6786 53.894C72.4412 53.8465 72.2751 53.7159 72.2275 53.4664C72.1323 52.9438 72.1323 52.4211 72.2275 51.8985C72.2751 51.661 72.4412 51.5184 72.6786 51.4709C72.9166 51.4352 73.1183 51.4709 73.2725 51.6728C73.3439 51.756 73.3915 51.8629 73.451 51.9698C73.5932 51.9698 73.736 51.9698 73.8901 51.9698C73.9615 51.9698 74.0329 51.9579 74.1281 51.9579ZM99.1431 53.407C99.1079 53.4783 99.0841 53.5377 99.0484 53.5852C98.8937 53.8346 98.6563 53.9534 98.407 53.894C98.1219 53.8346 97.9315 53.6684 97.9196 53.3357C97.8958 52.8844 97.8958 52.433 97.9196 51.9816C97.9315 51.6966 98.11 51.5303 98.3713 51.4709C98.6563 51.4115 98.8699 51.4946 99.0365 51.7441C99.0841 51.8154 99.1193 51.8867 99.155 51.946C99.393 51.946 99.6066 51.946 99.8202 51.946C99.7488 51.2571 99.2621 50.8295 98.5492 50.8057C97.8607 50.7938 97.2901 51.2214 97.1954 51.8391C97.1597 52.0411 97.1597 52.2549 97.1478 52.4568C97.1478 52.7419 97.1597 53.0151 97.1716 53.3001C97.2073 54.4286 98.4784 54.8443 99.2978 54.3216C99.6185 54.1078 99.7964 53.799 99.8559 53.3952C99.6066 53.407 99.393 53.407 99.1431 53.407ZM83.3693 18.4734C83.7728 18.5447 85.4479 18.5328 85.6972 18.4615C85.3051 17.3925 83.7966 15.0644 83.3693 14.8625C83.3693 16.0503 83.3693 17.2619 83.3693 18.4734ZM83.868 57.6002C83.5473 58.2887 83.2146 58.9659 82.9058 59.6549C82.8344 59.8329 82.8106 60.0352 82.8106 60.225C82.7987 60.6528 82.9653 60.9974 83.3574 61.1872C83.7252 61.377 84.1173 61.377 84.4976 61.211C84.9486 61.0093 85.1985 60.4981 85.1033 59.9519C85.0081 59.4294 84.6636 59.1087 84.1292 59.073C84.0697 59.073 84.0108 59.0611 83.9156 59.0492C84.153 58.5505 84.3786 58.087 84.6285 57.5883C84.3429 57.6002 84.1173 57.6002 83.868 57.6002ZM76.6345 61.2824C76.6345 61.0682 76.6345 60.9021 76.6345 60.6885C76.1829 60.6885 75.7669 60.6885 75.2802 60.6885C75.4105 60.5338 75.4819 60.4273 75.5652 60.3321C75.8621 59.9757 76.1829 59.6311 76.4679 59.2628C76.8719 58.7165 76.6815 57.9328 76.0758 57.6829C75.7193 57.5288 75.3516 57.5407 75.007 57.6948C74.6268 57.8733 74.4251 58.2298 74.484 58.6451C74.6744 58.6451 74.8642 58.6451 75.0665 58.6451C75.1017 58.5743 75.1136 58.5029 75.1493 58.4434C75.2564 58.2417 75.4462 58.1584 75.6723 58.206C75.874 58.2536 76.0168 58.4434 75.9811 58.6808C75.9573 58.8236 75.874 58.9778 75.7788 59.0968C75.4105 59.5478 75.0546 59.9876 74.6506 60.4035C74.3894 60.6766 74.4013 60.9498 74.4608 61.2824C75.185 61.2824 75.8978 61.2824 76.6345 61.2824ZM30.3095 54.4998C30.5589 54.4998 30.7727 54.4998 31.034 54.4998C31.034 53.989 31.034 53.4902 31.034 52.9913C31.034 52.4924 31.0222 51.9935 31.0459 51.4709C31.3785 51.4709 31.6755 51.4709 31.9724 51.4709C31.9843 51.3402 31.9962 51.2452 31.9843 51.1383C31.9843 51.0433 31.9724 50.9483 31.9605 50.8413C31.0816 50.8413 30.2264 50.8413 29.3592 50.8413C29.3592 51.0552 29.3592 51.2571 29.3592 51.5065C29.6799 51.5065 29.9888 51.5065 30.3095 51.5065C30.3095 52.5281 30.3095 53.514 30.3095 54.4998ZM56.8333 54.5117C56.8333 53.4902 56.8333 52.5043 56.8333 51.4828C57.1661 51.4828 57.4511 51.4828 57.76 51.4828C57.76 51.2571 57.76 51.067 57.76 50.8651C56.8811 50.8651 56.0138 50.8651 55.1467 50.8651C55.1467 51.0789 55.1467 51.269 55.1467 51.5065C55.4674 51.5065 55.7643 51.5065 56.1088 51.5065C56.1088 52.5399 56.1088 53.5258 56.1088 54.5236C56.3463 54.5117 56.5602 54.5117 56.8333 54.5117ZM107.411 50.8295C106.519 50.8295 105.652 50.8295 104.797 50.8295C104.797 51.0789 104.797 51.269 104.797 51.4946C105.118 51.4946 105.403 51.4946 105.736 51.4946C105.736 52.5162 105.736 53.5021 105.736 54.4879C105.997 54.4879 106.222 54.4879 106.472 54.4879C106.472 53.4783 106.472 52.5043 106.472 51.4828C106.793 51.4828 107.102 51.4828 107.411 51.4828C107.411 51.2571 107.411 51.0789 107.411 50.8295ZM45.169 53.8822C45.169 52.8369 45.169 51.851 45.169 50.8532C44.9196 50.8532 44.7058 50.8532 44.4682 50.8532C44.4682 52.0767 44.4682 53.2882 44.4682 54.4879C44.9434 54.5592 46.5588 54.5354 46.8082 54.4642C46.8082 54.286 46.8082 54.096 46.8082 53.8822C46.2737 53.8822 45.751 53.8822 45.169 53.8822ZM80.9814 58.3839C81.0052 58.3958 81.0409 58.4077 81.0647 58.4196C81.0647 59.3699 81.0647 60.3202 81.0647 61.2705C81.3021 61.2705 81.5044 61.2705 81.6943 61.2705C81.6943 60.0352 81.6943 58.8236 81.6943 57.624C81.0647 57.5288 80.9344 57.5764 80.4113 58.1346C80.1977 58.372 80.3167 58.6332 80.3048 58.9659C80.5541 58.7403 80.7678 58.5624 80.9814 58.3839ZM101.175 54.5117C101.246 53.9534 101.222 51.1146 101.151 50.8651C100.937 50.8651 100.723 50.8651 100.509 50.8651C100.509 52.1005 100.509 53.3001 100.509 54.5117C100.747 54.5117 100.949 54.5117 101.175 54.5117ZM108.028 50.8413C108.028 52.0886 108.028 53.2882 108.028 54.4998C108.266 54.4998 108.479 54.4998 108.729 54.4998C108.729 53.2645 108.729 52.0648 108.729 50.8413C108.468 50.8413 108.266 50.8413 108.028 50.8413ZM33.2672 50.8532C33.0177 50.8532 32.8158 50.8532 32.602 50.8532C32.602 52.0767 32.602 53.2882 32.602 54.4879C32.8395 54.4879 33.0533 54.4879 33.2672 54.4879C33.2672 53.2763 33.2672 52.0767 33.2672 50.8532ZM74.8047 50.8532C74.8047 52.0886 74.8047 53.2882 74.8047 54.4879C75.0427 54.4879 75.2564 54.4879 75.47 54.4879C75.47 53.2645 75.47 52.0648 75.47 50.8532C75.2445 50.8532 75.0427 50.8532 74.8047 50.8532Z" fill="#111560"/>
<path d="M11.9338 65.6418C11.9338 65.5942 11.9338 65.5347 11.9338 65.4871C11.9814 65.4157 12.0289 65.3567 12.0883 65.2734C12.2189 65.2734 12.3496 65.2734 12.4803 65.2734C49.5994 65.2734 86.7184 65.2734 123.826 65.2734C124.04 65.2734 124.265 65.2734 124.479 65.2734C124.491 65.4038 124.503 65.5466 124.503 65.6775C124.503 70.357 124.479 75.0252 124.515 79.7053C124.526 82.176 122.519 84.3378 119.859 84.3378C85.4355 84.3259 51.001 84.3378 16.5782 84.3378C15.0816 84.3378 13.8581 83.7558 12.9197 82.6038C12.2902 81.8314 11.9576 80.9287 11.9338 79.9308C11.9457 79.8005 11.9695 79.6696 11.9695 79.5274C11.9695 75.0371 11.9695 70.5474 11.9695 66.0452C11.9814 65.903 11.9457 65.7721 11.9338 65.6418ZM43.1496 67.5305C43.1496 72.2814 43.1496 76.9972 43.1496 81.7243C44.0642 81.7243 44.9551 81.7243 45.8934 81.7243C45.8934 78.8621 45.8934 76.0112 45.8934 73.1603C46.2973 73.6595 46.6299 74.1701 46.9625 74.6807C48.4235 76.9377 49.8726 79.1947 51.3218 81.4512C51.4524 81.6654 51.6068 81.7481 51.8563 81.7362C52.4145 81.713 52.9847 81.7362 53.5548 81.7362C53.6855 81.7362 53.8162 81.7362 53.9468 81.7362C54.03 81.3209 54.0062 67.8155 53.9349 67.5424C53.0441 67.5424 52.1532 67.5424 51.2267 67.5424C51.2267 70.4046 51.2267 73.2317 51.2267 76.0707C51.0961 75.9874 51.0248 75.8922 50.9654 75.7976C49.2906 73.2079 47.6039 70.6188 45.941 68.0053C45.7034 67.6251 45.4421 67.471 45.0026 67.5067C44.5156 67.5424 44.0167 67.5186 43.5297 67.5186C43.399 67.5305 43.2802 67.5305 43.1496 67.5305ZM69.2577 81.7243C67.5237 76.9615 65.8011 72.2457 64.079 67.5543C63.3066 67.5543 62.5943 67.5543 61.8695 67.5543C60.1474 72.2814 58.4367 76.9853 56.7144 81.7243C57.7125 81.7243 58.6503 81.7243 59.6125 81.7243C59.8975 80.9049 60.1826 80.0855 60.4682 79.2542C62.1546 79.2542 63.8177 79.2542 65.5041 79.2542C65.7892 80.0736 66.0623 80.9049 66.336 81.7243C67.3095 81.7243 68.2479 81.7243 69.2577 81.7243ZM92.1233 78.2206C91.5294 78.8264 90.9356 79.4084 90.353 80.0022C90.353 80.0022 90.3649 80.0379 90.3887 80.0617C90.4244 80.1093 90.472 80.1569 90.5196 80.1921C91.054 80.6794 91.636 81.0596 92.3131 81.3328C93.4652 81.7957 94.6767 81.879 95.8888 81.8314C96.7677 81.7957 97.6109 81.6178 98.4065 81.2257C99.5234 80.6794 100.307 79.8362 100.616 78.6128C100.818 77.7928 100.794 76.9615 100.58 76.1302C100.295 75.0014 99.5942 74.2296 98.5136 73.8018C98.2762 73.7071 98.0268 73.6238 97.7769 73.5762C97.017 73.4453 96.2566 73.3269 95.4967 73.2079C95.0569 73.1365 94.6297 73.0657 94.2375 72.8277C93.8811 72.614 93.6437 72.3171 93.5604 71.9012C93.43 71.2246 93.7032 70.5593 94.2851 70.1791C94.6415 69.9416 95.045 69.8464 95.4729 69.8226C96.6249 69.7631 97.6942 69.9535 98.5969 70.7491C98.6088 70.761 98.6207 70.761 98.6445 70.761C99.2027 70.191 99.7727 69.609 100.331 69.027C99.9745 68.5873 99.2384 68.0886 98.5017 67.8274C97.017 67.3044 95.4967 67.2097 93.9763 67.637C90.9237 68.4921 90.4125 71.3192 91.1254 73.3388C91.5175 74.4432 92.3607 75.0847 93.4533 75.4054C94.0828 75.5834 94.7481 75.6667 95.4015 75.7857C95.9358 75.8803 96.4708 75.9398 96.9932 76.0826C97.5276 76.2129 97.8721 76.5813 97.9792 77.1275C98.1691 78.0659 97.8721 78.8145 96.8742 79.1709C96.4707 79.3132 96.031 79.3489 95.6032 79.3608C94.3327 79.3727 93.1325 79.1233 92.159 78.2325C92.1352 78.2206 92.0995 78.2206 92.1233 78.2206ZM26.0451 81.7243C26.0451 79.7886 26.0451 77.888 26.0451 75.9517C27.9218 75.9517 29.7629 75.9517 31.6159 75.9517C31.6159 75.1204 31.6159 74.3248 31.6159 73.481C29.7511 73.481 27.9099 73.481 26.057 73.481C26.057 72.3052 26.057 71.1651 26.057 69.9892C28.2426 69.9892 30.4043 69.9892 32.5781 69.9892C32.5781 69.1455 32.5781 68.3499 32.5781 67.5424C29.466 67.5424 26.3777 67.5424 23.2775 67.5424C23.2775 72.2695 23.2775 76.9853 23.2775 81.713C24.204 81.7243 25.0948 81.7243 26.0451 81.7243ZM109.786 81.7243C109.786 77.8047 109.786 73.9208 109.786 70.0011C111.021 70.0011 112.233 70.0011 113.444 70.0011C113.444 69.1574 113.444 68.3618 113.444 67.5656C110.048 67.5656 106.685 67.5656 103.312 67.5656C103.312 68.3856 103.312 69.1812 103.312 70.0011C104.536 70.0011 105.747 70.0011 107.006 70.0011C107.006 73.9327 107.006 77.8166 107.006 81.7243C107.945 81.7243 108.835 81.7243 109.786 81.7243ZM72.0372 67.5543C72.0372 72.2814 72.0372 76.9972 72.0372 81.7362C75.1018 81.7362 78.1544 81.7362 81.207 81.7362C81.207 80.9049 81.207 80.1093 81.207 79.2656C79.069 79.2656 76.9548 79.2656 74.7929 79.2656C74.7929 75.3459 74.7929 71.462 74.7929 67.5656C73.8545 67.5543 72.9518 67.5543 72.0372 67.5543ZM38.7903 67.5543C37.8519 67.5543 36.973 67.5543 36.0821 67.5543C35.999 68.16 36.0346 81.4631 36.1059 81.713C36.9967 81.713 37.8876 81.713 38.7903 81.713C38.7903 76.9853 38.7903 72.2814 38.7903 67.5543ZM87.2534 81.7243C87.2534 76.9853 87.2534 72.2814 87.2534 67.5305C86.3388 67.5305 85.4355 67.5305 84.5328 67.5305C84.5328 72.2933 84.5328 76.9972 84.5328 81.713C85.4355 81.7243 86.3269 81.7243 87.2534 81.7243Z" fill="#BDBFC2"/>
<path d="M11.934 65.6416C11.9459 65.7719 11.9815 65.9028 11.9815 66.0332C11.9815 70.5234 11.9815 75.0131 11.9815 79.5153C11.9815 79.6456 11.9578 79.7765 11.9459 79.9188C11.934 79.8122 11.9221 79.7051 11.9221 79.5861C11.9221 75.0488 11.9221 70.5115 11.9221 65.9742C11.9221 65.8671 11.9221 65.7481 11.934 65.6416Z" fill="#BCBCC1"/>
<path d="M42.9711 29.4841C42.9711 22.5116 42.9711 15.5272 42.9711 8.56664C43.2561 8.48351 49.2665 8.47161 49.6941 8.5429C49.6941 20.0172 49.6941 31.5033 49.6941 43.0251C49.5516 43.0251 49.4328 43.0251 49.314 43.0251C47.556 43.0251 45.7981 43.0251 44.052 43.037C43.7788 43.037 43.6362 42.942 43.4937 42.7163C39.1107 35.9101 34.7158 29.1039 30.3327 22.3097C30.2614 22.2027 30.1902 22.084 30.1189 21.9771C30.0833 21.9771 30.0714 21.9771 30.0595 21.9889C30.0476 21.9889 30.0476 22.0008 30.0358 22.0127C30.0358 22.0246 30.0358 22.0365 30.0239 22.0483C30.0239 22.0602 30.0239 22.0721 30.0239 22.084C30.0239 22.1078 30.0239 22.1315 30.0239 22.1552C30.0239 22.2265 30.0239 22.2978 30.0239 22.381C30.0239 29.1515 30.0239 35.9339 30.0239 42.7044C30.0239 42.7282 30.0239 42.7519 30.0239 42.7757C30.0239 42.7876 30.0239 42.7994 30.0239 42.8113C30.0239 42.8232 30.0239 42.8351 30.0239 42.847C30.0239 42.8707 30.0239 42.8945 30.012 42.9183C30.012 42.9301 30.012 42.942 30.0001 42.9538C30.0001 42.9657 29.9882 42.9776 29.9645 43.0014C27.767 43.0014 25.5459 43.0014 23.3127 43.0014C23.3127 31.5033 23.3127 20.0291 23.3127 8.51915C25.2964 8.51915 27.28 8.51915 29.3112 8.51915C33.8249 15.4916 38.3505 22.4997 42.8879 29.5078C42.9235 29.496 42.9473 29.4841 42.9711 29.4841Z" fill="#BEC0C3"/>
<path d="M115.307 43.0019C112.943 43.0019 110.627 43.0019 108.275 43.0019C107.598 40.9826 106.921 38.9634 106.244 36.9322C102.158 36.9322 98.0956 36.9322 93.9855 36.9322C93.297 38.9515 92.608 40.9708 91.907 43.0019C89.5672 43.0019 87.2507 43.0019 84.8752 43.0019C89.068 31.492 93.2375 19.994 97.4184 8.50781C99.1762 8.50781 100.923 8.50781 102.704 8.50781C106.897 19.994 111.09 31.4801 115.307 43.0019ZM104.438 31.2188C103.037 27.0496 101.647 22.9279 100.257 18.7943C100.234 18.7943 100.21 18.7943 100.186 18.7943C98.7489 22.9279 97.3113 27.0614 95.8742 31.2188C98.7489 31.2188 101.564 31.2188 104.438 31.2188Z" fill="#BDBFC3"/>
<path d="M86.5024 24.2461C86.5619 24.2461 86.6214 24.258 86.716 24.258C86.7398 24.4243 86.7636 24.5906 86.7755 24.7569C87.4527 33.1547 81.9294 40.8042 73.7337 42.7641C64.2902 45.021 55.2867 39.1176 53.113 30.1971C50.8799 21.0509 56.4626 11.7978 65.6207 9.52912C67.7825 8.99458 69.9801 8.89955 72.1895 9.20838C72.296 9.22028 72.415 9.20838 72.4507 9.35096C72.4269 9.46973 72.4031 9.5885 72.3793 9.70728C71.9396 9.65979 71.5004 9.62415 71.0726 9.56476C70.0396 9.43409 69.006 9.50537 67.9605 9.5766C67.6754 9.6004 67.3904 9.65979 67.0935 9.70728C66.9036 9.73102 66.7013 9.75482 66.5115 9.79041C64.9911 10.0992 63.5303 10.5744 62.164 11.2989C61.8671 11.4533 61.5583 11.6078 61.2613 11.786C60.2515 12.3917 59.2893 13.0569 58.458 13.8884C58.3277 13.9953 58.1849 14.1022 58.0659 14.2209C57.2584 15.0168 56.5339 15.872 55.9044 16.8223C55.4292 17.535 54.9779 18.2714 54.6571 19.0673C54.574 19.2454 54.479 19.4117 54.3958 19.5899C53.303 22.1437 52.8992 24.8044 53.1249 27.5601C53.1724 28.1421 53.2912 28.7242 53.3862 29.2943C53.398 29.4131 53.4099 29.5438 53.4337 29.6626C54.7641 35.7085 59.3012 40.5192 65.2643 42.1584C65.9295 42.3484 66.6305 42.4315 67.319 42.5622C67.3904 42.586 67.4618 42.6097 67.5332 42.6216C69.7659 42.9067 71.9634 42.7641 74.1252 42.1584C75.3249 41.8258 76.4775 41.3982 77.5581 40.7686C78.6512 40.2222 79.6247 39.5214 80.5512 38.7255C81.3236 38.0604 82.0365 37.3477 82.6541 36.5281C83.2242 35.8629 83.7229 35.1503 84.1269 34.3782C84.1626 34.3188 84.2102 34.2594 84.2453 34.2C84.982 32.8697 85.5402 31.468 85.8847 29.9832C85.9442 29.7338 85.9799 29.4844 86.0275 29.235C86.0983 28.7954 86.2173 28.3441 86.2411 27.9046C86.2887 27.0375 86.3006 26.1704 86.3244 25.3033C86.3244 25.1726 86.3006 25.0301 86.3006 24.8994C86.2887 24.6856 86.2887 24.4599 86.2768 24.2461C86.372 24.258 86.4429 24.2461 86.5024 24.2461Z" fill="#B6B9C0"/>
<path d="M121.794 47.5508C121.794 47.6458 121.794 47.7408 121.794 47.8477C86.2662 47.8477 50.7509 47.8477 15.2234 47.8477C15.2115 47.8002 15.1877 47.7646 15.1877 47.717C15.1877 47.6696 15.1996 47.622 15.1996 47.5508C50.7271 47.5508 86.243 47.5508 121.794 47.5508Z" fill="#ABAFB9"/>
<path d="M72.511 13.9357C74.0552 13.9357 75.5875 13.9357 77.1316 13.9476C77.2625 13.9476 77.3929 13.9832 77.5119 14.007C75.9677 14.007 74.4235 14.007 72.8794 14.007C72.7366 14.007 72.5943 14.0308 72.4277 14.0426C72.4277 15.7531 72.4277 17.416 72.4277 19.079L72.4158 19.0908C70.7175 19.0908 69.0306 19.0908 67.3323 19.0908C67.3323 17.3685 67.3323 15.6581 67.3323 13.9357L67.3442 13.9238C69.0306 13.9238 70.7294 13.9238 72.4158 13.9238C72.4634 13.9357 72.4872 13.9357 72.511 13.9357Z" fill="#6D6D9C"/>
<path d="M86.5026 24.2461C86.4317 24.258 86.3722 24.258 86.3008 24.2698C85.1964 24.2104 83.0108 24.2342 82.6781 24.3292C82.6781 25.9566 82.6781 27.6076 82.6781 29.2587C82.6781 29.2825 82.6781 29.3062 82.6781 29.3418C80.9793 29.3418 79.2929 29.3418 77.594 29.3418C77.594 27.6195 77.594 25.909 77.594 24.1867L77.6059 24.1748C79.3048 24.1748 80.9912 24.1748 82.69 24.1748C83.8302 24.1748 84.9584 24.1749 86.0991 24.1867C86.2294 24.1867 86.3722 24.2223 86.5026 24.2461Z" fill="#6D6D9C"/>
<path d="M77.5572 19.0909C77.5691 19.079 77.581 19.0909 77.5929 19.1028C77.5929 20.7894 77.5929 22.488 77.5929 24.1747L77.581 24.1866C75.8589 24.1866 74.1487 24.1866 72.426 24.1866C72.426 22.488 72.426 20.8013 72.426 19.1028L72.4379 19.0909C74.1487 19.0909 75.8589 19.0909 77.5572 19.0909Z" fill="#6D6D9C"/>
<path d="M77.5609 19.0905C75.8502 19.0905 74.1519 19.0905 72.4417 19.0905C72.4417 17.4276 72.4417 15.7646 72.4417 14.0542C72.6077 14.0423 72.7505 14.0186 72.8927 14.0186C74.4369 14.0186 75.9811 14.0186 77.5252 14.0186C77.5371 14.1611 77.549 14.3155 77.549 14.4581C77.549 15.8597 77.549 17.2613 77.549 18.651C77.549 18.7936 77.5609 18.9361 77.5609 19.0905Z" fill="#8382AD"/>
<path d="M77.594 24.1745C77.594 22.4878 77.594 20.7892 77.594 19.1025C79.2691 19.1025 80.9317 19.1144 82.6067 19.1144C82.6305 19.1381 82.6424 19.15 82.6662 19.1738C82.6662 20.5041 82.6781 21.8226 82.6781 23.153C82.6781 23.4974 82.6781 23.8419 82.6781 24.1864C80.9793 24.1745 79.2929 24.1745 77.594 24.1745Z" fill="#8382AD"/>
<path d="M82.9744 18.8652C81.4422 18.8652 79.9099 18.8771 78.3776 18.8771C78.2235 18.8771 78.0688 18.8771 77.8909 18.8771C77.8909 17.1548 77.8909 15.4919 77.8909 13.7933C77.9974 13.7814 78.0926 13.7695 78.1878 13.7695C79.2684 13.7695 80.3496 13.7695 81.4184 13.7695C81.6326 13.7695 81.7986 13.8289 81.9414 13.9833C82.2264 14.304 82.5353 14.601 82.8203 14.9217C82.903 15.0167 82.9744 15.1592 82.9744 15.2781C82.9863 16.4777 82.9744 17.6774 82.9744 18.8652Z" fill="#9B9BBF"/>
<path d="M72.5944 9.375C73.8535 9.55316 75.0531 9.89764 76.229 10.3727C76.6568 10.5509 77.0722 10.7528 77.5 10.9429C77.6428 11.0023 77.7017 11.0973 77.7017 11.2517C77.6898 12.0595 77.7017 12.8671 77.6898 13.6749C77.6898 13.7105 77.6666 13.7462 77.6428 13.8293C75.9677 13.8293 74.2813 13.8412 72.5944 13.8412C72.5825 13.7818 72.5706 13.7224 72.5706 13.663C72.5944 12.2376 72.5944 10.8122 72.5944 9.375Z" fill="#9999BE"/>
<path d="M82.9651 18.8774C83.7607 18.8774 84.5569 18.8774 85.3644 18.8774C86.1129 20.5165 86.5997 22.1913 86.8014 23.985C85.519 23.985 84.2837 23.985 82.9889 23.985C82.977 22.2745 82.977 20.564 82.9651 18.8774Z" fill="#9999BE"/>
<path d="M58.493 59.7614C58.671 59.0486 58.8489 58.3244 59.0274 57.5996C59.2767 57.5996 59.5023 57.5996 59.7873 57.5996C59.4547 58.8349 59.1339 60.0584 58.8138 61.2818C58.6115 61.2818 58.4097 61.2818 58.1961 61.2818C57.9819 60.5808 57.7683 59.8799 57.5546 59.1795C57.5308 59.1795 57.5189 59.1795 57.4951 59.1795C57.2809 59.8799 57.0673 60.5808 56.8537 61.2818C56.6517 61.2818 56.4735 61.2818 56.2359 61.2818C55.9152 60.0822 55.5945 58.8706 55.262 57.6115C55.5233 57.6115 55.7608 57.6115 56.0221 57.6115C56.2003 58.3244 56.3785 59.0486 56.5566 59.7733C56.5804 59.7733 56.5923 59.7733 56.6161 59.7852C56.8299 59.0605 57.0435 58.3363 57.2577 57.5996C57.4475 57.5996 57.6136 57.5996 57.804 57.5996C58.0176 58.3244 58.2312 59.0367 58.4335 59.7614C58.4454 59.7614 58.4692 59.7614 58.493 59.7614Z" fill="#B9BCC1"/>
<path d="M115.009 52.9194C115.009 52.2424 115.009 51.5535 115.009 50.8526C115.259 50.8526 115.472 50.8526 115.71 50.8526C115.71 52.0642 115.71 53.2758 115.71 54.523C115.532 54.523 115.353 54.5467 115.199 54.5111C115.104 54.4873 114.997 54.3923 114.938 54.2973C114.581 53.7628 114.249 53.2283 113.892 52.6938C113.833 52.5987 113.761 52.5037 113.631 52.4324C113.631 53.1095 113.631 53.7865 113.631 54.4992C113.382 54.4992 113.156 54.4992 112.918 54.4992C112.918 53.2876 112.918 52.0761 112.918 50.8645C112.978 50.8526 113.013 50.8408 113.049 50.8408C113.394 50.7814 113.631 50.8883 113.821 51.2208C114.094 51.7197 114.439 52.1949 114.747 52.6819C114.807 52.7769 114.866 52.86 114.938 52.9432C114.95 52.9313 114.985 52.9194 115.009 52.9194Z" fill="#B7BAC0"/>
<path d="M23.6934 54.5C23.4321 54.5 23.2183 54.5 22.9807 54.5C22.9807 53.2884 22.9807 52.0768 22.9807 50.8653C23.0282 50.8534 23.0638 50.8415 23.0995 50.8297C23.444 50.7821 23.6815 50.8653 23.8716 51.2097C24.1329 51.7086 24.4773 52.16 24.7862 52.6351C24.8456 52.7301 24.9168 52.8252 25.0475 52.9083C25.0475 52.2313 25.0475 51.5542 25.0475 50.8534C25.2969 50.8534 25.5108 50.8534 25.7602 50.8534C25.7602 52.0531 25.7602 53.2647 25.7602 54.4881C25.5583 54.4881 25.3563 54.4881 25.1306 54.4881C24.6911 53.7992 24.2398 53.1103 23.7765 52.4094C23.7528 52.4094 23.729 52.4213 23.7053 52.4213C23.6934 53.1103 23.6934 53.7992 23.6934 54.5Z" fill="#B9BCC1"/>
<path d="M76.3713 50.8535C76.585 50.8535 76.7754 50.8535 77.0009 50.8535C77.4406 51.5424 77.9036 52.2432 78.3552 52.9441C78.379 52.9322 78.4023 52.9322 78.438 52.9203C78.438 52.2432 78.438 51.5662 78.438 50.8654C78.6879 50.8654 78.9015 50.8654 79.1389 50.8654C79.1389 52.0769 79.1389 53.2885 79.1389 54.512C78.9372 54.512 78.7468 54.512 78.5094 54.512C78.0702 53.8349 77.6067 53.1222 77.1556 52.4214C77.1318 52.4214 77.1199 52.4333 77.0961 52.4333C77.0961 53.1103 77.0961 53.7874 77.0961 54.5001C76.8349 54.5001 76.6207 54.5001 76.3713 54.5001C76.3713 53.2885 76.3713 52.0769 76.3713 50.8535Z" fill="#BABDC2"/>
<path d="M39.5594 50.8526C39.8207 50.8526 40.0345 50.8526 40.2602 50.8526C40.2602 52.0642 40.2602 53.2639 40.2602 54.4873C40.0702 54.4873 39.8682 54.4873 39.6188 54.4873C39.1793 53.8103 38.7279 53.1095 38.2647 52.3968C38.241 52.4087 38.2171 52.4087 38.2053 52.4205C38.2053 53.0976 38.2053 53.7746 38.2053 54.4873C37.9559 54.4873 37.7302 54.4873 37.4807 54.4873C37.4807 53.2757 37.4807 52.076 37.4807 50.8645C37.5283 50.8526 37.5639 50.8408 37.5995 50.8289C37.944 50.7813 38.1815 50.8764 38.3716 51.209C38.7042 51.791 39.0962 52.3493 39.4881 52.9432C39.6188 52.6937 39.5475 52.4681 39.5594 52.2543C39.5713 52.0167 39.5594 51.791 39.5594 51.5534C39.5594 51.3396 39.5594 51.1021 39.5594 50.8526Z" fill="#BABDC2"/>
<path d="M65.4529 59.7376C65.7141 60.2601 65.9635 60.7474 66.2366 61.2699C65.9516 61.2699 65.7022 61.2699 65.4053 61.2699C65.1798 60.8182 64.9304 60.3315 64.6805 59.8328C64.5264 59.8328 64.3717 59.8328 64.1819 59.8328C64.1819 60.3077 64.1819 60.7712 64.1819 61.2699C63.9206 61.2699 63.707 61.2699 63.469 61.2699C63.469 60.0583 63.469 58.8349 63.469 57.6115C64.0515 57.6115 64.6335 57.5758 65.2036 57.6234C65.6784 57.671 65.9635 57.9917 66.0706 58.4547C66.1777 58.9182 66.023 59.3336 65.6308 59.6067C65.5838 59.6424 65.5362 59.6781 65.4529 59.7376ZM64.2057 59.2271C64.4431 59.2271 64.6454 59.239 64.859 59.2271C65.1917 59.2152 65.3815 59.0248 65.3815 58.7397C65.3815 58.4428 65.2155 58.253 64.8828 58.2292C64.6692 58.2054 64.455 58.2292 64.2057 58.2292C64.2057 58.5618 64.2057 58.8706 64.2057 59.2271Z" fill="#B9BCC1"/>
<path d="M68.1995 50.8408C68.7457 50.8408 69.2569 50.817 69.7793 50.8527C70.5749 50.912 71.0623 51.696 70.7415 52.3849C70.6344 52.6106 70.4327 52.7769 70.2191 53.0263C70.4446 53.4658 70.6939 53.9647 70.9671 54.5111C70.6701 54.5111 70.4089 54.5111 70.1358 54.5111C69.8983 54.036 69.6603 53.5609 69.4229 53.0739C69.2688 53.0739 69.1141 53.0739 68.9242 53.0739C68.9242 53.549 68.9242 54.0122 68.9242 54.5111C68.663 54.5111 68.4488 54.5111 68.2114 54.5111C68.1995 53.2877 68.1995 52.088 68.1995 50.8408ZM68.9242 52.4443C69.1974 52.4443 69.4348 52.4681 69.6603 52.4443C69.934 52.4206 70.0882 52.2305 70.0882 51.9811C70.0882 51.7435 69.9573 51.5416 69.7079 51.5178C69.4467 51.4941 69.1855 51.506 68.9123 51.506C68.9242 51.8385 68.9242 52.1236 68.9242 52.4443Z" fill="#B9BCC1"/>
<path d="M66.8557 61.2943C66.8557 60.0352 66.8557 58.8355 66.8557 57.6121C66.9628 57.6002 67.0693 57.5883 67.1764 57.5883C67.5329 57.5883 67.8893 57.5764 68.2457 57.5883C69.0175 57.6121 69.4692 58.0156 69.5162 58.776C69.5519 59.2628 69.54 59.762 69.4924 60.2369C69.4454 60.8308 69.0175 61.211 68.4356 61.2824C68.2928 61.2943 68.1386 61.2943 67.9958 61.2943C67.6281 61.2943 67.2597 61.2943 66.8557 61.2943ZM67.5805 60.6409C67.806 60.6409 68.0077 60.6528 68.1981 60.6409C68.5308 60.6171 68.7087 60.4505 68.7563 60.1179C68.792 59.8448 68.8039 59.5597 68.8039 59.2747C68.792 58.3482 68.5778 58.1584 67.6513 58.2179C67.6281 58.2179 67.6162 58.2417 67.5686 58.2655C67.5805 59.0373 67.5805 59.821 67.5805 60.6409Z" fill="#B9BCC1"/>
<path d="M82.6066 51.9929C82.3573 51.9929 82.1555 51.9929 81.9538 51.9929C81.9181 51.9335 81.8824 51.8742 81.8467 51.8148C81.6801 51.5297 81.4546 51.4228 81.1338 51.4822C80.8607 51.5297 80.6828 51.6841 80.659 52.0048C80.6233 52.4562 80.6233 52.9076 80.659 53.3589C80.6828 53.7272 80.944 53.9172 81.2647 53.9172C81.5855 53.9172 81.8467 53.7034 81.9062 53.3708C81.9181 53.2996 81.9062 53.2283 81.9062 53.1095C81.7991 53.0977 81.692 53.0858 81.5974 53.0858C81.5022 53.0858 81.407 53.0858 81.2766 53.0858C81.2766 52.8838 81.2766 52.6938 81.2766 52.4918C81.7277 52.4918 82.1674 52.4918 82.6304 52.4918C82.6661 52.9194 82.678 53.3352 82.5477 53.7391C82.3692 54.2735 81.7753 54.6299 81.1695 54.5705C80.5043 54.5111 80.0056 54.131 79.9461 53.5134C79.8985 52.967 79.8985 52.4087 79.9461 51.8742C79.9937 51.3159 80.4686 50.9121 81.0273 50.8408C81.7753 50.7458 82.3573 51.0902 82.5715 51.7316C82.5947 51.791 82.5947 51.8742 82.6066 51.9929Z" fill="#B7BAC0"/>
<path d="M36.7215 52.6587C36.7215 52.8963 36.7334 53.122 36.7215 53.3595C36.6621 54.0603 36.1513 54.5474 35.4387 54.5711C34.5953 54.5949 34.0846 54.0247 34.0608 53.4665C34.037 52.9438 34.0133 52.4093 34.0727 51.8986C34.144 51.2096 34.7141 50.8057 35.4149 50.8176C36.1395 50.8414 36.6502 51.3046 36.7215 52.0054C36.7334 52.2074 36.7215 52.433 36.7215 52.6587ZM35.9851 52.6825C35.9851 52.4687 35.9969 52.2668 35.9851 52.0648C35.9494 51.6966 35.7356 51.4828 35.403 51.4591C35.0586 51.4353 34.7854 51.6491 34.7616 52.0292C34.726 52.4687 34.726 52.9082 34.7616 53.3477C34.7854 53.7159 35.0705 53.9416 35.403 53.9178C35.7237 53.8941 35.9494 53.6684 35.9732 53.312C35.9969 53.0982 35.9851 52.8844 35.9851 52.6825Z" fill="#B9BCC1"/>
<path d="M96.5524 52.6706C96.5405 52.9201 96.5405 53.1695 96.5167 53.419C96.4453 54.0841 95.911 54.5474 95.21 54.5711C94.5209 54.5949 93.9271 54.1435 93.8676 53.4783C93.8205 52.9557 93.8205 52.4212 93.8676 51.9104C93.9271 51.2452 94.4971 50.8058 95.21 50.8176C95.8991 50.8295 96.4334 51.269 96.5167 51.9223C96.5524 52.1599 96.5405 52.4212 96.5524 52.6706ZM95.8395 52.7182C95.8276 52.5518 95.8277 52.4093 95.8158 52.2549C95.8158 52.1717 95.8038 52.0886 95.7919 51.9936C95.7443 51.661 95.5307 51.4591 95.21 51.4472C94.8893 51.4353 94.628 51.6253 94.6042 51.9579C94.5685 52.4331 94.5685 52.9082 94.6042 53.3833C94.628 53.7159 94.9012 53.9059 95.21 53.9059C95.5307 53.894 95.7681 53.6684 95.8038 53.3239C95.8157 53.122 95.8276 52.9082 95.8395 52.7182Z" fill="#B9BCC1"/>
<path d="M51.2363 52.6944C51.2126 52.9676 51.2007 53.2289 51.165 53.502C51.0581 54.1435 50.488 54.583 49.8228 54.5711C49.1339 54.5473 48.5756 54.1079 48.5281 53.4665C48.4805 52.9557 48.4805 52.433 48.5281 51.9223C48.5875 51.269 49.122 50.8295 49.8228 50.8176C50.5117 50.8057 51.07 51.2214 51.165 51.8629C51.2126 52.1361 51.2126 52.4212 51.2363 52.6944ZM49.2408 52.6706C49.2408 52.8963 49.2289 53.1101 49.2408 53.3358C49.2645 53.6921 49.5021 53.9059 49.8347 53.9178C50.1435 53.9297 50.4167 53.7396 50.4405 53.3952C50.4761 52.92 50.4761 52.4449 50.4405 51.9698C50.4167 51.6372 50.1435 51.4471 49.8347 51.459C49.5021 51.4709 49.2764 51.6847 49.2526 52.0411C49.2289 52.2549 49.2408 52.4568 49.2408 52.6706Z" fill="#B7BAC0"/>
<path d="M63.9693 52.6944C63.9693 52.932 63.9812 53.1576 63.9693 53.3952C63.9098 54.0841 63.3636 54.5593 62.6507 54.5711C61.9497 54.583 61.3678 54.1198 61.3083 53.4308C61.2726 52.932 61.2726 52.4331 61.3083 51.9342C61.3678 51.2452 61.9378 50.8058 62.6626 50.8176C63.3636 50.8295 63.8979 51.2928 63.9574 51.9698C63.9931 52.1955 63.9693 52.445 63.9693 52.6944ZM61.9735 52.6706C61.9973 52.9201 62.0092 53.1933 62.0568 53.4546C62.1163 53.7396 62.3657 53.9178 62.6507 53.9059C62.9357 53.9059 63.2089 53.7159 63.2208 53.4308C63.2565 52.932 63.2565 52.4331 63.2208 51.9342C63.2089 51.6491 62.9476 51.4591 62.6626 51.4472C62.3657 51.4353 62.1044 51.6135 62.0568 51.9223C62.0092 52.1599 61.9973 52.4093 61.9735 52.6706Z" fill="#B9BCC1"/>
<path d="M112.184 52.682C112.172 52.9315 112.172 53.1928 112.137 53.4541C112.053 54.1074 111.483 54.5707 110.806 54.5707C110.106 54.5588 109.547 54.0955 109.488 53.4423C109.452 52.9434 109.452 52.4445 109.488 51.9456C109.536 51.2686 110.094 50.8291 110.806 50.8291C111.519 50.8291 112.065 51.2686 112.137 51.9338C112.172 52.1713 112.172 52.4208 112.184 52.682ZM111.471 52.7058C111.447 52.4564 111.447 52.2188 111.412 51.9694C111.365 51.6368 111.115 51.4468 110.806 51.4586C110.498 51.4705 110.248 51.6606 110.236 51.9694C110.212 52.4445 110.212 52.9197 110.236 53.3947C110.26 53.7036 110.509 53.9055 110.806 53.9174C111.115 53.9293 111.365 53.7273 111.424 53.4066C111.447 53.1691 111.447 52.9315 111.471 52.7058Z" fill="#B9BCC1"/>
<path d="M82.0509 12.9501C80.7799 12.9501 79.5445 12.9501 78.2854 12.9501C78.2854 12.0473 78.2854 11.1565 78.2854 10.2656C78.8793 10.3488 81.4451 12.1661 82.0509 12.9501Z" fill="#B2B2CF"/>
<path d="M51.8899 50.8535C52.1512 50.8535 52.365 50.8535 52.6145 50.8535C52.6145 51.0317 52.6145 51.1861 52.6145 51.3405C52.6145 51.9938 52.6026 52.6352 52.6145 53.2885C52.6264 53.7755 53.0896 54.0487 53.5291 53.8349C53.7904 53.7042 53.8736 53.4667 53.8736 53.1934C53.8736 52.5402 53.8736 51.8988 53.8736 51.2455C53.8736 51.1267 53.8736 51.0079 53.8736 50.8535C54.1111 50.8535 54.325 50.8535 54.5744 50.8535C54.5863 50.9247 54.61 51.0079 54.61 51.0911C54.61 51.7919 54.61 52.4927 54.61 53.1934C54.61 54.5001 53.2796 54.8208 52.5076 54.3813C52.1394 54.1675 51.9137 53.8587 51.9018 53.4311C51.878 52.5758 51.8899 51.7325 51.8899 50.8535Z" fill="#B7BAC0"/>
<path d="M54.3507 60.6649C53.9112 60.6649 53.5192 60.6649 53.0797 60.6649C53.0084 60.8667 52.9253 61.069 52.8422 61.2826C52.6164 61.2826 52.3789 61.2826 52.1057 61.2826C52.5214 60.0473 52.9847 58.8357 53.4123 57.6123C53.6023 57.6123 53.7805 57.6123 54.0062 57.6123C54.4457 58.8238 54.8852 60.0354 55.3366 61.2826C55.0752 61.2826 54.8495 61.2826 54.5882 61.2826C54.5169 61.0928 54.4338 60.8905 54.3507 60.6649ZM53.7687 58.8238C53.7449 58.8238 53.7092 58.8238 53.6855 58.8119C53.5548 59.2041 53.4123 59.6075 53.2698 60.0235C53.5904 60.0235 53.8518 60.0235 54.1606 60.0235C54.0299 59.6075 53.8993 59.216 53.7687 58.8238Z" fill="#B9BCC1"/>
<path d="M63.0318 61.282C62.7587 61.282 62.5213 61.282 62.2838 61.282C62.2005 61.0678 62.1291 60.8661 62.0464 60.6405C61.7138 60.6405 61.4049 60.6405 61.0842 60.6405C60.989 60.6405 60.8938 60.6524 60.7754 60.6524C60.704 60.8542 60.6326 61.044 60.5493 61.2582C60.3237 61.2582 60.0863 61.2582 59.8013 61.2582C60.2404 60.0348 60.6802 58.8232 61.1199 57.5879C61.3097 57.5879 61.4877 57.5879 61.7138 57.5879C62.1291 58.7994 62.5689 60.0229 63.0318 61.282ZM61.4168 58.7042C61.2502 59.2029 61.108 59.6069 60.9652 60.0229C61.2859 60.0229 61.5472 60.0229 61.8441 60.0229C61.7138 59.595 61.5829 59.191 61.4168 58.7042Z" fill="#B9BCC1"/>
<path d="M90.1398 51.2689C89.9975 51.3996 89.8547 51.5303 89.7244 51.6609C89.5697 51.6015 89.4275 51.5184 89.2847 51.4827C89.1424 51.4471 88.9877 51.4352 88.8455 51.4471C88.5599 51.4827 88.3939 51.6609 88.3939 51.8866C88.3939 52.1004 88.5367 52.2429 88.8336 52.3023C89.0353 52.338 89.249 52.3498 89.4513 52.3974C89.8547 52.4805 90.1398 52.7062 90.2231 53.1338C90.3183 53.5614 90.235 53.9415 89.8904 54.2385C89.3085 54.7374 88.1088 54.6542 87.5745 54.0721C87.7167 53.9296 87.8595 53.7871 87.966 53.6683C88.2278 53.7515 88.4653 53.8583 88.7146 53.9059C88.8925 53.9296 89.0829 53.9059 89.249 53.8465C89.4513 53.7871 89.534 53.6327 89.5221 53.4189C89.5102 53.2169 89.4037 53.0982 89.2133 53.0507C89.071 53.015 88.9282 53.0031 88.7741 52.9794C88.667 52.9556 88.5599 52.9437 88.4534 52.92C87.9779 52.8012 87.7286 52.528 87.681 52.1004C87.6221 51.5896 87.8238 51.1739 88.2511 50.9601C88.8455 50.6631 89.7125 50.7938 90.1398 51.2689Z" fill="#B7BAC0"/>
<path d="M93.1558 51.2572C93.0135 51.3998 92.8826 51.5186 92.7398 51.6492C92.5738 51.5898 92.4078 51.4948 92.2412 51.471C92.0632 51.4473 91.8728 51.4592 91.7068 51.4948C91.5045 51.5423 91.398 51.7205 91.4099 51.9105C91.4218 52.1124 91.5402 52.2313 91.7306 52.2669C91.9442 52.3144 92.1698 52.3381 92.384 52.3738C93.1082 52.5045 93.4765 53.1102 93.2153 53.7873C93.1439 53.9654 93.0016 54.1555 92.8469 54.2743C92.2888 54.7138 90.9701 54.6068 90.6018 54.0486C90.6613 53.9773 90.7327 53.8942 90.8041 53.8229C90.8749 53.7516 90.9463 53.6922 90.9939 53.6448C91.279 53.7279 91.5283 53.8348 91.7782 53.8823C91.9442 53.906 92.1222 53.8823 92.2769 53.8348C92.4905 53.7754 92.5738 53.6329 92.5619 53.4191C92.55 53.2053 92.4667 53.0865 92.2412 53.0389C92.0037 52.9914 91.7544 52.9677 91.5164 52.9083C90.8398 52.742 90.5191 52.1362 90.8041 51.4948C90.8868 51.3166 91.0296 51.1384 91.1838 51.0197C91.6116 50.6752 92.7993 50.7346 93.1558 51.2572Z" fill="#B6B9C0"/>
<path d="M85.506 50.8535C85.6964 50.8535 85.8624 50.8535 86.088 50.8535C86.5277 52.0532 86.9669 53.2647 87.4185 54.512C87.1454 54.512 86.9198 54.512 86.6699 54.512C86.5991 54.31 86.5158 54.1081 86.4325 53.8943C86.0052 53.8943 85.5893 53.8943 85.1496 53.8943C85.0787 54.0962 85.0073 54.2982 84.924 54.512C84.6866 54.512 84.4611 54.512 84.176 54.512C84.6152 53.2766 85.0549 52.065 85.506 50.8535ZM85.8505 52.0532C85.8267 52.0532 85.8029 52.0413 85.7791 52.0413C85.6607 52.4452 85.4703 52.8134 85.3876 53.2529C85.6845 53.2529 85.9457 53.2529 86.2427 53.2529C86.0999 52.8371 85.9814 52.4452 85.8505 52.0532Z" fill="#B9BCC1"/>
<path d="M58.0435 54.0601C58.1863 53.9057 58.3285 53.7632 58.4237 53.6563C58.7087 53.7395 58.9581 53.8463 59.2193 53.8939C59.3978 53.9176 59.5876 53.882 59.7542 53.8345C59.9322 53.775 60.0155 53.6206 60.0036 53.4306C59.9917 53.2287 59.8965 53.098 59.7066 53.0624C59.4573 53.003 59.1961 52.9911 58.9462 52.9317C58.2458 52.7654 57.9369 52.0884 58.2577 51.447C58.3285 51.3044 58.4594 51.1619 58.5903 51.055C59.0771 50.663 60.2767 50.758 60.6093 51.2688C60.4665 51.3876 60.3243 51.5063 60.1696 51.637C60.0274 51.5895 59.8608 51.5063 59.6947 51.4707C59.54 51.447 59.374 51.447 59.2312 51.4707C58.9938 51.5182 58.8872 51.6727 58.8753 51.8746C58.8753 52.0765 58.9819 52.219 59.2312 52.2784C59.4335 52.3259 59.6471 52.3378 59.8489 52.3735C60.5736 52.5041 60.942 53.1455 60.6569 53.8345C60.5855 54.0008 60.4665 54.1552 60.3243 54.2621C59.7542 54.7372 58.4118 54.6184 58.0435 54.0601Z" fill="#B7BAC0"/>
<path d="M64.6955 50.8535C64.9329 50.8535 65.1347 50.8535 65.3721 50.8535C65.384 50.9723 65.3959 51.0792 65.3959 51.1861C65.3959 51.8038 65.3959 52.4095 65.3959 53.0272C65.3959 53.1222 65.3959 53.2291 65.4078 53.3241C65.4554 53.7042 65.6809 53.918 66.0255 53.9299C66.37 53.9418 66.6074 53.728 66.6669 53.3479C66.6788 53.241 66.6788 53.1341 66.6788 53.0153C66.6788 52.4214 66.6788 51.8393 66.6788 51.2455C66.6788 51.1267 66.6788 51.0079 66.6788 50.8654C66.9163 50.8654 67.1186 50.8654 67.3441 50.8654C67.356 50.9366 67.3798 51.0198 67.3798 51.1029C67.3798 51.8275 67.3917 52.552 67.3798 53.2766C67.3679 53.8943 67.0591 54.3219 66.5128 54.5001C65.9308 54.6901 65.2775 54.5238 64.9448 54.0725C64.8258 53.9061 64.7074 53.6805 64.7074 53.4785C64.6717 52.5996 64.6955 51.7444 64.6955 50.8535Z" fill="#BDBFC2"/>
<path d="M27.5534 50.8408C27.7553 50.8408 27.9217 50.8408 28.1355 50.8408C28.575 52.0524 29.0144 53.2639 29.4658 54.4993C29.3233 54.5112 29.2282 54.5112 29.1333 54.5112C29.0026 54.5112 28.8719 54.5112 28.7294 54.5112C28.6462 54.2855 28.5631 54.0836 28.4799 53.8816C28.0523 53.8816 27.6366 53.8816 27.1971 53.8816C27.1139 54.0836 27.0427 54.2974 26.9595 54.4993C26.722 54.4993 26.4963 54.4993 26.2112 54.4993C26.6744 53.2758 27.1021 52.0762 27.5534 50.8408ZM27.886 52.0405C27.8623 52.0405 27.8385 52.0405 27.8266 52.0405C27.696 52.4325 27.5534 52.8363 27.4109 53.2402C27.7316 53.2402 27.993 53.2402 28.2899 53.2402C28.1474 52.8126 28.0167 52.4206 27.886 52.0405Z" fill="#B9BCC1"/>
<path d="M43.9814 54.4993C43.7082 54.4993 43.4825 54.4993 43.2331 54.4993C43.1618 54.2974 43.0786 54.0954 42.9955 53.8816C42.9242 53.8698 42.8648 53.8579 42.8055 53.8579C42.4491 53.8579 42.0928 53.8579 41.7245 53.8579C41.6414 54.0717 41.5583 54.2736 41.4751 54.4874C41.2494 54.4874 41.0237 54.4874 40.7268 54.4874C41.1663 53.2639 41.6058 52.0643 42.0453 50.8408C42.2234 50.8408 42.4135 50.8408 42.6273 50.8408C43.0905 52.0524 43.5301 53.2639 43.9814 54.4993ZM42.8174 53.2521C42.6748 52.8126 42.5442 52.4325 42.4135 52.0405C42.3897 52.0405 42.366 52.0405 42.3422 52.0405C42.2116 52.4325 42.069 52.8245 41.9265 53.2402C42.2353 53.2521 42.4966 53.2521 42.8174 53.2521Z" fill="#B9BCC1"/>
<path d="M69.9807 60.8428C70.1348 60.6886 70.2657 60.5577 70.3961 60.4274C70.6341 60.5101 70.8596 60.6172 71.097 60.6648C71.2755 60.7005 71.4654 60.6767 71.6433 60.6291C71.8813 60.5696 71.964 60.4155 71.9521 60.1894C71.9402 59.9877 71.8337 59.8692 71.6076 59.8216C71.394 59.774 71.1684 59.7621 70.9548 59.7145C70.2538 59.5604 69.9212 58.9546 70.1943 58.2894C70.2657 58.1109 70.3961 57.9567 70.5389 57.8258C70.978 57.4337 72.2134 57.5051 72.546 58.0162C72.4871 58.0871 72.4276 58.1585 72.3681 58.2299C72.2967 58.3013 72.2253 58.3602 72.1544 58.4316C71.9878 58.3721 71.8337 58.2775 71.6671 58.2537C71.4773 58.2299 71.2755 58.2418 71.097 58.2775C70.9191 58.3251 70.8358 58.4792 70.8239 58.669C70.8239 58.8713 70.9429 58.9898 71.1208 59.0374C71.3464 59.0969 71.5844 59.1207 71.8099 59.1564C72.5222 59.2986 72.8905 59.9639 72.5936 60.6291C72.5222 60.7957 72.3919 60.9499 72.261 61.057C71.6433 61.5199 70.527 61.4134 69.9807 60.8428Z" fill="#B7BAC0"/>
<path d="M102.991 50.8408C103.193 50.8408 103.359 50.8408 103.561 50.8408C104 52.0524 104.44 53.2639 104.903 54.4993C104.63 54.4993 104.404 54.4993 104.154 54.4993C104.084 54.2974 104.012 54.1073 103.929 53.8935C103.502 53.8935 103.086 53.8935 102.634 53.8935C102.563 54.0954 102.48 54.2974 102.397 54.4993C102.159 54.4993 101.922 54.4993 101.649 54.4993C102.112 53.2639 102.551 52.0524 102.991 50.8408ZM102.848 53.2639C103.062 53.2639 103.24 53.2639 103.406 53.2639C103.502 53.2639 103.596 53.2521 103.703 53.2521C103.632 52.8245 103.418 52.2425 103.264 52.0524C103.157 52.3731 103.038 52.6819 102.931 52.9908C102.907 53.062 102.884 53.1333 102.848 53.2639Z" fill="#B9BCC1"/>
<path d="M79.4375 59.4757C79.4375 59.7488 79.4494 60.0106 79.4375 60.2837C79.4137 60.9252 78.9627 61.3525 78.3212 61.3525C77.6797 61.3525 77.2281 60.9252 77.2162 60.2837C77.2043 59.7369 77.2043 59.1787 77.2162 58.6325C77.2281 58.0029 77.6678 57.5989 78.3093 57.5989C78.9627 57.587 79.4137 58.0029 79.4375 58.6444C79.4375 58.9056 79.4375 59.1906 79.4375 59.4757ZM77.8815 59.4638C77.8815 59.6899 77.8815 59.9035 77.8815 60.129C77.8815 60.5331 78.0243 60.7229 78.3093 60.7348C78.5943 60.7348 78.7604 60.545 78.7604 60.1528C78.7723 59.7018 78.7604 59.2501 78.7604 58.7985C78.7604 58.692 78.7371 58.5849 78.7014 58.4783C78.6419 58.3117 78.5229 58.2284 78.345 58.2165C78.1665 58.2046 78.0243 58.276 77.9529 58.4307C77.9053 58.5254 77.8934 58.6444 77.8815 58.7515C77.8696 58.9651 77.8815 59.2144 77.8815 59.4638Z" fill="#B9BCC1"/>
<path d="M74.126 51.9574C74.0308 51.9693 73.9599 51.9693 73.8885 51.9812C73.7457 51.9812 73.5916 51.9812 73.4488 51.9812C73.3779 51.8742 73.3303 51.7674 73.2708 51.6842C73.1161 51.4941 72.9144 51.4466 72.677 51.4823C72.4395 51.5179 72.2729 51.6604 72.2253 51.9099C72.1307 52.4325 72.1307 52.9551 72.2253 53.4778C72.2729 53.7153 72.4514 53.8579 72.677 53.9054C72.9144 53.9529 73.1161 53.8816 73.2708 53.7035C73.3422 53.6203 73.3898 53.5134 73.4488 53.4184C73.663 53.4184 73.8885 53.4184 74.1378 53.4184C74.0783 53.8816 73.8766 54.2142 73.4726 54.4162C72.6056 54.8556 71.4773 54.3686 71.4535 53.3471C71.4416 52.8958 71.4298 52.4444 71.4655 51.993C71.525 51.2922 72.0355 50.8527 72.7484 50.829C73.4845 50.7815 73.9956 51.1853 74.126 51.9574Z" fill="#B9BCC1"/>
<path d="M99.1402 53.4068C99.3776 53.4068 99.5918 53.4068 99.8412 53.4068C99.7817 53.8106 99.6156 54.1314 99.283 54.3333C98.463 54.8559 97.1807 54.4402 97.1569 53.3118C97.145 53.0267 97.1331 52.7535 97.1331 52.4684C97.1331 52.2665 97.145 52.0527 97.1807 51.8508C97.2753 51.2212 97.8454 50.7936 98.5344 50.8173C99.2473 50.8292 99.7341 51.2688 99.8055 51.9577C99.5918 51.9577 99.3776 51.9577 99.1402 51.9577C99.1045 51.8983 99.0688 51.827 99.0218 51.7557C98.8552 51.5063 98.6415 51.4231 98.3565 51.4826C98.0953 51.5419 97.9168 51.6964 97.9049 51.9933C97.8811 52.4446 97.8811 52.896 97.9049 53.3474C97.9168 53.68 98.1072 53.8463 98.3922 53.9057C98.6534 53.9532 98.879 53.8463 99.0337 53.5968C99.0807 53.5375 99.1045 53.4781 99.1402 53.4068Z" fill="#B9BCC1"/>
<path d="M83.3674 18.4734C83.3674 17.2737 83.3674 16.0622 83.3674 14.8506C83.7947 15.0525 85.3032 17.3806 85.6953 18.4497C85.446 18.5328 83.7828 18.5447 83.3674 18.4734Z" fill="#B2B2CF"/>
<path d="M83.8664 57.5996C84.1163 57.5996 84.3419 57.5996 84.615 57.5996C84.3657 58.0983 84.1401 58.5737 83.9021 59.0605C83.9973 59.0724 84.0568 59.0724 84.1163 59.0843C84.6507 59.12 84.9952 59.4407 85.0904 59.9632C85.1851 60.5094 84.9476 61.0206 84.4841 61.2223C84.1044 61.3889 83.7123 61.3889 83.344 61.1985C82.9518 60.9968 82.7858 60.6522 82.7977 60.2363C82.7977 60.0465 82.8215 59.8328 82.8929 59.6662C83.2136 58.9653 83.5463 58.2887 83.8664 57.5996ZM83.9497 59.6662C83.6647 59.6662 83.4868 59.8799 83.4868 60.2125C83.4868 60.5213 83.6647 60.7236 83.9378 60.7236C84.2229 60.7355 84.4252 60.5213 84.4252 60.2006C84.4252 59.8799 84.2229 59.6662 83.9497 59.6662Z" fill="#B7BAC0"/>
<path d="M76.6324 61.2825C75.8957 61.2825 75.1834 61.2825 74.4587 61.2825C74.3992 60.9618 74.3992 60.6768 74.6485 60.4031C75.0525 59.9877 75.409 59.5361 75.7773 59.0969C75.8719 58.9779 75.9433 58.8238 75.979 58.681C76.0266 58.4435 75.8838 58.2531 75.6702 58.2061C75.4447 58.1466 75.2543 58.2293 75.1477 58.4435C75.112 58.503 75.0882 58.5739 75.0644 58.6453C74.8627 58.6453 74.6723 58.6453 74.4825 58.6453C74.423 58.2293 74.6128 57.8735 75.0049 57.695C75.3614 57.5408 75.7178 57.5289 76.0742 57.6831C76.68 57.9324 76.8817 58.7167 76.4658 59.2629C76.1927 59.6313 75.8719 59.9758 75.5631 60.3322C75.4804 60.4269 75.3971 60.534 75.2781 60.6881C75.7654 60.6881 76.1927 60.6881 76.6324 60.6881C76.6324 60.9023 76.6324 61.0802 76.6324 61.2825Z" fill="#B9BCC1"/>
<path d="M30.3099 54.4993C30.3099 53.5015 30.3099 52.5275 30.3099 51.506C29.9892 51.506 29.6804 51.506 29.3596 51.506C29.3596 51.2566 29.3596 51.0546 29.3596 50.8408C30.2267 50.8408 31.0819 50.8408 31.961 50.8408C31.9728 50.9478 31.9847 51.0428 31.9847 51.1378C31.9847 51.2328 31.9728 51.3278 31.9728 51.4704C31.6759 51.4704 31.3908 51.4704 31.0464 51.4704C31.0107 52.0049 31.0345 52.5038 31.0345 52.9908C31.0345 53.4896 31.0345 53.9885 31.0345 54.4993C30.7731 54.4993 30.5593 54.4993 30.3099 54.4993Z" fill="#B6B9C0"/>
<path d="M56.8315 54.512C56.5583 54.512 56.3563 54.512 56.1069 54.512C56.1069 53.5142 56.1069 52.5283 56.1069 51.4949C55.7743 51.4949 55.4655 51.4949 55.1448 51.4949C55.1448 51.2573 55.1448 51.0673 55.1448 50.8535C56.0119 50.8535 56.8787 50.8535 57.7582 50.8535C57.7582 51.0554 57.7582 51.2455 57.7582 51.4711C57.4494 51.4711 57.1643 51.4711 56.8315 51.4711C56.8315 52.5046 56.8315 53.4904 56.8315 54.512Z" fill="#B7BAC0"/>
<path d="M107.411 50.8291C107.411 51.0666 107.411 51.2567 107.411 51.4824C107.102 51.4824 106.805 51.4824 106.472 51.4824C106.472 52.5039 106.472 53.4779 106.472 54.4876C106.223 54.4876 105.997 54.4876 105.736 54.4876C105.736 53.5017 105.736 52.5158 105.736 51.4943C105.403 51.4943 105.118 51.4943 104.797 51.4943C104.797 51.2686 104.797 51.0785 104.797 50.8291C105.652 50.8291 106.52 50.8291 107.411 50.8291Z" fill="#B7BAC0"/>
<path d="M45.1697 53.8824C45.7517 53.8824 46.2743 53.8824 46.8207 53.8824C46.8207 54.0962 46.8207 54.2863 46.8207 54.4644C46.5713 54.5357 44.9559 54.5476 44.4807 54.4882C44.4807 53.2885 44.4807 52.0769 44.4807 50.8535C44.7064 50.8535 44.9202 50.8535 45.1815 50.8535C45.1697 51.8512 45.1697 52.8371 45.1697 53.8824Z" fill="#B7BAC0"/>
<path d="M80.9805 58.3837C80.7668 58.5622 80.5645 58.7402 80.3033 58.9657C80.3271 58.6331 80.1968 58.3599 80.4104 58.1344C80.9329 57.5762 81.0638 57.5286 81.6933 57.6238C81.6933 58.8235 81.6933 60.035 81.6933 61.2703C81.491 61.2703 81.2893 61.2703 81.0638 61.2703C81.0638 60.32 81.0638 59.3697 81.0638 58.4194C81.0281 58.4075 81.0043 58.3956 80.9805 58.3837Z" fill="#B9BCC1"/>
<path d="M101.173 54.5118C100.947 54.5118 100.745 54.5118 100.508 54.5118C100.508 53.3003 100.508 52.0887 100.508 50.8652C100.722 50.8652 100.935 50.8652 101.15 50.8652C101.232 51.1147 101.244 53.9536 101.173 54.5118Z" fill="#B6B9C0"/>
<path d="M108.028 50.8408C108.266 50.8408 108.467 50.8408 108.729 50.8408C108.729 52.0643 108.729 53.2639 108.729 54.4993C108.479 54.4993 108.266 54.4993 108.028 54.4993C108.028 53.2877 108.028 52.0881 108.028 50.8408Z" fill="#B6B9C0"/>
<path d="M33.267 50.8535C33.267 52.065 33.267 53.2647 33.267 54.4882C33.0532 54.4882 32.8394 54.4882 32.6018 54.4882C32.6018 53.2766 32.6018 52.0769 32.6018 50.8535C32.8156 50.8535 33.0175 50.8535 33.267 50.8535Z" fill="#BEC0C3"/>
<path d="M74.8049 50.8535C75.0429 50.8535 75.2447 50.8535 75.4702 50.8535C75.4702 52.065 75.4702 53.2647 75.4702 54.4882C75.2566 54.4882 75.0429 54.4882 74.8049 54.4882C74.8049 53.2885 74.8049 52.0888 74.8049 50.8535Z" fill="#BEC0C3"/>
<path d="M72.5924 9.37415C72.5924 10.7995 72.5811 12.2368 72.5811 13.6622C72.5811 13.7216 72.5924 13.7809 72.6043 13.8403C72.5692 13.876 72.5335 13.8997 72.5097 13.9354C72.4859 13.9354 72.4502 13.9354 72.4264 13.9354C72.4264 12.6525 72.4264 11.3697 72.4264 10.0868C72.4264 9.96807 72.4026 9.8493 72.4026 9.71862C72.4264 9.59985 72.4502 9.48108 72.474 9.3623C72.5097 9.3742 72.5573 9.37415 72.5924 9.37415Z" fill="#232969"/>
<path d="M82.6652 19.1619C82.6414 19.1381 82.6295 19.1263 82.6057 19.1025C82.6176 19.1263 82.6414 19.15 82.6652 19.1619Z" fill="#6D6D9C"/>
<path d="M43.1488 67.5296C43.2795 67.5296 43.3983 67.5296 43.517 67.5296C44.004 67.5296 44.5029 67.5653 44.9899 67.5177C45.4294 67.482 45.6908 67.6367 45.9283 68.0169C47.5912 70.6298 49.2779 73.2195 50.9528 75.8086C51.0122 75.9038 51.0834 75.999 51.2141 76.0823C51.2141 73.2433 51.2141 70.4043 51.2141 67.5534C52.1406 67.5534 53.0314 67.5534 53.9223 67.5534C53.9936 67.8265 54.0055 81.3319 53.9342 81.7478C53.8154 81.7478 53.6847 81.7478 53.5422 81.7478C52.972 81.7478 52.4137 81.7359 51.8436 81.7478C51.5942 81.7597 51.4398 81.6645 51.3091 81.4628C49.8599 79.2058 48.399 76.9493 46.9498 74.6923C46.6173 74.1817 46.2846 73.6706 45.8808 73.1719C45.8808 76.0228 45.8808 78.8612 45.8808 81.7359C44.9424 81.7359 44.0516 81.7359 43.137 81.7359C43.1488 76.9969 43.1488 72.2811 43.1488 67.5296Z" fill="#111660"/>
<path d="M69.2581 81.7243C68.2483 81.7243 67.3099 81.7243 66.3596 81.7243C66.0746 80.9049 65.8015 80.0736 65.5283 79.2537C63.8419 79.2537 62.1788 79.2537 60.4918 79.2537C60.2068 80.0855 59.9217 80.9049 59.6367 81.7243C58.6745 81.7243 57.7361 81.7243 56.7385 81.7243C58.4609 76.9853 60.1711 72.2814 61.8937 67.5537C62.6185 67.5537 63.3427 67.5537 64.1032 67.5537C65.8015 72.2457 67.5241 76.9615 69.2581 81.7243ZM63.0815 71.8417C63.0577 71.8417 63.0339 71.8417 63.0101 71.8417C62.4281 73.5048 61.858 75.1799 61.2642 76.8782C62.4519 76.8782 63.592 76.8782 64.7565 76.8782C64.1978 75.1799 63.6396 73.5167 63.0815 71.8417Z" fill="#121761"/>
<path d="M92.1223 78.2202C92.0985 78.2083 92.1342 78.2202 92.1461 78.2321C93.1196 79.1229 94.3198 79.3723 95.5903 79.3604C96.0181 79.3604 96.4459 79.3247 96.8613 79.17C97.8592 78.8141 98.1561 78.0655 97.9663 77.1271C97.8592 76.5928 97.5147 76.2125 96.9803 76.0822C96.4578 75.9513 95.9229 75.8918 95.3885 75.7847C94.7352 75.6663 94.0818 75.583 93.4403 75.405C92.3478 75.0843 91.5046 74.4428 91.1124 73.3378C90.3996 71.3188 90.9107 68.5036 93.9634 67.6366C95.4837 67.2088 97.0041 67.304 98.4887 67.8264C99.2254 68.0877 99.9615 68.5988 100.318 69.0261C99.7479 69.6086 99.1897 70.1787 98.6316 70.7606C98.6078 70.7606 98.5959 70.7606 98.584 70.7487C97.6813 69.9526 96.612 69.7627 95.4599 69.8222C95.044 69.846 94.64 69.9526 94.2722 70.1787C93.6902 70.5583 93.4165 71.2236 93.5474 71.9008C93.6307 72.3167 93.8682 72.6136 94.2246 72.8273C94.6167 73.0647 95.044 73.1361 95.4837 73.2075C96.2436 73.3259 97.016 73.4449 97.764 73.5758C98.0139 73.6234 98.2632 73.7062 98.5007 73.8014C99.5813 74.2292 100.27 75.001 100.567 76.1292C100.781 76.9492 100.805 77.7805 100.603 78.6118C100.294 79.8352 99.5104 80.679 98.3935 81.2253C97.5979 81.6174 96.7547 81.7953 95.8753 81.831C94.6518 81.8786 93.4522 81.7953 92.3002 81.3318C91.6349 81.0706 91.041 80.679 90.5067 80.1917C90.4591 80.156 90.4234 80.1084 90.3758 80.0613C90.352 80.0375 90.3401 80.0018 90.3401 80.0018C90.9345 79.408 91.5284 78.826 92.1223 78.2202Z" fill="#121760"/>
<path d="M26.0413 81.7243C25.091 81.7243 24.2002 81.7243 23.2737 81.7243C23.2737 76.9972 23.2737 72.2814 23.2737 67.5537C26.3739 67.5537 29.4622 67.5537 32.5743 67.5537C32.5743 68.3618 32.5743 69.1574 32.5743 70.0006C30.4006 70.0006 28.2388 70.0006 26.0532 70.0006C26.0532 71.177 26.0532 72.3171 26.0532 73.4929C27.9062 73.4929 29.7473 73.4929 31.6121 73.4929C31.6121 74.3242 31.6121 75.1204 31.6121 75.9636C29.7592 75.9636 27.918 75.9636 26.0413 75.9636C26.0413 77.8999 26.0413 79.7886 26.0413 81.7243Z" fill="#111660"/>
<path d="M109.786 81.7242C108.836 81.7242 107.945 81.7242 107.007 81.7242C107.007 77.8164 107.007 73.9206 107.007 70.0004C105.748 70.0004 104.548 70.0004 103.313 70.0004C103.313 69.1691 103.313 68.3735 103.313 67.5654C106.686 67.5654 110.059 67.5654 113.445 67.5654C113.445 68.3616 113.445 69.1691 113.445 70.0004C112.233 70.0004 111.022 70.0004 109.786 70.0004C109.786 73.9206 109.786 77.8045 109.786 81.7242Z" fill="#111660"/>
<path d="M72.0354 67.5537C72.9619 67.5537 73.8527 67.5537 74.803 67.5537C74.803 71.462 74.803 75.3459 74.803 79.2537C76.9648 79.2537 79.0791 79.2537 81.2171 79.2537C81.2171 80.0974 81.2171 80.893 81.2171 81.7243C78.1645 81.7243 75.1118 81.7243 72.0473 81.7243C72.0354 76.9972 72.0354 72.2814 72.0354 67.5537Z" fill="#121761"/>
<path d="M38.7878 67.5537C38.7878 72.2814 38.7878 76.9853 38.7878 81.7124C37.8851 81.7124 36.9942 81.7124 36.1033 81.7124C36.0321 81.4512 35.9965 68.1595 36.0796 67.5537C36.9705 67.5537 37.8494 67.5537 38.7878 67.5537Z" fill="#101660"/>
<path d="M87.2523 81.724C86.3258 81.724 85.4463 81.724 84.5317 81.724C84.5317 76.9968 84.5317 72.2929 84.5317 67.5414C85.435 67.5295 86.3377 67.5414 87.2523 67.5414C87.2523 72.2691 87.2523 76.973 87.2523 81.724Z" fill="#101660"/>
<path d="M104.439 31.2185C101.565 31.2185 98.7499 31.2185 95.8752 31.2185C97.3242 27.0611 98.7618 22.9276 100.187 18.7939C100.211 18.7939 100.235 18.7939 100.258 18.7939C101.648 22.9276 103.038 27.0611 104.439 31.2185Z" fill="#111660"/>
<path d="M54.6799 19.091C55.0125 18.2952 55.452 17.5587 55.9271 16.846C56.5567 15.9076 57.2811 15.0405 58.0892 14.2447C58.2076 14.1259 58.3504 14.019 58.4807 13.9121C58.5997 13.924 58.7306 13.924 58.8491 13.924C59.966 13.924 61.0823 13.924 62.1986 13.924C62.1986 15.5869 62.1986 17.2617 62.2105 18.9247C62.2105 18.9603 62.2343 18.996 62.2462 19.0316C62.2819 19.0434 62.3176 19.0672 62.3414 19.0791C64.004 19.0791 65.6791 19.091 67.3423 19.091C67.3423 20.7302 67.3542 22.3812 67.3542 24.0204C67.3542 24.0561 67.3774 24.0917 67.4012 24.1155C67.4369 24.1273 67.4726 24.151 67.5083 24.151C69.1477 24.151 70.7984 24.1629 72.4377 24.1629C72.4377 25.719 72.4377 27.275 72.4377 28.8192C72.4377 28.9142 72.4258 29.0211 72.4496 29.1043C72.4853 29.1755 72.5567 29.2587 72.6395 29.2943C72.7347 29.3299 72.8537 29.3062 72.9721 29.3062C74.5163 29.3062 76.0604 29.3062 77.5927 29.3062C77.5927 30.981 77.5927 32.6558 77.5927 34.3187C77.676 34.3544 77.7117 34.3781 77.7474 34.3781C79.3862 34.3781 81.0375 34.39 82.6768 34.39C82.6768 35.1146 82.6887 35.8273 82.6887 36.5519C82.0711 37.3714 81.3582 38.0841 80.5864 38.7493C79.6599 39.5451 78.6858 40.246 77.5927 40.7923C77.5808 40.3885 77.6284 39.9965 77.557 39.557C77.3791 39.557 77.2363 39.557 77.094 39.557C75.6921 39.557 74.2907 39.557 72.9007 39.557C72.7585 39.557 72.6157 39.5333 72.4496 39.5214C72.4258 37.8109 72.4615 36.1243 72.4377 34.4257C72.2479 34.4138 72.1051 34.4019 71.951 34.4019C70.5728 34.4019 69.2066 34.4019 67.829 34.4019C67.6862 34.4019 67.544 34.3781 67.3655 34.3663C67.3655 34.1881 67.3655 34.0456 67.3655 33.8911C67.3655 32.5133 67.3655 31.1473 67.3655 29.7694C67.3655 29.6269 67.3423 29.4843 67.3304 29.3181C66.7246 29.3181 66.1659 29.3181 65.6077 29.3181C65.0614 29.3181 64.5033 29.3181 63.957 29.3181C63.3983 29.3181 62.8401 29.3299 62.2462 29.3062C62.2343 29.1161 62.2224 28.9736 62.2224 28.831C62.2224 27.4294 62.2224 26.0278 62.2224 24.6381C62.2224 24.4955 62.2105 24.353 62.1867 24.1629C62.0088 24.1629 61.866 24.1629 61.7238 24.1629C60.3456 24.1629 58.98 24.1629 57.6018 24.1629C57.4596 24.1629 57.3168 24.1392 57.1389 24.1273C57.1389 23.9372 57.1389 23.7947 57.1389 23.6522C57.1389 22.2743 57.1389 20.9083 57.1389 19.5305C57.1389 19.3879 57.1151 19.2454 57.1032 19.0791C56.2478 19.091 55.4639 19.091 54.6799 19.091Z" fill="#474881"/>
<path d="M54.683 19.0908C55.467 19.0908 56.251 19.0908 57.0825 19.0908C57.0944 19.2571 57.1182 19.3997 57.1182 19.5422C57.1182 20.92 57.1182 22.286 57.1182 23.6639C57.1182 23.8064 57.1182 23.949 57.1182 24.139C57.2962 24.1509 57.439 24.1747 57.5812 24.1747C58.9593 24.1747 60.325 24.1747 61.7031 24.1747C61.8454 24.1747 61.9882 24.1747 62.1661 24.1747C62.178 24.3647 62.2018 24.5072 62.2018 24.6498C62.2018 26.0514 62.2018 27.453 62.2018 28.8428C62.2018 28.9853 62.2137 29.1278 62.2256 29.3179C62.8195 29.3298 63.3776 29.3298 63.9364 29.3298C64.4826 29.3298 65.0408 29.3298 65.5871 29.3298C66.1452 29.3298 66.7153 29.3298 67.3097 29.3298C67.3216 29.5079 67.3449 29.6505 67.3449 29.7811C67.3449 31.159 67.3449 32.525 67.3449 33.9029C67.3449 34.0454 67.3449 34.1879 67.3449 34.378C67.5234 34.3899 67.6656 34.4136 67.8084 34.4136C69.186 34.4136 70.5522 34.4136 71.9303 34.4136C72.0726 34.4136 72.2154 34.4255 72.4171 34.4373C72.4409 36.1359 72.4171 37.8108 72.429 39.5331C72.595 39.5449 72.7378 39.5687 72.8801 39.5687C74.282 39.5687 75.6834 39.5687 77.0734 39.5687C77.2156 39.5687 77.3584 39.5687 77.5364 39.5687C77.6197 40.0082 77.5602 40.412 77.5721 40.804C76.4914 41.4217 75.3388 41.8612 74.1392 42.1938C71.9774 42.7877 69.7804 42.9302 67.5472 42.657C67.4758 42.6452 67.4044 42.6214 67.333 42.5976C67.333 41.7305 67.333 40.8516 67.333 39.9844C67.333 39.8538 67.3097 39.7231 67.2978 39.5687C65.5871 39.5568 63.9126 39.5687 62.2018 39.5568C62.1899 39.3668 62.178 39.2243 62.178 39.0817C62.178 37.6801 62.178 36.2903 62.178 34.8888C62.178 34.7462 62.1661 34.6037 62.1542 34.4373C61.9763 34.4255 61.8335 34.4136 61.6912 34.4136C60.3131 34.4136 58.9474 34.4136 57.5693 34.4136C57.4271 34.4136 57.2843 34.4017 57.0944 34.3899C57.0944 34.2117 57.0944 34.0691 57.0944 33.9266C57.0944 32.5488 57.0944 31.1827 57.0944 29.8049C57.0944 29.6623 57.0706 29.5198 57.0587 29.3298C55.8114 29.3298 54.5999 29.3298 53.3883 29.3298C53.3052 28.7477 53.1745 28.1776 53.127 27.5955C52.9013 24.8398 53.3052 22.1791 54.3979 19.6253C54.5049 19.4353 54.5999 19.269 54.683 19.0908Z" fill="#343774"/>
<path d="M53.4221 29.3301C54.6337 29.3301 55.8452 29.3301 57.0924 29.3301C57.1043 29.5201 57.1281 29.6627 57.1281 29.8052C57.1281 31.1831 57.1281 32.549 57.1281 33.9269C57.1281 34.0695 57.1281 34.212 57.1281 34.3901C57.318 34.402 57.4608 34.4139 57.603 34.4139C58.9811 34.4139 60.3468 34.4139 61.7249 34.4139C61.8677 34.4139 62.01 34.4258 62.1885 34.4377C62.1998 34.6039 62.2117 34.7465 62.2117 34.889C62.2117 36.2907 62.2117 37.6804 62.2117 39.082C62.2117 39.2245 62.2236 39.3671 62.2355 39.5572C63.9344 39.5809 65.6089 39.5572 67.3315 39.569C67.3434 39.7234 67.3672 39.8541 67.3672 39.9848C67.3672 40.8518 67.3672 41.7308 67.3672 42.598C66.6782 42.4673 65.9891 42.3723 65.3119 42.1941C59.3495 40.5549 54.8119 35.7442 53.4815 29.6983C53.4459 29.5676 53.434 29.4489 53.4221 29.3301Z" fill="#232969"/>
<path d="M72.4033 9.7189C72.4152 9.83773 72.4271 9.9565 72.4271 10.0872C72.4271 11.37 72.4271 12.6528 72.4271 13.9357C70.7401 13.9357 69.0418 13.9357 67.3549 13.9357C67.3549 13.0923 67.3549 12.249 67.3549 11.4175C67.3549 10.9542 67.3549 10.491 67.3549 10.0277C67.3549 9.86147 67.3192 9.7427 67.1174 9.7308C67.4025 9.68331 67.6875 9.62393 67.9844 9.60013C69.018 9.517 70.0511 9.44571 71.0966 9.58828C71.5244 9.63577 71.9636 9.68331 72.4033 9.7189Z" fill="#8382AD"/>
<path d="M67.1291 9.73047C67.3189 9.73047 67.3665 9.8493 67.3665 10.0275C67.3665 10.4907 67.3665 10.954 67.3665 11.4172C67.3665 12.2605 67.3665 13.1039 67.3665 13.9354L67.3546 13.9472C65.6325 13.9472 63.9217 13.9472 62.1996 13.9472C62.1996 13.0801 62.1996 12.213 62.1877 11.3459C63.5534 10.6214 65.0148 10.1343 66.5352 9.8374C66.7369 9.77801 66.9268 9.75427 67.1291 9.73047Z" fill="#6D6D9C"/>
<path d="M82.6799 29.2589C82.6799 27.6078 82.6799 25.9686 82.6799 24.3294C83.0126 24.2344 85.1982 24.1988 86.3026 24.2701C86.3145 24.4839 86.3145 24.7095 86.3264 24.9234C86.3383 25.054 86.3621 25.1966 86.3502 25.3272C86.3264 26.1943 86.3264 27.0614 86.2669 27.9285C86.2431 28.3799 86.1247 28.8194 86.0533 29.2589C84.937 29.2589 83.8082 29.2589 82.6799 29.2589Z" fill="#8382AD"/>
<path d="M82.6799 29.2588C83.8082 29.2588 84.937 29.2588 86.0652 29.2706C86.0176 29.5201 85.9819 29.7695 85.9224 30.019C85.5779 31.5038 85.0197 32.9053 84.2836 34.2357C84.2479 34.2951 84.2003 34.3545 84.1646 34.4139C83.6659 34.4139 83.1786 34.4139 82.6799 34.4139C82.6799 32.7153 82.6799 31.0286 82.6799 29.3301C82.6799 29.3063 82.6799 29.2825 82.6799 29.2588Z" fill="#6D6D9C"/>
<path d="M62.2023 11.335C62.2023 12.2021 62.2023 13.0692 62.2142 13.9363C61.0979 13.9363 59.981 13.9363 58.8647 13.9363C58.7457 13.9363 58.6153 13.9244 58.4963 13.9244C59.3282 13.0929 60.2898 12.4278 61.2996 11.822C61.5847 11.632 61.8935 11.4894 62.2023 11.335Z" fill="#5A588F"/>
<path d="M82.6799 34.4141C83.1786 34.4141 83.6659 34.4141 84.1646 34.4141C83.7606 35.1861 83.2619 35.8988 82.6918 36.564C82.6918 35.8513 82.6799 35.1268 82.6799 34.4141Z" fill="#5A588F"/>
<path d="M62.1995 13.9355C63.9221 13.9355 65.6323 13.9355 67.3544 13.9355C67.3544 15.6579 67.3544 17.3683 67.3544 19.0907C65.6918 19.0907 64.0168 19.0788 62.3542 19.0788C62.3185 19.0788 62.2828 19.055 62.259 19.0312C62.2471 18.9957 62.2233 18.96 62.2233 18.9244C62.2114 17.2733 62.2114 15.6104 62.1995 13.9355Z" fill="#5A588F"/>
<path d="M72.44 24.1745C70.8007 24.1745 69.15 24.1745 67.5106 24.1626C67.4749 24.1626 67.4392 24.1388 67.4035 24.1269C67.3916 24.0914 67.3559 24.0557 67.3559 24.032C67.3559 22.3928 67.344 20.7417 67.344 19.1025C69.0429 19.1025 70.7293 19.1025 72.4281 19.1025C72.44 20.7892 72.44 22.4759 72.44 24.1745Z" fill="#5A588F"/>
<path d="M77.5966 29.3298C76.0524 29.3298 74.5082 29.3298 72.976 29.3298C72.8689 29.3298 72.7504 29.3417 72.6433 29.3179C72.5719 29.2941 72.4886 29.211 72.4535 29.1278C72.4178 29.0447 72.4416 28.9378 72.4416 28.8428C72.4416 27.2867 72.4416 25.7307 72.4416 24.1865C74.1637 24.1865 75.8739 24.1865 77.5966 24.1865C77.5966 25.897 77.5966 27.6074 77.5966 29.3298Z" fill="#5A588F"/>
<path d="M82.6781 29.3301C82.6781 31.0287 82.6781 32.7153 82.6781 34.4139C81.0388 34.4139 79.3875 34.4139 77.7487 34.402C77.713 34.402 77.6773 34.3783 77.594 34.3426C77.594 32.6797 77.594 31.0049 77.594 29.3301C79.2929 29.3301 80.9793 29.3301 82.6781 29.3301Z" fill="#5A588F"/>
<path d="M64.2073 59.2264C64.2073 58.87 64.2073 58.5612 64.2073 58.2172C64.4447 58.2172 64.6589 58.2053 64.8844 58.2172C65.2171 58.2404 65.395 58.4427 65.3831 58.7278C65.3831 59.0128 65.1933 59.2026 64.8606 59.2145C64.647 59.2383 64.4447 59.2264 64.2073 59.2264Z" fill="#161B61"/>
<path d="M68.9221 52.4441C68.9221 52.1235 68.9221 51.8384 68.9221 51.5058C69.1834 51.5058 69.4565 51.4821 69.7177 51.5177C69.9552 51.5414 70.098 51.7433 70.098 51.9809C70.098 52.2303 69.9314 52.4204 69.6701 52.4441C69.4327 52.4679 69.1953 52.4441 68.9221 52.4441Z" fill="#161B61"/>
<path d="M67.5823 60.6404C67.5823 59.821 67.5823 59.0368 67.5823 58.265C67.618 58.2412 67.6418 58.2174 67.6656 58.2174C68.5921 58.1579 68.8057 58.3358 68.8176 59.2742C68.8176 59.5592 68.8057 59.8329 68.77 60.118C68.723 60.4506 68.5445 60.6047 68.2118 60.6404C68.0101 60.6523 67.8203 60.6404 67.5823 60.6404Z" fill="#161B61"/>
<path d="M35.9846 52.682C35.9846 52.8958 35.9965 53.0977 35.9846 53.3115C35.949 53.6679 35.7233 53.8935 35.4145 53.9173C35.0819 53.9411 34.7968 53.7154 34.773 53.3471C34.7374 52.9076 34.7374 52.4682 34.773 52.0287C34.7968 51.6486 35.07 51.4467 35.4145 51.4585C35.7352 51.4704 35.9609 51.6961 35.9965 52.0643C35.9965 52.2662 35.9846 52.4682 35.9846 52.682Z" fill="#161B61"/>
<path d="M95.8407 52.7178C95.8288 52.9078 95.8169 53.1216 95.7931 53.3236C95.7574 53.6799 95.5199 53.9056 95.1992 53.9056C94.8904 53.9175 94.6172 53.7274 94.5934 53.383C94.5577 52.9078 94.5577 52.4327 94.5934 51.9576C94.6172 51.6131 94.8785 51.4349 95.1992 51.4468C95.5199 51.4587 95.7336 51.6607 95.7812 51.9932C95.7931 52.0764 95.7931 52.1595 95.805 52.2545C95.8169 52.4089 95.8288 52.5515 95.8407 52.7178Z" fill="#161B61"/>
<path d="M49.2426 52.67C49.2426 52.4681 49.2307 52.2543 49.2426 52.0524C49.2782 51.696 49.492 51.4822 49.8246 51.4703C50.1453 51.4584 50.4067 51.6366 50.4304 51.9811C50.466 52.4562 50.466 52.9313 50.4304 53.4065C50.4067 53.739 50.1335 53.9291 49.8246 53.9291C49.5039 53.9172 49.2664 53.6915 49.2307 53.3471C49.2307 53.1095 49.2426 52.8838 49.2426 52.67Z" fill="#161B61"/>
<path d="M61.9768 52.6702C62.0006 52.409 62.0125 52.1595 62.0601 51.922C62.119 51.625 62.3689 51.4349 62.6659 51.4468C62.9509 51.4587 63.2121 51.6487 63.224 51.9338C63.2478 52.4327 63.2478 52.9316 63.224 53.4305C63.2121 53.7037 62.9271 53.8937 62.654 53.9056C62.3689 53.9056 62.119 53.7393 62.0601 53.4542C62.0125 53.1929 62.0006 52.9197 61.9768 52.6702Z" fill="#161B61"/>
<path d="M111.472 52.7057C111.449 52.9433 111.449 53.169 111.413 53.4065C111.353 53.7273 111.104 53.9292 110.795 53.9173C110.498 53.9054 110.248 53.7154 110.225 53.3947C110.201 52.9195 110.201 52.4444 110.225 51.9693C110.248 51.6605 110.498 51.4704 110.795 51.4585C111.104 51.4467 111.353 51.6486 111.401 51.9693C111.449 52.2068 111.449 52.4563 111.472 52.7057Z" fill="#161B61"/>
<path d="M53.7687 58.8234C53.8993 59.2156 54.03 59.6071 54.1606 60.0231C53.8636 60.0231 53.5905 60.0231 53.2698 60.0231C53.4123 59.6071 53.543 59.2156 53.6855 58.8115C53.7092 58.8234 53.7449 58.8234 53.7687 58.8234Z" fill="#161B61"/>
<path d="M61.4165 58.7041C61.5826 59.1914 61.7135 59.5949 61.8557 60.0227C61.5588 60.0227 61.2856 60.0227 60.9768 60.0227C61.1196 59.6068 61.2499 59.1914 61.4165 58.7041Z" fill="#161B61"/>
<path d="M85.8502 52.0529C85.9806 52.4449 86.1115 52.8369 86.2418 53.2526C85.933 53.2526 85.6837 53.2526 85.3867 53.2526C85.47 52.825 85.6599 52.4449 85.7789 52.041C85.8027 52.041 85.8264 52.0529 85.8502 52.0529Z" fill="#161B61"/>
<path d="M27.8856 52.041C28.0162 52.433 28.1468 52.825 28.2894 53.2407C27.9806 53.2407 27.7311 53.2407 27.4104 53.2407C27.553 52.825 27.6836 52.433 27.8262 52.041C27.8499 52.041 27.8618 52.041 27.8856 52.041Z" fill="#161B61"/>
<path d="M42.8169 53.2524C42.4961 53.2524 42.2349 53.2524 41.926 53.2524C42.0685 52.8367 42.2111 52.4448 42.3417 52.0527C42.3655 52.0527 42.3893 52.0527 42.413 52.0527C42.5437 52.4329 42.6743 52.813 42.8169 53.2524Z" fill="#161B61"/>
<path d="M102.848 53.2641C102.884 53.1335 102.908 53.0622 102.931 53.0029C103.038 52.694 103.145 52.3733 103.264 52.0645C103.418 52.2545 103.632 52.8365 103.703 53.2641C103.608 53.2641 103.513 53.276 103.406 53.276C103.24 53.2641 103.062 53.2641 102.848 53.2641Z" fill="#161B61"/>
<path d="M77.8805 59.4647C77.8805 59.2148 77.8686 58.9774 77.8805 58.728C77.8805 58.6209 77.9043 58.5025 77.9514 58.4073C78.0228 58.2532 78.1656 58.1818 78.3435 58.1937C78.522 58.2056 78.6523 58.2883 78.6999 58.4549C78.7356 58.562 78.7594 58.6685 78.7594 58.7756C78.7713 59.2267 78.7713 59.6783 78.7594 60.13C78.7475 60.5215 78.5928 60.7238 78.3078 60.7119C78.0228 60.7119 77.8805 60.5096 77.8805 60.1062C77.8805 59.9039 77.8805 59.6783 77.8805 59.4647Z" fill="#161B61"/>
<path d="M83.9501 59.667C84.2351 59.667 84.4369 59.8925 84.4369 60.2014C84.4369 60.5102 84.2351 60.7238 83.9501 60.7238C83.6764 60.7119 83.4985 60.5221 83.4985 60.2133C83.4747 59.8687 83.6532 59.667 83.9501 59.667Z" fill="#161B61"/>
<path d="M63.0797 71.8418C63.6378 73.505 64.196 75.18 64.766 76.8783C63.5902 76.8783 62.462 76.8783 61.2737 76.8783C61.8681 75.18 62.4382 73.505 63.0201 71.8418C63.032 71.8418 63.0559 71.8418 63.0797 71.8418Z" fill="#BABDC2"/>
</g>
<defs>
<clipPath id="clip0_221_41741">
<rect width="136" height="85" fill="white" transform="translate(0.179932 0.240234)"/>
</clipPath>
</defs>
</svg>
