<svg width="48" height="48" viewBox="0 0 48 48" fill="none" xmlns="http://www.w3.org/2000/svg">
<g clip-path="url(#clip0_943_4416)">
<path d="M24 37.2812C23.3819 37.2812 22.7778 37.4645 22.2638 37.8079C21.7499 38.1513 21.3494 38.6393 21.1129 39.2104C20.8764 39.7814 20.8145 40.4097 20.935 41.0159C21.0556 41.6221 21.3533 42.179 21.7903 42.6161C22.2273 43.0531 22.7842 43.3506 23.3904 43.4712C23.9965 43.5918 24.6249 43.5299 25.1959 43.2934C25.7669 43.0569 26.255 42.6563 26.5984 42.1424C26.9417 41.6285 27.125 41.0243 27.125 40.4063C27.125 39.5775 26.7958 38.7826 26.2097 38.1965C25.6237 37.6105 24.8288 37.2812 24 37.2812ZM24 41.9688C23.691 41.9688 23.3889 41.8771 23.1319 41.7054C22.875 41.5337 22.6747 41.2897 22.5564 41.0042C22.4382 40.7187 22.4072 40.4045 22.4675 40.1014C22.5278 39.7983 22.6766 39.5199 22.8952 39.3014C23.1137 39.0829 23.3921 38.9341 23.6952 38.8738C23.9983 38.8135 24.3124 38.8444 24.598 38.9627C24.8835 39.081 25.1275 39.2812 25.2992 39.5382C25.4709 39.7952 25.5625 40.0972 25.5625 40.4063C25.5625 40.8207 25.3979 41.2182 25.1049 41.5112C24.8118 41.8042 24.4144 41.9688 24 41.9688Z" fill="#1E1D28"/>
<path d="M30.4375 38.0859L29.9141 37.9531L30.1952 37.4922C30.2846 37.3429 30.3217 37.1681 30.3005 36.9955C30.2792 36.8228 30.201 36.6622 30.0781 36.5391L27.8672 34.3281C27.744 34.2053 27.5834 34.127 27.4108 34.1058C27.2381 34.0846 27.0633 34.1216 26.9141 34.2109L26.4531 34.4922L26.3202 33.9687C26.2783 33.7994 26.181 33.6489 26.0436 33.5413C25.9064 33.4337 25.737 33.3751 25.5625 33.375H22.4375C22.263 33.3751 22.0936 33.4337 21.9563 33.5413C21.8189 33.6489 21.7216 33.7994 21.6797 33.9687L21.5469 34.4922L21.0858 34.2109C20.9361 34.1234 20.7617 34.0875 20.5896 34.1086C20.4174 34.1298 20.2568 34.2069 20.1327 34.3281L17.9219 36.5391C17.799 36.6622 17.7207 36.8228 17.6994 36.9955C17.6782 37.1681 17.7153 37.3429 17.8047 37.4922L18.0858 37.9531L17.5625 38.0859C17.3931 38.1278 17.2426 38.2252 17.135 38.3625C17.0274 38.4999 16.9688 38.6693 16.9688 38.8438V41.9688C16.9688 42.1432 17.0274 42.3126 17.135 42.45C17.2426 42.5873 17.3931 42.6847 17.5625 42.7266L18.0858 42.8594L17.8047 43.3203C17.7153 43.4696 17.6782 43.6444 17.6994 43.817C17.7207 43.9897 17.799 44.1503 17.9219 44.2734L20.1327 46.4844C20.2568 46.6056 20.4174 46.6827 20.5896 46.7039C20.7617 46.725 20.9361 46.6891 21.0858 46.6016L21.5469 46.3203L21.6797 46.8438C21.7216 47.0131 21.8189 47.1636 21.9563 47.2712C22.0936 47.3788 22.263 47.4374 22.4375 47.4375H25.5625C25.737 47.4374 25.9064 47.3788 26.0436 47.2712C26.181 47.1636 26.2783 47.0131 26.3202 46.8438L26.4531 46.3203L26.9141 46.6016C27.0638 46.6891 27.2382 46.725 27.4104 46.7039C27.5826 46.6827 27.7431 46.6056 27.8672 46.4844L30.0781 44.2734C30.201 44.1503 30.2792 43.9897 30.3005 43.817C30.3217 43.6444 30.2846 43.4696 30.1952 43.3203L29.9141 42.8594L30.4375 42.7266C30.6069 42.6847 30.7573 42.5873 30.865 42.45C30.9726 42.3126 31.0311 42.1432 31.0312 41.9688V38.8438C31.0311 38.6693 30.9726 38.4999 30.865 38.3625C30.7573 38.2252 30.6069 38.1278 30.4375 38.0859ZM29.4688 41.3594L28.5156 41.5938C28.3974 41.6241 28.2878 41.6815 28.1956 41.7615C28.1034 41.8415 28.031 41.9419 27.9844 42.0547C27.9369 42.1678 27.9173 42.2906 27.9268 42.4129C27.9362 42.5351 27.9748 42.6534 28.0391 42.7578L28.5391 43.6016L27.1952 44.9453L26.3516 44.4375C26.2458 44.3762 26.1274 44.3402 26.0055 44.332C25.8835 44.3239 25.7613 44.3439 25.6483 44.3906C25.5356 44.4373 25.4353 44.5097 25.3553 44.6019C25.2753 44.6941 25.2178 44.8036 25.1875 44.9219L24.9531 45.875H23.0469L22.8125 44.9219C22.7822 44.8036 22.7246 44.6941 22.6446 44.6019C22.5646 44.5097 22.4643 44.4373 22.3516 44.3906C22.2386 44.3439 22.1164 44.3239 21.9944 44.332C21.8725 44.3402 21.7541 44.3762 21.6483 44.4375L20.8047 44.9453L19.4608 43.6016L19.9608 42.7578C20.0251 42.6534 20.0637 42.5351 20.0732 42.4129C20.0827 42.2906 20.063 42.1678 20.0156 42.0547C19.9689 41.9419 19.8965 41.8415 19.8043 41.7615C19.7121 41.6815 19.6026 41.6241 19.4844 41.5938L18.5312 41.3594V39.4531L19.4844 39.2187C19.6026 39.1884 19.7121 39.131 19.8043 39.051C19.8965 38.971 19.9689 38.8706 20.0156 38.7578C20.063 38.6447 20.0827 38.5219 20.0732 38.3996C20.0637 38.2774 20.0251 38.1591 19.9608 38.0547L19.4608 37.2109L20.8047 35.8672L21.6483 36.3672C21.7528 36.4314 21.8711 36.4699 21.9934 36.4794C22.1157 36.4889 22.2384 36.4692 22.3516 36.4219C22.4643 36.3752 22.5646 36.3028 22.6446 36.2106C22.7246 36.1184 22.7822 36.0089 22.8125 35.8906L23.0469 34.9375H24.9531L25.1875 35.8906C25.2178 36.0089 25.2753 36.1184 25.3553 36.2106C25.4353 36.3028 25.5356 36.3752 25.6483 36.4219C25.7615 36.4692 25.8842 36.4889 26.0065 36.4794C26.1288 36.4699 26.2471 36.4314 26.3516 36.3672L27.1952 35.8672L28.5391 37.2109L28.0391 38.0547C27.9748 38.1591 27.9362 38.2774 27.9268 38.3996C27.9173 38.5219 27.9369 38.6447 27.9844 38.7578C28.031 38.8706 28.1034 38.971 28.1956 39.051C28.2878 39.131 28.3974 39.1884 28.5156 39.2187L29.4688 39.4531V41.3594Z" fill="#1E1D28"/>
<path d="M28.6875 16.1875H19.3125C18.6915 16.1894 18.0964 16.4369 17.6573 16.876C17.2181 17.3152 16.9705 17.9102 16.9688 18.5312V29.4688C16.9705 30.0898 17.2181 30.6848 17.6573 31.124C18.0964 31.5631 18.6915 31.8106 19.3125 31.8125H28.6875C29.3085 31.8106 29.9035 31.5631 30.3426 31.124C30.7818 30.6848 31.0294 30.0898 31.0312 29.4688V18.5312C31.0294 17.9102 30.7818 17.3152 30.3426 16.876C29.9035 16.4369 29.3085 16.1894 28.6875 16.1875ZM29.4688 29.4688C29.4688 29.676 29.3864 29.8747 29.2399 30.0212C29.0934 30.1677 28.8947 30.25 28.6875 30.25H19.3125C19.1053 30.25 18.9065 30.1677 18.76 30.0212C18.6135 29.8747 18.5312 29.676 18.5312 29.4688V27.125H29.4688V29.4688ZM29.4688 25.5625H18.5312V22.4375H29.4688V25.5625ZM29.4688 20.875H18.5312V18.5312C18.5312 18.324 18.6135 18.1253 18.76 17.9788C18.9065 17.8323 19.1053 17.75 19.3125 17.75H28.6875C28.8947 17.75 29.0934 17.8323 29.2399 17.9788C29.3864 18.1253 29.4688 18.324 29.4688 18.5312V20.875Z" fill="url(#paint0_linear_943_4416)"/>
<path d="M40.4063 20.875C39.7882 20.875 39.184 21.0583 38.6701 21.4017C38.1562 21.745 37.7557 22.2331 37.5191 22.8041C37.2826 23.3751 37.2207 24.0035 37.3413 24.6097C37.4619 25.2159 37.7595 25.7727 38.1965 26.2097C38.6336 26.6468 39.1904 26.9444 39.7966 27.065C40.4028 27.1855 41.0311 27.1237 41.6021 26.8871C42.1732 26.6506 42.6612 26.2501 43.0046 25.7362C43.348 25.2223 43.5313 24.6181 43.5313 24C43.5313 23.1712 43.202 22.3763 42.616 21.7903C42.0299 21.2042 41.2351 20.875 40.4063 20.875ZM40.4063 25.5625C40.0972 25.5625 39.7951 25.4709 39.5382 25.2992C39.2812 25.1275 39.081 24.8835 38.9627 24.598C38.8444 24.3124 38.8135 23.9983 38.8738 23.6952C38.9341 23.3921 39.0829 23.1137 39.3014 22.8952C39.5199 22.6766 39.7983 22.5278 40.1014 22.4675C40.4045 22.4072 40.7187 22.4382 41.0042 22.5564C41.2897 22.6747 41.5337 22.875 41.7054 23.1319C41.8771 23.3889 41.9688 23.691 41.9688 24C41.9688 24.4144 41.8041 24.8118 41.5111 25.1049C41.2181 25.3979 40.8207 25.5625 40.4063 25.5625Z" fill="#1E1D28"/>
<path d="M46.8438 21.6797L46.3203 21.5469L46.6016 21.0858C46.6909 20.9366 46.7279 20.7618 46.7067 20.5891C46.6855 20.4165 46.6072 20.2559 46.4844 20.1327L44.2734 17.9219C44.1493 17.8007 43.9888 17.7236 43.8167 17.7024C43.6445 17.6812 43.4701 17.7172 43.3203 17.8047L42.8594 18.0858L42.7266 17.5625C42.6847 17.3931 42.5873 17.2426 42.45 17.135C42.3126 17.0274 42.1432 16.9688 41.9688 16.9688H38.8438C38.6693 16.9688 38.4999 17.0274 38.3625 17.135C38.2252 17.2426 38.1278 17.3931 38.0859 17.5625L37.9531 18.0858L37.4922 17.8047C37.3425 17.7169 37.168 17.6808 36.9958 17.702C36.8235 17.7232 36.663 17.8004 36.5391 17.9219L34.3281 20.1327C34.2053 20.2559 34.127 20.4165 34.1058 20.5891C34.0846 20.7618 34.1216 20.9366 34.2109 21.0858L34.4922 21.5469L33.9687 21.6797C33.7994 21.7216 33.6489 21.8189 33.5413 21.9563C33.4337 22.0936 33.3751 22.263 33.375 22.4375V25.5625C33.3751 25.737 33.4337 25.9064 33.5413 26.0436C33.6489 26.181 33.7994 26.2783 33.9687 26.3202L34.4922 26.4531L34.2109 26.9141C34.1216 27.0633 34.0846 27.2381 34.1058 27.4108C34.127 27.5834 34.2053 27.744 34.3281 27.8672L36.5391 30.0781C36.663 30.1996 36.8235 30.2768 36.9958 30.298C37.168 30.3192 37.3425 30.283 37.4922 30.1952L37.9531 29.9141L38.0859 30.4375C38.1278 30.6069 38.2252 30.7573 38.3625 30.865C38.4999 30.9726 38.6693 31.0311 38.8438 31.0312H41.9688C42.1432 31.0311 42.3126 30.9726 42.45 30.865C42.5873 30.7573 42.6847 30.6069 42.7266 30.4375L42.8594 29.9141L43.3203 30.1952C43.4701 30.2827 43.6445 30.3188 43.8167 30.2976C43.9888 30.2764 44.1493 30.1993 44.2734 30.0781L46.4844 27.8672C46.6072 27.744 46.6855 27.5834 46.7067 27.4108C46.7279 27.2381 46.6909 27.0633 46.6016 26.9141L46.3203 26.4531L46.8438 26.3202C47.0131 26.2783 47.1636 26.181 47.2712 26.0436C47.3788 25.9064 47.4374 25.737 47.4375 25.5625V22.4375C47.4374 22.263 47.3788 22.0936 47.2712 21.9563C47.1636 21.8189 47.0131 21.7216 46.8438 21.6797ZM45.875 24.9531L44.9219 25.1875C44.8036 25.2178 44.6941 25.2753 44.6019 25.3553C44.5097 25.4353 44.4373 25.5356 44.3906 25.6483C44.3433 25.7615 44.3236 25.8842 44.3331 26.0065C44.3426 26.1288 44.3811 26.2471 44.4453 26.3516L44.9453 27.1952L43.6016 28.5391L42.7578 28.0312C42.6521 27.97 42.5337 27.9339 42.4117 27.9258C42.2898 27.9176 42.1676 27.9377 42.0547 27.9844C41.9419 28.031 41.8415 28.1034 41.7615 28.1956C41.6815 28.2878 41.6241 28.3974 41.5938 28.5156L41.3594 29.4688H39.4531L39.2187 28.5156C39.1884 28.3974 39.131 28.2878 39.051 28.1956C38.971 28.1034 38.8706 28.031 38.7578 27.9844C38.6449 27.9377 38.5227 27.9176 38.4008 27.9258C38.2788 27.9339 38.1604 27.97 38.0547 28.0312L37.2109 28.5391L35.8672 27.1952L36.3672 26.3516C36.4314 26.2471 36.4699 26.1288 36.4794 26.0065C36.4889 25.8842 36.4692 25.7615 36.4219 25.6483C36.3752 25.5356 36.3028 25.4353 36.2106 25.3553C36.1184 25.2753 36.0089 25.2178 35.8906 25.1875L34.9375 24.9531V23.0469L35.8906 22.8125C36.0089 22.7822 36.1184 22.7246 36.2106 22.6446C36.3028 22.5646 36.3752 22.4643 36.4219 22.3516C36.4692 22.2384 36.4889 22.1157 36.4794 21.9934C36.4699 21.8711 36.4314 21.7528 36.3672 21.6483L35.8672 20.8047L37.2109 19.4608L38.0547 19.9608C38.1591 20.0251 38.2774 20.0637 38.3996 20.0732C38.5219 20.0827 38.6447 20.063 38.7578 20.0156C38.8706 19.9689 38.971 19.8965 39.051 19.8043C39.131 19.7121 39.1884 19.6026 39.2187 19.4844L39.4531 18.5312H41.3594L41.5938 19.4844C41.6241 19.6026 41.6815 19.7121 41.7615 19.8043C41.8415 19.8965 41.9419 19.9689 42.0547 20.0156C42.1678 20.063 42.2906 20.0827 42.4129 20.0732C42.5351 20.0637 42.6534 20.0251 42.7578 19.9608L43.6016 19.4608L44.9453 20.8047L44.4453 21.6483C44.3811 21.7528 44.3426 21.8711 44.3331 21.9934C44.3236 22.1157 44.3433 22.2384 44.3906 22.3516C44.4373 22.4643 44.5097 22.5646 44.6019 22.6446C44.6941 22.7246 44.8036 22.7822 44.9219 22.8125L45.875 23.0469V24.9531Z" fill="#1E1D28"/>
<path d="M10.7188 24C10.7188 23.3819 10.5355 22.7778 10.1921 22.2638C9.84871 21.7499 9.36066 21.3494 8.78964 21.1129C8.21862 20.8764 7.59029 20.8145 6.98409 20.935C6.3779 21.0556 5.82108 21.3533 5.38404 21.7903C4.947 22.2273 4.64938 22.7842 4.5288 23.3904C4.40822 23.9965 4.4701 24.6249 4.70663 25.1959C4.94315 25.7669 5.34369 26.255 5.85759 26.5984C6.3715 26.9417 6.97569 27.125 7.59375 27.125C8.42255 27.125 9.21741 26.7958 9.80346 26.2097C10.3895 25.6237 10.7188 24.8288 10.7188 24ZM7.59375 25.5625C7.28472 25.5625 6.98263 25.4709 6.72567 25.2992C6.46872 25.1275 6.26845 24.8835 6.15019 24.598C6.03193 24.3124 6.00098 23.9983 6.06127 23.6952C6.12156 23.3921 6.27038 23.1137 6.4889 22.8952C6.70742 22.6766 6.98583 22.5278 7.28892 22.4675C7.59202 22.4072 7.90618 22.4382 8.19169 22.5564C8.4772 22.6747 8.72123 22.875 8.89292 23.1319C9.06461 23.3889 9.15625 23.691 9.15625 24C9.15625 24.4144 8.99163 24.8118 8.69861 25.1049C8.40558 25.3979 8.00815 25.5625 7.59375 25.5625Z" fill="#1E1D28"/>
<path d="M9.91406 30.4391L10.0445 29.9172L10.5062 30.1938C10.6556 30.2833 10.8305 30.3204 11.0034 30.2992C11.1762 30.278 11.337 30.1995 11.4602 30.0765L13.6703 27.8672C13.7937 27.744 13.8723 27.5831 13.8937 27.4102C13.915 27.2372 13.8779 27.062 13.7883 26.9125L13.5109 26.4508L14.0328 26.3202C14.2019 26.278 14.352 26.1806 14.4593 26.0433C14.5666 25.906 14.625 25.7368 14.625 25.5625V22.4375C14.625 22.2632 14.5666 22.0939 14.4593 21.9566C14.352 21.8193 14.2019 21.7219 14.0328 21.6797L13.5109 21.5492L13.7883 21.0875C13.8779 20.938 13.915 20.7628 13.8937 20.5898C13.8723 20.4169 13.7937 20.2559 13.6703 20.1327L11.4602 17.9234C11.337 17.8003 11.1763 17.7217 11.0035 17.7003C10.8307 17.6789 10.6557 17.716 10.5062 17.8055L10.0445 18.0828L9.91406 17.5609C9.87189 17.3918 9.77439 17.2416 9.63708 17.1343C9.49977 17.027 9.33052 16.9688 9.15625 16.9688H6.03125C5.85698 16.9688 5.68773 17.027 5.55042 17.1343C5.41311 17.2416 5.31561 17.3918 5.27344 17.5609L5.14297 18.0828L4.68125 17.8055C4.53185 17.716 4.35683 17.6789 4.18401 17.7003C4.01118 17.7217 3.85045 17.8003 3.72734 17.9234L1.51719 20.1327C1.39384 20.2559 1.31522 20.4169 1.29385 20.5898C1.27247 20.7628 1.30956 20.938 1.39922 21.0875L1.67656 21.5492L1.15469 21.6797C0.9856 21.7219 0.835467 21.8193 0.728164 21.9566C0.62086 22.0939 0.562548 22.2632 0.5625 22.4375V25.5625C0.562548 25.7368 0.62086 25.906 0.728164 26.0433C0.835467 26.1806 0.9856 26.278 1.15469 26.3202L1.67656 26.4508L1.39922 26.9125C1.30956 27.062 1.27247 27.2372 1.29385 27.4102C1.31522 27.5831 1.39384 27.744 1.51719 27.8672L3.72734 30.0765C3.85055 30.1995 4.01132 30.278 4.18415 30.2992C4.35697 30.3204 4.53193 30.2833 4.68125 30.1938L5.14297 29.9172L5.27344 30.4391C5.31561 30.6082 5.41311 30.7583 5.55042 30.8656C5.68773 30.9729 5.85698 31.0312 6.03125 31.0312H9.15625C9.33052 31.0312 9.49977 30.9729 9.63708 30.8656C9.77439 30.7583 9.87189 30.6082 9.91406 30.4391ZM8.78438 28.5156L8.55 29.4688H6.64141L6.40703 28.5156C6.37745 28.3972 6.32051 28.2872 6.24079 28.1947C6.16107 28.1023 6.06079 28.0298 5.94799 27.9831C5.83519 27.9364 5.71301 27.9168 5.59125 27.9258C5.46949 27.9349 5.35155 27.9723 5.24687 28.0352L4.40469 28.5406L3.05313 27.193L3.55859 26.3507C3.62145 26.246 3.65889 26.1281 3.66793 26.0063C3.67696 25.8845 3.65734 25.7625 3.61062 25.6497C3.5639 25.5369 3.4914 25.4366 3.39893 25.3568C3.30645 25.2771 3.19658 25.2201 3.07812 25.1905L2.125 24.9522V23.0477L3.07812 22.8132C3.19658 22.7836 3.30645 22.7267 3.39893 22.6469C3.4914 22.5672 3.5639 22.467 3.61062 22.3542C3.65734 22.2414 3.67696 22.1192 3.66793 21.9974C3.65889 21.8756 3.62145 21.7577 3.55859 21.653L3.05313 20.8109L4.40078 19.4633L5.24297 19.9688C5.34764 20.0315 5.46559 20.069 5.58734 20.0781C5.7091 20.0871 5.83128 20.0675 5.94408 20.0208C6.05689 19.9741 6.15717 19.9015 6.23689 19.809C6.31661 19.7165 6.37354 19.6067 6.40312 19.4883L6.6375 18.5352H8.54219L8.77656 19.4883C8.80615 19.6067 8.86308 19.7165 8.9428 19.809C9.02252 19.9015 9.1228 19.9741 9.2356 20.0208C9.3484 20.0675 9.47059 20.0871 9.59234 20.0781C9.7141 20.069 9.83205 20.0315 9.93672 19.9688L10.7789 19.4633L12.1273 20.8109L11.6211 21.653C11.5582 21.7577 11.5208 21.8756 11.5118 21.9974C11.5027 22.1192 11.5224 22.2414 11.5691 22.3542C11.6158 22.467 11.6883 22.5672 11.7808 22.6469C11.8732 22.7267 11.9831 22.7836 12.1016 22.8132L13.0547 23.0477V24.9522L12.1016 25.1867C11.9831 25.2163 11.8732 25.2732 11.7808 25.353C11.6883 25.4327 11.6158 25.533 11.5691 25.6458C11.5224 25.7585 11.5027 25.8807 11.5118 26.0025C11.5208 26.1243 11.5582 26.2422 11.6211 26.3469L12.1273 27.1891L10.7789 28.5366L9.93672 28.0312C9.83205 27.9684 9.7141 27.9309 9.59234 27.9219C9.47059 27.9129 9.3484 27.9325 9.2356 27.9792C9.1228 28.0259 9.02252 28.0984 8.9428 28.1909C8.86308 28.2834 8.80615 28.3933 8.77656 28.5117L8.78438 28.5156Z" fill="#1E1D28"/>
<path d="M8.375 38.8438V35.7188H6.8125V38.8438C6.8125 39.4653 7.05943 40.0615 7.49897 40.5009C7.93851 40.9405 8.53465 41.1875 9.15625 41.1875H15.4062V39.625H9.15625C8.94905 39.625 8.75034 39.5426 8.60382 39.3961C8.45731 39.2496 8.375 39.051 8.375 38.8438Z" fill="#1E1D28"/>
<path d="M39.625 38.8438C39.625 39.051 39.5426 39.2496 39.3961 39.3961C39.2496 39.5426 39.051 39.625 38.8438 39.625H32.5938V41.1875H38.8438C39.4654 41.1875 40.0615 40.9405 40.5009 40.5009C40.9405 40.0615 41.1875 39.4653 41.1875 38.8438V35.7188H39.625V38.8438Z" fill="#1E1D28"/>
<path d="M6.8125 32.5938H8.375V34.1562H6.8125V32.5938Z" fill="#1E1D28"/>
<path d="M24 4.46875C23.3819 4.46875 22.7778 4.65203 22.2638 4.99541C21.7499 5.33879 21.3494 5.82685 21.1129 6.39786C20.8764 6.96888 20.8145 7.59722 20.935 8.20341C21.0556 8.8096 21.3533 9.36642 21.7903 9.80346C22.2273 10.2405 22.7842 10.5381 23.3904 10.6587C23.9965 10.7793 24.6249 10.7174 25.1959 10.4809C25.7669 10.2444 26.255 9.84381 26.5984 9.32991C26.9417 8.816 27.125 8.21182 27.125 7.59375C27.125 6.76495 26.7958 5.97009 26.2097 5.38404C25.6237 4.79799 24.8288 4.46875 24 4.46875ZM24 9.15625C23.691 9.15625 23.3889 9.06461 23.1319 8.89292C22.875 8.72123 22.6747 8.4772 22.5564 8.19169C22.4382 7.90618 22.4072 7.59202 22.4675 7.28892C22.5278 6.98583 22.6766 6.70742 22.8952 6.4889C23.1137 6.27038 23.3921 6.12156 23.6952 6.06127C23.9983 6.00098 24.3124 6.03193 24.598 6.15019C24.8835 6.26845 25.1275 6.46872 25.2992 6.72567C25.4709 6.98262 25.5625 7.28472 25.5625 7.59375C25.5625 8.00815 25.3979 8.40558 25.1049 8.6986C24.8118 8.99163 24.4144 9.15625 24 9.15625Z" fill="#1E1D28"/>
<path d="M30.4375 5.27344L29.9141 5.14062L30.1952 4.67969C30.2846 4.53045 30.3217 4.35565 30.3005 4.18299C30.2792 4.01034 30.201 3.84971 30.0781 3.72656L27.8672 1.51562C27.7431 1.39442 27.5826 1.31732 27.4104 1.29615C27.2382 1.27498 27.0638 1.31091 26.9141 1.39844L26.4531 1.67969L26.3202 1.15625C26.2783 0.986873 26.181 0.836387 26.0436 0.728779C25.9064 0.621171 25.737 0.562635 25.5625 0.5625H22.4375C22.263 0.562635 22.0936 0.621171 21.9563 0.728779C21.8189 0.836387 21.7216 0.986873 21.6797 1.15625L21.5469 1.67969L21.0858 1.39844C20.9361 1.31091 20.7617 1.27498 20.5896 1.29615C20.4174 1.31732 20.2568 1.39442 20.1327 1.51562L17.9219 3.72656C17.799 3.84971 17.7207 4.01034 17.6994 4.18299C17.6782 4.35565 17.7153 4.53045 17.8047 4.67969L18.0858 5.14062L17.5625 5.27344C17.3931 5.31531 17.2426 5.41268 17.135 5.55002C17.0274 5.68736 16.9688 5.85677 16.9688 6.03125V9.15625C16.9688 9.33073 17.0274 9.50014 17.135 9.63748C17.2426 9.77482 17.3931 9.87219 17.5625 9.91406L18.0858 10.0469L17.8047 10.5078C17.7153 10.6571 17.6782 10.8319 17.6994 11.0045C17.7207 11.1772 17.799 11.3378 17.9219 11.4609L20.1327 13.6719C20.2568 13.7931 20.4174 13.8702 20.5896 13.8914C20.7617 13.9125 20.9361 13.8766 21.0858 13.7891L21.5469 13.5078L21.6797 14.0312C21.7216 14.2006 21.8189 14.3511 21.9563 14.4587C22.0936 14.5663 22.263 14.6249 22.4375 14.625H25.5625C25.737 14.6249 25.9064 14.5663 26.0436 14.4587C26.181 14.3511 26.2783 14.2006 26.3202 14.0312L26.4531 13.5078L26.9141 13.7891C27.0638 13.8766 27.2382 13.9125 27.4104 13.8914C27.5826 13.8702 27.7431 13.7931 27.8672 13.6719L30.0781 11.4609C30.201 11.3378 30.2792 11.1772 30.3005 11.0045C30.3217 10.8319 30.2846 10.6571 30.1952 10.5078L29.9141 10.0469L30.4375 9.91406C30.6069 9.87219 30.7573 9.77482 30.865 9.63748C30.9726 9.50014 31.0311 9.33073 31.0312 9.15625V6.03125C31.0311 5.85677 30.9726 5.68736 30.865 5.55002C30.7573 5.41268 30.6069 5.31531 30.4375 5.27344ZM29.4688 8.54688L28.5156 8.78125C28.3974 8.8116 28.2878 8.86904 28.1956 8.94905C28.1034 9.02905 28.031 9.12941 27.9844 9.24219C27.9369 9.35532 27.9173 9.47809 27.9268 9.60035C27.9362 9.72262 27.9748 9.84086 28.0391 9.94531L28.5391 10.7891L27.1952 12.1328L26.3516 11.6328C26.2471 11.5686 26.1288 11.5301 26.0065 11.5206C25.8842 11.5111 25.7615 11.5308 25.6483 11.5781C25.5356 11.6248 25.4353 11.6972 25.3553 11.7894C25.2753 11.8816 25.2178 11.9911 25.1875 12.1094L24.9531 13.0625H23.0469L22.8125 12.1094C22.7822 11.9911 22.7246 11.8816 22.6446 11.7894C22.5646 11.6972 22.4643 11.6248 22.3516 11.5781C22.2384 11.5308 22.1157 11.5111 21.9934 11.5206C21.8711 11.5301 21.7528 11.5686 21.6483 11.6328L20.8047 12.1328L19.4608 10.7891L19.9608 9.94531C20.0251 9.84086 20.0637 9.72262 20.0732 9.60035C20.0827 9.47809 20.063 9.35532 20.0156 9.24219C19.9689 9.12941 19.8965 9.02905 19.8043 8.94905C19.7121 8.86904 19.6026 8.8116 19.4844 8.78125L18.5312 8.54688V6.64062L19.4844 6.40625C19.6026 6.3759 19.7121 6.31846 19.8043 6.23846C19.8965 6.15845 19.9689 6.05809 20.0156 5.94531C20.063 5.83218 20.0827 5.70941 20.0732 5.58715C20.0637 5.46488 20.0251 5.34664 19.9608 5.24219L19.4608 4.39844L20.8047 3.05469L21.6483 3.5625C21.7541 3.62375 21.8725 3.65984 21.9944 3.66797C22.1164 3.6761 22.2386 3.65605 22.3516 3.60938C22.4643 3.56266 22.5646 3.49033 22.6446 3.39813C22.7246 3.30592 22.7822 3.19637 22.8125 3.07812L23.0469 2.125H24.9531L25.1875 3.07812C25.2178 3.19637 25.2753 3.30592 25.3553 3.39813C25.4353 3.49033 25.5356 3.56266 25.6483 3.60938C25.7613 3.65605 25.8835 3.6761 26.0055 3.66797C26.1274 3.65984 26.2458 3.62375 26.3516 3.5625L27.1952 3.05469L28.5391 4.39844L28.0391 5.24219C27.9748 5.34664 27.9362 5.46488 27.9268 5.58715C27.9173 5.70941 27.9369 5.83218 27.9844 5.94531C28.031 6.05809 28.1034 6.15845 28.1956 6.23846C28.2878 6.31846 28.3974 6.3759 28.5156 6.40625L29.4688 6.64062V8.54688Z" fill="#1E1D28"/>
<path d="M6.8125 9.15625V12.2812H8.375V9.15625C8.375 8.94905 8.45731 8.75034 8.60382 8.60382C8.75034 8.45731 8.94905 8.375 9.15625 8.375H15.4062V6.8125H9.15625C8.53465 6.8125 7.93851 7.05943 7.49897 7.49897C7.05943 7.93851 6.8125 8.53465 6.8125 9.15625Z" fill="#1E1D28"/>
<path d="M39.625 9.15625V12.2812H41.1875V9.15625C41.1875 8.53465 40.9405 7.93851 40.5009 7.49897C40.0615 7.05943 39.4654 6.8125 38.8438 6.8125H32.5938V8.375H38.8438C39.051 8.375 39.2496 8.45731 39.3961 8.60382C39.5426 8.75034 39.625 8.94905 39.625 9.15625Z" fill="#1E1D28"/>
<path d="M6.8125 13.8438H8.375V15.4062H6.8125V13.8438Z" fill="#1E1D28"/>
<path d="M39.625 32.5938H41.1875V34.1562H39.625V32.5938Z" fill="#1E1D28"/>
<path d="M39.625 13.8438H41.1875V15.4062H39.625V13.8438Z" fill="#1E1D28"/>
</g>
<defs>
<linearGradient id="paint0_linear_943_4416" x1="24" y1="16.1875" x2="24" y2="31.8125" gradientUnits="userSpaceOnUse">
<stop stop-color="#E8344B"/>
<stop offset="1" stop-color="#E97528"/>
</linearGradient>
<clipPath id="clip0_943_4416">
<rect width="48" height="48" fill="white"/>
</clipPath>
</defs>
</svg>
