<svg width="137" height="86" viewBox="0 0 137 86" fill="none" xmlns="http://www.w3.org/2000/svg">
<g clip-path="url(#clip0_221_41931)">
<path d="M136.06 0.150391H0.0600586V85.1504H136.06V0.150391Z" fill="white"/>
<mask id="mask0_221_41931" style="mask-type:luminance" maskUnits="userSpaceOnUse" x="23" y="4" width="91" height="77">
<path d="M113.601 4.73535H23.2944V80.5661H113.601V4.73535Z" fill="white"/>
</mask>
<g mask="url(#mask0_221_41931)">
<path d="M104.862 22.1367C109.668 22.1367 113.563 18.2412 113.563 13.436C113.563 8.63074 109.668 4.73535 104.862 4.73535C100.057 4.73535 96.1616 8.63074 96.1616 13.436C96.1616 18.2412 100.057 22.1367 104.862 22.1367Z" fill="black"/>
<path d="M90.2383 8.56055H68.8619L59.4858 80.5659H73.7369L75.2369 70.8152L83.8627 71.1904L85.3627 80.5659H99.2392L90.2383 8.56055ZM76.3623 58.0641L79.7374 28.4371L82.7379 58.0641H76.3623Z" fill="black"/>
<path d="M46.4712 8.56055H37.1705H23.2944V62.602V80.5659H37.1705V62.602H46.4712C52.6592 62.602 57.7223 57.5394 57.7223 51.3513V19.8114C57.7223 13.6609 52.6592 8.56055 46.4712 8.56055ZM43.5085 48.6511C43.5085 49.8137 42.5709 50.7513 41.4083 50.7513H37.8455V21.199H41.4083C42.5709 21.199 43.5085 22.1366 43.5085 23.2992V48.6511Z" fill="black"/>
</g>
</g>
<defs>
<clipPath id="clip0_221_41931">
<rect width="136" height="85" fill="white" transform="translate(0.0600586 0.150391)"/>
</clipPath>
</defs>
</svg>
