<svg width="42" height="46" viewBox="0 0 42 46" fill="none" xmlns="http://www.w3.org/2000/svg">
<g clip-path="url(#clip0_943_4440)">
<path d="M3.8125 5.03125H5.375V6.59375H3.8125V5.03125Z" fill="#1E1D28"/>
<path d="M6.9375 5.03125H8.5V6.59375H6.9375V5.03125Z" fill="#1E1D28"/>
<path d="M10.0625 5.03125H11.625V6.59375H10.0625V5.03125Z" fill="#1E1D28"/>
<path d="M20.4721 27.3006C20.4306 27.4277 20.4225 27.5634 20.4485 27.6946C20.4745 27.8258 20.5337 27.9481 20.6205 28.0498L22.6932 30.4764L22.4432 33.6584C22.4331 33.7915 22.4572 33.9249 22.5133 34.046C22.5694 34.167 22.6555 34.2717 22.7635 34.3501C22.8716 34.4284 22.9979 34.4778 23.1304 34.4934C23.2629 34.5091 23.3972 34.4906 23.5205 34.4396L26.469 33.2201L29.4174 34.4412C29.5121 34.4801 29.6135 34.5003 29.7158 34.5007C29.8238 34.501 29.9306 34.4789 30.0296 34.4359C30.1286 34.3928 30.2176 34.3298 30.291 34.2507C30.3644 34.1715 30.4206 34.0781 30.4561 33.9761C30.4915 33.8742 30.5055 33.766 30.4971 33.6584L30.2471 30.4764L32.3197 28.0498C32.4066 27.9481 32.4659 27.8258 32.4919 27.6946C32.518 27.5635 32.5099 27.4278 32.4685 27.3006C32.4271 27.1735 32.3538 27.0591 32.2555 26.9684C32.1572 26.8777 32.0373 26.8138 31.9072 26.7826L28.8049 26.0373L27.1377 23.317C27.063 23.2095 26.9633 23.1217 26.8473 23.061C26.7312 23.0004 26.6022 22.9688 26.4713 22.9688C26.3404 22.9688 26.2114 23.0004 26.0953 23.061C25.9793 23.1217 25.8797 23.2095 25.8049 23.317L24.1377 26.0373L21.0354 26.7826C20.9049 26.8135 20.7846 26.8772 20.686 26.9679C20.5873 27.0586 20.5137 27.1732 20.4721 27.3006ZM24.8143 27.4811C25.0157 27.4326 25.1897 27.3062 25.2979 27.1295L26.469 25.2201L27.6408 27.1295C27.749 27.3062 27.923 27.4326 28.1244 27.4811L30.3026 28.0045L28.8471 29.7084C28.7135 29.8662 28.6473 30.0702 28.6627 30.2764L28.8385 32.51L26.7682 31.6507C26.5771 31.5716 26.3624 31.5716 26.1713 31.6507L24.101 32.51L24.2768 30.2764C24.2922 30.0702 24.226 29.8662 24.0924 29.7084L22.6369 28.0045L24.8143 27.4811Z" fill="#1E1D28"/>
<path d="M38.1875 1.90625H36.4813C36.3202 1.45085 36.0225 1.05632 35.6287 0.776631C35.2349 0.496941 34.7643 0.345752 34.2812 0.34375H31.9375C31.4545 0.345752 30.9839 0.496941 30.5901 0.776631C30.1963 1.05632 29.8985 1.45085 29.7375 1.90625H23.2C23.039 1.45085 22.7412 1.05632 22.3474 0.776631C21.9536 0.496941 21.483 0.345752 21 0.34375H18.6562C18.1732 0.345752 17.7026 0.496941 17.3088 0.776631C16.915 1.05632 16.6173 1.45085 16.4563 1.90625H3.8125C2.9837 1.90625 2.18884 2.23549 1.60279 2.82154C1.01674 3.40759 0.6875 4.20245 0.6875 5.03125V39.4062C0.6875 40.2351 1.01674 41.0299 1.60279 41.616C2.18884 42.202 2.9837 42.5312 3.8125 42.5312H38.1875C39.0163 42.5312 39.8112 42.202 40.3972 41.616C40.9833 41.0299 41.3125 40.2351 41.3125 39.4062V5.03125C41.3125 4.20245 40.9833 3.40759 40.3972 2.82154C39.8112 2.23549 39.0163 1.90625 38.1875 1.90625ZM39.75 5.03125V8.15625H36.625V3.46875H38.1875C38.6019 3.46875 38.9993 3.63337 39.2924 3.9264C39.5854 4.21942 39.75 4.61685 39.75 5.03125ZM31.1562 11.2812V2.6875C31.1562 2.4803 31.2386 2.28159 31.3851 2.13507C31.5316 1.98856 31.7303 1.90625 31.9375 1.90625H34.2812C34.4884 1.90625 34.6872 1.98856 34.8337 2.13507C34.9802 2.28159 35.0625 2.4803 35.0625 2.6875V12.5203L30.8328 16.75H29.1359L27.5734 15.1875L30.9273 11.8336C31.0739 11.6871 31.1562 11.4884 31.1562 11.2812ZM26.4688 21.4375C28.0139 21.4375 29.5244 21.8957 30.8091 22.7541C32.0939 23.6126 33.0952 24.8327 33.6866 26.2603C34.2779 27.6878 34.4326 29.2587 34.1311 30.7741C33.8297 32.2896 33.0856 33.6817 31.993 34.7743C30.9004 35.8669 29.5084 36.6109 27.9929 36.9124C26.4774 37.2138 24.9066 37.0591 23.479 36.4678C22.0515 35.8765 20.8313 34.8752 19.9729 33.5904C19.1144 32.3056 18.6562 30.7952 18.6562 29.25C18.6585 27.1787 19.4824 25.1929 20.947 23.7282C22.4116 22.2636 24.3974 21.4398 26.4688 21.4375ZM26.4688 19.875C25.1195 19.8763 23.7866 20.1708 22.5625 20.7383V18.3125H30.375V20.7383C29.1509 20.1708 27.818 19.8763 26.4688 19.875ZM23.3438 9.71875H29.5938V10.9578L26.4688 14.0828L23.3438 10.9578V9.71875ZM29.5938 8.15625H23.3438V3.46875H29.5938V8.15625ZM17.875 2.6875C17.875 2.4803 17.9573 2.28159 18.1038 2.13507C18.2503 1.98856 18.449 1.90625 18.6562 1.90625H21C21.2072 1.90625 21.4059 1.98856 21.5524 2.13507C21.6989 2.28159 21.7812 2.4803 21.7812 2.6875V11.2812C21.7813 11.4884 21.8636 11.6871 22.0102 11.8336L26.9266 16.75H22.1047L17.875 12.5203V2.6875ZM3.8125 3.46875H16.3125V8.15625H2.25V5.03125C2.25 4.61685 2.41462 4.21942 2.70765 3.9264C3.00067 3.63337 3.3981 3.46875 3.8125 3.46875ZM38.1875 40.9688H3.8125C3.3981 40.9688 3.00067 40.8041 2.70765 40.5111C2.41462 40.2181 2.25 39.8207 2.25 39.4062V9.71875H16.3125V12.8438C16.3125 13.0509 16.3949 13.2496 16.5414 13.3961L21 17.8547V21.6508C19.3884 22.8082 18.1855 24.4472 17.5646 26.3317C16.9437 28.2163 16.9367 30.2492 17.5447 32.138C18.1526 34.0268 19.3442 35.6739 20.9479 36.8424C22.5515 38.0109 24.4845 38.6405 26.4688 38.6405C28.453 38.6405 30.386 38.0109 31.9896 36.8424C33.5933 35.6739 34.7849 34.0268 35.3928 32.138C36.0008 30.2492 35.9938 28.2163 35.3729 26.3317C34.752 24.4472 33.5491 22.8082 31.9375 21.6508V17.8547L36.3961 13.3961C36.5426 13.2496 36.625 13.0509 36.625 12.8438V9.71875H39.75V39.4062C39.75 39.8207 39.5854 40.2181 39.2924 40.5111C38.9993 40.8041 38.6019 40.9688 38.1875 40.9688Z" fill="#1E1D28"/>
<path d="M4.59375 44.0938H28.0312V45.6562H4.59375V44.0938Z" fill="#1E1D28"/>
<path d="M29.5938 44.0938H31.1562V45.6562H29.5938V44.0938Z" fill="#1E1D28"/>
<path d="M4.59375 12.8438V20.6562C4.59375 20.8635 4.67606 21.0622 4.82257 21.2087C4.96909 21.3552 5.1678 21.4375 5.375 21.4375H14.75V19.875H6.15625V13.625H14.75V12.0625H5.375C5.1678 12.0625 4.96909 12.1448 4.82257 12.2913C4.67606 12.4378 4.59375 12.6365 4.59375 12.8438Z" fill="url(#paint0_linear_943_4440)"/>
<path d="M4.59375 23.7812H6.15625V25.3438H4.59375V23.7812Z" fill="url(#paint1_linear_943_4440)"/>
<path d="M7.71875 23.7812H14.75V25.3438H7.71875V23.7812Z" fill="url(#paint2_linear_943_4440)"/>
<path d="M4.59375 26.9062H14.75V28.4688H4.59375V26.9062Z" fill="url(#paint3_linear_943_4440)"/>
<path d="M4.59375 30.0312H14.75V31.5938H4.59375V30.0312Z" fill="url(#paint4_linear_943_4440)"/>
<path d="M4.59375 33.1562H14.75V34.7188H4.59375V33.1562Z" fill="url(#paint5_linear_943_4440)"/>
<path d="M4.59375 37.0625H6.15625V38.625H4.59375V37.0625Z" fill="#1E1D28"/>
<path d="M7.71875 37.0625H9.28125V38.625H7.71875V37.0625Z" fill="#1E1D28"/>
<path d="M10.8438 37.0625H12.4062V38.625H10.8438V37.0625Z" fill="#1E1D28"/>
</g>
<defs>
<linearGradient id="paint0_linear_943_4440" x1="9.67188" y1="12.0625" x2="9.67188" y2="21.4375" gradientUnits="userSpaceOnUse">
<stop stop-color="#E93849"/>
<stop offset="1" stop-color="#E9732A"/>
</linearGradient>
<linearGradient id="paint1_linear_943_4440" x1="5.375" y1="23.7812" x2="5.375" y2="25.3438" gradientUnits="userSpaceOnUse">
<stop stop-color="#E93849"/>
<stop offset="1" stop-color="#E9732A"/>
</linearGradient>
<linearGradient id="paint2_linear_943_4440" x1="11.2344" y1="23.7812" x2="11.2344" y2="25.3438" gradientUnits="userSpaceOnUse">
<stop stop-color="#E93849"/>
<stop offset="1" stop-color="#E9732A"/>
</linearGradient>
<linearGradient id="paint3_linear_943_4440" x1="9.67188" y1="26.9062" x2="9.67188" y2="28.4688" gradientUnits="userSpaceOnUse">
<stop stop-color="#E93849"/>
<stop offset="1" stop-color="#E9732A"/>
</linearGradient>
<linearGradient id="paint4_linear_943_4440" x1="9.67188" y1="30.0312" x2="9.67188" y2="31.5938" gradientUnits="userSpaceOnUse">
<stop stop-color="#E93849"/>
<stop offset="1" stop-color="#E9732A"/>
</linearGradient>
<linearGradient id="paint5_linear_943_4440" x1="9.67188" y1="33.1562" x2="9.67188" y2="34.7188" gradientUnits="userSpaceOnUse">
<stop stop-color="#E93849"/>
<stop offset="1" stop-color="#E9732A"/>
</linearGradient>
<clipPath id="clip0_943_4440">
<rect width="42" height="46" fill="white"/>
</clipPath>
</defs>
</svg>
