<svg width="55" height="80" viewBox="0 0 55 80" fill="none" xmlns="http://www.w3.org/2000/svg">
<g id="safeside-1">
<path id="Vector" d="M21.4901 14.308C20.9606 14.4496 20.5788 14.6775 20.2339 15.0716C19.8152 15.5519 19.6797 15.946 19.6797 16.6603C19.6797 17.3931 19.8275 17.8118 20.2586 18.2798C21.5456 19.6899 23.8794 19.1604 24.4089 17.3438C24.7291 16.2477 24.2119 15.01 23.2205 14.5051C22.9495 14.3696 22.2906 14.1972 22.0443 14.2033C21.9581 14.2033 21.7118 14.2526 21.4901 14.308Z" fill="#007A9C"/>
<path id="Vector_2" d="M33.715 14.3784C32.5574 14.7787 31.8061 16.0041 32.0155 17.1617C32.1633 18.0115 32.6498 18.6642 33.4256 19.046C33.8752 19.2677 33.9183 19.28 34.5094 19.28C35.0821 19.28 35.1621 19.2615 35.5501 19.0829C35.8087 18.9598 36.092 18.7566 36.3075 18.5472C37.6314 17.2233 37.0895 14.9942 35.2976 14.3784C34.8666 14.2306 34.1399 14.2306 33.715 14.3784Z" fill="#011D35"/>
<path id="Vector_3" d="M29.7718 16.6026C29.5747 16.6827 29.3284 17.0152 29.2791 17.2553C29.2483 17.4278 29.2853 17.6002 29.4269 17.982C29.9627 19.3921 30.1289 20.7837 29.9688 22.5449C29.8087 24.3245 29.4639 25.9255 28.8543 27.7236C28.6695 28.2716 28.5156 28.8012 28.5156 28.8936C28.5156 29.1152 28.7065 29.4293 28.9097 29.5648C29.1683 29.731 29.507 29.7495 29.7902 29.6079C30.0119 29.4909 30.0858 29.3862 30.56 28.4748C32.4442 24.8356 34.7288 22.3232 37.0441 21.3441C37.6106 21.1101 37.8446 20.9192 37.9432 20.6236C38.1217 20.0756 37.6968 19.4968 37.118 19.4968C36.9949 19.4968 36.4961 19.663 35.9911 19.8662C34.6303 20.4204 34.0206 20.5313 33.3741 20.3342C32.3888 20.0325 31.9208 19.4906 31.2866 17.8957C31.0711 17.3723 30.8555 16.892 30.8001 16.8243C30.5784 16.5718 30.1043 16.4671 29.7718 16.6026Z" fill="#011D35"/>
<path id="Vector_4" d="M26.0133 16.7175C25.8594 16.8099 25.7485 17.0008 25.4098 17.8074C24.7571 19.3407 24.283 19.9257 23.464 20.2398C23.0514 20.3999 22.2263 20.4307 21.7706 20.3013C21.6043 20.2521 21.0501 20.0366 20.5514 19.821C20.0156 19.5932 19.5476 19.4331 19.4245 19.4331C18.821 19.4331 18.4639 20.0427 18.7471 20.5908C18.8272 20.7447 18.9996 20.8555 19.6031 21.145C20.4405 21.5514 21.1179 22.0132 21.863 22.6906C23.2608 23.9529 24.8002 26.1389 25.9394 28.4481C26.4259 29.4395 26.5614 29.5935 26.9739 29.5935C27.3803 29.5935 27.7744 29.2178 27.7744 28.8299C27.7744 28.7437 27.7067 28.4912 27.6205 28.2634C27.2018 27.1488 26.703 25.0428 26.5183 23.5711C26.4074 22.7029 26.3889 20.6954 26.4813 20.0181C26.5675 19.4146 26.7584 18.7065 27.0109 18.0599C27.2449 17.4503 27.2633 17.2902 27.1279 17.0069C26.9431 16.619 26.4013 16.4774 26.0133 16.7175Z" fill="#007A9C"/>
<path id="Vector_5" d="M16.3852 22.0024C16.2743 22.0578 16.1265 22.1933 16.065 22.2918C15.8371 22.6674 15.8494 22.7844 16.2743 23.8682C16.496 24.4285 16.7054 25.0074 16.7485 25.1551C16.8224 25.4446 16.8408 26.2204 16.7731 26.5037C16.693 26.8301 16.3605 27.3781 16.0773 27.6429C15.6893 28.0062 15.3814 28.1786 14.3777 28.585C13.2385 29.0407 13.1954 29.0653 13.0538 29.3486C12.8998 29.6503 12.8998 29.8412 13.0476 30.143C13.3124 30.6541 13.7558 30.728 14.5871 30.4016C15.7078 29.9644 17.2103 29.7797 18.7066 29.8966C20.6587 30.0568 22.4383 30.4324 24.341 31.1036C25.2154 31.4115 25.3447 31.4299 25.6526 31.2822C25.942 31.1405 26.1083 30.8511 26.1083 30.4693C26.1083 30.026 25.9544 29.872 25.0184 29.3979C22.8324 28.2895 21.0897 27.0456 19.6734 25.58C18.8298 24.7179 18.2756 23.9421 17.8753 23.08C17.7276 22.7536 17.5675 22.4149 17.5305 22.341C17.3519 21.9716 16.7731 21.7992 16.3852 22.0024Z" fill="#011D35"/>
<path id="Vector_6" d="M39.2793 22.3468C39.1685 22.4207 39.0391 22.5561 38.996 22.6362C38.9529 22.7224 38.7928 23.0549 38.6327 23.3813C37.6475 25.4441 35.0674 27.6671 31.7114 29.3605C31.1079 29.6684 30.5599 29.9886 30.4675 30.0933C30.1658 30.4135 30.2705 30.98 30.6646 31.2201C30.9109 31.3618 31.1941 31.3433 31.7791 31.1339C32.906 30.7398 34.5193 30.3519 35.911 30.1364C37.081 29.9578 39.3162 29.9393 40.1907 30.1056C40.8557 30.2287 41.453 30.4073 41.9333 30.6228C42.703 30.9677 43.288 30.6783 43.288 29.9578C43.288 29.5699 43.0479 29.379 42.0257 28.9479C40.9542 28.4922 40.7202 28.3629 40.3015 27.9811C40.0675 27.7656 39.8951 27.5316 39.735 27.2053C39.5133 26.7619 39.501 26.7126 39.5071 26.1523C39.5133 25.4626 39.5626 25.2779 40.0798 24.0709C40.5601 22.9502 40.5663 22.667 40.0921 22.3468C39.8273 22.1682 39.5441 22.1682 39.2793 22.3468Z" fill="#007A9C"/>
<path id="Vector_7" d="M12.8399 22.8622C11.7131 23.1147 10.9926 23.7797 10.7463 24.7958C10.3276 26.5138 11.8362 28.1517 13.585 27.8685C15.6171 27.536 16.4361 25.0421 14.9828 23.5888C14.4225 23.0346 13.4927 22.7144 12.8399 22.8622Z" fill="#011D35"/>
<path id="Vector_8" d="M42.7805 23.2516C42.0662 23.3747 41.3273 23.9351 41.0379 24.5694C40.5268 25.6839 40.8655 26.9955 41.8261 27.6421C42.3125 27.9685 42.7066 28.0731 43.3409 28.0423C44.0244 28.0116 44.4924 27.8145 44.9419 27.3588C45.4222 26.8724 45.5885 26.4783 45.6193 25.7948C45.6501 25.1112 45.5331 24.674 45.1944 24.2245C44.6217 23.461 43.698 23.0915 42.7805 23.2516Z" fill="#007A9C"/>
<path id="Vector_9" d="M30.7699 32.1448C30.4558 32.2618 30.308 32.4034 30.228 32.6805C30.1418 32.9576 30.1972 33.284 30.3573 33.4934C30.425 33.5796 30.9361 33.8813 31.4842 34.1707C34.951 35.9626 37.5496 38.3087 38.4979 40.5071C38.6334 40.8211 38.7811 41.129 38.8242 41.1906C39.2614 41.8125 40.2898 41.5416 40.376 40.7903C40.4006 40.5687 40.3452 40.3716 40.0373 39.5957C39.5447 38.3765 39.4523 37.9947 39.4831 37.4159C39.5139 36.837 39.7171 36.369 40.1174 35.9442C40.5238 35.507 40.8502 35.3161 41.9647 34.8604C43.1347 34.3862 43.2948 34.2569 43.3317 33.7705C43.3625 33.3579 43.2086 33.0869 42.8514 32.9268C42.5497 32.7914 42.3773 32.8037 41.8046 33.0315C40.7886 33.4318 39.9511 33.5611 38.3932 33.5611C36.3919 33.5549 34.3783 33.1793 32.0076 32.3665C31.5088 32.2002 31.0777 32.0586 31.0531 32.0586C31.0285 32.0647 30.8992 32.1017 30.7699 32.1448Z" fill="#011D35"/>
<path id="Vector_10" d="M24.2645 32.4065C22.8913 32.8745 21.0871 33.2625 19.5969 33.4226C18.6979 33.5149 16.635 33.4657 16.0131 33.3302C15.4096 33.207 14.8431 33.0346 14.3505 32.8314C13.6916 32.5543 13.2236 32.6959 13.0512 33.2194C12.9527 33.5149 13.0635 33.8598 13.3221 34.0507C13.433 34.1307 13.8086 34.3154 14.1658 34.4632C15.1941 34.882 15.6436 35.1283 16.0254 35.4977C16.5365 35.978 16.7643 36.4707 16.8013 37.1357C16.8382 37.8192 16.7643 38.1025 16.2532 39.3402C15.7668 40.504 15.7545 40.6518 16.0685 41.0028C16.204 41.1506 16.2963 41.1937 16.5427 41.2183C17.0291 41.2614 17.1646 41.1321 17.6018 40.2331C18.0821 39.254 18.6733 38.4596 19.6523 37.5113C20.9701 36.2305 22.6266 35.0913 24.6586 34.063C25.336 33.7243 25.8101 33.4472 25.8779 33.3487C26.0318 33.1455 26.038 32.6898 25.8902 32.4619C25.7547 32.2526 25.4899 32.1233 25.2375 32.1356C25.1266 32.1356 24.6894 32.2587 24.2645 32.4065Z" fill="#007A9C"/>
<path id="Vector_11" d="M26.6362 33.8132C26.5069 33.8563 26.3591 33.9363 26.316 33.9794C26.2729 34.0225 26.0635 34.4043 25.848 34.8292C23.9576 38.5239 21.5437 41.184 19.2038 42.1508C18.6064 42.3971 18.4032 42.6065 18.3601 43.0067C18.3293 43.3762 18.4525 43.6533 18.7358 43.8196C19.0744 44.0289 19.37 43.9797 20.4723 43.5425C21.0265 43.3208 21.6546 43.1053 21.8701 43.0745C22.6829 42.939 23.4465 43.1915 24.0253 43.7765C24.4256 44.1829 24.6226 44.5462 25.0844 45.6915C25.2692 46.1595 25.4724 46.5967 25.5278 46.6583C25.5832 46.7199 25.7495 46.8184 25.9034 46.8738C26.2359 47.0031 26.55 46.9292 26.8086 46.6583C27.0919 46.3627 27.0919 46.0056 26.8271 45.2913C26.55 44.5647 26.4392 44.072 26.3591 43.2715C26.1374 41.1471 26.5131 38.5608 27.4367 35.8144C27.8062 34.7307 27.8493 34.4105 27.6584 34.158C27.3875 33.7947 27.0241 33.6715 26.6362 33.8132Z" fill="#011D35"/>
<path id="Vector_12" d="M29.0256 33.9303C28.5391 34.1458 28.4591 34.5399 28.7546 35.3835C30.0416 39.109 30.2695 42.9884 29.3335 45.2976C29.2042 45.6178 29.0995 45.9873 29.0995 46.1104C29.0933 46.3937 29.2719 46.6461 29.5798 46.8001C29.7768 46.8986 29.8507 46.9048 30.0478 46.8432C30.1771 46.8062 30.3433 46.7139 30.4172 46.6338C30.485 46.5599 30.719 46.0919 30.9345 45.5993C31.4086 44.4848 31.655 44.0722 32.0491 43.7089C32.5232 43.284 32.9173 43.13 33.6255 43.0931C34.3398 43.0623 34.5553 43.1177 35.7868 43.6411C36.7351 44.0476 37.043 44.103 37.3263 43.9182C37.6834 43.6842 37.7758 43.13 37.511 42.7791C37.4494 42.6928 37.1785 42.5266 36.9076 42.4034C35.8361 41.9231 35.0356 41.3566 34.0503 40.3714C32.7141 39.029 31.5318 37.3171 30.4296 35.1188C30.1463 34.5461 29.8569 34.0473 29.783 33.998C29.5736 33.8687 29.2411 33.8379 29.0256 33.9303Z" fill="#007A9C"/>
<path id="Vector_13" d="M12.4071 35.4671C11.157 35.8858 10.4674 37.0311 10.7075 38.2935C10.8122 38.8169 11.04 39.211 11.4649 39.6051C12.6657 40.7135 14.5746 40.3317 15.2951 38.8354C15.4675 38.4721 15.486 38.3797 15.486 37.8193C15.486 37.2528 15.4675 37.1666 15.2889 36.791C15.0426 36.2614 14.6362 35.8612 14.1128 35.6148C13.7741 35.4547 13.614 35.4178 13.1768 35.4055C12.8566 35.3932 12.5548 35.4178 12.4071 35.4671Z" fill="#007A9C"/>
<path id="Vector_14" d="M42.3981 35.6468C41.5299 35.9362 40.8895 36.5951 40.6678 37.4264C40.1628 39.3353 41.9732 41.0779 43.8575 40.4929C45.3046 40.0496 46.0374 38.3931 45.397 37.0261C45.1507 36.4904 44.7073 36.047 44.1654 35.7945C43.8144 35.6283 43.6728 35.5975 43.1986 35.5852C42.86 35.5729 42.5521 35.5975 42.3981 35.6468Z" fill="#011D35"/>
<path id="Vector_15" d="M21.3391 44.1929C20.5693 44.316 19.8612 44.8826 19.4979 45.6523C19.3193 46.0279 19.3008 46.1141 19.3008 46.6868C19.3008 47.2779 19.3131 47.321 19.5348 47.7706C20.4031 49.5317 22.7677 49.7041 23.8884 48.0908C24.9291 46.6006 24.0054 44.4823 22.1827 44.1867C21.7824 44.119 21.764 44.119 21.3391 44.1929Z" fill="#011D35"/>
<path id="Vector_16" d="M33.5308 44.4534C32.7118 44.7243 31.9975 45.4879 31.8744 46.2268C31.7943 46.6763 31.7943 46.7564 31.8374 47.1197C31.9667 48.1727 32.7488 48.9855 33.8264 49.1825C35.1503 49.4288 36.4557 48.4929 36.6405 47.1566C36.7821 46.1036 36.2402 45.0691 35.2981 44.6073C34.9532 44.4349 34.8239 44.4041 34.3375 44.3918C33.9926 44.3795 33.6847 44.4041 33.5308 44.4534Z" fill="#007A9C"/>
<path id="Vector_17" d="M18.4732 55.9345C18.2515 55.9899 17.9497 56.1131 17.7958 56.2055C17.4079 56.4333 16.9583 56.9321 16.7613 57.3508C16.6135 57.6649 16.595 57.788 16.5642 58.6255L16.5335 59.5491L16.0901 59.5676L15.6406 59.5861V60.1033V60.6206L16.0901 60.6391L16.5335 60.6575L16.5519 63.7795L16.5642 66.9077H17.0877H17.6111V63.7672V60.6268H18.3377H19.0581L19.0397 60.1033L19.0212 59.5861L18.3315 59.5676L17.6419 59.5491L17.6234 58.8841C17.6049 58.0405 17.6665 57.7942 18.0236 57.4124C18.2515 57.1784 18.3869 57.0922 18.6702 57.006L19.0274 56.9013V56.3594C19.0274 55.7559 19.0643 55.7806 18.4732 55.9345Z" fill="#011D35"/>
<path id="Vector_18" d="M44.7098 58.2286C44.7098 59.5156 44.6913 60.5686 44.6728 60.5686C44.6543 60.5686 44.5189 60.4701 44.3834 60.3469C43.7984 59.8481 42.8747 59.5279 42.0188 59.5218C41.4154 59.5218 41.0213 59.6141 40.4055 59.8974C39.9744 60.1006 39.802 60.2299 39.3894 60.6487C38.5643 61.4861 38.2626 62.2743 38.3241 63.4628C38.3796 64.4973 38.6998 65.2177 39.4325 65.932C40.4547 66.9296 41.8833 67.2437 43.2688 66.788C43.6753 66.6525 44.291 66.283 44.4881 66.0614C44.5558 65.9875 44.6297 65.9259 44.6605 65.9259C44.6851 65.9259 44.7098 66.1476 44.7098 66.4185V66.9111H45.2332H45.7566V61.3999V55.8887H45.2332H44.7098V58.2286ZM43.1334 60.8026C43.6876 61.0612 44.2171 61.597 44.4758 62.1512C44.642 62.5022 44.679 62.6623 44.6975 63.1241C44.7344 64.0047 44.4758 64.6266 43.8046 65.2547C43.2873 65.7411 42.8009 65.9259 42.0311 65.932C41.1937 65.932 40.6764 65.7042 40.073 65.0699C39.568 64.5465 39.4018 64.1401 39.3648 63.3889C39.3463 62.9332 39.3648 62.7238 39.4449 62.4652C39.685 61.7509 40.2454 61.1166 40.9104 60.8149C41.4092 60.5871 41.4954 60.5748 42.1604 60.5932C42.6408 60.6117 42.7885 60.6425 43.1334 60.8026Z" fill="#007A9C"/>
<path id="Vector_19" d="M35.8699 57.0087C35.6359 57.1319 35.5312 57.3228 35.5312 57.6245C35.5312 57.8585 35.5681 57.957 35.7036 58.1048C36.2086 58.6775 37.1384 58.0864 36.8551 57.3782C36.7012 56.9964 36.2147 56.8179 35.8699 57.0087Z" fill="#007A9C"/>
<path id="Vector_20" d="M2.11212 59.5296C1.66876 59.6035 1.24387 59.776 0.899038 60.01C-0.0862091 60.6935 -0.295574 62.1712 0.492623 62.9533C0.954458 63.4151 1.54561 63.6429 2.61706 63.7723C3.37447 63.8585 3.64541 63.9386 3.90404 64.1541C4.43977 64.5913 4.29198 65.3979 3.61462 65.7551C3.40526 65.8659 3.25131 65.8905 2.8018 65.8967C1.97049 65.8967 1.45324 65.6442 1.16382 65.09C1.02835 64.8437 0.997562 64.8129 0.843617 64.8437C0.480308 64.9176 0 65.0778 0 65.1271C0 65.2995 0.289416 65.7982 0.560359 66.0814C1.15766 66.7157 1.83502 66.9866 2.8018 66.9866C3.49147 66.9866 3.87941 66.8758 4.40282 66.531C4.95702 66.1615 5.2957 65.4964 5.2957 64.7698C5.28954 63.6184 4.41514 62.8672 2.89416 62.7194C1.63181 62.5962 1.1084 62.2945 1.1084 61.6849C1.1084 61.1368 1.52713 60.755 2.26607 60.6257C2.99269 60.4964 3.69467 60.7857 4.07646 61.3769C4.18114 61.5431 4.27351 61.6786 4.27966 61.6786C4.34124 61.6786 5.15407 61.3522 5.19102 61.3091C5.34496 61.1614 4.55061 60.17 4.04567 59.8744C3.53457 59.5726 2.70327 59.425 2.11212 59.5296Z" fill="#011D35"/>
<path id="Vector_21" d="M9.6997 59.5291C8.68366 59.6831 7.77847 60.2434 7.175 61.087C6.83017 61.5735 6.66391 61.9553 6.55307 62.528C6.30675 63.8026 6.65775 64.9541 7.5691 65.8655C8.37577 66.6783 9.09008 66.9801 10.1924 66.9862C11.1715 66.9924 11.8796 66.7522 12.5939 66.1795L12.9018 65.9271L12.9203 66.4197L12.9387 66.9123H13.456H13.9794V63.2484V59.5845H13.456H12.9326V60.0772C12.9326 60.3481 12.9141 60.5698 12.8956 60.5698C12.8772 60.5698 12.7355 60.459 12.5754 60.3235C11.8858 59.7139 10.6727 59.3752 9.6997 59.5291ZM10.9067 60.6683C11.3562 60.7792 11.7934 61.0501 12.1629 61.438C13.1604 62.4849 13.1666 64.0736 12.1752 65.0896C11.7811 65.4837 11.4178 65.7054 10.9313 65.8285C9.77359 66.1364 8.60361 65.6684 7.95704 64.6463C7.50752 63.9443 7.44595 62.9221 7.80925 62.1523C8.3573 60.9762 9.67507 60.3481 10.9067 60.6683Z" fill="#011D35"/>
<path id="Vector_22" d="M23.0673 59.5471C21.6325 59.7995 20.4502 60.8587 20.0499 62.2503C19.9822 62.4782 19.9453 62.8292 19.9453 63.2479C19.9453 63.9868 20.0438 64.3994 20.364 65.009C20.8074 65.8465 21.5894 66.5115 22.5131 66.8256C23.1843 67.0472 24.0895 67.0596 24.7299 66.8564C25.2471 66.6901 25.8013 66.3884 26.1646 66.0743C26.4787 65.8095 27.0637 65.0029 26.9959 64.9351C26.8851 64.8243 26.0292 64.4979 26.0045 64.5595C25.9429 64.7565 25.5735 65.163 25.2533 65.397C24.7237 65.7911 24.3666 65.8957 23.6215 65.8896C23.0919 65.8896 22.9564 65.8649 22.667 65.7295C21.7741 65.3107 21.2014 64.6026 21.0352 63.6912L20.9921 63.4634H24.2065H27.427L27.3962 62.9215C27.2915 61.1973 25.9614 59.7934 24.1633 59.5286C23.6461 59.4485 23.6338 59.4485 23.0673 59.5471ZM24.1818 60.637C24.9208 60.7725 25.6905 61.3328 26.0168 61.9732C26.1031 62.1456 26.1769 62.3181 26.1769 62.355C26.1769 62.3981 25.358 62.4166 23.6769 62.4166H21.1768L21.2199 62.2503C21.2753 62.0102 21.6633 61.456 21.9096 61.2528C22.2421 60.9757 22.7224 60.7355 23.098 60.6555C23.5353 60.5569 23.7323 60.5569 24.1818 60.637Z" fill="#011D35"/>
<path id="Vector_23" d="M30.6368 59.6066C29.6085 59.8653 28.9126 60.6227 28.8387 61.5833C28.7772 62.3407 29.1528 62.9811 29.8917 63.3506C30.2797 63.5476 31.1972 63.7693 31.6282 63.7693C32.2625 63.7693 32.8844 64.1265 33.0137 64.5637C33.1615 65.0624 32.7859 65.6844 32.2255 65.8506C31.8745 65.9553 31.228 65.943 30.8585 65.8198C30.4767 65.6967 30.0888 65.3826 29.9225 65.0501C29.8363 64.8777 29.7686 64.8161 29.6947 64.8408C29.6392 64.8531 29.4176 64.9147 29.2082 64.9762C28.9927 65.0316 28.8203 65.1055 28.8203 65.1363C28.8203 65.3149 29.1959 65.9061 29.473 66.1708C30.0826 66.7497 30.8523 67.0083 31.8129 66.959C33.0322 66.8913 33.8573 66.2201 34.0544 65.1302C34.1775 64.4405 33.9743 63.8617 33.4386 63.3814C33.0383 63.0181 32.5888 62.8518 31.7452 62.7471C30.4582 62.587 29.9533 62.3345 29.8856 61.8173C29.7993 61.1461 30.5013 60.5673 31.4004 60.5673C32.01 60.5673 32.5888 60.8751 32.8906 61.3616L33.0753 61.6572L33.5618 61.4786L34.0482 61.2939L33.8881 60.9798C33.6788 60.5611 33.1184 60.0069 32.6997 59.816C32.0716 59.5266 31.2895 59.4465 30.6368 59.6066Z" fill="#007A9C"/>
<path id="Vector_24" d="M50.0204 59.6094C49.848 59.6525 49.4847 59.788 49.2199 59.9173C48.8381 60.0959 48.6348 60.2498 48.2346 60.6562C47.6927 61.2043 47.4403 61.6415 47.2556 62.3558C47.1139 62.8977 47.1571 63.9507 47.3479 64.4925C47.6989 65.5024 48.6349 66.4384 49.6448 66.7894C50.1128 66.9495 51.1042 67.0172 51.6276 66.9187C52.2003 66.814 52.9331 66.4322 53.3949 65.995C53.8383 65.5825 54.2323 65.0283 54.146 64.9421C54.1153 64.9174 53.906 64.8066 53.6782 64.7081L53.2656 64.5233L53.1362 64.7204C52.7852 65.2931 51.9047 65.8473 51.2335 65.9212C50.4022 66.0135 49.7124 65.798 49.1213 65.2623C48.7026 64.8743 48.4379 64.4741 48.3086 64.0246C48.1238 63.4026 47.7728 63.4642 51.4182 63.4642H54.6325L54.5956 62.9531C54.5217 62.0048 54.2076 61.3336 53.5056 60.6255C52.7605 59.8742 51.9046 59.5232 50.827 59.5294C50.5561 59.5294 50.1928 59.5663 50.0204 59.6094ZM51.603 60.6686C52.2557 60.8594 52.7668 61.2412 53.1486 61.8262C53.5612 62.4666 53.7519 62.4174 50.8578 62.4174C49.4723 62.4174 48.3331 62.4051 48.3331 62.3866C48.3331 62.3681 48.4008 62.2203 48.4809 62.0602C48.8011 61.4321 49.5216 60.8287 50.1682 60.6562C50.5746 60.5454 51.2089 60.5516 51.603 60.6686Z" fill="#007A9C"/>
<path id="Vector_25" d="M35.7188 63.244V66.9079H36.2421H36.7655V63.244V59.5801H36.2421H35.7188V63.244Z" fill="#007A9C"/>
</g>
</svg>
