<svg width="97" height="80" viewBox="0 0 97 80" fill="none" xmlns="http://www.w3.org/2000/svg">
<g clip-path="url(#clip0_367_2142)">
<path d="M4.12023 49.7498C4.12023 49.8148 4.12023 49.8148 4.12023 49.8798C4.12023 49.9448 4.12023 50.0098 4.12023 50.0748C4.12023 50.1398 4.12023 50.2048 4.12023 50.2048L3.92709 51.1798C3.86271 51.4398 3.86271 51.5698 3.86271 51.6348C3.86271 51.6348 3.86271 51.6998 3.86271 51.7648H3.02576C3.02576 51.6998 3.02576 51.6998 3.02576 51.6348C3.02576 51.5698 3.02576 51.5698 3.02576 51.5048C2.89699 51.6348 2.83261 51.6998 2.70385 51.7648C2.63947 51.8298 2.51071 51.8298 2.31757 51.8298C2.12442 51.8298 1.93128 51.7648 1.8669 51.6348C1.73814 51.5048 1.67376 51.3748 1.67376 51.1798C1.67376 51.0498 1.67376 50.9848 1.73814 50.8548C1.80252 50.7248 1.8669 50.6598 1.93128 50.5298C2.06004 50.4648 2.12442 50.3998 2.25318 50.3348C2.38195 50.2698 2.51071 50.2698 2.63947 50.2048C2.76823 50.2048 2.96137 50.1398 3.15452 50.1398V50.0098C3.15452 49.9448 3.15452 49.8798 3.15452 49.8148C3.15452 49.6198 3.09014 49.5548 2.96137 49.5548C2.83261 49.5548 2.76823 49.5548 2.70385 49.6848C2.63947 49.8148 2.63947 49.8798 2.57509 50.0098L1.80252 49.8798C1.93128 49.3598 2.31757 49.0998 2.96137 49.0998C3.15452 49.0998 3.28328 49.0998 3.41204 49.1648C3.5408 49.2298 3.66957 49.2948 3.73395 49.4248C4.05585 49.4898 4.12023 49.6198 4.12023 49.7498ZM71.2696 27.2598H70.5614L68.1149 35.7098H70.6901L72.1065 42.0148H74.8749L71.2696 27.2598ZM67.3423 38.2448L66.2478 42.0148H69.0162L69.9819 38.2448C70.0463 38.2448 67.3423 38.2448 67.3423 38.2448ZM62.3206 38.2448H64.9602L65.604 35.7098H63.0288L62.3206 38.2448ZM91.8715 30.2498C92.2577 30.8348 92.2577 31.4848 92.3221 32.1348C92.3865 34.2148 92.3865 36.8148 92.2577 38.2448C92.129 38.8948 92.0646 39.5448 91.2277 39.9348C90.9057 39.9998 90.6482 40.1298 90.2619 40.1298V29.5348C90.9057 29.5348 91.5496 29.7948 91.8715 30.2498ZM87.6223 27.5848V42.0148C89.1031 42.0148 90.7126 42.1448 92.0002 41.8198C94.4467 41.1698 94.8974 38.9598 95.1549 37.0748C95.2836 34.8648 95.4124 31.6798 94.3179 29.4048C93.1591 27.3248 90.0688 27.6498 87.6223 27.5848ZM81.2486 29.4698C81.828 29.9248 81.8924 30.5748 81.9568 31.2248C82.2143 33.5648 82.2787 36.0998 81.9568 38.3748C81.828 39.1548 81.6993 40.3248 80.6048 40.3248C80.2829 40.3248 79.961 40.1948 79.7678 39.9998C79.3816 39.5448 79.3172 38.9598 79.2528 38.3098C78.9953 35.9048 78.8665 33.6298 79.2528 31.2898C79.3816 30.5748 79.5747 29.4698 80.476 29.3398C80.7336 29.2748 80.9911 29.2748 81.2486 29.4698ZM79.7678 27.3898C76.5488 28.2348 76.6132 31.2248 76.2913 33.5648C76.2269 35.9048 76.1625 38.3748 77.257 40.4548C77.8364 41.4298 79.0597 42.3398 80.476 42.2748C81.7637 42.2748 82.9225 41.7548 83.6951 40.7798C85.0471 38.4398 84.9827 35.6448 84.9183 32.9798C84.7252 31.4198 84.532 29.9248 83.5663 28.6248C82.7294 27.5198 81.2486 27.1298 79.7678 27.3898ZM58.7797 27.8448L58.1358 29.7298C57.6852 29.5998 57.2345 29.3398 56.6551 29.3398C56.0113 29.3398 55.5606 29.7948 55.3031 30.2498C54.7237 31.7448 54.788 33.4998 54.7237 35.2548C54.7237 36.7498 54.7237 38.3098 55.3031 39.6098C55.4962 39.9998 55.9469 40.2598 56.5263 40.2598C56.7195 40.1948 56.977 40.3248 57.1701 40.1948V35.7098C57.2989 35.1248 56.0113 34.4748 56.2688 33.8898H59.8098V41.2998C59.6166 41.5598 59.2303 41.6898 58.9084 41.8198C57.7496 42.2748 56.0113 42.4048 54.788 41.8848C52.3416 40.7798 52.2772 38.5048 52.084 36.4248C52.0197 33.7598 51.9553 31.0948 53.3073 28.8848C54.9168 26.8048 57.3633 27.1948 58.7797 27.8448ZM33.7355 27.3248L28.7781 34.4748L23.8208 27.3248H23.3701V42.0148H25.9454V35.1898L28.7781 39.2198L31.6109 35.1898V42.0148H34.1861V27.3248H33.7355ZM47.0623 34.4748V27.5848H49.5732V42.2098H49.1869L44.2296 35.1898V42.0148H41.6543V27.3248H42.105L47.0623 34.4748ZM39.0791 42.0148H36.4395V27.5848H39.0791V42.0148ZM20.2155 27.5848L20.988 29.4698H18.4772V33.7598H21.0524V35.7098H18.4772V40.1948H20.7949V41.9498H15.7088L15.7732 27.5198H20.2155V27.5848ZM11.3309 40.1298H13.7774V42.0148H8.88442V27.5848H11.3953V40.1298H11.3309ZM6.18042 27.5848C6.18042 27.5848 6.75985 28.9498 6.95299 29.4698H4.24899V33.7598H6.88861V35.6448H4.24899V41.9498H1.60938V27.5198H6.18042V27.5848ZM11.8459 49.7498C11.8459 49.8148 11.8459 49.8148 11.8459 49.8798C11.8459 49.9448 11.8459 50.0098 11.8459 50.0748C11.8459 50.1398 11.8459 50.2048 11.8459 50.2048L11.5884 51.1798C11.524 51.4398 11.524 51.5698 11.524 51.6348C11.524 51.6348 11.524 51.6998 11.524 51.7648H10.8159C10.8159 51.6998 10.8159 51.6998 10.8159 51.6348C10.8159 51.5698 10.8159 51.5698 10.8159 51.5048C10.6871 51.6348 10.6227 51.6998 10.4939 51.7648C10.4296 51.8298 10.3008 51.8298 10.1077 51.8298C9.91452 51.8298 9.72137 51.7648 9.65699 51.6348C9.52823 51.5048 9.46385 51.3748 9.46385 51.1798C9.46385 51.0498 9.46385 50.9848 9.52823 50.8548C9.59261 50.7248 9.65699 50.6598 9.72137 50.5298C9.85014 50.4648 9.91452 50.3998 10.0433 50.3348C10.172 50.2698 10.3008 50.2698 10.4939 50.2048C10.6227 50.2048 10.8159 50.1398 11.009 50.1398V50.0098C11.009 49.9448 11.009 49.8798 11.009 49.8148C11.009 49.6198 10.9446 49.5548 10.8159 49.5548C10.6871 49.5548 10.6227 49.5548 10.5583 49.6848C10.4939 49.7498 10.4939 49.8798 10.4296 50.0098L9.65699 49.8798C9.78576 49.3598 10.172 49.0998 10.8159 49.0998C11.009 49.0998 11.1378 49.0998 11.2665 49.1648C11.3953 49.2298 11.524 49.2948 11.5884 49.4248C11.7816 49.4898 11.8459 49.6198 11.8459 49.7498ZM10.9446 50.5298C10.8159 50.5298 10.6871 50.5948 10.5583 50.6598C10.4939 50.6598 10.4296 50.7248 10.4296 50.7898C10.3652 50.8548 10.3652 50.9198 10.3008 50.9848C10.3008 51.0498 10.2364 51.1148 10.2364 51.1798C10.2364 51.2448 10.2364 51.3098 10.3008 51.3748C10.3652 51.4398 10.4296 51.4398 10.4939 51.4398C10.6871 51.4398 10.8159 51.2448 10.8802 50.8548L10.9446 50.5298ZM14.6143 49.5548V49.6198C14.6143 49.7498 14.6143 49.8798 14.5499 50.1398L14.1637 51.7648H13.3911L13.713 50.1398C13.7774 49.9448 13.7774 49.8148 13.7774 49.6848V49.6198C13.7774 49.6198 13.713 49.6198 13.6486 49.6198C13.5842 49.6198 13.5198 49.6198 13.5198 49.6848C13.4555 49.7498 13.4555 49.7498 13.3911 49.8148C13.3911 49.8798 13.3267 50.0098 13.3267 50.1398L13.0048 51.7648H12.1678L12.6829 49.0998H13.4555L13.3911 49.4248C13.5198 49.2948 13.5842 49.1648 13.713 49.0998C13.8418 49.0348 13.9705 49.0348 14.0993 49.0348C14.1637 49.0348 14.2924 49.0348 14.3568 49.0998C14.4212 49.1648 14.4856 49.1648 14.5499 49.2298C14.5499 49.3598 14.6143 49.4248 14.6143 49.5548ZM17.2539 49.9448C17.2539 50.0098 17.2539 50.0098 17.2539 49.9448C17.2539 50.0098 17.2539 50.0098 17.2539 50.0098C17.2539 50.0098 17.2539 50.0098 17.2539 50.0748H16.5458C16.5458 50.0098 16.5458 49.9448 16.5458 49.8798C16.5458 49.6848 16.4814 49.5548 16.2882 49.5548C16.2238 49.5548 16.1595 49.6198 16.0951 49.6848C16.0307 49.7498 15.9663 49.8798 15.9663 50.0748C15.9019 50.2048 15.9019 50.4648 15.8376 50.7248C15.8376 50.9198 15.8376 50.9848 15.8376 51.0498C15.8376 51.1148 15.8376 51.1798 15.9019 51.2448C15.9019 51.3098 15.9663 51.3098 16.0951 51.3098C16.2238 51.3098 16.2882 51.2448 16.3526 51.1798C16.417 51.1148 16.4814 50.9198 16.5458 50.7248L17.2539 50.8548C17.1896 51.1798 17.0608 51.4398 16.8677 51.5698C16.6745 51.7648 16.417 51.8298 16.0951 51.8298C15.7732 51.8298 15.58 51.7648 15.3869 51.5698C15.2581 51.4398 15.1938 51.3748 15.1938 51.2448C15.1938 51.1148 15.1294 50.9198 15.1294 50.7248C15.1294 50.5948 15.1294 50.4648 15.1938 50.3348C15.1938 50.2048 15.2581 50.0748 15.3225 49.9448C15.3869 49.8148 15.3869 49.7498 15.4513 49.6198C15.58 49.4248 15.7088 49.2948 15.9019 49.1648C16.0951 49.0998 16.2882 49.0348 16.5458 49.0348C16.7389 49.0348 16.932 49.0348 16.9964 49.1648C17.1252 49.2298 17.2539 49.3598 17.3183 49.4898C17.1896 49.6198 17.2539 49.8148 17.2539 49.9448ZM19.8292 50.0748C19.8292 50.1398 19.8292 50.3348 19.7648 50.5298H18.4128V50.5948C18.4128 50.5948 18.4128 50.6598 18.4128 50.7248C18.4128 50.7898 18.4128 50.7898 18.4128 50.7898V50.9198C18.4128 51.0498 18.4128 51.1148 18.4772 51.1798C18.4772 51.2448 18.5416 51.3098 18.6703 51.3098C18.7991 51.3098 18.8635 51.2448 18.9278 51.1798C18.9922 51.1148 18.9922 50.9848 19.0566 50.8548L19.7004 50.9848C19.636 51.1148 19.636 51.2448 19.5717 51.3748C19.5073 51.5048 19.4429 51.5698 19.3785 51.6348C19.3141 51.6998 19.1854 51.7648 19.0566 51.8298C18.9279 51.8948 18.7991 51.8948 18.6059 51.8948C18.2197 51.8948 17.9621 51.8298 17.8334 51.5698C17.7046 51.3748 17.6402 51.1148 17.6402 50.7898C17.6402 50.5948 17.6402 50.3998 17.7046 50.2048C17.769 50.0098 17.8334 49.8148 17.8978 49.6848C18.0265 49.4898 18.1553 49.3598 18.3484 49.2298C18.5416 49.0998 18.7347 49.0998 18.9922 49.0998C19.1854 49.0998 19.3141 49.0998 19.4429 49.1648C19.5717 49.2298 19.636 49.2948 19.7004 49.3598C19.7648 49.4248 19.8292 49.5548 19.8292 49.6848C19.8292 49.8148 19.8292 49.9448 19.8292 50.0748ZM19.0566 49.8798C19.0566 49.7498 19.0566 49.6848 19.0566 49.6198C19.0566 49.5548 18.9922 49.5548 18.8635 49.5548C18.6703 49.5548 18.5416 49.7498 18.4772 50.2048H19.0566C19.0566 50.0098 19.0566 49.8798 19.0566 49.8798ZM22.8551 48.1898L22.1469 51.7648H21.4387L21.5031 51.4398C21.4387 51.5048 21.3743 51.5698 21.3099 51.6348C21.2456 51.6998 21.1812 51.6998 21.1168 51.7648C21.0524 51.7648 20.988 51.7648 20.8593 51.7648C20.7305 51.7648 20.5374 51.6998 20.473 51.6348C20.3442 51.5048 20.2799 51.3748 20.2799 51.2448C20.2799 51.1798 20.2799 51.1148 20.2799 50.9848V50.8548C20.2799 50.6598 20.2799 50.4648 20.3442 50.2698C20.4086 50.0748 20.473 49.8798 20.5374 49.7498C20.6661 49.5548 20.7949 49.3598 20.9237 49.2298C21.0524 49.0998 21.2456 49.0348 21.3743 49.0348C21.5031 49.0348 21.6318 49.0348 21.6962 49.0998C21.7606 49.1648 21.825 49.2298 21.8894 49.3598L22.1469 48.1898H22.8551ZM21.7606 49.8148C21.7606 49.7498 21.7606 49.6848 21.6962 49.6198C21.6318 49.6198 21.6318 49.6198 21.5675 49.6198C21.5675 49.6198 21.5031 49.6198 21.4387 49.6848C21.3743 49.7498 21.3743 49.8148 21.3099 49.9448C21.2456 50.2048 21.1812 50.3998 21.1812 50.5948C21.1812 50.7898 21.1168 50.9198 21.1168 51.0498C21.1168 51.2448 21.1812 51.3098 21.2456 51.3098C21.3743 51.3098 21.5031 51.1148 21.5675 50.7898L21.6962 49.9448C21.7606 49.8798 21.7606 49.8148 21.7606 49.8148ZM27.0398 50.1398C27.0398 50.4648 26.9755 50.7248 26.9111 50.9848C26.7823 51.2448 26.6536 51.4398 26.5248 51.5698C26.396 51.6348 26.2673 51.6998 26.1385 51.7648C26.0098 51.8298 25.881 51.8298 25.6878 51.8298C25.4947 51.8298 25.3659 51.7648 25.2372 51.6998C25.1084 51.6348 24.9797 51.5048 24.9153 51.3098C24.8509 51.1798 24.7865 50.9848 24.7865 50.7248C24.7865 49.9448 24.9797 49.4248 25.4303 49.1648C25.5591 49.0998 25.6235 49.0348 25.7522 49.0348C25.881 49.0348 26.0098 49.0348 26.1385 49.0348C26.3317 49.0348 26.4604 49.0998 26.5892 49.1648C26.7179 49.2298 26.8467 49.3598 26.9111 49.5548C27.0398 49.7498 27.0398 49.8798 27.0398 50.1398ZM26.2673 49.8798C26.2673 49.8148 26.2673 49.6848 26.2673 49.6848C26.2673 49.6198 26.2029 49.6198 26.1385 49.6198C26.0098 49.6198 25.9454 49.6848 25.881 49.8148C25.8166 49.9448 25.7522 50.2048 25.6878 50.5298C25.6235 50.7248 25.6235 50.9198 25.6235 51.0498C25.6235 51.2448 25.6878 51.3098 25.7522 51.3098C25.881 51.3098 25.9454 51.2448 25.9454 51.1798C26.0098 51.1148 26.0098 50.9198 26.0741 50.6598C26.1385 50.4648 26.1385 50.3348 26.1385 50.1398C26.2673 50.0748 26.2673 49.9448 26.2673 49.8798ZM29.8726 49.1648L29.3576 51.8298H28.585L28.6494 51.5048C28.5206 51.6348 28.4562 51.7648 28.3275 51.8298C28.2631 51.8948 28.1343 51.8948 27.9412 51.8948C27.8124 51.8948 27.6837 51.8298 27.5549 51.7648C27.4905 51.6998 27.4261 51.5698 27.4261 51.3748C27.4261 51.2448 27.4261 51.1148 27.4905 50.9198L27.8124 49.2298H28.585L28.3275 50.8548C28.3275 50.9848 28.2631 51.1148 28.2631 51.1798C28.2631 51.2448 28.2631 51.2448 28.2631 51.2448C28.2631 51.2448 28.3275 51.2448 28.3918 51.2448C28.4562 51.2448 28.5206 51.1798 28.585 51.1148C28.6494 51.0498 28.6494 50.8548 28.7138 50.6598L29.0357 49.0348L29.8726 49.1648ZM32.0616 49.1648L31.9328 49.7498H31.4821L31.289 50.7898C31.289 50.9198 31.2246 51.0498 31.2246 51.0498C31.2246 51.1798 31.289 51.2448 31.4821 51.2448C31.4821 51.2448 31.6109 51.2448 31.7397 51.2448L31.5465 51.8298C31.3534 51.8298 31.1602 51.8948 31.0315 51.8948C30.7739 51.8948 30.5808 51.8298 30.5164 51.7648C30.3877 51.6348 30.3233 51.5048 30.3233 51.3098C30.3233 51.3098 30.3233 51.2448 30.3233 51.1798C30.3233 51.1148 30.3233 50.9848 30.3877 50.8548L30.5808 49.8148H30.2589L30.3877 49.2298H30.7739L30.9671 48.4498H31.7397L31.5465 49.0998L32.0616 49.1648ZM34.508 49.9448C34.508 50.0098 34.508 50.0098 34.508 49.9448C34.508 50.0098 34.508 50.0098 34.508 50.0098C34.508 50.0098 34.508 50.0098 34.508 50.0748H33.7998C33.7998 50.0098 33.7998 49.9448 33.7998 49.8798C33.7998 49.6848 33.7355 49.5548 33.5423 49.5548C33.4779 49.5548 33.4136 49.6198 33.3492 49.6848C33.2848 49.7498 33.2204 49.8798 33.2204 50.0748C33.156 50.2048 33.156 50.4648 33.0917 50.7248C33.0917 50.9198 33.0917 50.9848 33.0917 51.0498C33.0917 51.1148 33.0917 51.1798 33.156 51.2448C33.156 51.3098 33.2204 51.3098 33.3492 51.3098C33.4136 51.3098 33.5423 51.2448 33.6067 51.1798C33.6711 51.1148 33.7355 50.9198 33.7998 50.7248L34.508 50.8548C34.4437 51.1798 34.3149 51.4398 34.1218 51.5698C33.9286 51.6998 33.6711 51.8298 33.3492 51.8298C33.0273 51.8298 32.8341 51.7648 32.641 51.5698C32.5122 51.4398 32.4478 51.3748 32.4478 51.2448C32.4478 51.1148 32.3835 50.9198 32.3835 50.7248C32.3835 50.5948 32.3835 50.4648 32.4478 50.3348C32.4478 50.2048 32.5122 50.0748 32.5766 49.9448C32.641 49.8148 32.641 49.7498 32.7054 49.6198C32.8341 49.4248 32.9629 49.2948 33.156 49.1648C33.3492 49.0998 33.5423 49.0348 33.7998 49.0348C33.993 49.0348 34.1861 49.0348 34.3149 49.1648C34.4437 49.2948 34.5724 49.3598 34.6368 49.4898C34.4437 49.6198 34.508 49.8148 34.508 49.9448ZM37.0833 50.1398C37.0833 50.4648 37.0189 50.7248 36.9545 50.9848C36.8901 51.2448 36.697 51.4398 36.5682 51.5698C36.4395 51.6348 36.3107 51.6998 36.1819 51.7648C36.0532 51.8298 35.9244 51.8298 35.7313 51.8298C35.5381 51.8298 35.4094 51.7648 35.2806 51.6998C35.1518 51.6348 35.0231 51.5048 34.9587 51.3098C34.8943 51.1798 34.8299 50.9848 34.8299 50.7248C34.8299 49.9448 35.0231 49.4248 35.4738 49.1648C35.6025 49.0998 35.6669 49.0348 35.7957 49.0348C35.9244 49.0348 36.0532 49.0348 36.1819 49.0348C36.3751 49.0348 36.5038 49.0998 36.6326 49.1648C36.7614 49.2298 36.8901 49.3598 36.9545 49.5548C37.0833 49.7498 37.0833 49.8798 37.0833 50.1398ZM36.3107 49.8798C36.3107 49.8148 36.3107 49.6848 36.3107 49.6848C36.3107 49.6198 36.2463 49.6198 36.1819 49.6198C36.0532 49.6198 35.9888 49.6848 35.9244 49.8148C35.86 49.9448 35.7957 50.2048 35.7313 50.5298C35.6669 50.7248 35.6669 50.9198 35.6669 51.0498C35.6669 51.2448 35.7313 51.3098 35.7957 51.3098C35.86 51.3098 35.9888 51.2448 35.9888 51.1798C36.0532 51.1148 36.0532 50.9198 36.1176 50.6598C36.1819 50.4648 36.1819 50.3348 36.1819 50.1398C36.2463 50.0748 36.3107 49.9448 36.3107 49.8798ZM41.0105 49.5548C41.0105 49.6198 41.0105 49.8148 40.9461 50.0748L40.6242 51.7648H39.8517L40.1736 50.0748C40.1736 49.8798 40.2379 49.7498 40.2379 49.6848C40.2379 49.6198 40.1736 49.5548 40.1092 49.5548C40.0448 49.5548 39.9804 49.5548 39.916 49.6848C39.8517 49.7498 39.8517 49.8798 39.7873 50.0748L39.4654 51.7648H38.6284L38.9503 50.0748C39.0147 49.8798 39.0147 49.7498 39.0147 49.7498C39.0147 49.6198 38.9503 49.6198 38.8859 49.6198C38.8216 49.6198 38.7572 49.6848 38.6928 49.7498C38.6284 49.8148 38.6284 49.9448 38.564 50.1398L38.2421 51.7648H37.4052L37.9202 49.0998H38.6928L38.6284 49.4248C38.6928 49.2948 38.8216 49.1648 38.9503 49.0998C39.0791 49.0348 39.2078 49.0348 39.3366 49.0348C39.4654 49.0348 39.5941 49.0348 39.6585 49.1648C39.7229 49.2298 39.7873 49.3598 39.8517 49.4898C39.9804 49.3598 40.0448 49.2298 40.1736 49.1648C40.3023 49.0998 40.4311 49.0998 40.5598 49.0998C40.6886 49.0998 40.8174 49.1648 40.9461 49.2298C40.9461 49.2948 41.0105 49.4248 41.0105 49.5548ZM43.6501 50.0748C43.6501 50.1398 43.6501 50.3348 43.5858 50.5298H42.2337V50.5948C42.2337 50.5948 42.2337 50.6598 42.2337 50.7248C42.2337 50.7898 42.2337 50.7898 42.2337 50.7898V50.9198C42.2337 51.0498 42.2337 51.1148 42.2981 51.1798C42.2981 51.2448 42.3625 51.3098 42.4913 51.3098C42.62 51.3098 42.6844 51.2448 42.7488 51.1798C42.8132 51.1148 42.8132 50.9848 42.8776 50.8548L43.5214 50.9848C43.457 51.1148 43.457 51.2448 43.3926 51.3748C43.3282 51.5048 43.2638 51.5698 43.1995 51.6348C43.1351 51.6998 43.0063 51.7648 42.8776 51.8298C42.7488 51.8948 42.62 51.8948 42.4269 51.8948C42.0406 51.8948 41.7831 51.8298 41.6543 51.5698C41.5256 51.3748 41.4612 51.1148 41.4612 50.7898C41.4612 50.5948 41.4612 50.3998 41.5256 50.2048C41.5899 50.0098 41.6543 49.8148 41.7187 49.6848C41.8475 49.4898 41.9762 49.3598 42.1694 49.2298C42.3625 49.0998 42.5557 49.0998 42.7488 49.0998C42.9419 49.0998 43.0707 49.0998 43.1995 49.1648C43.3282 49.2298 43.3926 49.2948 43.457 49.3598C43.5214 49.4248 43.5858 49.5548 43.5858 49.6848C43.6501 49.8148 43.6501 49.9448 43.6501 50.0748ZM42.8776 49.8798C42.8776 49.7498 42.8776 49.6848 42.8132 49.6198C42.8132 49.5548 42.7488 49.5548 42.62 49.5548C42.4269 49.5548 42.2981 49.7498 42.2337 50.2048H42.8132C42.8776 50.0098 42.8776 49.8798 42.8776 49.8798ZM46.2254 49.7498L45.6459 49.9448C45.5816 49.6848 45.4528 49.5548 45.324 49.5548C45.2597 49.5548 45.1953 49.5548 45.1309 49.6198C45.0665 49.6848 45.0665 49.7498 45.0665 49.8148C45.0665 49.8798 45.0665 49.8798 45.1309 49.9448C45.1309 50.0098 45.1953 50.0098 45.2597 50.0098C45.4528 50.1398 45.6459 50.2048 45.7103 50.2048C45.7747 50.2048 45.8391 50.2698 45.9678 50.3348C46.0322 50.3998 46.0966 50.4648 46.161 50.5298C46.2254 50.5948 46.2254 50.7248 46.2254 50.7898C46.2254 51.1148 46.161 51.3098 45.9678 51.5048C45.7747 51.6998 45.5172 51.7648 45.1309 51.7648C45.0021 51.7648 44.8734 51.7648 44.7446 51.6998C44.6158 51.6998 44.4871 51.6348 44.4227 51.5698C44.3583 51.5048 44.2939 51.4398 44.2296 51.3748C44.1652 51.3098 44.1008 51.1798 44.1008 51.0498L44.7446 50.9198C44.809 51.1798 44.9378 51.3098 45.1309 51.3098C45.2597 51.3098 45.324 51.3098 45.3884 51.2448C45.4528 51.1798 45.4528 51.1148 45.4528 50.9848C45.4528 50.9198 45.324 50.7898 45.1309 50.6598C44.9378 50.5298 44.7446 50.4648 44.6802 50.3998C44.6158 50.3348 44.4871 50.2698 44.4227 50.1398C44.3583 50.0748 44.3583 49.9448 44.3583 49.7498C44.3583 49.6198 44.3583 49.5548 44.4227 49.4248C44.4871 49.2948 44.5515 49.2298 44.6158 49.1648C44.7446 49.0998 44.809 49.0348 44.9378 48.9698C45.0665 48.9048 45.1953 48.9048 45.3884 48.9048C45.8391 49.0348 46.161 49.2948 46.2254 49.7498ZM50.9896 48.1898L50.2814 51.7648H49.5732L49.6376 51.4398C49.5732 51.5048 49.5088 51.5698 49.4444 51.6348C49.38 51.6998 49.3157 51.6998 49.2513 51.7648C49.1869 51.7648 49.1225 51.7648 48.9937 51.7648C48.865 51.7648 48.6718 51.6998 48.6075 51.6348C48.4787 51.5048 48.4143 51.3748 48.4143 51.2448C48.4143 51.1798 48.4143 51.1148 48.4143 50.9848V50.8548C48.4143 50.6598 48.4143 50.4648 48.4787 50.2698C48.5431 50.0748 48.6075 49.8798 48.6718 49.7498C48.8006 49.5548 48.9294 49.3598 49.0581 49.2298C49.1869 49.0998 49.38 49.0348 49.5088 49.0348C49.6376 49.0348 49.7663 49.0348 49.8307 49.0998C49.8951 49.1648 49.9595 49.2298 50.0238 49.3598L50.2814 48.1898H50.9896ZM49.8307 49.8148C49.8307 49.7498 49.8307 49.6848 49.7663 49.6198C49.7019 49.6198 49.7019 49.6198 49.6376 49.6198C49.6376 49.6198 49.5732 49.6198 49.5088 49.6848C49.4444 49.7498 49.4444 49.8148 49.38 49.9448C49.3157 50.2048 49.2513 50.3998 49.2513 50.5948C49.2513 50.7898 49.1869 50.9198 49.1869 51.0498C49.1869 51.2448 49.2513 51.3098 49.3157 51.3098C49.4444 51.3098 49.5732 51.1148 49.6376 50.7898L49.7663 49.9448C49.8307 49.8798 49.8307 49.8148 49.8307 49.8148ZM53.3073 50.0748C53.3073 50.1398 53.3073 50.3348 53.2429 50.5298H51.8909V50.5948C51.8909 50.5948 51.8909 50.6598 51.8909 50.7248C51.8909 50.7898 51.8909 50.7898 51.8909 50.7898V50.9198C51.8909 51.0498 51.8909 51.1148 51.9553 51.1798C51.9553 51.2448 52.0197 51.3098 52.1484 51.3098C52.2772 51.3098 52.3416 51.2448 52.4059 51.1798C52.4703 51.1148 52.4703 50.9848 52.5347 50.8548L53.1785 50.9848C53.1141 51.1148 53.1141 51.2448 53.0498 51.3748C52.9854 51.5048 52.921 51.5698 52.8566 51.6348C52.7922 51.6998 52.6635 51.7648 52.5347 51.8298C52.4059 51.8948 52.2772 51.8948 52.084 51.8948C51.6978 51.8948 51.4402 51.8298 51.3115 51.5698C51.1827 51.3748 51.1183 51.1148 51.1183 50.7898C51.1183 50.5948 51.1183 50.3998 51.1827 50.2048C51.2471 50.0098 51.3115 49.8148 51.3759 49.6848C51.5046 49.4898 51.6334 49.3598 51.8265 49.2298C52.0197 49.0998 52.2128 49.0998 52.4703 49.0998C52.6635 49.0998 52.7922 49.0998 52.921 49.1648C53.0497 49.2298 53.1141 49.2948 53.1785 49.3598C53.2429 49.4248 53.3073 49.5548 53.3073 49.6848C53.3073 49.8148 53.3073 49.9448 53.3073 50.0748ZM52.5347 49.8798C52.5347 49.7498 52.5347 49.6848 52.5347 49.6198C52.5347 49.5548 52.4703 49.5548 52.3416 49.5548C52.1484 49.5548 52.0197 49.7498 51.9553 50.2048H52.5347C52.5347 50.0098 52.5347 49.8798 52.5347 49.8798ZM55.9469 49.7498L55.3675 49.9448C55.3031 49.6848 55.1743 49.5548 55.0456 49.5548C54.9812 49.5548 54.9168 49.5548 54.8524 49.6198C54.7237 49.6848 54.7237 49.7498 54.7237 49.8148C54.7237 49.8798 54.7237 49.8798 54.788 49.9448C54.788 50.0098 54.8524 50.0098 54.9168 50.0098C55.1099 50.1398 55.3031 50.2048 55.3675 50.2048C55.4318 50.2048 55.4962 50.2698 55.625 50.3348C55.6894 50.3998 55.7537 50.4648 55.8181 50.5298C55.8825 50.5948 55.8825 50.7248 55.8825 50.7898C55.8825 51.1148 55.8181 51.3098 55.625 51.5048C55.4318 51.6998 55.1743 51.7648 54.788 51.7648C54.6593 51.7648 54.5305 51.7648 54.4017 51.6998C54.273 51.6998 54.1442 51.6348 54.0798 51.5698C54.0155 51.5048 53.9511 51.4398 53.8867 51.3748C53.8223 51.3098 53.7579 51.1798 53.7579 51.0498L54.4017 50.9198C54.4661 51.1798 54.5949 51.3098 54.788 51.3098C54.8524 51.3098 54.9812 51.3098 55.0456 51.2448C55.1099 51.1798 55.1099 51.1148 55.1099 50.9848C55.1099 50.9198 54.9812 50.7898 54.788 50.6598C54.5949 50.5298 54.4018 50.4648 54.3374 50.3998C54.273 50.3348 54.1442 50.2698 54.1442 50.1398C54.0798 50.0748 54.0798 49.9448 54.0798 49.7498C54.0798 49.6198 54.0798 49.5548 54.1442 49.4248C54.2086 49.2948 54.273 49.2298 54.4017 49.1648C54.4661 49.0998 54.5949 49.0348 54.7237 48.9698C54.7237 49.0998 54.8524 49.0998 54.9812 49.0998C55.4962 49.0348 55.8181 49.2948 55.9469 49.7498ZM57.6852 48.1898L57.5564 48.9048H56.7195L56.8482 48.1898H57.6852ZM57.492 49.1648L56.977 51.8298H56.14L56.6551 49.1648H57.492ZM60.3248 48.5148L60.2604 48.9698C60.2604 48.9698 60.196 48.9698 60.1317 48.9698C60.0673 48.9698 60.0029 48.9698 59.9385 49.0348C59.8741 49.0348 59.8741 49.0998 59.8098 49.2298C59.9385 49.2948 60.0029 49.4248 60.0673 49.4898C60.1317 49.5548 60.1317 49.6848 60.1317 49.8798C60.1317 50.0098 60.0673 50.2048 60.0029 50.3348C59.9385 50.4648 59.8097 50.5948 59.6166 50.6598C59.4878 50.7248 59.2947 50.7898 59.1016 50.7898C58.9728 50.7898 58.844 50.7898 58.7153 50.7248C58.6509 50.7898 58.5865 50.7898 58.5865 50.8548C58.5865 50.8548 58.5221 50.9198 58.5221 50.9848C58.5221 51.0498 58.5221 51.0498 58.5865 51.1148C58.6509 51.1148 58.7153 51.1798 58.7797 51.1798C58.844 51.1798 58.9728 51.1798 59.2303 51.2448C59.4878 51.2448 59.6166 51.3098 59.7454 51.4398C59.8741 51.5698 59.9385 51.6998 59.9385 51.8298C59.9385 52.0248 59.8741 52.2198 59.7454 52.3498C59.6166 52.4798 59.4878 52.6098 59.2303 52.6748C59.0372 52.7398 58.7153 52.8048 58.3934 52.8048C58.2002 52.8048 58.0715 52.8048 57.9427 52.7398C57.8139 52.6748 57.6852 52.6098 57.6208 52.5448C57.5564 52.4798 57.492 52.3498 57.492 52.2198C57.492 52.0898 57.5564 51.9598 57.6208 51.8948C57.6852 51.8298 57.8783 51.7648 58.0715 51.6998C57.8783 51.5698 57.8139 51.4398 57.8139 51.3098C57.8139 51.1798 57.8783 51.0498 57.9427 50.9198C58.0071 50.7898 58.2002 50.7248 58.3934 50.5948C58.329 50.5298 58.2002 50.3998 58.2002 50.3348C58.2002 50.2698 58.1358 50.1398 58.1358 50.0098C58.1358 49.8798 58.2002 49.7498 58.2646 49.5548C58.329 49.3598 58.4577 49.2948 58.6509 49.2298C58.844 49.1648 59.0372 49.0998 59.2303 49.0998C59.3591 49.0998 59.4235 49.0998 59.5522 49.1648C59.6166 48.9698 59.681 48.8398 59.7454 48.7098C59.8098 48.6448 59.9385 48.5798 60.0673 48.5798H60.1317C60.2604 48.5148 60.3248 48.5148 60.3248 48.5148ZM59.3591 49.7498C59.3591 49.6848 59.3591 49.6198 59.2947 49.5548C59.2947 49.4898 59.2303 49.4898 59.1016 49.4898C58.9084 49.4898 58.7797 49.6848 58.7797 50.0098C58.7797 50.0748 58.7797 50.1398 58.844 50.2048C58.844 50.2698 58.9084 50.2698 59.0372 50.2698C59.2947 50.3348 59.3591 50.1398 59.3591 49.7498ZM59.2303 51.9598C59.2303 51.8298 58.9728 51.7648 58.3934 51.6998C58.2646 51.7648 58.2002 51.8298 58.2002 52.0248C58.2002 52.0898 58.2646 52.1548 58.329 52.2198C58.3934 52.2848 58.5221 52.2848 58.7153 52.2848C58.9084 52.2848 59.0372 52.2848 59.1016 52.2198C59.1659 52.1548 59.2303 52.0898 59.2303 51.9598ZM62.8357 49.5548V49.6198C62.8357 49.7498 62.8357 49.8798 62.7713 50.1398L62.4494 51.7648H61.6768L61.9987 50.1398C62.0631 49.9448 62.0631 49.8148 62.0631 49.6848V49.6198C62.0631 49.6198 61.9987 49.6198 61.9343 49.6198C61.8699 49.6198 61.8056 49.6198 61.8056 49.6848C61.7412 49.7498 61.7412 49.7498 61.6768 49.8148C61.6768 49.8798 61.6124 50.0098 61.6124 50.1398L61.2905 51.7648H60.4536L60.9686 49.0998H61.7412L61.6768 49.4248C61.8056 49.2948 61.8699 49.1648 61.9987 49.0998C62.1275 49.0348 62.2562 49.0348 62.385 49.0348C62.4494 49.0348 62.5781 49.0348 62.6425 49.0998C62.7069 49.1648 62.7713 49.1648 62.8357 49.2298C62.8357 49.3598 62.8357 49.4248 62.8357 49.5548ZM3.2189 50.5298C3.09014 50.5298 2.96137 50.5948 2.83261 50.6598C2.76823 50.6598 2.70385 50.7248 2.70385 50.7898C2.63947 50.7898 2.57509 50.8548 2.57509 50.9198C2.57509 50.9848 2.51071 51.0498 2.51071 51.1148C2.51071 51.1798 2.51071 51.2448 2.57509 51.3098C2.63947 51.3748 2.70385 51.3748 2.76823 51.3748C2.96137 51.3748 3.09014 51.1798 3.15452 50.7898L3.2189 50.5298ZM7.14614 48.1898L6.43795 51.7648H5.66537L5.72976 51.4398C5.66537 51.5048 5.60099 51.5698 5.53661 51.6348C5.47223 51.6998 5.40785 51.6998 5.34347 51.7648C5.27909 51.7648 5.21471 51.7648 5.08595 51.7648C4.95718 51.7648 4.76404 51.6998 4.69966 51.6348C4.5709 51.5048 4.50652 51.3748 4.50652 51.2448C4.50652 51.1798 4.50652 51.1148 4.50652 50.9848V50.8548C4.50652 50.6598 4.50652 50.4648 4.5709 50.2698C4.63528 50.0748 4.69966 49.8798 4.76404 49.7498C4.8928 49.5548 5.02157 49.3598 5.15033 49.2298C5.27909 49.0998 5.40785 49.0998 5.60099 49.0998C5.72976 49.0998 5.85852 49.0998 5.9229 49.1648C5.98728 49.2298 6.05166 49.2948 6.11604 49.4248L6.37356 48.2548L7.14614 48.1898ZM5.98728 49.8148C5.98728 49.7498 5.98728 49.6848 5.9229 49.6198C5.85852 49.6198 5.85852 49.6198 5.79414 49.6198C5.79414 49.6198 5.72976 49.6198 5.66537 49.6848C5.60099 49.7498 5.60099 49.8148 5.53661 49.9448C5.47223 50.2048 5.40785 50.3998 5.40785 50.5948C5.40785 50.7898 5.34347 50.9198 5.34347 51.0498C5.34347 51.2448 5.40785 51.3098 5.53661 51.3098C5.66537 51.3098 5.79414 51.1148 5.85852 50.7898L5.98728 49.9448C5.98728 49.8798 5.98728 49.8148 5.98728 49.8148ZM9.59261 49.1648L8.36937 51.7648H7.72556L7.46804 49.0998H8.24061V50.1398C8.24061 50.1398 8.24061 50.2048 8.24061 50.2698C8.24061 50.3348 8.24061 50.4648 8.24061 50.5298V50.7248C8.30499 50.4648 8.36937 50.2698 8.43376 50.0748L8.82004 49.0348H9.59261V49.1648Z" fill="white"/>
<path d="M0 44.2891V46.8241H67.2781L65.4754 52.7391C65.4754 52.7391 71.1409 46.8241 90.8415 46.8241L91.5497 44.2891C91.6141 44.2891 0 44.2891 0 44.2891Z" fill="white"/>
<path d="M93.2891 46.7591H95.9287L96.5725 44.2891H93.9973L93.2891 46.7591Z" fill="white"/>
</g>
<defs>
<clipPath id="clip0_367_2142">
<rect width="96.5714" height="26" fill="white" transform="translate(0 27)"/>
</clipPath>
</defs>
</svg>
