<svg width="80" height="80" viewBox="0 0 80 80" fill="none" xmlns="http://www.w3.org/2000/svg">
<path d="M67.6654 40.3586C68.0051 40.4822 68.3226 40.6597 68.6057 40.8844V40.8173C68.6057 40.6159 68.5161 40.3363 68.6057 40.2132C68.6952 40.0902 69.031 40.2132 69.2661 40.2132H70.1616C70.4638 40.2132 70.5086 40.2691 70.5086 40.5488V48.6477C70.5086 49.3077 70.5086 49.3077 69.8481 49.3077H68.7288C68.5721 49.3077 68.5161 49.2518 68.5161 49.0952V48.4464C68.1945 48.7064 67.8361 48.9175 67.4527 49.0728C67.296 49.0728 67.3072 48.9274 67.3072 48.8267C67.2736 48.406 67.2736 47.9833 67.3072 47.5626C67.3072 47.4172 67.4639 47.3613 67.587 47.3165C67.8739 47.2218 68.1174 47.0277 68.2734 46.7691C68.4295 46.5106 68.4878 46.2048 68.4378 45.9071C68.3594 45.001 68.4378 44.0837 68.4378 43.1664C68.4402 43.0345 68.4098 42.9041 68.3492 42.7869C68.2886 42.6698 68.1998 42.5695 68.0908 42.4952C67.8445 42.3051 67.5311 42.2267 67.3296 41.9806C67.2793 41.5196 67.2793 41.0545 67.3296 40.5935C67.4527 40.4369 67.4751 40.2915 67.6654 40.3586Z" fill="white"/>
<path d="M59.1583 51.2206C58.6234 51.8464 57.8945 52.2755 57.0875 52.4399H56.7965C56.6958 52.3504 56.707 52.2274 56.6958 52.1155V50.706C57.1728 50.5446 57.5815 50.2271 57.8557 49.8049C58.1299 49.3827 58.2536 48.8804 58.2069 48.3792V47.8423C57.8423 48.1115 57.4383 48.3228 57.0092 48.4687C56.8861 48.3457 56.9196 48.2003 56.9196 48.0548C56.9328 47.681 56.9141 47.3068 56.8637 46.9362C56.8637 46.7796 57.0092 46.7572 57.1099 46.7013C57.387 46.5704 57.6528 46.417 57.9047 46.2426C57.9726 46.1924 58.0274 46.1264 58.0644 46.0505C58.1014 45.9746 58.1196 45.8908 58.1173 45.8064V43.0098C58.1208 42.9196 58.1011 42.83 58.0599 42.7497C58.0187 42.6694 57.9576 42.601 57.8823 42.5511C57.7008 42.4116 57.5101 42.2845 57.3114 42.1708C57.2219 42.1149 57.0987 42.0925 57.1099 41.9471C57.1357 41.5747 57.1357 41.2009 57.1099 40.8285C57.0825 40.6805 57.1147 40.5277 57.1995 40.4034C57.5321 40.5275 57.8421 40.7051 58.1173 40.9291C58.1845 40.862 58.1173 40.7949 58.1173 40.7278C58.1173 40.202 58.1173 40.202 58.6546 40.2132H59.0128C59.1032 40.3807 59.1348 40.5738 59.1024 40.7613V50.6053C59.1511 50.8066 59.1699 51.0139 59.1583 51.2206Z" fill="white"/>
<path d="M59.1583 51.2206C59.108 51.077 59.0852 50.9252 59.0912 50.7731V40.1796H59.9195C60.1993 40.1796 60.1658 40.2579 60.1658 40.4369V48.3792C60.1798 49.3754 59.8607 50.3478 59.2591 51.1423C59.2275 51.1709 59.1938 51.197 59.1583 51.2206Z" fill="white"/>
<path d="M52.6885 40.9515C53.3184 40.4193 54.1038 40.1053 54.9272 40.0566C55.1287 40.0566 55.0727 40.2691 55.0839 40.381V41.7793C55.0839 41.9471 54.9048 41.9806 54.7817 42.0366C54.3493 42.1848 53.9702 42.4568 53.6916 42.8189C53.4129 43.1809 53.247 43.6169 53.2146 44.0725C53.1302 44.5929 53.2193 45.1265 53.468 45.5914C53.7168 46.0563 54.1115 46.4266 54.5914 46.6454C54.7145 46.7013 54.8376 46.746 54.8712 46.8915C54.8992 47.4057 54.8992 47.921 54.8712 48.4352C54.8727 48.4783 54.8655 48.5213 54.8501 48.5617C54.8348 48.602 54.8115 48.6389 54.7817 48.6701C54.0041 48.598 53.2684 48.2852 52.6773 47.7752C52.6998 47.4474 52.6998 47.1185 52.6773 46.7908V41.9695C52.7036 41.6308 52.7073 41.2907 52.6885 40.9515Z" fill="white"/>
<path d="M63.0873 48.3792C62.8634 48.2898 62.7515 48.0772 62.6059 47.8982C61.8734 46.9172 61.5023 45.7135 61.5554 44.4905C61.6084 43.2676 62.0823 42.1005 62.897 41.1864L63.0313 41.0746C63.1768 41.0186 63.2104 41.1305 63.2328 41.22C63.2485 41.3275 63.2485 41.4368 63.2328 41.5444V47.9094C63.2552 48.0772 63.3447 48.3009 63.0873 48.3792Z" fill="white"/>
<path d="M52.6885 40.9515C52.8228 41.0074 52.8228 41.1305 52.8228 41.2535V47.4731C52.8228 47.5962 52.8228 47.7192 52.6885 47.7752C52.0049 47.2762 51.5209 46.5507 51.3229 45.7281C51.0485 44.8967 51.0243 44.0031 51.2531 43.1581C51.4819 42.313 51.9537 41.5536 52.6101 40.9739L52.6885 40.9515Z" fill="white"/>
<path d="M74.9971 49.2406H72.4898C72.3443 49.2406 72.2995 49.1847 72.3107 49.0392V47.9654C72.3091 47.8769 72.3366 47.7905 72.3891 47.7193C73.2398 46.6789 74.0905 45.6274 74.93 44.5759C75.1091 44.6989 75.0867 44.8891 75.0867 45.0681V47.3054C75.0169 47.3941 74.9533 47.4875 74.8964 47.585C74.8292 47.6857 74.8964 47.6409 74.9748 47.6745C75.0002 47.7182 75.0154 47.767 75.0192 47.8174C75.0231 47.8677 75.0156 47.9183 74.9971 47.9654V49.084C75.0095 49.1355 75.0095 49.1891 74.9971 49.2406Z" fill="white"/>
<path d="M63.0873 48.3792C63.1992 48.3009 63.1656 48.1779 63.1656 48.0772V41.3654C63.1656 41.2535 63.1656 41.1081 63.0313 41.0746C63.3082 40.7969 63.6398 40.5798 64.0051 40.4369C64.1506 40.4929 64.1506 40.6383 64.1506 40.7613V42.7413C64.1484 42.8517 64.1176 42.9596 64.0611 43.0545C63.6568 43.7586 63.5216 44.5852 63.6805 45.3813C63.7329 45.7439 63.8593 46.0918 64.0518 46.4036C64.2444 46.7153 64.499 46.9842 64.7999 47.1935C64.9118 47.2606 65.0573 47.3165 65.0797 47.4843V48.9945C65.0797 49.1175 65.0797 49.3189 64.8558 49.2742C64.1922 49.1528 63.5779 48.842 63.0873 48.3792Z" fill="white"/>
<path d="M77.0903 41.8464V41.7457C76.9767 41.4268 76.9459 41.0842 77.0008 40.7501C76.9568 40.5555 76.9888 40.3515 77.0903 40.1796L79.4745 40.1349C79.6089 40.1349 79.6537 40.1908 79.6537 40.3139V41.4325C79.6438 41.5532 79.5876 41.6654 79.4969 41.7457L77.3814 44.341C77.3814 44.3969 77.303 44.464 77.2582 44.5311C77.012 44.5311 77.0679 44.3522 77.0679 44.2291V42.7972C77.0369 42.4806 77.0445 42.1613 77.0903 41.8464Z" fill="white"/>
<path d="M77.0903 41.8464C77.1409 42.1463 77.1409 42.4526 77.0903 42.7525V44.2739C77.0903 44.3745 77.0344 44.4976 77.1911 44.5423C76.6426 45.2583 76.0717 45.9742 75.4897 46.6454C75.3106 46.8579 75.1539 47.0816 74.986 47.2942C74.8181 47.2942 74.874 47.1264 74.874 47.0257V45.0905C74.88 44.9238 74.8573 44.7573 74.8069 44.5983C75.568 43.6586 76.3292 42.7413 77.0903 41.8464Z" fill="white"/>
<path d="M56.707 50.7619C56.7562 50.8087 56.7932 50.8668 56.8146 50.9312C56.8361 50.9955 56.8414 51.0642 56.8301 51.1311V52.4958C56.0915 52.6465 55.33 52.6465 54.5914 52.4958C54.3941 52.4807 54.201 52.4315 54.0205 52.3504C53.9533 51.7538 53.9759 51.1505 54.0877 50.5606C54.8315 50.8167 55.6246 50.8971 56.4047 50.7955C56.5047 50.7785 56.6057 50.7672 56.707 50.7619Z" fill="white"/>
<path d="M64.923 49.2742C65.0797 49.2742 65.0573 49.1287 65.0573 49.0169V47.7416C65.045 47.6327 65.0686 47.5227 65.1245 47.4284C65.1916 47.3725 65.27 47.4284 65.3484 47.4284C65.998 47.6244 66.6911 47.6244 67.3408 47.4284C67.3772 47.4098 67.4175 47.4 67.4583 47.4C67.4992 47.4 67.5395 47.4098 67.5759 47.4284V48.7037C67.5759 48.8043 67.5759 48.905 67.6318 48.9833C66.7914 49.3962 65.832 49.4992 64.923 49.2742Z" fill="white"/>
<path d="M67.6654 40.3586C67.5087 40.3586 67.5311 40.504 67.5311 40.6047V41.9583C67.3968 42.0478 67.2736 41.9583 67.1617 41.9583C66.6002 41.785 65.9994 41.785 65.4379 41.9583C65.326 41.9583 65.214 42.0478 65.1021 41.9583C65.0516 41.5609 65.0516 41.1587 65.1021 40.7613C65.088 40.5421 65.0269 40.3285 64.923 40.1349C65.8364 39.9003 66.8022 39.9791 67.6654 40.3586Z" fill="white"/>
<path d="M74.8852 41.7345H72.445C72.2995 41.7345 72.2436 41.7345 72.2547 41.5444V40.3474C72.2547 40.202 72.2547 40.1573 72.445 40.1573H74.8852C74.9425 40.2266 74.9741 40.3135 74.9748 40.4034C75.0263 40.8488 74.996 41.3 74.8852 41.7345Z" fill="white"/>
<path d="M74.9971 49.2406L74.9972 47.6633H77.3926C77.5381 47.8423 77.4709 48.066 77.4821 48.2674C77.4933 48.4687 77.4821 48.6589 77.4821 48.8603C77.4821 49.0616 77.5605 49.1064 77.7396 49.1064H78.6015C78.7246 49.1064 78.8589 49.1064 78.9373 49.2294L74.9971 49.2406Z" fill="white"/>
<path d="M55.0279 41.8464C54.9832 41.4113 54.9832 40.9727 55.0279 40.5376C55.0279 40.3698 55.0951 40.202 54.9608 40.0566C55.7533 39.9259 56.5669 40.0309 57.3002 40.3586V41.7234C57.3002 41.8128 57.3002 41.9471 57.1771 41.9806C57.054 42.0142 57.0092 41.9806 56.9196 41.9806C56.4118 41.8077 55.8671 41.7729 55.3413 41.88C55.1958 41.9023 55.1063 41.9247 55.0279 41.8464Z" fill="white"/>
<path d="M54.8488 48.6701V46.8467C54.9272 46.7684 55.0167 46.8467 55.0951 46.8467C55.6066 46.9684 56.1395 46.9684 56.651 46.8467C56.6953 46.8279 56.7428 46.8183 56.7909 46.8183C56.839 46.8183 56.8866 46.8279 56.9308 46.8467C57.0875 46.8467 57.054 46.9921 57.0652 47.104V48.4464C56.3604 48.7207 55.5942 48.798 54.8488 48.6701Z" fill="white"/>
<path d="M78.8813 49.2406C78.4678 49.2071 78.0523 49.2071 77.6388 49.2406C77.4038 49.2406 77.3142 49.2406 77.3254 48.9498V47.6969H79.4746C79.6313 47.6969 79.676 47.7528 79.676 47.8982V49.0952C79.676 49.2518 79.676 49.3077 79.4634 49.3077C79.2507 49.3077 79.0716 49.2518 78.8813 49.2406Z" fill="white"/>
<path d="M74.8852 41.7345V40.1349H77.1239V41.701L74.8852 41.7345Z" fill="white"/>
<path d="M54.0765 50.583V52.2497C54.0765 52.2497 54.0765 52.328 54.0093 52.3728C53.4334 52.234 52.8822 52.0076 52.3751 51.7016C52.2743 51.7016 52.2967 51.5897 52.3751 51.5114C52.5094 50.9745 52.6325 50.3928 52.778 49.8782C53.19 50.1496 53.6244 50.3854 54.0765 50.583Z" fill="white"/>
<path d="M64.923 40.1349C65.1133 40.1349 65.1133 40.2803 65.1133 40.4146V41.9806C64.7769 42.2928 64.4218 42.5842 64.0499 42.8532V40.7949C64.0838 40.6818 64.0838 40.5612 64.0499 40.4481C64.3171 40.2865 64.614 40.18 64.923 40.1349Z" fill="white"/>
<path d="M48.7705 39.2967C48.7517 39.2165 48.7031 39.1464 48.6345 39.1007C48.5659 39.055 48.4824 39.0371 48.4011 39.0506H45.0431C44.7296 39.0506 44.6737 39.1401 44.6737 39.431V48.9058C44.6737 49.2191 44.5841 49.2862 44.2931 49.275H42.3454C42.0656 49.275 42.0096 49.1855 42.0096 48.917V39.3974C42.0096 39.1066 41.9313 39.0506 41.6626 39.0618H38.0583C37.8568 39.0618 37.7785 39.0059 37.7897 38.7934V36.7015C37.7897 36.4666 37.8456 36.4107 38.0807 36.4107H47.1698C46.5971 35.6115 45.9567 34.8629 45.2557 34.1734C43.2548 32.1749 40.9962 30.4519 38.5396 29.05C30.9771 24.557 22.4581 21.916 13.6788 21.3426C11.5173 21.1819 9.34393 21.3707 7.24258 21.902C5.88515 22.2091 4.62101 22.8365 3.55581 23.7317C2.49061 24.6269 1.65531 25.7639 1.11973 27.0477C0.488235 28.6317 0.161635 30.3205 0.157091 32.0256C0.142011 33.8677 0.329697 35.7059 0.716767 37.5069C0.999223 39.1326 1.4571 40.7229 2.08237 42.2499C3.74907 46.1201 6.18211 49.6132 9.23503 52.519C13.1388 56.2173 18.2079 58.4437 23.5739 58.817C25.8614 58.9909 28.1619 58.8555 30.4131 58.4142C35.4953 57.499 40.2318 55.2174 44.114 51.8143C45.9745 50.2374 47.465 48.2705 48.4795 46.0533C48.9797 45.0044 49.2633 43.8655 49.3133 42.7046C49.3633 41.5438 49.1787 40.3847 48.7705 39.2967ZM23.5067 47.4181C23.5121 47.5054 23.493 47.5926 23.4514 47.6697C23.4099 47.7468 23.3476 47.8107 23.2717 47.8543C22.0019 48.671 20.5625 49.1875 19.0629 49.3645C17.4169 49.6196 15.7328 49.3122 14.2833 48.4919C13.4336 48.0199 12.7127 47.3468 12.1838 46.5316C11.655 45.7163 11.3343 44.7839 11.2499 43.816C11.0163 42.3298 11.2799 40.8081 11.9998 39.4869C12.4821 38.6119 13.1704 37.8675 14.0051 37.3178C14.8398 36.7682 15.7958 36.43 16.7906 36.3324C17.8373 36.1467 18.9109 36.178 19.9449 36.4243C20.9789 36.6706 21.9513 37.1267 22.8016 37.7642C22.9918 37.9096 23.0366 38.0103 22.9023 38.2117C22.5777 38.7151 22.2643 39.2184 21.9732 39.7442C21.8501 39.9456 21.7829 39.9456 21.6038 39.8113C20.9317 39.2879 20.1462 38.9293 19.3103 38.7642C18.4744 38.599 17.6115 38.632 16.7906 38.8605C16.001 39.0593 15.2975 39.5095 14.7866 40.1432C14.2757 40.7769 13.9851 41.5596 13.9587 42.373C13.908 42.9692 13.9533 43.5698 14.093 44.1516C14.2361 44.7454 14.528 45.2931 14.9411 45.7432C15.3543 46.1932 15.8752 46.5309 16.4548 46.7245C17.131 46.9669 17.8491 47.0709 18.5663 47.0306C19.2835 46.9902 19.9853 46.8063 20.63 46.4896C20.7146 46.4616 20.7867 46.4049 20.8338 46.3293C20.8808 46.2536 20.8998 46.1639 20.8875 46.0757V44.2859C20.8875 44.0621 20.8875 43.9838 20.5964 43.9838H17.7533C17.5518 43.9838 17.4846 43.9838 17.4846 43.7265V41.9255C17.4846 41.7466 17.5406 41.7018 17.7197 41.7018H23.1933C23.4396 41.7018 23.5291 41.7018 23.5291 42.015C23.5142 43.8049 23.5067 45.6059 23.5067 47.4181ZM38.1479 49.0848C37.5207 49.3735 36.832 49.503 36.1428 49.462C35.4535 49.4211 34.785 49.2108 34.1965 48.8499C33.4619 48.3931 32.7918 47.84 32.2041 47.2055C31.5213 46.5008 30.8385 45.7848 30.1669 45.0577C30.0378 44.9042 29.8741 44.7836 29.6892 44.7058C29.5043 44.628 29.3036 44.5952 29.1035 44.6103C28.3759 44.6103 28.3759 44.6103 28.3759 45.3374V48.9506C28.3759 49.1743 28.3759 49.2638 28.0849 49.2638H25.9693C25.7902 49.2638 25.7343 49.2638 25.7343 49.0289V36.6344C25.7343 36.4666 25.7343 36.4107 25.9469 36.4107H31.8907C32.8741 36.4141 33.8393 36.6765 34.6891 37.1713C35.2162 37.4734 35.6587 37.9033 35.9757 38.4214C36.2926 38.9395 36.4738 39.5291 36.5024 40.1357C36.5614 40.6663 36.5148 41.2033 36.3654 41.7159C36.2159 42.2284 35.9665 42.7064 35.6315 43.1222C35.2966 43.5381 34.8826 43.8836 34.4135 44.139C33.9444 44.3944 33.4294 44.5545 32.8981 44.6103C33.6213 45.395 34.4199 46.1069 35.2823 46.7357C35.6571 46.987 36.0882 47.1419 36.5373 47.1868C36.9864 47.2317 37.4396 47.1651 37.8568 46.993C38.0695 46.9147 38.1479 46.937 38.1702 47.172C38.1702 47.6977 38.2822 48.2235 38.3605 48.7492C38.3688 48.7852 38.3698 48.8225 38.3636 48.8589C38.3573 48.8953 38.3439 48.9301 38.3242 48.9613C38.3044 48.9925 38.2786 49.0195 38.2484 49.0407C38.2181 49.0619 38.1839 49.0769 38.1479 49.0848Z" fill="white"/>
<path d="M28.3867 40.6272V38.9492C28.3867 38.815 28.3867 38.7031 28.577 38.7031H32.0694C32.3052 38.7115 32.5369 38.7673 32.7507 38.8672C32.9644 38.967 33.1559 39.1089 33.3136 39.2842C33.4714 39.4596 33.5922 39.665 33.6688 39.888C33.7454 40.111 33.7763 40.3472 33.7596 40.5824C33.7732 40.8185 33.7398 41.0548 33.6615 41.2779C33.5832 41.501 33.4614 41.7063 33.3032 41.8821C33.145 42.0579 32.9535 42.2006 32.7398 42.302C32.5262 42.4034 32.2945 42.4615 32.0582 42.4729C30.9388 42.5624 29.7299 42.4729 28.5658 42.4729C28.3979 42.4729 28.3867 42.3834 28.3867 42.2492V40.6272Z" fill="white"/>
</svg>
