<svg width="92" height="80" viewBox="0 0 92 80" fill="none" xmlns="http://www.w3.org/2000/svg">
<path d="M11.0214 34.0095C10.3934 33.3641 9.70942 32.8771 8.96936 32.5556C8.23164 32.2293 7.43556 32.0685 6.59512 32.0662C4.76249 32.0662 3.20767 32.7754 1.92367 34.1892C0.642003 35.6054 0.00233087 37.421 0 39.6363C0 41.7735 0.660679 43.5632 1.98437 44.9982C3.30806 46.438 4.87688 47.1591 6.69084 47.1591C7.50093 47.1603 8.25266 47.0126 8.94368 46.7193C9.63705 46.4238 10.3281 45.9439 11.0168 45.2725V46.7926H14.5606V32.4421H11.0214V34.0095ZM10.0829 42.6766C9.35456 43.4662 8.43708 43.8563 7.3305 43.8587C6.25894 43.8575 5.35547 43.4568 4.62475 42.653C3.8917 41.8515 3.52518 40.8278 3.52518 39.5866C3.52518 38.3502 3.88703 37.3407 4.60608 36.551C5.32745 35.7614 6.23093 35.3713 7.32117 35.3713C8.43708 35.3713 9.35923 35.759 10.0876 36.5321C10.816 37.3099 11.0518 38.1941 11.0495 39.4448C11.0495 40.7238 10.8137 41.8893 10.0829 42.6766ZM34.8829 34.0095C34.2549 33.3641 33.5686 32.8771 32.8332 32.5556C32.0908 32.2293 31.2994 32.0685 30.4543 32.0662C28.6263 32.0662 27.0668 32.7754 25.7852 34.1892C24.5035 35.6054 23.8638 37.421 23.8615 39.6363C23.8592 41.7735 24.5198 43.5632 25.8459 44.9982C27.1696 46.438 28.7384 47.1591 30.5547 47.1591C31.3624 47.1603 32.1142 47.0126 32.8028 46.7193C33.4962 46.4238 34.1872 45.9439 34.8759 45.2725V46.7926H38.4198V32.4421H34.8829V34.0095ZM33.9444 42.6766C33.2161 43.4662 32.2963 43.8563 31.1943 43.8587C30.1204 43.8575 29.217 43.4568 28.4839 42.653C27.7509 41.8515 27.3843 40.8278 27.3867 39.5866C27.389 38.3502 27.7462 37.3407 28.4676 36.551C29.189 35.7614 30.0924 35.3713 31.1827 35.3713C32.2963 35.3713 33.2184 35.759 33.9491 36.5321C34.6775 37.3099 34.911 38.1941 34.9086 39.4448C34.9086 40.7238 34.6752 41.8893 33.9444 42.6766ZM59.7436 32.792C58.9826 32.3168 58.1024 32.0804 57.0986 32.0804C56.1274 32.0792 55.2379 32.3002 54.4185 32.7447C53.6014 33.1868 52.9127 33.8322 52.3478 34.6857C51.9182 33.8322 51.3486 33.1844 50.6412 32.7423C49.9292 32.2979 49.1354 32.0756 48.2529 32.0733C47.3798 32.0733 46.5744 32.2411 45.8343 32.5792C45.0943 32.9149 44.4219 33.4232 43.8173 34.1065V32.4421H40.2711L40.2663 46.7926H43.8102L43.8125 40.4259C43.8148 39.05 43.9339 38.0405 44.172 37.3998C44.4125 36.7591 44.772 36.2626 45.2529 35.9056C45.7362 35.5533 46.2708 35.3737 46.8614 35.3737C47.3891 35.3748 47.842 35.5155 48.2155 35.7968C48.589 36.0782 48.8668 36.5061 49.0536 37.0806C49.2404 37.6551 49.3337 38.5818 49.3337 39.8656L49.3268 46.7926H52.8753V40.3384C52.8801 38.9696 52.9967 37.9766 53.2302 37.3596C53.466 36.7401 53.8255 36.2578 54.3064 35.9056C54.785 35.5557 55.3336 35.3807 55.9429 35.3807C56.7413 35.3807 57.3366 35.6692 57.7382 36.2413C58.1397 36.8182 58.3382 37.9175 58.3382 39.537L58.3334 46.7926H61.8773L61.8819 38.388C61.8819 36.6645 61.7161 35.4186 61.3846 34.655C61.0531 33.8889 60.5068 33.2672 59.7434 32.792M74.2527 42.5631C73.3049 43.5183 72.1703 43.9958 70.8513 43.9958C69.7447 43.9946 68.8412 43.6861 68.1268 43.0761C67.4148 42.4662 66.9782 41.6434 66.8125 40.6079L78.1818 40.615L78.1958 39.9317C78.1958 37.5676 77.5024 35.6668 76.111 34.2223C74.722 32.7825 72.915 32.0614 70.6925 32.059C68.6008 32.059 66.8592 32.7801 65.4748 34.2293C64.0857 35.6738 63.3924 37.4919 63.3924 39.6811C63.3901 41.8207 64.0857 43.5962 65.4725 45.0171C66.8592 46.4403 68.6615 47.1496 70.87 47.1496C72.294 47.1507 73.522 46.8942 74.5609 46.3788C75.5951 45.8658 76.4846 45.0691 77.227 43.9957L74.2527 42.5631ZM68.2762 35.9671C69.021 35.4115 69.8871 35.1349 70.8723 35.1372C71.7851 35.1372 72.5835 35.3831 73.2675 35.8772C73.9586 36.3737 74.4185 37.0144 74.6519 37.804L66.9782 37.7993C67.3751 36.9246 67.8093 36.3123 68.2762 35.9671M86.5932 39.1989L91.3837 32.4397H87.3426L84.5691 36.3525L81.7863 32.4397H77.6822L82.5217 39.2391L77.1709 46.7926H81.212L84.5434 42.088L87.8935 46.7926H92L86.5932 39.1989ZM23.0909 32C22.4349 32 21.8629 32.1252 21.3844 32.3688C20.9128 32.6076 20.3712 33.045 19.7618 33.6857V32.4421H16.3791V46.7926H19.9229L19.9206 39.3289C19.9206 36.5936 20.6677 35.2224 22.4746 35.2224C22.7874 35.2224 23.1073 35.291 23.4294 35.4139C24.0107 34.428 24.6831 33.5013 25.4348 32.6478C24.6247 32.227 23.8426 32 23.0909 32" fill="white"/>
</svg>
