<svg width="112" height="80" viewBox="0 0 112 80" fill="none" xmlns="http://www.w3.org/2000/svg">
<g clip-path="url(#clip0_350_1519)">
<path d="M42.5626 56.7168C42.5605 56.5005 42.6169 56.2877 42.7255 56.1014C42.8342 55.915 42.9911 55.7621 43.1793 55.659C43.5238 55.4853 43.9392 55.3838 44.6706 55.2967L45.5024 55.1952V55.123C45.5024 54.2968 45.2158 53.9637 44.527 53.9637C43.925 53.9637 43.5516 54.2825 43.509 54.8478H42.6914C42.7487 53.935 43.4659 53.3262 44.5128 53.3262C45.7317 53.3262 46.2622 53.8915 46.2622 55.1952V56.4124C46.2622 57.1078 46.3054 57.586 46.42 57.934H45.6312L45.5597 57.1078C45.3589 57.6875 44.7999 58.0349 44.0685 58.0349C43.1651 58.0349 42.5626 57.5137 42.5626 56.7168ZM45.5166 55.9635V55.7318L44.312 55.9055C43.6521 56.007 43.3655 56.2387 43.3655 56.6732C43.3655 57.1078 43.6952 57.383 44.2405 57.383C45.015 57.3974 45.5166 56.8332 45.5166 55.9635Z" fill="white"/>
<path fill-rule="evenodd" clip-rule="evenodd" d="M76.1055 55.6741C76.1055 54.2104 76.8942 53.3125 78.1562 53.3125C79.2031 53.3125 79.8772 53.9208 79.9918 54.9499L79.2173 55.037C79.1311 54.3559 78.744 53.9793 78.142 53.9793C77.3822 53.9793 76.9089 54.6025 76.9089 55.6602C76.9089 56.7467 77.368 57.3556 78.1709 57.3556C78.773 57.3556 79.1463 56.9932 79.2609 56.2834L79.9781 56.3992C79.8204 57.4278 79.1463 58.0223 78.1567 58.0223C76.9089 58.0367 76.106 57.1096 76.106 55.6751L76.1055 55.6741Z" fill="white"/>
<path d="M80.752 55.6741C80.752 54.2104 81.5696 53.3125 82.8316 53.3125C84.0935 53.3125 84.9112 54.1966 84.9112 55.6741C84.9112 57.1377 84.0935 58.0356 82.8316 58.0356C81.5696 58.0356 80.752 57.1372 80.752 55.6741ZM84.0935 55.6741C84.0935 54.5584 83.6203 53.9787 82.8174 53.9787C82.0144 53.9787 81.5412 54.5584 81.5412 55.6741C81.5412 56.7897 82.0144 57.3694 82.8174 57.3694C83.6203 57.3694 84.0935 56.7897 84.0935 55.6741Z" fill="white"/>
<path fill-rule="evenodd" clip-rule="evenodd" d="M86.7753 53.429V54.2116C87.0193 53.6033 87.4494 53.2988 88.0515 53.2988C88.6682 53.2988 89.1126 53.6176 89.3134 54.2116C89.6 53.6033 90.059 53.2988 90.6616 53.2988C91.5219 53.2988 92.0098 53.922 92.0098 54.9798V57.9348H91.25V55.0515C91.25 54.3561 90.9635 53.9937 90.404 53.9937C89.773 53.9937 89.4002 54.4576 89.4002 55.2832V57.9491H88.6404V55.0223C88.6404 54.3704 88.3391 53.9937 87.8085 53.9937C87.1917 53.9937 86.8047 54.5011 86.8047 55.3124V57.9348H86.0449V53.4285H86.7763L86.7753 53.429Z" fill="white"/>
<path d="M93.4434 53.4282H94.1606V54.2681C94.4472 53.6449 94.9635 53.3262 95.6092 53.3262C96.6845 53.3262 97.4017 54.2681 97.4017 55.6877C97.4017 57.1222 96.6419 58.0493 95.5519 58.0493C94.8636 58.0493 94.3904 57.6726 94.1895 57.2231V59.6872H93.4297V53.4282H93.4439H93.4434ZM96.5983 55.6739C96.5983 54.6161 96.154 53.9929 95.4078 53.9929C94.6617 53.9929 94.1748 54.5869 94.1748 55.5581V55.7754C94.1748 56.746 94.6338 57.3549 95.3794 57.3549C96.1393 57.3549 96.5983 56.7317 96.5983 55.6739ZM98.1184 56.7173C98.1164 56.501 98.1727 56.2883 98.2814 56.1019C98.3901 55.9155 98.547 55.7626 98.7352 55.6596C99.0796 55.4858 99.495 55.3844 100.226 55.2972L101.058 55.1958V55.1235C101.058 54.2974 100.772 53.9642 100.083 53.9642C99.4808 53.9642 99.1075 54.283 99.0649 54.8483H98.2473C98.3046 53.9356 99.0218 53.3267 100.069 53.3267C101.288 53.3267 101.818 53.892 101.818 55.1958V56.4129C101.818 57.1084 101.861 57.5865 101.976 57.9345H101.187L101.116 57.1084C100.915 57.688 100.356 58.0355 99.6244 58.0355C98.7068 58.0355 98.1184 57.5143 98.1184 56.7173ZM101.073 55.964V55.7323L99.8678 55.9061C99.2079 56.0076 98.9214 56.2392 98.9214 56.6738C98.9214 57.1084 99.2511 57.3836 99.7963 57.3836C100.556 57.3979 101.073 56.8337 101.073 55.964Z" fill="white"/>
<path fill-rule="evenodd" clip-rule="evenodd" d="M103.266 53.4283H103.983V54.3124C104.27 53.6313 104.772 53.2982 105.475 53.2982C106.45 53.2982 106.966 53.9214 106.966 55.1237V57.9203H106.206V55.1672C106.206 54.3703 105.876 53.9644 105.231 53.9644C104.485 53.9644 104.04 54.5727 104.04 55.5726V57.9198H103.28V53.4278L103.266 53.4283ZM107.769 59.7023V59.0212C107.874 59.0325 107.979 59.0373 108.085 59.0355C108.615 59.0355 108.902 58.789 109.103 58.195L109.217 57.8619L107.439 53.4135H108.285L109.418 56.5433C109.484 56.7178 109.536 56.897 109.576 57.0793H109.59C109.619 56.9492 109.676 56.7749 109.748 56.5433L110.781 53.4135H111.598L109.863 58.195C109.447 59.3399 108.917 59.7166 108.171 59.7166C108.037 59.7334 107.902 59.7285 107.769 59.7023ZM3.26956 37.4028C3.26956 37.2726 3.32687 37.2577 3.4415 37.2577C3.62817 37.2577 4.24443 37.7215 5.37758 37.7215C6.99816 37.7215 8.57562 36.6494 8.57562 34.7511C8.57562 33.2295 7.58603 31.8679 4.63196 31.8679H2.62438C1.49123 31.8679 0.645183 31.81 0.301296 31.81C0.114629 31.81 0 31.9114 0 32.0708C0 32.3752 0.401728 32.3752 0.774535 32.3896C1.07583 32.4188 1.39132 32.4618 1.39132 32.7519V35.5486L1.33401 40.4895C1.33401 41.0256 1.09003 41.127 0.703023 41.2142C0.401728 41.3013 0.0720376 41.2721 0.0720376 41.5622C0.0720376 41.6923 0.158272 41.7359 0.243981 41.7359H3.44203C3.80064 41.7359 4.08721 41.7938 4.35959 41.7938C4.66088 41.7938 4.81863 41.7795 4.81863 41.6052C4.81863 41.3736 4.7182 41.3157 4.43162 41.2864C3.41363 41.1414 3.27008 41.0691 3.27008 40.7068V37.4033L3.26956 37.4028ZM3.28376 34.2586C3.28376 32.4331 3.28376 32.3896 4.38798 32.3896C5.83662 32.3896 6.55331 33.4761 6.55331 34.6066C6.55331 36.8237 4.96165 36.8816 4.21604 36.8816C3.57085 36.8816 3.28376 36.8672 3.28376 36.5336V34.2586ZM24.8093 36.939C24.827 36.9952 24.8367 37.0537 24.8382 37.1127C24.8382 37.2142 24.3792 37.2142 23.7629 37.2142C23.2466 37.2142 22.6298 37.1998 22.6298 37.084C22.6298 36.9538 22.6871 36.8088 22.7586 36.6494L23.6189 34.6789C23.662 34.5487 23.7477 34.4616 23.8055 34.4616C23.8344 34.4616 23.906 34.4616 23.9343 34.5338L24.8093 36.939ZM24.6226 31.2447H24.436L23.0878 34.6497L20.3919 40.4746C20.2434 40.7942 20.0037 41.0616 19.7036 41.2423C19.3166 41.474 18.8717 41.4161 18.8717 41.6913C18.8717 41.8071 18.9864 41.8214 19.1441 41.8214L20.9366 41.7635C21.5245 41.7635 21.84 41.8214 22.0267 41.8214C22.3711 41.8214 22.5141 41.7635 22.5141 41.5462C22.5141 41.3146 22.1986 41.2567 22.0409 41.2418C21.6681 41.2126 21.2952 41.1695 21.2952 40.7057C21.2952 40.3434 21.7396 39.4307 22.0267 38.7639C22.2848 38.1264 22.4137 37.9234 22.8154 37.9234L24.8088 37.9813C25.1532 37.9813 25.1958 38.0249 25.2389 38.1407L25.8841 40.2563C25.9414 40.4736 26.0418 40.6765 26.0418 40.8359C26.0418 41.1255 25.7405 41.2126 25.3819 41.2561C25.1096 41.2854 24.966 41.372 24.966 41.5457C24.966 41.7486 25.0664 41.763 25.1953 41.763H27.0882L29.0816 41.8209C29.3971 41.8209 29.4544 41.8066 29.4544 41.6907C29.4544 41.517 29.0816 41.517 28.6368 41.2418C28.1204 40.923 28.0489 40.7493 27.5757 39.5757L24.6216 31.2441L24.6226 31.2447ZM44.9577 42.0249C45.675 42.0249 47.7399 41.8076 47.8976 41.1557L48.1989 39.5619C48.1989 39.4317 48.1416 39.2867 48.027 39.2867C47.6684 39.2867 47.009 41.4166 44.8578 41.4166C44.0833 41.4166 41.5741 40.8805 41.5741 36.7652C41.5741 34.07 43.2951 32.2732 45.0587 32.2732C46.9227 32.2732 47.5395 34.0408 47.9844 34.0408C48.1563 34.0408 48.1852 33.9686 48.1852 33.8522C48.1852 33.7072 48.1279 32.838 48.0848 32.635C48.0133 32.1712 46.3785 31.8089 45.1018 31.8089C42.6352 31.8089 39.4661 33.1998 39.4661 37.0829C39.4661 40.1112 42.2913 42.0239 44.9583 42.0239L44.9577 42.0249Z" fill="white"/>
<path fill-rule="evenodd" clip-rule="evenodd" d="M23.748 28.3316C23.748 28.3316 37.1565 22.7388 59.1695 22.7388C81.8992 22.7388 96.5696 28.0564 96.5696 28.0564C96.5696 28.0564 81.7267 20 59.8862 20C38.3895 20 23.748 28.3316 23.748 28.3316ZM91.6216 42.0673H102.148L96.8988 31.7217L91.6216 42.0673Z" fill="white"/>
<path fill-rule="evenodd" clip-rule="evenodd" d="M59.57 39.4585C59.57 41.0524 59.4264 41.1103 58.3795 41.2261C58.2507 41.2405 57.9062 41.2405 57.9062 41.5592C57.9062 41.7478 58.064 41.8057 58.2649 41.8057C58.3937 41.8057 58.6093 41.7478 59.3833 41.7478H62.7675L65.3487 41.8057C65.4776 41.8057 65.5927 41.1974 65.65 40.8494C65.7073 40.4728 65.9082 39.8352 65.9082 39.6179C65.9082 39.4729 65.9082 39.3135 65.7073 39.3135C65.3487 39.3135 65.3487 40.2842 64.2303 40.9074C63.9148 41.0811 63.6856 41.1969 63.0256 41.1969C62.2942 41.1969 61.5344 41.0811 61.5344 40.4871V37.4152C61.5344 37.0093 61.5917 36.9371 62.1796 36.9371C63.5704 36.9371 63.9006 37.2702 64.0152 37.7483C64.1872 38.5017 64.2161 38.5596 64.417 38.5596C64.6036 38.5596 64.661 38.4725 64.661 38.3423C64.661 38.2122 64.6036 37.9221 64.6036 37.2702C64.6036 36.6619 64.7325 35.7922 64.7325 35.4298C64.7325 35.3863 64.7467 34.966 64.5174 34.966C64.2734 34.966 64.1588 35.4734 63.9006 35.8644C63.6998 36.1832 63.4847 36.3861 62.5813 36.3861C61.6349 36.3861 61.5633 36.2703 61.5633 35.9516V33.4885C61.5633 32.6045 61.5923 32.5614 62.2948 32.5614C63.643 32.5614 64.5321 32.7787 64.8045 33.2712C65.12 33.793 65.1342 34.2568 65.3924 34.2568C65.6364 34.2568 65.6364 33.8944 65.6364 33.2861C65.6364 31.9967 65.6074 31.9531 65.2919 31.9531L61.8357 32.011C59.8996 32.011 59.1971 31.9531 58.5088 31.9531C58.2507 31.9531 58.1933 31.9823 58.1933 32.1704C58.1933 32.3441 58.2507 32.4169 59.0683 32.4892C59.5705 32.5328 59.5705 33.0688 59.5705 33.4455L59.57 39.4585Z" fill="white"/>
<path fill-rule="evenodd" clip-rule="evenodd" d="M56.7323 53.658V51.7598H49.9492V53.658H52.2723V58.0193H54.4092V53.658H56.7323Z" fill="white"/>
<path fill-rule="evenodd" clip-rule="evenodd" d="M65.8224 58.0193L61.5922 53.7739L61.506 53.658H61.4918L59.5988 51.7598H56.7305L60.0573 55.1068L57.1606 58.0193H60.0289L61.4918 56.5556L62.9546 58.0193H65.8224ZM72.6771 51.7603H67.1417L65.2488 53.6586H68.2028V58.0199H70.3251V53.6586H72.6771V51.7603Z" fill="white"/>
<path fill-rule="evenodd" clip-rule="evenodd" d="M66.2402 51.7617H63.3866L61.5078 53.66H64.3614L66.2402 51.7617Z" fill="white"/>
<path fill-rule="evenodd" clip-rule="evenodd" d="M56.7323 53.658V51.7598H49.9492V53.658H52.2723V58.0193H54.4092V53.658H56.7323Z" fill="white"/>
</g>
<defs>
<clipPath id="clip0_350_1519">
<rect width="112" height="39.8462" fill="white" transform="translate(0 20)"/>
</clipPath>
</defs>
</svg>
