<svg width="80" height="80" viewBox="0 0 80 80" fill="none" xmlns="http://www.w3.org/2000/svg">
<g id="Supporting healthcare development">
<path id="Vector" fill-rule="evenodd" clip-rule="evenodd" d="M38.3452 77.6563V6.20801H41.5176V77.6563H38.3452Z" fill="#00267B"/>
<path id="Vector_2" fill-rule="evenodd" clip-rule="evenodd" d="M2.30785 16.3457H29.9673L43.1489 38.2767H19.6497C15.4729 38.2767 12.2886 36.8136 10.1773 34.4064C8.32089 32.2899 7.40308 29.569 7.25432 26.7831C2.82042 24.4032 1.79121 20.3321 2.1287 17.728L2.30785 16.3457ZM10.5878 28.0455C10.8863 29.686 11.5484 31.1586 12.5623 32.3145C13.9929 33.9456 16.2606 35.1043 19.6497 35.1043H37.5408L28.1728 19.5181H5.31082C5.57194 21.0956 6.6235 23.0892 9.45558 24.3278C11.0378 25.0197 13.2306 25.5034 16.2375 25.5034V28.6758C14.0738 28.6758 12.2014 28.4506 10.5878 28.0455Z" fill="#00267B"/>
<path id="Vector_3" fill-rule="evenodd" clip-rule="evenodd" d="M77.6925 16.3457H50.033L36.8515 38.2767H60.3506C64.5274 38.2767 67.7118 36.8136 69.8231 34.4064C71.6795 32.2899 72.5973 29.569 72.746 26.7831C77.1799 24.4032 78.2092 20.3321 77.8717 17.728L77.6925 16.3457ZM69.4125 28.0455C69.1141 29.686 68.4519 31.1586 67.4381 32.3145C66.0074 33.9456 63.7398 35.1043 60.3506 35.1043H42.4596L51.8276 19.5181H74.6895C74.4284 21.0956 73.3769 23.0892 70.5448 24.3278C68.9626 25.0197 66.7698 25.5034 63.7628 25.5034V28.6758C65.9265 28.6758 67.799 28.4506 69.4125 28.0455Z" fill="#00267B"/>
<path id="Vector_4" fill-rule="evenodd" clip-rule="evenodd" d="M20.8275 50.6433C20.8275 46.2271 24.5683 43.793 27.8895 43.793H31.6634V46.9654H27.8895C25.883 46.9654 23.9999 48.3867 23.9999 50.6433C23.9999 52.0808 24.5707 53.0085 25.2987 53.607C26.0744 54.2447 27.0795 54.5436 27.8895 54.5436H39.6551V57.716H32.014C30.6857 58.3591 29.9983 59.043 29.6154 59.6901C29.1975 60.3962 29.0317 61.2432 29.0317 62.3577C29.0317 64.077 30.5549 65.8873 32.6254 65.8873H39.6551V69.0597H35.429C34.3048 69.504 33.8258 70.005 33.5949 70.3876C33.3336 70.8207 33.2496 71.3304 33.2496 71.9962C33.2496 72.9094 34.0128 74.4137 35.9552 74.4137H39.6551V77.5861H35.9552C31.8299 77.5861 30.0772 74.197 30.0772 71.9962C30.0772 71.1232 30.1741 69.9581 30.8366 68.8196C27.8423 67.9919 25.8593 65.1546 25.8593 62.3577C25.8593 60.9514 26.0636 59.4629 26.8852 58.0745C26.9658 57.9383 27.0513 57.8047 27.1418 57.6738C25.8464 57.5297 24.445 57.012 23.2841 56.0576C21.8477 54.8767 20.8275 53.0611 20.8275 50.6433Z" fill="url(#paint0_linear_907_5089)"/>
<path id="Vector_5" fill-rule="evenodd" clip-rule="evenodd" d="M59.5861 50.6433C59.5861 46.2162 55.8102 43.793 52.4802 43.793H48.6762V46.9654H52.4802C54.5207 46.9654 56.4136 48.3976 56.4136 50.6433C56.4136 52.076 55.8406 53.0028 55.1046 53.6031C54.3204 54.2427 53.3027 54.5436 52.4802 54.5436H40.6205V57.716H48.3282C49.6729 58.3611 50.368 59.0472 50.7544 59.6949C51.1748 60.3998 51.3416 61.2448 51.3416 62.3577C51.3416 64.0648 49.8127 65.8873 47.7065 65.8873H40.6205V69.0597H44.8851C46.0248 69.5058 46.5099 70.0093 46.7429 70.3924C47.0056 70.8242 47.09 71.3318 47.09 71.9962C47.09 72.8967 46.3276 74.4137 44.35 74.4137H40.6205V77.5861H44.35C48.4888 77.5861 50.2624 74.2096 50.2624 71.9962C50.2624 71.1235 50.1648 69.959 49.4995 68.8211C52.5093 67.9969 54.514 65.1657 54.514 62.3577C54.514 60.9498 54.3078 59.4593 53.4789 58.0697C53.3988 57.9354 53.3139 57.8038 53.2241 57.6747C54.5273 57.5322 55.9393 57.0161 57.1097 56.0615C58.5554 54.8824 59.5861 53.066 59.5861 50.6433Z" fill="url(#paint1_linear_907_5089)"/>
<g id="Group" filter="url(#filter0_d_907_5089)">
<path id="Vector_6" d="M39.9407 15.8834C43.6791 15.8834 46.7096 12.8529 46.7096 9.11455C46.7096 5.37622 43.6791 2.3457 39.9407 2.3457C36.2024 2.3457 33.1719 5.37622 33.1719 9.11455C33.1719 12.8529 36.2024 15.8834 39.9407 15.8834Z" fill="white"/>
</g>
<path id="Vector_7" d="M39.9408 11.8233C41.4361 11.8233 42.6484 10.6111 42.6484 9.11574C42.6484 7.62041 41.4361 6.4082 39.9408 6.4082C38.4455 6.4082 37.2333 7.62041 37.2333 9.11574C37.2333 10.6111 38.4455 11.8233 39.9408 11.8233Z" fill="#0045E6"/>
</g>
<defs>
<filter id="filter0_d_907_5089" x="29.1719" y="0.345703" width="21.5377" height="21.5381" filterUnits="userSpaceOnUse" color-interpolation-filters="sRGB">
<feFlood flood-opacity="0" result="BackgroundImageFix"/>
<feColorMatrix in="SourceAlpha" type="matrix" values="0 0 0 0 0 0 0 0 0 0 0 0 0 0 0 0 0 0 127 0" result="hardAlpha"/>
<feOffset dy="2"/>
<feGaussianBlur stdDeviation="2"/>
<feColorMatrix type="matrix" values="0 0 0 0 0 0 0 0 0 0 0 0 0 0 0 0 0 0 0.45 0"/>
<feBlend mode="normal" in2="BackgroundImageFix" result="effect1_dropShadow_907_5089"/>
<feBlend mode="normal" in="SourceGraphic" in2="effect1_dropShadow_907_5089" result="shape"/>
</filter>
<linearGradient id="paint0_linear_907_5089" x1="29.3792" y1="60.6895" x2="37.5861" y2="60.6895" gradientUnits="userSpaceOnUse">
<stop stop-color="#00267B"/>
<stop offset="1" stop-color="#00267B" stop-opacity="0"/>
</linearGradient>
<linearGradient id="paint1_linear_907_5089" x1="51.3792" y1="59.4481" x2="42.2757" y2="59.4481" gradientUnits="userSpaceOnUse">
<stop stop-color="#00267B"/>
<stop offset="1" stop-color="#00267B" stop-opacity="0"/>
</linearGradient>
</defs>
</svg>
