<svg width="84" height="68" viewBox="0 0 84 68" fill="none" xmlns="http://www.w3.org/2000/svg">
<g id="svgexport-6" clip-path="url(#clip0_267_19893)">
<g id="Group">
<path id="Vector" fill-rule="evenodd" clip-rule="evenodd" d="M33.1124 21.5645C35.1876 18.6454 38.6533 16.2422 44.0001 16.2422C49.269 16.2422 52.879 18.3528 55.1391 21.1506C57.3487 23.8858 58.207 27.1967 58.207 29.6215V38.0353H62.207V67.4836H26.207V38.0353H30.4139V29.6215C30.4139 27.6807 31.096 24.401 33.1124 21.5645ZM33.5863 38.0353H35.4484V29.6215C35.4484 26.2131 38.1551 21.3457 44.0001 21.3457C49.6142 21.3457 53.0346 25.3458 53.0346 29.6215V38.0353H55.0346V29.6215C55.0346 27.8394 54.3756 25.2538 52.6714 23.1442C51.0178 21.0972 48.3174 19.4146 44.0001 19.4146C39.7607 19.4146 37.2263 21.2528 35.6981 23.4026C34.111 25.6351 33.5863 28.252 33.5863 29.6215V38.0353ZM49.8621 38.0353V29.6215C49.8621 27.1387 47.9032 24.5181 44.0001 24.5181C40.3278 24.5181 38.6208 27.5127 38.6208 29.6215V38.0353H49.8621ZM29.3794 41.2077V64.3112H59.0346V41.2077H29.3794Z" fill="white"/>
<path id="Vector_2" fill-rule="evenodd" clip-rule="evenodd" d="M42.2931 48.38C41.9493 48.7238 41.7232 49.2363 41.7232 49.8963C41.7232 50.6703 41.8993 51.056 42.0183 51.243C42.1449 51.442 42.2884 51.5527 42.5072 51.709L43.1714 52.1834V56.517C43.1714 56.6056 43.1889 56.6384 43.1918 56.6439C43.1955 56.651 43.2107 56.6778 43.2668 56.7174C43.3972 56.8093 43.7015 56.9308 44.2059 56.9308C44.536 56.9308 44.7872 56.8302 44.9175 56.731C44.9766 56.6859 45.0014 56.6494 45.0118 56.6293C45.0203 56.6132 45.0335 56.5825 45.0335 56.517V52.3427L45.4981 51.8781C45.6073 51.7689 45.7179 51.673 45.7982 51.6042C45.8269 51.5797 45.8519 51.5583 45.8749 51.5387C45.9271 51.4943 45.9685 51.4591 46.0159 51.417C46.1356 51.3105 46.2128 51.2289 46.2744 51.1421C46.37 51.0073 46.5508 50.6925 46.5508 49.8963C46.5508 49.2141 46.3167 48.715 45.9665 48.3821C45.6129 48.046 45.0115 47.7584 44.068 47.7584C43.1914 47.7584 42.6307 48.0423 42.2931 48.38ZM40.0498 46.1367C41.057 45.1295 42.4618 44.5859 44.068 44.5859C45.6762 44.5859 47.1093 45.0914 48.1522 46.0828C49.1986 47.0775 49.7232 48.4405 49.7232 49.8963C49.7232 51.238 49.3981 52.222 48.8616 52.9781C48.6386 53.2922 48.4035 53.532 48.2059 53.7136V56.517C48.2059 57.6978 47.6392 58.6458 46.8397 59.2547C46.0736 59.8382 45.1179 60.1032 44.2059 60.1032C43.262 60.1032 42.256 59.8867 41.4381 59.3097C40.5623 58.6919 39.999 57.7182 39.999 56.517V53.75C39.7839 53.5419 39.5527 53.2775 39.3418 52.9462C38.8574 52.1849 38.5508 51.1913 38.5508 49.8963C38.5508 48.4873 39.0488 47.1378 40.0498 46.1367Z" fill="white"/>
</g>
<path id="Vector_3" fill-rule="evenodd" clip-rule="evenodd" d="M29.5188 14.5878C29.5188 13.5213 28.6543 12.6568 27.5878 12.6568C26.5213 12.6568 25.6568 13.5213 25.6568 14.5878C25.6568 15.6543 26.5213 16.5188 27.5878 16.5188C28.6543 16.5188 29.5188 15.6543 29.5188 14.5878ZM32.6913 14.5878C32.6913 11.7692 30.4064 9.48438 27.5878 9.48438C24.7693 9.48438 22.4844 11.7692 22.4844 14.5878C22.4844 17.4063 24.7693 19.6912 27.5878 19.6912C30.4064 19.6912 32.6913 17.4063 32.6913 14.5878Z" fill="white"/>
<path id="Vector_4" fill-rule="evenodd" clip-rule="evenodd" d="M11.0345 30.3104C11.0345 29.2439 10.1699 28.3794 9.10345 28.3794C8.03697 28.3794 7.17241 29.2439 7.17241 30.3104C7.17241 31.3769 8.03697 32.2414 9.10345 32.2414C10.1699 32.2414 11.0345 31.3769 11.0345 30.3104ZM14.2069 30.3104C14.2069 27.4919 11.922 25.207 9.10345 25.207C6.28489 25.207 4 27.4919 4 30.3104C4 33.129 6.28489 35.4139 9.10345 35.4139C11.922 35.4139 14.2069 33.129 14.2069 30.3104Z" fill="white"/>
<path id="Vector_5" fill-rule="evenodd" clip-rule="evenodd" d="M80.8274 30.3104C80.8274 29.2439 79.9629 28.3794 78.8964 28.3794C77.8299 28.3794 76.9654 29.2439 76.9654 30.3104C76.9654 31.3769 77.8299 32.2414 78.8964 32.2414C79.9629 32.2414 80.8274 31.3769 80.8274 30.3104ZM83.9999 30.3104C83.9999 27.4919 81.715 25.207 78.8964 25.207C76.0779 25.207 73.793 27.4919 73.793 30.3104C73.793 33.129 76.0779 35.4139 78.8964 35.4139C81.715 35.4139 83.9999 33.129 83.9999 30.3104Z" fill="white"/>
<path id="Vector_6" fill-rule="evenodd" clip-rule="evenodd" d="M78.4837 48.5175C78.4837 47.4511 77.6192 46.5865 76.5527 46.5865C75.4862 46.5865 74.6217 47.4511 74.6217 48.5175C74.6217 49.584 75.4862 50.4486 76.5527 50.4486C77.6192 50.4486 78.4837 49.584 78.4837 48.5175ZM81.6561 48.5175C81.6561 45.699 79.3712 43.4141 76.5527 43.4141C73.7341 43.4141 71.4492 45.699 71.4492 48.5175C71.4492 51.3361 73.7341 53.621 76.5527 53.621C79.3712 53.621 81.6561 51.3361 81.6561 48.5175Z" fill="white"/>
<path id="Vector_7" fill-rule="evenodd" clip-rule="evenodd" d="M72.2766 62.4472C72.2766 61.3807 71.4121 60.5162 70.3456 60.5162C69.2791 60.5162 68.4146 61.3807 68.4146 62.4472C68.4146 63.5137 69.2791 64.3782 70.3456 64.3782C71.4121 64.3782 72.2766 63.5137 72.2766 62.4472ZM75.449 62.4472C75.449 59.6287 73.1642 57.3438 70.3456 57.3438C67.527 57.3438 65.2422 59.6287 65.2422 62.4472C65.2422 65.2658 67.527 67.5507 70.3456 67.5507C73.1642 67.5507 75.449 65.2658 75.449 62.4472Z" fill="white"/>
<path id="Vector_8" fill-rule="evenodd" clip-rule="evenodd" d="M19.8626 62.4472C19.8626 61.3807 18.9981 60.5162 17.9316 60.5162C16.8651 60.5162 16.0005 61.3807 16.0005 62.4472C16.0005 63.5137 16.8651 64.3782 17.9316 64.3782C18.9981 64.3782 19.8626 63.5137 19.8626 62.4472ZM23.035 62.4472C23.035 59.6287 20.7501 57.3438 17.9316 57.3438C15.113 57.3438 12.8281 59.6287 12.8281 62.4472C12.8281 65.2658 15.113 67.5507 17.9316 67.5507C20.7501 67.5507 23.035 65.2658 23.035 62.4472Z" fill="white"/>
<path id="Vector_9" fill-rule="evenodd" clip-rule="evenodd" d="M62.8285 14.9297V30.5848H57.3113V27.4124H59.6561V14.9297H62.8285ZM28.8975 27.4124V18.171H25.7251V30.5848H31.7251V27.4124H28.8975ZM11.4492 28.7228H22.0373L26.0373 32.7228H31.7251V35.8952H24.7232L20.7232 31.8952H11.4492V28.7228ZM66.6543 28.7228H76.4837V31.8952H67.9683L63.9683 35.8952H57.3113V32.7228H62.6543L66.6543 28.7228ZM18.8975 43.2745H27.3113V46.4469H22.0699V49.8262H14.1389V46.6538H18.8975V43.2745ZM66.2768 46.4469H61.2423V43.2745H69.4492V46.6538H74.6906V49.8262H66.2768V46.4469ZM19.7941 50.9986H27.3113V54.171H22.9665V63.4124H19.7941V50.9986ZM65.3113 54.171H61.2423V50.9986H68.4837V63.4124H65.3113V54.171Z" fill="url(#paint0_linear_267_19893)"/>
<g id="Group_2">
<g id="Group_3" filter="url(#filter0_d_267_19893)">
<path id="Vector_10" d="M10.6875 55.2735C14.3809 55.2735 17.375 52.2794 17.375 48.5859C17.375 44.8925 14.3809 41.8984 10.6875 41.8984C6.9941 41.8984 4 44.8925 4 48.5859C4 52.2794 6.9941 55.2735 10.6875 55.2735Z" fill="white"/>
</g>
<path id="Vector_11" d="M10.6867 51.2602C12.1641 51.2602 13.3617 50.0625 13.3617 48.5852C13.3617 47.1078 12.1641 45.9102 10.6867 45.9102C9.20936 45.9102 8.01172 47.1078 8.01172 48.5852C8.01172 50.0625 9.20936 51.2602 10.6867 51.2602Z" fill="#0045E6"/>
</g>
<g id="Group_4">
<g id="Group_5" filter="url(#filter1_d_267_19893)">
<path id="Vector_12" d="M61.3086 16.2383C65.002 16.2383 67.9961 13.2442 67.9961 9.55079C67.9961 5.85738 65.002 2.86328 61.3086 2.86328C57.6152 2.86328 54.6211 5.85738 54.6211 9.55079C54.6211 13.2442 57.6152 16.2383 61.3086 16.2383Z" fill="white"/>
</g>
<path id="Vector_13" d="M61.3078 12.2289C62.7852 12.2289 63.9828 11.0313 63.9828 9.55391C63.9828 8.07654 62.7852 6.87891 61.3078 6.87891C59.8305 6.87891 58.6328 8.07654 58.6328 9.55391C58.6328 11.0313 59.8305 12.2289 61.3078 12.2289Z" fill="#0045E6"/>
</g>
</g>
<defs>
<filter id="filter0_d_267_19893" x="0" y="39.8984" width="21.375" height="21.375" filterUnits="userSpaceOnUse" color-interpolation-filters="sRGB">
<feFlood flood-opacity="0" result="BackgroundImageFix"/>
<feColorMatrix in="SourceAlpha" type="matrix" values="0 0 0 0 0 0 0 0 0 0 0 0 0 0 0 0 0 0 127 0" result="hardAlpha"/>
<feOffset dy="2"/>
<feGaussianBlur stdDeviation="2"/>
<feColorMatrix type="matrix" values="0 0 0 0 0 0 0 0 0 0 0 0 0 0 0 0 0 0 0.45 0"/>
<feBlend mode="normal" in2="BackgroundImageFix" result="effect1_dropShadow_267_19893"/>
<feBlend mode="normal" in="SourceGraphic" in2="effect1_dropShadow_267_19893" result="shape"/>
</filter>
<filter id="filter1_d_267_19893" x="50.6211" y="0.863281" width="21.375" height="21.375" filterUnits="userSpaceOnUse" color-interpolation-filters="sRGB">
<feFlood flood-opacity="0" result="BackgroundImageFix"/>
<feColorMatrix in="SourceAlpha" type="matrix" values="0 0 0 0 0 0 0 0 0 0 0 0 0 0 0 0 0 0 127 0" result="hardAlpha"/>
<feOffset dy="2"/>
<feGaussianBlur stdDeviation="2"/>
<feColorMatrix type="matrix" values="0 0 0 0 0 0 0 0 0 0 0 0 0 0 0 0 0 0 0.45 0"/>
<feBlend mode="normal" in2="BackgroundImageFix" result="effect1_dropShadow_267_19893"/>
<feBlend mode="normal" in="SourceGraphic" in2="effect1_dropShadow_267_19893" result="shape"/>
</filter>
<linearGradient id="paint0_linear_267_19893" x1="39.7941" y1="27.7572" x2="39.7941" y2="17.9641" gradientUnits="userSpaceOnUse">
<stop stop-color="white"/>
<stop offset="1" stop-color="white" stop-opacity="0"/>
</linearGradient>
<clipPath id="clip0_267_19893">
<rect width="84" height="68" fill="white"/>
</clipPath>
</defs>
</svg>
