<svg width="104" height="107" viewBox="0 0 104 107" fill="none" xmlns="http://www.w3.org/2000/svg">
<g id="svgexport-5" clip-path="url(#clip0_296_25364)">
<g id="Group">
<path id="Vector" d="M30.1224 91.3729C50.7857 103.434 77.308 96.4501 89.3615 75.7734L93 77.8972C79.7743 100.585 50.6728 108.248 28 95.0137L30.1224 91.3729Z" fill="url(#paint0_linear_296_25364)"/>
<path id="Vector_2" d="M94.7985 56.7857C95.855 32.9513 77.5889 12.7643 54 11.6968L54.186 7.5C80.0689 8.6713 100.111 30.8214 98.9521 56.9737L94.7985 56.7857Z" fill="url(#paint1_linear_296_25364)"/>
<path id="Vector_3" d="M29 17.9571C9.32458 30.2746 3.17077 56.5176 15.2551 76.5727L11.7906 78.7416C-1.46892 56.7362 5.28334 27.9411 26.8722 14.4258L29 17.9571Z" fill="url(#paint2_linear_296_25364)"/>
<g id="Group_2" filter="url(#filter0_d_296_25364)">
<path id="Vector_4" d="M89.944 84.5873C94.4414 84.5873 98.0873 80.9414 98.0873 76.444C98.0873 71.9466 94.4414 68.3008 89.944 68.3008C85.4466 68.3008 81.8008 71.9466 81.8008 76.444C81.8008 80.9414 85.4466 84.5873 89.944 84.5873Z" fill="white"/>
</g>
<path id="Vector_5" d="M89.9409 79.7021C91.7399 79.7021 93.1982 78.2438 93.1982 76.4448C93.1982 74.6458 91.7399 73.1875 89.9409 73.1875C88.1419 73.1875 86.6836 74.6458 86.6836 76.4448C86.6836 78.2438 88.1419 79.7021 89.9409 79.7021Z" fill="#0045E6"/>
<g id="Group_3" filter="url(#filter1_d_296_25364)">
<path id="Vector_6" d="M14.0534 84.5873C18.5508 84.5873 22.1967 80.9414 22.1967 76.444C22.1967 71.9466 18.5508 68.3008 14.0534 68.3008C9.55601 68.3008 5.91016 71.9466 5.91016 76.444C5.91016 80.9414 9.55601 84.5873 14.0534 84.5873Z" fill="white"/>
</g>
<path id="Vector_7" d="M14.0503 79.7021C15.8492 79.7021 17.3076 78.2438 17.3076 76.4448C17.3076 74.6458 15.8492 73.1875 14.0503 73.1875C12.2513 73.1875 10.793 74.6458 10.793 76.4448C10.793 78.2438 12.2513 79.7021 14.0503 79.7021Z" fill="#0045E6"/>
<g id="Group_4" filter="url(#filter2_d_296_25364)">
<path id="Vector_8" d="M51.9987 18.7865C56.4961 18.7865 60.142 15.1406 60.142 10.6432C60.142 6.14586 56.4961 2.5 51.9987 2.5C47.5013 2.5 43.8555 6.14586 43.8555 10.6432C43.8555 15.1406 47.5013 18.7865 51.9987 18.7865Z" fill="white"/>
</g>
<path id="Vector_9" d="M51.9995 13.9013C53.7984 13.9013 55.2568 12.443 55.2568 10.644C55.2568 8.84506 53.7984 7.38672 51.9995 7.38672C50.2005 7.38672 48.7422 8.84506 48.7422 10.644C48.7422 12.443 50.2005 13.9013 51.9995 13.9013Z" fill="#0045E6"/>
</g>
<g id="Group_5">
<path id="Vector_10" fill-rule="evenodd" clip-rule="evenodd" d="M60.1816 26.5L66.4011 32.5169C66.9064 32.2665 67.4788 32.0663 68.0925 31.9621C69.4892 31.725 71.1336 31.99 72.5528 33.2975C73.9321 34.5684 74.412 36.1397 74.31 37.5927C74.2598 38.3082 74.0706 38.9864 73.7943 39.5887L79.7335 45.5167L71.6362 53.8596L70.3691 52.753C69.8334 52.2851 69.2443 52.0108 68.7417 51.9517C68.3019 51.9001 67.8671 51.9976 67.4202 52.4243C66.9396 52.8832 66.7962 53.3554 66.8144 53.8009C66.8343 54.2881 67.0586 54.8622 67.5243 55.389L68.6296 56.6393L43.4632 81.7586L24 62.5431L29.7803 56.7736C29.5164 56.2346 29.3041 55.6163 29.213 54.9387C29.0165 53.4762 29.4105 51.8778 30.7591 50.4676C32.805 48.3284 35.314 48.3248 37.153 49.171L49.0205 37.6987L50.2489 38.7886C50.4145 38.9356 50.9156 39.2373 51.5294 39.3242C52.0685 39.4005 52.6491 39.3119 53.2307 38.7925C54.4512 37.7025 54.1857 36.2831 53.5739 35.6255L52.4178 34.3828L60.1816 26.5ZM60.2419 31.4925L57.122 34.6602C58.0244 36.6687 57.8683 39.4053 55.5929 41.4375C54.1167 42.7558 52.4417 43.0348 51.0326 42.8354C50.4109 42.7475 49.8314 42.5665 49.3228 42.3389L37.4094 53.8554L36.1788 52.7215C35.8678 52.435 35.3889 52.2109 34.8886 52.1935C34.4443 52.178 33.8954 52.319 33.322 52.9186C32.7373 53.53 32.671 54.0451 32.7277 54.4664C32.7964 54.9779 33.0812 55.5025 33.4017 55.8864L34.4414 57.1317L29.0336 62.5293L43.4495 76.7618L63.9119 56.3378C63.5381 55.6022 63.3056 54.7916 63.2711 53.9456C63.211 52.4751 63.7581 51.0177 64.9714 49.8593C66.2184 48.6687 67.7171 48.2608 69.1553 48.4297C69.9233 48.5199 70.6471 48.7693 71.2998 49.1144L74.7532 45.5562L69.079 39.8927L70.2295 38.6399C70.484 38.3628 70.7358 37.8668 70.7725 37.3444C70.804 36.8952 70.6855 36.399 70.1499 35.9056C69.6541 35.4488 69.1658 35.3769 68.686 35.4583C68.1281 35.553 67.6364 35.8596 67.4262 36.0621L66.1935 37.2501L60.2419 31.4925Z" fill="white"/>
<path id="Vector_11" fill-rule="evenodd" clip-rule="evenodd" d="M47.2103 68.9386L43.5099 72.7161L40.9766 70.2346L44.6771 66.457L47.2103 68.9386Z" fill="white"/>
<path id="Vector_12" fill-rule="evenodd" clip-rule="evenodd" d="M46.8345 51.6815L42.2031 46.88L44.7554 44.418L51.5218 51.433L50.3997 52.6618C50.1261 52.9614 49.8386 53.4994 49.7703 54.0757C49.7093 54.5902 49.8181 55.1083 50.2862 55.6029C50.75 56.093 51.2305 56.2105 51.7176 56.1645C52.2736 56.1119 52.8577 55.8315 53.269 55.4776L54.5073 54.4121L60.9136 60.73L58.4235 63.255L54.19 59.0798C53.5465 59.3951 52.8205 59.6223 52.0511 59.695C50.5836 59.8336 48.9944 59.3971 47.7105 58.0405C46.4308 56.6883 46.0798 55.0828 46.2487 53.6581C46.3331 52.947 46.5456 52.2758 46.8345 51.6815Z" fill="white"/>
</g>
</g>
<defs>
<filter id="filter0_d_296_25364" x="77.8008" y="66.3008" width="24.2871" height="24.2871" filterUnits="userSpaceOnUse" color-interpolation-filters="sRGB">
<feFlood flood-opacity="0" result="BackgroundImageFix"/>
<feColorMatrix in="SourceAlpha" type="matrix" values="0 0 0 0 0 0 0 0 0 0 0 0 0 0 0 0 0 0 127 0" result="hardAlpha"/>
<feOffset dy="2"/>
<feGaussianBlur stdDeviation="2"/>
<feColorMatrix type="matrix" values="0 0 0 0 0 0 0 0 0 0 0 0 0 0 0 0 0 0 0.45 0"/>
<feBlend mode="normal" in2="BackgroundImageFix" result="effect1_dropShadow_296_25364"/>
<feBlend mode="normal" in="SourceGraphic" in2="effect1_dropShadow_296_25364" result="shape"/>
</filter>
<filter id="filter1_d_296_25364" x="1.91016" y="66.3008" width="24.2871" height="24.2871" filterUnits="userSpaceOnUse" color-interpolation-filters="sRGB">
<feFlood flood-opacity="0" result="BackgroundImageFix"/>
<feColorMatrix in="SourceAlpha" type="matrix" values="0 0 0 0 0 0 0 0 0 0 0 0 0 0 0 0 0 0 127 0" result="hardAlpha"/>
<feOffset dy="2"/>
<feGaussianBlur stdDeviation="2"/>
<feColorMatrix type="matrix" values="0 0 0 0 0 0 0 0 0 0 0 0 0 0 0 0 0 0 0.45 0"/>
<feBlend mode="normal" in2="BackgroundImageFix" result="effect1_dropShadow_296_25364"/>
<feBlend mode="normal" in="SourceGraphic" in2="effect1_dropShadow_296_25364" result="shape"/>
</filter>
<filter id="filter2_d_296_25364" x="39.8555" y="0.5" width="24.2871" height="24.2871" filterUnits="userSpaceOnUse" color-interpolation-filters="sRGB">
<feFlood flood-opacity="0" result="BackgroundImageFix"/>
<feColorMatrix in="SourceAlpha" type="matrix" values="0 0 0 0 0 0 0 0 0 0 0 0 0 0 0 0 0 0 127 0" result="hardAlpha"/>
<feOffset dy="2"/>
<feGaussianBlur stdDeviation="2"/>
<feColorMatrix type="matrix" values="0 0 0 0 0 0 0 0 0 0 0 0 0 0 0 0 0 0 0.45 0"/>
<feBlend mode="normal" in2="BackgroundImageFix" result="effect1_dropShadow_296_25364"/>
<feBlend mode="normal" in="SourceGraphic" in2="effect1_dropShadow_296_25364" result="shape"/>
</filter>
<linearGradient id="paint0_linear_296_25364" x1="80.1867" y1="78.5413" x2="35.4916" y2="98.2843" gradientUnits="userSpaceOnUse">
<stop stop-color="#EEEEEE"/>
<stop offset="1" stop-color="#00267B" stop-opacity="0"/>
</linearGradient>
<linearGradient id="paint1_linear_296_25364" x1="60.6256" y1="18.5168" x2="98.688" y2="48.4405" gradientUnits="userSpaceOnUse">
<stop stop-color="#FDFDFD"/>
<stop offset="0.9999" stop-color="#00267B" stop-opacity="0"/>
<stop offset="1" stop-color="#00267B" stop-opacity="0"/>
</linearGradient>
<linearGradient id="paint2_linear_296_25364" x1="17.0836" y1="67.3313" x2="20.7906" y2="19.4128" gradientUnits="userSpaceOnUse">
<stop stop-color="#E3E4E5"/>
<stop offset="1" stop-color="#00267B" stop-opacity="0"/>
</linearGradient>
<clipPath id="clip0_296_25364">
<rect width="104" height="106" fill="white" transform="translate(0 0.5)"/>
</clipPath>
</defs>
</svg>
