<svg width="88" height="87" viewBox="0 0 88 87" fill="none" xmlns="http://www.w3.org/2000/svg">
<g id="svgexport-6" clip-path="url(#clip0_267_19124)">
<path id="Vector" fill-rule="evenodd" clip-rule="evenodd" d="M31.8082 26.0508H54.3884V30.9196H57.4226V34.1655H54.3884V40.5515H57.4226V43.7974H54.3884V50.0775H57.4226V53.3234H54.3884V58.0864H31.8082V53.3234H28.6328V50.0775H31.8082V43.7974H28.6328V40.5515H31.8082V34.1655H28.6328V30.9196H31.8082V26.0508ZM35.0541 29.2967V35.7885H51.1425V29.2967H35.0541ZM51.1425 39.0344H35.0541V45.3145H51.1425V39.0344ZM51.1425 48.5604H35.0541V54.8405H51.1425V48.5604Z" fill="white"/>
<path id="Vector_2" fill-rule="evenodd" clip-rule="evenodd" d="M35.3197 7.52945C26.1911 4.46213 17.425 4.59914 10.8106 10.5979C6.87482 14.1674 5.29327 21.0358 7.07644 29.7543C8.84366 38.3947 13.8717 48.4914 22.56 57.9758C31.2509 67.4631 42.3774 74.6872 52.5167 77.7026C62.7171 80.7361 71.348 79.4026 75.9886 72.7501C81.6207 64.6765 80.5166 54.6463 76.4379 45.1782C72.37 35.7353 65.5009 27.2653 60.3709 22.7509C53.5712 16.7672 44.4437 10.5952 35.3197 7.52945ZM36.3536 4.45259C46.025 7.70228 55.523 14.1611 62.5152 20.3142C67.9698 25.1142 75.1427 33.9674 79.4189 43.894C83.6843 53.7955 85.2262 65.1812 78.6508 74.6072C72.8138 82.9746 62.322 84.005 51.5915 80.8138C40.7998 77.6045 29.1869 70.0153 20.1665 60.1684C11.1435 50.3185 5.79854 39.7049 3.89637 30.4047C2.01016 21.1825 3.46282 12.8799 8.63007 8.19357C16.4875 1.06746 26.6868 1.20447 36.3536 4.45259Z" fill="white"/>
<path id="Vector_3" fill-rule="evenodd" clip-rule="evenodd" d="M50.891 7.52945C60.0196 4.46213 68.7857 4.59914 75.4001 10.5979C79.3359 14.1674 80.9175 21.0358 79.1343 29.7543C77.3671 38.3947 72.3391 48.4914 63.6508 57.9758C54.9598 67.4631 43.8333 74.6872 33.694 77.7026C23.4936 80.7361 14.8628 79.4026 10.2221 72.7501C4.59009 64.6765 5.69421 54.6463 9.77291 45.1782C13.8407 35.7353 20.7099 27.2653 25.8398 22.7509C32.6395 16.7672 41.767 10.5952 50.891 7.52945ZM49.8571 4.45259C40.1857 7.70228 30.6878 14.1611 23.6955 20.3142C18.241 25.1142 11.068 33.9674 6.79185 43.894C2.52648 53.7955 0.98455 65.1812 7.55997 74.6072C13.397 82.9746 23.8887 84.005 34.6193 80.8138C45.411 77.6045 57.0238 70.0153 66.0442 60.1684C75.0672 50.3185 80.4122 39.7049 82.3144 30.4047C84.2006 21.1825 82.7479 12.8799 77.5807 8.19357C69.7233 1.06746 59.5239 1.20447 49.8571 4.45259Z" fill="white"/>
<g id="Group">
<g id="Group_2" filter="url(#filter0_d_267_19124)">
<path id="Vector_4" d="M11.4127 80.802C15.1917 80.802 18.2552 77.7386 18.2552 73.9596C18.2552 70.1806 15.1917 67.1172 11.4127 67.1172C7.63377 67.1172 4.57031 70.1806 4.57031 73.9596C4.57031 77.7386 7.63377 80.802 11.4127 80.802Z" fill="white"/>
</g>
<path id="Vector_5" d="M11.4128 76.6966C12.9243 76.6966 14.1497 75.4712 14.1497 73.9596C14.1497 72.448 12.9243 71.2227 11.4128 71.2227C9.90116 71.2227 8.67578 72.448 8.67578 73.9596C8.67578 75.4712 9.90116 76.6966 11.4128 76.6966Z" fill="#0045E6"/>
</g>
<g id="Group_3">
<g id="Group_4" filter="url(#filter1_d_267_19124)">
<path id="Vector_6" d="M76.1901 16.0286C79.969 16.0286 83.0325 12.9651 83.0325 9.18617C83.0325 5.40721 79.969 2.34375 76.1901 2.34375C72.4111 2.34375 69.3477 5.40721 69.3477 9.18617C69.3477 12.9651 72.4111 16.0286 76.1901 16.0286Z" fill="white"/>
</g>
<path id="Vector_7" d="M76.1901 11.9232C77.7017 11.9232 78.9271 10.6978 78.9271 9.18619C78.9271 7.6746 77.7017 6.44922 76.1901 6.44922C74.6785 6.44922 73.4531 7.6746 73.4531 9.18619C73.4531 10.6978 74.6785 11.9232 76.1901 11.9232Z" fill="#0045E6"/>
</g>
</g>
<defs>
<filter id="filter0_d_267_19124" x="0.570312" y="65.1172" width="21.6855" height="21.6855" filterUnits="userSpaceOnUse" color-interpolation-filters="sRGB">
<feFlood flood-opacity="0" result="BackgroundImageFix"/>
<feColorMatrix in="SourceAlpha" type="matrix" values="0 0 0 0 0 0 0 0 0 0 0 0 0 0 0 0 0 0 127 0" result="hardAlpha"/>
<feOffset dy="2"/>
<feGaussianBlur stdDeviation="2"/>
<feColorMatrix type="matrix" values="0 0 0 0 0 0 0 0 0 0 0 0 0 0 0 0 0 0 0.45 0"/>
<feBlend mode="normal" in2="BackgroundImageFix" result="effect1_dropShadow_267_19124"/>
<feBlend mode="normal" in="SourceGraphic" in2="effect1_dropShadow_267_19124" result="shape"/>
</filter>
<filter id="filter1_d_267_19124" x="65.3477" y="0.34375" width="21.6855" height="21.6855" filterUnits="userSpaceOnUse" color-interpolation-filters="sRGB">
<feFlood flood-opacity="0" result="BackgroundImageFix"/>
<feColorMatrix in="SourceAlpha" type="matrix" values="0 0 0 0 0 0 0 0 0 0 0 0 0 0 0 0 0 0 127 0" result="hardAlpha"/>
<feOffset dy="2"/>
<feGaussianBlur stdDeviation="2"/>
<feColorMatrix type="matrix" values="0 0 0 0 0 0 0 0 0 0 0 0 0 0 0 0 0 0 0.45 0"/>
<feBlend mode="normal" in2="BackgroundImageFix" result="effect1_dropShadow_267_19124"/>
<feBlend mode="normal" in="SourceGraphic" in2="effect1_dropShadow_267_19124" result="shape"/>
</filter>
<clipPath id="clip0_267_19124">
<rect width="88" height="87" fill="white"/>
</clipPath>
</defs>
</svg>
