<svg width="50" height="50" viewBox="0 0 50 50" fill="none" xmlns="http://www.w3.org/2000/svg">
<g id="svgexport-11" clip-path="url(#clip0_1151_9248)">
<path id="Vector" fill-rule="evenodd" clip-rule="evenodd" d="M25 50C38.8071 50 50 38.8071 50 25C50 11.1929 38.8071 0 25 0C11.1929 0 0 11.1929 0 25C0 38.8071 11.1929 50 25 50Z" fill="white"/>
<path id="Vector_2" fill-rule="evenodd" clip-rule="evenodd" d="M28.4587 18.3509C27.9286 18.8587 27.8825 19.7313 28.3563 20.2997L31.1223 23.6198L15.2871 23.6198C14.5761 23.6198 14 24.238 14 25C14 25.7625 14.5761 26.3802 15.2871 26.3802L31.122 26.3802L28.3563 29.7003C27.8825 30.2685 27.9286 31.1413 28.4587 31.6489C28.9887 32.157 29.8023 32.1078 30.2761 31.5393L34.4588 26.5189C34.8198 26.0858 35 25.543 35 25.0003C35 24.4575 34.8195 23.9145 34.459 23.4816L30.2761 18.461C29.8026 17.8923 28.989 17.843 28.4587 18.3509Z" fill="#252525"/>
</g>
<defs>
<clipPath id="clip0_1151_9248">
<rect width="50" height="50" fill="white"/>
</clipPath>
</defs>
</svg>
