<svg width="65" height="65" viewBox="0 0 65 65" fill="none" xmlns="http://www.w3.org/2000/svg">
<path d="M4.46875 10.5625C4.46875 7.64575 6.83325 5.28125 9.75 5.28125H55.25C58.1668 5.28125 60.5312 7.64575 60.5312 10.5625V39.8125C60.5312 42.7293 58.1668 45.0938 55.25 45.0938H9.75C6.83325 45.0938 4.46875 42.7293 4.46875 39.8125V10.5625Z" stroke="white" stroke-width="3"/>
<path d="M5.22643 48.2114C6.07843 46.3142 7.96447 45.0938 10.0442 45.0938H55.061C57.1592 45.0938 59.0584 46.3359 59.8994 48.2582L61.8912 52.8109C62.4784 54.1529 61.4951 55.6562 60.0302 55.6562H5.02184C3.54851 55.6562 2.56528 54.1369 3.16889 52.7928L5.22643 48.2114Z" stroke="white" stroke-width="3"/>
<path d="M62.0377 55.6569L62.1562 55.5977V56.0631C62.1562 58.0824 60.5193 59.7194 58.5 59.7194H6.5C4.48071 59.7194 2.84375 58.0824 2.84375 56.0631V55.5977L2.96229 55.6569H3.25H61.75H62.0377Z" stroke="white" stroke-width="3"/>
<path d="M21.5312 45.9062V30.4688H43.4688V45.9062C43.4688 45.9062 41.8438 49.9688 32.5 49.9688C23.1562 49.9688 21.5312 45.9062 21.5312 45.9062Z" fill="#1E1D28"/>
<path d="M25.4046 28.0312C23.1609 28.7563 21.5312 29.8072 21.5312 30.9763C21.5312 33.1641 26.6665 34.9375 32.5 34.9375C38.3335 34.9375 43.4688 33.1641 43.4688 30.9763C43.4688 29.8745 42.0133 28.8777 39.9715 28.1597" stroke="white" stroke-width="3"/>
<path d="M21.5312 30.8751C21.5312 30.8751 21.5312 34.4276 21.5312 35.75C21.5312 38.0912 26.6665 39.8123 32.5 39.8123C38.3335 39.8123 43.4688 38.0911 43.4688 35.7499C43.4688 34.4276 43.4688 30.875 43.4688 30.875" stroke="white" stroke-width="3"/>
<path d="M21.5312 35.7501C21.5312 35.7501 21.5312 39.3026 21.5312 40.625C21.5312 42.9662 26.6665 44.6873 32.5 44.6873C38.3335 44.6873 43.4688 42.9661 43.4688 40.6249C43.4688 39.3026 43.4688 35.75 43.4688 35.75" stroke="white" stroke-width="3"/>
<path d="M21.5312 40.6251C21.5312 40.6251 21.5312 44.1776 21.5312 45.5C21.5312 47.8412 26.6665 49.5623 32.5 49.5623C38.3335 49.5623 43.4688 47.8411 43.4688 45.4999C43.4688 44.1776 43.4688 40.625 43.4688 40.625" stroke="white" stroke-width="3"/>
<g filter="url(#filter0_d_296_25493)">
<path d="M32.5481 27.7211C35.7157 27.7211 38.2836 25.1532 38.2836 21.9856C38.2836 18.8179 35.7157 16.25 32.5481 16.25C29.3804 16.25 26.8125 18.8179 26.8125 21.9856C26.8125 25.1532 29.3804 27.7211 32.5481 27.7211Z" fill="white"/>
</g>
<path d="M32.5481 24.2799C33.8152 24.2799 34.8424 23.2527 34.8424 21.9856C34.8424 20.7186 33.8152 19.6914 32.5481 19.6914C31.2811 19.6914 30.2539 20.7186 30.2539 21.9856C30.2539 23.2527 31.2811 24.2799 32.5481 24.2799Z" fill="#FF4925"/>
<path fill-rule="evenodd" clip-rule="evenodd" d="M32.5 29.6193C36.7425 29.6193 40.1818 26.18 40.1818 21.9375C40.1818 17.695 36.7425 14.2557 32.5 14.2557C28.2575 14.2557 24.8182 17.695 24.8182 21.9375C24.8182 26.18 28.2575 29.6193 32.5 29.6193ZM32.5 32.5C38.3335 32.5 43.0625 27.771 43.0625 21.9375C43.0625 16.104 38.3335 11.375 32.5 11.375C26.6665 11.375 21.9375 16.104 21.9375 21.9375C21.9375 27.771 26.6665 32.5 32.5 32.5Z" fill="white"/>
<path d="M11.7812 12.1875H38.5938" stroke="white" stroke-width="3" stroke-linecap="round"/>
<path d="M42.6562 12.1875H52.4062" stroke="white" stroke-width="3" stroke-linecap="round"/>
<path d="M11.7812 18.6875H16.25" stroke="white" stroke-width="3" stroke-linecap="round"/>
<path d="M20.3125 18.6875H23.5625" stroke="white" stroke-width="3" stroke-linecap="round"/>
<path d="M11.7812 23.9688C11.1082 23.9688 10.5625 24.5144 10.5625 25.1875C10.5625 25.8606 11.1082 26.4062 11.7812 26.4062V23.9688ZM11.7812 26.4062H24.7812V23.9688H11.7812V26.4062Z" fill="white"/>
<path d="M52.8125 19.9062C53.4856 19.9062 54.0312 19.3606 54.0312 18.6875C54.0312 18.0144 53.4856 17.4688 52.8125 17.4688V19.9062ZM41.0312 19.9062H52.8125V17.4688H41.0312V19.9062Z" fill="white"/>
<path d="M46.7188 26.4062C47.3918 26.4062 47.9375 25.8606 47.9375 25.1875C47.9375 24.5144 47.3918 23.9688 46.7188 23.9688V26.4062ZM41.0312 26.4062H46.7188V23.9688H41.0312V26.4062Z" fill="white"/>
<defs>
<filter id="filter0_d_296_25493" x="22.8125" y="14.25" width="19.4707" height="19.4707" filterUnits="userSpaceOnUse" color-interpolation-filters="sRGB">
<feFlood flood-opacity="0" result="BackgroundImageFix"/>
<feColorMatrix in="SourceAlpha" type="matrix" values="0 0 0 0 0 0 0 0 0 0 0 0 0 0 0 0 0 0 127 0" result="hardAlpha"/>
<feOffset dy="2"/>
<feGaussianBlur stdDeviation="2"/>
<feColorMatrix type="matrix" values="0 0 0 0 0 0 0 0 0 0 0 0 0 0 0 0 0 0 0.45 0"/>
<feBlend mode="normal" in2="BackgroundImageFix" result="effect1_dropShadow_296_25493"/>
<feBlend mode="normal" in="SourceGraphic" in2="effect1_dropShadow_296_25493" result="shape"/>
</filter>
</defs>
</svg>
