<svg width="65" height="65" viewBox="0 0 65 65" fill="none" xmlns="http://www.w3.org/2000/svg">
<g clip-path="url(#clip0_296_25519)">
<path fill-rule="evenodd" clip-rule="evenodd" d="M23.5998 19.3008H40.476V22.9397H42.7439V25.3657H40.476V30.1385H42.7439V32.5645H40.476V37.2582H42.7439V39.6842H40.476V43.244H23.5998V39.6842H21.2266V37.2582H23.5998V32.5645H21.2266V30.1385H23.5998V25.3657H21.2266V22.9397H23.5998V19.3008ZM26.0258 21.7267V26.5787H38.0501V21.7267H26.0258ZM38.0501 29.0047H26.0258V33.6984H38.0501V29.0047ZM38.0501 36.1243H26.0258V40.818H38.0501V36.1243Z" fill="white"/>
<path fill-rule="evenodd" clip-rule="evenodd" d="M26.2251 5.46161C19.4024 3.16912 12.8508 3.27153 7.90723 7.75495C4.96563 10.4228 3.78358 15.5563 5.11631 22.0723C6.43712 28.5301 10.195 36.0763 16.6886 43.1649C23.1841 50.2556 31.5001 55.6549 39.0781 57.9086C46.7018 60.1758 53.1524 59.1791 56.6208 54.2071C60.8302 48.1729 60.005 40.6765 56.9566 33.6001C53.9163 26.5425 48.7824 20.2121 44.9482 16.838C39.8662 12.3659 33.0444 7.75296 26.2251 5.46161ZM26.9979 3.162C34.2262 5.59079 41.325 10.418 46.5509 15.0169C50.6276 18.6044 55.9886 25.2212 59.1846 32.6403C62.3725 40.0405 63.525 48.5502 58.6105 55.5951C54.2479 61.8489 46.4065 62.6189 38.3866 60.2339C30.3209 57.8352 21.6416 52.1632 14.8998 44.8036C8.15599 37.4419 4.16123 29.5094 2.73956 22.5584C1.32981 15.6658 2.41552 9.46047 6.27749 5.95797C12.15 0.631969 19.773 0.734368 26.9979 3.162Z" fill="white"/>
<path fill-rule="evenodd" clip-rule="evenodd" d="M18.2941 17.9389C25.5556 10.7058 32.7508 6.62335 38.9226 4.83091C45.1257 3.0294 50.1887 3.564 53.3168 5.37504L54.5323 3.27555C50.6462 1.02573 44.8451 0.584676 38.246 2.50121C31.6179 4.42615 24.076 8.75298 16.5735 16.2287L16.5651 16.237L16.557 16.2454C13.0415 19.8866 8.20935 26.0875 5.11288 32.912C2.03718 39.6906 0.531401 47.4171 4.25085 53.8228L6.34879 52.6047C3.23336 47.2392 4.34692 40.4714 7.32207 33.9143C10.2741 27.4082 14.9193 21.4362 18.2941 17.9389ZM56.6997 29.5321C59.8146 23.012 61.1638 15.8808 57.9586 9.56816L60.1216 8.46989C63.8252 15.7637 62.1419 23.7684 58.8887 30.5779C55.6263 37.4066 50.676 43.2796 47.3953 46.5334C44.098 49.8037 38.077 54.562 31.2393 57.7043C24.4373 60.8303 16.5364 62.4844 9.71108 59.0433L10.8032 56.8771C16.6351 59.8173 23.6592 58.5181 30.2263 55.5C36.7578 52.4984 42.5502 47.922 45.687 44.8109C48.8403 41.6834 53.5939 36.033 56.6997 29.5321Z" fill="url(#paint0_radial_296_25519)"/>
<g filter="url(#filter0_d_296_25519)">
<path d="M8.35617 60.2241C11.1805 60.2241 13.4701 57.9344 13.4701 55.1101C13.4701 52.2857 11.1805 49.9961 8.35617 49.9961C5.53179 49.9961 3.24219 52.2857 3.24219 55.1101C3.24219 57.9344 5.53179 60.2241 8.35617 60.2241Z" fill="white"/>
</g>
<path d="M8.35418 57.1576C9.48393 57.1576 10.3998 56.2417 10.3998 55.112C10.3998 53.9822 9.48393 53.0664 8.35418 53.0664C7.22443 53.0664 6.30859 53.9822 6.30859 55.112C6.30859 56.2417 7.22443 57.1576 8.35418 57.1576Z" fill="#FF4523"/>
<g filter="url(#filter1_d_296_25519)">
<path d="M56.7702 11.81C59.5946 11.81 61.8842 9.52038 61.8842 6.69601C61.8842 3.87164 59.5946 1.58203 56.7702 1.58203C53.9459 1.58203 51.6562 3.87164 51.6562 6.69601C51.6562 9.52038 53.9459 11.81 56.7702 11.81Z" fill="white"/>
</g>
<path d="M56.7682 8.74352C57.898 8.74352 58.8138 7.82768 58.8138 6.69793C58.8138 5.56818 57.898 4.65234 56.7682 4.65234C55.6385 4.65234 54.7227 5.56818 54.7227 6.69793C54.7227 7.82768 55.6385 8.74352 56.7682 8.74352Z" fill="#FF4523"/>
</g>
<defs>
<filter id="filter0_d_296_25519" x="-0.757812" y="47.9961" width="18.2285" height="18.2285" filterUnits="userSpaceOnUse" color-interpolation-filters="sRGB">
<feFlood flood-opacity="0" result="BackgroundImageFix"/>
<feColorMatrix in="SourceAlpha" type="matrix" values="0 0 0 0 0 0 0 0 0 0 0 0 0 0 0 0 0 0 127 0" result="hardAlpha"/>
<feOffset dy="2"/>
<feGaussianBlur stdDeviation="2"/>
<feColorMatrix type="matrix" values="0 0 0 0 0 0 0 0 0 0 0 0 0 0 0 0 0 0 0.45 0"/>
<feBlend mode="normal" in2="BackgroundImageFix" result="effect1_dropShadow_296_25519"/>
<feBlend mode="normal" in="SourceGraphic" in2="effect1_dropShadow_296_25519" result="shape"/>
</filter>
<filter id="filter1_d_296_25519" x="47.6562" y="-0.417969" width="18.2285" height="18.2285" filterUnits="userSpaceOnUse" color-interpolation-filters="sRGB">
<feFlood flood-opacity="0" result="BackgroundImageFix"/>
<feColorMatrix in="SourceAlpha" type="matrix" values="0 0 0 0 0 0 0 0 0 0 0 0 0 0 0 0 0 0 127 0" result="hardAlpha"/>
<feOffset dy="2"/>
<feGaussianBlur stdDeviation="2"/>
<feColorMatrix type="matrix" values="0 0 0 0 0 0 0 0 0 0 0 0 0 0 0 0 0 0 0.45 0"/>
<feBlend mode="normal" in2="BackgroundImageFix" result="effect1_dropShadow_296_25519"/>
<feBlend mode="normal" in="SourceGraphic" in2="effect1_dropShadow_296_25519" result="shape"/>
</filter>
<radialGradient id="paint0_radial_296_25519" cx="0" cy="0" r="1" gradientUnits="userSpaceOnUse" gradientTransform="translate(7.93689 56.9054) rotate(-46.0256) scale(29.1667 29.4208)">
<stop offset="0.09375" stop-color="white" stop-opacity="0"/>
<stop offset="0.635417" stop-color="white"/>
<stop offset="1" stop-color="white"/>
</radialGradient>
<clipPath id="clip0_296_25519">
<rect width="65" height="65" fill="white"/>
</clipPath>
</defs>
</svg>
