<svg width="50" height="50" viewBox="0 0 50 50" fill="none" xmlns="http://www.w3.org/2000/svg">
<g id="svgexport-11" clip-path="url(#clip0_943_1875)">
<path id="Vector" fill-rule="evenodd" clip-rule="evenodd" d="M25 50C38.8071 50 50 38.8071 50 25C50 11.1929 38.8071 0 25 0C11.1929 0 0 11.1929 0 25C0 38.8071 11.1929 50 25 50Z" fill="#252525"/>
<path id="Vector_2" fill-rule="evenodd" clip-rule="evenodd" d="M33.1599 21.17C33.1041 17.2137 29.777 14.0117 25.6953 14.0117C23.8796 14.0117 22.1303 14.654 20.7699 15.8202C19.5556 16.8609 18.725 18.2517 18.3961 19.7788C18.372 19.7785 18.3482 19.7783 18.3244 19.7783C14.8372 19.7783 12 22.5371 12 25.9281C12 29.319 14.8372 32.0778 18.3245 32.0778H20.6457C20.9599 32.0778 21.2148 31.8301 21.2148 31.5244C21.2148 31.2188 20.9599 30.971 20.6457 30.971H18.3245C15.4648 30.971 13.1382 28.7088 13.1382 25.9281C13.1382 23.1474 15.4648 20.8851 18.3245 20.8851C18.4768 20.8851 18.6379 20.8931 18.8169 20.9095C19.1204 20.9368 19.3928 20.7272 19.4342 20.4333C19.6391 18.9726 20.3808 17.6292 21.5226 16.6504C22.675 15.6625 24.1569 15.1185 25.6952 15.1185C29.184 15.1185 32.0223 17.8784 32.0223 21.2708C32.0223 21.3929 31.9989 21.7088 31.9989 21.7088C31.9871 21.8716 32.0497 22.0312 32.1702 22.1449C32.2906 22.2585 32.4563 22.3146 32.6235 22.2984C32.7749 22.2836 32.9276 22.2761 33.0774 22.2761C35.5426 22.2761 37.5483 24.2264 37.5483 26.6235C37.5483 29.0207 35.5427 30.9709 33.0774 30.9709H30.5285C30.2143 30.9709 29.9594 31.2187 29.9594 31.5243C29.9594 31.83 30.2143 32.0777 30.5285 32.0777H33.0774C36.1703 32.0777 38.6866 29.631 38.6866 26.6235C38.6865 23.643 36.2149 21.2131 33.1599 21.17Z" fill="white"/>
<path id="Vector_3" fill-rule="evenodd" clip-rule="evenodd" d="M25.697 16.6133C23.3172 16.6133 21.2801 18.3426 20.9584 20.6358C20.9159 20.9386 21.1341 21.2167 21.4454 21.2589C21.7773 21.3039 22.0473 21.0628 22.0862 20.7854C22.3313 19.0379 23.8836 17.7201 25.697 17.7201C26.0114 17.7201 26.2662 17.4724 26.2662 17.1667C26.2662 16.861 26.0113 16.6133 25.697 16.6133Z" fill="white"/>
<path id="Vector_4" fill-rule="evenodd" clip-rule="evenodd" d="M28.3312 32.4635C28.1218 32.2356 27.762 32.2158 27.5276 32.4195L26.1586 33.6087V26.8005C26.1586 26.4948 25.9037 26.2471 25.5895 26.2471C25.2751 26.2471 25.0204 26.4948 25.0204 26.8005V33.6086L23.6514 32.4195C23.4171 32.2158 23.0572 32.2356 22.8479 32.4635C22.6384 32.6914 22.6587 33.0412 22.8931 33.2449L24.9632 35.0432C25.1418 35.1984 25.3656 35.2759 25.5894 35.2759C25.8132 35.2759 26.0371 35.1983 26.2156 35.0433L28.2858 33.2449C28.5203 33.0413 28.5406 32.6915 28.3312 32.4635Z" fill="white"/>
</g>
<defs>
<clipPath id="clip0_943_1875">
<rect width="50" height="50" fill="white"/>
</clipPath>
</defs>
</svg>
