<svg width="137" height="86" viewBox="0 0 137 86" fill="none" xmlns="http://www.w3.org/2000/svg">
<g clip-path="url(#clip0_221_41944)">
<path d="M136.44 0.150391H0.439941V85.1504H136.44V0.150391Z" fill="white"/>
<mask id="mask0_221_41944" style="mask-type:luminance" maskUnits="userSpaceOnUse" x="36" y="0" width="66" height="86">
<path d="M101.033 0.150391H36.1392V85.1504H101.033V0.150391Z" fill="white"/>
</mask>
<g mask="url(#mask0_221_41944)">
<path d="M100.185 1H36.9907V72.0091V72.0834L68.5881 84.2401L100.185 72.0834V72.0091V1Z" fill="white"/>
<path d="M68.5859 85.1504L36.1392 72.6679V0.150391H101.033V72.6679L68.5859 85.1504ZM37.8379 71.4988L68.5859 83.3274L99.3338 71.4988V1.84917H37.8379V71.4988Z" fill="#8D0200"/>
<path d="M41.2212 64.7988V68.8114V68.876L68.5715 79.3979L95.9216 68.876V68.8114V64.7988L68.5715 75.3207L41.2212 64.7988Z" fill="url(#paint0_radial_221_41944)"/>
<path d="M41.2212 59.1084V63.121V63.1856L68.5715 73.7074L95.9216 63.1856V63.121V59.1084L68.5715 69.6308L41.2212 59.1084Z" fill="url(#paint1_radial_221_41944)"/>
<path d="M41.2212 53.417V57.4294V57.494L68.5715 68.0165L95.9216 57.494V57.4294V53.417L68.5715 63.9393L41.2212 53.417Z" fill="url(#paint2_radial_221_41944)"/>
<path d="M67.143 8.1518C67.143 8.1518 64.2734 8.52552 64.2411 8.62406C64.2093 8.72255 66.3122 10.7101 66.3122 10.7101C66.3122 10.7101 65.7807 13.5556 65.8634 13.615C65.9467 13.6745 68.4882 12.2917 68.4882 12.2917C68.4882 12.2917 71.0365 13.6762 71.1113 13.615C71.1861 13.5539 70.6642 10.7101 70.6642 10.7101C70.6642 10.7101 72.7677 8.72255 72.7354 8.62406C72.7031 8.52552 69.8335 8.1518 69.8335 8.1518C69.8335 8.1518 68.5902 5.53906 68.4882 5.53906C68.3862 5.53906 67.143 8.1518 67.143 8.1518Z" fill="url(#paint3_radial_221_41944)"/>
<path d="M63.9482 24.3242V25.9415H61.6651V32.7366H59.6262V25.9415H57.3618V24.3242H63.9482Z" fill="black"/>
<path d="M70.9524 24.7453C71.5922 25.106 72.1209 25.6347 72.4813 26.2742C72.8519 26.9581 73.0462 27.7235 73.0462 28.5013C73.0462 29.2791 72.8519 30.0446 72.4813 30.7284C72.1203 31.3701 71.5916 31.9019 70.9524 32.2675C70.2956 32.6307 69.5567 32.8212 68.8059 32.8212C68.0556 32.8212 67.3167 32.6307 66.6599 32.2675C66.0196 31.9032 65.4909 31.3711 65.131 30.7284C64.7593 30.047 64.5649 29.2833 64.5649 28.5073C64.5649 27.7312 64.7593 26.9676 65.131 26.2861C65.4926 25.6475 66.0213 25.1191 66.6599 24.7572C67.3195 24.395 68.0596 24.2051 68.8121 24.2051C69.5646 24.2051 70.3047 24.395 70.9643 24.7572L70.9524 24.7453ZM67.2152 26.7312C66.822 27.1638 66.6259 27.7527 66.6259 28.4979C66.6259 29.2431 66.822 29.8298 67.2152 30.2578C67.6363 30.6766 68.2058 30.9117 68.7991 30.9117C69.3929 30.9117 69.9624 30.6766 70.3835 30.2578C70.7796 29.8207 70.9779 29.234 70.9779 28.4979C70.9779 27.7618 70.7818 27.1751 70.3903 26.738C69.967 26.3212 69.3969 26.0877 68.8025 26.0877C68.2086 26.0877 67.6385 26.3212 67.2152 26.738V26.7312Z" fill="black"/>
<path d="M76.2165 29.7824V32.7315H74.1782V24.3242H77.4723C78.4713 24.3242 79.2323 24.5717 79.7554 25.0666C80.2784 25.5615 80.5402 26.2297 80.5402 27.0711C80.5493 27.5596 80.4274 28.0416 80.1883 28.4676C79.9463 28.8857 79.5842 29.2213 79.149 29.4307C78.6254 29.6789 78.0508 29.7995 77.4723 29.7824H76.2165ZM78.4758 27.0643C78.4758 26.3271 78.0678 25.9585 77.2513 25.9585H76.2165V28.1465H77.2513C78.0701 28.151 78.4787 27.7926 78.4775 27.0711L78.4758 27.0643Z" fill="black"/>
<path d="M63.4302 39.752V40.7984H62.3462V39.752H63.4302Z" fill="black"/>
<path d="M67.8118 40.7987H66.7657L65.0176 38.1435V40.7987H63.9709V36.4736H65.0176L66.7657 39.1525V36.4736H67.8118V40.7987Z" fill="black"/>
<path d="M69.5803 37.306V38.2114H71.0412V38.9997H69.5803V39.9595H71.2248V40.7987H68.5337V36.4736H71.2248V37.306H69.5803Z" fill="black"/>
<path d="M74.9251 36.4736V37.306H73.751V40.7987H72.6993V37.306H71.5376V36.4736H74.9251Z" fill="black"/>
<path d="M54.7732 46.5505C54.5925 46.8772 54.3203 47.1441 53.99 47.3183C53.6184 47.5091 53.2049 47.6038 52.7873 47.5935H51.1548V43.2684H52.7873C53.2055 43.2577 53.6198 43.3505 53.9934 43.5385C54.3227 43.7082 54.5941 43.9719 54.7732 44.2962C54.9518 44.6451 55.045 45.0314 55.045 45.4233C55.045 45.8152 54.9518 46.2016 54.7732 46.5505ZM53.6469 46.333C53.8659 46.0799 53.9864 45.7564 53.9864 45.4216C53.9864 45.0869 53.8659 44.7634 53.6469 44.5102C53.3848 44.2812 53.043 44.1646 52.6956 44.1858H52.2012V46.6575H52.6956C53.043 46.6787 53.3848 46.562 53.6469 46.333Z" fill="black"/>
<path d="M58.8506 46.0765H56.4843C56.4757 46.2794 56.5457 46.4777 56.6797 46.6303C56.7401 46.687 56.8112 46.7311 56.8887 46.7602C56.9662 46.7893 57.0487 46.8029 57.1313 46.8002C57.2696 46.8057 57.4056 46.7644 57.5172 46.683C57.6169 46.6096 57.6883 46.504 57.7195 46.384H58.8268C58.7831 46.62 58.6823 46.8417 58.5332 47.0295C58.3785 47.2211 58.1813 47.3736 57.9569 47.4746C57.7144 47.5882 57.4492 47.6463 57.1806 47.6444C56.8712 47.6498 56.5651 47.5774 56.2907 47.4338C56.0337 47.293 55.8226 47.0814 55.6825 46.824C55.5383 46.5336 55.4634 46.2138 55.4634 45.8897C55.4634 45.5655 55.5383 45.2457 55.6825 44.9553C55.8222 44.6983 56.0342 44.4881 56.2924 44.3505C56.5699 44.2131 56.8754 44.1416 57.1851 44.1416C57.4945 44.1416 57.8 44.2131 58.0776 44.3505C58.3287 44.4838 58.5355 44.6867 58.6738 44.9349C58.8183 45.1998 58.8914 45.4979 58.8846 45.7996C58.8823 45.8928 58.871 45.9855 58.8506 46.0765ZM57.643 45.132C57.5161 45.0184 57.3506 44.9577 57.1806 44.9621C57.0059 44.956 56.8352 45.0167 56.7035 45.132C56.5678 45.2671 56.4909 45.4502 56.4894 45.6416H57.8232C57.8328 45.5486 57.8221 45.4546 57.7909 45.3664C57.7597 45.2782 57.7087 45.1981 57.643 45.132Z" fill="black"/>
<path d="M61.0046 46.5709L61.7453 44.1807H62.8576L61.6467 47.5935H60.3501L59.1392 44.1807H60.2504L61.0046 46.5709Z" fill="black"/>
<path d="M66.5011 46.0766H64.133C64.1257 46.2796 64.1965 46.4777 64.3302 46.6304C64.3909 46.6871 64.4617 46.7313 64.5393 46.7604C64.617 46.7896 64.6991 46.8031 64.7824 46.8003C64.9201 46.8055 65.0561 46.7642 65.1678 46.683C65.2669 46.6092 65.3383 46.5038 65.3701 46.3841H66.4756C66.4331 46.6203 66.3323 46.8421 66.1821 47.0296C66.0285 47.2215 65.8319 47.374 65.6075 47.4747C65.365 47.5881 65.0998 47.6461 64.8312 47.6445C64.5218 47.65 64.2158 47.5776 63.9415 47.4339C63.6837 47.2939 63.4723 47.082 63.3329 46.8241C63.1805 46.5386 63.104 46.2185 63.1125 45.8948C63.1045 45.5705 63.1793 45.2496 63.3295 44.9622C63.4689 44.7054 63.6803 44.4951 63.9381 44.3574C64.2152 44.22 64.5206 44.1484 64.8306 44.1484C65.14 44.1484 65.446 44.22 65.7231 44.3574C65.9747 44.4897 66.1821 44.6929 66.3198 44.9418C66.4643 45.2066 66.538 45.5047 66.5317 45.8065C66.53 45.8973 66.5198 45.9877 66.5011 46.0766ZM65.2936 45.1321C65.1666 45.0188 65.0012 44.958 64.8312 44.9622C64.6566 44.9551 64.4855 45.016 64.354 45.1321C64.2186 45.2672 64.1415 45.4502 64.1398 45.6417H65.4738C65.4828 45.5487 65.4721 45.4548 65.4409 45.3667C65.4097 45.2785 65.3593 45.1984 65.2936 45.1321Z" fill="black"/>
<path d="M68.121 43.0684V47.5939H67.0767V43.0684H68.121Z" fill="black"/>
<path d="M71.3474 44.3487C71.612 44.4862 71.8308 44.6974 71.9775 44.9568C72.1283 45.2434 72.207 45.5623 72.207 45.8861C72.207 46.2098 72.1283 46.5287 71.9775 46.8153C71.8308 47.0752 71.612 47.287 71.3474 47.4252C71.0669 47.5683 70.7552 47.6406 70.4402 47.6358C70.1234 47.6402 69.8106 47.568 69.5278 47.4252C69.2626 47.2871 69.0433 47.0753 68.896 46.8153C68.7453 46.5287 68.6665 46.2098 68.6665 45.8861C68.6665 45.5623 68.7453 45.2434 68.896 44.9568C69.0433 44.6973 69.2632 44.4861 69.5278 44.3487C69.81 44.2051 70.1234 44.1328 70.4402 44.138C70.7552 44.1323 71.0669 44.2047 71.3474 44.3487ZM69.9324 45.2592C69.7845 45.4332 69.7109 45.6583 69.7267 45.8861C69.7103 46.1128 69.7845 46.3369 69.9324 46.5095C69.997 46.5794 70.0758 46.6347 70.1642 46.6716C70.252 46.7085 70.3467 46.7263 70.4419 46.7235C70.5371 46.7268 70.6323 46.7093 70.7201 46.6724C70.8079 46.6354 70.8873 46.5799 70.9513 46.5095C71.0969 46.3356 71.1695 46.1122 71.1536 45.8861C71.1689 45.6589 71.0969 45.4345 70.9513 45.2592C70.8873 45.1882 70.8085 45.1319 70.7207 45.0944C70.6328 45.0568 70.5376 45.0388 70.4419 45.0418C70.3461 45.0393 70.2515 45.0575 70.1636 45.095C70.0752 45.1325 69.9965 45.1885 69.9324 45.2592Z" fill="black"/>
<path d="M75.6356 44.3487C75.8646 44.4967 76.047 44.7063 76.1621 44.9534C76.2896 45.2484 76.3553 45.5664 76.3553 45.8877C76.3553 46.2092 76.2896 46.5271 76.1621 46.8221C76.0476 47.0709 75.8651 47.2824 75.6356 47.4319C75.409 47.5731 75.1466 47.6462 74.8797 47.6426C74.6411 47.6533 74.4054 47.5943 74.2003 47.4727C74.015 47.3597 73.871 47.1907 73.7889 46.9903V49.2344H72.7524V44.1805H73.7974V44.7971C73.8807 44.5973 74.0246 44.4285 74.2088 44.3147C74.4139 44.1931 74.6496 44.1341 74.8882 44.1448C75.1517 44.14 75.4107 44.2108 75.6356 44.3487ZM74.0099 45.2779C73.8733 45.4506 73.7991 45.6643 73.7991 45.8843C73.7991 46.1044 73.8733 46.3181 74.0099 46.4908C74.0807 46.562 74.1651 46.6184 74.2581 46.6569C74.351 46.6954 74.4502 46.7152 74.551 46.7152C74.6513 46.7152 74.7511 46.6954 74.8434 46.6569C74.9364 46.6184 75.0208 46.562 75.0916 46.4908C75.2242 46.3144 75.2956 46.0998 75.2956 45.8792C75.2956 45.6587 75.2242 45.4441 75.0916 45.2677C74.9477 45.1252 74.7533 45.0454 74.551 45.0454C74.3482 45.0454 74.1538 45.1252 74.0099 45.2677V45.2779Z" fill="black"/>
<path d="M80.1063 46.0766H77.745C77.7371 46.2794 77.8074 46.4775 77.9405 46.6304C78.0635 46.7447 78.2267 46.8057 78.3939 46.8003C78.5321 46.8055 78.6681 46.7642 78.7798 46.6831C78.8789 46.6097 78.9503 46.5039 78.9804 46.3841H80.0876C80.0429 46.6237 79.9386 46.8481 79.7839 47.0364C79.6298 47.2279 79.4331 47.3804 79.2093 47.4815C78.9668 47.5949 78.7016 47.6529 78.433 47.6514C78.1236 47.6569 77.8176 47.5844 77.5433 47.4408C77.2849 47.3012 77.0735 47.0892 76.9347 46.8308C76.7823 46.5455 76.7058 46.2253 76.7143 45.9016C76.7063 45.5773 76.7811 45.2564 76.9313 44.969C77.0701 44.7118 77.2815 44.5013 77.5399 44.3643C77.817 44.2268 78.1224 44.1553 78.4324 44.1553C78.7418 44.1553 79.0478 44.2268 79.3249 44.3643C79.5759 44.4975 79.7828 44.7005 79.9216 44.9486C80.0655 45.2135 80.1386 45.5116 80.1318 45.8133C80.1318 45.9017 80.1233 45.9898 80.1063 46.0766ZM78.8988 45.1321C78.773 45.0185 78.6081 44.9577 78.4381 44.9622C78.263 44.9552 78.0924 45.016 77.9609 45.1321C77.8929 45.1985 77.8391 45.2778 77.8028 45.3653C77.766 45.4528 77.7467 45.5468 77.7467 45.6417H79.0807C79.0903 45.5486 79.079 45.4545 79.0472 45.3663C79.0161 45.2781 78.9651 45.1981 78.8988 45.1321Z" fill="black"/>
<path d="M82.2307 44.3271C82.4358 44.2043 82.671 44.1409 82.9101 44.1436V45.2631H82.6098C82.3814 45.2474 82.1548 45.3071 81.9638 45.433C81.8816 45.5082 81.8182 45.6015 81.7785 45.7057C81.7383 45.8098 81.7235 45.9217 81.7349 46.0327V47.587H80.6899V44.181H81.7349V44.8282C81.8573 44.6237 82.0273 44.4519 82.2307 44.3271Z" fill="black"/>
<path d="M85.6228 44.4609C85.8806 44.6774 86.0529 44.9785 86.1084 45.3103H85.1303C85.1065 45.1823 85.0386 45.0667 84.9383 44.9841C84.83 44.902 84.6969 44.8599 84.5609 44.8651C84.4657 44.8586 84.3704 44.8856 84.2928 44.9416C84.2605 44.9694 84.2361 45.0043 84.2203 45.0436C84.2044 45.083 84.1988 45.1254 84.2027 45.1676C84.2027 45.2201 84.2191 45.2714 84.2497 45.3142C84.2798 45.3571 84.3229 45.3895 84.3727 45.4071C84.5427 45.4778 84.7195 45.5308 84.9008 45.5651C85.1184 45.6136 85.3332 45.676 85.5429 45.7519C85.7123 45.816 85.8619 45.9224 85.9781 46.0611C86.1073 46.2236 86.1724 46.4279 86.1611 46.6353C86.1651 46.8212 86.109 47.0033 86.0019 47.1551C85.8857 47.3148 85.7265 47.438 85.5429 47.5102C85.3185 47.6013 85.0771 47.6452 84.8345 47.6393C84.4418 47.6591 84.0537 47.5519 83.7273 47.3335C83.5873 47.2294 83.4706 47.0984 83.3827 46.948C83.2955 46.7977 83.2388 46.6312 83.2173 46.4586H84.2265C84.231 46.5255 84.2498 46.5906 84.2821 46.6493C84.3144 46.708 84.3591 46.7589 84.4135 46.7984C84.5376 46.8805 84.6844 46.921 84.8329 46.9139C84.9292 46.9207 85.025 46.8917 85.1015 46.8323C85.1315 46.805 85.1553 46.7713 85.1712 46.7338C85.187 46.6962 85.1944 46.6556 85.1933 46.6149C85.195 46.5602 85.1796 46.5063 85.149 46.4608C85.1184 46.4154 85.0748 46.3807 85.0232 46.3618C84.8464 46.2888 84.6634 46.2319 84.4764 46.1919C84.2645 46.1512 84.056 46.0944 83.8525 46.0221C83.6888 45.961 83.5431 45.8592 83.4298 45.7265C83.3063 45.5666 83.2462 45.3672 83.2598 45.1659C83.2558 45.0235 83.2853 44.8823 83.3459 44.7533C83.4065 44.6244 83.4961 44.5115 83.6083 44.4235C83.8933 44.2177 84.2407 44.1174 84.5915 44.1398C84.9626 44.1216 85.3281 44.2354 85.6228 44.4609Z" fill="black"/>
<path d="M64.5043 53.7231C64.5043 53.4632 64.3904 53.3323 64.1643 53.3323C64.1105 53.3287 64.0561 53.3391 64.0073 53.3626C63.9586 53.3861 63.9167 53.4219 63.8861 53.4666C63.8175 53.5931 63.7841 53.7356 63.7892 53.8793H62.9941C62.9902 53.7084 63.0213 53.5386 63.0854 53.38C63.1494 53.2214 63.2446 53.0775 63.3659 52.9569C63.6044 52.7473 63.9138 52.6367 64.2306 52.6478C64.3796 52.6364 64.5298 52.6551 64.6715 52.7027C64.8131 52.7502 64.944 52.8257 65.0562 52.9247C65.1492 53.0187 65.2223 53.1309 65.2699 53.2542C65.318 53.3775 65.3401 53.5094 65.335 53.6415C65.3248 53.9953 65.1917 54.3345 64.9593 54.6013C64.7066 54.9145 64.4023 55.1823 64.0589 55.393H65.3877V56.0487H62.9907V55.4406C63.9994 54.7203 64.5043 54.1478 64.5043 53.7231Z" fill="black"/>
<path d="M65.7202 54.3699C65.6975 53.9325 65.8091 53.4986 66.0398 53.1264C66.2528 52.8183 66.5923 52.6649 67.0592 52.666C67.5256 52.6672 67.8656 52.8206 68.0781 53.1264C68.2889 53.5083 68.3994 53.9372 68.3994 54.3733C68.3994 54.8094 68.2889 55.2383 68.0781 55.6202C67.8644 55.9283 67.5244 56.0823 67.0592 56.0823C66.5934 56.0823 66.254 55.9283 66.0398 55.6202C65.8086 55.2455 65.6975 54.8094 65.7202 54.3699ZM67.589 54.3699C67.6004 54.134 67.5635 53.8984 67.4819 53.6768C67.4457 53.5979 67.3856 53.5323 67.3097 53.4894C67.2343 53.4464 67.147 53.4282 67.0609 53.4373C66.9731 53.4283 66.8847 53.4468 66.8082 53.4904C66.7311 53.5339 66.6699 53.6002 66.6325 53.6802C66.5498 53.9003 66.5129 54.135 66.5237 54.3699C66.5129 54.607 66.5498 54.8439 66.6325 55.0664C66.6693 55.1468 66.7305 55.2136 66.8076 55.2575C66.8841 55.3014 66.9731 55.3201 67.0609 55.311C67.1476 55.3199 67.2354 55.3011 67.3114 55.2571C67.3867 55.2132 67.4468 55.1464 67.4819 55.0664C67.5624 54.8433 67.5975 54.6066 67.5856 54.3699H67.589Z" fill="black"/>
<path d="M70.2594 53.7231C70.2594 53.4632 70.1455 53.3323 69.92 53.3323C69.8656 53.3287 69.8117 53.3391 69.7624 53.3626C69.7137 53.3861 69.6718 53.4219 69.6412 53.4666C69.5726 53.5931 69.5392 53.7356 69.5443 53.8793H68.7492C68.7458 53.7084 68.777 53.5386 68.841 53.38C68.9045 53.2214 69.0003 53.0775 69.1215 52.9569C69.3595 52.7473 69.6689 52.6367 69.9863 52.6478C70.1353 52.6364 70.2849 52.6551 70.4271 52.7027C70.5688 52.7502 70.6997 52.8257 70.8119 52.9247C70.9048 53.0187 70.9774 53.1309 71.0255 53.2542C71.0731 53.3775 71.0952 53.5094 71.0901 53.6415C71.0794 53.9955 70.9462 54.3347 70.7133 54.6013C70.4611 54.9149 70.1574 55.1827 69.8146 55.393H71.1428V56.0487H68.7407V55.4406C69.7534 54.7203 70.2594 54.1478 70.2594 53.7231Z" fill="black"/>
<path d="M71.4781 54.3699C71.4549 53.9325 71.5665 53.4986 71.7971 53.1264C72.0102 52.8183 72.3502 52.6649 72.8166 52.666C73.2829 52.6672 73.6229 52.8206 73.836 53.1264C74.0462 53.5083 74.1567 53.9372 74.1567 54.3733C74.1567 54.8094 74.0462 55.2383 73.836 55.6202C73.6218 55.9283 73.2818 56.0823 72.8166 56.0823C72.3513 56.0823 72.0113 55.9283 71.7971 55.6202C71.5665 55.2455 71.4549 54.8094 71.4781 54.3699ZM73.3464 54.3699C73.3577 54.134 73.3215 53.8984 73.2393 53.6768C73.2036 53.5977 73.143 53.5321 73.0676 53.489C72.9922 53.446 72.905 53.428 72.8183 53.4373C72.7304 53.4283 72.642 53.4468 72.5655 53.4904C72.4885 53.5339 72.4273 53.6002 72.3904 53.6802C72.3071 53.9003 72.2703 54.135 72.2816 54.3699C72.2703 54.607 72.3071 54.8439 72.3904 55.0664C72.4273 55.1468 72.4879 55.2136 72.565 55.2575C72.6415 55.3014 72.7304 55.3201 72.8183 55.311C72.9055 55.3202 72.9934 55.3015 73.0687 55.2575C73.1447 55.2135 73.2042 55.1466 73.2393 55.0664C73.3198 54.8433 73.3549 54.6066 73.343 54.3699H73.3464Z" fill="black"/>
<path d="M57.3047 16.7676V17.1379H57.0786C56.9214 17.1488 56.766 17.0996 56.6437 17.0003C56.5874 16.9389 56.5447 16.8663 56.5184 16.7872C56.492 16.7083 56.4826 16.6246 56.4908 16.5417V15.8078H56.2563V15.4391H56.4908V15.0195H56.9222V15.4391H57.3013V15.8027H56.9222V16.5434C56.9161 16.6042 56.9337 16.6651 56.9715 16.7132C56.995 16.7326 57.0221 16.747 57.0514 16.7555C57.0806 16.7639 57.1114 16.7663 57.1415 16.7625L57.3047 16.7676Z" fill="url(#paint4_radial_221_41944)"/>
<path d="M59.193 16.3734H57.9508C57.948 16.4353 57.9576 16.4972 57.9786 16.5555C57.9996 16.6138 58.0319 16.6674 58.0732 16.7132C58.1497 16.7848 58.2512 16.8234 58.3554 16.8202C58.4438 16.8236 58.5311 16.798 58.6036 16.7471C58.6688 16.6989 58.7141 16.6281 58.7305 16.5484H59.1861C59.1652 16.6644 59.1165 16.7734 59.0434 16.8661C58.968 16.9612 58.8705 17.0369 58.7595 17.0869C58.6388 17.141 58.5078 17.1682 58.3758 17.1668C58.2222 17.1695 58.0709 17.1326 57.9355 17.0597C57.8086 16.9914 57.7043 16.8867 57.6369 16.759C57.5666 16.6152 57.5298 16.4571 57.5298 16.297C57.5298 16.1368 57.5666 15.9788 57.6369 15.8349C57.7037 15.7065 57.808 15.6011 57.9355 15.5326C58.0715 15.4623 58.2228 15.4267 58.3758 15.4289C58.5282 15.4257 58.679 15.4614 58.8139 15.5326C58.9363 15.5985 59.0371 15.6981 59.1046 15.8196C59.1992 15.9903 59.2304 16.1888 59.193 16.3802V16.3734ZM58.6648 15.8638C58.5855 15.7922 58.4823 15.7538 58.3758 15.7568C58.2676 15.754 58.1628 15.7922 58.0817 15.8638C57.9984 15.9471 57.9514 16.0601 57.9508 16.1781H58.7731C58.7793 16.1217 58.773 16.0647 58.7543 16.0111C58.7351 15.9576 58.7045 15.909 58.6648 15.8689V15.8638Z" fill="url(#paint5_radial_221_41944)"/>
<path d="M60.8199 15.6089C60.9678 15.7298 61.0658 15.902 61.093 16.0913H60.638C60.6238 16.0073 60.5791 15.9315 60.5122 15.879C60.4419 15.8249 60.3547 15.7972 60.2657 15.8009C60.2119 15.7996 60.1575 15.8104 60.1082 15.8324C60.0583 15.8545 60.0141 15.8872 59.979 15.9282C59.9047 16.0378 59.8651 16.1671 59.8651 16.2994C59.8651 16.4317 59.9047 16.561 59.979 16.6706C60.0141 16.7117 60.0583 16.7444 60.1082 16.7664C60.1575 16.7884 60.2119 16.7992 60.2657 16.798C60.3547 16.8008 60.4414 16.7732 60.5122 16.7199C60.5785 16.6667 60.6233 16.5912 60.638 16.5076H61.0981C61.0709 16.6969 60.9729 16.8691 60.825 16.99C60.6686 17.1089 60.4754 17.169 60.2793 17.1598C60.1263 17.1628 59.9744 17.1259 59.8396 17.0529C59.7115 16.9846 59.6072 16.8799 59.5387 16.7522C59.4684 16.6083 59.4321 16.4503 59.4321 16.2901C59.4321 16.1299 59.4684 15.9719 59.5387 15.828C59.6067 15.6994 59.7115 15.5941 59.8396 15.5256C59.9756 15.4552 60.1263 15.4196 60.2793 15.422C60.4759 15.4189 60.6669 15.4851 60.8199 15.6089Z" fill="url(#paint6_radial_221_41944)"/>
<path d="M62.8776 15.6088C63 15.7613 63.0606 15.954 63.0476 16.149V17.1378H62.6277V16.2017C62.6356 16.088 62.5982 15.9758 62.5245 15.8892C62.4877 15.8512 62.4435 15.8216 62.3948 15.8022C62.3455 15.7829 62.2933 15.7743 62.2406 15.777C62.1857 15.7744 62.1313 15.7837 62.0808 15.8043C62.0298 15.8248 61.9839 15.8561 61.9465 15.896C61.8683 15.9912 61.8292 16.1126 61.836 16.2357V17.1378H61.4048V14.875H61.836V15.7787C61.8785 15.6671 61.9573 15.5727 62.0587 15.5103C62.1653 15.4446 62.2888 15.4109 62.414 15.4135C62.5007 15.4105 62.5874 15.4264 62.6673 15.4601C62.7472 15.4939 62.8192 15.5446 62.8776 15.6088Z" fill="url(#paint7_radial_221_41944)"/>
<path d="M64.11 15.5124C64.2132 15.4519 64.3299 15.4197 64.4495 15.4189V15.881H64.3237C64.008 15.881 63.8499 16.0288 63.8499 16.321V17.1381H63.4204V15.4393H63.8499V15.7638C63.9134 15.659 64.0029 15.5725 64.11 15.5124Z" fill="url(#paint8_radial_221_41944)"/>
<path d="M66.275 16.3734H65.0328C65.03 16.4353 65.0396 16.4971 65.0606 16.5555C65.0816 16.6138 65.1139 16.6674 65.1552 16.7132C65.2317 16.7845 65.3332 16.8229 65.4375 16.8202C65.5264 16.8239 65.6142 16.7982 65.6873 16.7471C65.7525 16.6993 65.7978 16.6282 65.8126 16.5484H66.2699C66.2478 16.6643 66.1979 16.7731 66.1254 16.866C66.0506 16.9611 65.9537 17.0369 65.8432 17.0869C65.7225 17.1408 65.5916 17.168 65.4595 17.1667C65.3054 17.1695 65.1535 17.1326 65.0175 17.0597C64.8912 16.9908 64.7869 16.8863 64.7189 16.759C64.6486 16.6152 64.6118 16.4571 64.6118 16.2969C64.6118 16.1368 64.6486 15.9788 64.7189 15.8349C64.7863 15.7068 64.8906 15.6015 65.0175 15.5325C65.1541 15.4622 65.306 15.4267 65.4595 15.4289C65.612 15.4261 65.7627 15.4617 65.8976 15.5325C66.0211 15.5959 66.1237 15.6931 66.1934 15.8128C66.2631 15.9397 66.2982 16.0826 66.2954 16.2273C66.2931 16.2765 66.2863 16.3254 66.275 16.3734ZM65.7485 15.8638C65.6692 15.7922 65.5661 15.7538 65.4595 15.7567C65.3513 15.7536 65.2465 15.7919 65.1654 15.8638C65.1235 15.9046 65.0901 15.9535 65.0674 16.0075C65.0448 16.0614 65.0328 16.1195 65.0328 16.1781H65.8534C65.8596 16.122 65.8539 16.0651 65.8352 16.0117C65.8171 15.9582 65.7876 15.9095 65.7485 15.8689V15.8638Z" fill="url(#paint9_radial_221_41944)"/>
<path d="M67.3313 16.7065L67.7597 15.4443H68.2181L67.5914 17.1431H67.065L66.4399 15.4443H66.9001L67.3313 16.7065Z" fill="url(#paint10_radial_221_41944)"/>
<path d="M68.4841 14.7892C68.5373 14.7435 68.6059 14.7198 68.6762 14.723C68.747 14.7197 68.8161 14.7434 68.87 14.7892C68.8932 14.8107 68.9125 14.8369 68.9255 14.8662C68.9385 14.8955 68.9448 14.9271 68.9448 14.9591C68.9448 14.9911 68.9385 15.0227 68.9255 15.052C68.9125 15.0813 68.8932 15.1075 68.87 15.129C68.8156 15.1742 68.7464 15.1973 68.6762 15.1935C68.6065 15.1974 68.5373 15.1743 68.4841 15.129C68.4603 15.1075 68.4416 15.0813 68.4285 15.052C68.4155 15.0227 68.4087 14.9911 68.4087 14.9591C68.4087 14.9271 68.4155 14.8955 68.4285 14.8662C68.4416 14.8369 68.4603 14.8107 68.4841 14.7892ZM68.8904 15.4449V17.1437H68.4586V15.4398L68.8904 15.4449Z" fill="url(#paint11_radial_221_41944)"/>
<path d="M70.8626 16.3734H69.6205C69.6171 16.4354 69.6256 16.4974 69.6466 16.5558C69.6681 16.6143 69.7004 16.6678 69.7429 16.7132C69.7803 16.7486 69.8245 16.7763 69.8727 16.7946C69.9203 16.813 69.9718 16.8217 70.0234 16.8202C70.1124 16.8239 70.2002 16.7982 70.2727 16.7471C70.3385 16.6989 70.3838 16.6281 70.4002 16.5484H70.8558C70.8349 16.6647 70.785 16.7739 70.7113 16.866C70.6365 16.9615 70.5396 17.0373 70.4291 17.0869C70.3084 17.1409 70.1775 17.1682 70.0455 17.1667C69.8919 17.1697 69.7401 17.1328 69.6052 17.0597C69.4777 16.9914 69.3729 16.8868 69.3049 16.759C69.234 16.6152 69.1978 16.4571 69.1978 16.2969C69.1978 16.1368 69.234 15.9788 69.3049 15.8349C69.3723 15.7063 69.4771 15.601 69.6052 15.5325C69.7412 15.4621 69.8925 15.4265 70.0455 15.4289C70.1979 15.4261 70.3487 15.4617 70.4835 15.5325C70.6082 15.5953 70.7119 15.6926 70.7827 15.8128C70.853 15.9395 70.8887 16.0825 70.8864 16.2273C70.883 16.2767 70.8751 16.3256 70.8626 16.3734ZM70.3339 15.8638C70.2552 15.7922 70.152 15.7538 70.0455 15.7567C69.9373 15.7539 69.8324 15.7922 69.7514 15.8638C69.71 15.9047 69.6766 15.9537 69.6545 16.0077C69.6318 16.0617 69.6205 16.1196 69.6205 16.1781H70.4427C70.449 16.1217 70.4427 16.0646 70.4235 16.0111C70.4048 15.9576 70.3742 15.9089 70.3339 15.8689V15.8638Z" fill="url(#paint12_radial_221_41944)"/>
<path d="M73.604 15.4395L73.1569 17.1383H72.6797L72.308 15.9066L71.934 17.1383H71.4586L71.0063 15.4395H71.4381L71.713 16.7475L72.0887 15.4395H72.5437L72.9245 16.7475L73.2011 15.4395H73.604Z" fill="url(#paint13_radial_221_41944)"/>
<path d="M75.3978 16.3734H74.1556C74.1522 16.4354 74.1607 16.4974 74.1817 16.5558C74.2027 16.6143 74.2355 16.6678 74.278 16.7132C74.3154 16.7486 74.3596 16.7763 74.4072 16.7946C74.4554 16.813 74.507 16.8217 74.5585 16.8202C74.6475 16.8239 74.7353 16.7982 74.8079 16.7471C74.8736 16.6989 74.9189 16.6281 74.9354 16.5484H75.391C75.37 16.6647 75.3201 16.7739 75.2465 16.866C75.1717 16.9615 75.0748 17.0373 74.9643 17.0869C74.8436 17.1409 74.7127 17.1682 74.5806 17.1667C74.4271 17.1697 74.2752 17.1328 74.1403 17.0597C74.0128 16.9914 73.908 16.8868 73.84 16.759C73.7692 16.6152 73.7329 16.4571 73.7329 16.2969C73.7329 16.1368 73.7692 15.9788 73.84 15.8349C73.9074 15.7063 74.0123 15.601 74.1403 15.5325C74.2763 15.4621 74.4276 15.4265 74.5806 15.4289C74.7331 15.4261 74.8838 15.4617 75.0187 15.5325C75.1411 15.5985 75.2419 15.6981 75.3094 15.8196C75.4034 15.9903 75.4352 16.1888 75.3978 16.3802V16.3734ZM74.8691 15.8638C74.7903 15.7922 74.6866 15.7538 74.5806 15.7567C74.4724 15.7539 74.3676 15.7922 74.2865 15.8638C74.2446 15.9047 74.2117 15.9537 74.1896 16.0077C74.167 16.0617 74.1556 16.1196 74.1556 16.1781H74.9779C74.9841 16.1217 74.9773 16.0646 74.9586 16.0111C74.9399 15.9576 74.9093 15.9089 74.8691 15.8689V15.8638Z" fill="url(#paint14_radial_221_41944)"/>
<path d="M76.3991 15.5124C76.5022 15.4519 76.6195 15.4197 76.7391 15.4189V15.881H76.6133C76.2971 15.881 76.139 16.0288 76.139 16.321V17.1381H75.7095V15.4393H76.139V15.7638C76.2036 15.6594 76.2926 15.573 76.3991 15.5124Z" fill="url(#paint15_radial_221_41944)"/>
<path d="M77.3454 16.6875V17.1377H76.8813V16.6875H77.3454Z" fill="url(#paint16_radial_221_41944)"/>
<path d="M78.9342 15.6089C79.0821 15.7302 79.1796 15.9022 79.2079 16.0913H78.7642C78.7495 16.0078 78.7047 15.9324 78.6384 15.879C78.5676 15.8246 78.4797 15.797 78.3908 15.8009C78.3364 15.7999 78.2831 15.8108 78.2338 15.8328C78.1845 15.8548 78.1403 15.8874 78.1052 15.9282C78.0298 16.0374 77.9896 16.1669 77.9896 16.2994C77.9896 16.432 78.0298 16.5614 78.1052 16.6706C78.1403 16.7114 78.1845 16.744 78.2338 16.7661C78.2831 16.7881 78.3364 16.799 78.3908 16.798C78.4797 16.8011 78.5676 16.7735 78.6384 16.7199C78.7041 16.6662 78.7489 16.591 78.7642 16.5076H79.2198C79.1915 16.6967 79.094 16.8686 78.9461 16.99C78.7897 17.1089 78.597 17.169 78.401 17.1598C78.2468 17.1628 78.095 17.1259 77.959 17.0529C77.832 16.9839 77.7283 16.8795 77.6603 16.7522C77.5895 16.6083 77.5532 16.4503 77.5532 16.2901C77.5532 16.1299 77.5895 15.9719 77.6603 15.828C77.7278 15.6999 77.832 15.5947 77.959 15.5256C78.0955 15.4552 78.2474 15.4196 78.401 15.422C78.5948 15.4205 78.7835 15.4865 78.9342 15.6089Z" fill="url(#paint17_radial_221_41944)"/>
<path d="M80.7457 15.5265C80.876 15.595 80.9831 15.7001 81.0545 15.8289C81.1293 15.9714 81.1684 16.13 81.1684 16.2909C81.1684 16.4519 81.1293 16.6105 81.0545 16.753C80.9825 16.8809 80.8754 16.9853 80.7457 17.0537C80.608 17.1241 80.455 17.1608 80.3003 17.1608C80.1456 17.1608 79.9931 17.1241 79.8554 17.0537C79.7257 16.9849 79.6174 16.8806 79.5443 16.753C79.4707 16.6101 79.4321 16.4517 79.4321 16.2909C79.4321 16.1302 79.4707 15.9717 79.5443 15.8289C79.6169 15.7004 79.7251 15.5955 79.8554 15.5265C79.9937 15.4583 80.1461 15.4229 80.3003 15.4229C80.455 15.4229 80.6074 15.4583 80.7457 15.5265ZM79.9948 15.9223C79.9059 16.0237 79.8605 16.1563 79.869 16.2909C79.8605 16.4256 79.9059 16.5582 79.9948 16.6596C80.0345 16.7001 80.0821 16.7322 80.1348 16.7541C80.1875 16.7761 80.2436 16.7873 80.3003 16.7873C80.3575 16.7873 80.4136 16.7761 80.4663 16.7541C80.5184 16.7322 80.566 16.7001 80.6063 16.6596C80.6952 16.5582 80.7406 16.4256 80.7321 16.2909C80.7406 16.1563 80.6952 16.0237 80.6063 15.9223C80.5247 15.8418 80.4147 15.7967 80.3003 15.7967C80.1858 15.7967 80.0759 15.8418 79.9948 15.9223Z" fill="url(#paint18_radial_221_41944)"/>
</g>
</g>
<defs>
<radialGradient id="paint0_radial_221_41944" cx="0" cy="0" r="1" gradientUnits="userSpaceOnUse" gradientTransform="translate(68.5715 72.0981) scale(20.0167 20.0167)">
<stop stop-color="#C60600"/>
<stop offset="1" stop-color="#930600"/>
</radialGradient>
<radialGradient id="paint1_radial_221_41944" cx="0" cy="0" r="1" gradientUnits="userSpaceOnUse" gradientTransform="translate(68.5715 66.4082) scale(20.0167 20.0167)">
<stop stop-color="#C60600"/>
<stop offset="1" stop-color="#930600"/>
</radialGradient>
<radialGradient id="paint2_radial_221_41944" cx="0" cy="0" r="1" gradientUnits="userSpaceOnUse" gradientTransform="translate(68.5715 60.7167) scale(20.0167 20.0167)">
<stop stop-color="#C60600"/>
<stop offset="1" stop-color="#930600"/>
</radialGradient>
<radialGradient id="paint3_radial_221_41944" cx="0" cy="0" r="1" gradientUnits="userSpaceOnUse" gradientTransform="translate(68.6514 9.50007) scale(4.12048 4.12048)">
<stop stop-color="#C60600"/>
<stop offset="1" stop-color="#930600"/>
</radialGradient>
<radialGradient id="paint4_radial_221_41944" cx="0" cy="0" r="1" gradientUnits="userSpaceOnUse" gradientTransform="translate(56.7813 16.0812) scale(0.834099)">
<stop stop-color="#C60600"/>
<stop offset="1" stop-color="#930600"/>
</radialGradient>
<radialGradient id="paint5_radial_221_41944" cx="0" cy="0" r="1" gradientUnits="userSpaceOnUse" gradientTransform="translate(58.369 16.2902) scale(0.854487 0.854483)">
<stop stop-color="#C60600"/>
<stop offset="1" stop-color="#930600"/>
</radialGradient>
<radialGradient id="paint6_radial_221_41944" cx="0" cy="0" r="1" gradientUnits="userSpaceOnUse" gradientTransform="translate(60.2606 16.2901) scale(0.851089)">
<stop stop-color="#C60600"/>
<stop offset="1" stop-color="#930600"/>
</radialGradient>
<radialGradient id="paint7_radial_221_41944" cx="0" cy="0" r="1" gradientUnits="userSpaceOnUse" gradientTransform="translate(62.2253 16.0064) scale(0.990387)">
<stop stop-color="#C60600"/>
<stop offset="1" stop-color="#930600"/>
</radialGradient>
<radialGradient id="paint8_radial_221_41944" cx="0" cy="0" r="1" gradientUnits="userSpaceOnUse" gradientTransform="translate(63.9434 16.2785) scale(0.708391)">
<stop stop-color="#C60600"/>
<stop offset="1" stop-color="#930600"/>
</radialGradient>
<radialGradient id="paint9_radial_221_41944" cx="0" cy="0" r="1" gradientUnits="userSpaceOnUse" gradientTransform="translate(65.451 16.2901) scale(0.854483)">
<stop stop-color="#C60600"/>
<stop offset="1" stop-color="#930600"/>
</radialGradient>
<radialGradient id="paint10_radial_221_41944" cx="0" cy="0" r="1" gradientUnits="userSpaceOnUse" gradientTransform="translate(67.3279 16.2903) scale(0.868071 0.868077)">
<stop stop-color="#C60600"/>
<stop offset="1" stop-color="#930600"/>
</radialGradient>
<radialGradient id="paint11_radial_221_41944" cx="0" cy="0" r="1" gradientUnits="userSpaceOnUse" gradientTransform="translate(68.6762 15.9308) scale(0.874859 0.874871)">
<stop stop-color="#C60600"/>
<stop offset="1" stop-color="#930600"/>
</radialGradient>
<radialGradient id="paint12_radial_221_41944" cx="0" cy="0" r="1" gradientUnits="userSpaceOnUse" gradientTransform="translate(70.037 16.2901) scale(0.854489 0.854482)">
<stop stop-color="#C60600"/>
<stop offset="1" stop-color="#930600"/>
</radialGradient>
<radialGradient id="paint13_radial_221_41944" cx="0" cy="0" r="1" gradientUnits="userSpaceOnUse" gradientTransform="translate(72.3046 16.2905) scale(1.09741 1.09741)">
<stop stop-color="#C60600"/>
<stop offset="1" stop-color="#930600"/>
</radialGradient>
<radialGradient id="paint14_radial_221_41944" cx="0" cy="0" r="1" gradientUnits="userSpaceOnUse" gradientTransform="translate(74.5738 16.2901) scale(0.854483)">
<stop stop-color="#C60600"/>
<stop offset="1" stop-color="#930600"/>
</radialGradient>
<radialGradient id="paint15_radial_221_41944" cx="0" cy="0" r="1" gradientUnits="userSpaceOnUse" gradientTransform="translate(76.2325 16.2785) scale(0.708391)">
<stop stop-color="#C60600"/>
<stop offset="1" stop-color="#930600"/>
</radialGradient>
<radialGradient id="paint16_radial_221_41944" cx="0" cy="0" r="1" gradientUnits="userSpaceOnUse" gradientTransform="translate(77.1125 16.9134) scale(0.229339 0.229335)">
<stop stop-color="#C60600"/>
<stop offset="1" stop-color="#930600"/>
</radialGradient>
<radialGradient id="paint17_radial_221_41944" cx="0" cy="0" r="1" gradientUnits="userSpaceOnUse" gradientTransform="translate(78.3806 16.2901) scale(0.851086 0.851088)">
<stop stop-color="#C60600"/>
<stop offset="1" stop-color="#930600"/>
</radialGradient>
<radialGradient id="paint18_radial_221_41944" cx="0" cy="0" r="1" gradientUnits="userSpaceOnUse" gradientTransform="translate(80.3003 16.2909) scale(0.868074 0.868076)">
<stop stop-color="#C60600"/>
<stop offset="1" stop-color="#930600"/>
</radialGradient>
<clipPath id="clip0_221_41944">
<rect width="136" height="85" fill="white" transform="translate(0.439941 0.150391)"/>
</clipPath>
</defs>
</svg>
