<svg width="41" height="40" viewBox="0 0 41 40" fill="none" xmlns="http://www.w3.org/2000/svg">
<g id="span.link__icon">
<rect x="0.77002" width="40" height="40" rx="20" fill="white"/>
<path id="Vector" d="M17.3936 26.9207C17.5122 26.9796 17.6454 27.0065 17.7789 26.9987C17.9123 26.9908 18.041 26.9483 18.1511 26.8759L27.6848 20.5761C27.7822 20.5117 27.8618 20.4257 27.9168 20.3255C27.9718 20.2253 28.0005 20.1139 28.0005 20.0008C28.0005 19.8877 27.9718 19.7762 27.9168 19.676C27.8618 19.5758 27.7822 19.4898 27.6848 19.4254L18.1511 13.1256C18.0412 13.0525 17.9124 13.0095 17.7787 13.0014C17.6449 12.9933 17.5114 13.0204 17.3927 13.0798C17.274 13.1391 17.1747 13.2285 17.1055 13.338C17.0364 13.4475 17 13.5731 17.0005 13.701V26.3005C17.0005 26.4283 17.0371 26.5536 17.1064 26.663C17.1757 26.7723 17.275 26.8614 17.3936 26.9207ZM18.4672 15.0373L25.979 20.0008L18.4672 24.9643V15.0373Z" fill="#252525"/>
</g>
</svg>
