<svg width="137" height="86" viewBox="0 0 137 86" fill="none" xmlns="http://www.w3.org/2000/svg">
<g clip-path="url(#clip0_221_41900)">
<path d="M136.735 0.240234H0.734863V85.2402H136.735V0.240234Z" fill="white"/>
<mask id="mask0_221_41900" style="mask-type:luminance" maskUnits="userSpaceOnUse" x="21" y="0" width="96" height="86">
<path d="M116.087 0.240234H21.6997V85.2402H116.087V0.240234Z" fill="white"/>
</mask>
<g mask="url(#mask0_221_41900)">
<path d="M63.8592 77.9343C43.5821 77.9343 27.0942 61.4466 27.0942 41.1693C27.0942 20.8922 43.5821 4.4043 63.8592 4.4043C84.1363 4.4043 100.625 20.8922 100.625 41.1693C100.625 61.4466 84.1363 77.9343 63.8592 77.9343Z" fill="url(#paint0_radial_221_41900)"/>
<path d="M63.8587 5.59952C83.4874 5.59952 99.4289 21.5413 99.4289 41.1698C99.4289 60.7982 83.4874 76.7402 63.8587 76.7402C44.2303 76.7402 28.2884 60.7982 28.2884 41.1698C28.2884 21.5413 44.2303 5.59952 63.8587 5.59952ZM63.8587 3.20996C53.7202 3.20996 44.1961 7.16982 37.0274 14.3385C29.8587 21.5072 25.8989 31.0312 25.8989 41.1698C25.8989 51.3083 29.8587 60.8322 37.0274 68.0011C44.1961 75.17 53.7202 79.1299 63.8587 79.1299C73.9975 79.1299 83.5214 75.17 90.6903 68.0011C97.8587 60.8322 101.819 51.3083 101.819 41.1698C101.819 31.0312 97.8587 21.5072 90.6903 14.3385C83.5214 7.16982 73.9975 3.20996 63.8587 3.20996Z" fill="#FFF3E2"/>
<path d="M28.5297 30.4512C33.4453 35.8789 44.1983 47.7243 49.0116 53.0496C50.0698 46.5295 51.0939 40.146 52.1521 33.66C56.351 38.2002 60.4817 42.638 64.7487 47.2464C64.9873 45.8127 65.1924 44.5496 65.397 43.3207C65.7387 41.136 66.0798 38.9512 66.4895 36.7664C66.5575 36.4592 66.8307 36.0496 67.1038 35.9813C69.3229 35.1962 71.5759 34.4452 73.931 33.66C72.5659 43.662 71.1662 53.5958 69.8006 63.7002C65.397 58.6478 61.062 53.7323 56.5899 48.6118C55.3951 55.0637 54.2345 61.3446 53.0056 67.7967C51.9815 66.6701 51.0598 65.7142 50.1723 64.6902C48.7044 63.0174 47.2365 61.3106 45.7686 59.6378C43.5156 57.0776 41.2626 54.5174 39.0096 51.9572C37.8148 50.5918 36.5859 49.2263 35.3228 47.895C34.8449 47.3829 27.6763 40.3508 27.6763 39.5998C27.7104 36.7323 28.5297 33.66 28.5297 30.4512Z" fill="#FFF3E2"/>
<path d="M75.8079 37.9613C75.9445 36.6641 76.047 35.401 76.1836 34.1038C76.3542 32.6701 76.5593 31.2022 76.7979 29.5978C73.4188 30.8267 70.1412 31.9874 66.7622 33.2163C67.0008 31.646 67.2399 30.1781 67.4445 28.7102C67.7862 26.0817 67.7522 26.0476 70.3124 25.2966C74.5794 24.0335 78.8464 22.8388 83.1134 21.644C83.6256 21.5074 84.1373 21.3709 84.7522 21.2002C84.2059 23.9653 83.7276 26.5938 83.2159 29.2906C84.9907 29.0858 86.6975 29.2564 88.3363 30.0074C90.794 31.134 92.1256 33.1821 92.8079 35.7082C93.3887 37.8247 93.5933 39.9753 93.1156 42.1259C92.4668 45.0617 90.6234 47.144 88.0292 48.5094C86.3564 49.397 84.581 50.0456 82.6011 49.9432C80.28 49.8408 78.1975 49.0557 76.4907 47.5195C75.2622 46.393 74.2377 45.0958 73.0091 43.7304C75.0911 42.9452 76.9004 42.2283 78.7438 41.5797C78.9144 41.5115 79.2901 41.7504 79.4606 41.9552C81.338 44.4131 85.6056 44.1058 87.0392 41.6139C88.2338 39.5657 87.7561 37.2785 85.571 36.0838C84.0008 35.2645 82.4645 35.401 80.8943 36.0155C79.1875 36.63 77.4807 37.2785 75.8079 37.9613Z" fill="#FFF3E2"/>
<path d="M86.0474 20.9957V5.87319L99.0535 4.43945V19.8009L86.0474 20.9957Z" fill="#E2E9ED"/>
<path d="M99.0514 4.43945L106.016 7.27278L106.254 20.7567L98.6763 19.8009L99.0514 4.43945Z" fill="#D6D9DB"/>
<path d="M87.551 34.0695L97.7578 33.1137L97.9963 19.4932L87.2778 20.449L87.551 34.0695Z" fill="#E2E9ED"/>
<path d="M96.8697 33.3868L104.96 34.2061V19.8005L96.6646 19.5615L96.8697 33.3868Z" fill="#D6D9DB"/>
<path d="M86.0461 48.4411L85.8755 34.1038L98.0962 32.8066V49.6701L86.0461 48.4411Z" fill="#E2E9ED"/>
<path d="M98.098 49.6701L97.9614 32.8408L106.461 34.0015L106.94 48.4071L98.098 49.6701Z" fill="#D6D9DB"/>
<path d="M81.5756 58.3066L98.439 57.8289L112.265 57.3506L112.503 80.4955L99.1558 81.9292L81.3364 81.2124L81.5756 58.3066Z" fill="#202120"/>
<path d="M98.4389 80.4954L82.2583 80.0172V58.7842L98.4389 58.8867V80.4954Z" fill="#DFE6EA"/>
<path d="M82.2583 48.6123L82.3949 58.307L97.5855 58.1704L97.5515 48.6123H82.2583Z" fill="#676869"/>
<path d="M97.5513 48.6117L97.5858 58.1698L110.421 57.487L110.216 48.1338L97.5513 48.6117Z" fill="#333333"/>
<path d="M86.1313 55.885V56.3062H83.0004V55.9255L84.6205 53.7344C84.8228 53.4617 84.9838 53.2227 85.1028 53.0175C85.2212 52.8123 85.3062 52.6247 85.3577 52.4545C85.4087 52.2844 85.4348 52.117 85.4348 51.9523C85.4348 51.7174 85.3957 51.5095 85.317 51.3286C85.2416 51.1477 85.1294 51.006 84.9809 50.9034C84.8325 50.8007 84.6489 50.7494 84.4301 50.7494C84.2035 50.7494 84.0091 50.8088 83.847 50.9277C83.6849 51.0438 83.5609 51.2044 83.4742 51.4096C83.388 51.6121 83.3449 51.8457 83.3449 52.1103H82.895C82.895 51.7836 82.9562 51.4866 83.0775 51.2193C83.1987 50.9493 83.3733 50.7332 83.5999 50.5712C83.8294 50.4092 84.106 50.3282 84.4301 50.3282C84.7299 50.3282 84.9877 50.3917 85.2036 50.5186C85.4223 50.6428 85.5912 50.8224 85.7102 51.0573C85.8287 51.2921 85.8882 51.5757 85.8882 51.9078C85.8882 52.086 85.8609 52.2656 85.8071 52.4464C85.7561 52.6247 85.6841 52.8042 85.5923 52.9851C85.5034 53.1633 85.3997 53.3402 85.2807 53.5157C85.1645 53.6912 85.0433 53.864 84.9163 54.0341L83.5473 55.885H86.1313ZM89.712 52.8514V53.8437C89.712 54.2758 89.6769 54.6524 89.6066 54.9737C89.5363 55.295 89.4366 55.5597 89.3069 55.7676C89.1771 55.9754 89.0167 56.1307 88.8246 56.2333C88.6359 56.3359 88.4223 56.3872 88.1848 56.3872C87.9933 56.3872 87.8176 56.3548 87.6584 56.29C87.4992 56.2252 87.3575 56.1267 87.2334 55.9943C87.1087 55.8594 87.0039 55.6906 86.9172 55.4881C86.8311 55.2856 86.7648 55.048 86.7189 54.7753C86.673 54.5025 86.6497 54.1921 86.6497 53.8437V52.8514C86.6497 52.4195 86.6849 52.0442 86.7552 51.7255C86.8254 51.4069 86.9268 51.145 87.0589 50.9398C87.1915 50.7319 87.3518 50.578 87.5411 50.4781C87.7298 50.3755 87.9435 50.3242 88.1809 50.3242C88.3724 50.3242 88.5481 50.3566 88.7073 50.4214C88.8665 50.4862 89.0082 50.5848 89.1329 50.717C89.257 50.8466 89.3607 51.0114 89.4446 51.2112C89.5307 51.411 89.597 51.6486 89.6429 51.924C89.6888 52.1967 89.712 52.5058 89.712 52.8514ZM89.2621 53.9005V52.7867C89.2621 52.5194 89.2473 52.2777 89.2179 52.0617C89.1907 51.843 89.1487 51.6527 89.0921 51.4906C89.0354 51.3259 88.9623 51.1882 88.8734 51.0775C88.7844 50.9668 88.6818 50.8845 88.5656 50.8305C88.4523 50.7738 88.3226 50.7454 88.1769 50.7454C87.9984 50.7454 87.842 50.7886 87.7071 50.875C87.5745 50.9614 87.4629 51.091 87.3711 51.2638C87.2816 51.4339 87.2142 51.6472 87.1683 51.9037C87.1224 52.1576 87.0997 52.4532 87.0997 52.7907V53.9005C87.0997 54.165 87.1144 54.4067 87.1439 54.6254C87.1739 54.8414 87.217 55.0331 87.2736 55.2005C87.3331 55.3679 87.4062 55.5083 87.4924 55.6218C87.5813 55.7351 87.6828 55.8216 87.7961 55.881C87.9123 55.9376 88.042 55.966 88.1848 55.966C88.3656 55.966 88.5237 55.9215 88.6586 55.8323C88.794 55.7405 88.9057 55.6069 88.9952 55.4314C89.0842 55.2532 89.1504 55.0372 89.1935 54.7834C89.2394 54.5268 89.2621 54.2325 89.2621 53.9005ZM92.3329 50.385V56.3062H91.8829V51.0046L90.5507 51.6V51.1342L92.2518 50.385H92.3329ZM94.7429 53.3942L94.3864 53.2848L94.6295 50.4092H97.1201V50.8669H95.0143L94.8438 52.8433C94.9305 52.7705 95.0534 52.6989 95.2127 52.6287C95.3719 52.5585 95.5526 52.5234 95.7555 52.5234C95.9793 52.5234 96.1805 52.5679 96.3585 52.6571C96.5398 52.7434 96.6933 52.869 96.8203 53.0337C96.95 53.1984 97.0498 53.3982 97.1201 53.6332C97.1903 53.868 97.2255 54.1327 97.2255 54.4269C97.2255 54.7104 97.196 54.971 97.1365 55.2086C97.077 55.4462 96.9852 55.6541 96.8611 55.8323C96.7393 56.0078 96.584 56.1442 96.3953 56.2414C96.2088 56.3386 95.9862 56.3872 95.7266 56.3872C95.5323 56.3872 95.3475 56.3548 95.1718 56.29C94.999 56.2225 94.8438 56.1213 94.7061 55.9862C94.5712 55.8513 94.4607 55.6811 94.374 55.476C94.2878 55.2707 94.234 55.0304 94.2119 54.755H94.6414C94.6686 55.0169 94.7264 55.2383 94.8154 55.4192C94.9072 55.6001 95.0302 55.7365 95.1843 55.8283C95.3379 55.9201 95.5192 55.966 95.7266 55.966C95.8972 55.966 96.0468 55.9322 96.1765 55.8647C96.3086 55.7973 96.4197 55.6987 96.5086 55.5691C96.5976 55.4368 96.6639 55.2761 96.7069 55.0871C96.7528 54.8954 96.7761 54.678 96.7761 54.435C96.7761 54.2271 96.7517 54.0354 96.703 53.8599C96.6542 53.6817 96.5828 53.5265 96.4882 53.3942C96.3936 53.2619 96.278 53.1593 96.1403 53.0864C96.0048 53.0108 95.8484 52.973 95.6699 52.973C95.4382 52.973 95.2546 53.0108 95.1191 53.0864C94.9871 53.162 94.8613 53.2646 94.7429 53.3942Z" fill="#CBD2D5"/>
<path d="M29.7223 57.6575C29.7223 57.6575 26.138 62.5733 31.0537 63.6999C31.0537 63.6999 35.4573 65.8504 99.19 63.939C99.19 63.939 113.937 63.6999 116.053 67.7963C116.053 67.7963 111.855 73.2238 103.628 68.6837V78.1737C103.628 78.1737 47.405 79.0611 40.4071 78.1737C40.4071 78.1737 28.9372 78.4128 27.5376 72.3024L25.899 63.4947C25.899 63.4947 25.2163 59.5354 29.5517 57.4189L29.7223 57.6575Z" fill="url(#paint1_linear_221_41900)"/>
<path d="M103.218 67.6943L102.536 82.4413C102.536 82.4413 109.227 88.2105 115.917 83.1241L116.088 67.7283C116.088 67.7629 109.022 73.7367 103.218 67.6943Z" fill="url(#paint2_linear_221_41900)"/>
<path d="M40.2446 72.9061C40.2446 72.7672 40.2228 72.6443 40.1791 72.5383C40.1382 72.4289 40.0646 72.3309 39.9583 72.2436C39.8547 72.1564 39.7102 72.0731 39.5249 71.9943C39.3422 71.915 39.1105 71.8345 38.8297 71.7529C38.5352 71.6656 38.2695 71.5687 38.0323 71.4628C37.7951 71.3534 37.592 71.2293 37.423 71.0905C37.254 70.9516 37.1245 70.7918 37.0345 70.6122C36.9446 70.432 36.8996 70.2263 36.8996 69.9945C36.8996 69.7628 36.9473 69.5486 37.0427 69.3525C37.1381 69.1564 37.2744 68.9859 37.4516 68.8414C37.6315 68.694 37.8456 68.5796 38.0936 68.498C38.3417 68.4158 38.6184 68.375 38.9237 68.375C39.3708 68.375 39.7498 68.4611 40.0605 68.6328C40.3741 68.8017 40.6126 69.0238 40.7762 69.2992C40.9397 69.5718 41.0216 69.8636 41.0216 70.1747H40.2364C40.2364 69.9509 40.1887 69.7531 40.0933 69.5814C39.9979 69.4069 39.8534 69.2709 39.6598 69.1729C39.4663 69.072 39.2209 69.0216 38.9237 69.0216C38.643 69.0216 38.4112 69.0635 38.2286 69.1479C38.0459 69.2324 37.9096 69.3468 37.8197 69.4913C37.7324 69.6358 37.6888 69.8007 37.6888 69.9866C37.6888 70.1118 37.7147 70.2263 37.7665 70.33C37.821 70.4309 37.9041 70.5249 38.0159 70.6122C38.1304 70.6995 38.2749 70.7799 38.4494 70.853C38.6266 70.9267 38.8378 70.9975 39.0832 71.0661C39.4213 71.1613 39.7129 71.2678 39.9583 71.3851C40.2037 71.5019 40.4054 71.6345 40.5635 71.7818C40.7244 71.9263 40.843 72.0912 40.9193 72.2765C40.9984 72.459 41.0379 72.6664 41.0379 72.8981C41.0379 73.1407 40.9888 73.36 40.8906 73.556C40.7926 73.7527 40.6521 73.9204 40.4695 74.0592C40.2868 74.1981 40.0674 74.3057 39.8111 74.3822C39.5576 74.4559 39.2741 74.4927 38.9605 74.4927C38.6852 74.4927 38.4139 74.4548 38.1468 74.3783C37.8823 74.3018 37.6411 74.1873 37.423 74.0349C37.2076 73.8819 37.0345 73.6937 36.9036 73.4705C36.7755 73.2444 36.7114 72.9826 36.7114 72.6851H37.4966C37.4966 72.8896 37.5361 73.0653 37.6152 73.2126C37.6943 73.3571 37.8019 73.4773 37.9382 73.5725C38.0773 73.6682 38.234 73.7391 38.4085 73.7855C38.5857 73.8292 38.7697 73.8507 38.9605 73.8507C39.2359 73.8507 39.469 73.8127 39.6598 73.7362C39.8506 73.6597 39.9951 73.5509 40.0933 73.4093C40.1942 73.267 40.2446 73.0999 40.2446 72.9061ZM42.8903 68.4572V74.4111H42.1011V68.4572H42.8903ZM47.9365 73.7691V74.4111H44.9595V73.7691H47.9365ZM45.1149 68.4572V74.4111H44.3257V68.4572H45.1149ZM50.0424 73.5073L51.7967 68.4572H52.6514L50.4473 74.4111H49.838L50.0424 73.5073ZM48.4027 68.4572L50.1406 73.5073L50.3573 74.4111H49.748L47.548 68.4572H48.4027ZM57.2355 73.7691V74.4111H54.0826V73.7691H57.2355ZM54.2421 68.4572V74.4111H53.4529V68.4572H54.2421ZM56.8183 71.0168V71.6588H54.0826V71.0168H56.8183ZM57.1946 68.4572V69.1032H54.0826V68.4572H57.1946ZM58.2126 68.4572H60.184C60.6311 68.4572 61.0085 68.5252 61.3168 68.6612C61.6273 68.7977 61.863 68.9995 62.024 69.2664C62.1877 69.531 62.2693 69.8568 62.2693 70.2439C62.2693 70.5164 62.2132 70.7658 62.1016 70.9924C61.9928 71.2157 61.8347 71.4067 61.6273 71.5648C61.4227 71.72 61.1774 71.8362 60.8912 71.9121L60.6702 71.9983H58.8178L58.8098 71.3562H60.2084C60.4917 71.3562 60.7274 71.3069 60.9156 71.2089C61.1037 71.108 61.2454 70.9732 61.3411 70.8043C61.4363 70.6354 61.4839 70.4484 61.4839 70.2439C61.4839 70.0149 61.4392 69.8143 61.3491 69.6426C61.2595 69.4709 61.1173 69.3389 60.9241 69.246C60.7331 69.1508 60.4866 69.1032 60.184 69.1032H59.0019V74.4111H58.2126V68.4572ZM61.6925 74.4111L60.2452 71.7121L61.0669 71.7081L62.5351 74.3618V74.4111H61.6925ZM67.0169 72.6114L68.1989 68.4572H68.7713L68.4398 70.0722L67.1682 74.4111H66.5998L67.0169 72.6114ZM65.794 68.4572L66.7347 72.5298L67.0169 74.4111H66.4525L65.0092 68.4572H65.794ZM70.3007 72.5258L71.221 68.4572H72.0098L70.5704 74.4111H70.006L70.3007 72.5258ZM68.8574 68.4572L70.006 72.6114L70.4231 74.4111H69.8547L68.6279 70.0722L68.293 68.4572H68.8574ZM73.7313 68.4572V74.4111H72.9425V68.4572H73.7313ZM79.747 68.4572V74.4111H78.9537L75.956 69.8189V74.4111H75.1667V68.4572H75.956L78.9656 73.0613V68.4572H79.747ZM85.7254 68.4572V74.4111H84.932L81.9344 69.8189V74.4111H81.1456V68.4572H81.9344L84.9445 73.0613V68.4572H85.7254ZM90.9064 73.7691V74.4111H87.7535V73.7691H90.9064ZM87.9133 68.4572V74.4111H87.1239V68.4572H87.9133ZM90.4893 71.0168V71.6588H87.7535V71.0168H90.4893ZM90.8656 68.4572V69.1032H87.7535V68.4572H90.8656ZM91.8839 68.4572H93.8548C94.3019 68.4572 94.6793 68.5252 94.9875 68.6612C95.2981 68.7977 95.5344 68.9995 95.6947 69.2664C95.8585 69.531 95.9401 69.8568 95.9401 70.2439C95.9401 70.5164 95.8846 70.7658 95.7724 70.9924C95.6636 71.2157 95.5055 71.4067 95.2981 71.5648C95.0941 71.72 94.8487 71.8362 94.562 71.9121L94.3415 71.9983H92.4891L92.4806 71.3562H93.8791C94.163 71.3562 94.3988 71.3069 94.5869 71.2089C94.775 71.108 94.9167 70.9732 95.0119 70.8043C95.1077 70.6354 95.1553 70.4484 95.1553 70.2439C95.1553 70.0149 95.1099 69.8143 95.0204 69.6426C94.9303 69.4709 94.7886 69.3389 94.5948 69.246C94.4039 69.1508 94.1574 69.1032 93.8548 69.1032H92.6727V74.4111H91.8839V68.4572ZM95.3638 74.4111L93.916 71.7121L94.7382 71.7081L96.2059 74.3618V74.4111H95.3638Z" fill="black"/>
<path d="M33.6145 64.1096L29.7229 57.6915C29.7229 57.6575 24.978 64.3142 33.6145 64.1096Z" fill="#E9EAEB"/>
</g>
</g>
<defs>
<radialGradient id="paint0_radial_221_41900" cx="0" cy="0" r="1" gradientUnits="userSpaceOnUse" gradientTransform="translate(63.8706 41.1571) scale(36.7655 36.7655)">
<stop stop-color="#EF5D2B"/>
<stop offset="0.32" stop-color="#E65426"/>
<stop offset="0.8495" stop-color="#CF3A17"/>
<stop offset="1" stop-color="#C73212"/>
</radialGradient>
<linearGradient id="paint1_linear_221_41900" x1="25.8708" y1="67.9929" x2="116.077" y2="67.9929" gradientUnits="userSpaceOnUse">
<stop stop-color="#898A8C"/>
<stop offset="0.1671" stop-color="#B6B4B7"/>
<stop offset="0.2343" stop-color="#BDBBBE"/>
<stop offset="0.3342" stop-color="#D1CED1"/>
<stop offset="0.4088" stop-color="#E5E0E4"/>
<stop offset="0.5209" stop-color="#E5E1E6"/>
<stop offset="0.5613" stop-color="#E5E4ED"/>
<stop offset="0.5717" stop-color="#E5E6F0"/>
<stop offset="0.627" stop-color="#E2E3EC"/>
<stop offset="0.6762" stop-color="#D8D9E2"/>
<stop offset="0.7232" stop-color="#C7C8CF"/>
<stop offset="0.7684" stop-color="#AFB0B6"/>
<stop offset="0.7915" stop-color="#A0A1A6"/>
<stop offset="0.841" stop-color="#838588"/>
<stop offset="0.8817" stop-color="#707274"/>
<stop offset="0.9136" stop-color="#7D7E81"/>
<stop offset="0.9723" stop-color="#9E9EA3"/>
<stop offset="1" stop-color="#B0AFB5"/>
</linearGradient>
<linearGradient id="paint2_linear_221_41900" x1="102.541" y1="76.4731" x2="116.077" y2="76.4731" gradientUnits="userSpaceOnUse">
<stop stop-color="#898A8C"/>
<stop offset="0.1671" stop-color="#B6B4B7"/>
<stop offset="0.2343" stop-color="#BDBBBE"/>
<stop offset="0.3342" stop-color="#D1CED1"/>
<stop offset="0.4088" stop-color="#E5E0E4"/>
<stop offset="0.5209" stop-color="#E5E1E6"/>
<stop offset="0.5613" stop-color="#E5E4ED"/>
<stop offset="0.5717" stop-color="#E5E6F0"/>
<stop offset="0.627" stop-color="#E2E3EC"/>
<stop offset="0.6762" stop-color="#D8D9E2"/>
<stop offset="0.7232" stop-color="#C7C8CF"/>
<stop offset="0.7684" stop-color="#AFB0B6"/>
<stop offset="0.7915" stop-color="#A0A1A6"/>
<stop offset="0.841" stop-color="#838588"/>
<stop offset="0.8817" stop-color="#707274"/>
<stop offset="0.9136" stop-color="#7D7E81"/>
<stop offset="0.9723" stop-color="#9E9EA3"/>
<stop offset="1" stop-color="#B0AFB5"/>
</linearGradient>
<clipPath id="clip0_221_41900">
<rect width="136" height="85" fill="white" transform="translate(0.734863 0.240234)"/>
</clipPath>
</defs>
</svg>
