<svg width="65" height="65" viewBox="0 0 65 65" fill="none" xmlns="http://www.w3.org/2000/svg">
<g id="investment management">
<path id="Vector" fill-rule="evenodd" clip-rule="evenodd" d="M32.5 19.082C36.228 19.082 39.25 16.0599 39.25 12.332C39.25 8.6041 36.228 5.58204 32.5 5.58204C28.7721 5.58204 25.75 8.6041 25.75 12.332C25.75 16.0599 28.7721 19.082 32.5 19.082ZM32.5 21.9571C37.8158 21.9571 42.125 17.6478 42.125 12.332C42.125 7.01629 37.8158 2.70703 32.5 2.70703C27.1844 2.70703 22.875 7.01629 22.875 12.332C22.875 17.6478 27.1844 21.9571 32.5 21.9571Z" fill="#00267B"/>
<path id="Vector_2" fill-rule="evenodd" clip-rule="evenodd" d="M31.1875 31.6446V21.332H34.0625V31.6446H57.25V44.707H54.375V34.5196H34.0625V44.707H31.1875V34.5196H10.6875V44.707H7.8125V31.6446H31.1875Z" fill="url(#paint0_linear_1281_9130)"/>
<path id="Vector_3" fill-rule="evenodd" clip-rule="evenodd" d="M38.8749 46.8321H26.125V59.5821H38.8749V46.8321ZM23.25 43.957V62.4571H41.7499V43.957H23.25Z" fill="#00267B"/>
<path id="Vector_4" fill-rule="evenodd" clip-rule="evenodd" d="M15.6251 46.8321H2.875V59.5821H15.6251V46.8321ZM0 43.957V62.4571H18.4999V43.957H0Z" fill="#00267B"/>
<path id="Vector_5" fill-rule="evenodd" clip-rule="evenodd" d="M62.1249 46.8321H49.375V59.5821H62.1249V46.8321ZM46.5 43.957V62.4571H64.9999V43.957H46.5Z" fill="#00267B"/>
<g id="Group" filter="url(#filter0_d_1281_9130)">
<path id="Vector_6" d="M32.4418 38.536C35.5012 38.536 37.9814 36.0559 37.9814 32.9965C37.9814 29.9372 35.5012 27.457 32.4418 27.457C29.3825 27.457 26.9023 29.9372 26.9023 32.9965C26.9023 36.0559 29.3825 38.536 32.4418 38.536Z" fill="white"/>
</g>
<path id="Vector_7" d="M32.4424 35.2128C33.6661 35.2128 34.6582 34.2208 34.6582 32.997C34.6582 31.7733 33.6661 30.7812 32.4424 30.7812C31.2186 30.7812 30.2266 31.7733 30.2266 32.997C30.2266 34.2208 31.2186 35.2128 32.4424 35.2128Z" fill="#0045E6"/>
</g>
<defs>
<filter id="filter0_d_1281_9130" x="22.9023" y="25.457" width="19.0781" height="19.0781" filterUnits="userSpaceOnUse" color-interpolation-filters="sRGB">
<feFlood flood-opacity="0" result="BackgroundImageFix"/>
<feColorMatrix in="SourceAlpha" type="matrix" values="0 0 0 0 0 0 0 0 0 0 0 0 0 0 0 0 0 0 127 0" result="hardAlpha"/>
<feOffset dy="2"/>
<feGaussianBlur stdDeviation="2"/>
<feColorMatrix type="matrix" values="0 0 0 0 0 0 0 0 0 0 0 0 0 0 0 0 0 0 0.45 0"/>
<feBlend mode="normal" in2="BackgroundImageFix" result="effect1_dropShadow_1281_9130"/>
<feBlend mode="normal" in="SourceGraphic" in2="effect1_dropShadow_1281_9130" result="shape"/>
</filter>
<linearGradient id="paint0_linear_1281_9130" x1="32.5312" y1="35.5821" x2="32.5312" y2="44.707" gradientUnits="userSpaceOnUse">
<stop stop-color="#00267B"/>
<stop offset="1" stop-color="#00267B" stop-opacity="0"/>
</linearGradient>
</defs>
</svg>
