<svg width="24" height="24" viewBox="0 0 24 24" fill="none" xmlns="http://www.w3.org/2000/svg">
<path id="Vector" fill-rule="evenodd" clip-rule="evenodd" d="M17.7187 15.9194L23.6352 21.8602C24.1356 22.3628 24.1191 23.1641 23.5989 23.6473C23.3541 23.8748 23.0316 24 22.6917 24C22.3326 24 21.9974 23.8622 21.7483 23.6124L15.7869 17.6266C14.0941 18.775 12.1143 19.38 10.0367 19.38C4.50255 19.38 0 15.033 0 9.68999C0 4.34701 4.50255 0 10.0367 0C15.5709 0 20.0734 4.34701 20.0734 9.68999C20.0734 11.9768 19.2399 14.1736 17.7187 15.9194ZM17.4552 9.68999C17.4552 5.74069 14.1273 2.52782 10.0367 2.52782C5.94609 2.52782 2.61827 5.74069 2.61827 9.68999C2.61827 13.6393 5.94609 16.8522 10.0367 16.8522C14.1273 16.8522 17.4552 13.6393 17.4552 9.68999Z" fill="#252525"/>
</svg>
