<svg width="185" height="38" viewBox="0 0 185 38" fill="none" xmlns="http://www.w3.org/2000/svg">
<g clip-path="url(#clip0_189_6354)">
<path d="M64.0419 35.5809H57.9311L48.3232 22.8348V35.5809H43.0195V8.37891H48.3232V20.3866L57.5468 8.37891H63.6575L53.7037 21.5913L64.0419 35.5809Z" fill="#00ADFF"/>
<path d="M74.6698 16.1503H79.6274V35.5803H74.6698V33.404C73.4656 35.2176 71.5567 36.1243 68.9434 36.1243C66.8424 36.1243 65.1002 35.4118 63.7166 33.987C62.3587 32.5621 61.6797 30.5932 61.6797 28.0803V16.1503H66.6375V27.4585C66.6375 28.7538 66.9834 29.7513 67.6751 30.4507C68.3669 31.1243 69.2893 31.4611 70.4423 31.4611C71.7233 31.4611 72.7482 31.0596 73.5168 30.2564C74.2858 29.4533 74.6698 28.2487 74.6698 26.6424V16.1503Z" fill="#00ADFF"/>
<path d="M98.9281 35.5812H93.1634L86.1686 26.7599V35.5812H81.2109V9.4043H86.1686V24.7004L92.7787 16.1512H98.6977L90.9726 25.7496L98.9281 35.5812Z" fill="#00ADFF"/>
<path d="M111.662 16.1495H116.619V35.5795H111.662V33.2868C110.176 35.1779 108.088 36.1235 105.397 36.1235C102.836 36.1235 100.632 35.139 98.787 33.1702C96.9683 31.1754 96.0586 28.7401 96.0586 25.8645C96.0586 22.9889 96.9683 20.5666 98.787 18.5977C100.632 16.6028 102.836 15.6055 105.397 15.6055C108.088 15.6055 110.176 16.5511 111.662 18.4423V16.1495ZM102.515 29.8282C103.514 30.8386 104.783 31.3437 106.32 31.3437C107.857 31.3437 109.125 30.8386 110.124 29.8282C111.149 28.792 111.662 27.4707 111.662 25.8645C111.662 24.2583 111.149 22.95 110.124 21.9396C109.125 20.9033 107.857 20.3852 106.32 20.3852C104.783 20.3852 103.514 20.9033 102.515 21.9396C101.516 22.95 101.016 24.2583 101.016 25.8645C101.016 27.4707 101.516 28.792 102.515 29.8282Z" fill="#00ADFF"/>
<path d="M137.738 9.4043V14.5338H127.444V35.5812H122.14V14.5338H111.473V9.4043H137.738Z" fill="#00ADFF"/>
<path d="M137.74 19.4923C138.2 18.2488 139.19 17.6983 139.929 17.2713C141.005 16.6495 144.904 16.6944 146.211 16.6944L143.581 21.3576C142.07 21.1762 140.712 21.4871 139.507 22.2903C138.329 23.0933 137.74 24.4276 137.74 26.2928V35.5804H132.781V16.1504H137.74V19.4923Z" fill="#00ADFF"/>
<path d="M149.215 27.9241C149.881 30.3593 151.688 31.5769 154.634 31.5769C156.531 31.5769 157.43 30.8963 158.404 29.601H163.577C162.469 33.3375 158.247 36.1235 154.558 36.1235C151.38 36.1235 148.831 35.152 146.909 33.209C144.988 31.266 144.027 28.8178 144.027 25.8645C144.027 22.937 144.975 20.5018 146.871 18.5588C148.767 16.5899 151.201 15.6055 154.173 15.6055C156.991 15.6055 159.31 16.5899 161.129 18.5588C162.974 20.5277 163.897 22.963 163.897 25.8645C163.897 26.5122 163.833 27.1986 163.704 27.9241H149.215ZM149.139 24.0381H158.939C158.657 22.7169 158.068 21.7323 157.171 21.0847C156.3 20.437 155.3 20.1132 154.173 20.1132C152.841 20.1132 151.739 20.463 150.868 21.1624C149.997 21.836 149.421 22.7945 149.139 24.0381Z" fill="#00ADFF"/>
<path d="M169.919 27.9241C170.585 30.3593 172.391 31.5769 175.338 31.5769C177.234 31.5769 177.99 31.0956 179.098 29.601L184.272 29.6339C183.163 34.0847 178.951 36.1235 175.261 36.1235C172.084 36.1235 169.534 35.152 167.613 33.209C165.691 31.266 164.73 28.8178 164.73 25.8645C164.73 22.937 165.679 20.5018 167.575 18.5588C169.47 16.5899 171.905 15.6055 174.877 15.6055C177.695 15.6055 180.014 16.5899 181.833 18.5588C183.678 20.5277 184.6 22.963 184.6 25.8645C184.6 26.5122 184.536 27.1986 184.408 27.9241H169.919ZM169.842 24.0381H179.642C179.36 22.7169 178.771 21.7323 177.875 21.0847C177.003 20.437 176.004 20.1132 174.877 20.1132C173.545 20.1132 172.443 20.463 171.572 21.1624C170.7 21.836 170.124 22.7945 169.842 24.0381Z" fill="#00ADFF"/>
<path fill-rule="evenodd" clip-rule="evenodd" d="M11.7815 1.51753C15.1735 0.161511 19.9069 0.0892487 23.2821 0.980088C26.7203 1.88755 30.1822 3.63087 33.4618 8.12854C36.8065 12.7157 38.7521 22.0226 33.4652 29.3302C31.4065 32.1757 29.0035 34.1342 26.7838 35.3856C24.5998 36.6168 22.4934 37.2177 20.9985 37.2177H19.445V24.8512L21.1855 25.0646C21.9785 25.1619 23.2679 24.9865 24.397 24.3817C25.484 23.7994 26.2859 22.9036 26.4888 21.5972C26.9275 18.7723 24.933 17.1271 23.8396 16.6605L22.9258 16.2704L22.8908 15.2677C22.8657 14.5448 22.6046 13.4182 21.9457 12.5153C21.3401 11.6854 20.3585 10.9751 18.6343 10.9751C16.9102 10.9751 15.9287 11.6854 15.3231 12.5153C14.6641 13.4182 14.4031 14.5448 14.3779 15.2677L14.3493 16.0867L13.6693 16.5319C11.7072 17.8163 11.061 19.2089 10.9522 20.3668C10.8371 21.5926 11.3003 22.8229 12.0155 23.734C12.4622 24.3032 13.1616 24.6812 13.9844 24.8935C14.8065 25.1058 15.6024 25.1119 16.0279 25.0632L17.7562 24.8652V37.3106L16.1135 37.2151C9.49664 36.8304 4.52316 31.669 2.17794 27.7864C-0.345517 23.6087 -0.790569 17.4112 1.44703 11.569C3.76954 5.50521 8.90939 2.6657 11.7815 1.51753ZM22.4977 4.02191C19.6586 3.27256 15.6106 3.36693 12.9233 4.44121C10.3916 5.45332 6.2098 7.83436 4.34433 12.7049C2.39396 17.7971 2.89455 22.9441 4.82927 26.1471C6.71226 29.2645 10.2631 32.8859 14.649 33.8486V28.1891C14.1943 28.1458 13.7086 28.0667 13.2163 27.9396C12.0003 27.6258 10.5944 26.9786 9.58214 25.6889C8.47343 24.2765 7.65322 22.2607 7.85894 20.0695C8.05336 17.9995 9.14331 15.9833 11.3485 14.335C11.512 13.2161 11.9459 11.8504 12.8233 10.648C13.984 9.0576 15.8733 7.83156 18.6343 7.83156C21.3954 7.83156 23.2847 9.0576 24.4454 10.648C25.2912 11.807 25.7249 13.1177 25.9014 14.213C27.7435 15.3515 30.2011 17.9472 29.5583 22.0853C29.1668 24.6059 27.5707 26.2387 25.851 27.1599C24.7885 27.7291 23.6264 28.0593 22.5521 28.1802V33.8083C23.319 33.5876 24.2502 33.2152 25.2713 32.6395C27.1247 31.5947 29.1798 29.9311 30.9579 27.4734C35.2628 21.5231 33.6959 13.7451 30.9613 9.99477C28.1615 6.155 25.3478 4.77414 22.4977 4.02191Z" fill="#00ADFF"/>
</g>
<defs>
<clipPath id="clip0_189_6354">
<rect width="184.6" height="36.92" fill="white" transform="translate(0 0.390625)"/>
</clipPath>
</defs>
</svg>
