<svg width="186" height="66" viewBox="0 0 186 66" fill="none" xmlns="http://www.w3.org/2000/svg">
<g clip-path="url(#clip0_189_6266)">
<path d="M71.0461 60.4284C71.0461 59.6936 71.4254 59.0535 72.0655 58.698C72.6344 58.4135 73.3219 58.2476 74.5308 58.1053L75.9057 57.9394V57.8209C75.9057 56.4696 75.4316 55.9244 74.2938 55.9244C73.2982 55.9244 72.6818 56.4459 72.6107 57.3705H71.2595C71.3543 55.877 72.5396 54.8814 74.2701 54.8814C76.285 54.8814 77.1621 55.8059 77.1621 57.9394V59.9306C77.1621 61.0685 77.2332 61.8508 77.4229 62.4197H76.1191C76.0717 62.0404 76.0243 61.5426 76.0006 61.0685C75.6687 62.0167 74.7442 62.5856 73.5352 62.5856C72.0418 62.5856 71.0461 61.7322 71.0461 60.4284ZM75.9294 59.1958V58.8165L73.9382 59.1009C72.8478 59.2669 72.3736 59.6462 72.3736 60.3573C72.3736 61.0685 72.9189 61.5189 73.8197 61.5189C75.0998 61.5426 75.9294 60.6181 75.9294 59.1958ZM126.493 58.7217C126.493 56.3274 127.797 54.8577 129.883 54.8577C131.613 54.8577 132.727 55.8533 132.917 57.5364L131.637 57.6786C131.495 56.5645 130.855 55.9481 129.859 55.9481C128.603 55.9481 127.82 56.9675 127.82 58.698C127.82 60.4759 128.579 61.4715 129.906 61.4715C130.902 61.4715 131.518 60.8788 131.708 59.7173L132.893 59.9069C132.633 61.59 131.518 62.5619 129.883 62.5619C127.82 62.5856 126.493 61.0685 126.493 58.7217ZM134.173 58.7217C134.173 56.3274 135.525 54.8577 137.611 54.8577C139.697 54.8577 141.048 56.3037 141.048 58.7217C141.048 61.1159 139.697 62.5856 137.611 62.5856C135.525 62.5856 134.173 61.1159 134.173 58.7217ZM139.697 58.7217C139.697 56.8963 138.914 55.9481 137.587 55.9481C136.259 55.9481 135.477 56.8963 135.477 58.7217C135.477 60.547 136.259 61.4952 137.587 61.4952C138.914 61.4952 139.697 60.547 139.697 58.7217ZM144.13 55.0473V56.3274C144.533 55.3318 145.244 54.834 146.239 54.834C147.259 54.834 147.994 55.3555 148.326 56.3274C148.8 55.3318 149.558 54.834 150.554 54.834C151.976 54.834 152.782 55.8533 152.782 57.5838V62.4197H151.526V57.7023C151.526 56.5645 151.052 55.9718 150.127 55.9718C149.084 55.9718 148.468 56.7304 148.468 58.0816V62.4434H147.211V57.6549C147.211 56.5882 146.714 55.9718 145.836 55.9718C144.817 55.9718 144.177 56.8015 144.177 58.129V62.4197H142.921V55.0473H144.13ZM155.153 55.0473H156.338V56.4222C156.812 55.4029 157.665 54.8814 158.732 54.8814C160.51 54.8814 161.695 56.4222 161.695 58.7454C161.695 61.0922 160.439 62.6093 158.637 62.6093C157.499 62.6093 156.717 61.993 156.385 61.2581V65.288H155.129V55.0473H155.153ZM160.368 58.7217C160.368 56.9912 159.633 55.9718 158.4 55.9718C157.168 55.9718 156.362 56.9438 156.362 58.532V58.8876C156.362 60.4758 157.12 61.4715 158.353 61.4715C159.609 61.4715 160.368 60.4521 160.368 58.7217ZM162.881 60.4284C162.881 59.6936 163.26 59.0535 163.9 58.698C164.469 58.4135 165.156 58.2476 166.365 58.1053L167.74 57.9394V57.8209C167.74 56.4696 167.266 55.9244 166.128 55.9244C165.133 55.9244 164.516 56.4459 164.445 57.3705H163.094C163.189 55.877 164.374 54.8814 166.104 54.8814C168.119 54.8814 168.997 55.8059 168.997 57.9394V59.9306C168.997 61.0685 169.068 61.8508 169.257 62.4197H167.954C167.906 62.0404 167.859 61.5426 167.835 61.0685C167.503 62.0167 166.579 62.5856 165.37 62.5856C163.852 62.5856 162.881 61.7322 162.881 60.4284ZM167.764 59.1958V58.8165L165.773 59.1009C164.682 59.2669 164.208 59.6462 164.208 60.3573C164.208 61.0685 164.753 61.5189 165.654 61.5189C166.91 61.5426 167.764 60.6181 167.764 59.1958ZM171.391 55.0473H172.576V56.4934C173.05 55.3792 173.88 54.834 175.041 54.834C176.653 54.834 177.507 55.8533 177.507 57.8209V62.396H176.25V57.892C176.25 56.5882 175.705 55.9244 174.638 55.9244C173.406 55.9244 172.671 56.9201 172.671 58.5557V62.396H171.414V55.0473H171.391ZM178.834 65.3117V64.1976C179.024 64.2213 179.214 64.2213 179.356 64.2213C180.233 64.2213 180.707 63.8183 181.039 62.8464L181.228 62.3012L178.289 55.0236H179.688L181.56 60.144C181.703 60.5233 181.774 60.8077 181.821 61.0211H181.845C181.892 60.8077 181.987 60.5233 182.106 60.144L183.812 55.0236H185.164L182.295 62.8464C181.608 64.7191 180.731 65.3354 179.498 65.3354C179.285 65.3591 179.071 65.3591 178.834 65.3117Z" fill="#5B6770"/>
<path fill-rule="evenodd" clip-rule="evenodd" d="M6.09549 28.8287C6.09549 28.6153 6.19031 28.5916 6.37995 28.5916C6.68812 28.5916 7.70745 29.3502 9.58017 29.3502C12.2589 29.3502 14.8665 27.596 14.8665 24.4906C14.8665 22.0015 13.2308 19.7732 8.34749 19.7732H5.02875C3.15603 19.7732 1.75741 19.6784 1.18849 19.6784C0.880316 19.6784 0.690674 19.8444 0.690674 20.1051C0.690674 20.6029 1.35442 20.6029 1.97076 20.6266C2.46857 20.674 2.99009 20.7452 2.99009 21.2193V25.7944C2.99009 28.4968 2.89527 31.1755 2.89527 33.8779C2.89527 34.755 2.49228 34.9209 1.85223 35.0632C1.35442 35.2054 0.8092 35.158 0.8092 35.6321C0.8092 35.8454 0.951432 35.9166 1.09366 35.9166H6.37995C6.97258 35.9166 7.44669 36.0114 7.89709 36.0114C8.3949 36.0114 8.65566 35.9877 8.65566 35.7032C8.65566 35.3239 8.48973 35.2291 8.01562 35.1817C6.33254 34.9446 6.09549 34.8261 6.09549 34.2335V28.8287ZM6.11919 23.6846C6.11919 20.6977 6.11919 20.6266 7.9445 20.6266C10.3387 20.6266 11.524 22.4045 11.524 24.2535C11.524 27.8805 8.89272 27.9753 7.66004 27.9753C6.5933 27.9753 6.11919 27.9516 6.11919 27.4063V23.6846ZM41.7009 28.0701C41.7246 28.1412 41.7483 28.2597 41.7483 28.3546C41.7483 28.5205 40.9897 28.5205 39.9704 28.5205C39.117 28.5205 38.0977 28.4968 38.0977 28.3072C38.0977 28.0938 38.1925 27.8568 38.311 27.596L39.7333 24.3721C39.8045 24.1587 39.9467 24.0165 40.0415 24.0165C40.0889 24.0165 40.2074 24.0165 40.2549 24.135L41.7009 28.0701ZM41.3927 18.7539H41.0845C40.4919 20.3422 39.8519 22.1675 38.8562 24.3247L34.3996 33.8542C34.1626 34.352 33.7833 34.8024 33.2618 35.1106C32.6217 35.4899 31.8869 35.395 31.8869 35.8454C31.8869 36.0351 32.0765 36.0588 32.3373 36.0588C33.4751 36.0588 34.2574 35.964 35.3004 35.964C36.2724 35.964 36.7939 36.0588 37.1021 36.0588C37.671 36.0588 37.908 35.964 37.908 35.6084C37.908 35.2291 37.3865 35.1343 37.1258 35.1106C36.5094 35.0632 35.8931 34.9921 35.8931 34.2335C35.8931 33.6408 36.6279 32.1474 37.1021 31.057C37.5288 30.0139 37.7421 29.6821 38.4058 29.6821C40.2075 29.6821 41.0608 29.7769 41.7009 29.7769C42.2698 29.7769 42.3409 29.848 42.412 30.0376L43.4788 33.4986C43.5736 33.8542 43.7395 34.1861 43.7395 34.4468C43.7395 34.9209 43.2417 35.0632 42.6491 35.1343C42.1987 35.1817 41.9616 35.3239 41.9616 35.6084C41.9616 35.9403 42.1276 35.964 42.3409 35.964H45.47C47.2953 35.964 47.888 36.0588 48.7651 36.0588C49.2866 36.0588 49.3814 36.0351 49.3814 35.8454C49.3814 35.561 48.7651 35.561 48.0302 35.1106C47.1768 34.5891 47.0583 34.3046 46.276 32.3845L41.3927 18.7539Z" fill="#5B6770"/>
<path d="M75.0081 36.3919C76.1934 36.3919 79.6069 36.0364 79.8677 34.9696C79.9862 34.4244 80.3655 32.6702 80.3655 32.362C80.3655 32.1487 80.2707 31.9116 80.081 31.9116C79.4884 31.9116 78.3979 35.3963 74.8422 35.3963C73.5621 35.3963 69.4136 34.5192 69.4136 27.7869C69.4136 23.3777 72.2583 20.4383 75.174 20.4383C78.2557 20.4383 79.2751 23.3303 80.0099 23.3303C80.2944 23.3303 80.3418 23.2118 80.3418 23.0221C80.3418 22.7851 80.247 21.3628 80.1758 21.0309C80.0573 20.2723 77.3549 19.6797 75.2451 19.6797C71.1678 19.6797 65.929 21.9554 65.929 28.3084C65.929 33.2628 70.5989 36.3919 75.0081 36.3919Z" fill="#5B6770"/>
<path d="M39.9485 13.9899C39.9485 13.9899 62.113 4.83968 98.5006 4.83968C136.074 4.83968 160.324 13.5395 160.324 13.5395C160.324 13.5395 135.789 0.359375 99.6859 0.359375C64.1516 0.359375 39.9485 13.9899 39.9485 13.9899ZM152.146 36.4626H169.545L160.869 19.537L152.146 36.4626Z" fill="#00558C"/>
<path d="M99.1631 32.1954C99.1631 34.803 98.9261 34.8978 97.1956 35.0874C96.9823 35.1111 96.4133 35.1111 96.4133 35.6326C96.4133 35.9408 96.6741 36.0356 97.006 36.0356C97.2193 36.0356 97.5749 35.9408 98.855 35.9408H104.449C105.469 35.9408 106.464 36.0356 108.716 36.0356C108.93 36.0356 109.119 35.04 109.214 34.4711C109.309 33.8547 109.641 32.8117 109.641 32.4561C109.641 32.2191 109.641 31.9583 109.309 31.9583C108.716 31.9583 108.716 33.5466 106.867 34.5659C106.346 34.8504 105.967 35.04 104.876 35.04C103.667 35.04 102.411 34.8504 102.411 33.8785V28.8529C102.411 28.1892 102.506 28.0706 103.478 28.0706C105.777 28.0706 106.322 28.6159 106.512 29.3981C106.796 30.6308 106.844 30.7256 107.176 30.7256C107.484 30.7256 107.579 30.5834 107.579 30.3701C107.579 30.1567 107.484 29.6826 107.484 28.6159C107.484 27.6202 107.697 26.1979 107.697 25.6053C107.697 25.5342 107.721 24.8467 107.341 24.8467C106.938 24.8467 106.749 25.6764 106.322 26.3165C105.99 26.838 105.635 27.1698 104.141 27.1698C102.577 27.1698 102.458 26.9802 102.458 26.4587V22.4288C102.458 20.9828 102.506 20.9116 103.667 20.9116C105.895 20.9116 107.365 21.2672 107.816 22.0732C108.337 22.9266 108.361 23.6852 108.788 23.6852C109.191 23.6852 109.191 23.0925 109.191 22.0969C109.191 19.9871 109.143 19.916 108.622 19.916C106.37 19.916 104.592 20.0108 102.909 20.0108C99.7084 20.0108 98.5468 19.916 97.409 19.916C96.9823 19.916 96.8874 19.9634 96.8874 20.2716C96.8874 20.5561 96.9823 20.6746 98.3335 20.7931C99.1631 20.8642 99.1631 21.7413 99.1631 22.3577V32.1954Z" fill="#5B6770"/>
<path d="M94.4697 55.4277V52.3223H83.2571V55.4277H87.0973V62.563H90.6294V55.4277H94.4697Z" fill="#235A8F"/>
<path d="M109.497 62.563L102.504 55.6173L102.362 55.4277H102.338L99.2091 52.3223H94.468L99.9676 57.7982L95.1792 62.563H99.9202L102.338 60.1687L104.756 62.563H109.497ZM120.828 52.3223H111.678L108.549 55.4277H113.432V62.563H116.941V55.4277H120.828V52.3223Z" fill="#00558C"/>
<path d="M110.185 52.3223H105.468L102.363 55.4277H107.08L110.185 52.3223Z" fill="#C8102E"/>
<path d="M94.4697 55.4277V52.3223H83.2571V55.4277H87.0973V62.563H90.6294V55.4277H94.4697Z" fill="#00558C"/>
</g>
<defs>
<clipPath id="clip0_189_6266">
<rect width="184.475" height="65" fill="white" transform="translate(0.690674 0.359375)"/>
</clipPath>
</defs>
</svg>
