<svg width="85" height="66" viewBox="0 0 85 66" fill="none" xmlns="http://www.w3.org/2000/svg">
<g clip-path="url(#clip0_189_6376)">
<mask id="mask0_189_6376" style="mask-type:luminance" maskUnits="userSpaceOnUse" x="0" y="47" width="11" height="18">
<path d="M0.110107 47.4766V64.887H10.9804V47.4766H0.110107Z" fill="#DF3E3F"/>
</mask>
<g mask="url(#mask0_189_6376)">
<path fill-rule="evenodd" clip-rule="evenodd" d="M2.33431 55.7074H4.60916C6.98699 55.7074 8.4954 54.399 8.4954 52.4255C8.4954 50.1937 6.88486 49.2196 4.53235 49.1943C3.4595 49.1943 2.69221 49.2973 2.33431 49.3994V55.7074ZM0.110109 47.8353C1.23529 47.6049 2.84499 47.4766 4.37872 47.4766C6.7574 47.4766 8.29113 47.9121 9.36482 48.8862C10.2342 49.656 10.7196 50.8361 10.7196 52.1689C10.7196 54.4514 9.28801 55.964 7.47319 56.5793V56.6561C8.80181 57.1179 9.59442 58.3486 10.0038 60.1431C10.3744 61.7326 10.6791 62.9987 10.945 63.8673C10.9818 63.9848 10.9904 64.1093 10.9702 64.2308C10.95 64.3523 10.9015 64.4673 10.8286 64.5666C10.7557 64.6658 10.6605 64.7466 10.5507 64.8022C10.4408 64.8579 10.3194 64.8869 10.1963 64.887H9.55052C9.38749 64.8874 9.22839 64.8369 9.0955 64.7425C8.96261 64.648 8.86257 64.5144 8.8094 64.3603C8.55871 63.6385 8.24977 62.3901 7.88174 60.7585C7.37021 58.3739 6.45014 57.4766 4.43021 57.399H2.33431V64.1011C2.33442 64.2043 2.3142 64.3064 2.2748 64.4018C2.2354 64.4971 2.17759 64.5838 2.10469 64.6567C2.03178 64.7297 1.9452 64.7876 1.84991 64.8271C1.75461 64.8666 1.65246 64.887 1.5493 64.887H0.895122C0.791891 64.887 0.689673 64.8666 0.59432 64.8271C0.498968 64.7875 0.412354 64.7295 0.339437 64.6564C0.266519 64.5834 0.208731 64.4966 0.16938 64.4012C0.130028 64.3058 0.109887 64.2035 0.110109 64.1003V47.8353Z" fill="#DF3E3F"/>
</g>
<path fill-rule="evenodd" clip-rule="evenodd" d="M21.7361 57.4785C21.7614 56.0427 21.1478 53.8109 18.6172 53.8109C16.3415 53.8109 15.3446 55.9144 15.1648 57.4785H21.7361ZM15.1403 59.0933C15.191 62.1447 17.1341 63.4016 19.3836 63.4016C20.5147 63.4016 21.3301 63.2623 22.0079 63.0555C22.1111 63.0226 22.2199 63.0112 22.3276 63.0222C22.4354 63.0331 22.5397 63.0662 22.6341 63.1192C22.7285 63.1723 22.811 63.2442 22.8763 63.3306C22.9417 63.4169 22.9886 63.5158 23.0141 63.621L23.0352 63.7097C23.0814 63.8987 23.0555 64.0982 22.9625 64.2692C22.8694 64.4401 22.716 64.5702 22.5321 64.634C21.7218 64.9066 20.5772 65.1455 19.0772 65.1455C15.2678 65.1455 12.9929 62.6318 12.9929 58.8882C12.9929 55.1446 15.191 52.1953 18.7961 52.1953C22.8351 52.1953 23.9088 55.7599 23.9088 58.0424C23.9088 58.5033 23.8582 58.8629 23.8329 59.0933H15.1395H15.1403Z" fill="#DF3E3F"/>
<mask id="mask1_189_6376" style="mask-type:luminance" maskUnits="userSpaceOnUse" x="25" y="52" width="11" height="14">
<path d="M25.7234 65.17H35.4787V52.1953H25.7234V65.1691V65.17Z" fill="#DF3E3F"/>
</mask>
<g mask="url(#mask1_189_6376)">
<path fill-rule="evenodd" clip-rule="evenodd" d="M33.2131 58.5548C30.7593 58.5033 27.9729 58.9388 27.9729 61.3487C27.9729 62.8107 28.9436 63.5029 30.0941 63.5029C31.7047 63.5029 32.7277 62.4781 33.0856 61.4264C33.1616 61.1951 33.2131 60.9393 33.2131 60.7089V58.5548ZM34.2454 64.888C34.0527 64.8878 33.8668 64.8167 33.7232 64.6883C33.5795 64.5599 33.4881 64.3831 33.4663 64.1917L33.3667 63.3239H33.2907C32.6003 64.2989 31.2708 65.17 29.5066 65.17C27.0014 65.17 25.7234 63.4007 25.7234 61.6062C25.7234 58.6054 28.3823 56.9636 33.1624 56.9906V56.734C33.1624 55.7085 32.8814 53.8624 30.3499 53.8624C29.5036 53.8681 28.6671 54.044 27.8902 54.3798C27.791 54.4239 27.6837 54.4468 27.5751 54.4472C27.4666 54.4476 27.3591 54.4254 27.2596 54.3821C27.1601 54.3388 27.0707 54.2752 26.997 54.1955C26.9233 54.1158 26.867 54.0216 26.8317 53.919C26.7681 53.7403 26.7717 53.5445 26.8417 53.3683C26.9117 53.192 27.0435 53.0472 27.2124 52.9609C28.1772 52.4882 29.4037 52.1953 30.6816 52.1953C34.4657 52.1953 35.3866 54.785 35.3866 57.2726V61.9134C35.3866 62.6512 35.4103 63.3763 35.4753 64.0321C35.4856 64.1408 35.4732 64.2504 35.4386 64.3539C35.404 64.4574 35.3482 64.5526 35.2746 64.6332C35.2011 64.7138 35.1115 64.7781 35.0115 64.822C34.9116 64.8659 34.8036 64.8884 34.6945 64.888H34.2454Z" fill="#DF3E3F"/>
</g>
<path fill-rule="evenodd" clip-rule="evenodd" d="M47.6905 63.7797C47.734 63.9699 47.7053 64.1693 47.61 64.3395C47.5147 64.5097 47.3596 64.6384 47.1748 64.7006C46.4826 64.9345 45.4756 65.1446 44.2829 65.1446C40.5503 65.1446 38.1218 62.6064 38.1218 58.8114C38.1218 54.991 40.7301 52.2215 44.7683 52.2215C45.6892 52.2215 46.5367 52.3818 47.174 52.5819C47.3693 52.6448 47.5321 52.7818 47.6276 52.9634C47.7231 53.1451 47.7436 53.3569 47.6846 53.5535L47.6255 53.7569C47.5956 53.858 47.5456 53.9521 47.4786 54.0335C47.4116 54.1149 47.3289 54.182 47.2354 54.2308C47.142 54.2796 47.0396 54.3092 46.9345 54.3177C46.8294 54.3261 46.7237 54.3134 46.6236 54.2802C46.1391 54.1241 45.528 54.0169 44.7683 54.0169C41.9312 54.0169 40.3967 56.1187 40.3967 58.7092C40.3967 61.5808 42.2377 63.3501 44.6923 63.3501C45.495 63.3501 46.1264 63.2184 46.643 63.0513C46.7469 63.0169 46.8568 63.0046 46.9656 63.0153C47.0745 63.0259 47.18 63.0592 47.2752 63.113C47.3704 63.1668 47.4534 63.24 47.5186 63.3278C47.5839 63.4156 47.6301 63.516 47.6542 63.6227L47.6905 63.7797ZM53.5106 49.9382V52.4781H55.9475C56.0508 52.4781 56.153 52.4984 56.2483 52.538C56.3437 52.5775 56.4303 52.6355 56.5032 52.7086C56.5761 52.7817 56.6339 52.8684 56.6733 52.9638C56.7126 53.0593 56.7328 53.1615 56.7325 53.2648V53.4083C56.7329 53.5116 56.7128 53.6139 56.6735 53.7095C56.6342 53.805 56.5764 53.8918 56.5035 53.965C56.4306 54.0382 56.3439 54.0962 56.2485 54.1358C56.1531 54.1754 56.0508 54.1958 55.9475 54.1958H53.5106V60.8887C53.5106 62.4275 53.9462 63.2994 55.1988 63.2994C55.3887 63.2994 55.5626 63.291 55.7222 63.2775C55.8254 63.2703 55.929 63.2837 56.027 63.317C56.125 63.3503 56.2154 63.4028 56.2928 63.4714C56.3703 63.54 56.4334 63.6233 56.4783 63.7166C56.5232 63.8098 56.5491 63.911 56.5544 64.0144L56.5663 64.2085C56.5781 64.3995 56.5199 64.5883 56.4026 64.7394C56.2853 64.8906 56.1169 64.9939 55.929 65.0298C55.4938 65.1096 55.052 65.148 54.6096 65.1446C53.5629 65.1446 52.7188 64.8121 52.182 64.1959C51.5422 63.529 51.3126 62.4275 51.3126 60.9655V54.1958H50.179C50.0758 54.1957 49.9737 54.1753 49.8784 54.1357C49.7832 54.0961 49.6966 54.0381 49.6238 53.965C49.551 53.8919 49.4933 53.8052 49.454 53.7098C49.4147 53.6145 49.3946 53.5123 49.3948 53.4091V53.2648C49.3946 53.1615 49.4147 53.0593 49.4541 52.9638C49.4934 52.8684 49.5512 52.7817 49.6241 52.7086C49.697 52.6355 49.7836 52.5775 49.879 52.538C49.9743 52.4984 50.0766 52.4781 50.1798 52.4781H51.3126V50.1078C51.3126 49.7516 51.5506 49.4393 51.8942 49.3473L52.5247 49.1785C52.641 49.1477 52.7628 49.1441 52.8807 49.1678C52.9986 49.1916 53.1095 49.2421 53.2047 49.3155C53.3 49.389 53.3772 49.4833 53.4302 49.5912C53.4832 49.6992 53.5107 49.8179 53.5106 49.9382ZM60.4905 58.7092C60.4905 61.4272 62.0495 63.4784 64.2476 63.4784C66.3958 63.4784 68.0063 61.4525 68.0063 58.6577C68.0063 56.5551 66.958 53.8886 64.2991 53.8886C61.6401 53.8886 60.4905 56.3508 60.4905 58.7092ZM70.3074 58.5809C70.3074 63.1711 67.1369 65.17 64.1454 65.17C60.7969 65.17 58.2148 62.7086 58.2148 58.786C58.2148 54.6314 60.9243 52.1961 64.3505 52.1961C67.9042 52.1961 70.3074 54.7858 70.3074 58.5809ZM74.5245 58.7092C74.5245 61.4272 76.0835 63.4784 78.2824 63.4784C80.4298 63.4784 82.0404 61.4525 82.0404 58.6577C82.0404 56.5551 80.9928 53.8886 78.3339 53.8886C75.675 53.8886 74.5245 56.3508 74.5245 58.7092ZM84.3414 58.5809C84.3414 63.1711 81.1718 65.17 78.1803 65.17C74.8317 65.17 72.2488 62.7086 72.2488 58.786C72.2488 54.6314 74.9592 52.1961 78.3854 52.1961C81.9391 52.1961 84.3414 54.7858 84.3414 58.5809Z" fill="#DF3E3F"/>
<mask id="mask2_189_6376" style="mask-type:luminance" maskUnits="userSpaceOnUse" x="23" y="0" width="37" height="38">
<path d="M23.4109 0.787109H59.99V37.4768H23.4109V0.787109Z" fill="#B23266"/>
</mask>
<g mask="url(#mask2_189_6376)">
<path fill-rule="evenodd" clip-rule="evenodd" d="M46.5198 15.3647C46.0258 15.3655 45.5368 15.4636 45.0807 15.6534C44.6246 15.8432 44.2103 16.1209 43.8616 16.4709C43.5129 16.8208 43.2365 17.2359 43.0482 17.6927C42.86 18.1494 42.7635 18.6388 42.7644 19.1328C42.7637 19.6267 42.8604 20.116 43.0488 20.5726C43.2372 21.0292 43.5137 21.4442 43.8625 21.7939C44.2113 22.1437 44.6256 22.4213 45.0816 22.6109C45.5377 22.8005 46.0267 22.8985 46.5207 22.8992C47.0146 22.8985 47.5036 22.8005 47.9597 22.6109C48.4158 22.4213 48.83 22.1437 49.1788 21.7939C49.5276 21.4442 49.8041 21.0292 49.9925 20.5726C50.1809 20.116 50.2776 19.6267 50.2769 19.1328C50.2777 18.6388 50.1811 18.1494 49.9928 17.6927C49.8044 17.236 49.5279 16.8209 49.1791 16.4711C48.8303 16.1213 48.416 15.8436 47.9599 15.6539C47.5037 15.4642 47.0147 15.3662 46.5207 15.3656M40.6356 19.1328C40.6363 19.6267 40.5396 20.116 40.3512 20.5726C40.1628 21.0292 39.8863 21.4442 39.5375 21.7939C39.1887 22.1437 38.7744 22.4213 38.3184 22.6109C37.8623 22.8005 37.3733 22.8985 36.8793 22.8992C35.8821 22.8974 34.9263 22.4996 34.2223 21.7933C33.5182 21.087 33.1234 20.1301 33.1248 19.1328C33.1232 18.1354 33.5179 17.1782 34.222 16.4717C34.9261 15.7652 35.8819 15.3674 36.8793 15.3656C37.3734 15.3662 37.8624 15.4642 38.3185 15.6539C38.7747 15.8436 39.189 16.1213 39.5378 16.4711C39.8866 16.8209 40.1631 17.236 40.3515 17.6927C40.5398 18.1494 40.6364 18.6388 40.6356 19.1328ZM41.7 3.42577C33.0522 3.42577 26.0411 10.4571 26.0411 19.1328C26.0411 27.8068 33.0522 34.8381 41.7 34.8381C50.3486 34.8381 57.3597 27.8059 57.3597 19.1319C57.3597 10.4571 50.3486 3.42577 41.7 3.42577ZM59.99 19.1319C59.99 29.2628 51.8013 37.4759 41.7 37.4759C31.5987 37.4759 23.4109 29.2628 23.4109 19.1319C23.4109 9.0002 31.5987 0.787109 41.7 0.787109C51.8013 0.787109 59.99 9.0002 59.99 19.1328" fill="#B23266"/>
</g>
</g>
<defs>
<clipPath id="clip0_189_6376">
<rect width="84.41" height="64.9957" fill="white" transform="translate(0.110107 0.359375)"/>
</clipPath>
</defs>
</svg>
