<svg width="94" height="91" viewBox="0 0 94 91" fill="none" xmlns="http://www.w3.org/2000/svg">
<g clip-path="url(#clip0_189_6315)">
<path d="M36.9038 1.29033C36.0096 1.52949 35.3648 1.91424 34.7825 2.57974C34.0754 3.39082 33.8467 4.05632 33.8467 5.26254C33.8467 6.49996 34.0962 7.20705 34.8241 7.99734C36.9974 10.3786 40.9384 9.48434 41.8327 6.41677C42.3734 4.56584 41.4999 2.47575 39.8257 1.62308C39.3683 1.39431 38.2556 1.10315 37.8396 1.11355C37.6941 1.11355 37.2781 1.19674 36.9038 1.29033Z" fill="#007A9C"/>
<path d="M57.5453 1.40397C55.5903 2.07987 54.3217 4.14917 54.6753 6.10408C54.9248 7.53907 55.7463 8.6413 57.0565 9.28601C57.8156 9.66038 57.8884 9.68118 58.8866 9.68118C59.8537 9.68118 59.9888 9.64993 60.644 9.3484C61.0807 9.14043 61.559 8.79728 61.923 8.44374C64.1586 6.20806 63.2436 2.44382 60.2177 1.40397C59.4898 1.15441 58.2627 1.15441 57.5453 1.40397Z" fill="#011D35"/>
<path d="M50.882 5.1592C50.5493 5.29438 50.1333 5.8559 50.0501 6.26144C49.9982 6.5526 50.0605 6.84376 50.2997 7.48846C51.2043 9.86968 51.4851 12.2198 51.2148 15.1937C50.9443 18.1988 50.3621 20.9025 49.3326 23.9388C49.0206 24.8643 48.7607 25.7586 48.7607 25.9146C48.7607 26.2889 49.083 26.8192 49.4262 27.048C49.8629 27.3287 50.4348 27.3599 50.9132 27.1207C51.2875 26.9232 51.4123 26.7465 52.213 25.2075C55.3949 19.062 59.2528 14.8193 63.1626 13.1661C64.1192 12.7709 64.5144 12.4485 64.6807 11.9494C64.9823 11.024 64.2649 10.0465 63.2873 10.0465C63.0794 10.0465 62.2371 10.3272 61.3844 10.6704C59.0864 11.6063 58.057 11.7934 56.9651 11.4606C55.3014 10.9511 54.5111 10.0361 53.44 7.34288C53.0761 6.45901 52.7121 5.64793 52.6185 5.53354C52.2442 5.10721 51.4435 4.93043 50.882 5.1592Z" fill="#011D35"/>
<path d="M44.5375 5.35536C44.2775 5.51134 44.0904 5.83369 43.5184 7.19589C42.4162 9.78513 41.6155 10.773 40.2325 11.3033C39.5359 11.5737 38.1425 11.6256 37.373 11.4072C37.0922 11.3241 36.1564 10.9601 35.3141 10.5962C34.4094 10.2114 33.6191 9.9411 33.4111 9.9411C32.3921 9.9411 31.789 10.9706 32.2673 11.896C32.4025 12.1559 32.6936 12.3432 33.7127 12.8319C35.1269 13.5182 36.2707 14.298 37.5289 15.4419C39.8894 17.5736 42.489 21.2651 44.4128 25.1644C45.2342 26.8386 45.463 27.0986 46.1597 27.0986C46.846 27.0986 47.5115 26.4642 47.5115 25.8091C47.5115 25.6636 47.3971 25.2373 47.2515 24.8525C46.5444 22.9704 45.7021 19.4141 45.3902 16.9288C45.203 15.4627 45.1718 12.0727 45.3278 10.929C45.4734 9.90985 45.7957 8.71407 46.222 7.62223C46.6172 6.59278 46.6484 6.32242 46.4196 5.84409C46.1076 5.18899 45.1926 4.94983 44.5375 5.35536Z" fill="#007A9C"/>
<path d="M28.2857 14.2787C28.0986 14.3723 27.849 14.601 27.745 14.7674C27.3602 15.4017 27.381 15.5993 28.0986 17.4295C28.4729 18.3757 28.8265 19.3532 28.8992 19.6027C29.024 20.0914 29.0552 21.4016 28.9408 21.88C28.8057 22.4311 28.2441 23.3566 27.7658 23.8037C27.1107 24.4172 26.5908 24.7083 24.8958 25.3946C22.9721 26.1641 22.8993 26.2057 22.6602 26.6841C22.4002 27.1936 22.4002 27.5159 22.6497 28.0254C23.0968 28.8885 23.8455 29.0133 25.2494 28.4622C27.1419 27.7239 29.6791 27.412 32.206 27.6096C35.5022 27.8799 38.5074 28.5142 41.7206 29.6476C43.1972 30.1675 43.4155 30.1988 43.9354 29.9491C44.4241 29.71 44.7049 29.2212 44.7049 28.5766C44.7049 27.8279 44.4449 27.568 42.8644 26.7672C39.1729 24.8956 36.2301 22.795 33.8385 20.3202C32.4139 18.8644 31.4781 17.5542 30.8021 16.0984C30.5526 15.5473 30.2822 14.9754 30.2198 14.8506C29.9183 14.2267 28.9408 13.9355 28.2857 14.2787Z" fill="#011D35"/>
<path d="M66.9435 14.861C66.7563 14.9858 66.538 15.2145 66.4651 15.3497C66.3924 15.4953 66.122 16.0568 65.8516 16.6079C64.1879 20.0914 59.831 23.8452 54.1638 26.7048C53.1447 27.2247 52.2193 27.7654 52.0633 27.9422C51.5538 28.483 51.7305 29.4396 52.396 29.8451C52.812 30.0843 53.2903 30.0531 54.2781 29.6996C56.1811 29.0341 58.9055 28.379 61.2555 28.015C63.2313 27.7135 67.0059 27.6823 68.4825 27.963C69.6055 28.171 70.6142 28.4725 71.4253 28.8365C72.7251 29.4188 73.7129 28.9301 73.7129 27.7135C73.7129 27.0583 73.3074 26.736 71.5812 26.0081C69.7719 25.2386 69.3767 25.0203 68.6696 24.3756C68.2745 24.0116 67.9833 23.6164 67.713 23.0653C67.3387 22.3167 67.3179 22.2335 67.3282 21.2872C67.3387 20.1226 67.4219 19.8106 68.2953 17.7725C69.1064 15.88 69.1168 15.4016 68.3161 14.861C67.869 14.5594 67.3906 14.5594 66.9435 14.861Z" fill="#007A9C"/>
<path d="M22.2904 15.7346C20.3875 16.1609 19.1708 17.2839 18.7549 18.9997C18.0478 21.9009 20.5955 24.6668 23.5486 24.1886C26.9801 23.627 28.3631 19.4157 25.909 16.9616C24.9628 16.0257 23.3926 15.485 22.2904 15.7346Z" fill="#011D35"/>
<path d="M72.8501 16.3902C71.6439 16.5983 70.396 17.5444 69.9073 18.6155C69.0442 20.4976 69.6162 22.7125 71.2383 23.8044C72.0598 24.3555 72.7253 24.5323 73.7963 24.4802C74.9505 24.4283 75.7408 24.0955 76.4999 23.326C77.311 22.5045 77.5918 21.8391 77.6437 20.6848C77.6958 19.5306 77.4982 18.7923 76.9263 18.0332C75.9592 16.7438 74.3994 16.1199 72.8501 16.3902Z" fill="#007A9C"/>
<path d="M52.5723 31.4053C52.0419 31.6029 51.7924 31.842 51.6572 32.31C51.5116 32.778 51.6052 33.3291 51.8756 33.6826C51.99 33.8282 52.853 34.3377 53.7785 34.8264C59.6328 37.8524 64.021 41.8142 65.6223 45.5265C65.8511 46.0568 66.1007 46.5767 66.1735 46.6807C66.9117 47.731 68.6483 47.2734 68.7939 46.0048C68.8355 45.6305 68.7419 45.2977 68.222 43.9875C67.3901 41.9286 67.2341 41.2839 67.2861 40.3065C67.3381 39.3289 67.6812 38.5386 68.3572 37.8212C69.0434 37.0829 69.5946 36.7606 71.4767 35.9911C73.4524 35.1904 73.7228 34.972 73.7852 34.1505C73.8371 33.4538 73.5771 32.9963 72.9741 32.7259C72.4645 32.4972 72.1734 32.518 71.2063 32.9027C69.4906 33.5786 68.0764 33.797 65.4456 33.797C62.0661 33.7866 58.6658 33.1523 54.6624 31.7796C53.8201 31.4989 53.0922 31.2598 53.0506 31.2598C53.009 31.2701 52.7906 31.3325 52.5723 31.4053Z" fill="#011D35"/>
<path d="M41.5846 31.8416C39.2658 32.632 36.219 33.2871 33.7026 33.5574C32.1844 33.7134 28.7009 33.6302 27.6507 33.4015C26.6316 33.1934 25.675 32.9023 24.8431 32.5592C23.7305 32.0913 22.9402 32.3304 22.649 33.2142C22.4826 33.7134 22.6698 34.2957 23.1065 34.6181C23.2937 34.7532 23.928 35.0652 24.5311 35.3148C26.2676 36.0219 27.0268 36.4378 27.6715 37.0617C28.5345 37.8728 28.9193 38.7047 28.9816 39.8277C29.044 40.9819 28.9193 41.4603 28.0562 43.5503C27.2347 45.5156 27.2139 45.7652 27.7442 46.358C27.973 46.6075 28.129 46.6803 28.545 46.7219C29.3664 46.7946 29.5952 46.5763 30.3335 45.0581C31.1445 43.4048 32.1428 42.0634 33.7961 40.462C36.0214 38.2991 38.8186 36.3754 42.2501 34.6389C43.3939 34.0669 44.1946 33.599 44.309 33.4326C44.569 33.0895 44.5794 32.32 44.3298 31.9353C44.101 31.5818 43.6539 31.3634 43.2275 31.3842C43.0404 31.3842 42.3021 31.5921 41.5846 31.8416Z" fill="#007A9C"/>
<path d="M45.5956 34.2218C45.3773 34.2945 45.1277 34.4297 45.0549 34.5025C44.9821 34.5753 44.6286 35.22 44.2647 35.9375C41.0723 42.1766 36.9961 46.6687 33.0447 48.3013C32.036 48.7172 31.6929 49.0708 31.6201 49.7467C31.5681 50.3706 31.7761 50.8385 32.2544 51.1193C32.8263 51.4728 33.3254 51.3896 35.1868 50.6514C36.1226 50.277 37.1833 49.913 37.5472 49.8611C38.9199 49.6322 40.2092 50.0586 41.1867 51.0464C41.8626 51.7328 42.1953 52.3462 42.9752 54.2804C43.2871 55.0707 43.6303 55.809 43.7239 55.913C43.8175 56.017 44.0982 56.1833 44.3582 56.2769C44.9197 56.4952 45.45 56.3705 45.8868 55.913C46.3651 55.4138 46.3651 54.8107 45.9179 53.6045C45.45 52.3775 45.2629 51.5456 45.1277 50.1938C44.7534 46.6063 45.3876 42.239 46.9474 37.6013C47.5713 35.7711 47.6442 35.2304 47.3218 34.8041C46.8642 34.1905 46.2508 33.9826 45.5956 34.2218Z" fill="#011D35"/>
<path d="M49.6308 34.4201C48.8094 34.7841 48.6742 35.4495 49.1733 36.8742C51.3466 43.1653 51.7313 49.7162 50.1507 53.6157C49.9324 54.1565 49.7556 54.7804 49.7556 54.9883C49.7452 55.4666 50.0468 55.893 50.5667 56.1529C50.8994 56.3193 51.0242 56.3297 51.357 56.2257C51.5753 56.1633 51.8561 56.0073 51.9808 55.8722C52.0952 55.7474 52.4904 54.9571 52.8544 54.1252C53.655 52.2431 54.071 51.5464 54.7365 50.9329C55.5371 50.2154 56.2026 49.9554 57.3985 49.893C58.6047 49.8411 58.9687 49.9346 61.0483 50.8185C62.6497 51.5048 63.1696 51.5984 63.648 51.2865C64.2511 50.8913 64.407 49.9554 63.9599 49.3627C63.8559 49.2172 63.3984 48.9364 62.9409 48.7284C61.1316 47.9173 59.7797 46.9607 58.116 45.2969C55.8595 43.0301 53.863 40.1393 52.0017 36.4271C51.5234 35.46 51.0346 34.6177 50.9099 34.5345C50.5563 34.3161 49.9947 34.2642 49.6308 34.4201Z" fill="#007A9C"/>
<path d="M21.5661 37.0097C19.4552 37.7168 18.2906 39.6509 18.6962 41.7826C18.8729 42.6665 19.2576 43.3319 19.9752 43.9974C22.0029 45.8692 25.2264 45.2245 26.443 42.6977C26.7342 42.0842 26.7653 41.9282 26.7653 40.9819C26.7653 40.0253 26.7342 39.8797 26.4326 39.2454C26.0166 38.3511 25.3303 37.6752 24.4465 37.2592C23.8746 36.9889 23.6042 36.9265 22.866 36.9057C22.3252 36.8849 21.8157 36.9265 21.5661 37.0097Z" fill="#007A9C"/>
<path d="M72.2064 37.3202C70.7403 37.809 69.6588 38.9216 69.2845 40.3254C68.4318 43.5489 71.489 46.4917 74.6709 45.5039C77.1145 44.7552 78.352 41.958 77.2705 39.6495C76.8546 38.7448 76.1059 37.9962 75.1908 37.5698C74.5981 37.2891 74.3589 37.237 73.5582 37.2162C72.9864 37.1954 72.4664 37.237 72.2064 37.3202Z" fill="#011D35"/>
<path d="M36.6519 51.7551C35.352 51.963 34.1562 52.9197 33.5427 54.2195C33.2412 54.8538 33.21 54.9994 33.21 55.9664C33.21 56.9647 33.2308 57.0375 33.6051 57.7966C35.0713 60.7706 39.0643 61.0617 40.9568 58.3373C42.7142 55.8209 41.1544 52.2438 38.0765 51.7447C37.4006 51.6303 37.3694 51.6303 36.6519 51.7551Z" fill="#011D35"/>
<path d="M57.2313 52.1913C55.8484 52.6489 54.6421 53.9383 54.4342 55.186C54.299 55.9452 54.299 56.0804 54.3718 56.6939C54.5902 58.472 55.9108 59.8446 57.7305 60.1774C59.9661 60.5933 62.1706 59.0127 62.4826 56.7563C62.7218 54.9781 61.8067 53.2312 60.2158 52.4513C59.6334 52.1601 59.415 52.1081 58.5936 52.0873C58.0113 52.0665 57.4913 52.1081 57.2313 52.1913Z" fill="#007A9C"/>
<path d="M31.8096 71.5844C31.4353 71.6779 30.9257 71.8859 30.6658 72.0419C30.0107 72.4266 29.2517 73.2689 28.9188 73.976C28.6693 74.5063 28.6381 74.7143 28.5861 76.1285L28.5341 77.6882L27.7854 77.7195L27.0264 77.7506V78.6242V79.4976L27.7854 79.5288L28.5341 79.56L28.5653 84.832L28.5861 90.1143H29.47H30.3538V84.8112V79.508H31.5809H32.7975L32.7663 78.6242L32.7351 77.7506L31.5705 77.7195L30.4059 77.6882L30.3746 76.5652C30.3435 75.1406 30.4475 74.7247 31.0506 74.08C31.4353 73.6849 31.6641 73.5392 32.1424 73.3937L32.7455 73.2169V72.3018C32.7455 71.2828 32.8079 71.3244 31.8096 71.5844Z" fill="#011D35"/>
<path d="M76.1078 75.4534C76.1078 77.6266 76.0766 79.4048 76.0454 79.4048C76.0142 79.4048 75.7854 79.2384 75.5566 79.0305C74.5688 78.1881 73.0091 77.6474 71.5636 77.6371C70.5446 77.6371 69.8791 77.793 68.8393 78.2713C68.1114 78.6145 67.8202 78.8329 67.1235 79.54C65.7301 80.9542 65.2206 82.2851 65.3246 84.2921C65.4182 86.0392 65.9588 87.2559 67.1962 88.4615C68.9225 90.146 71.3349 90.6767 73.6745 89.9075C74.3608 89.6782 75.4007 89.0542 75.7334 88.6806C75.8478 88.5558 75.9726 88.4513 76.0246 88.4513C76.0662 88.4513 76.1078 88.8258 76.1078 89.2834V90.1155H76.9916H77.8755V80.8085V71.502H76.9916H76.1078V75.4534ZM73.4457 79.7999C74.3816 80.2366 75.2759 81.1413 75.7126 82.0772C75.9934 82.6698 76.0558 82.9403 76.087 83.7201C76.1494 85.2071 75.7126 86.2574 74.5792 87.3178C73.7057 88.1397 72.8842 88.4513 71.5844 88.4615C70.1702 88.4615 69.2968 88.0769 68.2777 87.0062C67.4251 86.1224 67.1443 85.4359 67.0819 84.1672C67.0507 83.3977 67.0819 83.0442 67.217 82.6075C67.6226 81.4013 68.5689 80.3302 69.6919 79.8207C70.5342 79.436 70.6798 79.4152 71.8028 79.4463C72.6139 79.4776 72.8634 79.5295 73.4457 79.7999Z" fill="#007A9C"/>
<path d="M61.1842 73.3939C60.7891 73.6019 60.6123 73.9242 60.6123 74.4337C60.6123 74.8289 60.6747 74.9953 60.9034 75.2448C61.7562 76.2119 63.3263 75.2137 62.848 74.0178C62.5881 73.3731 61.7665 73.0716 61.1842 73.3939Z" fill="#007A9C"/>
<path d="M4.17898 77.6466C3.43029 77.7714 2.71279 78.0626 2.13048 78.4577C0.466726 79.6119 0.113178 82.1076 1.44418 83.4282C2.22407 84.208 3.22232 84.5928 5.03165 84.8112C6.31066 84.9567 6.7682 85.0919 7.20493 85.4559C8.1096 86.1938 7.86004 87.5565 6.71621 88.1594C6.36266 88.347 6.1027 88.3886 5.3436 88.3988C3.93982 88.3988 3.06634 87.9726 2.57762 87.0361C2.34885 86.6209 2.29686 86.5682 2.03689 86.6209C1.42339 86.7457 0.612305 87.0157 0.612305 87.0989C0.612305 87.3901 1.10103 88.2324 1.55856 88.7104C2.56722 89.7819 3.71105 90.2396 5.3436 90.2396C6.50824 90.2396 7.16334 90.0519 8.04721 89.4695C8.98307 88.8454 9.55499 87.723 9.55499 86.4961C9.54455 84.5512 8.06801 83.2826 5.49959 83.033C3.3679 82.8251 2.48403 82.3156 2.48403 81.2861C2.48403 80.3606 3.19113 79.7159 4.43894 79.4976C5.66596 79.2792 6.85138 79.7679 7.49609 80.7661C7.67286 81.0469 7.82884 81.2757 7.83925 81.2757C7.94323 81.2757 9.31581 80.7245 9.37822 80.6518C9.6382 80.4022 8.29678 78.7281 7.4441 78.2289C6.58103 77.7194 5.17723 77.4698 4.17898 77.6466Z" fill="#011D35"/>
<path d="M16.9887 77.6464C15.273 77.9064 13.7444 78.8526 12.7253 80.2772C12.143 81.0987 11.8622 81.7434 11.6751 82.7105C11.2591 84.863 11.8519 86.8077 13.3909 88.3462C14.753 89.7191 15.9593 90.2285 17.8206 90.2387C19.4739 90.2497 20.6697 89.8439 21.876 88.8768L22.3959 88.4506L22.4271 89.2827L22.4583 90.1139H23.3318H24.2157V83.9271V77.74H23.3318H22.4479V78.5719C22.4479 79.0294 22.4167 79.4037 22.3855 79.4037C22.3543 79.4037 22.1152 79.2166 21.8448 78.9878C20.6802 77.9584 18.6317 77.3864 16.9887 77.6464ZM19.0268 79.5701C19.7859 79.7573 20.5242 80.2148 21.1481 80.87C22.8326 82.6377 22.8431 85.3205 21.1689 87.0361C20.5034 87.7017 19.8899 88.0762 19.0684 88.2842C17.1135 88.8038 15.1378 88.0133 14.0459 86.2872C13.2869 85.1021 13.1829 83.3759 13.7964 82.0761C14.7219 80.09 16.9471 79.0294 19.0268 79.5701Z" fill="#011D35"/>
<path d="M39.5562 77.6778C37.1334 78.1042 35.1369 79.8927 34.461 82.2427C34.3466 82.6274 34.2842 83.2202 34.2842 83.9273C34.2842 85.1751 34.4506 85.8721 34.9913 86.9012C35.74 88.3157 37.0606 89.4381 38.6204 89.9688C39.7538 90.3432 41.2824 90.3636 42.3638 90.0206C43.2373 89.7404 44.1731 89.2301 44.7867 88.7003C45.317 88.2529 46.3048 86.891 46.1904 86.7763C46.0033 86.5896 44.5579 86.0385 44.5162 86.1421C44.4123 86.4749 43.7884 87.161 43.2477 87.5566C42.3534 88.2214 41.7503 88.3989 40.4921 88.3879C39.5978 88.3879 39.369 88.3463 38.8803 88.1179C37.3725 87.4106 36.4055 86.2151 36.1247 84.676L36.0519 84.2912H41.4799H46.9183L46.8663 83.3761C46.6896 80.4646 44.4435 78.0937 41.4072 77.6466C40.5337 77.5114 40.5129 77.5114 39.5562 77.6778ZM41.4383 79.5184C42.6862 79.7471 43.9859 80.6934 44.537 81.7748C44.6827 82.066 44.8075 82.3571 44.8075 82.4195C44.8075 82.4923 43.4244 82.5235 40.5856 82.5235H36.3639L36.4367 82.2427C36.5303 81.8372 37.1854 80.9013 37.6013 80.5582C38.1628 80.0903 38.9739 79.6847 39.6082 79.5495C40.3465 79.3832 40.6793 79.3832 41.4383 79.5184Z" fill="#011D35"/>
<path d="M52.3439 77.7817C50.6073 78.2184 49.4323 79.4975 49.3075 81.1196C49.2036 82.3986 49.8378 83.48 51.0857 84.104C51.7408 84.4368 53.2902 84.8111 54.0181 84.8111C55.0891 84.8111 56.1394 85.4142 56.3578 86.1521C56.6073 86.9944 55.973 88.0447 55.0267 88.3257C54.434 88.5023 53.3422 88.4819 52.7183 88.2739C52.0736 88.0659 51.4185 87.5352 51.1377 86.974C50.9921 86.6828 50.8778 86.5792 50.753 86.6208C50.6594 86.6412 50.285 86.7456 49.9315 86.8492C49.5675 86.9426 49.2764 87.0674 49.2764 87.1192C49.2764 87.4215 49.9107 88.4191 50.3786 88.8665C51.4081 89.8438 52.7078 90.2811 54.33 90.1979C56.3889 90.0832 57.7823 88.9498 58.115 87.109C58.3231 85.9441 57.9799 84.9671 57.0752 84.156C56.3994 83.5425 55.6402 83.2617 54.2157 83.0849C52.0423 82.8146 51.1897 82.3882 51.0753 81.5147C50.9297 80.3813 52.1152 79.4039 53.6333 79.4039C54.6628 79.4039 55.6402 79.9238 56.1497 80.7453L56.4617 81.2444L57.2832 80.9428L58.1047 80.6309L57.8343 80.1005C57.4808 79.3935 56.5345 78.4576 55.8274 78.1352C54.7668 77.6465 53.4462 77.5114 52.3439 77.7817Z" fill="#007A9C"/>
<path d="M85.0866 77.7818C84.7954 77.8546 84.1819 78.0833 83.7347 78.3017C83.09 78.6033 82.7469 78.8632 82.071 79.5495C81.156 80.475 80.7296 81.2133 80.4176 82.4195C80.1784 83.3345 80.2513 85.1127 80.5736 86.0281C81.1663 87.733 82.7469 89.3139 84.4522 89.9066C85.2425 90.1766 86.9167 90.2912 87.8006 90.1248C88.7677 89.9482 90.0047 89.3029 90.785 88.5651C91.5339 87.868 92.1987 86.9323 92.0535 86.7871C92.0017 86.7455 91.6477 86.5579 91.263 86.3915L90.5668 86.0799L90.3478 86.4127C89.7551 87.3798 88.2684 88.3154 87.1349 88.4403C85.7314 88.5965 84.5666 88.2322 83.5684 87.328C82.8613 86.6725 82.4142 85.9967 82.1958 85.2374C81.8838 84.1872 81.2911 84.2912 87.4474 84.2912H92.8754L92.8126 83.4281C92.6878 81.8268 92.1571 80.6934 90.9718 79.4975C89.7135 78.2289 88.2684 77.6362 86.4489 77.6466C85.9912 77.6466 85.3777 77.7089 85.0866 77.7818ZM87.759 79.5703C88.8611 79.8926 89.7245 80.5374 90.369 81.5252C91.0661 82.6066 91.3878 82.5234 86.5007 82.5234C84.1611 82.5234 82.2374 82.5027 82.2374 82.4715C82.2374 82.4403 82.3518 82.1907 82.4869 81.9203C83.0276 80.8597 84.2442 79.8407 85.3361 79.5495C86.0227 79.3623 87.0933 79.3728 87.759 79.5703Z" fill="#007A9C"/>
<path d="M60.9209 83.9273V90.1142H61.8048H62.6886V83.9273V77.7402H61.8048H60.9209V83.9273Z" fill="#007A9C"/>
</g>
<defs>
<clipPath id="clip0_189_6315">
<rect width="92.5472" height="90" fill="white" transform="translate(0.612305 0.859375)"/>
</clipPath>
</defs>
</svg>
