<svg width="185" height="35" viewBox="0 0 185 35" fill="none" xmlns="http://www.w3.org/2000/svg">
<g clip-path="url(#clip0_189_6234)">
<mask id="mask0_189_6234" style="mask-type:luminance" maskUnits="userSpaceOnUse" x="0" y="0" width="185" height="35">
<path d="M184.571 0.859375H0V34.8594H184.571V0.859375Z" fill="white"/>
</mask>
<g mask="url(#mask0_189_6234)">
<path d="M60.1085 1.72461H45.6504L45.5273 3.88824H51.6797V15.881H54.0176V3.88824H60.17L60.1085 1.72461Z" fill="#512D6D"/>
<path d="M82.8116 13.2235C81.9502 13.7798 80.6582 14.089 79.3047 14.089C76.2285 14.089 74.6904 12.7907 74.6904 10.2562C74.6904 7.72168 76.167 6.54712 79.3047 6.54712C80.4736 6.54712 81.7041 6.7944 82.6885 7.22712L83.1192 7.41258L83.3038 5.37258L83.0576 5.24895C81.8272 4.7544 80.4121 4.44531 78.997 4.44531C74.8135 4.44531 72.4141 6.54712 72.4141 10.1944C72.4141 13.9035 74.8135 16.0053 78.9356 16.0053C80.5352 16.0053 82.1348 15.5726 83.2422 14.8926L83.4268 14.769L83.1807 12.7907L82.8116 13.2235Z" fill="#512D6D"/>
<path d="M92.2256 4.50733C90.5645 4.50733 89.0879 5.00187 87.919 5.86733V5.18733V0.921875L85.7656 1.10733V15.8201H87.919V8.03096C88.5958 7.28915 90.0724 6.54733 91.795 6.54733C94.379 6.54733 95.6095 7.53642 95.6095 9.57642V15.8201H97.7627V9.57642C97.8239 6.30005 95.7941 4.50733 92.2256 4.50733Z" fill="#512D6D"/>
<path d="M106.745 4.50586C105.023 4.50586 103.362 5.06223 102.254 5.92767L102.008 4.62949L100.285 4.81495V15.8804H102.439V8.02949C103.3 7.0404 105.023 6.54586 106.315 6.54586C108.96 6.54586 110.13 7.53495 110.13 9.57495V15.8186H112.282V9.57495C112.344 6.29858 110.375 4.50586 106.745 4.50586Z" fill="#512D6D"/>
<path d="M114.93 15.8805H117.082V15.2623V4.69141L114.93 4.81504V15.8805Z" fill="#512D6D"/>
<path d="M126.678 4.50586C124.772 4.50586 123.172 5.0004 121.942 5.92767L121.634 4.69131L119.973 4.87677V18.6004H122.249V15.5095V14.8295C123.295 15.6949 124.772 16.1277 126.556 16.1277C130.678 16.1277 133.016 14.0877 133.016 10.3168C132.954 6.54586 130.801 4.50586 126.678 4.50586ZM130.739 10.3786C130.739 12.9131 129.262 14.1495 126.187 14.1495C123.91 14.1495 122.741 13.284 122.188 12.6658V8.02949C123.172 7.0404 124.526 6.54586 126.371 6.54586C129.325 6.60767 130.739 7.84404 130.739 10.3786Z" fill="#512D6D"/>
<path d="M159.472 13.0992L152.519 1.72461H150.059V15.881H152.211V5.55733V5.37188L158.671 15.881H160.271L166.608 5.4337L166.731 5.31007V15.881H168.885V1.72461H166.485L159.472 13.0992Z" fill="#512D6D"/>
<path d="M184.205 12.9149L183.775 13.1003C182.421 13.7185 180.944 14.0276 179.53 14.0276C175.1 14.0276 173.192 12.4821 173.192 8.77306C173.192 5.24942 175.1 3.64215 179.407 3.64215C180.883 3.64215 182.544 3.95124 183.775 4.38397L184.205 4.56942L184.513 2.46761L184.267 2.34397C183.221 1.91124 181.252 1.47852 179.407 1.47852C172.27 1.47852 170.793 5.43488 170.793 8.71124C170.793 13.5331 173.746 16.1294 179.345 16.1294C181.314 16.1294 183.221 15.5731 184.329 15.0167L184.575 14.8931L184.205 12.9149Z" fill="#512D6D"/>
<path d="M145.997 7.65915H137.569V3.95007H147.72L147.658 1.72461H135.292L135.23 15.881H137.569V9.82279H146.059L145.997 7.65915Z" fill="#512D6D"/>
<path d="M65.0938 4.50586C61.2178 4.50586 58.6953 6.66949 58.6953 9.94586C58.6953 12.7277 59.9258 16.0658 65.7706 16.0658C67.6163 16.0658 69.1544 15.6949 70.631 14.9531L70.877 14.8295L70.5695 12.9749L70.1387 13.2223C68.7238 13.8404 67.3702 14.1495 65.8936 14.1495C62.9405 14.1495 61.2793 13.1604 60.9718 11.1823H71.1232L71.2462 10.564C71.3078 10.3786 71.3078 10.0695 71.3078 9.88404C71.3078 6.66949 68.7852 4.50586 65.0938 4.50586ZM60.9102 9.0804C61.2178 7.41131 62.6944 6.48404 65.0938 6.48404C67.3702 6.48404 68.9083 7.47313 69.1544 9.0804H60.9102Z" fill="#512D6D"/>
<path d="M116.035 3.3321C116.715 3.3321 117.265 2.77857 117.265 2.09574C117.265 1.41291 116.715 0.859375 116.035 0.859375C115.355 0.859375 114.805 1.41291 114.805 2.09574C114.805 2.77857 115.355 3.3321 116.035 3.3321Z" fill="#512D6D"/>
<path d="M19.3789 22.3718V34.0554C19.3789 34.7972 20.2403 35.1681 20.794 34.6118L35.5597 19.7136C36.0518 19.219 36.0518 18.4772 35.5597 17.9827L29.5918 11.9863L19.3789 22.3718Z" fill="#CB2C30"/>
<path d="M37.8975 1.72461H19.3789L29.6534 12.0482L38.4514 3.14643C39.005 2.65188 38.6358 1.72461 37.8975 1.72461Z" fill="#00A3E0"/>
<path d="M19.381 22.372V1.72479H0.800786C0.0625005 1.72479 -0.306642 2.59025 0.247072 3.14662L19.381 22.372Z" fill="#00A3E0"/>
<path d="M29.5918 12.0482L19.3789 1.72461V22.3719L29.5918 12.0482Z" fill="#512D6D"/>
</g>
</g>
<defs>
<clipPath id="clip0_189_6234">
<rect width="184.571" height="34" fill="white" transform="translate(0 0.859375)"/>
</clipPath>
</defs>
</svg>
