<svg width="117" height="25" viewBox="0 0 117 25" fill="none" xmlns="http://www.w3.org/2000/svg">
<path d="M59.9151 11.7555H53.7571L48.6971 1.10952H55.0191L59.9151 11.7555ZM36.9391 11.7555H31.0841L35.3581 1.10952H42.0801L46.7851 11.7555H40.8701L38.8131 6.80552L36.9391 11.7555ZM17.3241 1.10952H23.1271V11.7565H17.3241V1.10952ZM0.310059 1.11052H6.11006V11.7575H0.310059V1.10952V1.11052ZM112.699 11.7565H99.9111C99.0431 10.7005 98.4911 9.34952 98.4911 7.53052C98.4911 3.48052 101.971 0.811523 107.371 0.811523C109.966 0.811523 112.315 1.35652 115.249 2.62352V7.18752C111.878 5.67852 109.861 5.09352 107.88 5.09352C105.793 5.09352 104.468 5.84952 104.468 7.01752C104.468 9.25352 109.211 9.67752 112.699 11.7565ZM68.4191 11.7565H62.3451L67.0041 1.10952H73.2501L68.4191 11.7555V11.7565ZM81.4171 11.7565H75.5511L79.8301 1.10952H86.5531L91.2591 11.7555H85.3461L83.2921 6.80552L81.4161 11.7555L81.4171 11.7565ZM74.4251 14.5775H80.3531L76.5861 24.5125H70.4381L74.4251 14.5775ZM86.5151 14.5775H92.5081L96.8981 24.5125H90.6461L86.5151 14.5775ZM55.0961 14.5775H67.1471L62.4921 24.8105H59.9701L55.0961 14.5765V14.5775ZM104.207 14.5775H115.567C116.037 15.4425 116.31 16.4745 116.31 17.7215C116.31 22.2065 112.555 24.8115 107.37 24.8115C103.306 24.8115 101.29 23.7515 98.9641 22.5565V17.5125C102.313 19.7425 104.357 20.5325 106.921 20.5325C109.138 20.5325 110.336 19.7425 110.336 18.3645C110.336 16.4045 107.236 15.8125 104.207 14.5775ZM17.3241 14.5775H23.1271V24.5105H17.3241V14.5755V14.5775ZM0.312059 14.5775H6.11406V24.5105H0.312059V14.5755V14.5775ZM29.9491 14.5775H35.8721L32.1101 24.5115H25.9601L29.9501 14.5765L29.9491 14.5775ZM42.0441 14.5775H48.0341L52.4241 24.5125H46.1771L42.0441 14.5775Z" fill="#E2001A"/>
</svg>
