<svg width="141" height="24" viewBox="0 0 141 24" fill="none" xmlns="http://www.w3.org/2000/svg">
<path d="M17.0631 3.86055C16.1111 2.90055 15.0721 2.16055 13.9461 1.63855C12.7969 1.14749 11.5597 0.895705 10.3101 0.898547C7.54006 0.898547 5.15806 1.98655 3.21006 4.12155C1.30606 6.29955 0.310059 9.04355 0.310059 12.3975C0.310059 15.6215 1.30606 18.3655 3.34006 20.5435C5.37506 22.7215 7.75606 23.8105 10.5261 23.8105C11.7391 23.8105 12.9071 23.5925 13.9461 23.1575C14.9861 22.7215 16.0681 21.9805 17.1061 20.9795V23.2875H22.5181V1.50755H17.1071L17.0631 3.86055ZM15.6781 17.0155C14.5521 18.1915 13.1681 18.8015 11.4781 18.8015C9.83406 18.8015 8.49206 18.1915 7.36606 16.9715C6.24106 15.7515 5.67806 14.1835 5.67806 12.3105C5.67806 10.4375 6.24106 8.91255 7.32306 7.69355C8.40506 6.51655 9.79106 5.90755 11.4361 5.90755C13.1241 5.90755 14.5521 6.51755 15.6351 7.64955C16.7601 8.82555 17.1071 10.1765 17.1071 12.0495C17.1071 14.0525 16.7601 15.7955 15.6781 17.0155ZM53.3841 3.85955C52.4311 2.90155 51.3921 2.16055 50.2671 1.63855C49.1176 1.14736 47.8801 0.895569 46.6301 0.898547C43.8601 0.898547 41.4791 1.98655 39.5301 4.12155C37.5831 6.25555 36.5871 9.04355 36.5871 12.3975C36.5871 15.6215 37.5831 18.3655 39.6171 20.5435C41.6521 22.7215 44.0331 23.8105 46.8041 23.8105C48.0161 23.8105 49.1841 23.5925 50.2241 23.1575C51.2621 22.7215 52.3441 21.9805 53.3841 20.9795V23.2875H58.7941V1.50755H53.4271L53.3841 3.85955ZM51.9551 17.0155C50.8291 18.1915 49.4451 18.8015 47.7551 18.8015C46.1111 18.8015 44.7691 18.1915 43.6431 16.9715C42.5181 15.7515 41.9551 14.1835 41.9551 12.3105C41.9551 10.4375 42.5181 8.91255 43.6001 7.69355C44.6821 6.51655 46.0681 5.90755 47.7131 5.90755C49.4011 5.90755 50.8291 6.51755 51.9121 7.64955C53.0371 8.82555 53.3841 10.1765 53.3841 12.0495C53.4271 14.0525 53.0811 15.7955 51.9551 17.0155ZM91.2191 2.03055C90.0501 1.29055 88.7101 0.940547 87.1931 0.940547C85.7747 0.936543 84.3771 1.28097 83.1231 1.94355C81.8681 2.59655 80.8291 3.59855 79.9631 4.90555C79.3141 3.59855 78.4491 2.64055 77.3661 1.94355C76.2704 1.27874 75.0116 0.93149 73.7301 0.940547C72.3881 0.940547 71.1761 1.20155 70.0501 1.72455C68.8729 2.26594 67.8251 3.05288 66.9771 4.03255V1.46355H61.5651V23.2435H66.9771V13.5735C66.9771 11.4835 67.1501 9.95855 67.5391 8.99955C67.8861 8.04155 68.4491 7.25755 69.1841 6.73455C69.9201 6.21255 70.7431 5.90755 71.6091 5.90755C72.4311 5.90755 73.0811 6.12455 73.6871 6.56055C74.2491 6.99655 74.6821 7.64955 74.9851 8.52055C75.2881 9.39155 75.4181 10.7855 75.4181 12.7465V23.2445H80.8291V13.4435C80.8291 11.3525 81.0031 9.87155 81.3491 8.91355C81.6951 7.95355 82.2591 7.25755 82.9941 6.69155C83.7301 6.16855 84.5521 5.90755 85.5041 5.90755C86.7171 5.90755 87.6261 6.34255 88.2321 7.21355C88.8381 8.08555 89.1421 9.74055 89.1421 12.2235V23.2435H94.5521V10.4805C94.5521 7.86755 94.2921 5.99455 93.7731 4.81855C93.2531 3.68555 92.3881 2.72755 91.2191 2.03055ZM113.34 16.8405C111.912 18.2785 110.18 19.0185 108.145 19.0185C106.457 19.0185 105.072 18.5395 103.99 17.6245C102.907 16.7105 102.258 15.4465 101.998 13.8785H119.314V12.8335C119.314 9.26155 118.275 6.34355 116.154 4.16455C114.033 1.98655 111.306 0.897547 107.929 0.897547C104.726 0.897547 102.085 1.98755 100.007 4.20755C97.8861 6.38655 96.8471 9.17455 96.8471 12.4845C96.8471 15.7085 97.8861 18.4085 100.007 20.5875C102.128 22.7655 104.855 23.8105 108.232 23.8105C110.397 23.8105 112.258 23.4185 113.86 22.6345C115.418 21.8505 116.804 20.6305 117.929 19.0185L113.34 16.8405ZM104.25 6.82155C105.375 5.99455 106.717 5.55855 108.189 5.55855C109.574 5.55855 110.786 5.95055 111.825 6.69155C112.865 7.43155 113.557 8.43355 113.946 9.60955H102.258C102.864 8.30255 103.514 7.34455 104.25 6.82155ZM132.128 11.7445L139.401 1.46455H133.254L129.054 7.38855L124.812 1.46355H118.578L125.938 11.7875L117.799 23.2445H123.946L129.011 16.1005L134.076 23.2445H140.31L132.128 11.7445ZM35.4621 0.810547C34.4661 0.810547 33.6001 0.984547 32.8641 1.37655C32.1281 1.72555 31.3061 2.42255 30.3971 3.38055V1.50755H25.2451V23.2875H30.6131V11.9625C30.6131 7.82355 31.7391 5.73255 34.5091 5.73255C34.9851 5.73255 35.4621 5.81955 35.9811 6.03755C36.8524 4.53708 37.883 3.13497 39.0551 1.85555C37.7991 1.15855 36.5871 0.810547 35.4621 0.810547Z" fill="#D0021B"/>
</svg>
