<svg width="107" height="41" viewBox="0 0 107 41" fill="none" xmlns="http://www.w3.org/2000/svg">
<g clip-path="url(#clip0_189_5424)">
<mask id="mask0_189_5424" style="mask-type:luminance" maskUnits="userSpaceOnUse" x="0" y="1" width="107" height="40">
<path d="M0.744629 1.13867H106.443V40.5369H0.744629V1.13867Z" fill="#0494A4"/>
</mask>
<g mask="url(#mask0_189_5424)">
<path fill-rule="evenodd" clip-rule="evenodd" d="M68.1573 15.4749C68.0587 15.4831 67.9381 15.5067 67.8943 15.5275C67.845 15.5483 67.7135 15.59 67.6039 15.6196C67.4943 15.6492 67.3519 15.7105 67.2916 15.7566C67.2258 15.802 67.1601 15.8398 67.1491 15.8398C67.1162 15.8398 66.8587 16.1045 66.8587 16.1363C66.8587 16.1505 66.8039 16.2267 66.7437 16.3061C66.6834 16.3856 66.6341 16.4776 66.6341 16.51C66.6341 16.5423 66.6067 16.608 66.5738 16.6563C66.5026 16.762 66.3711 17.2721 66.3711 17.4529C66.3711 17.5253 66.3546 17.6036 66.3327 17.6266C66.2998 17.6595 66.1957 18.4967 66.1957 18.7367C66.1957 18.7806 66.8587 18.7915 69.3682 18.7915H72.5407V18.2962C72.5407 17.7302 72.4476 17.0234 72.3435 16.8299C72.3051 16.7582 72.2777 16.6804 72.2777 16.6574C72.2722 16.2267 71.2147 15.5752 70.5134 15.5752C70.4202 15.5752 70.3381 15.5582 70.3326 15.5379C70.3161 15.5001 68.4861 15.4475 68.1573 15.4749ZM21.8903 15.4431C21.9057 15.4673 21.9873 15.487 22.0717 15.487C22.2909 15.487 22.8377 15.5818 22.8377 15.6201C22.8377 15.6377 22.9259 15.6766 23.0333 15.7067C23.1407 15.7368 23.2393 15.7889 23.2519 15.8223C23.2651 15.8563 23.3034 15.8837 23.3368 15.8837C23.4936 15.8837 23.8541 16.3911 24.0886 16.9423C24.1812 17.1609 24.2475 17.7521 24.2475 18.3609V18.8803H21.0975H17.9469V18.3713C17.9469 17.7433 18.0187 17.0705 18.103 16.9089C18.1381 16.842 18.1666 16.7631 18.1672 16.7341C18.1677 16.5582 18.5748 15.9823 18.7693 15.8826C18.8378 15.847 18.909 15.7944 18.9277 15.7659C18.9458 15.7379 19.0252 15.7007 19.1036 15.6831C19.1825 15.6662 19.2581 15.6349 19.2718 15.6136C19.2849 15.5916 19.4635 15.5511 19.6685 15.5231C19.8728 15.4946 20.0586 15.4552 20.0816 15.4355C20.143 15.3823 21.8574 15.3894 21.8903 15.4431ZM39.9895 11.6438C39.5906 11.6509 39.3172 11.6734 39.3172 11.6986C39.3172 11.7227 39.2328 11.7419 39.1298 11.7419C38.8426 11.7419 37.995 11.8405 37.995 11.8739C37.995 11.8904 37.8514 11.9293 37.6761 11.9605C37.5002 11.9912 37.3364 12.0323 37.3117 12.052C37.2871 12.0717 37.1682 12.1117 37.0471 12.1408C36.9265 12.1698 36.7879 12.2169 36.7397 12.2454C36.6909 12.2739 36.5671 12.3243 36.4641 12.3572C36.3611 12.3901 36.2767 12.4334 36.2767 12.4537C36.2767 12.4745 36.2559 12.4909 36.2296 12.4909C36.2038 12.4909 36.0959 12.5506 35.9907 12.623C35.8849 12.6958 35.7841 12.7556 35.7671 12.7556C35.7299 12.7556 35.6378 12.8383 35.3156 13.1605C34.9721 13.504 34.9107 13.5747 34.9107 13.6279C34.9107 13.6542 34.8746 13.7013 34.8296 13.7331C34.7847 13.7648 34.7239 13.8651 34.6943 13.9561C34.6642 14.047 34.6247 14.1215 34.6061 14.1215C34.588 14.1215 34.5463 14.2004 34.514 14.2974C34.4822 14.3944 34.4411 14.4739 34.4225 14.4739C34.4044 14.4739 34.3535 14.6125 34.3096 14.7823C34.2664 14.9517 34.217 15.0903 34.2006 15.0903C34.1842 15.0903 34.1469 15.264 34.1173 15.476C34.0877 15.6881 34.0406 15.8897 34.0138 15.9237C33.9447 16.0086 33.9431 18.928 34.0116 19.0167C34.0379 19.0502 34.085 19.2271 34.1157 19.409C34.1469 19.5904 34.188 19.7597 34.2083 19.7844C34.228 19.809 34.2779 19.9279 34.3184 20.0485C34.359 20.1696 34.4061 20.2781 34.4225 20.2901C34.4395 20.3022 34.479 20.375 34.5096 20.4523C34.5409 20.529 34.6044 20.626 34.6505 20.6682C34.697 20.7098 34.7348 20.763 34.7348 20.7865C34.7348 20.8358 35.3326 21.4347 35.3836 21.4369C35.4022 21.4375 35.4954 21.4972 35.5907 21.569C35.686 21.6408 35.7901 21.6999 35.8219 21.6999C35.8542 21.6999 35.88 21.7164 35.88 21.7366C35.88 21.7575 35.9595 21.8002 36.0564 21.832C36.1534 21.8643 36.2329 21.9032 36.2329 21.9191C36.2329 21.935 36.3468 21.9838 36.486 22.0276C36.6257 22.0709 36.7594 22.1218 36.7835 22.141C36.8076 22.1596 36.9463 22.1991 37.092 22.2292C37.2372 22.2588 37.3665 22.2961 37.3786 22.3125C37.4043 22.3476 38.2728 22.4955 38.4432 22.4939C38.5079 22.4933 38.5676 22.512 38.5753 22.5344C38.5835 22.5574 38.927 22.5985 39.3391 22.6265C39.7511 22.6544 40.1237 22.6961 40.167 22.7185C40.2108 22.7415 41.2289 22.7772 42.4381 22.7969C43.82 22.8199 44.6627 22.8506 44.717 22.8802C44.7641 22.9054 44.946 22.9492 45.1213 22.9777C45.2994 23.0067 45.4868 23.0665 45.5471 23.1136C45.6057 23.1602 45.6704 23.1985 45.6912 23.1985C45.7356 23.1996 45.9087 23.4527 46.0495 23.7229C46.2775 24.1596 46.2808 25.5486 46.0545 25.9146C45.7964 26.3321 45.2846 26.5907 44.7153 26.5907C44.6331 26.5907 44.5537 26.6105 44.5383 26.6351C44.5038 26.6915 41.5056 26.6948 41.3987 26.6389C41.3565 26.6165 41.185 26.5759 41.0174 26.548C40.3171 26.4324 39.7944 25.9053 39.7265 25.2472C39.7128 25.1135 39.6843 25.0045 39.6634 25.0045C39.6426 25.0045 39.6256 24.925 39.6256 24.8286V24.6522H36.777H33.9277L33.954 25.3606C33.9688 25.7502 33.9984 26.0927 34.0203 26.1206C34.0417 26.1491 34.085 26.3211 34.1157 26.5031C34.1469 26.6844 34.188 26.8532 34.2077 26.8778C34.2275 26.9025 34.268 27.0203 34.2981 27.1398C34.4987 27.937 35.377 29.0257 36.1293 29.4109C36.2953 29.4958 36.4378 29.5802 36.446 29.5983C36.4537 29.6164 36.4794 29.6312 36.5024 29.6312C36.526 29.6312 36.6685 29.6893 36.8191 29.7594C36.9698 29.8301 37.1676 29.9019 37.258 29.9183C37.3484 29.9358 37.4224 29.9649 37.4224 29.9835C37.4224 30.0021 37.5567 30.0427 37.7199 30.0728C37.8832 30.1029 38.0383 30.144 38.064 30.1643C38.0892 30.184 38.3572 30.2328 38.6591 30.2723C38.9604 30.3117 39.2415 30.3621 39.2837 30.384C39.3802 30.435 44.4151 30.4383 44.4463 30.3873C44.4589 30.367 44.7422 30.3375 45.0764 30.3221C45.8167 30.2881 46.5783 30.2131 46.6977 30.1616C46.7459 30.1408 46.9443 30.0986 47.1383 30.069C47.3322 30.0394 47.5109 29.9994 47.535 29.9813C47.5591 29.9627 47.7026 29.9238 47.8544 29.8942C48.0056 29.864 48.1295 29.8268 48.1295 29.8104C48.1295 29.7939 48.2681 29.7441 48.438 29.7002C48.6078 29.6564 48.7464 29.6065 48.7464 29.589C48.7464 29.5715 48.8308 29.5309 48.9338 29.4986C49.0368 29.4663 49.1409 29.4186 49.1651 29.3917C49.1897 29.3654 49.2587 29.3194 49.319 29.2898C49.4845 29.2082 49.6779 29.092 49.833 28.9813C49.9091 28.9271 49.9826 28.8822 49.9952 28.8822C50.0384 28.8822 50.8384 28.0515 50.9792 27.8603C51.1968 27.5644 51.5529 26.8285 51.6335 26.5069C51.6735 26.3475 51.7239 26.1825 51.7452 26.1414C51.7666 26.1003 51.8066 25.8828 51.8335 25.6571C51.8609 25.4313 51.9008 25.2127 51.9228 25.1705C51.9737 25.0735 51.9765 23.0977 51.9255 23.0418C51.9047 23.0188 51.8641 22.8029 51.8356 22.5618C51.8077 22.3213 51.7683 22.1032 51.7491 22.0775C51.7299 22.0517 51.6768 21.8769 51.6313 21.689C51.5858 21.501 51.5365 21.3476 51.5206 21.3476C51.5052 21.3476 51.4663 21.2682 51.434 21.1712C51.4022 21.0742 51.3595 20.9953 51.3392 20.9953C51.319 20.9953 51.302 20.9745 51.302 20.9498C51.302 20.6068 50.1458 19.6337 49.5179 19.4479C49.4089 19.4162 49.319 19.3762 49.319 19.3592C49.319 19.3427 49.1656 19.2956 48.9782 19.254C48.7897 19.2129 48.6166 19.163 48.5925 19.1433C48.5684 19.1241 48.3799 19.0852 48.1739 19.0573C47.9678 19.0293 47.7596 18.9888 47.7108 18.968C47.6117 18.9252 46.7602 18.8359 46.4534 18.8359C46.3427 18.8359 46.2336 18.8178 46.2106 18.7954C46.1712 18.7576 44.7657 18.6951 42.6053 18.6359C42.0749 18.6211 41.6091 18.5932 41.5697 18.5729C41.5302 18.5526 41.3204 18.5132 41.1028 18.4852C40.8859 18.4573 40.6875 18.4189 40.6623 18.4003C40.6377 18.3817 40.5248 18.3324 40.4125 18.2907C40.0985 18.1751 39.773 17.8091 39.7374 17.5313C39.7221 17.4129 39.6903 17.2814 39.6673 17.2393C39.6119 17.1373 39.6136 16.3812 39.6695 16.3461C39.6941 16.3313 39.7138 16.2502 39.7138 16.1659C39.7138 15.5872 40.2716 15.2667 41.2809 15.2667C41.4124 15.2667 41.5204 15.247 41.5204 15.2229C41.5204 15.1944 41.9604 15.179 42.7516 15.179C43.5247 15.179 43.9926 15.1949 44.0096 15.2229C44.0249 15.247 44.1104 15.2673 44.1997 15.2678C44.4496 15.2689 44.8425 15.3741 44.9909 15.4799C45.0649 15.5325 45.1367 15.5752 45.1509 15.5752C45.2227 15.5752 45.6156 16.0705 45.6172 16.1631C45.6178 16.1839 45.6463 16.2634 45.6802 16.3396C45.7142 16.4163 45.7542 16.533 45.769 16.5998L45.7958 16.7209H48.5492H51.302V16.3796C51.3014 15.9198 51.2231 15.0623 51.1732 14.9686C51.1507 14.9264 51.0992 14.7637 51.0581 14.6059C51.017 14.4481 50.971 14.3095 50.9557 14.2974C50.9403 14.2854 50.8581 14.1402 50.7732 13.9742C50.6132 13.6618 49.9042 12.8876 49.7782 12.8876C49.7437 12.8876 49.7157 12.8679 49.7157 12.8443C49.7157 12.8202 49.6516 12.7698 49.5727 12.7315C49.4938 12.6936 49.3004 12.5945 49.1431 12.5117C48.9859 12.4284 48.7925 12.3479 48.7136 12.3326C48.6347 12.3172 48.57 12.2915 48.57 12.2745C48.57 12.2575 48.4166 12.2071 48.2286 12.1616C48.0413 12.1161 47.8676 12.0652 47.8434 12.0476C47.8188 12.0307 47.6204 11.9934 47.4024 11.9644C47.1843 11.9359 46.9662 11.8948 46.918 11.8734C46.7953 11.8186 45.7021 11.7419 45.0408 11.7419C44.7378 11.7419 44.471 11.7244 44.4479 11.703C44.4058 11.6635 41.2245 11.6214 39.9895 11.6438ZM20.3523 11.4712C20.3397 11.4915 19.9172 11.52 19.4137 11.5342C18.4526 11.5616 17.5891 11.6329 17.4401 11.6981C17.3918 11.7194 17.2033 11.76 17.0214 11.7885C16.8395 11.817 16.6713 11.8553 16.6472 11.8734C16.6225 11.8915 16.5234 11.9205 16.4269 11.9381C16.33 11.955 16.1908 11.9956 16.1185 12.0279C16.0456 12.0602 15.8861 12.1183 15.7639 12.1572C15.313 12.3002 14.5815 12.7145 14.2615 13.0087C14.2018 13.0635 14.1388 13.1079 14.1207 13.1079C14.0692 13.1079 13.6725 13.5238 13.6725 13.578C13.6725 13.6043 13.6232 13.6591 13.5624 13.6985C13.5021 13.738 13.4528 13.8005 13.4528 13.8372C13.4528 13.8739 13.4226 13.915 13.3865 13.9292C13.3498 13.9429 13.3202 13.9742 13.3202 13.9977C13.3202 14.0218 13.2758 14.104 13.221 14.1807C13.0709 14.3911 12.769 15.0097 12.7049 15.2399C12.6736 15.3516 12.6331 15.4431 12.615 15.4431C12.5975 15.4431 12.5586 15.567 12.5284 15.7182C12.4988 15.87 12.4583 16.0037 12.438 16.0163C12.4183 16.0289 12.3662 16.2864 12.323 16.5894C12.2797 16.8919 12.2298 17.1499 12.2117 17.1625C12.1936 17.1751 12.1564 17.4924 12.1284 17.8677C12.0999 18.2425 12.0545 18.597 12.0265 18.6551C11.9509 18.814 11.9558 23.1728 12.0315 23.2489C12.0616 23.2791 12.0868 23.393 12.0868 23.5021C12.0868 23.8418 12.1854 24.6965 12.2249 24.6965C12.2457 24.6965 12.2627 24.7508 12.2627 24.8176C12.2627 24.9798 12.3975 25.7201 12.4375 25.776C12.455 25.8001 12.4956 25.919 12.5273 26.0401C12.5591 26.1612 12.5997 26.2801 12.6177 26.3047C12.6358 26.3288 12.6747 26.4379 12.7038 26.5469C12.7328 26.6559 12.7695 26.7551 12.7854 26.7672C12.8013 26.7792 12.8407 26.8685 12.8731 26.9655C12.906 27.0625 12.9799 27.2154 13.038 27.3058C13.0966 27.3962 13.1443 27.4904 13.1443 27.5151C13.1443 27.5397 13.164 27.5606 13.1881 27.5606C13.2122 27.5606 13.2325 27.5852 13.2325 27.6154C13.2331 27.6734 13.4561 27.9764 13.6621 28.1994C13.7295 28.2718 13.8193 28.3857 13.8621 28.4526C13.9043 28.5194 13.9635 28.5737 13.9936 28.5737C14.0232 28.5737 14.1081 28.6383 14.1821 28.7167C14.3366 28.8822 14.6999 29.1468 14.7716 29.1468C14.799 29.1468 14.8314 29.1731 14.844 29.206C14.8566 29.2389 14.9453 29.292 15.0407 29.3238C15.1366 29.355 15.2149 29.3945 15.2149 29.4109C15.2149 29.4268 15.2944 29.4668 15.3913 29.4991C15.4883 29.5309 15.5678 29.5698 15.5678 29.5862C15.5678 29.6021 15.6818 29.6509 15.8209 29.6942C15.9601 29.7375 16.0938 29.7884 16.1185 29.8076C16.1426 29.8262 16.2763 29.8651 16.4149 29.8936C16.5541 29.9221 16.6779 29.9621 16.6899 29.9819C16.7025 30.0021 16.8861 30.0438 17.0981 30.075C17.3107 30.1057 17.4943 30.1446 17.5063 30.161C17.5365 30.2021 18.3397 30.2876 19.017 30.3216C19.3271 30.3375 19.5907 30.3665 19.6033 30.3873C19.6334 30.4355 22.3407 30.4361 22.3708 30.3873C22.3835 30.367 22.687 30.338 23.0453 30.3227C23.8092 30.2909 24.5856 30.2153 24.7105 30.1616C24.7587 30.1402 24.9571 30.0997 25.151 30.0712C25.345 30.0421 25.5236 30.0038 25.5477 29.9857C25.5718 29.9676 25.7154 29.9271 25.8672 29.8964C26.0184 29.8651 26.1428 29.8262 26.1428 29.8098C26.1428 29.7939 26.2814 29.7441 26.4507 29.7002C26.6206 29.6564 26.7592 29.6065 26.7592 29.589C26.7592 29.5715 26.8386 29.5309 26.9356 29.4991C27.0326 29.4668 27.1115 29.4268 27.1115 29.4109C27.1115 29.3939 27.186 29.3474 27.277 29.3068C27.6331 29.1485 27.8567 28.9802 28.3044 28.5326C28.7361 28.1008 28.8764 27.9178 29.0819 27.5162C29.1252 27.4318 29.1734 27.3518 29.1893 27.3403C29.2046 27.3277 29.2402 27.2345 29.2676 27.1326C29.295 27.0307 29.3345 26.9365 29.3558 26.9233C29.3766 26.9102 29.4172 26.7957 29.4457 26.6685C29.4742 26.5403 29.5158 26.3973 29.5377 26.3485C29.598 26.217 29.7114 25.5086 29.7114 25.2631C29.7114 25.1453 29.7317 25.0489 29.7553 25.0489C29.7821 25.0489 29.7997 24.8796 29.7997 24.6302V24.2116H26.9137H24.0278V24.4686C24.0278 24.7563 23.945 25.2253 23.8941 25.2253C23.876 25.2253 23.8475 25.2954 23.8316 25.3815C23.8157 25.4675 23.7735 25.5486 23.7385 25.5623C23.704 25.576 23.6749 25.6105 23.6749 25.6395C23.6749 25.7064 23.4015 25.9743 23.3336 25.9743C23.3056 25.9743 23.2667 26.0001 23.2475 26.0318C23.2278 26.0636 23.1429 26.1151 23.058 26.1469C22.973 26.1787 22.8443 26.2302 22.7719 26.2609C22.6991 26.2921 22.5106 26.3316 22.3528 26.3491C22.1955 26.3666 22.0415 26.4006 22.0109 26.4258C21.932 26.4894 19.7835 26.4937 19.7035 26.4302C19.6701 26.4039 19.5342 26.3683 19.4011 26.3518C18.9671 26.2965 18.0351 25.7135 18.0351 25.4971C18.0351 25.4751 17.9989 25.4099 17.9551 25.3519C17.8691 25.239 17.7266 24.8264 17.7266 24.6911C17.7266 24.6456 17.7102 24.6078 17.6905 24.6078C17.6439 24.6078 17.5502 23.907 17.5502 23.5569C17.5502 23.4012 17.531 23.2862 17.5053 23.2862C17.4757 23.2862 17.4647 23.0084 17.4724 22.4824L17.4844 21.678L23.5319 21.6671L29.5794 21.6555V20.4244C29.5794 19.6518 29.5629 19.1833 29.535 19.1663C29.5109 19.1515 29.4912 19.0025 29.4912 18.8359C29.4912 18.4036 29.4068 17.4201 29.3613 17.316C29.3394 17.2672 29.2988 17.0393 29.2698 16.8091C29.2408 16.5785 29.2024 16.3708 29.1838 16.3461C29.1651 16.322 29.1257 16.1637 29.095 15.9938C29.0649 15.824 29.0139 15.6256 28.9827 15.5533C28.9515 15.4804 28.9115 15.3714 28.8945 15.3111C28.8068 14.9977 28.4183 14.218 28.2249 13.967C28.2057 13.9429 28.1531 13.8635 28.1071 13.7906C27.986 13.5999 27.3269 12.9314 27.26 12.9314C27.2288 12.9314 27.1817 12.892 27.1559 12.8432C27.1301 12.795 27.088 12.7556 27.0633 12.7556C27.0381 12.7556 26.9312 12.6958 26.8255 12.623C26.7197 12.5506 26.6118 12.4909 26.5861 12.4909C26.5603 12.4909 26.5389 12.4745 26.5389 12.4537C26.5389 12.4334 26.4546 12.389 26.3515 12.355C26.2491 12.3216 26.0962 12.2586 26.0129 12.2164C25.9291 12.1737 25.7954 12.1271 25.7154 12.1117C25.6354 12.097 25.5697 12.069 25.5697 12.0504C25.5697 12.0317 25.4409 11.9917 25.2831 11.9622C25.1258 11.9326 24.9965 11.8942 24.9965 11.8778C24.9965 11.8608 24.8146 11.8208 24.5921 11.7896C24.3691 11.7583 24.156 11.7156 24.1182 11.6953C23.9998 11.6312 23.1204 11.5622 22.0761 11.5348C21.5238 11.52 21.0619 11.4909 21.0492 11.4707C21.0191 11.4219 20.3824 11.4219 20.3523 11.4712ZM96.6347 13.5375L96.6238 15.7297L94.5197 15.7407L92.4157 15.7527L92.4047 23.0111L92.3938 30.2701H89.4405H86.4871L86.4762 23.0111L86.4652 15.7527L84.3612 15.7407L82.2571 15.7297L82.2462 13.5813L82.2352 11.4334H82.1256C82.0654 11.4334 82.016 11.4137 82.016 11.389C82.016 11.36 84.4817 11.3452 89.3309 11.3452H96.6457L96.6347 13.5375ZM71.4794 11.44C71.4849 11.4608 71.6054 11.4772 71.7424 11.4772C72.0931 11.4772 72.9424 11.5638 73.0465 11.6098C73.0958 11.6312 73.2876 11.6718 73.4684 11.7003C73.6492 11.7287 73.819 11.7666 73.841 11.7846C73.8684 11.8027 74.0163 11.8416 74.1697 11.8718C74.4492 11.9238 74.5642 11.9638 74.9423 12.1359C75.0409 12.1802 75.1889 12.2422 75.2711 12.2739C75.3587 12.3057 75.4409 12.3485 75.4519 12.3693C75.4683 12.3901 75.5395 12.4405 75.6162 12.4821C75.6875 12.5232 75.8354 12.6043 75.9395 12.6624C76.1751 12.7917 77.0244 13.6383 77.1559 13.8788C77.2107 13.9758 77.2874 14.1194 77.3203 14.1983C77.3587 14.2772 77.4025 14.3418 77.4244 14.3418C77.4408 14.3418 77.4847 14.4158 77.5176 14.5067C77.5504 14.5977 77.5888 14.6821 77.6052 14.6941C77.6436 14.721 77.786 15.1659 77.786 15.2497C77.786 15.2837 77.8025 15.3111 77.8244 15.3111C77.8408 15.3111 77.8847 15.4196 77.9121 15.5522C77.9449 15.6853 77.9833 15.8042 78.0052 15.8157C78.0216 15.8283 78.06 16.002 78.0929 16.2026C78.1203 16.4031 78.1641 16.6064 78.186 16.6546C78.2353 16.7697 78.3559 17.7707 78.3559 18.0929C78.3559 18.2326 78.3778 18.351 78.4052 18.3598C78.4381 18.3702 78.46 18.9192 78.4764 20.0594L78.5038 21.7443H72.4602H66.4165V22.4183C66.4165 23.158 66.4933 24.2637 66.548 24.2993C66.5645 24.3119 66.6028 24.4505 66.6357 24.6078C66.6631 24.7656 66.7069 24.9146 66.7234 24.9387C66.7453 24.9628 66.7837 25.0615 66.8165 25.1579C66.8823 25.3623 67.5508 26.062 67.6823 26.062C67.7261 26.062 67.8028 26.091 67.8521 26.1255C67.9069 26.1612 68.0822 26.2143 68.2521 26.2444C68.4165 26.2746 68.5699 26.3184 68.5809 26.342C68.6247 26.4006 70.5863 26.3962 70.6575 26.3376C70.6904 26.3135 70.8328 26.2795 70.9753 26.262C71.2109 26.2351 71.4958 26.137 71.704 26.0127C71.7424 25.9907 71.8191 25.9497 71.8794 25.9206C72.0876 25.8198 72.4492 25.3853 72.5205 25.148C72.5369 25.0932 72.5643 25.0489 72.5807 25.0489C72.6026 25.0489 72.641 24.9245 72.6739 24.7733C72.7067 24.622 72.7451 24.479 72.767 24.456C72.7889 24.433 72.8054 24.3486 72.8054 24.2686V24.1234H75.6546H78.5038L78.4764 24.8396C78.46 25.2439 78.4271 25.5617 78.3997 25.5699C78.3778 25.5782 78.3559 25.6423 78.3559 25.7124C78.3559 25.8746 78.2244 26.5617 78.186 26.5907C78.1696 26.6028 78.1312 26.6921 78.1038 26.7891C78.06 26.9436 77.9943 27.0767 77.7093 27.6154C77.6765 27.6817 77.6271 27.7364 77.6052 27.7364C77.5833 27.7364 77.5669 27.7627 77.5669 27.7945C77.5669 27.8811 76.9915 28.4849 76.7011 28.7085C76.5587 28.8159 76.4327 28.9139 76.4217 28.926C76.334 29.0126 75.282 29.5276 75.0628 29.5912C74.9642 29.6208 74.8765 29.658 74.8765 29.6739C74.8765 29.6898 74.6957 29.7391 74.4711 29.7835C74.2464 29.8279 74.0437 29.8794 74.0163 29.8969C73.9944 29.9145 73.7971 29.9534 73.578 29.9829C73.3588 30.012 73.1396 30.0531 73.0903 30.0739C72.9862 30.1194 71.9506 30.2043 71.5013 30.2043C71.326 30.2043 71.1671 30.224 71.1561 30.2481C71.1342 30.2761 70.5644 30.292 69.589 30.292C68.5918 30.292 68.0494 30.2766 68.0494 30.2481C68.0494 30.2235 67.9233 30.2043 67.7644 30.2043C67.3425 30.2043 66.3618 30.1188 66.2631 30.0728C66.2138 30.0514 65.9946 30.0098 65.7809 29.9813C65.5618 29.9528 65.3645 29.9139 65.3371 29.8953C65.3152 29.8766 65.1344 29.8262 64.9481 29.7846C64.7563 29.7424 64.5481 29.681 64.4824 29.6476C64.4221 29.6147 64.3509 29.5873 64.3289 29.5873C64.307 29.5873 64.0879 29.4882 63.8358 29.3665C63.5838 29.2454 63.3591 29.1468 63.3317 29.1468C63.3098 29.1468 63.2879 29.126 63.2879 29.1013C63.2879 29.0767 63.2386 29.0372 63.1783 29.0142C63.118 28.9912 63.0687 28.9523 63.0687 28.9276C63.0687 28.9024 63.0468 28.8822 63.0194 28.8822C62.9208 28.8822 62.0112 28.0482 62.0112 27.9595C62.0112 27.9414 61.9729 27.8921 61.9235 27.8493C61.8797 27.8071 61.8085 27.7047 61.7701 27.6225C61.7318 27.5397 61.6825 27.4723 61.666 27.4723C61.6441 27.4723 61.6003 27.3929 61.5729 27.2959C61.54 27.1989 61.5016 27.1195 61.4852 27.1195C61.4688 27.1195 61.4304 27.0455 61.3975 26.9546C61.3647 26.8636 61.3263 26.7792 61.3099 26.7672C61.2715 26.7398 61.129 26.2954 61.129 26.2116C61.129 26.1781 61.1126 26.1502 61.0907 26.1502C61.0688 26.1502 61.0249 26.0165 60.9975 25.8532C60.9647 25.6894 60.9263 25.536 60.9099 25.5113C60.888 25.4872 60.8496 25.3184 60.8222 25.1365C60.7948 24.9552 60.7565 24.7667 60.7345 24.7185C60.6797 24.5913 60.603 23.7711 60.5702 22.9651C60.5537 22.5826 60.5263 22.2588 60.5044 22.2468C60.4551 22.2166 60.4551 19.3647 60.5044 19.3647C60.5263 19.3647 60.5537 19.0326 60.5702 18.6266C60.603 17.7921 60.6743 17.0064 60.7345 16.8749C60.751 16.8267 60.7948 16.6201 60.8222 16.4157C60.8551 16.2119 60.9044 15.9938 60.9373 15.9313C60.9701 15.8689 60.9975 15.7681 60.9975 15.7078C60.9975 15.647 61.0249 15.5412 61.0633 15.4727C61.1017 15.4037 61.151 15.2651 61.1784 15.1642C61.3482 14.5177 62.3783 12.9753 62.6413 12.9753C62.6578 12.9753 62.7345 12.9161 62.8057 12.8432C62.8769 12.7704 62.9482 12.7112 62.9646 12.7112C62.981 12.7112 63.0578 12.6652 63.129 12.6093C63.3153 12.4717 64.0824 12.1013 64.2522 12.0668C64.3289 12.052 64.3892 12.0257 64.3892 12.0087C64.3892 11.9753 64.707 11.8904 64.9974 11.8471C65.1015 11.8312 65.1837 11.8038 65.1837 11.7846C65.1837 11.766 65.359 11.7282 65.5673 11.7003C65.7809 11.6729 65.9892 11.6307 66.033 11.6071C66.0714 11.5841 66.4111 11.5435 66.7782 11.5167C67.1508 11.4904 67.4905 11.4504 67.5398 11.429C67.7151 11.3496 71.4465 11.36 71.4794 11.44ZM55.8744 21.0506L55.8854 37.4315L35.5803 37.4194C20.8043 37.4112 15.2577 37.3953 15.2122 37.3591C15.1782 37.3328 14.9634 37.2857 14.7344 37.255C14.5054 37.2249 14.2873 37.1833 14.2495 37.163C14.2117 37.1427 14.0128 37.0934 13.8067 37.0545C13.6007 37.015 13.4128 36.9663 13.3881 36.946C13.364 36.9263 13.2199 36.8857 13.0687 36.8561C12.9169 36.826 12.7931 36.7877 12.7931 36.7696C12.7931 36.7515 12.6742 36.712 12.529 36.6814C12.3832 36.6501 12.2643 36.6123 12.2643 36.5964C12.2643 36.5811 12.1701 36.5416 12.055 36.5093C11.94 36.4764 11.8063 36.4266 11.7575 36.3981C11.7093 36.3696 11.5854 36.3192 11.4824 36.2863C11.3794 36.2534 11.295 36.214 11.295 36.1992C11.295 36.1838 11.2057 36.1455 11.0967 36.1126C10.9877 36.0808 10.8983 36.037 10.8983 36.0156C10.8983 35.9937 10.8753 35.9762 10.8474 35.9762C10.7948 35.9762 10.1449 35.6655 10.1055 35.6211C10.0934 35.608 10.014 35.5691 9.92906 35.5356C9.84413 35.5022 9.7592 35.4485 9.73948 35.4167C9.7203 35.3855 9.6803 35.3592 9.65126 35.3587C9.60304 35.3576 9.27319 35.1565 9.14881 35.0518C9.11977 35.0272 9.08251 35.0069 9.06717 35.0069C9.05128 35.0069 8.96361 34.9477 8.87156 34.8748C8.77951 34.802 8.6891 34.7428 8.67047 34.7428C8.65184 34.7428 8.60527 34.7132 8.56691 34.677C8.52856 34.6409 8.36637 34.5039 8.20693 34.3718C7.8568 34.0831 7.02066 33.2091 7.02066 33.1324C7.02066 33.1023 6.99107 33.0661 6.95436 33.0519C6.91765 33.0376 6.86834 32.9763 6.84533 32.9149C6.82177 32.8541 6.78615 32.8037 6.76588 32.8037C6.7456 32.8037 6.70177 32.7346 6.66835 32.6497C6.63492 32.5648 6.59109 32.4952 6.57081 32.4952C6.55109 32.4952 6.51493 32.4453 6.49191 32.3851C6.4689 32.3248 6.43383 32.2749 6.41411 32.2749C6.39383 32.2749 6.3511 32.2004 6.31767 32.1095C6.28534 32.019 6.23439 31.9248 6.20589 31.9007C6.17702 31.876 6.1265 31.7867 6.09401 31.7023C6.06119 31.6174 6.02343 31.538 6.0099 31.5259C5.9642 31.4848 5.6189 30.7561 5.54011 30.5347C5.49731 30.4136 5.43754 30.2744 5.4074 30.2262C5.37754 30.1775 5.33946 30.0635 5.3228 29.9725C5.30642 29.8816 5.27683 29.8076 5.25749 29.8076C5.23793 29.8076 5.20938 29.7314 5.19354 29.6383C5.17793 29.5452 5.13776 29.4169 5.10472 29.3528C5.07168 29.2893 5.01032 29.0926 4.96856 28.9161C4.92676 28.7397 4.87788 28.5759 4.8604 28.5518C4.84271 28.5271 4.80276 28.3638 4.77186 28.1879C4.7409 28.0126 4.70287 27.869 4.68699 27.869C4.67137 27.869 4.63279 27.6855 4.60134 27.4614C4.56989 27.2367 4.52781 27.0335 4.50803 27.0088C4.4882 26.9847 4.43872 26.6576 4.39801 26.2822C4.35757 25.9064 4.3076 25.5595 4.28755 25.5113C4.24683 25.4143 4.15692 24.33 4.15692 23.9382C4.15692 23.7799 4.13708 23.6834 4.10218 23.6719C4.0218 23.6451 4.02158 18.557 4.10191 18.477C4.13363 18.4447 4.15692 18.3099 4.15692 18.1565C4.15692 17.7494 4.24629 16.6656 4.28777 16.5669C4.30842 16.5182 4.35943 16.1713 4.40173 15.7955C4.44376 15.4201 4.49159 15.1029 4.50803 15.0903C4.52469 15.0788 4.56326 14.8947 4.59444 14.6826C4.6254 14.4706 4.66556 14.2881 4.68381 14.2766C4.70205 14.2656 4.74227 14.1067 4.77345 13.9243C4.8049 13.7418 4.84353 13.5928 4.85964 13.5928C4.87602 13.5928 4.92544 13.4142 4.96961 13.1961C5.01404 12.978 5.06451 12.7994 5.08221 12.7994C5.09996 12.7994 5.13963 12.6805 5.17026 12.5353C5.20121 12.3895 5.23875 12.2706 5.25382 12.2706C5.26888 12.2706 5.30642 12.1863 5.33738 12.0833C5.39365 11.8959 5.43123 11.8038 5.6012 11.4334C5.65117 11.3244 5.71753 11.1611 5.74848 11.0701C5.77966 10.9792 5.81774 10.9047 5.83309 10.9047C5.84865 10.9047 5.88749 10.8252 5.91949 10.7282C5.95149 10.6318 5.9893 10.5518 6.0036 10.5518C6.01785 10.5512 6.06864 10.4625 6.11647 10.3534C6.16431 10.2444 6.21904 10.1556 6.23767 10.1556C6.25685 10.1556 6.27165 10.1293 6.27165 10.097C6.27165 10.0652 6.33082 9.96113 6.4026 9.86579C6.47493 9.771 6.53465 9.66799 6.5352 9.63785C6.53575 9.60772 6.55492 9.58306 6.57849 9.58306C6.6015 9.58306 6.65246 9.51512 6.69136 9.43238C6.73081 9.34964 6.80094 9.24773 6.84752 9.20554C6.89464 9.16335 6.93299 9.11184 6.93299 9.09157C6.93299 9.07075 6.96258 9.01924 6.99929 8.97705C7.03601 8.93432 7.18175 8.76117 7.32257 8.59131C7.60037 8.25817 8.63595 7.24779 8.70006 7.24779C8.72143 7.24779 8.77403 7.21656 8.81677 7.17876C8.97841 7.03465 9.34059 6.76945 9.49346 6.68398C9.83263 6.49385 9.86386 6.47576 9.88523 6.45385C9.89728 6.44125 9.98659 6.39193 10.0836 6.34366C10.18 6.29555 10.2693 6.24503 10.2819 6.23155C10.3247 6.18317 11.2315 5.7536 11.3498 5.72505C11.4167 5.70889 11.4715 5.67957 11.4715 5.66001C11.4715 5.64018 11.5356 5.61081 11.6145 5.59442C11.6934 5.57777 11.7997 5.53788 11.8512 5.50533C11.9027 5.47284 12.0715 5.41361 12.2254 5.37339C12.3805 5.3335 12.5262 5.28539 12.5509 5.26632C12.575 5.24758 12.7038 5.20578 12.8369 5.17378C12.9706 5.14205 13.0994 5.10244 13.1235 5.08606C13.1476 5.0694 13.3065 5.03077 13.4763 5.00036C13.6457 4.96973 13.8046 4.92924 13.8287 4.91023C13.8851 4.86634 14.9497 4.73599 15.2516 4.73599C15.3777 4.73599 15.4807 4.71615 15.4807 4.69188C15.4807 4.66251 22.2191 4.65139 35.6723 4.65878L55.8635 4.66991L55.8744 21.0506ZM13.3005 1.19769C12.9372 1.23311 12.6298 1.277 12.6172 1.29498C12.6051 1.31322 12.421 1.3534 12.209 1.38434C11.9975 1.41527 11.8238 1.45386 11.8238 1.46997C11.8238 1.48613 11.6254 1.53528 11.3833 1.57917C11.1411 1.62334 10.9427 1.67462 10.9427 1.69363C10.9427 1.71243 10.8238 1.75314 10.6781 1.7841C10.5329 1.815 10.414 1.85412 10.414 1.87105C10.414 1.88826 10.3049 1.92842 10.1712 1.96042C10.0381 1.99242 9.92906 2.03203 9.92906 2.04847C9.92906 2.06486 9.8003 2.11532 9.6425 2.16025C9.48524 2.20523 9.35648 2.25493 9.35648 2.27055C9.35648 2.28611 9.27703 2.3226 9.18005 2.3517C9.08306 2.38079 9.00361 2.42123 9.00361 2.44183C9.00361 2.46243 8.93512 2.49207 8.85074 2.50791C8.76691 2.5238 8.67266 2.56133 8.64198 2.59174C8.61075 2.62215 8.51596 2.67393 8.43103 2.70703C8.3461 2.74007 8.25679 2.79053 8.23268 2.81935C8.20857 2.84817 8.11433 2.89628 8.02337 2.9262C7.93241 2.95606 7.85844 2.99414 7.85844 3.0108C7.85844 3.0274 7.77735 3.07606 7.67872 3.1189C7.50339 3.19479 7.44969 3.23019 7.2886 3.37484C7.24586 3.41341 7.14833 3.47292 7.07162 3.50673C6.99546 3.54031 6.93299 3.58207 6.93299 3.59927C6.93299 3.61648 6.85848 3.66535 6.76752 3.70765C6.67656 3.75023 6.57629 3.82052 6.54451 3.86392C6.51328 3.90754 6.46835 3.94321 6.44589 3.94321C6.42287 3.94321 6.36753 3.97783 6.3226 4.02013C6.27767 4.06271 6.17488 4.14703 6.0945 4.20758C6.01417 4.26813 5.85555 4.40193 5.74213 4.505C5.62871 4.60784 5.524 4.69222 5.50948 4.69222C5.46926 4.69222 4.42129 5.74759 4.42129 5.78802C4.42129 5.80786 4.347 5.90358 4.25604 6.00084C3.95758 6.3205 3.89255 6.4005 3.89255 6.44762C3.89255 6.47282 3.85792 6.5194 3.81534 6.55118C3.77304 6.58296 3.70855 6.66843 3.67233 6.74131C3.63584 6.81363 3.57371 6.89747 3.53404 6.92705C3.49442 6.95719 3.44944 7.03116 3.43409 7.09253C3.41881 7.1539 3.38916 7.20376 3.36829 7.20376C3.34741 7.20376 3.30588 7.26348 3.27574 7.33581C3.24561 7.40868 3.2049 7.46841 3.18561 7.46841C3.16632 7.46841 3.12742 7.53745 3.09942 7.62237C3.07142 7.7073 3.03438 7.77689 3.01696 7.77689C2.99975 7.77689 2.94847 7.88538 2.90299 8.01907C2.85778 8.15222 2.80491 8.26126 2.78562 8.26126C2.76634 8.26126 2.72667 8.34071 2.69757 8.43769C2.66848 8.53413 2.62881 8.61357 2.60952 8.61357C2.58996 8.61357 2.55138 8.69796 2.52388 8.80097C2.4961 8.90398 2.45961 8.99822 2.44273 9.01027C2.40596 9.03657 2.26213 9.4793 2.26213 9.56642C2.26213 9.59984 2.2452 9.62724 2.22405 9.62724C2.20318 9.62724 2.16088 9.74614 2.12997 9.89189C2.09929 10.0371 2.06093 10.156 2.0451 10.156C2.01047 10.156 1.90971 10.5171 1.90971 10.6409C1.90971 10.6891 1.89201 10.7286 1.87036 10.7286C1.84867 10.7286 1.79552 10.9171 1.75218 11.1472C1.70884 11.3779 1.65936 11.5658 1.6427 11.5658C1.62577 11.5658 1.58692 11.7296 1.55624 11.9296C1.52533 12.1291 1.48435 12.3033 1.46506 12.3165C1.4455 12.3291 1.40583 12.5274 1.37674 12.7565C1.3477 12.9866 1.30803 13.1849 1.28874 13.1975C1.2694 13.2101 1.21892 13.5274 1.17662 13.9027C1.13432 14.2775 1.08594 14.5942 1.06928 14.6063C1.05289 14.6183 1.0135 14.9405 0.982305 15.3224C0.950843 15.7038 0.911716 16.0161 0.895064 16.0161C0.695723 16.0161 0.693871 25.4355 0.893212 25.578C0.910132 25.59 0.949786 25.927 0.981248 26.327C1.01271 26.727 1.0521 27.0639 1.06876 27.076C1.08568 27.088 1.13511 27.4053 1.179 27.7806C1.22262 28.1565 1.27389 28.4836 1.29296 28.5077C1.31197 28.5324 1.35219 28.7357 1.38254 28.9598C1.41274 29.1839 1.45262 29.3669 1.47087 29.3669C1.48912 29.3669 1.52796 29.5356 1.55733 29.7417C1.58643 29.9477 1.62424 30.1164 1.64111 30.1164C1.65832 30.1164 1.70905 30.3044 1.75426 30.5351C1.79974 30.7652 1.85102 30.9531 1.8685 30.9531C1.88593 30.9531 1.92187 31.0759 1.94833 31.2254C1.97474 31.3756 2.01414 31.5093 2.03584 31.523C2.05754 31.5372 2.1006 31.6621 2.13184 31.8019C2.16274 31.941 2.20186 32.055 2.21852 32.055C2.23545 32.055 2.2841 32.1838 2.32668 32.3416C2.3692 32.4988 2.41972 32.6281 2.43846 32.6281C2.45725 32.6281 2.48552 32.6966 2.50141 32.7805C2.51725 32.8648 2.55484 32.9591 2.58497 32.9898C2.61533 33.021 2.6648 33.1306 2.69521 33.2336C2.72557 33.3366 2.76634 33.421 2.78562 33.421C2.80491 33.421 2.85778 33.53 2.90299 33.6632C2.94847 33.7963 2.9992 33.9059 3.01614 33.9059C3.03307 33.9059 3.06742 33.9651 3.09279 34.038C3.11821 34.1103 3.15602 34.17 3.17717 34.17C3.19805 34.17 3.24243 34.2396 3.27574 34.324C3.30906 34.4089 3.34873 34.4785 3.3638 34.4785C3.37914 34.4785 3.42462 34.5475 3.46505 34.6325C3.50549 34.7174 3.55864 34.787 3.58351 34.787C3.60806 34.787 3.62817 34.8116 3.62817 34.8423C3.62817 34.8725 3.67787 34.9546 3.73841 35.0248C3.79896 35.0955 3.84838 35.1672 3.84838 35.1848C3.84838 35.2023 3.92772 35.3009 4.02471 35.4039C4.12174 35.507 4.20108 35.6061 4.20108 35.6259C4.20108 35.645 4.26053 35.7168 4.33324 35.7853C4.40595 35.8543 4.46546 35.9256 4.46546 35.9447C4.46546 36.0187 5.80717 37.2992 5.99034 37.4C6.03609 37.4252 6.09954 37.4822 6.13127 37.5261C6.16299 37.5704 6.21685 37.6072 6.25082 37.6072C6.2848 37.6072 6.33411 37.6466 6.35986 37.6948C6.38561 37.743 6.43548 37.783 6.46945 37.783C6.50397 37.783 6.5478 37.8093 6.56698 37.8417C6.5867 37.874 6.67163 37.9387 6.75656 37.9847C6.84149 38.0312 6.92697 38.0943 6.94614 38.1244C6.96532 38.1551 7.0108 38.1797 7.04642 38.1797C7.08258 38.1797 7.12203 38.206 7.13408 38.2384C7.14669 38.2707 7.22559 38.3238 7.30942 38.3567C7.39325 38.3896 7.46174 38.4329 7.46174 38.4526C7.46174 38.4723 7.54065 38.5206 7.63818 38.5589C7.73461 38.5978 7.81406 38.646 7.81406 38.6658C7.81406 38.6855 7.88365 38.7244 7.96858 38.7523C8.05296 38.7803 8.12254 38.8186 8.12254 38.8373C8.12254 38.8553 8.20199 38.8942 8.29898 38.9233C8.39541 38.9523 8.47486 38.9912 8.47486 39.0098C8.47486 39.0285 8.57897 39.0805 8.70609 39.1266C8.83375 39.172 8.96307 39.2351 8.9943 39.2657C9.02553 39.2964 9.11977 39.3348 9.20361 39.3507C9.28744 39.3666 9.35648 39.3961 9.35648 39.4164C9.35648 39.4372 9.44031 39.4767 9.54332 39.5041C9.64688 39.532 9.74057 39.5687 9.75318 39.5857C9.77948 39.6224 10.2222 39.766 10.3088 39.766C10.3422 39.766 10.3696 39.7835 10.3696 39.8049C10.3696 39.8268 10.4984 39.8701 10.6562 39.9013C10.8134 39.9331 10.9427 39.9726 10.9427 39.9901C10.9427 40.0082 11.0814 40.0471 11.2507 40.0772C11.4205 40.1079 11.5591 40.1468 11.5591 40.1638C11.5591 40.1813 11.8172 40.2317 12.1323 40.2761C12.4473 40.3205 12.7049 40.3704 12.7049 40.3868C12.7049 40.5364 12.952 40.5369 53.5287 40.5369C94.4814 40.5369 94.3554 40.5375 94.3554 40.3769C94.3554 40.3561 94.3992 40.3391 94.454 40.3391C94.6348 40.3402 95.5005 40.1901 95.5005 40.1578C95.5005 40.1408 95.6375 40.1013 95.8074 40.0712C95.9772 40.041 96.1142 40.0021 96.1142 39.9863C96.1142 39.9693 96.2293 39.9309 96.3663 39.8997C96.5087 39.869 96.6293 39.8295 96.6457 39.8131C96.6567 39.7961 96.7991 39.7468 96.9635 39.7035C97.1279 39.6597 97.2594 39.6082 97.2594 39.589C97.2594 39.5704 97.358 39.5309 97.484 39.5019C97.6046 39.4729 97.7032 39.4312 97.7032 39.4098C97.7032 39.3885 97.7909 39.3479 97.9005 39.3211C98.01 39.2931 98.0977 39.2553 98.0977 39.2367C98.0977 39.2175 98.1963 39.1666 98.3169 39.1227C98.4374 39.0794 98.536 39.0307 98.536 39.0153C98.536 38.9994 98.6182 38.9605 98.7169 38.9288C98.81 38.897 98.8922 38.8559 98.8922 38.8389C98.8922 38.8214 98.9525 38.7825 99.0237 38.7523C99.0949 38.7222 99.1552 38.6816 99.1552 38.6625C99.1552 38.6433 99.21 38.6148 99.2812 38.5995C99.3525 38.5841 99.4456 38.5381 99.4894 38.497C99.5388 38.4559 99.6319 38.3923 99.7086 38.3562C99.7798 38.3195 99.8566 38.2652 99.873 38.2345C99.8949 38.2044 99.9388 38.1797 99.9716 38.1797C100.005 38.1797 100.048 38.154 100.07 38.1222C100.087 38.0904 100.18 38.0302 100.268 37.988C100.361 37.9458 100.432 37.8921 100.432 37.868C100.432 37.8444 100.481 37.8061 100.541 37.783C100.602 37.76 100.651 37.7206 100.651 37.6948C100.651 37.6696 100.7 37.6291 100.755 37.605C100.903 37.5387 101.144 37.3535 101.215 37.2537C101.248 37.2061 101.298 37.1661 101.32 37.1661C101.347 37.1661 101.484 37.0472 101.621 36.902C101.763 36.7562 101.895 36.6373 101.917 36.6373C101.95 36.6373 102.344 36.228 102.75 35.7782C102.859 35.6571 103.013 35.4817 103.1 35.3891C103.182 35.296 103.254 35.2067 103.254 35.1908C103.254 35.1749 103.308 35.0971 103.374 35.0182C103.582 34.7711 103.648 34.6834 103.802 34.4347C103.884 34.301 103.982 34.1623 104.015 34.1256C104.054 34.0895 104.092 34.0106 104.114 33.9497C104.13 33.8895 104.158 33.8297 104.18 33.8177C104.229 33.781 104.53 33.1246 104.53 33.05C104.53 33.0117 104.547 32.9805 104.569 32.9805C104.591 32.9805 104.634 32.8911 104.667 32.7821C104.7 32.6731 104.739 32.5838 104.755 32.5838C104.771 32.5838 104.81 32.4797 104.843 32.3525C104.87 32.2249 104.914 32.1103 104.93 32.0972C104.952 32.084 105.007 31.935 105.045 31.7668C105.089 31.598 105.139 31.4501 105.155 31.438C105.171 31.426 105.21 31.2923 105.243 31.1405C105.27 30.9893 105.314 30.8655 105.325 30.8655C105.341 30.8655 105.38 30.7411 105.407 30.5898C105.434 30.4386 105.478 30.2748 105.5 30.2266C105.55 30.1153 105.676 29.4814 105.676 29.3406C105.676 29.2825 105.692 29.2348 105.714 29.2348C105.736 29.2348 105.78 29.0365 105.813 28.7943C105.84 28.5521 105.884 28.3538 105.9 28.3538C105.917 28.3538 105.955 28.1209 105.988 27.836C106.015 27.5516 106.054 27.3083 106.076 27.2963C106.108 27.2732 106.251 25.859 106.251 25.5451C106.251 25.4459 106.267 25.3582 106.289 25.35C106.497 25.2739 106.492 16.3667 106.289 16.2878C106.267 16.2802 106.251 16.2018 106.251 16.1152C106.251 15.8232 106.108 14.4085 106.076 14.386C106.059 14.3739 106.015 14.1213 105.988 13.8244C105.955 13.5274 105.911 13.2847 105.895 13.2847C105.878 13.2847 105.84 13.0962 105.807 12.866C105.78 12.6354 105.741 12.4469 105.725 12.4469C105.708 12.4469 105.659 12.2091 105.615 11.9181C105.571 11.6277 105.522 11.3894 105.5 11.3894C105.484 11.3894 105.445 11.2507 105.413 11.0814C105.38 10.9116 105.341 10.773 105.325 10.773C105.303 10.773 105.265 10.6442 105.237 10.4864C105.204 10.3291 105.166 10.1998 105.15 10.1998C105.133 10.1998 105.095 10.0859 105.062 9.94668C105.034 9.80751 104.974 9.62067 104.925 9.5319C104.881 9.44314 104.832 9.29958 104.815 9.21246C104.799 9.12534 104.771 9.05466 104.75 9.05466C104.733 9.05466 104.695 8.9648 104.667 8.85631C104.64 8.74672 104.602 8.65796 104.58 8.65796C104.558 8.65796 104.503 8.53906 104.459 8.39331C104.415 8.24811 104.366 8.12921 104.35 8.12921C104.333 8.12921 104.295 8.05743 104.267 7.96976C104.234 7.88209 104.174 7.77305 104.13 7.72758C104.087 7.68155 104.048 7.6147 104.048 7.57854C104.048 7.54183 104.032 7.51224 104.015 7.51224C103.993 7.51224 103.944 7.43279 103.9 7.33581C103.862 7.23882 103.807 7.15938 103.785 7.15938C103.769 7.15938 103.725 7.1002 103.692 7.02732C103.665 6.95445 103.626 6.89527 103.604 6.89527C103.588 6.89527 103.55 6.83555 103.517 6.76322C103.489 6.69035 103.451 6.63063 103.435 6.63063C103.418 6.63063 103.369 6.56652 103.319 6.48762C103.276 6.40926 103.182 6.28981 103.111 6.22291C103.045 6.15607 102.991 6.08675 102.991 6.06851C102.991 6.05053 102.93 5.97969 102.859 5.91098C102.782 5.84249 102.722 5.76769 102.722 5.74517C102.722 5.66879 101.336 4.33766 101.15 4.23481C101.106 4.21131 101.046 4.15602 101.013 4.11191C100.985 4.06748 100.936 4.03126 100.914 4.03126C100.892 4.03126 100.832 3.99082 100.777 3.94112C100.722 3.89143 100.646 3.82398 100.607 3.79094C100.574 3.7579 100.487 3.70606 100.421 3.67565C100.355 3.6453 100.3 3.60639 100.3 3.58897C100.3 3.57149 100.24 3.53264 100.169 3.50251C100.098 3.47237 100.037 3.43139 100.037 3.41155C100.037 3.37506 99.9607 3.32854 99.61 3.148C99.5059 3.09512 99.4182 3.03617 99.4182 3.01661C99.4182 2.99677 99.3634 2.96768 99.2867 2.95184C99.2155 2.93595 99.1388 2.8976 99.1223 2.86697C99.1059 2.83628 98.9963 2.77574 98.8812 2.7324C98.7662 2.68878 98.673 2.6393 98.673 2.62215C98.673 2.60522 98.5908 2.56741 98.4922 2.53832C98.3991 2.50922 98.3169 2.46879 98.3169 2.44819C98.3169 2.42758 98.2511 2.39794 98.1635 2.38211C98.0813 2.36622 97.9881 2.32792 97.9552 2.29641C97.9224 2.26523 97.7799 2.20282 97.6375 2.15762C97.4895 2.11269 97.3635 2.06327 97.347 2.04792C97.3361 2.03258 97.2265 1.99319 97.106 1.96042C96.9854 1.9276 96.8758 1.88848 96.8649 1.87341C96.832 1.83379 96.4978 1.73993 96.3882 1.73993C96.3334 1.73993 96.2896 1.72218 96.2896 1.70054C96.2896 1.67884 96.1032 1.62569 95.8731 1.58235C95.643 1.53901 95.4567 1.48931 95.4567 1.47211C95.4567 1.4549 95.2814 1.41632 95.0677 1.38645C94.8595 1.35658 94.6732 1.31798 94.6622 1.30053C94.5526 1.14772 94.7389 1.14825 53.8153 1.14058C19.1047 1.13424 13.8758 1.14137 13.3005 1.19769Z" fill="#0494A4"/>
</g>
</g>
<defs>
<clipPath id="clip0_189_5424">
<rect width="105.75" height="39.9987" fill="white" transform="translate(0.721191 0.859375)"/>
</clipPath>
</defs>
</svg>
