<svg width="185" height="46" viewBox="0 0 185 46" fill="none" xmlns="http://www.w3.org/2000/svg">
<g clip-path="url(#clip0_189_6151)">
<mask id="mask0_189_6151" style="mask-type:luminance" maskUnits="userSpaceOnUse" x="0" y="0" width="185" height="46">
<path d="M184.579 0.140625H0V45.5606H184.579V0.140625Z" fill="white"/>
</mask>
<g mask="url(#mask0_189_6151)">
<path d="M4.17106 10.1336C4.91158 10.6041 5.48428 11.2988 5.8065 12.1176C5.8629 12.231 5.91929 12.2876 5.91929 12.401C6.14487 11.324 6.48324 10.3037 6.8216 9.22674V9.17006C6.67164 8.31229 6.23375 7.53208 5.58092 6.95943C4.87672 6.51208 4.0371 6.33124 3.21236 6.44928C2.62398 7.43811 2.13291 8.48223 1.74609 9.56684V9.62352H2.14086C2.84433 9.65808 3.53417 9.83144 4.17106 10.1336Z" fill="black"/>
<path d="M2.76212 18.1826C3.69379 18.7005 4.50204 19.4162 5.13068 20.2798C5.18708 20.3932 5.29987 20.4499 5.35627 20.5633C5.29987 19.506 5.29987 18.4463 5.35627 17.389V17.3324C4.85556 16.3983 4.11574 15.6155 3.21327 15.065C2.40161 14.6156 1.48939 14.3815 0.56273 14.3848C0.372239 15.4347 0.240445 16.4944 0.167969 17.5591H0.619125C1.37144 17.5998 2.10451 17.813 2.76212 18.1826Z" fill="black"/>
<path d="M9.30709 2.14185C9.58906 2.53863 9.64546 3.16214 9.47627 4.06906V4.35249C10.3105 2.76331 11.5579 1.43123 13.0855 0.498047C11.3567 0.676201 9.66462 1.11572 8.06641 1.80176C8.28495 1.74847 8.51337 1.75172 8.73033 1.81119C8.94728 1.87066 9.14572 1.98442 9.30709 2.14185Z" fill="black"/>
<path d="M3.10245 14.1574C3.96284 14.6238 4.66858 15.3332 5.13265 16.1979C5.18904 16.3113 5.24544 16.368 5.30184 16.4814C5.41463 15.4044 5.58381 14.3841 5.753 13.3071V13.2505C5.39269 12.329 4.76362 11.5387 3.94837 10.9831C3.19834 10.5437 2.33233 10.3459 1.46701 10.4162C1.1256 11.4574 0.84317 12.5173 0.621094 13.5905H1.01585C1.74428 13.6237 2.45659 13.8171 3.10245 14.1574Z" fill="black"/>
<path d="M5.97844 6.16469C6.28524 6.39365 6.54317 6.68222 6.73692 7.01328C6.93067 7.34433 7.05629 7.71113 7.10633 8.09191C7.10633 8.20527 7.16272 8.26196 7.16272 8.37532C7.67027 7.29835 8.17783 6.27805 8.79816 5.20108V5.1444C8.91095 4.1241 8.79816 3.44391 8.4598 2.99045C8.12143 2.53698 7.55749 2.42362 6.65517 2.53698C5.86565 3.21718 4.90694 4.40752 4.17381 5.20108C4.00985 5.37868 3.85905 5.56813 3.72266 5.76791H3.89184C4.61225 5.63791 5.35506 5.77916 5.97844 6.16469Z" fill="black"/>
<path d="M16.8631 5.825C16.9299 5.83375 16.9978 5.82224 17.0581 5.79195C17.1184 5.76165 17.1683 5.71394 17.2014 5.65495C17.6978 4.73039 18.2834 3.85706 18.9497 3.04754C19.1189 2.8208 19.0624 2.65076 18.7805 2.65076H18.6677C18.3845 2.64139 18.1012 2.66038 17.8218 2.70744C17.187 2.79061 16.563 2.94265 15.9607 3.1609C14.5785 3.64808 13.2837 4.35628 12.1259 5.25817C12.111 5.25817 12.0967 5.26414 12.086 5.27477C12.0755 5.2854 12.0695 5.29982 12.0695 5.31485C11.5048 6.34421 10.9964 7.40387 10.5469 8.48909C10.6597 8.37573 10.7724 8.31905 10.8289 8.20568C11.7605 7.3814 12.8296 6.72897 13.9869 6.27846C14.7655 5.99632 15.5845 5.84317 16.4119 5.825H16.8631Z" fill="black"/>
<path d="M12.6328 4.40848C12.7456 4.29511 12.8584 4.23843 12.9711 4.12507C14.1604 3.29649 15.4742 2.66496 16.8624 2.25453C17.5234 2.05112 18.2039 1.91813 18.8926 1.85775C19.2116 1.8294 19.5323 1.8294 19.8513 1.85775C20.0082 1.85399 20.1623 1.81527 20.3024 1.74438C20.8289 1.34322 21.4203 1.03641 22.0507 0.837457C22.3192 0.726605 22.6064 0.668866 22.8966 0.667408C23.0093 0.667408 22.953 0.554043 22.8402 0.554043C17.8775 -0.239518 15.7909 0.100579 12.6328 4.40848Z" fill="black"/>
<path d="M15.6214 9.56661C15.8883 8.6788 16.2084 7.80807 16.58 6.95919C16.6929 6.73246 16.58 6.67578 16.4109 6.67578H15.9597C15.1076 6.72862 14.2696 6.92005 13.4783 7.24261C12.2956 7.74592 11.2226 8.47775 10.3203 9.39655C10.3203 9.41159 10.3143 9.42601 10.3038 9.43664C10.2932 9.44727 10.2788 9.45324 10.2639 9.45324C9.92552 10.5303 9.64355 11.6072 9.41797 12.6275C9.50663 12.5447 9.58265 12.4492 9.64355 12.3441C10.4469 11.5198 11.4053 10.8647 12.4632 10.4168C13.1093 10.1411 13.7943 9.96898 14.4935 9.90675C14.7191 9.90675 15.0011 9.85002 15.2266 9.85002C15.3092 9.83523 15.3875 9.80219 15.4558 9.75316C15.5242 9.70413 15.5807 9.64039 15.6214 9.56661Z" fill="black"/>
<path d="M12.1264 11.2094C11.0438 11.7163 10.0823 12.4509 9.30662 13.3634L9.25023 13.4201C9.08104 14.4971 8.96826 15.574 8.85547 16.5943C8.91187 16.481 9.02465 16.4243 9.08104 16.3109C9.77207 15.4707 10.6384 14.7934 11.6188 14.327C12.3944 14.0069 13.2106 13.7971 14.0438 13.7035H14.4385C14.6077 13.7035 14.6641 13.6468 14.6641 13.4768C14.8333 12.5698 15.0024 11.7196 15.1716 10.8694C15.2281 10.5859 15.1153 10.5293 14.9461 10.5293C13.9779 10.6143 13.0275 10.8436 12.1264 11.2094Z" fill="black"/>
<path d="M3.55114 26.1749C4.62604 26.7451 5.59822 27.4923 6.42726 28.3856L6.70924 28.6689C6.37087 27.592 6.08889 26.515 5.86332 25.4948L5.80692 25.438C5.04457 24.4599 4.10744 23.6334 3.0436 23.0007C2.12317 22.496 1.10175 22.2054 0.0546875 22.1504C0.111082 22.5472 0.167476 23.0007 0.223871 23.3974C0.33666 24.0776 0.449448 24.7012 0.562238 25.3247C0.675026 25.3247 1.01339 25.3814 1.06979 25.3814C1.92838 25.5336 2.76289 25.8004 3.55114 26.1749Z" fill="black"/>
<path d="M2.87612 22.1494C3.88932 22.6647 4.77552 23.4006 5.47027 24.3034C5.52666 24.4167 5.63945 24.4734 5.69584 24.5867C5.52666 23.5098 5.41387 22.4328 5.30108 21.4125V21.3558C4.66606 20.3969 3.81621 19.6009 2.81972 19.0318C1.95936 18.5444 0.987605 18.2904 0 18.295C0 19.3153 0 20.3922 0.0563945 21.4692C0.112789 21.4692 0.50755 21.5259 0.62034 21.5259C1.40394 21.593 2.1686 21.8043 2.87612 22.1494Z" fill="black"/>
<path d="M4.79087 30.1983C5.98529 30.7898 7.08724 31.5537 8.06176 32.4657C8.16 32.5764 8.27402 32.6719 8.40012 32.749C7.89257 31.6721 7.38502 30.5951 6.99026 29.5181C6.99026 29.5031 6.98432 29.4886 6.97374 29.478C6.96316 29.4674 6.94882 29.4615 6.93386 29.4615C5.18564 27.6476 3.38101 26.4573 0.730469 26.1738C0.840228 26.7508 0.991004 27.319 1.18162 27.8743C1.3353 28.3781 1.52374 28.8706 1.74557 29.348C1.89715 29.3555 2.04797 29.3745 2.19673 29.4047C3.09592 29.538 3.97028 29.8055 4.79087 30.1983Z" fill="black"/>
<path d="M11.1654 36.6611C11.3414 36.778 11.5308 36.873 11.7294 36.9446C10.6982 35.9837 9.78901 34.8985 9.02246 33.7136L8.96606 33.6569C7.85844 32.6778 6.64826 31.8225 5.35681 31.1062C4.33316 30.5895 3.22507 30.2631 2.08594 30.1426C2.60083 31.2417 3.2243 32.2862 3.94695 33.2601C4.00335 33.3169 4.00335 33.3735 4.05974 33.3735C5.05832 33.5289 6.02791 33.8346 6.93586 34.2804C8.39376 34.9845 9.80641 35.7796 11.1654 36.6611Z" fill="black"/>
<path d="M7.61269 35.1296C6.6996 34.7488 5.7564 34.4454 4.79297 34.2227C6.4848 35.9232 8.34582 36.7168 10.94 37.1702C11.3348 37.2268 11.6731 37.2836 12.0114 37.3403L11.7859 37.2269C10.094 36.32 8.79697 35.6398 7.61269 35.1296Z" fill="black"/>
<path d="M29.2713 21.3008C29.8283 21.2953 30.3618 21.0744 30.761 20.6838C31.16 20.2932 31.394 19.763 31.4143 19.2036C31.5271 13.9887 30.5684 9.34069 28.9329 6.05308C27.2975 2.76548 24.3086 -0.352083 20.6429 2.36869C17.8232 4.46596 15.6238 9.56742 14.8907 15.8026C14.8343 16.3693 14.7779 17.5597 14.7215 18.1265C14.6087 18.8068 14.496 18.6367 14.4396 18.0132C14.3465 16.9372 14.3654 15.8544 14.496 14.7823C14.496 14.6122 14.4396 14.5555 14.3267 14.5555H13.9884C13.0612 14.5987 12.1554 14.8506 11.3379 15.2924C10.3175 15.7987 9.44372 16.5598 8.80013 17.503C8.74371 18.5603 8.74371 19.62 8.80013 20.6773C8.85651 20.5639 8.91291 20.5072 8.9693 20.3939C9.5399 19.5279 10.3411 18.8405 11.2815 18.41C12.0521 18.0646 12.8692 17.8354 13.7064 17.7297C14.1012 17.6731 14.1012 18.4666 13.7064 18.5233C12.7966 18.6056 11.9135 18.8758 11.1123 19.3169C10.1587 19.858 9.36187 20.6394 8.80013 21.5842C8.91291 22.6612 9.0257 23.7381 9.19488 24.7584C9.25128 24.6451 9.30767 24.5884 9.36407 24.475C9.8493 23.6069 10.5739 22.8982 11.4507 22.4345C12.2056 22.0376 13.0284 21.7876 13.8756 21.6976C14.214 21.6409 14.2704 22.4345 13.932 22.4911C13.06 22.6191 12.2189 22.9074 11.4507 23.3413C10.5713 23.869 9.88042 24.6626 9.47685 25.6086V25.6654C9.67941 26.7617 9.96217 27.8417 10.3227 28.8963C10.3792 28.7829 10.3792 28.7262 10.4356 28.6128C10.7757 27.7412 11.3895 27.0049 12.1838 26.5156C12.8458 26.1257 13.5713 25.8569 14.3267 25.722C14.7215 25.6086 14.8343 26.459 14.496 26.5156C13.6913 26.6634 12.9242 26.9717 12.2402 27.4225C11.446 27.9743 10.8833 28.8023 10.6612 29.7465V29.8032C11.0559 30.8802 11.5635 31.9572 12.071 33.0341C12.071 32.9208 12.1274 32.8641 12.1274 32.7507C12.1957 32.3325 12.3454 31.932 12.5679 31.5721C12.7905 31.2122 13.0816 30.9001 13.4244 30.6535C13.9881 30.2585 14.6188 29.9703 15.2855 29.8032C15.7366 29.6899 15.8495 30.4834 15.5675 30.5967C14.8969 30.7658 14.2775 31.0965 13.7629 31.5604C13.4255 31.8574 13.1554 32.2234 12.9705 32.6341C12.7857 33.0447 12.6906 33.4904 12.6913 33.9411V33.9977C13.4809 35.1476 14.4091 36.1948 15.4547 37.1153C15.3983 37.0019 15.3983 36.8886 15.3419 36.8319C15.2079 36.4985 15.1739 36.1331 15.244 35.7806C15.3142 35.4281 15.4854 35.1038 15.7366 34.8479C16.1174 34.5064 16.557 34.2375 17.0337 34.0544C17.4849 33.8844 17.936 34.7346 17.5977 34.9047C17.1555 35.0586 16.765 35.3335 16.4698 35.6983C16.075 36.2084 16.0186 36.8886 16.7518 37.8521L16.9773 38.1356C17.4849 38.1923 17.9924 38.1923 18.5 38.2489C21.9964 38.3057 24.4778 37.6254 26.9028 34.9614C28.4818 33.2042 29.7789 30.5401 30.6248 27.2525C30.7195 26.8973 30.7313 26.5251 30.6593 26.1646C30.5872 25.8041 30.4333 25.4652 30.2094 25.1745C29.9856 24.8836 29.6979 24.6487 29.369 24.488C29.0399 24.3274 28.6784 24.2454 28.3126 24.2483C27.3539 29.2364 25.1545 32.6941 22.6732 32.6941C19.7406 32.6941 17.1466 27.7626 16.7518 21.3008H29.2713ZM20.8121 15.009H16.8646C17.8232 9.56742 20.3046 5.65631 22.8988 5.65631C25.4929 5.65631 27.6923 9.56742 28.369 15.009H20.8121Z" fill="black"/>
<path d="M117.075 11.3235C118.352 11.3705 119.591 11.7782 120.648 12.5001C121.705 13.2219 122.538 14.2286 123.053 15.4047L129.2 12.4572C127.339 8.77278 123.786 4.97502 117.075 4.97502C108.56 4.91834 102.074 10.7566 102.074 19.3724C102.074 27.9883 108.56 33.8266 117.131 33.8266C123.843 33.8266 127.451 29.9155 129.257 26.3445L123.109 23.3969C122.608 24.5824 121.778 25.5978 120.718 26.3215C119.658 27.0452 118.413 27.4468 117.131 27.4782C112.563 27.4782 109.405 23.9638 109.405 19.3724C109.405 14.7811 112.563 11.3235 117.075 11.3235Z" fill="#2AB34B"/>
<path d="M154.746 5.42773H145.949L137.377 16.8777V5.42773H130.215V33.3724H137.377V25.1533L139.294 22.8294L146.569 33.3724H155.367L143.975 18.4648L154.746 5.42773Z" fill="#2AB34B"/>
<path d="M166.421 15.5743C163.771 14.9508 161.628 14.4974 161.628 13.1369C161.628 11.9466 162.53 11.153 164.616 11.153C167.572 11.1585 170.437 12.1784 172.738 14.0439L176.628 8.88574C173.696 6.33501 169.805 4.97461 165.35 4.97461C158.244 4.97461 154.24 9.16915 154.24 13.8739C154.24 20.7325 160.668 21.9795 165.237 22.9431C167.887 23.51 169.974 23.9634 169.974 25.4371C169.974 26.7975 168.452 27.7612 166.026 27.7612C162.708 27.7544 159.525 26.4302 157.172 24.0767L153.395 29.4616C156.213 32.1257 160.105 33.8829 165.745 33.8829C173.189 33.8829 177.306 30.1419 177.306 24.5302C177.306 17.955 170.989 16.5379 166.421 15.5743Z" fill="#2AB34B"/>
<path d="M94.3459 5.42773H85.3228L76.4124 29.2912L72.9724 23.1128C75.5666 22.2059 78.499 19.5985 78.499 14.7237C78.499 9.5089 75.0026 5.42773 68.8556 5.42773H30.3945C30.4953 5.64191 30.6083 5.8501 30.733 6.05124C31.5798 7.83801 32.2049 9.7227 32.5939 11.6628H40.32V33.3157H47.4821V11.6628H54.9826V33.3157H62.1447V23.963H65.8102L70.491 33.3724H83.067L84.4205 29.3479H95.361L96.7144 33.3724H104.835L94.3459 5.42773ZM67.7841 17.6712H62.0882V11.6628H67.7841C69.6451 11.6628 71.2242 12.7399 71.2242 14.6104C71.2242 16.6509 69.6451 17.6712 67.7841 17.6712ZM86.2815 23.0561L89.8343 12.5698L93.3872 23.0561H86.2815Z" fill="#2AB34B"/>
<path d="M18.3828 28.1029C19.2851 30.2568 20.5822 31.5605 22.0485 31.5605C24.2479 31.5605 26.1653 28.4996 27.0676 24.135H21.4845C21.2224 24.1298 20.9656 24.2096 20.7522 24.3629C20.5388 24.5161 20.3803 24.7344 20.3003 24.9852C19.8491 26.629 19.1723 27.7061 18.3828 28.1029Z" fill="#2AB34B"/>
<path d="M22.5011 6.73242C21.0913 6.73242 19.7377 8.03613 18.7227 10.1901C19.5122 10.8703 20.1889 12.2874 20.6401 14.2146H27.2947C26.5615 9.7933 24.7005 6.73242 22.5011 6.73242Z" fill="#2AB34B"/>
<path d="M15.2259 38.1347C14.4928 37.3979 13.8161 36.6043 13.1393 35.8108C11.915 34.235 10.8743 32.5233 10.0376 30.7093C8.44849 27.073 7.73366 23.1116 7.95107 19.146C7.9908 15.1557 8.79499 11.2105 10.3196 7.52598C11.0887 5.71102 12.1352 4.02801 13.4213 2.53789C14.1072 1.71623 14.8828 0.974694 15.7335 0.327258C15.0004 -0.126205 13.8725 0.38394 13.6469 0.497307C11.605 2.24795 9.95248 4.411 8.79699 6.84579C7.01821 10.7024 6.07624 14.8953 6.03366 19.146C5.97822 21.2742 6.14836 23.4024 6.54121 25.4944C6.96616 27.5899 7.68784 29.6133 8.6842 31.5028C9.88387 33.798 11.4672 35.8687 13.365 37.6246C13.927 37.9628 14.5708 38.1393 15.2259 38.1347Z" fill="black"/>
<path d="M41.3364 40.5728H39.6445V39.8359H43.8741V40.5728H42.1823V45.3342H41.3364V40.5728Z" fill="black"/>
<path d="M45.8477 39.8359H46.6935V45.3342H45.8477V39.8359Z" fill="black"/>
<path d="M50.8671 43.237H49.852V45.3342H49.0625V39.836H51.3747C51.6044 39.8162 51.8357 39.8462 52.0529 39.9239C52.2701 40.0015 52.4682 40.1251 52.634 40.2863C52.7996 40.4474 52.929 40.6424 53.0134 40.8581C53.0977 41.0737 53.135 41.3051 53.1229 41.5365C53.1437 41.9252 53.0147 42.3071 52.7626 42.6026C52.5106 42.8982 52.1548 43.0848 51.7694 43.1236L53.1793 45.3342H52.2206L50.8671 43.237ZM51.2619 40.5729H49.9085V42.5001H51.2619C51.5161 42.5001 51.7601 42.3986 51.9398 42.2179C52.1197 42.0372 52.2206 41.792 52.2206 41.5365C52.2206 41.2809 52.1197 41.0358 51.9398 40.8551C51.7601 40.6744 51.5161 40.5729 51.2619 40.5729Z" fill="black"/>
<path d="M55.2656 39.8359H58.9312V40.5728H56.0551V42.16H58.8749V42.8969H56.0551V44.5973H58.9312V45.3342H55.2656V39.8359Z" fill="black"/>
<path d="M69.1377 40.9696L67.3895 45.3342H67.0512L65.3029 40.9696V45.3342H64.457V39.8359H65.6413L67.2203 43.8038L68.7994 39.8359H69.9837V45.3342H69.1377V40.9696Z" fill="black"/>
<path d="M75.7948 44.2005H73.0879L72.6367 45.3342H71.7344L73.9338 39.8359H74.9489L77.1482 45.3342H76.2459L75.7948 44.2005ZM73.3134 43.4636H75.5128L74.385 40.5728L73.3134 43.4636Z" fill="black"/>
<path d="M79.7405 41.1396V45.3908H78.8945V39.8926H79.7405L82.7293 44.0304V39.8926H83.5753V45.3908H82.7858L79.7405 41.1396Z" fill="black"/>
<path d="M89.3846 44.2005H86.6776L86.2265 45.3342H85.3242L87.5236 39.8359H88.5387L90.7381 45.3342H89.8358L89.3846 44.2005ZM86.9596 43.4636H89.159L88.0312 40.5728L86.9596 43.4636Z" fill="black"/>
<path d="M94.8531 39.7222C95.2713 39.7079 95.6864 39.7989 96.0607 39.987C96.435 40.1751 96.7565 40.4543 96.9962 40.7992L96.3193 41.196C96.1351 40.9681 95.9031 40.7839 95.64 40.6566C95.3767 40.5292 95.0888 40.4617 94.7967 40.459C94.2698 40.4981 93.7771 40.7359 93.4175 41.125C93.0579 41.5139 92.8579 42.0253 92.8579 42.5564C92.8579 43.0874 93.0579 43.5987 93.4175 43.9878C93.7771 44.3767 94.2698 44.6147 94.7967 44.6536C95.3218 44.6545 95.827 44.4514 96.2066 44.0867V43.1799H94.4584V42.443H97.0522V44.4835C96.7729 44.7893 96.4328 45.0329 96.0541 45.1988C95.6753 45.3648 95.2663 45.4493 94.8531 45.4472C94.4792 45.4606 94.1065 45.3966 93.7583 45.2589C93.4102 45.1212 93.0939 44.913 92.8294 44.647C92.5648 44.3812 92.3576 44.0633 92.2207 43.7133C92.0838 43.3634 92.02 42.9888 92.0333 42.613C92.0187 42.2343 92.0812 41.8564 92.2169 41.5028C92.3527 41.1491 92.5589 40.8271 92.823 40.5564C93.0871 40.2858 93.4033 40.0721 93.7523 39.9287C94.1015 39.7853 94.4761 39.715 94.8531 39.7222Z" fill="black"/>
<path d="M99.3125 39.8359H102.978V40.5728H100.102V42.16H102.921V42.8969H100.102V44.5973H102.978V45.3342H99.3125V39.8359Z" fill="black"/>
<path d="M109.857 40.9696L108.109 45.3342H107.77L106.021 40.9696V45.3342H105.176V39.8359H106.36L107.939 43.8038L109.518 39.8359H110.703V45.3342H109.857V40.9696Z" fill="black"/>
<path d="M113.07 39.8359H116.736V40.5728H113.86V42.16H116.68V42.8969H113.86V44.5973H116.736V45.3342H113.07V39.8359Z" fill="black"/>
<path d="M119.724 41.1396V45.3908H118.879V39.8926H119.724L122.714 44.0304V39.8926H123.559V45.3908H122.77L119.724 41.1396Z" fill="black"/>
<path d="M127.282 40.5728H125.59V39.8359H129.82V40.5728H128.128V45.3342H127.282V40.5728Z" fill="black"/>
<path d="M135.178 43.9165C135.401 44.1608 135.671 44.3571 135.971 44.4935C136.272 44.6299 136.597 44.7036 136.926 44.7101C137.829 44.7101 138.11 44.2566 138.11 43.8598C138.11 43.293 137.49 43.1229 136.813 42.9529C135.911 42.7261 134.896 42.4428 134.896 41.3658C134.896 40.4589 135.685 39.7787 136.813 39.7787C137.18 39.76 137.546 39.8213 137.887 39.9582C138.228 40.0952 138.534 40.3047 138.787 40.5723L138.336 41.1958C138.131 40.9862 137.885 40.8224 137.612 40.7149C137.341 40.6074 137.049 40.5588 136.757 40.5723C136.137 40.5723 135.742 40.9123 135.742 41.3658C135.742 41.8193 136.306 42.046 137.039 42.2161C137.941 42.4428 138.956 42.7262 138.956 43.9165C138.956 44.7667 138.392 45.5603 136.87 45.5603C136.473 45.5782 136.078 45.5117 135.707 45.3652C135.338 45.2187 135.004 44.9955 134.727 44.7101L135.178 43.9165Z" fill="black"/>
<path d="M142.564 43.0102L140.422 39.7793H141.381L143.016 42.2167L144.595 39.7793H145.553L143.411 43.0102V45.3343H142.564V43.0102Z" fill="black"/>
<path d="M147.303 43.9165C147.525 44.1608 147.796 44.3571 148.096 44.4935C148.397 44.6299 148.722 44.7036 149.051 44.7101C149.954 44.7101 150.235 44.2566 150.235 43.8598C150.235 43.293 149.614 43.1229 148.938 42.9529C148.035 42.7261 147.021 42.4428 147.021 41.3658C147.021 40.4589 147.81 39.7787 148.938 39.7787C149.304 39.76 149.671 39.8213 150.012 39.9582C150.352 40.0952 150.659 40.3047 150.912 40.5723L150.461 41.1958C150.256 40.9862 150.01 40.8224 149.737 40.7149C149.466 40.6074 149.174 40.5588 148.882 40.5723C148.262 40.5723 147.866 40.9123 147.866 41.3658C147.866 41.8193 148.431 42.046 149.164 42.2161C150.066 42.4428 151.081 42.7262 151.081 43.9165C151.081 44.7667 150.517 45.5603 148.995 45.5603C148.598 45.5782 148.202 45.5117 147.832 45.3652C147.463 45.2187 147.129 44.9955 146.852 44.7101L147.303 43.9165Z" fill="black"/>
<path d="M154.407 40.5728H152.715V39.8359H156.945V40.5728H155.253V45.3342H154.407V40.5728Z" fill="black"/>
<path d="M158.918 39.8359H162.583V40.5728H159.708V42.16H162.527V42.8969H159.708V44.5973H162.583V45.3342H158.918V39.8359Z" fill="black"/>
<path d="M169.521 40.9696L167.773 45.3342H167.435L165.686 40.9696V45.3342H164.84V39.8359H166.025L167.604 43.8038L169.183 39.8359H170.367V45.3342H169.521V40.9696Z" fill="black"/>
<path d="M172.849 43.9165C173.072 44.1608 173.342 44.3571 173.642 44.4935C173.943 44.6299 174.267 44.7036 174.597 44.7101C175.5 44.7101 175.782 44.2566 175.782 43.8598C175.782 43.293 175.161 43.1229 174.485 42.9529C173.582 42.7261 172.568 42.4428 172.568 41.3658C172.568 40.4589 173.357 39.7787 174.485 39.7787C174.851 39.76 175.217 39.8213 175.558 39.9582C175.899 40.0952 176.206 40.3047 176.458 40.5723L176.007 41.1958C175.802 40.9862 175.556 40.8224 175.284 40.7149C175.012 40.6074 174.721 40.5588 174.428 40.5723C173.807 40.5723 173.413 40.9123 173.413 41.3658C173.413 41.8193 173.977 42.046 174.71 42.2161C175.613 42.4428 176.627 42.7262 176.627 43.9165C176.627 44.7667 176.064 45.5603 174.541 45.5603C174.145 45.5782 173.748 45.5117 173.379 45.3652C173.01 45.2187 172.676 44.9955 172.398 44.7101L172.849 43.9165Z" fill="black"/>
<path d="M178.49 10.87V7.92246H177.418V7.12891H180.35V7.92246H179.335V10.87H178.49Z" fill="black"/>
<path d="M183.733 10.87V8.82939L182.943 10.87H182.493L181.646 8.82939V10.87H180.801V7.12891H181.815L182.718 9.28286L183.564 7.12891H184.579V10.87H183.733Z" fill="black"/>
</g>
</g>
<defs>
<clipPath id="clip0_189_6151">
<rect width="184.579" height="45.42" fill="white" transform="translate(0 0.140625)"/>
</clipPath>
</defs>
</svg>
