<svg width="151" height="41" viewBox="0 0 151 41" fill="none" xmlns="http://www.w3.org/2000/svg">
<g clip-path="url(#clip0_189_6115)">
<path d="M6.71006 35.8598C6.71006 35.9598 6.71006 35.9598 6.71006 36.0598C6.71006 36.1598 6.71006 36.2598 6.71006 36.3598C6.71006 36.4598 6.71006 36.5598 6.71006 36.5598L6.41006 38.0598C6.31006 38.4598 6.31006 38.6598 6.31006 38.7598C6.31006 38.7598 6.31006 38.8598 6.31006 38.9598H5.01006C5.01006 38.8598 5.01006 38.8598 5.01006 38.7598C5.01006 38.6598 5.01006 38.6598 5.01006 38.5598C4.81006 38.7598 4.71006 38.8598 4.51006 38.9598C4.41006 39.0598 4.21006 39.0598 3.91006 39.0598C3.61006 39.0598 3.31006 38.9598 3.21006 38.7598C3.01006 38.5598 2.91006 38.3598 2.91006 38.0598C2.91006 37.8598 2.91006 37.7598 3.01006 37.5598C3.11006 37.3598 3.21006 37.2598 3.31006 37.0598C3.51006 36.9598 3.61006 36.8598 3.81006 36.7598C4.01006 36.6598 4.21006 36.6598 4.41006 36.5598C4.61006 36.5598 4.91006 36.4598 5.21006 36.4598V36.2598C5.21006 36.1598 5.21006 36.0598 5.21006 35.9598C5.21006 35.6598 5.11006 35.5598 4.91006 35.5598C4.71006 35.5598 4.61006 35.5598 4.51006 35.7598C4.41006 35.9598 4.41006 36.0598 4.31006 36.2598L3.11006 36.0598C3.31006 35.2598 3.91006 34.8598 4.91006 34.8598C5.21006 34.8598 5.41006 34.8598 5.61006 34.9598C5.81006 35.0598 6.01006 35.1598 6.11006 35.3598C6.61006 35.4598 6.71006 35.6598 6.71006 35.8598ZM111.01 1.25977H109.91L106.11 14.2598H110.11L112.31 23.9598H116.61L111.01 1.25977ZM104.91 18.1598L103.21 23.9598H107.51L109.01 18.1598C109.11 18.1598 104.91 18.1598 104.91 18.1598ZM97.1101 18.1598H101.21L102.21 14.2598H98.2101L97.1101 18.1598ZM143.01 5.85977C143.61 6.75977 143.61 7.75977 143.71 8.75977C143.81 11.9598 143.81 15.9598 143.61 18.1598C143.41 19.1598 143.31 20.1598 142.01 20.7598C141.51 20.8598 141.11 21.0598 140.51 21.0598V4.75977C141.51 4.75977 142.51 5.15977 143.01 5.85977ZM136.41 1.75977V23.9598C138.71 23.9598 141.21 24.1598 143.21 23.6598C147.01 22.6598 147.71 19.2598 148.11 16.3598C148.31 12.9598 148.51 8.05977 146.81 4.55977C145.01 1.35977 140.21 1.85977 136.41 1.75977ZM126.51 4.65977C127.41 5.35977 127.51 6.35977 127.61 7.35977C128.01 10.9598 128.11 14.8598 127.61 18.3598C127.41 19.5598 127.21 21.3598 125.51 21.3598C125.01 21.3598 124.51 21.1598 124.21 20.8598C123.61 20.1598 123.51 19.2598 123.41 18.2598C123.01 14.5598 122.81 11.0598 123.41 7.45977C123.61 6.35977 123.91 4.65977 125.31 4.45977C125.71 4.35977 126.11 4.35977 126.51 4.65977ZM124.21 1.45977C119.21 2.75977 119.31 7.35977 118.81 10.9598C118.71 14.5598 118.61 18.3598 120.31 21.5598C121.21 23.0598 123.11 24.4598 125.31 24.3598C127.31 24.3598 129.11 23.5598 130.31 22.0598C132.41 18.4598 132.31 14.1598 132.21 10.0598C131.91 7.65977 131.61 5.35977 130.11 3.35977C128.81 1.65977 126.51 1.05977 124.21 1.45977ZM91.6101 2.15977L90.6101 5.05977C89.9101 4.85977 89.2101 4.45977 88.3101 4.45977C87.3101 4.45977 86.6101 5.15977 86.2101 5.85977C85.3101 8.15977 85.4101 10.8598 85.3101 13.5598C85.3101 15.8598 85.3101 18.2598 86.2101 20.2598C86.5101 20.8598 87.2101 21.2598 88.1101 21.2598C88.4101 21.1598 88.8101 21.3598 89.1101 21.1598V14.2598C89.3101 13.3598 87.3101 12.3598 87.7101 11.4598H93.2101V22.8598C92.9101 23.2598 92.3101 23.4598 91.8101 23.6598C90.0101 24.3598 87.3101 24.5598 85.4101 23.7598C81.6101 22.0598 81.5101 18.5598 81.2101 15.3598C81.1101 11.2598 81.0101 7.15977 83.1101 3.75977C85.6101 0.559766 89.4101 1.15977 91.6101 2.15977ZM52.7101 1.35977L45.0101 12.3598L37.3101 1.35977H36.6101V23.9598H40.6101V13.4598L45.0101 19.6598L49.4101 13.4598V23.9598H53.4101V1.35977H52.7101ZM73.4101 12.3598V1.75977H77.3101V24.2598H76.7101L69.0101 13.4598V23.9598H65.0101V1.35977H65.7101L73.4101 12.3598ZM61.0101 23.9598H56.9101V1.75977H61.0101V23.9598ZM31.7101 1.75977L32.9101 4.65977H29.0101V11.2598H33.0101V14.2598H29.0101V21.1598H32.6101V23.8598H24.7101L24.8101 1.65977H31.7101V1.75977ZM17.9101 21.0598H21.7101V23.9598H14.1101V1.75977H18.0101V21.0598H17.9101ZM9.91006 1.75977C9.91006 1.75977 10.8101 3.85977 11.1101 4.65977H6.91006V11.2598H11.0101V14.1598H6.91006V23.8598H2.81006V1.65977H9.91006V1.75977ZM18.7101 35.8598C18.7101 35.9598 18.7101 35.9598 18.7101 36.0598C18.7101 36.1598 18.7101 36.2598 18.7101 36.3598C18.7101 36.4598 18.7101 36.5598 18.7101 36.5598L18.3101 38.0598C18.2101 38.4598 18.2101 38.6598 18.2101 38.7598C18.2101 38.7598 18.2101 38.8598 18.2101 38.9598H17.1101C17.1101 38.8598 17.1101 38.8598 17.1101 38.7598C17.1101 38.6598 17.1101 38.6598 17.1101 38.5598C16.9101 38.7598 16.8101 38.8598 16.6101 38.9598C16.5101 39.0598 16.3101 39.0598 16.0101 39.0598C15.7101 39.0598 15.4101 38.9598 15.3101 38.7598C15.1101 38.5598 15.0101 38.3598 15.0101 38.0598C15.0101 37.8598 15.0101 37.7598 15.1101 37.5598C15.2101 37.3598 15.3101 37.2598 15.4101 37.0598C15.6101 36.9598 15.7101 36.8598 15.9101 36.7598C16.1101 36.6598 16.3101 36.6598 16.6101 36.5598C16.8101 36.5598 17.1101 36.4598 17.4101 36.4598V36.2598C17.4101 36.1598 17.4101 36.0598 17.4101 35.9598C17.4101 35.6598 17.3101 35.5598 17.1101 35.5598C16.9101 35.5598 16.8101 35.5598 16.7101 35.7598C16.6101 35.8598 16.6101 36.0598 16.5101 36.2598L15.3101 36.0598C15.5101 35.2598 16.1101 34.8598 17.1101 34.8598C17.4101 34.8598 17.6101 34.8598 17.8101 34.9598C18.0101 35.0598 18.2101 35.1598 18.3101 35.3598C18.6101 35.4598 18.7101 35.6598 18.7101 35.8598ZM17.3101 37.0598C17.1101 37.0598 16.9101 37.1598 16.7101 37.2598C16.6101 37.2598 16.5101 37.3598 16.5101 37.4598C16.4101 37.5598 16.4101 37.6598 16.3101 37.7598C16.3101 37.8598 16.2101 37.9598 16.2101 38.0598C16.2101 38.1598 16.2101 38.2598 16.3101 38.3598C16.4101 38.4598 16.5101 38.4598 16.6101 38.4598C16.9101 38.4598 17.1101 38.1598 17.2101 37.5598L17.3101 37.0598ZM23.0101 35.5598V35.6598C23.0101 35.8598 23.0101 36.0598 22.9101 36.4598L22.3101 38.9598H21.1101L21.6101 36.4598C21.7101 36.1598 21.7101 35.9598 21.7101 35.7598V35.6598C21.7101 35.6598 21.6101 35.6598 21.5101 35.6598C21.4101 35.6598 21.3101 35.6598 21.3101 35.7598C21.2101 35.8598 21.2101 35.8598 21.1101 35.9598C21.1101 36.0598 21.0101 36.2598 21.0101 36.4598L20.5101 38.9598H19.2101L20.0101 34.8598H21.2101L21.1101 35.3598C21.3101 35.1598 21.4101 34.9598 21.6101 34.8598C21.8101 34.7598 22.0101 34.7598 22.2101 34.7598C22.3101 34.7598 22.5101 34.7598 22.6101 34.8598C22.7101 34.9598 22.8101 34.9598 22.9101 35.0598C22.9101 35.2598 23.0101 35.3598 23.0101 35.5598ZM27.1101 36.1598C27.1101 36.2598 27.1101 36.2598 27.1101 36.1598C27.1101 36.2598 27.1101 36.2598 27.1101 36.2598C27.1101 36.2598 27.1101 36.2598 27.1101 36.3598H26.0101C26.0101 36.2598 26.0101 36.1598 26.0101 36.0598C26.0101 35.7598 25.9101 35.5598 25.6101 35.5598C25.5101 35.5598 25.4101 35.6598 25.3101 35.7598C25.2101 35.8598 25.1101 36.0598 25.1101 36.3598C25.0101 36.5598 25.0101 36.9598 24.9101 37.3598C24.9101 37.6598 24.9101 37.7598 24.9101 37.8598C24.9101 37.9598 24.9101 38.0598 25.0101 38.1598C25.0101 38.2598 25.1101 38.2598 25.3101 38.2598C25.5101 38.2598 25.6101 38.1598 25.7101 38.0598C25.8101 37.9598 25.9101 37.6598 26.0101 37.3598L27.1101 37.5598C27.0101 38.0598 26.8101 38.4598 26.5101 38.6598C26.2101 38.9598 25.8101 39.0598 25.3101 39.0598C24.8101 39.0598 24.5101 38.9598 24.2101 38.6598C24.0101 38.4598 23.9101 38.3598 23.9101 38.1598C23.9101 37.9598 23.8101 37.6598 23.8101 37.3598C23.8101 37.1598 23.8101 36.9598 23.9101 36.7598C23.9101 36.5598 24.0101 36.3598 24.1101 36.1598C24.2101 35.9598 24.2101 35.8598 24.3101 35.6598C24.5101 35.3598 24.7101 35.1598 25.0101 34.9598C25.3101 34.8598 25.6101 34.7598 26.0101 34.7598C26.3101 34.7598 26.6101 34.7598 26.7101 34.9598C26.9101 35.0598 27.1101 35.2598 27.2101 35.4598C27.0101 35.6598 27.1101 35.9598 27.1101 36.1598ZM31.1101 36.3598C31.1101 36.4598 31.1101 36.7598 31.0101 37.0598H28.9101V37.1598C28.9101 37.1598 28.9101 37.2598 28.9101 37.3598C28.9101 37.4598 28.9101 37.4598 28.9101 37.4598V37.6598C28.9101 37.8598 28.9101 37.9598 29.0101 38.0598C29.0101 38.1598 29.1101 38.2598 29.3101 38.2598C29.5101 38.2598 29.6101 38.1598 29.7101 38.0598C29.8101 37.9598 29.8101 37.7598 29.9101 37.5598L30.9101 37.7598C30.8101 37.9598 30.8101 38.1598 30.7101 38.3598C30.6101 38.5598 30.5101 38.6598 30.4101 38.7598C30.3101 38.8598 30.1101 38.9598 29.9101 39.0598C29.7101 39.1598 29.5101 39.1598 29.2101 39.1598C28.6101 39.1598 28.2101 39.0598 28.0101 38.6598C27.8101 38.3598 27.7101 37.9598 27.7101 37.4598C27.7101 37.1598 27.7101 36.8598 27.8101 36.5598C27.9101 36.2598 28.0101 35.9598 28.1101 35.7598C28.3101 35.4598 28.5101 35.2598 28.8101 35.0598C29.1101 34.8598 29.4101 34.8598 29.8101 34.8598C30.1101 34.8598 30.3101 34.8598 30.5101 34.9598C30.7101 35.0598 30.8101 35.1598 30.9101 35.2598C31.0101 35.3598 31.1101 35.5598 31.1101 35.7598C31.1101 35.9598 31.1101 36.1598 31.1101 36.3598ZM29.9101 36.0598C29.9101 35.8598 29.9101 35.7598 29.9101 35.6598C29.9101 35.5598 29.8101 35.5598 29.6101 35.5598C29.3101 35.5598 29.1101 35.8598 29.0101 36.5598H29.9101C29.9101 36.2598 29.9101 36.0598 29.9101 36.0598ZM35.8101 33.4598L34.7101 38.9598H33.6101L33.7101 38.4598C33.6101 38.5598 33.5101 38.6598 33.4101 38.7598C33.3101 38.8598 33.2101 38.8598 33.1101 38.9598C33.0101 38.9598 32.9101 38.9598 32.7101 38.9598C32.5101 38.9598 32.2101 38.8598 32.1101 38.7598C31.9101 38.5598 31.8101 38.3598 31.8101 38.1598C31.8101 38.0598 31.8101 37.9598 31.8101 37.7598V37.5598C31.8101 37.2598 31.8101 36.9598 31.9101 36.6598C32.0101 36.3598 32.1101 36.0598 32.2101 35.8598C32.4101 35.5598 32.6101 35.2598 32.8101 35.0598C33.0101 34.8598 33.3101 34.7598 33.5101 34.7598C33.7101 34.7598 33.9101 34.7598 34.0101 34.8598C34.1101 34.9598 34.2101 35.0598 34.3101 35.2598L34.7101 33.4598H35.8101ZM34.1101 35.9598C34.1101 35.8598 34.1101 35.7598 34.0101 35.6598C33.9101 35.6598 33.9101 35.6598 33.8101 35.6598C33.8101 35.6598 33.7101 35.6598 33.6101 35.7598C33.5101 35.8598 33.5101 35.9598 33.4101 36.1598C33.3101 36.5598 33.2101 36.8598 33.2101 37.1598C33.2101 37.4598 33.1101 37.6598 33.1101 37.8598C33.1101 38.1598 33.2101 38.2598 33.3101 38.2598C33.5101 38.2598 33.7101 37.9598 33.8101 37.4598L34.0101 36.1598C34.1101 36.0598 34.1101 35.9598 34.1101 35.9598ZM42.3101 36.4598C42.3101 36.9598 42.2101 37.3598 42.1101 37.7598C41.9101 38.1598 41.7101 38.4598 41.5101 38.6598C41.3101 38.7598 41.1101 38.8598 40.9101 38.9598C40.7101 39.0598 40.5101 39.0598 40.2101 39.0598C39.9101 39.0598 39.7101 38.9598 39.5101 38.8598C39.3101 38.7598 39.1101 38.5598 39.0101 38.2598C38.9101 38.0598 38.8101 37.7598 38.8101 37.3598C38.8101 36.1598 39.1101 35.3598 39.8101 34.9598C40.0101 34.8598 40.1101 34.7598 40.3101 34.7598C40.5101 34.7598 40.7101 34.7598 40.9101 34.7598C41.2101 34.7598 41.4101 34.8598 41.6101 34.9598C41.8101 35.0598 42.0101 35.2598 42.1101 35.5598C42.3101 35.8598 42.3101 36.0598 42.3101 36.4598ZM41.1101 36.0598C41.1101 35.9598 41.1101 35.7598 41.1101 35.7598C41.1101 35.6598 41.0101 35.6598 40.9101 35.6598C40.7101 35.6598 40.6101 35.7598 40.5101 35.9598C40.4101 36.1598 40.3101 36.5598 40.2101 37.0598C40.1101 37.3598 40.1101 37.6598 40.1101 37.8598C40.1101 38.1598 40.2101 38.2598 40.3101 38.2598C40.5101 38.2598 40.6101 38.1598 40.6101 38.0598C40.7101 37.9598 40.7101 37.6598 40.8101 37.2598C40.9101 36.9598 40.9101 36.7598 40.9101 36.4598C41.1101 36.3598 41.1101 36.1598 41.1101 36.0598ZM46.7101 34.9598L45.9101 39.0598H44.7101L44.8101 38.5598C44.6101 38.7598 44.5101 38.9598 44.3101 39.0598C44.2101 39.1598 44.0101 39.1598 43.7101 39.1598C43.5101 39.1598 43.3101 39.0598 43.1101 38.9598C43.0101 38.8598 42.9101 38.6598 42.9101 38.3598C42.9101 38.1598 42.9101 37.9598 43.0101 37.6598L43.5101 35.0598H44.7101L44.3101 37.5598C44.3101 37.7598 44.2101 37.9598 44.2101 38.0598C44.2101 38.1598 44.2101 38.1598 44.2101 38.1598C44.2101 38.1598 44.3101 38.1598 44.4101 38.1598C44.5101 38.1598 44.6101 38.0598 44.7101 37.9598C44.8101 37.8598 44.8101 37.5598 44.9101 37.2598L45.4101 34.7598L46.7101 34.9598ZM50.1101 34.9598L49.9101 35.8598H49.2101L48.9101 37.4598C48.9101 37.6598 48.8101 37.8598 48.8101 37.8598C48.8101 38.0598 48.9101 38.1598 49.2101 38.1598C49.2101 38.1598 49.4101 38.1598 49.6101 38.1598L49.3101 39.0598C49.0101 39.0598 48.7101 39.1598 48.5101 39.1598C48.1101 39.1598 47.8101 39.0598 47.7101 38.9598C47.5101 38.7598 47.4101 38.5598 47.4101 38.2598C47.4101 38.2598 47.4101 38.1598 47.4101 38.0598C47.4101 37.9598 47.4101 37.7598 47.5101 37.5598L47.8101 35.9598H47.3101L47.5101 35.0598H48.1101L48.4101 33.8598H49.6101L49.3101 34.8598L50.1101 34.9598ZM53.9101 36.1598C53.9101 36.2598 53.9101 36.2598 53.9101 36.1598C53.9101 36.2598 53.9101 36.2598 53.9101 36.2598C53.9101 36.2598 53.9101 36.2598 53.9101 36.3598H52.8101C52.8101 36.2598 52.8101 36.1598 52.8101 36.0598C52.8101 35.7598 52.7101 35.5598 52.4101 35.5598C52.3101 35.5598 52.2101 35.6598 52.1101 35.7598C52.0101 35.8598 51.9101 36.0598 51.9101 36.3598C51.8101 36.5598 51.8101 36.9598 51.7101 37.3598C51.7101 37.6598 51.7101 37.7598 51.7101 37.8598C51.7101 37.9598 51.7101 38.0598 51.8101 38.1598C51.8101 38.2598 51.9101 38.2598 52.1101 38.2598C52.2101 38.2598 52.4101 38.1598 52.5101 38.0598C52.6101 37.9598 52.7101 37.6598 52.8101 37.3598L53.9101 37.5598C53.8101 38.0598 53.6101 38.4598 53.3101 38.6598C53.0101 38.8598 52.6101 39.0598 52.1101 39.0598C51.6101 39.0598 51.3101 38.9598 51.0101 38.6598C50.8101 38.4598 50.7101 38.3598 50.7101 38.1598C50.7101 37.9598 50.6101 37.6598 50.6101 37.3598C50.6101 37.1598 50.6101 36.9598 50.7101 36.7598C50.7101 36.5598 50.8101 36.3598 50.9101 36.1598C51.0101 35.9598 51.0101 35.8598 51.1101 35.6598C51.3101 35.3598 51.5101 35.1598 51.8101 34.9598C52.1101 34.8598 52.4101 34.7598 52.8101 34.7598C53.1101 34.7598 53.4101 34.7598 53.6101 34.9598C53.8101 35.1598 54.0101 35.2598 54.1101 35.4598C53.8101 35.6598 53.9101 35.9598 53.9101 36.1598ZM57.9101 36.4598C57.9101 36.9598 57.8101 37.3598 57.7101 37.7598C57.6101 38.1598 57.3101 38.4598 57.1101 38.6598C56.9101 38.7598 56.7101 38.8598 56.5101 38.9598C56.3101 39.0598 56.1101 39.0598 55.8101 39.0598C55.5101 39.0598 55.3101 38.9598 55.1101 38.8598C54.9101 38.7598 54.7101 38.5598 54.6101 38.2598C54.5101 38.0598 54.4101 37.7598 54.4101 37.3598C54.4101 36.1598 54.7101 35.3598 55.4101 34.9598C55.6101 34.8598 55.7101 34.7598 55.9101 34.7598C56.1101 34.7598 56.3101 34.7598 56.5101 34.7598C56.8101 34.7598 57.0101 34.8598 57.2101 34.9598C57.4101 35.0598 57.6101 35.2598 57.7101 35.5598C57.9101 35.8598 57.9101 36.0598 57.9101 36.4598ZM56.7101 36.0598C56.7101 35.9598 56.7101 35.7598 56.7101 35.7598C56.7101 35.6598 56.6101 35.6598 56.5101 35.6598C56.3101 35.6598 56.2101 35.7598 56.1101 35.9598C56.0101 36.1598 55.9101 36.5598 55.8101 37.0598C55.7101 37.3598 55.7101 37.6598 55.7101 37.8598C55.7101 38.1598 55.8101 38.2598 55.9101 38.2598C56.0101 38.2598 56.2101 38.1598 56.2101 38.0598C56.3101 37.9598 56.3101 37.6598 56.4101 37.2598C56.5101 36.9598 56.5101 36.7598 56.5101 36.4598C56.6101 36.3598 56.7101 36.1598 56.7101 36.0598ZM64.0101 35.5598C64.0101 35.6598 64.0101 35.9598 63.9101 36.3598L63.4101 38.9598H62.2101L62.7101 36.3598C62.7101 36.0598 62.8101 35.8598 62.8101 35.7598C62.8101 35.6598 62.7101 35.5598 62.6101 35.5598C62.5101 35.5598 62.4101 35.5598 62.3101 35.7598C62.2101 35.8598 62.2101 36.0598 62.1101 36.3598L61.6101 38.9598H60.3101L60.8101 36.3598C60.9101 36.0598 60.9101 35.8598 60.9101 35.8598C60.9101 35.6598 60.8101 35.6598 60.7101 35.6598C60.6101 35.6598 60.5101 35.7598 60.4101 35.8598C60.3101 35.9598 60.3101 36.1598 60.2101 36.4598L59.7101 38.9598H58.4101L59.2101 34.8598H60.4101L60.3101 35.3598C60.4101 35.1598 60.6101 34.9598 60.8101 34.8598C61.0101 34.7598 61.2101 34.7598 61.4101 34.7598C61.6101 34.7598 61.8101 34.7598 61.9101 34.9598C62.0101 35.0598 62.1101 35.2598 62.2101 35.4598C62.4101 35.2598 62.5101 35.0598 62.7101 34.9598C62.9101 34.8598 63.1101 34.8598 63.3101 34.8598C63.5101 34.8598 63.7101 34.9598 63.9101 35.0598C63.9101 35.1598 64.0101 35.3598 64.0101 35.5598ZM68.1101 36.3598C68.1101 36.4598 68.1101 36.7598 68.0101 37.0598H65.9101V37.1598C65.9101 37.1598 65.9101 37.2598 65.9101 37.3598C65.9101 37.4598 65.9101 37.4598 65.9101 37.4598V37.6598C65.9101 37.8598 65.9101 37.9598 66.0101 38.0598C66.0101 38.1598 66.1101 38.2598 66.3101 38.2598C66.5101 38.2598 66.6101 38.1598 66.7101 38.0598C66.8101 37.9598 66.8101 37.7598 66.9101 37.5598L67.9101 37.7598C67.8101 37.9598 67.8101 38.1598 67.7101 38.3598C67.6101 38.5598 67.5101 38.6598 67.4101 38.7598C67.3101 38.8598 67.1101 38.9598 66.9101 39.0598C66.7101 39.1598 66.5101 39.1598 66.2101 39.1598C65.6101 39.1598 65.2101 39.0598 65.0101 38.6598C64.8101 38.3598 64.7101 37.9598 64.7101 37.4598C64.7101 37.1598 64.7101 36.8598 64.8101 36.5598C64.9101 36.2598 65.0101 35.9598 65.1101 35.7598C65.3101 35.4598 65.5101 35.2598 65.8101 35.0598C66.1101 34.8598 66.4101 34.8598 66.7101 34.8598C67.0101 34.8598 67.2101 34.8598 67.4101 34.9598C67.6101 35.0598 67.7101 35.1598 67.8101 35.2598C67.9101 35.3598 68.0101 35.5598 68.0101 35.7598C68.1101 35.9598 68.1101 36.1598 68.1101 36.3598ZM66.9101 36.0598C66.9101 35.8598 66.9101 35.7598 66.8101 35.6598C66.8101 35.5598 66.7101 35.5598 66.5101 35.5598C66.2101 35.5598 66.0101 35.8598 65.9101 36.5598H66.8101C66.9101 36.2598 66.9101 36.0598 66.9101 36.0598ZM72.1101 35.8598L71.2101 36.1598C71.1101 35.7598 70.9101 35.5598 70.7101 35.5598C70.6101 35.5598 70.5101 35.5598 70.4101 35.6598C70.3101 35.7598 70.3101 35.8598 70.3101 35.9598C70.3101 36.0598 70.3101 36.0598 70.4101 36.1598C70.4101 36.2598 70.5101 36.2598 70.6101 36.2598C70.9101 36.4598 71.2101 36.5598 71.3101 36.5598C71.4101 36.5598 71.5101 36.6598 71.7101 36.7598C71.8101 36.8598 71.9101 36.9598 72.0101 37.0598C72.1101 37.1598 72.1101 37.3598 72.1101 37.4598C72.1101 37.9598 72.0101 38.2598 71.7101 38.5598C71.4101 38.8598 71.0101 38.9598 70.4101 38.9598C70.2101 38.9598 70.0101 38.9598 69.8101 38.8598C69.6101 38.8598 69.4101 38.7598 69.3101 38.6598C69.2101 38.5598 69.1101 38.4598 69.0101 38.3598C68.9101 38.2598 68.8101 38.0598 68.8101 37.8598L69.8101 37.6598C69.9101 38.0598 70.1101 38.2598 70.4101 38.2598C70.6101 38.2598 70.7101 38.2598 70.8101 38.1598C70.9101 38.0598 70.9101 37.9598 70.9101 37.7598C70.9101 37.6598 70.7101 37.4598 70.4101 37.2598C70.1101 37.0598 69.8101 36.9598 69.7101 36.8598C69.6101 36.7598 69.4101 36.6598 69.3101 36.4598C69.2101 36.3598 69.2101 36.1598 69.2101 35.8598C69.2101 35.6598 69.2101 35.5598 69.3101 35.3598C69.4101 35.1598 69.5101 35.0598 69.6101 34.9598C69.8101 34.8598 69.9101 34.7598 70.1101 34.6598C70.3101 34.5598 70.5101 34.5598 70.8101 34.5598C71.5101 34.7598 72.0101 35.1598 72.1101 35.8598ZM79.5101 33.4598L78.4101 38.9598H77.3101L77.4101 38.4598C77.3101 38.5598 77.2101 38.6598 77.1101 38.7598C77.0101 38.8598 76.9101 38.8598 76.8101 38.9598C76.7101 38.9598 76.6101 38.9598 76.4101 38.9598C76.2101 38.9598 75.9101 38.8598 75.8101 38.7598C75.6101 38.5598 75.5101 38.3598 75.5101 38.1598C75.5101 38.0598 75.5101 37.9598 75.5101 37.7598V37.5598C75.5101 37.2598 75.5101 36.9598 75.6101 36.6598C75.7101 36.3598 75.8101 36.0598 75.9101 35.8598C76.1101 35.5598 76.3101 35.2598 76.5101 35.0598C76.7101 34.8598 77.0101 34.7598 77.2101 34.7598C77.4101 34.7598 77.6101 34.7598 77.7101 34.8598C77.8101 34.9598 77.9101 35.0598 78.0101 35.2598L78.4101 33.4598H79.5101ZM77.7101 35.9598C77.7101 35.8598 77.7101 35.7598 77.6101 35.6598C77.5101 35.6598 77.5101 35.6598 77.4101 35.6598C77.4101 35.6598 77.3101 35.6598 77.2101 35.7598C77.1101 35.8598 77.1101 35.9598 77.0101 36.1598C76.9101 36.5598 76.8101 36.8598 76.8101 37.1598C76.8101 37.4598 76.7101 37.6598 76.7101 37.8598C76.7101 38.1598 76.8101 38.2598 76.9101 38.2598C77.1101 38.2598 77.3101 37.9598 77.4101 37.4598L77.6101 36.1598C77.7101 36.0598 77.7101 35.9598 77.7101 35.9598ZM83.1101 36.3598C83.1101 36.4598 83.1101 36.7598 83.0101 37.0598H80.9101V37.1598C80.9101 37.1598 80.9101 37.2598 80.9101 37.3598C80.9101 37.4598 80.9101 37.4598 80.9101 37.4598V37.6598C80.9101 37.8598 80.9101 37.9598 81.0101 38.0598C81.0101 38.1598 81.1101 38.2598 81.3101 38.2598C81.5101 38.2598 81.6101 38.1598 81.7101 38.0598C81.8101 37.9598 81.8101 37.7598 81.9101 37.5598L82.9101 37.7598C82.8101 37.9598 82.8101 38.1598 82.7101 38.3598C82.6101 38.5598 82.5101 38.6598 82.4101 38.7598C82.3101 38.8598 82.1101 38.9598 81.9101 39.0598C81.7101 39.1598 81.5101 39.1598 81.2101 39.1598C80.6101 39.1598 80.2101 39.0598 80.0101 38.6598C79.8101 38.3598 79.7101 37.9598 79.7101 37.4598C79.7101 37.1598 79.7101 36.8598 79.8101 36.5598C79.9101 36.2598 80.0101 35.9598 80.1101 35.7598C80.3101 35.4598 80.5101 35.2598 80.8101 35.0598C81.1101 34.8598 81.4101 34.8598 81.8101 34.8598C82.1101 34.8598 82.3101 34.8598 82.5101 34.9598C82.7101 35.0598 82.8101 35.1598 82.9101 35.2598C83.0101 35.3598 83.1101 35.5598 83.1101 35.7598C83.1101 35.9598 83.1101 36.1598 83.1101 36.3598ZM81.9101 36.0598C81.9101 35.8598 81.9101 35.7598 81.9101 35.6598C81.9101 35.5598 81.8101 35.5598 81.6101 35.5598C81.3101 35.5598 81.1101 35.8598 81.0101 36.5598H81.9101C81.9101 36.2598 81.9101 36.0598 81.9101 36.0598ZM87.2101 35.8598L86.3101 36.1598C86.2101 35.7598 86.0101 35.5598 85.8101 35.5598C85.7101 35.5598 85.6101 35.5598 85.5101 35.6598C85.3101 35.7598 85.3101 35.8598 85.3101 35.9598C85.3101 36.0598 85.3101 36.0598 85.4101 36.1598C85.4101 36.2598 85.5101 36.2598 85.6101 36.2598C85.9101 36.4598 86.2101 36.5598 86.3101 36.5598C86.4101 36.5598 86.5101 36.6598 86.7101 36.7598C86.8101 36.8598 86.9101 36.9598 87.0101 37.0598C87.1101 37.1598 87.1101 37.3598 87.1101 37.4598C87.1101 37.9598 87.0101 38.2598 86.7101 38.5598C86.4101 38.8598 86.0101 38.9598 85.4101 38.9598C85.2101 38.9598 85.0101 38.9598 84.8101 38.8598C84.6101 38.8598 84.4101 38.7598 84.3101 38.6598C84.2101 38.5598 84.1101 38.4598 84.0101 38.3598C83.9101 38.2598 83.8101 38.0598 83.8101 37.8598L84.8101 37.6598C84.9101 38.0598 85.1101 38.2598 85.4101 38.2598C85.5101 38.2598 85.7101 38.2598 85.8101 38.1598C85.9101 38.0598 85.9101 37.9598 85.9101 37.7598C85.9101 37.6598 85.7101 37.4598 85.4101 37.2598C85.1101 37.0598 84.8101 36.9598 84.7101 36.8598C84.6101 36.7598 84.4101 36.6598 84.4101 36.4598C84.3101 36.3598 84.3101 36.1598 84.3101 35.8598C84.3101 35.6598 84.3101 35.5598 84.4101 35.3598C84.5101 35.1598 84.6101 35.0598 84.8101 34.9598C84.9101 34.8598 85.1101 34.7598 85.3101 34.6598C85.3101 34.8598 85.5101 34.8598 85.7101 34.8598C86.5101 34.7598 87.0101 35.1598 87.2101 35.8598ZM89.9101 33.4598L89.7101 34.5598H88.4101L88.6101 33.4598H89.9101ZM89.6101 34.9598L88.8101 39.0598H87.5101L88.3101 34.9598H89.6101ZM94.0101 33.9598L93.9101 34.6598C93.9101 34.6598 93.8101 34.6598 93.7101 34.6598C93.6101 34.6598 93.5101 34.6598 93.4101 34.7598C93.3101 34.7598 93.3101 34.8598 93.2101 35.0598C93.4101 35.1598 93.5101 35.3598 93.6101 35.4598C93.7101 35.5598 93.7101 35.7598 93.7101 36.0598C93.7101 36.2598 93.6101 36.5598 93.5101 36.7598C93.4101 36.9598 93.2101 37.1598 92.9101 37.2598C92.7101 37.3598 92.4101 37.4598 92.1101 37.4598C91.9101 37.4598 91.7101 37.4598 91.5101 37.3598C91.4101 37.4598 91.3101 37.4598 91.3101 37.5598C91.3101 37.5598 91.2101 37.6598 91.2101 37.7598C91.2101 37.8598 91.2101 37.8598 91.3101 37.9598C91.4101 37.9598 91.5101 38.0598 91.6101 38.0598C91.7101 38.0598 91.9101 38.0598 92.3101 38.1598C92.7101 38.1598 92.9101 38.2598 93.1101 38.4598C93.3101 38.6598 93.4101 38.8598 93.4101 39.0598C93.4101 39.3598 93.3101 39.6598 93.1101 39.8598C92.9101 40.0598 92.7101 40.2598 92.3101 40.3598C92.0101 40.4598 91.5101 40.5598 91.0101 40.5598C90.7101 40.5598 90.5101 40.5598 90.3101 40.4598C90.1101 40.3598 89.9101 40.2598 89.8101 40.1598C89.7101 40.0598 89.6101 39.8598 89.6101 39.6598C89.6101 39.4598 89.7101 39.2598 89.8101 39.1598C89.9101 39.0598 90.2101 38.9598 90.5101 38.8598C90.2101 38.6598 90.1101 38.4598 90.1101 38.2598C90.1101 38.0598 90.2101 37.8598 90.3101 37.6598C90.4101 37.4598 90.7101 37.3598 91.0101 37.1598C90.9101 37.0598 90.7101 36.8598 90.7101 36.7598C90.7101 36.6598 90.6101 36.4598 90.6101 36.2598C90.6101 36.0598 90.7101 35.8598 90.8101 35.5598C90.9101 35.2598 91.1101 35.1598 91.4101 35.0598C91.7101 34.9598 92.0101 34.8598 92.3101 34.8598C92.5101 34.8598 92.6101 34.8598 92.8101 34.9598C92.9101 34.6598 93.0101 34.4598 93.1101 34.2598C93.2101 34.1598 93.4101 34.0598 93.6101 34.0598H93.7101C93.9101 33.9598 94.0101 33.9598 94.0101 33.9598ZM92.5101 35.8598C92.5101 35.7598 92.5101 35.6598 92.4101 35.5598C92.4101 35.4598 92.3101 35.4598 92.1101 35.4598C91.8101 35.4598 91.6101 35.7598 91.6101 36.2598C91.6101 36.3598 91.6101 36.4598 91.7101 36.5598C91.7101 36.6598 91.8101 36.6598 92.0101 36.6598C92.4101 36.7598 92.5101 36.4598 92.5101 35.8598ZM92.3101 39.2598C92.3101 39.0598 91.9101 38.9598 91.0101 38.8598C90.8101 38.9598 90.7101 39.0598 90.7101 39.3598C90.7101 39.4598 90.8101 39.5598 90.9101 39.6598C91.0101 39.7598 91.2101 39.7598 91.5101 39.7598C91.8101 39.7598 92.0101 39.7598 92.1101 39.6598C92.2101 39.5598 92.3101 39.4598 92.3101 39.2598ZM97.9101 35.5598V35.6598C97.9101 35.8598 97.9101 36.0598 97.8101 36.4598L97.3101 38.9598H96.1101L96.6101 36.4598C96.7101 36.1598 96.7101 35.9598 96.7101 35.7598V35.6598C96.7101 35.6598 96.6101 35.6598 96.5101 35.6598C96.4101 35.6598 96.3101 35.6598 96.3101 35.7598C96.2101 35.8598 96.2101 35.8598 96.1101 35.9598C96.1101 36.0598 96.0101 36.2598 96.0101 36.4598L95.5101 38.9598H94.2101L95.0101 34.8598H96.2101L96.1101 35.3598C96.3101 35.1598 96.4101 34.9598 96.6101 34.8598C96.8101 34.7598 97.0101 34.7598 97.2101 34.7598C97.3101 34.7598 97.5101 34.7598 97.6101 34.8598C97.7101 34.9598 97.8101 34.9598 97.9101 35.0598C97.9101 35.2598 97.9101 35.3598 97.9101 35.5598ZM5.31006 37.0598C5.11006 37.0598 4.91006 37.1598 4.71006 37.2598C4.61006 37.2598 4.51006 37.3598 4.51006 37.4598C4.41006 37.4598 4.31006 37.5598 4.31006 37.6598C4.31006 37.7598 4.21006 37.8598 4.21006 37.9598C4.21006 38.0598 4.21006 38.1598 4.31006 38.2598C4.41006 38.3598 4.51006 38.3598 4.61006 38.3598C4.91006 38.3598 5.11006 38.0598 5.21006 37.4598L5.31006 37.0598ZM11.4101 33.4598L10.3101 38.9598H9.11006L9.21006 38.4598C9.11006 38.5598 9.01006 38.6598 8.91006 38.7598C8.81006 38.8598 8.71006 38.8598 8.61006 38.9598C8.51006 38.9598 8.41006 38.9598 8.21006 38.9598C8.01006 38.9598 7.71006 38.8598 7.61006 38.7598C7.41006 38.5598 7.31006 38.3598 7.31006 38.1598C7.31006 38.0598 7.31006 37.9598 7.31006 37.7598V37.5598C7.31006 37.2598 7.31006 36.9598 7.41006 36.6598C7.51006 36.3598 7.61006 36.0598 7.71006 35.8598C7.91006 35.5598 8.11006 35.2598 8.31006 35.0598C8.51006 34.8598 8.71006 34.8598 9.01006 34.8598C9.21006 34.8598 9.41006 34.8598 9.51006 34.9598C9.61006 35.0598 9.71006 35.1598 9.81006 35.3598L10.2101 33.5598L11.4101 33.4598ZM9.61006 35.9598C9.61006 35.8598 9.61006 35.7598 9.51006 35.6598C9.41006 35.6598 9.41006 35.6598 9.31006 35.6598C9.31006 35.6598 9.21006 35.6598 9.11006 35.7598C9.01006 35.8598 9.01006 35.9598 8.91006 36.1598C8.81006 36.5598 8.71006 36.8598 8.71006 37.1598C8.71006 37.4598 8.61006 37.6598 8.61006 37.8598C8.61006 38.1598 8.71006 38.2598 8.91006 38.2598C9.11006 38.2598 9.31006 37.9598 9.41006 37.4598L9.61006 36.1598C9.61006 36.0598 9.61006 35.9598 9.61006 35.9598ZM15.2101 34.9598L13.3101 38.9598H12.3101L11.9101 34.8598H13.1101V36.4598C13.1101 36.4598 13.1101 36.5598 13.1101 36.6598C13.1101 36.7598 13.1101 36.9598 13.1101 37.0598V37.3598C13.2101 36.9598 13.3101 36.6598 13.4101 36.3598L14.0101 34.7598H15.2101V34.9598Z" fill="#231F20"/>
<path d="M0.310059 27.459V31.359H104.81L102.01 40.459C102.01 40.459 110.81 31.359 141.41 31.359L142.51 27.459C142.61 27.459 0.310059 27.459 0.310059 27.459Z" fill="#BE3821"/>
<path d="M145.208 31.259H149.309L150.309 27.459H146.309L145.208 31.259Z" fill="#BE3821"/>
</g>
<defs>
<clipPath id="clip0_189_6115">
<rect width="150" height="40" fill="white" transform="translate(0.310059 0.859375)"/>
</clipPath>
</defs>
</svg>
