<svg width="108" height="56" viewBox="0 0 108 56" fill="none" xmlns="http://www.w3.org/2000/svg">
<g clip-path="url(#clip0_189_5388)">
<path d="M91.2797 27.8424C91.7379 28.0091 92.1663 28.2488 92.5481 28.5521V28.4615C92.5481 28.1897 92.4273 27.8122 92.5481 27.6461C92.6689 27.48 93.1219 27.6461 93.439 27.6461H94.647C95.0547 27.6461 95.1151 27.7216 95.1151 28.0991V39.0315C95.1151 39.9224 95.1151 39.9224 94.2242 39.9224H92.7142C92.5028 39.9224 92.4273 39.8469 92.4273 39.6355V38.7597C91.9934 39.1107 91.51 39.3957 90.9928 39.6053C90.7814 39.6053 90.7965 39.409 90.7965 39.2731C90.7511 38.7053 90.7511 38.1347 90.7965 37.5668C90.7965 37.3705 91.0079 37.295 91.174 37.2346C91.561 37.1068 91.8894 36.8447 92.0999 36.4957C92.3104 36.1467 92.3891 35.7339 92.3216 35.332C92.2159 34.1089 92.3216 32.8707 92.3216 31.6325C92.3249 31.4545 92.2839 31.2785 92.2022 31.1203C92.1204 30.9621 92.0006 30.8268 91.8535 30.7265C91.5213 30.4698 91.0985 30.3641 90.8267 30.0319C90.7588 29.4096 90.7588 28.7818 90.8267 28.1595C90.9928 27.9481 91.023 27.7518 91.2797 27.8424Z" fill="#0086B1"/>
<path d="M79.8032 42.5027C79.0816 43.3474 78.0983 43.9267 77.0097 44.1486H76.6171C76.4812 44.0278 76.4963 43.8617 76.4812 43.7107V41.8081C77.1248 41.5902 77.676 41.1616 78.046 40.5917C78.4159 40.0218 78.5828 39.3438 78.5197 38.6673V37.9425C78.0279 38.3059 77.4829 38.5911 76.904 38.7881C76.7379 38.622 76.7832 38.4257 76.7832 38.2294C76.801 37.7248 76.7758 37.2196 76.7077 36.7193C76.7077 36.5079 76.904 36.4778 77.0399 36.4023C77.4136 36.2256 77.7722 36.0185 78.112 35.7831C78.2036 35.7153 78.2775 35.6263 78.3275 35.5238C78.3774 35.4213 78.4019 35.3082 78.3989 35.1942V31.4192C78.4036 31.2975 78.3769 31.1766 78.3214 31.0682C78.2659 30.9597 78.1833 30.8674 78.0818 30.8001C77.837 30.6118 77.5797 30.4402 77.3117 30.2867C77.1909 30.2112 77.0248 30.181 77.0399 29.9847C77.0747 29.482 77.0747 28.9775 77.0399 28.4747C77.0029 28.275 77.0463 28.0688 77.1607 27.9009C77.6093 28.0684 78.0276 28.3082 78.3989 28.6106C78.4895 28.52 78.3989 28.4294 78.3989 28.3388C78.3989 27.6291 78.3989 27.6291 79.1237 27.6442H79.6069C79.7289 27.8704 79.7714 28.1309 79.7277 28.3841V41.6722C79.7934 41.9438 79.8188 42.2236 79.8032 42.5027Z" fill="#009A98"/>
<path d="M79.8035 42.5033C79.7356 42.3095 79.7048 42.1046 79.7129 41.8993V27.5996H80.8303C81.2078 27.5996 81.1625 27.7053 81.1625 27.9469V38.6679C81.1814 40.0127 80.751 41.3253 79.9394 42.3976C79.8968 42.4362 79.8514 42.4716 79.8035 42.5033Z" fill="#00979B"/>
<path d="M71.0783 28.6416C71.928 27.9232 72.9876 27.4994 74.0983 27.4336C74.3701 27.4336 74.2946 27.7205 74.3097 27.8715V29.759C74.3097 29.9855 74.0681 30.0308 73.902 30.1063C73.3188 30.3063 72.8074 30.6736 72.4315 31.1623C72.0555 31.651 71.8318 32.2395 71.788 32.8545C71.6742 33.5569 71.7943 34.2773 72.1299 34.9048C72.4655 35.5323 72.9979 36.0322 73.6453 36.3275C73.8114 36.403 73.9775 36.4634 74.0228 36.6597C74.0606 37.3538 74.0606 38.0494 74.0228 38.7435C74.0248 38.8018 74.0151 38.8598 73.9944 38.9143C73.9737 38.9687 73.9423 39.0185 73.902 39.0606C72.8531 38.9634 71.8606 38.5411 71.0632 37.8526C71.0936 37.4102 71.0936 36.9662 71.0632 36.5238V30.0157C71.0987 29.5585 71.1037 29.0995 71.0783 28.6416Z" fill="#00A38B"/>
<path d="M85.1052 38.6677C84.8032 38.5469 84.6522 38.26 84.4559 38.0184C83.4678 36.6941 82.9672 35.0693 83.0387 33.4185C83.1102 31.7677 83.7495 30.1922 84.8485 28.9584L85.0298 28.8074C85.2261 28.7319 85.2714 28.8829 85.3016 29.0037C85.3228 29.1489 85.3228 29.2964 85.3016 29.4416V38.0335C85.3318 38.26 85.4526 38.562 85.1052 38.6677Z" fill="#0092A1"/>
<path d="M71.0765 28.6426C71.2577 28.7181 71.2577 28.8842 71.2577 29.0503V37.4459C71.2577 37.612 71.2577 37.7781 71.0765 37.8536C70.1542 37.18 69.5013 36.2007 69.2343 35.0903C68.8642 33.968 68.8314 32.7618 69.1401 31.6211C69.4488 30.4804 70.0853 29.4553 70.9708 28.6728L71.0765 28.6426Z" fill="#00A786"/>
<path d="M101.17 39.8299H97.7875C97.5912 39.8299 97.5308 39.7544 97.5459 39.5581V38.1085C97.5437 37.9892 97.5809 37.8724 97.6516 37.7763C98.7992 36.372 99.9468 34.9526 101.079 33.5332C101.321 33.6993 101.291 33.956 101.291 34.1976V37.2176C101.197 37.3374 101.111 37.4635 101.034 37.5951C100.943 37.731 101.034 37.6706 101.14 37.7159C101.174 37.7749 101.194 37.8408 101.2 37.9088C101.205 37.9767 101.195 38.045 101.17 38.1085V39.6185C101.187 39.688 101.187 39.7604 101.17 39.8299Z" fill="#0080BA"/>
<path d="M85.1036 38.6683C85.2546 38.5626 85.2093 38.3965 85.2093 38.2606V29.2006C85.2093 29.0496 85.2093 28.8533 85.0281 28.808C85.4016 28.4332 85.849 28.1401 86.3418 27.9473C86.5381 28.0228 86.5381 28.2191 86.5381 28.3852V31.0579C86.5351 31.2069 86.4935 31.3526 86.4173 31.4807C85.8719 32.4311 85.6895 33.5469 85.9039 34.6215C85.9745 35.1109 86.145 35.5806 86.4048 36.0014C86.6646 36.4222 87.008 36.7852 87.4139 37.0677C87.5649 37.1583 87.7612 37.2338 87.7914 37.4603V39.4988C87.7914 39.6649 87.7914 39.9367 87.4894 39.8763C86.5941 39.7125 85.7655 39.293 85.1036 38.6683Z" fill="#008FA6"/>
<path d="M103.993 29.8494V29.7135C103.84 29.2829 103.798 28.8205 103.872 28.3696C103.813 28.1068 103.856 27.8314 103.993 27.5995L107.209 27.5391C107.391 27.5391 107.451 27.6146 107.451 27.7807V29.2907C107.438 29.4536 107.362 29.605 107.24 29.7135L104.386 33.2167C104.386 33.2922 104.28 33.3828 104.22 33.4734C103.887 33.4734 103.963 33.2318 103.963 33.0657V31.1329C103.921 30.7054 103.931 30.2744 103.993 29.8494Z" fill="#007BC0"/>
<path d="M103.995 29.8496C104.063 30.2545 104.063 30.6679 103.995 31.0727V33.1263C103.995 33.2622 103.92 33.4283 104.131 33.4887C103.391 34.4551 102.621 35.4215 101.836 36.3275C101.594 36.6144 101.383 36.9164 101.156 37.2033C100.93 37.2033 101.005 36.9768 101.005 36.8409V34.2286C101.014 34.0036 100.983 33.7789 100.915 33.5642C101.942 32.2958 102.968 31.0576 103.995 29.8496Z" fill="#007DBE"/>
<path d="M76.496 41.8851C76.5624 41.9482 76.6123 42.0266 76.6413 42.1135C76.6702 42.2004 76.6774 42.2931 76.6621 42.3834V44.2256C75.6657 44.429 74.6385 44.429 73.6421 44.2256C73.376 44.2051 73.1154 44.1387 72.872 44.0293C72.7813 43.224 72.8118 42.4096 72.9626 41.6133C73.966 41.959 75.0359 42.0675 76.0883 41.9304C76.2232 41.9074 76.3593 41.8922 76.496 41.8851Z" fill="#009F90"/>
<path d="M87.5828 39.8755C87.7942 39.8755 87.764 39.6792 87.764 39.5282V37.8068C87.7473 37.6598 87.7791 37.5113 87.8546 37.384C87.9452 37.3085 88.0509 37.384 88.1566 37.384C89.033 37.6485 89.968 37.6485 90.8444 37.384C90.8934 37.3588 90.9478 37.3457 91.0029 37.3457C91.0581 37.3457 91.1124 37.3588 91.1615 37.384V39.1054C91.1615 39.2413 91.1615 39.3772 91.237 39.4829C90.1032 40.0403 88.809 40.1793 87.5828 39.8755Z" fill="#008CAA"/>
<path d="M91.2823 27.842C91.0709 27.842 91.1011 28.0383 91.1011 28.1742V30.0013C90.9199 30.1221 90.7538 30.0013 90.6028 30.0013C89.8453 29.7674 89.0349 29.7674 88.2774 30.0013C88.1264 30.0013 87.9754 30.1221 87.8244 30.0013C87.7563 29.4649 87.7563 28.922 87.8244 28.3856C87.8054 28.0897 87.723 27.8013 87.5828 27.54C88.8149 27.2234 90.1178 27.3297 91.2823 27.842Z" fill="#008BAB"/>
<path d="M101.02 29.6994H97.7281C97.5318 29.6994 97.4563 29.6994 97.4714 29.4427V27.827C97.4714 27.6307 97.4714 27.5703 97.7281 27.5703H101.02C101.097 27.6639 101.14 27.7812 101.141 27.9025C101.21 28.5038 101.169 29.1128 101.02 29.6994Z" fill="#0080BA"/>
<path d="M101.173 39.8303V37.7012H104.404C104.6 37.9428 104.51 38.2448 104.525 38.5166C104.54 38.7884 104.525 39.0451 104.525 39.3169C104.525 39.5887 104.631 39.6491 104.872 39.6491H106.035C106.201 39.6491 106.382 39.6491 106.488 39.8152L101.173 39.8303Z" fill="#007DBE"/>
<path d="M74.232 29.8491C74.1717 29.2618 74.1717 28.6698 74.232 28.0824C74.232 27.8559 74.3226 27.6294 74.1414 27.4331C75.2105 27.2567 76.308 27.3985 77.2973 27.8408V29.683C77.2973 29.8038 77.2973 29.985 77.1312 30.0303C76.9651 30.0756 76.9047 30.0303 76.7839 30.0303C76.0988 29.7969 75.3639 29.75 74.6548 29.8944C74.4585 29.9246 74.3377 29.9548 74.232 29.8491Z" fill="#009E92"/>
<path d="M73.989 39.061V36.5997C74.0947 36.494 74.2155 36.5997 74.3212 36.5997C75.0112 36.764 75.7301 36.764 76.4201 36.5997C76.4798 36.5744 76.544 36.5613 76.6089 36.5613C76.6737 36.5613 76.7379 36.5744 76.7976 36.5997C77.009 36.5997 76.9637 36.796 76.9788 36.947V38.759C76.0281 39.1293 74.9945 39.2337 73.989 39.061Z" fill="#009F91"/>
<path d="M106.409 39.8319C105.852 39.7866 105.291 39.7866 104.733 39.8319C104.416 39.8319 104.295 39.8319 104.311 39.4392V37.748H107.21C107.421 37.748 107.482 37.8235 107.482 38.0198V39.6356C107.482 39.847 107.482 39.9225 107.195 39.9225C106.908 39.9225 106.666 39.847 106.409 39.8319Z" fill="#007BC1"/>
<path d="M101.02 29.6984V27.5391H104.04V29.6531L101.02 29.6984Z" fill="#007DBD"/>
<path d="M72.9494 41.6427V43.8926C72.9494 43.8926 72.9494 43.9983 72.8588 44.0587C72.0819 43.8713 71.3383 43.5658 70.6542 43.1527C70.5183 43.1527 70.5485 43.0017 70.6542 42.896C70.8354 42.1712 71.0015 41.386 71.1978 40.6914C71.7535 41.0577 72.3395 41.376 72.9494 41.6427Z" fill="#00A588"/>
<path d="M87.5809 27.5391C87.8376 27.5391 87.8376 27.7354 87.8376 27.9166V30.0306C87.3838 30.452 86.9047 30.8453 86.4031 31.2084V28.43C86.4488 28.2773 86.4488 28.1145 86.4031 27.9619C86.7635 27.7437 87.164 27.6 87.5809 27.5391Z" fill="#008FA6"/>
<path d="M65.7923 26.4062C65.7669 26.2979 65.7013 26.2033 65.6088 26.1416C65.5163 26.0799 65.4037 26.0558 65.294 26.074H60.764C60.3412 26.074 60.2657 26.1948 60.2657 26.5874V39.3772C60.2657 39.8 60.1449 39.8906 59.7523 39.8755H57.1249C56.7474 39.8755 56.6719 39.7547 56.6719 39.3923V26.5421C56.6719 26.1495 56.5662 26.074 56.2038 26.0891H51.3415C51.0697 26.0891 50.964 26.0136 50.9791 25.7267V22.903C50.9791 22.5859 51.0546 22.5104 51.3717 22.5104H63.633C62.8604 21.4316 61.9965 20.4212 61.0509 19.4904C58.3517 16.7927 55.3048 14.4669 51.9908 12.5746C41.789 6.50964 30.2969 2.94456 18.4537 2.17066C15.5377 1.95366 12.6059 2.2086 9.77113 2.92566C7.93996 3.34023 6.23463 4.18712 4.79767 5.39552C3.36072 6.60393 2.23391 8.13874 1.51141 9.87168C0.659517 12.0098 0.218934 14.2896 0.212805 16.5912C0.192461 19.0778 0.445651 21.559 0.967807 23.9902C1.34884 26.1846 1.96651 28.3313 2.81001 30.3926C5.05839 35.6168 8.34055 40.332 12.4589 44.2545C17.7251 49.2466 24.5633 52.252 31.8021 52.7558C34.8879 52.9906 37.9913 52.8078 41.0282 52.2122C47.884 50.9768 54.2737 47.8968 59.5107 43.3032C62.0205 41.1746 64.0311 38.5196 65.3997 35.5266C66.0746 34.1108 66.4571 32.5734 66.5246 31.0064C66.592 29.4394 66.343 27.8748 65.7923 26.4062ZM31.7115 37.3689C31.7188 37.4868 31.6929 37.6045 31.6369 37.7085C31.5809 37.8126 31.4969 37.8989 31.3944 37.9578C29.6815 39.0602 27.7397 39.7573 25.7168 39.9963C23.4962 40.3407 21.2244 39.9257 19.2691 38.8185C18.1228 38.1813 17.1503 37.2726 16.4369 36.1722C15.7235 35.0718 15.2908 33.8131 15.1769 32.5066C14.8619 30.5005 15.2175 28.4464 16.1887 26.6629C16.8393 25.4818 17.7677 24.4769 18.8937 23.735C20.0197 22.9931 21.3095 22.5365 22.6515 22.4047C24.0634 22.1541 25.5117 22.1964 26.9066 22.5288C28.3015 22.8613 29.6132 23.477 30.7602 24.3375C31.0169 24.5338 31.0773 24.6697 30.8961 24.9415C30.4582 25.621 30.0354 26.3005 29.6428 27.0102C29.4767 27.282 29.3861 27.282 29.1445 27.1008C28.2378 26.3943 27.1782 25.9102 26.0505 25.6873C24.9229 25.4644 23.7588 25.5089 22.6515 25.8173C21.5862 26.0856 20.6373 26.6934 19.948 27.5488C19.2588 28.4043 18.8667 29.4608 18.8312 30.5587C18.7627 31.3636 18.8239 32.1742 19.0124 32.9596C19.2054 33.7612 19.5991 34.5005 20.1565 35.108C20.7138 35.7155 21.4165 36.1714 22.1985 36.4327C23.1106 36.7598 24.0793 36.9003 25.0468 36.8458C26.0144 36.7914 26.9611 36.543 27.8308 36.1156C27.9449 36.0778 28.0422 36.0012 28.1057 35.8991C28.1691 35.797 28.1948 35.6759 28.1781 35.5568V33.1408C28.1781 32.8388 28.1781 32.7331 27.7855 32.7331H23.9501C23.6783 32.7331 23.5877 32.7331 23.5877 32.3858V29.9547C23.5877 29.7131 23.6632 29.6527 23.9048 29.6527H31.2887C31.6209 29.6527 31.7417 29.6527 31.7417 30.0755C31.7216 32.4915 31.7115 34.9226 31.7115 37.3689ZM51.4623 39.6188C50.6163 40.0084 49.6872 40.1833 48.7575 40.128C47.8277 40.0726 46.9259 39.7888 46.132 39.3017C45.141 38.685 44.2371 37.9385 43.4442 37.082C42.5231 36.1306 41.602 35.1642 40.696 34.1827C40.5219 33.9755 40.3011 33.8127 40.0516 33.7077C39.8022 33.6026 39.5314 33.5584 39.2615 33.5787C38.28 33.5787 38.28 33.5787 38.28 34.5602V39.4376C38.28 39.7396 38.28 39.8604 37.8874 39.8604H35.0335C34.7919 39.8604 34.7164 39.8604 34.7164 39.5433V22.8124C34.7164 22.5859 34.7164 22.5104 35.0033 22.5104H43.0214C44.3481 22.5151 45.6502 22.8692 46.7964 23.5372C47.5076 23.9449 48.1045 24.5252 48.5321 25.2246C48.9596 25.924 49.204 26.7199 49.2426 27.5387C49.3222 28.255 49.2594 28.9798 49.0578 29.6717C48.8562 30.3636 48.5197 31.0087 48.0679 31.5701C47.616 32.1314 47.0575 32.5979 46.4247 32.9426C45.7919 33.2873 45.0971 33.5035 44.3804 33.5787C45.356 34.638 46.4333 35.599 47.5967 36.4478C48.1024 36.787 48.6839 36.9961 49.2897 37.0567C49.8955 37.1173 50.507 37.0274 51.0697 36.7951C51.3566 36.6894 51.4623 36.7196 51.4925 37.0367C51.4925 37.7464 51.6435 38.4561 51.7492 39.1658C51.7604 39.2144 51.7618 39.2647 51.7534 39.3138C51.7449 39.3629 51.7269 39.4099 51.7002 39.452C51.6735 39.4942 51.6388 39.5306 51.5979 39.5592C51.5571 39.5878 51.511 39.6081 51.4623 39.6188Z" fill="#00A883"/>
<path d="M38.2937 28.2046V25.9396C38.2937 25.7584 38.2937 25.6074 38.5504 25.6074H43.2616C43.5797 25.6188 43.8923 25.6941 44.1807 25.8289C44.4691 25.9636 44.7273 26.1551 44.9401 26.3919C45.1529 26.6286 45.3158 26.9058 45.4192 27.2068C45.5226 27.5079 45.5642 27.8267 45.5417 28.1442C45.56 28.4628 45.5151 28.7819 45.4094 29.083C45.3037 29.3841 45.1394 29.6613 44.926 29.8986C44.7126 30.1359 44.4543 30.3285 44.1661 30.4654C43.8778 30.6023 43.5653 30.6807 43.2465 30.6961C41.7365 30.8169 40.1057 30.6961 38.5353 30.6961C38.3088 30.6961 38.2937 30.5753 38.2937 30.3941V28.2046Z" fill="#00A884"/>
</g>
<defs>
<clipPath id="clip0_189_5388">
<rect width="107.92" height="54.9944" fill="white" transform="translate(0.000732422 0.359375)"/>
</clipPath>
</defs>
</svg>
